0
SECTION
2
ENTITIES
999
Created by Metasequoia
0
3DFACE
8
layer1
62
1
10
1089.54028
20
627.01343
30
0.04760
11
1089.54028
21
694.58569
31
163.18230
12
1089.54028
22
559.44098
32
163.18230
0
3DFACE
8
layer1
62
1
10
1089.54028
20
627.01343
30
0.04760
11
1089.54028
21
559.44098
31
163.18230
12
1089.54028
22
463.87881
32
67.62020
0
3DFACE
8
layer1
62
1
10
1089.54028
20
627.01343
30
0.04760
11
1089.54028
21
463.87881
31
67.62020
12
1089.54028
22
463.87869
32
-67.52490
0
3DFACE
8
layer1
62
1
10
1089.54028
20
627.01343
30
0.04760
11
1089.54028
21
463.87869
31
-67.52490
12
1089.54028
22
559.44098
32
-163.08710
0
3DFACE
8
layer1
62
1
10
1089.54028
20
627.01343
30
0.04760
11
1089.54028
21
559.44098
31
-163.08710
12
1089.54028
22
694.58588
32
-163.08710
0
3DFACE
8
layer1
62
1
10
1089.54028
20
627.01343
30
0.04760
11
1089.54028
21
694.58588
31
-163.08710
12
1089.54028
22
790.14728
32
-67.52480
0
3DFACE
8
layer1
62
1
10
1089.54028
20
627.01343
30
0.04760
11
1089.54028
21
790.14728
31
-67.52480
12
1089.54028
22
790.14758
32
67.62020
0
3DFACE
8
layer1
62
1
10
1089.54028
20
627.01343
30
0.04760
11
1089.54028
21
790.14758
31
67.62020
12
1089.54028
22
694.58569
32
163.18230
0
3DFACE
8
layer1
62
1
10
451.20071
20
538.56329
30
-157.62570
11
380.60721
21
538.56329
31
-157.62570
12
380.60721
22
712.83240
32
-157.62570
13
451.20071
23
712.83240
33
-157.62570
0
3DFACE
8
layer1
62
1
10
651.20099
20
538.56329
30
-157.62570
11
580.60748
21
538.56329
31
-157.62570
12
580.60748
22
712.83240
32
-157.62570
13
651.20099
23
712.83240
33
-157.62570
0
3DFACE
8
layer1
62
1
10
851.29138
20
538.56329
30
-157.62570
11
780.51703
21
538.56329
31
-157.62570
12
780.51703
22
712.83240
32
-157.62570
13
851.29138
23
712.83240
33
-157.62570
0
3DFACE
8
layer1
62
1
10
355.77631
20
538.56329
30
-157.62570
11
346.59610
21
538.56329
31
-157.62570
12
346.59610
22
714.11371
32
-157.62570
13
355.77631
23
714.11371
33
-157.62570
0
3DFACE
8
layer1
62
1
10
355.77631
20
713.79431
30
-157.07750
11
346.59610
21
713.79431
31
-157.07750
12
346.59610
22
780.44513
32
-29.03880
13
355.77631
23
780.44513
33
-29.03880
0
3DFACE
8
layer1
62
1
10
346.59610
20
538.27911
30
-157.07750
11
355.77631
21
538.27911
31
-157.07750
12
355.77631
22
471.62839
32
-29.03880
13
346.59610
23
471.62839
33
-29.03880
0
3DFACE
8
layer1
62
1
10
521.03052
20
538.56329
30
-157.62570
11
511.85040
21
538.56329
31
-157.62570
12
511.85040
22
714.11371
32
-157.62570
13
521.03052
23
714.11371
33
-157.62570
0
3DFACE
8
layer1
62
1
10
521.03052
20
713.79431
30
-157.07750
11
511.85040
21
713.79431
31
-157.07750
12
511.85040
22
780.44513
32
-29.03880
13
521.03052
23
780.44513
33
-29.03880
0
3DFACE
8
layer1
62
1
10
511.85040
20
538.27911
30
-157.07750
11
521.03052
21
538.27911
31
-157.07750
12
521.03052
22
471.62839
32
-29.03880
13
511.85040
23
471.62839
33
-29.03880
0
3DFACE
8
layer1
62
1
10
723.05939
20
538.56329
30
-157.62570
11
713.87927
21
538.56329
31
-157.62570
12
713.87927
22
714.11371
32
-157.62570
13
723.05939
23
714.11371
33
-157.62570
0
3DFACE
8
layer1
62
1
10
723.05939
20
713.79431
30
-157.07750
11
713.87927
21
713.79431
31
-157.07750
12
713.87927
22
780.44513
32
-29.03880
13
723.05939
23
780.44513
33
-29.03880
0
3DFACE
8
layer1
62
1
10
713.87927
20
538.27911
30
-157.07750
11
723.05939
21
538.27911
31
-157.07750
12
723.05939
22
471.62839
32
-29.03880
13
713.87927
23
471.62839
33
-29.03880
0
3DFACE
8
layer1
62
1
10
451.20071
20
538.56329
30
157.62570
11
451.20071
21
712.83240
31
157.62570
12
380.60721
22
712.83240
32
157.62570
13
380.60721
23
538.56329
33
157.62570
0
3DFACE
8
layer1
62
1
10
651.20099
20
538.56329
30
157.62570
11
651.20099
21
712.83240
31
157.62570
12
580.60748
22
712.83240
32
157.62570
13
580.60748
23
538.56329
33
157.62570
0
3DFACE
8
layer1
62
1
10
851.29138
20
538.56329
30
157.62570
11
851.29138
21
712.83240
31
157.62570
12
780.51703
22
712.83240
32
157.62570
13
780.51703
23
538.56329
33
157.62570
0
3DFACE
8
layer1
62
1
10
965.16858
20
681.04419
30
175.37030
11
965.16858
21
698.09839
31
175.37030
12
951.65570
22
698.09839
32
175.37030
13
951.65570
23
681.04419
33
175.37030
0
3DFACE
8
layer1
62
1
10
1045.16919
20
681.04419
30
175.37030
11
1045.16919
21
698.09839
31
175.37030
12
1031.65625
22
698.09839
32
175.37030
13
1031.65625
23
681.04419
33
175.37030
0
3DFACE
8
layer1
62
1
10
965.16858
20
552.99902
30
175.37030
11
965.16858
21
570.05322
31
175.37030
12
951.65570
22
570.05322
32
175.37030
13
951.65570
23
552.99902
33
175.37030
0
3DFACE
8
layer1
62
1
10
1045.16919
20
552.99902
30
175.37030
11
1045.16919
21
570.05322
31
175.37030
12
1031.65625
22
570.05322
32
175.37030
13
1031.65625
23
552.99902
33
175.37030
0
3DFACE
8
layer1
62
1
10
965.16858
20
681.04419
30
-175.37030
11
951.65570
21
681.04419
31
-175.37030
12
951.65570
22
698.09839
32
-175.37030
13
965.16858
23
698.09839
33
-175.37030
0
3DFACE
8
layer1
62
1
10
1045.16919
20
681.04419
30
-175.37030
11
1031.65625
21
681.04419
31
-175.37030
12
1031.65625
22
698.09839
32
-175.37030
13
1045.16919
23
698.09839
33
-175.37030
0
3DFACE
8
layer1
62
1
10
965.16858
20
552.99902
30
-175.37030
11
951.65570
21
552.99902
31
-175.37030
12
951.65570
22
570.05322
32
-175.37030
13
965.16858
23
570.05322
33
-175.37030
0
3DFACE
8
layer1
62
1
10
1045.16919
20
552.99902
30
-175.37030
11
1031.65625
21
552.99902
31
-175.37030
12
1031.65625
22
570.05322
32
-175.37030
13
1045.16919
23
570.05322
33
-175.37030
0
3DFACE
8
layer1
62
1
10
355.77631
20
538.56329
30
157.62570
11
355.77631
21
714.11371
31
157.62570
12
346.59610
22
714.11371
32
157.62570
13
346.59610
23
538.56329
33
157.62570
0
3DFACE
8
layer1
62
1
10
355.77631
20
713.79431
30
157.07750
11
355.77631
21
780.44513
31
29.03880
12
346.59610
22
780.44513
32
29.03880
13
346.59610
23
713.79431
33
157.07750
0
3DFACE
8
layer1
62
1
10
346.59610
20
538.27911
30
157.07750
11
346.59610
21
471.62839
31
29.03880
12
355.77631
22
471.62839
32
29.03880
13
355.77631
23
538.27911
33
157.07750
0
3DFACE
8
layer1
62
1
10
521.03052
20
538.56329
30
157.62570
11
521.03052
21
714.11371
31
157.62570
12
511.85040
22
714.11371
32
157.62570
13
511.85040
23
538.56329
33
157.62570
0
3DFACE
8
layer1
62
1
10
521.03052
20
713.79431
30
157.07750
11
521.03052
21
780.44513
31
29.03880
12
511.85040
22
780.44513
32
29.03880
13
511.85040
23
713.79431
33
157.07750
0
3DFACE
8
layer1
62
1
10
511.85040
20
538.27911
30
157.07750
11
511.85040
21
471.62839
31
29.03880
12
521.03052
22
471.62839
32
29.03880
13
521.03052
23
538.27911
33
157.07750
0
3DFACE
8
layer1
62
1
10
723.05939
20
538.56329
30
157.62570
11
723.05939
21
714.11371
31
157.62570
12
713.87927
22
714.11371
32
157.62570
13
713.87927
23
538.56329
33
157.62570
0
3DFACE
8
layer1
62
1
10
723.05939
20
713.79431
30
157.07750
11
723.05939
21
780.44513
31
29.03880
12
713.87927
22
780.44513
32
29.03880
13
713.87927
23
713.79431
33
157.07750
0
3DFACE
8
layer1
62
1
10
713.87927
20
538.27911
30
157.07750
11
713.87927
21
471.62839
31
29.03880
12
723.05939
22
471.62839
32
29.03880
13
723.05939
23
538.27911
33
157.07750
0
3DFACE
8
layer1
62
1
10
355.77631
20
780.55688
30
-28.55260
11
346.59610
21
780.55688
31
-28.55260
12
346.59610
22
472.11990
32
-28.55260
13
355.77631
23
472.11990
33
-28.55260
0
3DFACE
8
layer1
62
1
10
521.03052
20
780.55688
30
-28.55260
11
511.85040
21
780.55688
31
-28.55260
12
511.85040
22
472.11990
32
-28.55260
13
521.03052
23
472.11990
33
-28.55260
0
3DFACE
8
layer1
62
1
10
723.05939
20
780.55688
30
-28.55260
11
713.87927
21
780.55688
31
-28.55260
12
713.87927
22
472.11990
32
-28.55260
13
723.05939
23
472.11990
33
-28.55260
0
3DFACE
8
layer1
62
1
10
355.77631
20
780.55688
30
28.55260
11
355.77631
21
472.11990
31
28.55260
12
346.59610
22
472.11990
32
28.55260
13
346.59610
23
780.55688
33
28.55260
0
3DFACE
8
layer1
62
1
10
521.03052
20
780.55688
30
28.55260
11
521.03052
21
472.11990
31
28.55260
12
511.85040
22
472.11990
32
28.55260
13
511.85040
23
780.55688
33
28.55260
0
3DFACE
8
layer1
62
1
10
723.05939
20
780.55688
30
28.55260
11
723.05939
21
472.11990
31
28.55260
12
713.87927
22
472.11990
32
28.55260
13
713.87927
23
780.55688
33
28.55260
0
3DFACE
8
layer1
62
1
10
-48.90920
20
799.47552
30
-155.10049
11
-57.04530
21
799.47552
31
-155.10049
12
-57.04530
22
799.47552
32
155.10049
13
-48.90920
23
799.47552
33
155.10049
0
3DFACE
8
layer1
62
1
10
240.77589
20
799.47552
30
-155.10049
11
232.63980
21
799.47552
31
-155.10049
12
232.63980
22
799.47552
32
155.10049
13
240.77589
23
799.47552
33
155.10049
0
3DFACE
8
layer1
62
1
10
-48.90920
20
766.09229
30
-666.40979
11
-57.04530
21
766.09229
31
-666.40979
12
-57.04530
22
766.46771
32
-146.66470
13
-48.90920
23
766.46771
33
-146.66470
0
3DFACE
8
layer1
62
1
10
240.77589
20
766.09229
30
-666.40979
11
232.63980
21
766.09229
31
-666.40979
12
232.63980
22
766.46771
32
-146.66470
13
240.77589
23
766.46771
33
-146.66470
0
3DFACE
8
layer1
62
1
10
-48.90920
20
766.09229
30
666.40979
11
-48.90920
21
766.46771
31
146.66470
12
-57.04530
22
766.46771
32
146.66470
13
-57.04530
23
766.09229
33
666.40979
0
3DFACE
8
layer1
62
1
10
240.77589
20
766.09229
30
666.40979
11
240.77589
21
766.46771
31
146.66470
12
232.63980
22
766.46771
32
146.66470
13
232.63980
23
766.09229
33
666.40979
0
3DFACE
8
layer1
62
1
10
-53.36640
20
766.46771
30
-443.15881
11
-53.36640
21
766.46771
31
-430.01550
12
236.93140
22
766.46771
32
-430.01550
13
236.93140
23
766.46771
33
-443.15891
0
3DFACE
8
layer1
62
1
10
-53.36640
20
766.46771
30
443.15881
11
236.93140
21
766.46771
31
443.15891
12
236.93140
22
766.46771
32
430.01550
13
-53.36640
23
766.46771
33
430.01550
0
3DFACE
8
layer1
62
1
10
-48.90920
20
647.02319
30
-730.10889
11
-57.04530
21
647.02319
31
-730.10889
12
-57.04530
22
765.95837
32
-666.35901
13
-48.90920
23
765.95837
33
-666.35901
0
3DFACE
8
layer1
62
1
10
240.77589
20
647.02319
30
-730.10889
11
232.63980
21
647.02319
31
-730.10889
12
232.63980
22
765.95837
32
-666.35901
13
240.77589
23
765.95837
33
-666.35901
0
3DFACE
8
layer1
62
1
10
-48.90920
20
647.02319
30
730.10889
11
-48.90920
21
765.95837
31
666.35901
12
-57.04530
22
765.95837
32
666.35901
13
-57.04530
23
647.02319
33
730.10889
0
3DFACE
8
layer1
62
1
10
240.77589
20
647.02319
30
730.10889
11
240.77589
21
765.95837
31
666.35901
12
232.63980
22
765.95837
32
666.35901
13
232.63980
23
647.02319
33
730.10889
0
3DFACE
8
layer1
62
1
10
-53.36640
20
766.46771
30
-644.07648
11
-53.36640
21
766.46771
31
-630.93311
12
236.93140
22
766.46771
32
-630.93311
13
236.93140
23
766.46771
33
-644.07648
0
3DFACE
8
layer1
62
1
10
-53.36640
20
766.46771
30
644.07648
11
236.93140
21
766.46771
31
644.07648
12
236.93140
22
766.46771
32
630.93311
13
-53.36640
23
766.46771
33
630.93311
0
3DFACE
8
layer1
62
1
10
-48.90920
20
761.67657
30
-155.43570
11
-57.04530
21
761.67657
31
-155.43570
12
-57.04530
22
799.44812
32
-155.43570
13
-48.90920
23
799.44812
33
-155.43570
0
3DFACE
8
layer1
62
1
10
240.77589
20
761.67657
30
-155.43570
11
232.63980
21
761.67657
31
-155.43570
12
232.63980
22
799.44812
32
-155.43570
13
240.77589
23
799.44812
33
-155.43570
0
3DFACE
8
layer1
62
1
10
-48.90920
20
761.67657
30
155.43570
11
-48.90920
21
799.44812
31
155.43570
12
-57.04530
22
799.44812
32
155.43570
13
-57.04530
23
761.67657
33
155.43570
0
3DFACE
8
layer1
62
1
10
240.77589
20
761.67657
30
155.43570
11
240.77589
21
799.44812
31
155.43570
12
232.63980
22
799.44812
32
155.43570
13
232.63980
23
761.67657
33
155.43570
0
3DFACE
8
layer1
62
1
10
-100.85030
20
437.80939
30
-83.05490
11
-213.03990
21
501.51221
31
-83.05490
12
-213.03990
22
502.41379
32
-83.05490
13
-100.85030
23
566.11658
33
-83.05490
0
3DFACE
8
layer1
62
1
10
-216.21561
20
515.36353
30
-83.05490
11
-219.67349
21
515.36353
31
-83.05490
12
-332.62109
22
565.13568
32
-83.05490
13
-124.35380
23
565.13568
33
-83.05490
0
3DFACE
8
layer1
62
1
10
-225.26691
20
492.57709
30
-83.05490
11
-223.20250
21
492.57690
31
-83.05490
12
-112.63770
22
428.55560
32
-83.05490
13
-335.83160
23
469.04251
33
-83.05490
0
3DFACE
8
layer1
62
1
10
-224.54080
20
504.12189
30
-83.05490
11
-224.97839
21
501.97839
31
-83.05490
12
-335.25229
22
481.58670
32
-83.05490
13
-335.52420
23
555.81738
33
-83.05490
0
3DFACE
8
layer1
62
1
10
-100.85030
20
437.80939
30
83.05490
11
-100.85030
21
566.11658
31
83.05490
12
-213.03990
22
502.41379
32
83.05490
13
-213.03990
23
501.51221
33
83.05490
0
3DFACE
8
layer1
62
1
10
-216.21561
20
515.36353
30
83.05490
11
-124.35380
21
565.13568
31
83.05490
12
-332.62109
22
565.13568
32
83.05490
13
-219.67349
23
515.36353
33
83.05490
0
3DFACE
8
layer1
62
1
10
-225.26691
20
492.57709
30
83.05490
11
-335.83160
21
469.04251
31
83.05490
12
-112.63770
22
428.55560
32
83.05490
13
-223.20250
23
492.57690
33
83.05490
0
3DFACE
8
layer1
62
1
10
-224.54080
20
504.12189
30
83.05490
11
-335.52420
21
555.81738
31
83.05490
12
-335.25229
22
481.58670
32
83.05490
13
-224.97839
23
501.97839
33
83.05490
0
3DFACE
8
layer1
62
1
10
-210.92810
20
772.75012
30
-84.24110
11
-234.94150
21
772.75012
31
-84.24110
12
-234.94150
22
797.27332
32
-34.50850
13
-210.92810
23
797.27332
33
-34.50850
0
3DFACE
8
layer1
62
1
10
-210.92810
20
772.75012
30
84.24110
11
-210.92810
21
797.27332
31
34.50850
12
-234.94150
22
797.27332
32
34.50850
13
-234.94150
23
772.75012
33
84.24110
0
3DFACE
8
layer1
62
1
10
-507.31229
20
772.75012
30
-84.24110
11
-531.32568
21
772.75012
31
-84.24110
12
-531.32568
22
797.27332
32
-34.50850
13
-507.31229
23
797.27332
33
-34.50850
0
3DFACE
8
layer1
62
1
10
-507.31229
20
772.75012
30
84.24110
11
-507.31229
21
797.27332
31
34.50850
12
-531.32568
22
797.27332
32
34.50850
13
-531.32568
23
772.75012
33
84.24110
0
3DFACE
8
layer1
62
1
10
-352.98801
20
772.75012
30
-84.24110
11
-377.00150
21
772.75012
31
-84.24110
12
-377.00150
22
797.27332
32
-34.50850
13
-352.98801
23
797.27332
33
-34.50850
0
3DFACE
8
layer1
62
1
10
-352.98801
20
772.75012
30
84.24110
11
-352.98801
21
797.27332
31
34.50850
12
-377.00150
22
797.27332
32
34.50850
13
-377.00150
23
772.75012
33
84.24110
0
3DFACE
8
layer1
62
1
10
-444.86639
20
666.99200
30
-156.96010
11
-535.83179
21
666.99200
31
-156.96010
12
-535.83179
22
690.96478
32
-156.96010
13
-444.86639
23
690.96478
33
-156.96010
0
3DFACE
8
layer1
62
1
10
-204.51320
20
666.99200
30
-156.96010
11
-295.47919
21
666.99200
31
-156.96010
12
-295.47919
22
690.96478
32
-156.96010
13
-204.51320
23
690.96478
33
-156.96010
0
3DFACE
8
layer1
62
1
10
-602.50470
20
730.58002
30
-147.76880
11
-602.50470
21
652.66101
31
-147.76880
12
-602.50470
22
605.08691
32
-44.48210
13
-602.50470
23
778.15417
33
-44.48210
0
3DFACE
8
layer1
62
1
10
-602.50470
20
730.58002
30
147.76880
11
-602.50470
21
778.15417
31
44.48210
12
-602.50470
22
605.08691
32
44.48210
13
-602.50470
23
652.66101
33
147.76880
0
3DFACE
8
layer1
62
1
10
-204.51320
20
666.99200
30
156.96010
11
-204.51320
21
690.96478
31
156.96010
12
-295.47919
22
690.96478
32
156.96010
13
-295.47919
23
666.99200
33
156.96010
0
3DFACE
8
layer1
62
1
10
-551.86322
20
737.92023
30
-155.62041
11
-556.24701
21
737.92023
31
-155.62041
12
-556.24701
22
797.27332
32
-34.50850
13
-551.86322
23
797.27332
33
-34.50850
0
3DFACE
8
layer1
62
1
10
-551.86322
20
646.21320
30
-155.62041
11
-551.86322
21
586.86011
31
-34.50850
12
-556.24701
22
586.86011
32
-34.50850
13
-556.24701
23
646.21320
33
-155.62041
0
3DFACE
8
layer1
62
1
10
-551.84100
20
645.95111
30
-156.27319
11
-556.19238
21
645.95111
31
-156.27319
12
-556.19238
22
738.38062
32
-156.27319
13
-551.84100
23
738.38062
33
-156.27319
0
3DFACE
8
layer1
62
1
10
-309.22589
20
737.92023
30
-155.62041
11
-313.60959
21
737.92023
31
-155.62041
12
-313.60959
22
797.27332
32
-34.50850
13
-309.22589
23
797.27332
33
-34.50850
0
3DFACE
8
layer1
62
1
10
-309.22589
20
646.21320
30
-155.62041
11
-309.22589
21
586.86011
31
-34.50850
12
-313.60959
22
586.86011
32
-34.50850
13
-313.60959
23
646.21320
33
-155.62041
0
3DFACE
8
layer1
62
1
10
-309.20361
20
645.95111
30
-156.27319
11
-313.55511
21
645.95111
31
-156.27319
12
-313.55511
22
738.38062
32
-156.27319
13
-309.20361
23
738.38062
33
-156.27319
0
3DFACE
8
layer1
62
1
10
-444.86639
20
666.99200
30
156.96010
11
-444.86639
21
690.96478
31
156.96010
12
-535.83179
22
690.96478
32
156.96010
13
-535.83179
23
666.99200
33
156.96010
0
3DFACE
8
layer1
62
1
10
-551.86322
20
737.92023
30
155.62041
11
-551.86322
21
797.27332
31
34.50850
12
-556.24701
22
797.27332
32
34.50850
13
-556.24701
23
737.92023
33
155.62041
0
3DFACE
8
layer1
62
1
10
-551.86322
20
646.21320
30
155.62041
11
-556.24701
21
646.21320
31
155.62041
12
-556.24701
22
586.86011
32
34.50850
13
-551.86322
23
586.86011
33
34.50850
0
3DFACE
8
layer1
62
1
10
-551.84100
20
645.95111
30
156.27319
11
-551.84100
21
738.38062
31
156.27319
12
-556.19238
22
738.38062
32
156.27319
13
-556.19238
23
645.95111
33
156.27319
0
3DFACE
8
layer1
62
1
10
-309.22589
20
737.92023
30
155.62041
11
-309.22589
21
797.27332
31
34.50850
12
-313.60959
22
797.27332
32
34.50850
13
-313.60959
23
737.92023
33
155.62041
0
3DFACE
8
layer1
62
1
10
-309.22589
20
646.21320
30
155.62041
11
-313.60959
21
646.21320
31
155.62041
12
-313.60959
22
586.86011
32
34.50850
13
-309.22589
23
586.86011
33
34.50850
0
3DFACE
8
layer1
62
1
10
-309.20361
20
645.95111
30
156.27319
11
-309.20361
21
738.38062
31
156.27319
12
-313.55511
22
738.38062
32
156.27319
13
-313.55511
23
645.95111
33
156.27319
0
3DFACE
8
layer1
62
1
10
-551.84100
20
586.92548
30
33.48940
11
-556.19238
21
586.92548
31
33.48940
12
-556.19238
22
797.40613
32
33.48940
13
-551.84100
23
797.40613
33
33.48940
0
3DFACE
8
layer1
62
1
10
-309.20361
20
586.92548
30
33.48940
11
-313.55511
21
586.92548
31
33.48940
12
-313.55511
22
797.40613
32
33.48940
13
-309.20361
23
797.40613
33
33.48940
0
3DFACE
8
layer1
62
1
10
-551.84100
20
586.92548
30
-33.48940
11
-551.84100
21
797.40613
31
-33.48940
12
-556.19238
22
797.40613
32
-33.48940
13
-556.19238
23
586.92548
33
-33.48940
0
3DFACE
8
layer1
62
1
10
-309.20361
20
586.92548
30
-33.48940
11
-309.20361
21
797.40613
31
-33.48940
12
-313.55511
22
797.40613
32
-33.48940
13
-313.55511
23
586.92548
33
-33.48940
0
3DFACE
8
layer1
62
1
10
-2105.47900
20
730.58008
30
-147.76880
11
-2105.47900
21
652.66107
31
-147.76880
12
-2105.47900
22
605.08698
32
-44.48210
13
-2105.47900
23
778.15417
33
-44.48210
0
3DFACE
8
layer1
62
1
10
-2105.47900
20
730.58008
30
147.76880
11
-2105.47900
21
778.15417
31
44.48210
12
-2105.47900
22
605.08698
32
44.48210
13
-2105.47900
23
652.66107
33
147.76880
0
3DFACE
8
layer1
62
1
10
-1133.88647
20
772.75012
30
-84.24110
11
-1157.90002
21
772.75012
31
-84.24110
12
-1157.90002
22
797.27332
32
-34.50850
13
-1133.88647
23
797.27332
33
-34.50850
0
3DFACE
8
layer1
62
1
10
-1133.88647
20
772.75012
30
84.24110
11
-1133.88647
21
797.27332
31
34.50850
12
-1157.90002
22
797.27332
32
34.50850
13
-1157.90002
23
772.75012
33
84.24110
0
3DFACE
8
layer1
62
1
10
-1430.27063
20
772.75012
30
-84.24110
11
-1454.28418
21
772.75012
31
-84.24110
12
-1454.28418
22
797.27332
32
-34.50850
13
-1430.27063
23
797.27332
33
-34.50850
0
3DFACE
8
layer1
62
1
10
-1430.27063
20
772.75012
30
84.24110
11
-1430.27063
21
797.27332
31
34.50850
12
-1454.28418
22
797.27332
32
34.50850
13
-1454.28418
23
772.75012
33
84.24110
0
3DFACE
8
layer1
62
1
10
-1275.94641
20
772.75012
30
-84.24110
11
-1299.95996
21
772.75012
31
-84.24110
12
-1299.95996
22
797.27332
32
-34.50850
13
-1275.94641
23
797.27332
33
-34.50850
0
3DFACE
8
layer1
62
1
10
-1275.94641
20
772.75012
30
84.24110
11
-1275.94641
21
797.27332
31
34.50850
12
-1299.95996
22
797.27332
32
34.50850
13
-1299.95996
23
772.75012
33
84.24110
0
3DFACE
8
layer1
62
1
10
-1648.30725
20
772.75012
30
-84.24110
11
-1672.32080
21
772.75012
31
-84.24110
12
-1672.32080
22
797.27332
32
-34.50850
13
-1648.30725
23
797.27332
33
-34.50850
0
3DFACE
8
layer1
62
1
10
-1648.30725
20
772.75012
30
84.24110
11
-1648.30725
21
797.27332
31
34.50850
12
-1672.32080
22
797.27332
32
34.50850
13
-1672.32080
23
772.75012
33
84.24110
0
3DFACE
8
layer1
62
1
10
-1944.69141
20
772.75012
30
-84.24110
11
-1968.70496
21
772.75012
31
-84.24110
12
-1968.70496
22
797.27332
32
-34.50850
13
-1944.69141
23
797.27332
33
-34.50850
0
3DFACE
8
layer1
62
1
10
-1944.69141
20
772.75012
30
84.24110
11
-1944.69141
21
797.27332
31
34.50850
12
-1968.70496
22
797.27332
32
34.50850
13
-1968.70496
23
772.75012
33
84.24110
0
3DFACE
8
layer1
62
1
10
-1790.36719
20
772.75012
30
-84.24110
11
-1814.38074
21
772.75012
31
-84.24110
12
-1814.38074
22
797.27332
32
-34.50850
13
-1790.36719
23
797.27332
33
-34.50850
0
3DFACE
8
layer1
62
1
10
-1790.36719
20
772.75012
30
84.24110
11
-1790.36719
21
797.27332
31
34.50850
12
-1814.38074
22
797.27332
32
34.50850
13
-1814.38074
23
772.75012
33
84.24110
0
3DFACE
8
layer1
62
1
10
-1529.34314
20
666.99200
30
-156.96010
11
-1555.60010
21
666.99200
31
-156.96010
12
-1555.60010
22
690.96478
32
-156.96010
13
-1529.34314
23
690.96478
33
-156.96010
0
3DFACE
8
layer1
62
1
10
-1371.80310
20
666.99200
30
-156.96010
11
-1462.76904
21
666.99200
31
-156.96010
12
-1462.76904
22
690.96478
32
-156.96010
13
-1371.80310
23
690.96478
33
-156.96010
0
3DFACE
8
layer1
62
1
10
-1131.44995
20
666.99200
30
-156.96010
11
-1222.41589
21
666.99200
31
-156.96010
12
-1222.41589
22
690.96478
32
-156.96010
13
-1131.44995
23
690.96478
33
-156.96010
0
3DFACE
8
layer1
62
1
10
-1529.34314
20
666.99200
30
156.96010
11
-1529.34314
21
690.96478
31
156.96010
12
-1555.60010
22
690.96478
32
156.96010
13
-1555.60010
23
666.99200
33
156.96010
0
3DFACE
8
layer1
62
1
10
-1371.80310
20
666.99200
30
156.96010
11
-1371.80310
21
690.96478
31
156.96010
12
-1462.76904
22
690.96478
32
156.96010
13
-1462.76904
23
666.99200
33
156.96010
0
3DFACE
8
layer1
62
1
10
-1063.68933
20
652.66107
30
-147.76880
11
-1063.68933
21
730.58008
31
-147.76880
12
-1063.68933
22
778.15417
32
-44.48210
13
-1063.68933
23
605.08691
33
-44.48210
0
3DFACE
8
layer1
62
1
10
-1063.68933
20
652.66107
30
147.76880
11
-1063.68933
21
605.08691
31
44.48210
12
-1063.68933
22
778.15417
32
44.48210
13
-1063.68933
23
730.58008
33
147.76880
0
3DFACE
8
layer1
62
1
10
-1239.46545
20
737.92023
30
-155.62041
11
-1243.84924
21
737.92023
31
-155.62041
12
-1243.84924
22
797.27332
32
-34.50850
13
-1239.46545
23
797.27332
33
-34.50850
0
3DFACE
8
layer1
62
1
10
-1239.46545
20
646.21320
30
-155.62041
11
-1239.46545
21
586.86011
31
-34.50850
12
-1243.84924
22
586.86011
32
-34.50850
13
-1243.84924
23
646.21320
33
-155.62041
0
3DFACE
8
layer1
62
1
10
-1239.44324
20
645.95111
30
-156.27319
11
-1243.79468
21
645.95111
31
-156.27319
12
-1243.79468
22
738.38062
32
-156.27319
13
-1239.44324
23
738.38062
33
-156.27319
0
3DFACE
8
layer1
62
1
10
-1131.44995
20
666.99200
30
156.96010
11
-1131.44995
21
690.96478
31
156.96010
12
-1222.41589
22
690.96478
32
156.96010
13
-1222.41589
23
666.99200
33
156.96010
0
3DFACE
8
layer1
62
1
10
-911.52283
20
666.99200
30
156.96010
11
-911.52283
21
690.96478
31
156.96010
12
-1002.48828
22
690.96478
32
156.96010
13
-1002.48828
23
666.99200
33
156.96010
0
3DFACE
8
layer1
62
1
10
-671.16968
20
666.99200
30
156.96010
11
-671.16968
21
690.96478
31
156.96010
12
-762.13562
22
690.96478
32
156.96010
13
-762.13562
23
666.99200
33
156.96010
0
3DFACE
8
layer1
62
1
10
-911.52283
20
666.99200
30
-156.96010
11
-1002.48828
21
666.99200
31
-156.96010
12
-1002.48828
22
690.96478
32
-156.96010
13
-911.52283
23
690.96478
33
-156.96010
0
3DFACE
8
layer1
62
1
10
-671.16968
20
666.99200
30
-156.96010
11
-762.13562
21
666.99200
31
-156.96010
12
-762.13562
22
690.96478
32
-156.96010
13
-671.16968
23
690.96478
33
-156.96010
0
3DFACE
8
layer1
62
1
10
-1239.46545
20
737.92023
30
155.62041
11
-1239.46545
21
797.27332
31
34.50850
12
-1243.84924
22
797.27332
32
34.50850
13
-1243.84924
23
737.92023
33
155.62041
0
3DFACE
8
layer1
62
1
10
-1239.46545
20
646.21320
30
155.62041
11
-1243.84924
21
646.21320
31
155.62041
12
-1243.84924
22
586.86011
32
34.50850
13
-1239.46545
23
586.86011
33
34.50850
0
3DFACE
8
layer1
62
1
10
-1239.44324
20
645.95111
30
156.27319
11
-1239.44324
21
738.38062
31
156.27319
12
-1243.79468
22
738.38062
32
156.27319
13
-1243.79468
23
645.95111
33
156.27319
0
3DFACE
8
layer1
62
1
10
-1239.44324
20
586.92548
30
33.48940
11
-1243.79468
21
586.92548
31
33.48940
12
-1243.79468
22
797.40613
32
33.48940
13
-1239.44324
23
797.40613
33
33.48940
0
3DFACE
8
layer1
62
1
10
-1239.44324
20
586.92548
30
-33.48940
11
-1239.44324
21
797.40613
31
-33.48940
12
-1243.79468
22
797.40613
32
-33.48940
13
-1243.79468
23
586.92548
33
-33.48940
0
3DFACE
8
layer1
62
1
10
208.12630
20
556.20740
30
-70.35480
11
185.50790
21
556.20740
31
-70.35480
12
185.50790
22
696.46167
32
-103.13620
13
208.12630
23
696.46167
33
-103.13620
0
3DFACE
8
layer1
62
1
10
208.12630
20
556.20740
30
70.35480
11
208.12630
21
696.46167
31
103.13620
12
185.50790
22
696.46167
32
103.13620
13
185.50790
23
556.20740
33
70.35480
0
3DFACE
8
layer1
62
1
10
8.12630
20
556.20740
30
-70.35480
11
-14.49210
21
556.20740
31
-70.35480
12
-14.49210
22
696.46167
32
-103.13620
13
8.12630
23
696.46167
33
-103.13620
0
3DFACE
8
layer1
62
1
10
8.12630
20
556.20740
30
70.35480
11
8.12630
21
696.46167
31
103.13620
12
-14.49210
22
696.46167
32
103.13620
13
-14.49210
23
556.20740
33
70.35480
0
3DFACE
8
layer1
62
1
10
-191.87370
20
556.20740
30
-70.35480
11
-214.49210
21
556.20740
31
-70.35480
12
-214.49210
22
696.46167
32
-103.13620
13
-191.87370
23
696.46167
33
-103.13620
0
3DFACE
8
layer1
62
1
10
-191.87370
20
556.20740
30
70.35480
11
-191.87370
21
696.46167
31
103.13620
12
-214.49210
22
696.46167
32
103.13620
13
-214.49210
23
556.20740
33
70.35480
0
3DFACE
8
layer1
62
1
10
-391.87369
20
556.20740
30
-70.35480
11
-414.49210
21
556.20740
31
-70.35480
12
-414.49210
22
696.46167
32
-103.13620
13
-391.87369
23
696.46167
33
-103.13620
0
3DFACE
8
layer1
62
1
10
-391.87369
20
556.20740
30
70.35480
11
-391.87369
21
696.46167
31
103.13620
12
-414.49210
22
696.46167
32
103.13620
13
-414.49210
23
556.20740
33
70.35480
0
3DFACE
8
layer1
62
1
10
-591.87372
20
556.20740
30
-70.35480
11
-614.49213
21
556.20740
31
-70.35480
12
-614.49213
22
696.46167
32
-103.13620
13
-591.87372
23
696.46167
33
-103.13620
0
3DFACE
8
layer1
62
1
10
-591.87372
20
556.20740
30
70.35480
11
-591.87372
21
696.46167
31
103.13620
12
-614.49213
22
696.46167
32
103.13620
13
-614.49213
23
556.20740
33
70.35480
0
3DFACE
8
layer1
62
1
10
-791.87372
20
556.20740
30
-70.35480
11
-814.49213
21
556.20740
31
-70.35480
12
-814.49213
22
696.46167
32
-103.13620
13
-791.87372
23
696.46167
33
-103.13620
0
3DFACE
8
layer1
62
1
10
-791.87372
20
556.20740
30
70.35480
11
-791.87372
21
696.46167
31
103.13620
12
-814.49213
22
696.46167
32
103.13620
13
-814.49213
23
556.20740
33
70.35480
0
3DFACE
8
layer1
62
1
10
-991.87372
20
556.20740
30
-70.35480
11
-1014.49213
21
556.20740
31
-70.35480
12
-1014.49213
22
696.46167
32
-103.13620
13
-991.87372
23
696.46167
33
-103.13620
0
3DFACE
8
layer1
62
1
10
-991.87372
20
556.20740
30
70.35480
11
-991.87372
21
696.46167
31
103.13620
12
-1014.49213
22
696.46167
32
103.13620
13
-1014.49213
23
556.20740
33
70.35480
0
3DFACE
8
layer1
62
1
10
-1191.87378
20
556.20740
30
-70.35480
11
-1214.49219
21
556.20740
31
-70.35480
12
-1214.49219
22
696.46167
32
-103.13620
13
-1191.87378
23
696.46167
33
-103.13620
0
3DFACE
8
layer1
62
1
10
-1191.87378
20
556.20740
30
70.35480
11
-1191.87378
21
696.46167
31
103.13620
12
-1214.49219
22
696.46167
32
103.13620
13
-1214.49219
23
556.20740
33
70.35480
0
3DFACE
8
layer1
62
1
10
-1391.87378
20
556.20740
30
-70.35480
11
-1414.49219
21
556.20740
31
-70.35480
12
-1414.49219
22
696.46167
32
-103.13620
13
-1391.87378
23
696.46167
33
-103.13620
0
3DFACE
8
layer1
62
1
10
-1391.87378
20
556.20740
30
70.35480
11
-1391.87378
21
696.46167
31
103.13620
12
-1414.49219
22
696.46167
32
103.13620
13
-1414.49219
23
556.20740
33
70.35480
0
3DFACE
8
layer1
62
1
10
-1591.87378
20
556.20740
30
-70.35480
11
-1614.49219
21
556.20740
31
-70.35480
12
-1614.49219
22
696.46167
32
-103.13620
13
-1591.87378
23
696.46167
33
-103.13620
0
3DFACE
8
layer1
62
1
10
-1591.87378
20
556.20740
30
70.35480
11
-1591.87378
21
696.46167
31
103.13620
12
-1614.49219
22
696.46167
32
103.13620
13
-1614.49219
23
556.20740
33
70.35480
0
3DFACE
8
layer1
62
1
10
-1791.87378
20
556.20740
30
-70.35480
11
-1814.49219
21
556.20740
31
-70.35480
12
-1814.49219
22
696.46167
32
-103.13620
13
-1791.87378
23
696.46167
33
-103.13620
0
3DFACE
8
layer1
62
1
10
-1791.87378
20
556.20740
30
70.35480
11
-1791.87378
21
696.46167
31
103.13620
12
-1814.49219
22
696.46167
32
103.13620
13
-1814.49219
23
556.20740
33
70.35480
0
3DFACE
8
layer1
62
1
10
-1991.87378
20
556.20740
30
-70.35480
11
-2014.49219
21
556.20740
31
-70.35480
12
-2014.49219
22
696.46167
32
-103.13620
13
-1991.87378
23
696.46167
33
-103.13620
0
3DFACE
8
layer1
62
1
10
-1991.87378
20
556.20740
30
70.35480
11
-1991.87378
21
696.46167
31
103.13620
12
-2014.49219
22
696.46167
32
103.13620
13
-2014.49219
23
556.20740
33
70.35480
0
3DFACE
8
layer1
62
1
10
108.12630
20
556.20740
30
-70.35480
11
85.50790
21
556.20740
31
-70.35480
12
85.50790
22
696.46167
32
-103.13620
13
108.12630
23
696.46167
33
-103.13620
0
3DFACE
8
layer1
62
1
10
-91.87370
20
556.20740
30
-70.35480
11
-114.49210
21
556.20740
31
-70.35480
12
-114.49210
22
696.46167
32
-103.13620
13
-91.87370
23
696.46167
33
-103.13620
0
3DFACE
8
layer1
62
1
10
-291.87369
20
556.20740
30
-70.35480
11
-314.49210
21
556.20740
31
-70.35480
12
-314.49210
22
696.46167
32
-103.13620
13
-291.87369
23
696.46167
33
-103.13620
0
3DFACE
8
layer1
62
1
10
-491.87369
20
556.20740
30
-70.35480
11
-514.49213
21
556.20740
31
-70.35480
12
-514.49213
22
696.46167
32
-103.13620
13
-491.87369
23
696.46167
33
-103.13620
0
3DFACE
8
layer1
62
1
10
-691.87372
20
556.20740
30
-70.35480
11
-714.49213
21
556.20740
31
-70.35480
12
-714.49213
22
696.46167
32
-103.13620
13
-691.87372
23
696.46167
33
-103.13620
0
3DFACE
8
layer1
62
1
10
-891.87372
20
556.20740
30
-70.35480
11
-914.49213
21
556.20740
31
-70.35480
12
-914.49213
22
696.46167
32
-103.13620
13
-891.87372
23
696.46167
33
-103.13620
0
3DFACE
8
layer1
62
1
10
-1091.87378
20
556.20740
30
-70.35480
11
-1114.49219
21
556.20740
31
-70.35480
12
-1114.49219
22
696.46167
32
-103.13620
13
-1091.87378
23
696.46167
33
-103.13620
0
3DFACE
8
layer1
62
1
10
-1291.87378
20
556.20740
30
-70.35480
11
-1314.49219
21
556.20740
31
-70.35480
12
-1314.49219
22
696.46167
32
-103.13620
13
-1291.87378
23
696.46167
33
-103.13620
0
3DFACE
8
layer1
62
1
10
-1491.87378
20
556.20740
30
-70.35480
11
-1514.49219
21
556.20740
31
-70.35480
12
-1514.49219
22
696.46167
32
-103.13620
13
-1491.87378
23
696.46167
33
-103.13620
0
3DFACE
8
layer1
62
1
10
-1691.87378
20
556.20740
30
-70.35480
11
-1714.49219
21
556.20740
31
-70.35480
12
-1714.49219
22
696.46167
32
-103.13620
13
-1691.87378
23
696.46167
33
-103.13620
0
3DFACE
8
layer1
62
1
10
-1891.87378
20
556.20740
30
-70.35480
11
-1914.49219
21
556.20740
31
-70.35480
12
-1914.49219
22
696.46167
32
-103.13620
13
-1891.87378
23
696.46167
33
-103.13620
0
3DFACE
8
layer1
62
1
10
108.12630
20
556.20740
30
70.35480
11
108.12630
21
696.46167
31
103.13620
12
85.50790
22
696.46167
32
103.13620
13
85.50790
23
556.20740
33
70.35480
0
3DFACE
8
layer1
62
1
10
-91.87370
20
556.20740
30
70.35480
11
-91.87370
21
696.46167
31
103.13620
12
-114.49210
22
696.46167
32
103.13620
13
-114.49210
23
556.20740
33
70.35480
0
3DFACE
8
layer1
62
1
10
-291.87369
20
556.20740
30
70.35480
11
-291.87369
21
696.46167
31
103.13620
12
-314.49210
22
696.46167
32
103.13620
13
-314.49210
23
556.20740
33
70.35480
0
3DFACE
8
layer1
62
1
10
-491.87369
20
556.20740
30
70.35480
11
-491.87369
21
696.46167
31
103.13620
12
-514.49213
22
696.46167
32
103.13620
13
-514.49213
23
556.20740
33
70.35480
0
3DFACE
8
layer1
62
1
10
-691.87372
20
556.20740
30
70.35480
11
-691.87372
21
696.46167
31
103.13620
12
-714.49213
22
696.46167
32
103.13620
13
-714.49213
23
556.20740
33
70.35480
0
3DFACE
8
layer1
62
1
10
-891.87372
20
556.20740
30
70.35480
11
-891.87372
21
696.46167
31
103.13620
12
-914.49213
22
696.46167
32
103.13620
13
-914.49213
23
556.20740
33
70.35480
0
3DFACE
8
layer1
62
1
10
-1091.87378
20
556.20740
30
70.35480
11
-1091.87378
21
696.46167
31
103.13620
12
-1114.49219
22
696.46167
32
103.13620
13
-1114.49219
23
556.20740
33
70.35480
0
3DFACE
8
layer1
62
1
10
-1291.87378
20
556.20740
30
70.35480
11
-1291.87378
21
696.46167
31
103.13620
12
-1314.49219
22
696.46167
32
103.13620
13
-1314.49219
23
556.20740
33
70.35480
0
3DFACE
8
layer1
62
1
10
-1491.87378
20
556.20740
30
70.35480
11
-1491.87378
21
696.46167
31
103.13620
12
-1514.49219
22
696.46167
32
103.13620
13
-1514.49219
23
556.20740
33
70.35480
0
3DFACE
8
layer1
62
1
10
-1691.87378
20
556.20740
30
70.35480
11
-1691.87378
21
696.46167
31
103.13620
12
-1714.49219
22
696.46167
32
103.13620
13
-1714.49219
23
556.20740
33
70.35480
0
3DFACE
8
layer1
62
1
10
-1891.87378
20
556.20740
30
70.35480
11
-1891.87378
21
696.46167
31
103.13620
12
-1914.49219
22
696.46167
32
103.13620
13
-1914.49219
23
556.20740
33
70.35480
0
3DFACE
8
layer1
62
1
10
-1992.04309
20
696.55719
30
-103.03750
11
-2014.41052
21
696.55719
31
-103.03750
12
-2014.41052
22
696.55719
32
103.03750
13
-1992.04309
23
696.55719
33
103.03750
0
3DFACE
8
layer1
62
1
10
-1792.04309
20
696.55719
30
-103.03750
11
-1814.41052
21
696.55719
31
-103.03750
12
-1814.41052
22
696.55719
32
103.03750
13
-1792.04309
23
696.55719
33
103.03750
0
3DFACE
8
layer1
62
1
10
-1892.04309
20
696.55719
30
-103.03750
11
-1914.41052
21
696.55719
31
-103.03750
12
-1914.41052
22
696.55719
32
103.03750
13
-1892.04309
23
696.55719
33
103.03750
0
3DFACE
8
layer1
62
1
10
-1692.04309
20
696.55719
30
-103.03750
11
-1714.41052
21
696.55719
31
-103.03750
12
-1714.41052
22
696.55719
32
103.03750
13
-1692.04309
23
696.55719
33
103.03750
0
3DFACE
8
layer1
62
1
10
-1492.04309
20
696.55719
30
-103.03750
11
-1514.41052
21
696.55719
31
-103.03750
12
-1514.41052
22
696.55719
32
103.03750
13
-1492.04309
23
696.55719
33
103.03750
0
3DFACE
8
layer1
62
1
10
-1592.04309
20
696.55719
30
-103.03750
11
-1614.41052
21
696.55719
31
-103.03750
12
-1614.41052
22
696.55719
32
103.03750
13
-1592.04309
23
696.55719
33
103.03750
0
3DFACE
8
layer1
62
1
10
-1392.04309
20
696.55719
30
-103.03750
11
-1414.41052
21
696.55719
31
-103.03750
12
-1414.41052
22
696.55719
32
103.03750
13
-1392.04309
23
696.55719
33
103.03750
0
3DFACE
8
layer1
62
1
10
-1192.04309
20
696.55719
30
-103.03750
11
-1214.41052
21
696.55719
31
-103.03750
12
-1214.41052
22
696.55719
32
103.03750
13
-1192.04309
23
696.55719
33
103.03750
0
3DFACE
8
layer1
62
1
10
-1292.04309
20
696.55719
30
-103.03750
11
-1314.41052
21
696.55719
31
-103.03750
12
-1314.41052
22
696.55719
32
103.03750
13
-1292.04309
23
696.55719
33
103.03750
0
3DFACE
8
layer1
62
1
10
-1092.04309
20
696.55719
30
-103.03750
11
-1114.41052
21
696.55719
31
-103.03750
12
-1114.41052
22
696.55719
32
103.03750
13
-1092.04309
23
696.55719
33
103.03750
0
3DFACE
8
layer1
62
1
10
-892.04309
20
696.55719
30
-103.03750
11
-914.41052
21
696.55719
31
-103.03750
12
-914.41052
22
696.55719
32
103.03750
13
-892.04309
23
696.55719
33
103.03750
0
3DFACE
8
layer1
62
1
10
-992.04309
20
696.55719
30
-103.03750
11
-1014.41052
21
696.55719
31
-103.03750
12
-1014.41052
22
696.55719
32
103.03750
13
-992.04309
23
696.55719
33
103.03750
0
3DFACE
8
layer1
62
1
10
-792.04309
20
696.55719
30
-103.03750
11
-814.41052
21
696.55719
31
-103.03750
12
-814.41052
22
696.55719
32
103.03750
13
-792.04309
23
696.55719
33
103.03750
0
3DFACE
8
layer1
62
1
10
-592.04309
20
696.55719
30
-103.03750
11
-614.41052
21
696.55719
31
-103.03750
12
-614.41052
22
696.55719
32
103.03750
13
-592.04309
23
696.55719
33
103.03750
0
3DFACE
8
layer1
62
1
10
-692.04309
20
696.55719
30
-103.03750
11
-714.41052
21
696.55719
31
-103.03750
12
-714.41052
22
696.55719
32
103.03750
13
-692.04309
23
696.55719
33
103.03750
0
3DFACE
8
layer1
62
1
10
-492.04309
20
696.55719
30
-103.03750
11
-514.41052
21
696.55719
31
-103.03750
12
-514.41052
22
696.55719
32
103.03750
13
-492.04309
23
696.55719
33
103.03750
0
3DFACE
8
layer1
62
1
10
-292.04309
20
696.55719
30
-103.03750
11
-314.41049
21
696.55719
31
-103.03750
12
-314.41049
22
696.55719
32
103.03750
13
-292.04309
23
696.55719
33
103.03750
0
3DFACE
8
layer1
62
1
10
-392.04309
20
696.55719
30
-103.03750
11
-414.41049
21
696.55719
31
-103.03750
12
-414.41049
22
696.55719
32
103.03750
13
-392.04309
23
696.55719
33
103.03750
0
3DFACE
8
layer1
62
1
10
-192.04311
20
696.55719
30
-103.03750
11
-214.41051
21
696.55719
31
-103.03750
12
-214.41051
22
696.55719
32
103.03750
13
-192.04311
23
696.55719
33
103.03750
0
3DFACE
8
layer1
62
1
10
967.00452
20
696.44031
30
103.03760
11
-2087.61938
21
696.44031
31
103.03760
12
-2087.61938
22
556.37012
32
70.17930
13
967.00427
23
556.37012
33
70.17930
0
3DFACE
8
layer1
62
1
10
-2087.61938
20
696.44031
30
103.03760
11
-2087.61938
21
696.44031
31
-103.03760
12
-2087.61938
22
556.37012
32
-70.17930
13
-2087.61938
23
556.37012
33
70.17930
0
3DFACE
8
layer1
62
1
10
-2087.61938
20
696.44031
30
-103.03760
11
967.00452
21
696.44031
31
-103.03760
12
967.00427
22
556.37012
32
-70.17930
13
-2087.61938
23
556.37012
33
-70.17930
0
3DFACE
8
layer1
62
1
10
967.00452
20
696.44031
30
-103.03760
11
-2087.61938
21
696.44031
31
-103.03760
12
-2087.61938
22
696.44031
32
103.03760
13
967.00452
23
696.44031
33
103.03760
0
3DFACE
8
layer1
62
1
10
967.00427
20
556.37012
30
70.17930
11
-2087.61938
21
556.37012
31
70.17930
12
-2087.61938
22
556.37012
32
-70.17930
13
967.00427
23
556.37012
33
-70.17930
0
3DFACE
8
layer1
62
1
10
334.38950
20
694.69788
30
155.87579
11
-1527.79382
21
694.69788
31
155.87579
12
-1527.79382
22
662.94708
32
155.87579
13
334.38950
23
662.94708
33
155.87579
0
3DFACE
8
layer1
62
1
10
-1527.79382
20
694.69788
30
-155.87579
11
334.38950
21
694.69788
31
-155.87579
12
334.38950
22
662.94708
32
-155.87579
13
-1527.79382
23
662.94708
33
-155.87579
0
3DFACE
8
layer1
62
1
10
334.38950
20
694.69788
30
-155.87579
11
-1527.79382
21
694.69788
31
-155.87579
12
-1527.79382
22
694.69788
32
155.87579
13
334.38950
23
694.69788
33
155.87579
0
3DFACE
8
layer1
62
1
10
334.38950
20
662.94708
30
155.87579
11
-1527.79382
21
662.94708
31
155.87579
12
-1527.79382
22
662.94708
32
-155.87579
13
334.38950
23
662.94708
33
-155.87579
0
3DFACE
8
layer1
62
1
10
-138.93539
20
797.03741
30
-34.39240
11
-601.73120
21
797.03741
31
-34.39240
12
-601.73120
22
587.58350
32
-34.39240
13
-138.93539
23
587.58350
33
-34.39240
0
3DFACE
8
layer1
62
1
10
-601.73120
20
797.03741
30
-34.39240
11
-601.73120
21
738.00031
31
-155.33730
12
-601.73120
22
646.47321
32
-155.33730
13
-601.73120
23
587.58350
33
-34.39240
0
3DFACE
8
layer1
62
1
10
-601.73120
20
738.00031
30
-155.33730
11
-138.93539
21
738.00031
31
-155.33730
12
-138.93539
22
646.47321
32
-155.33730
13
-601.73120
23
646.47321
33
-155.33730
0
3DFACE
8
layer1
62
1
10
-138.93539
20
738.00031
30
-155.33730
11
-138.93539
21
797.03741
31
-34.39240
12
-138.93539
22
587.58350
32
-34.39240
13
-138.93539
23
646.47321
33
-155.33730
0
3DFACE
8
layer1
62
1
10
-138.93539
20
738.00031
30
-155.33730
11
-601.73120
21
738.00031
31
-155.33730
12
-601.73120
22
797.03741
32
-34.39240
13
-138.93539
23
797.03741
33
-34.39240
0
3DFACE
8
layer1
62
1
10
-138.93539
20
797.03741
30
34.39240
11
-138.93539
21
587.58350
31
34.39240
12
-601.73120
22
587.58350
32
34.39240
13
-601.73120
23
797.03741
33
34.39240
0
3DFACE
8
layer1
62
1
10
-601.73120
20
797.03741
30
34.39240
11
-601.73120
21
587.58350
31
34.39240
12
-601.73120
22
646.47321
32
155.33730
13
-601.73120
23
738.00031
33
155.33730
0
3DFACE
8
layer1
62
1
10
-601.73120
20
738.00031
30
155.33730
11
-601.73120
21
646.47321
31
155.33730
12
-138.93539
22
646.47321
32
155.33730
13
-138.93539
23
738.00031
33
155.33730
0
3DFACE
8
layer1
62
1
10
-138.93539
20
738.00031
30
155.33730
11
-138.93539
21
646.47321
31
155.33730
12
-138.93539
22
587.58350
32
34.39240
13
-138.93539
23
797.03741
33
34.39240
0
3DFACE
8
layer1
62
1
10
-138.93539
20
738.00031
30
155.33730
11
-138.93539
21
797.03741
31
34.39240
12
-601.73120
22
797.03741
32
34.39240
13
-601.73120
23
738.00031
33
155.33730
0
3DFACE
8
layer1
62
1
10
-138.93539
20
646.45697
30
155.33730
11
-601.73120
21
646.45697
31
155.33730
12
-601.73120
22
587.41998
32
34.39240
13
-138.93539
23
587.41998
33
34.39240
0
3DFACE
8
layer1
62
1
10
-138.93539
20
646.45697
30
-155.33730
11
-138.93539
21
587.41998
31
-34.39240
12
-601.73120
22
587.41998
32
-34.39240
13
-601.73120
23
646.45697
33
-155.33730
0
3DFACE
8
layer1
62
1
10
-1064.54944
20
797.03741
30
-34.39240
11
-1527.34192
21
797.03741
31
-34.39240
12
-1527.34192
22
587.58350
32
-34.39240
13
-1064.54944
23
587.58350
33
-34.39240
0
3DFACE
8
layer1
62
1
10
-1527.34192
20
738.00031
30
-155.33730
11
-1064.54944
21
738.00031
31
-155.33730
12
-1064.54944
22
646.47321
32
-155.33730
13
-1527.34192
23
646.47321
33
-155.33730
0
3DFACE
8
layer1
62
1
10
-1064.54944
20
738.00031
30
-155.33730
11
-1064.54944
21
797.03741
31
-34.39240
12
-1064.54944
22
587.58350
32
-34.39240
13
-1064.54944
23
646.47321
33
-155.33730
0
3DFACE
8
layer1
62
1
10
-1064.54944
20
738.00031
30
-155.33730
11
-1527.34192
21
738.00031
31
-155.33730
12
-1527.34192
22
797.03741
32
-34.39240
13
-1064.54944
23
797.03741
33
-34.39240
0
3DFACE
8
layer1
62
1
10
-1064.54944
20
797.03741
30
34.39240
11
-1064.54944
21
587.58350
31
34.39240
12
-1527.34192
22
587.58350
32
34.39240
13
-1527.34192
23
797.03741
33
34.39240
0
3DFACE
8
layer1
62
1
10
-1527.34192
20
738.00031
30
155.33730
11
-1527.34192
21
646.47321
31
155.33730
12
-1064.54944
22
646.47321
32
155.33730
13
-1064.54944
23
738.00031
33
155.33730
0
3DFACE
8
layer1
62
1
10
-1064.54944
20
738.00031
30
155.33730
11
-1064.54944
21
646.47321
31
155.33730
12
-1064.54944
22
587.58350
32
34.39240
13
-1064.54944
23
797.03741
33
34.39240
0
3DFACE
8
layer1
62
1
10
-1064.54944
20
738.00031
30
155.33730
11
-1064.54944
21
797.03741
31
34.39240
12
-1527.34192
22
797.03741
32
34.39240
13
-1527.34192
23
738.00031
33
155.33730
0
3DFACE
8
layer1
62
1
10
-1064.54944
20
646.45697
30
155.33730
11
-1527.34192
21
646.45697
31
155.33730
12
-1527.34192
22
587.41998
32
34.39240
13
-1064.54944
23
587.41998
33
34.39240
0
3DFACE
8
layer1
62
1
10
-1064.54944
20
646.45697
30
-155.33730
11
-1064.54944
21
587.41998
31
-34.39240
12
-1527.34192
22
587.41998
32
-34.39240
13
-1527.34192
23
646.45697
33
-155.33730
0
3DFACE
8
layer1
62
1
10
-1527.26892
20
796.38379
30
-34.64960
11
-2104.24072
21
796.38379
31
-34.64960
12
-2104.24072
22
587.50421
32
-34.64960
13
-1527.26892
23
587.50421
33
-34.64960
0
3DFACE
8
layer1
62
1
10
-2104.24072
20
796.38379
30
-34.64960
11
-2104.24072
21
737.64349
31
-155.56740
12
-2104.24072
22
646.32800
32
-155.56740
13
-2104.24072
23
587.50421
33
-34.64960
0
3DFACE
8
layer1
62
1
10
-2104.24072
20
737.64349
30
-155.56740
11
-1527.26892
21
737.64349
31
-155.56740
12
-1527.26892
22
646.32800
32
-155.56740
13
-2104.24072
23
646.32800
33
-155.56740
0
3DFACE
8
layer1
62
1
10
-1527.26892
20
737.64349
30
-155.56740
11
-2104.24072
21
737.64349
31
-155.56740
12
-2104.24072
22
796.38379
32
-34.64960
13
-1527.26892
23
796.38379
33
-34.64960
0
3DFACE
8
layer1
62
1
10
-1527.26892
20
587.50421
30
-34.64960
11
-2104.24072
21
587.50421
31
-34.64960
12
-2104.24072
22
646.32800
32
-155.56740
13
-1527.26892
23
646.32800
33
-155.56740
0
3DFACE
8
layer1
62
1
10
-1527.26892
20
796.38379
30
34.64960
11
-1527.26892
21
587.50421
31
34.64960
12
-2104.24072
22
587.50421
32
34.64960
13
-2104.24072
23
796.38379
33
34.64960
0
3DFACE
8
layer1
62
1
10
-2104.24072
20
796.38379
30
34.64960
11
-2104.24072
21
587.50421
31
34.64960
12
-2104.24072
22
646.32800
32
155.56740
13
-2104.24072
23
737.64349
33
155.56740
0
3DFACE
8
layer1
62
1
10
-2104.24072
20
737.64349
30
155.56740
11
-2104.24072
21
646.32800
31
155.56740
12
-1527.26892
22
646.32800
32
155.56740
13
-1527.26892
23
737.64349
33
155.56740
0
3DFACE
8
layer1
62
1
10
-1527.26892
20
737.64349
30
155.56740
11
-1527.26892
21
796.38379
31
34.64960
12
-2104.24072
22
796.38379
32
34.64960
13
-2104.24072
23
737.64349
33
155.56740
0
3DFACE
8
layer1
62
1
10
-1527.26892
20
587.50421
30
34.64960
11
-1527.26892
21
646.32800
31
155.56740
12
-2104.24072
22
646.32800
32
155.56740
13
-2104.24072
23
587.50421
33
34.64960
0
3DFACE
8
layer1
62
1
10
913.65723
20
780.56042
30
-28.59330
11
319.27640
21
780.56042
31
-28.59330
12
319.27640
22
471.90280
32
-28.59330
13
913.65723
23
471.90280
33
-28.59330
0
3DFACE
8
layer1
62
1
10
319.27640
20
780.56042
30
-28.59330
11
319.27640
21
713.63251
31
-156.29860
12
319.27640
22
538.83069
32
-156.29860
13
319.27640
23
471.90280
33
-28.59330
0
3DFACE
8
layer1
62
1
10
319.27640
20
713.63251
30
-156.29860
11
913.65723
21
713.63251
31
-156.29860
12
913.65723
22
538.83069
32
-156.29860
13
319.27640
23
538.83069
33
-156.29860
0
3DFACE
8
layer1
62
1
10
913.65723
20
713.63251
30
-156.29860
11
319.27640
21
713.63251
31
-156.29860
12
319.27640
22
780.56042
32
-28.59330
13
913.65723
23
780.56042
33
-28.59330
0
3DFACE
8
layer1
62
1
10
913.65723
20
471.90280
30
-28.59330
11
319.27640
21
471.90280
31
-28.59330
12
319.27640
22
538.83069
32
-156.29860
13
913.65723
23
538.83069
33
-156.29860
0
3DFACE
8
layer1
62
1
10
913.65723
20
780.56042
30
28.59330
11
913.65723
21
471.90280
31
28.59330
12
319.27640
22
471.90280
32
28.59330
13
319.27640
23
780.56042
33
28.59330
0
3DFACE
8
layer1
62
1
10
319.27640
20
780.56042
30
28.59330
11
319.27640
21
471.90280
31
28.59330
12
319.27640
22
538.83069
32
156.29860
13
319.27640
23
713.63251
33
156.29860
0
3DFACE
8
layer1
62
1
10
319.27640
20
713.63251
30
156.29860
11
319.27640
21
538.83069
31
156.29860
12
913.65723
22
538.83069
32
156.29860
13
913.65723
23
713.63251
33
156.29860
0
3DFACE
8
layer1
62
1
10
913.65723
20
713.63251
30
156.29860
11
913.65723
21
780.56042
31
28.59330
12
319.27640
22
780.56042
32
28.59330
13
319.27640
23
713.63251
33
156.29860
0
3DFACE
8
layer1
62
1
10
913.65723
20
471.90280
30
28.59330
11
913.65723
21
538.83069
31
156.29860
12
319.27640
22
538.83069
32
156.29860
13
319.27640
23
471.90280
33
28.59330
0
3DFACE
8
layer1
62
1
10
912.47192
20
800.62628
30
72.45950
11
912.47192
21
698.15277
31
174.93300
12
1088.08350
22
698.15277
32
174.93300
13
1088.08350
23
800.62628
33
72.45950
0
3DFACE
8
layer1
62
1
10
912.47192
20
698.15277
30
174.93300
11
912.47192
21
553.23370
31
174.93280
12
1088.08350
22
553.23370
32
174.93280
13
1088.08350
23
698.15277
33
174.93300
0
3DFACE
8
layer1
62
1
10
912.47192
20
553.23370
30
174.93280
11
912.47192
21
450.76031
31
72.45970
12
1088.08350
22
450.76031
32
72.45970
13
1088.08350
23
553.23370
33
174.93280
0
3DFACE
8
layer1
62
1
10
912.47192
20
450.76031
30
72.45970
11
912.47192
21
450.76041
31
-72.45960
12
1088.08350
22
450.76041
32
-72.45960
13
1088.08350
23
450.76031
33
72.45970
0
3DFACE
8
layer1
62
1
10
912.47192
20
450.76041
30
-72.45960
11
912.47192
21
553.23370
31
-174.93269
12
1088.08350
22
553.23401
32
-174.93291
13
1088.08350
23
450.76041
33
-72.45960
0
3DFACE
8
layer1
62
1
10
912.47192
20
553.23370
30
-174.93269
11
912.47192
21
698.15277
31
-174.93269
12
1088.08350
22
698.15308
32
-174.93291
13
1088.08350
23
553.23401
33
-174.93291
0
3DFACE
8
layer1
62
1
10
912.47192
20
698.15277
30
-174.93269
11
912.47192
21
800.62628
31
-72.45950
12
1088.08350
22
800.62653
32
-72.45970
13
1088.08350
23
698.15308
33
-174.93291
0
3DFACE
8
layer1
62
1
10
912.47192
20
800.62628
30
-72.45950
11
912.47192
21
800.62628
31
72.45950
12
1088.08350
22
800.62628
32
72.45950
13
1088.08350
23
800.62653
33
-72.45970
0
3DFACE
8
layer1
62
1
10
912.47192
20
625.69342
30
-0.00010
11
912.47192
21
698.15277
31
174.93300
12
912.47192
22
800.62628
32
72.45950
0
3DFACE
8
layer1
62
1
10
912.47192
20
625.69342
30
-0.00010
11
912.47192
21
553.23370
31
174.93280
12
912.47192
22
698.15277
32
174.93300
0
3DFACE
8
layer1
62
1
10
912.47192
20
625.69342
30
-0.00010
11
912.47192
21
450.76031
31
72.45970
12
912.47192
22
553.23370
32
174.93280
0
3DFACE
8
layer1
62
1
10
912.47192
20
625.69342
30
-0.00010
11
912.47192
21
450.76041
31
-72.45960
12
912.47192
22
450.76031
32
72.45970
0
3DFACE
8
layer1
62
1
10
912.47192
20
625.69342
30
-0.00010
11
912.47192
21
553.23370
31
-174.93269
12
912.47192
22
450.76041
32
-72.45960
0
3DFACE
8
layer1
62
1
10
912.47192
20
625.69342
30
-0.00010
11
912.47192
21
698.15277
31
-174.93269
12
912.47192
22
553.23370
32
-174.93269
0
3DFACE
8
layer1
62
1
10
912.47192
20
625.69342
30
-0.00010
11
912.47192
21
800.62628
31
-72.45950
12
912.47192
22
698.15277
32
-174.93269
0
3DFACE
8
layer1
62
1
10
912.47192
20
625.69342
30
-0.00010
11
912.47192
21
800.62628
31
72.45950
12
912.47192
22
800.62628
32
-72.45950
0
3DFACE
8
layer1
62
1
10
1088.08350
20
625.69342
30
-0.00010
11
1088.08350
21
800.62628
31
72.45950
12
1088.08350
22
698.15277
32
174.93300
0
3DFACE
8
layer1
62
1
10
1088.08350
20
625.69342
30
-0.00010
11
1088.08350
21
698.15277
31
174.93300
12
1088.08350
22
553.23370
32
174.93280
0
3DFACE
8
layer1
62
1
10
1088.08350
20
625.69342
30
-0.00010
11
1088.08350
21
553.23370
31
174.93280
12
1088.08350
22
450.76031
32
72.45970
0
3DFACE
8
layer1
62
1
10
1088.08350
20
625.69342
30
-0.00010
11
1088.08350
21
450.76031
31
72.45970
12
1088.08350
22
450.76041
32
-72.45960
0
3DFACE
8
layer1
62
1
10
1088.08350
20
625.69342
30
-0.00010
11
1088.08350
21
450.76041
31
-72.45960
12
1088.08350
22
553.23401
32
-174.93291
0
3DFACE
8
layer1
62
1
10
1088.08350
20
625.69342
30
-0.00010
11
1088.08350
21
553.23401
31
-174.93291
12
1088.08350
22
698.15308
32
-174.93291
0
3DFACE
8
layer1
62
1
10
1088.08350
20
625.69342
30
-0.00010
11
1088.08350
21
698.15308
31
-174.93291
12
1088.08350
22
800.62653
32
-72.45970
0
3DFACE
8
layer1
62
1
10
1088.08350
20
625.69342
30
-0.00010
11
1088.08350
21
800.62653
31
-72.45970
12
1088.08350
22
800.62628
32
72.45950
0
3DFACE
8
layer1
62
1
10
322.75421
20
798.78442
30
154.32880
11
-141.13150
21
798.78442
31
154.32880
12
-141.13150
22
693.71082
32
154.32880
13
322.75421
23
693.71082
33
154.32880
0
3DFACE
8
layer1
62
1
10
-141.13150
20
798.78442
30
154.32880
11
-141.13150
21
798.78442
31
-154.32880
12
-141.13150
22
693.71082
32
-154.32880
13
-141.13150
23
693.71082
33
154.32880
0
3DFACE
8
layer1
62
1
10
-141.13150
20
798.78442
30
-154.32880
11
322.75421
21
798.78442
31
-154.32880
12
322.75421
22
693.71082
32
-154.32880
13
-141.13150
23
693.71082
33
-154.32880
0
3DFACE
8
layer1
62
1
10
322.75421
20
798.78442
30
-154.32880
11
322.75421
21
798.78442
31
154.32880
12
322.75421
22
693.71082
32
154.32880
13
322.75421
23
693.71082
33
-154.32880
0
3DFACE
8
layer1
62
1
10
322.75421
20
798.78442
30
-154.32880
11
-141.13150
21
798.78442
31
-154.32880
12
-141.13150
22
798.78442
32
154.32880
13
322.75421
23
798.78442
33
154.32880
0
3DFACE
8
layer1
62
1
10
-141.13150
20
766.05078
30
666.46582
11
-141.13150
21
766.05078
31
-666.36871
12
-141.13150
22
730.39911
32
-654.58331
13
-141.13150
23
730.39911
33
657.96667
0
3DFACE
8
layer1
62
1
10
322.75421
20
766.05078
30
-666.36871
11
322.75421
21
766.05078
31
666.46582
12
322.75421
22
730.39911
32
657.96667
13
322.75421
23
730.39911
33
-654.58331
0
3DFACE
8
layer1
62
1
10
322.75421
20
766.05078
30
-666.36871
11
-141.13150
21
766.05078
31
-666.36871
12
-141.13150
22
766.05078
32
666.46582
13
322.75421
23
766.05078
33
666.46582
0
3DFACE
8
layer1
62
1
10
322.75421
20
730.39911
30
657.96667
11
-141.13150
21
730.39911
31
657.96667
12
-141.13150
22
730.39911
32
-654.58331
13
322.75421
23
730.39911
33
-654.58331
0
3DFACE
8
layer1
62
1
10
-141.13150
20
765.88470
30
-666.36041
11
-141.13150
21
646.74469
31
-729.97870
12
-141.13150
22
646.74469
32
-694.32703
13
-141.13150
23
765.88470
33
-630.70868
0
3DFACE
8
layer1
62
1
10
-141.13150
20
646.74469
30
-729.97870
11
322.75421
21
646.74469
31
-729.97870
12
322.75421
22
646.74469
32
-694.32703
13
-141.13150
23
646.74469
33
-694.32703
0
3DFACE
8
layer1
62
1
10
322.75421
20
646.74469
30
-729.97870
11
322.75421
21
765.88470
31
-666.36041
12
322.75421
22
765.88470
32
-630.70868
13
322.75421
23
646.74469
33
-694.32703
0
3DFACE
8
layer1
62
1
10
322.75421
20
646.74469
30
-729.97870
11
-141.13150
21
646.74469
31
-729.97870
12
-141.13150
22
765.88470
32
-666.36041
13
322.75421
23
765.88470
33
-666.36041
0
3DFACE
8
layer1
62
1
10
322.75421
20
765.88470
30
-630.70868
11
-141.13150
21
765.88470
31
-630.70868
12
-141.13150
22
646.74469
32
-694.32703
13
322.75421
23
646.74469
33
-694.32703
0
3DFACE
8
layer1
62
1
10
-141.13150
20
765.88470
30
666.36041
11
-141.13150
21
765.88470
31
630.70868
12
-141.13150
22
646.74469
32
694.32703
13
-141.13150
23
646.74469
33
729.97870
0
3DFACE
8
layer1
62
1
10
-141.13150
20
646.74469
30
729.97870
11
-141.13150
21
646.74469
31
694.32703
12
322.75421
22
646.74469
32
694.32703
13
322.75421
23
646.74469
33
729.97870
0
3DFACE
8
layer1
62
1
10
322.75421
20
646.74469
30
729.97870
11
322.75421
21
646.74469
31
694.32703
12
322.75421
22
765.88470
32
630.70868
13
322.75421
23
765.88470
33
666.36041
0
3DFACE
8
layer1
62
1
10
322.75421
20
646.74469
30
729.97870
11
322.75421
21
765.88470
31
666.36041
12
-141.13150
22
765.88470
32
666.36041
13
-141.13150
23
646.74469
33
729.97870
0
3DFACE
8
layer1
62
1
10
322.75421
20
765.88470
30
630.70868
11
322.75421
21
646.74469
31
694.32703
12
-141.13150
22
646.74469
32
694.32703
13
-141.13150
23
765.88470
33
630.70868
0
3DFACE
8
layer1
62
1
10
-126.01060
20
733.93298
30
-135.18750
11
-126.01060
21
733.93298
31
-667.26367
12
-126.01060
22
706.59528
32
-667.26367
13
-126.01060
23
706.59528
33
-135.18750
0
3DFACE
8
layer1
62
1
10
309.33511
20
733.93298
30
-667.26367
11
309.33511
21
733.93298
31
-135.18750
12
309.33511
22
706.59528
32
-135.18750
13
309.33511
23
706.59528
33
-667.26367
0
3DFACE
8
layer1
62
1
10
309.33511
20
706.59528
30
-135.18750
11
-126.01060
21
706.59528
31
-135.18750
12
-126.01060
22
706.59528
32
-667.26367
13
309.33511
23
706.59528
33
-667.26367
0
3DFACE
8
layer1
62
1
10
-126.01060
20
733.93298
30
135.18750
11
-126.01060
21
706.59528
31
135.18750
12
-126.01060
22
706.59528
32
667.26367
13
-126.01060
23
733.93298
33
667.26367
0
3DFACE
8
layer1
62
1
10
309.33511
20
733.93298
30
667.26367
11
309.33511
21
706.59528
31
667.26367
12
309.33511
22
706.59528
32
135.18750
13
309.33511
23
733.93298
33
135.18750
0
3DFACE
8
layer1
62
1
10
309.33511
20
706.59528
30
135.18750
11
309.33511
21
706.59528
31
667.26367
12
-126.01060
22
706.59528
32
667.26367
13
-126.01060
23
706.59528
33
135.18750
0
3DFACE
8
layer1
62
1
10
-0.69090
20
720.05902
30
-576.24921
11
-38.21780
21
693.52350
31
-549.71368
12
-38.21780
22
570.53430
32
-672.70288
13
-0.69090
23
597.06982
33
-699.23840
0
3DFACE
8
layer1
62
1
10
-38.21780
20
693.52350
30
-549.71368
11
-75.74450
21
720.05878
31
-576.24902
12
-75.74450
22
597.06958
32
-699.23822
13
-38.21780
23
570.53430
33
-672.70288
0
3DFACE
8
layer1
62
1
10
-75.74450
20
720.05878
30
-576.24902
11
-38.21760
21
746.59430
31
-602.78448
12
-38.21760
22
623.60510
32
-725.77368
13
-75.74450
23
597.06958
33
-699.23822
0
3DFACE
8
layer1
62
1
10
-38.21760
20
746.59430
30
-602.78448
11
-0.69090
21
720.05902
31
-576.24921
12
-0.69090
22
597.06982
32
-699.23840
13
-38.21760
23
623.60510
33
-725.77368
0
3DFACE
8
layer1
62
1
10
-0.69090
20
597.06982
30
-699.23840
11
-38.21780
21
570.53430
31
-672.70288
12
-75.74450
22
597.06958
32
-699.23822
13
-38.21760
23
623.60510
33
-725.77368
0
3DFACE
8
layer1
62
1
10
-6.99740
20
596.43951
30
-699.84430
11
-38.20060
21
574.37549
31
-677.78027
12
-69.40410
22
596.43982
32
-699.84460
13
-38.20100
23
618.50372
33
-721.90863
0
3DFACE
8
layer1
62
1
10
-19.64240
20
596.06720
30
-700.24017
11
-38.21740
21
582.93280
31
-687.10577
12
-56.79310
22
596.06769
32
-700.24078
13
-38.21810
23
609.20221
33
-713.37531
0
3DFACE
8
layer1
62
1
10
-0.69090
20
720.05902
30
576.24921
11
-0.69090
21
597.06982
31
699.23840
12
-38.21780
22
570.53430
32
672.70288
13
-38.21780
23
693.52350
33
549.71368
0
3DFACE
8
layer1
62
1
10
-38.21780
20
693.52350
30
549.71368
11
-38.21780
21
570.53430
31
672.70288
12
-75.74450
22
597.06958
32
699.23822
13
-75.74450
23
720.05878
33
576.24902
0
3DFACE
8
layer1
62
1
10
-75.74450
20
720.05878
30
576.24902
11
-75.74450
21
597.06958
31
699.23822
12
-38.21760
22
623.60510
32
725.77368
13
-38.21760
23
746.59430
33
602.78448
0
3DFACE
8
layer1
62
1
10
-38.21760
20
746.59430
30
602.78448
11
-38.21760
21
623.60510
31
725.77368
12
-0.69090
22
597.06982
32
699.23840
13
-0.69090
23
720.05902
33
576.24921
0
3DFACE
8
layer1
62
1
10
-0.69090
20
597.06982
30
699.23840
11
-38.21760
21
623.60510
31
725.77368
12
-75.74450
22
597.06958
32
699.23822
13
-38.21780
23
570.53430
33
672.70288
0
3DFACE
8
layer1
62
1
10
-6.99740
20
596.43951
30
699.84430
11
-38.20100
21
618.50372
31
721.90863
12
-69.40410
22
596.43982
32
699.84460
13
-38.20060
23
574.37549
33
677.78027
0
3DFACE
8
layer1
62
1
10
-19.64240
20
596.06720
30
700.24017
11
-38.21810
21
609.20221
31
713.37531
12
-56.79310
22
596.06769
32
700.24078
13
-38.21740
23
582.93280
33
687.10577
0
3DFACE
8
layer1
62
1
10
73.36850
20
720.05902
30
-576.24921
11
35.84160
21
693.52350
31
-549.71368
12
35.84160
22
570.53430
32
-672.70288
13
73.36850
23
597.06982
33
-699.23840
0
3DFACE
8
layer1
62
1
10
35.84160
20
693.52350
30
-549.71368
11
-1.68500
21
720.05878
31
-576.24902
12
-1.68500
22
597.06958
32
-699.23822
13
35.84160
23
570.53430
33
-672.70288
0
3DFACE
8
layer1
62
1
10
-1.68500
20
720.05878
30
-576.24902
11
35.84190
21
746.59430
31
-602.78448
12
35.84190
22
623.60510
32
-725.77368
13
-1.68500
23
597.06958
33
-699.23822
0
3DFACE
8
layer1
62
1
10
35.84190
20
746.59430
30
-602.78448
11
73.36850
21
720.05902
31
-576.24921
12
73.36850
22
597.06982
32
-699.23840
13
35.84190
23
623.60510
33
-725.77368
0
3DFACE
8
layer1
62
1
10
73.36850
20
597.06982
30
-699.23840
11
35.84160
21
570.53430
31
-672.70288
12
-1.68500
22
597.06958
32
-699.23822
13
35.84190
23
623.60510
33
-725.77368
0
3DFACE
8
layer1
62
1
10
67.06200
20
596.43951
30
-699.84430
11
35.85890
21
574.37549
31
-677.78027
12
4.65530
22
596.43982
32
-699.84460
13
35.85840
23
618.50372
33
-721.90863
0
3DFACE
8
layer1
62
1
10
54.41700
20
596.06720
30
-700.24017
11
35.84210
21
582.93280
31
-687.10577
12
17.26640
22
596.06769
32
-700.24078
13
35.84130
23
609.20221
33
-713.37531
0
3DFACE
8
layer1
62
1
10
73.36850
20
720.05902
30
576.24921
11
73.36850
21
597.06982
31
699.23840
12
35.84160
22
570.53430
32
672.70288
13
35.84160
23
693.52350
33
549.71368
0
3DFACE
8
layer1
62
1
10
35.84160
20
693.52350
30
549.71368
11
35.84160
21
570.53430
31
672.70288
12
-1.68500
22
597.06958
32
699.23822
13
-1.68500
23
720.05878
33
576.24902
0
3DFACE
8
layer1
62
1
10
-1.68500
20
720.05878
30
576.24902
11
-1.68500
21
597.06958
31
699.23822
12
35.84190
22
623.60510
32
725.77368
13
35.84190
23
746.59430
33
602.78448
0
3DFACE
8
layer1
62
1
10
35.84190
20
746.59430
30
602.78448
11
35.84190
21
623.60510
31
725.77368
12
73.36850
22
597.06982
32
699.23840
13
73.36850
23
720.05902
33
576.24921
0
3DFACE
8
layer1
62
1
10
73.36850
20
597.06982
30
699.23840
11
35.84190
21
623.60510
31
725.77368
12
-1.68500
22
597.06958
32
699.23822
13
35.84160
23
570.53430
33
672.70288
0
3DFACE
8
layer1
62
1
10
67.06200
20
596.43951
30
699.84430
11
35.85840
21
618.50372
31
721.90863
12
4.65530
22
596.43982
32
699.84460
13
35.85890
23
574.37549
33
677.78027
0
3DFACE
8
layer1
62
1
10
54.41700
20
596.06720
30
700.24017
11
35.84130
21
609.20221
31
713.37531
12
17.26640
22
596.06769
32
700.24078
13
35.84210
23
582.93280
33
687.10577
0
3DFACE
8
layer1
62
1
10
146.44000
20
720.05902
30
-576.24921
11
108.91310
21
693.52350
31
-549.71368
12
108.91310
22
570.53430
32
-672.70288
13
146.44000
23
597.06982
33
-699.23840
0
3DFACE
8
layer1
62
1
10
108.91310
20
693.52350
30
-549.71368
11
71.38650
21
720.05878
31
-576.24902
12
71.38650
22
597.06958
32
-699.23822
13
108.91310
23
570.53430
33
-672.70288
0
3DFACE
8
layer1
62
1
10
71.38650
20
720.05878
30
-576.24902
11
108.91340
21
746.59430
31
-602.78448
12
108.91340
22
623.60510
32
-725.77368
13
71.38650
23
597.06958
33
-699.23822
0
3DFACE
8
layer1
62
1
10
108.91340
20
746.59430
30
-602.78448
11
146.44000
21
720.05902
31
-576.24921
12
146.44000
22
597.06982
32
-699.23840
13
108.91340
23
623.60510
33
-725.77368
0
3DFACE
8
layer1
62
1
10
146.44000
20
597.06982
30
-699.23840
11
108.91310
21
570.53430
31
-672.70288
12
71.38650
22
597.06958
32
-699.23822
13
108.91340
23
623.60510
33
-725.77368
0
3DFACE
8
layer1
62
1
10
140.13350
20
596.43951
30
-699.84430
11
108.93040
21
574.37549
31
-677.78027
12
77.72680
22
596.43982
32
-699.84460
13
108.92990
23
618.50372
33
-721.90863
0
3DFACE
8
layer1
62
1
10
127.48850
20
596.06720
30
-700.24017
11
108.91360
21
582.93280
31
-687.10577
12
90.33790
22
596.06769
32
-700.24078
13
108.91280
23
609.20221
33
-713.37531
0
3DFACE
8
layer1
62
1
10
146.44000
20
720.05902
30
576.24921
11
146.44000
21
597.06982
31
699.23840
12
108.91310
22
570.53430
32
672.70288
13
108.91310
23
693.52350
33
549.71368
0
3DFACE
8
layer1
62
1
10
108.91310
20
693.52350
30
549.71368
11
108.91310
21
570.53430
31
672.70288
12
71.38650
22
597.06958
32
699.23822
13
71.38650
23
720.05878
33
576.24902
0
3DFACE
8
layer1
62
1
10
71.38650
20
720.05878
30
576.24902
11
71.38650
21
597.06958
31
699.23822
12
108.91340
22
623.60510
32
725.77368
13
108.91340
23
746.59430
33
602.78448
0
3DFACE
8
layer1
62
1
10
108.91340
20
746.59430
30
602.78448
11
108.91340
21
623.60510
31
725.77368
12
146.44000
22
597.06982
32
699.23840
13
146.44000
23
720.05902
33
576.24921
0
3DFACE
8
layer1
62
1
10
146.44000
20
597.06982
30
699.23840
11
108.91340
21
623.60510
31
725.77368
12
71.38650
22
597.06958
32
699.23822
13
108.91310
23
570.53430
33
672.70288
0
3DFACE
8
layer1
62
1
10
140.13350
20
596.43951
30
699.84430
11
108.92990
21
618.50372
31
721.90863
12
77.72680
22
596.43982
32
699.84460
13
108.93040
23
574.37549
33
677.78027
0
3DFACE
8
layer1
62
1
10
127.48850
20
596.06720
30
700.24017
11
108.91280
21
609.20221
31
713.37531
12
90.33790
22
596.06769
32
700.24078
13
108.91360
23
582.93280
33
687.10577
0
3DFACE
8
layer1
62
1
10
220.13451
20
720.05902
30
-576.24921
11
182.60770
21
693.52350
31
-549.71368
12
182.60770
22
570.53430
32
-672.70288
13
220.13451
23
597.06982
33
-699.23840
0
3DFACE
8
layer1
62
1
10
182.60770
20
693.52350
30
-549.71368
11
145.08099
21
720.05878
31
-576.24902
12
145.08099
22
597.06958
32
-699.23822
13
182.60770
23
570.53430
33
-672.70288
0
3DFACE
8
layer1
62
1
10
145.08099
20
720.05878
30
-576.24902
11
182.60789
21
746.59430
31
-602.78448
12
182.60789
22
623.60510
32
-725.77368
13
145.08099
23
597.06958
33
-699.23822
0
3DFACE
8
layer1
62
1
10
182.60789
20
746.59430
30
-602.78448
11
220.13451
21
720.05902
31
-576.24921
12
220.13451
22
597.06982
32
-699.23840
13
182.60789
23
623.60510
33
-725.77368
0
3DFACE
8
layer1
62
1
10
220.13451
20
597.06982
30
-699.23840
11
182.60770
21
570.53430
31
-672.70288
12
145.08099
22
597.06958
32
-699.23822
13
182.60789
23
623.60510
33
-725.77368
0
3DFACE
8
layer1
62
1
10
213.82800
20
596.43951
30
-699.84430
11
182.62489
21
574.37549
31
-677.78027
12
151.42130
22
596.43982
32
-699.84460
13
182.62440
23
618.50372
33
-721.90863
0
3DFACE
8
layer1
62
1
10
201.18311
20
596.06720
30
-700.24017
11
182.60809
21
582.93280
31
-687.10577
12
164.03239
22
596.06769
32
-700.24078
13
182.60730
23
609.20221
33
-713.37531
0
3DFACE
8
layer1
62
1
10
220.13451
20
720.05902
30
576.24921
11
220.13451
21
597.06982
31
699.23840
12
182.60770
22
570.53430
32
672.70288
13
182.60770
23
693.52350
33
549.71368
0
3DFACE
8
layer1
62
1
10
182.60770
20
693.52350
30
549.71368
11
182.60770
21
570.53430
31
672.70288
12
145.08099
22
597.06958
32
699.23822
13
145.08099
23
720.05878
33
576.24902
0
3DFACE
8
layer1
62
1
10
145.08099
20
720.05878
30
576.24902
11
145.08099
21
597.06958
31
699.23822
12
182.60789
22
623.60510
32
725.77368
13
182.60789
23
746.59430
33
602.78448
0
3DFACE
8
layer1
62
1
10
182.60789
20
746.59430
30
602.78448
11
182.60789
21
623.60510
31
725.77368
12
220.13451
22
597.06982
32
699.23840
13
220.13451
23
720.05902
33
576.24921
0
3DFACE
8
layer1
62
1
10
220.13451
20
597.06982
30
699.23840
11
182.60789
21
623.60510
31
725.77368
12
145.08099
22
597.06958
32
699.23822
13
182.60770
23
570.53430
33
672.70288
0
3DFACE
8
layer1
62
1
10
213.82800
20
596.43951
30
699.84430
11
182.62440
21
618.50372
31
721.90863
12
151.42130
22
596.43982
32
699.84460
13
182.62489
23
574.37549
33
677.78027
0
3DFACE
8
layer1
62
1
10
201.18311
20
596.06720
30
700.24017
11
182.60730
21
609.20221
31
713.37531
12
164.03239
22
596.06769
32
700.24078
13
182.60809
23
582.93280
33
687.10577
0
3DFACE
8
layer1
62
1
10
-17.10880
20
597.33698
30
185.42920
11
-17.10880
21
562.73712
31
191.21930
12
-17.10880
22
587.45471
32
338.92731
13
-17.10880
23
622.05499
33
333.13721
0
3DFACE
8
layer1
62
1
10
18.32410
20
622.05499
30
333.13721
11
18.32410
21
587.45471
31
338.92731
12
18.32410
22
562.73712
32
191.21930
13
18.32410
23
597.33698
33
185.42920
0
3DFACE
8
layer1
62
1
10
18.32410
20
622.05499
30
333.13721
11
18.32410
21
597.33698
31
185.42920
12
-17.10880
22
597.33698
32
185.42920
13
-17.10880
23
622.05499
33
333.13721
0
3DFACE
8
layer1
62
1
10
18.32410
20
562.73712
30
191.21930
11
18.32410
21
587.45471
31
338.92731
12
-17.10880
22
587.45471
32
338.92731
13
-17.10880
23
562.73712
33
191.21930
0
3DFACE
8
layer1
62
1
10
-17.10880
20
674.92938
30
54.20890
11
-17.10880
21
642.86133
31
46.65090
12
-17.10880
22
562.64227
32
191.57570
13
-17.10880
23
594.71088
33
199.13370
0
3DFACE
8
layer1
62
1
10
18.32410
20
594.71088
30
199.13370
11
18.32410
21
562.64227
31
191.57570
12
18.32410
22
642.86133
32
46.65090
13
18.32410
23
674.92938
33
54.20890
0
3DFACE
8
layer1
62
1
10
18.32410
20
594.71088
30
199.13370
11
18.32410
21
674.92938
31
54.20890
12
-17.10880
22
674.92938
32
54.20890
13
-17.10880
23
594.71088
33
199.13370
0
3DFACE
8
layer1
62
1
10
18.32410
20
642.86133
30
46.65090
11
18.32410
21
562.64227
31
191.57570
12
-17.10880
22
562.64227
32
191.57570
13
-17.10880
23
642.86133
33
46.65090
0
3DFACE
8
layer1
62
1
10
18.32400
20
738.08441
30
431.60709
11
18.32400
21
710.22351
31
449.19421
12
18.32410
22
587.19250
32
338.28131
13
18.32410
23
615.05298
33
320.69449
0
3DFACE
8
layer1
62
1
10
-17.10880
20
615.05298
30
320.69449
11
-17.10880
21
587.19250
31
338.28131
12
-17.10880
22
710.22351
32
449.19421
13
-17.10880
23
738.08441
33
431.60709
0
3DFACE
8
layer1
62
1
10
-17.10880
20
615.05298
30
320.69449
11
-17.10880
21
738.08441
31
431.60709
12
18.32400
22
738.08441
32
431.60709
13
18.32410
23
615.05298
33
320.69449
0
3DFACE
8
layer1
62
1
10
-17.10880
20
710.22351
30
449.19421
11
-17.10880
21
587.19250
31
338.28131
12
18.32410
22
587.19250
32
338.28131
13
18.32400
23
710.22351
33
449.19421
0
3DFACE
8
layer1
62
1
10
55.35670
20
597.33698
30
185.42920
11
55.35670
21
562.73712
31
191.21930
12
55.35670
22
587.45471
32
338.92731
13
55.35670
23
622.05499
33
333.13721
0
3DFACE
8
layer1
62
1
10
90.78950
20
622.05499
30
333.13721
11
90.78950
21
587.45471
31
338.92731
12
90.78950
22
562.73712
32
191.21930
13
90.78950
23
597.33698
33
185.42920
0
3DFACE
8
layer1
62
1
10
90.78950
20
622.05499
30
333.13721
11
90.78950
21
597.33698
31
185.42920
12
55.35670
22
597.33698
32
185.42920
13
55.35670
23
622.05499
33
333.13721
0
3DFACE
8
layer1
62
1
10
90.78950
20
562.73712
30
191.21930
11
90.78950
21
587.45471
31
338.92731
12
55.35670
22
587.45471
32
338.92731
13
55.35670
23
562.73712
33
191.21930
0
3DFACE
8
layer1
62
1
10
55.35670
20
674.92938
30
54.20890
11
55.35670
21
642.86133
31
46.65090
12
55.35670
22
562.64227
32
191.57570
13
55.35670
23
594.71088
33
199.13370
0
3DFACE
8
layer1
62
1
10
90.78950
20
594.71088
30
199.13370
11
90.78950
21
562.64227
31
191.57570
12
90.78950
22
642.86133
32
46.65090
13
90.78950
23
674.92938
33
54.20890
0
3DFACE
8
layer1
62
1
10
90.78950
20
594.71088
30
199.13370
11
90.78950
21
674.92938
31
54.20890
12
55.35670
22
674.92938
32
54.20890
13
55.35670
23
594.71088
33
199.13370
0
3DFACE
8
layer1
62
1
10
90.78950
20
642.86133
30
46.65090
11
90.78950
21
562.64227
31
191.57570
12
55.35670
22
562.64227
32
191.57570
13
55.35670
23
642.86133
33
46.65090
0
3DFACE
8
layer1
62
1
10
90.78950
20
738.08441
30
431.60709
11
90.78950
21
710.22351
31
449.19421
12
90.78950
22
587.19250
32
338.28131
13
90.78950
23
615.05298
33
320.69449
0
3DFACE
8
layer1
62
1
10
55.35670
20
615.05298
30
320.69449
11
55.35670
21
587.19250
31
338.28131
12
55.35670
22
710.22351
32
449.19421
13
55.35670
23
738.08441
33
431.60709
0
3DFACE
8
layer1
62
1
10
55.35670
20
615.05298
30
320.69449
11
55.35670
21
738.08441
31
431.60709
12
90.78950
22
738.08441
32
431.60709
13
90.78950
23
615.05298
33
320.69449
0
3DFACE
8
layer1
62
1
10
55.35670
20
710.22351
30
449.19421
11
55.35670
21
587.19250
31
338.28131
12
90.78950
22
587.19250
32
338.28131
13
90.78950
23
710.22351
33
449.19421
0
3DFACE
8
layer1
62
1
10
129.93280
20
597.33698
30
185.42920
11
129.93280
21
562.73712
31
191.21930
12
129.93280
22
587.45471
32
338.92731
13
129.93280
23
622.05499
33
333.13721
0
3DFACE
8
layer1
62
1
10
165.36560
20
622.05499
30
333.13721
11
165.36560
21
587.45471
31
338.92731
12
165.36560
22
562.73712
32
191.21930
13
165.36560
23
597.33698
33
185.42920
0
3DFACE
8
layer1
62
1
10
165.36560
20
622.05499
30
333.13721
11
165.36560
21
597.33698
31
185.42920
12
129.93280
22
597.33698
32
185.42920
13
129.93280
23
622.05499
33
333.13721
0
3DFACE
8
layer1
62
1
10
165.36560
20
562.73712
30
191.21930
11
165.36560
21
587.45471
31
338.92731
12
129.93280
22
587.45471
32
338.92731
13
129.93280
23
562.73712
33
191.21930
0
3DFACE
8
layer1
62
1
10
129.93280
20
674.92938
30
54.20890
11
129.93280
21
642.86133
31
46.65090
12
129.93280
22
562.64227
32
191.57570
13
129.93280
23
594.71088
33
199.13370
0
3DFACE
8
layer1
62
1
10
165.36560
20
594.71088
30
199.13370
11
165.36560
21
562.64227
31
191.57570
12
165.36560
22
642.86133
32
46.65090
13
165.36560
23
674.92938
33
54.20890
0
3DFACE
8
layer1
62
1
10
165.36560
20
594.71088
30
199.13370
11
165.36560
21
674.92938
31
54.20890
12
129.93280
22
674.92938
32
54.20890
13
129.93280
23
594.71088
33
199.13370
0
3DFACE
8
layer1
62
1
10
165.36560
20
642.86133
30
46.65090
11
165.36560
21
562.64227
31
191.57570
12
129.93280
22
562.64227
32
191.57570
13
129.93280
23
642.86133
33
46.65090
0
3DFACE
8
layer1
62
1
10
165.36560
20
738.08441
30
431.60709
11
165.36560
21
710.22351
31
449.19421
12
165.36560
22
587.19250
32
338.28131
13
165.36560
23
615.05298
33
320.69449
0
3DFACE
8
layer1
62
1
10
129.93280
20
615.05298
30
320.69449
11
129.93280
21
587.19250
31
338.28131
12
129.93280
22
710.22351
32
449.19421
13
129.93280
23
738.08441
33
431.60709
0
3DFACE
8
layer1
62
1
10
129.93280
20
615.05298
30
320.69449
11
129.93280
21
738.08441
31
431.60709
12
165.36560
22
738.08441
32
431.60709
13
165.36560
23
615.05298
33
320.69449
0
3DFACE
8
layer1
62
1
10
129.93280
20
710.22351
30
449.19421
11
129.93280
21
587.19250
31
338.28131
12
165.36560
22
587.19250
32
338.28131
13
165.36560
23
710.22351
33
449.19421
0
3DFACE
8
layer1
62
1
10
-17.10880
20
597.33698
30
-185.42920
11
-17.10880
21
622.05499
31
-333.13721
12
-17.10880
22
587.45471
32
-338.92731
13
-17.10880
23
562.73712
33
-191.21930
0
3DFACE
8
layer1
62
1
10
18.32410
20
622.05499
30
-333.13721
11
18.32410
21
597.33698
31
-185.42920
12
18.32410
22
562.73712
32
-191.21930
13
18.32410
23
587.45471
33
-338.92731
0
3DFACE
8
layer1
62
1
10
18.32410
20
622.05499
30
-333.13721
11
-17.10880
21
622.05499
31
-333.13721
12
-17.10880
22
597.33698
32
-185.42920
13
18.32410
23
597.33698
33
-185.42920
0
3DFACE
8
layer1
62
1
10
18.32410
20
562.73712
30
-191.21930
11
-17.10880
21
562.73712
31
-191.21930
12
-17.10880
22
587.45471
32
-338.92731
13
18.32410
23
587.45471
33
-338.92731
0
3DFACE
8
layer1
62
1
10
-17.10880
20
674.92938
30
-54.20890
11
-17.10880
21
594.71088
31
-199.13370
12
-17.10880
22
562.64227
32
-191.57570
13
-17.10880
23
642.86133
33
-46.65090
0
3DFACE
8
layer1
62
1
10
18.32410
20
594.71088
30
-199.13370
11
18.32410
21
674.92938
31
-54.20890
12
18.32410
22
642.86133
32
-46.65090
13
18.32410
23
562.64227
33
-191.57570
0
3DFACE
8
layer1
62
1
10
18.32410
20
594.71088
30
-199.13370
11
-17.10880
21
594.71088
31
-199.13370
12
-17.10880
22
674.92938
32
-54.20890
13
18.32410
23
674.92938
33
-54.20890
0
3DFACE
8
layer1
62
1
10
18.32410
20
642.86133
30
-46.65090
11
-17.10880
21
642.86133
31
-46.65090
12
-17.10880
22
562.64227
32
-191.57570
13
18.32410
23
562.64227
33
-191.57570
0
3DFACE
8
layer1
62
1
10
18.32400
20
738.08441
30
-431.60709
11
18.32410
21
615.05298
31
-320.69449
12
18.32410
22
587.19250
32
-338.28131
13
18.32400
23
710.22351
33
-449.19421
0
3DFACE
8
layer1
62
1
10
-17.10880
20
615.05298
30
-320.69449
11
-17.10880
21
738.08441
31
-431.60709
12
-17.10880
22
710.22351
32
-449.19421
13
-17.10880
23
587.19250
33
-338.28131
0
3DFACE
8
layer1
62
1
10
-17.10880
20
615.05298
30
-320.69449
11
18.32410
21
615.05298
31
-320.69449
12
18.32400
22
738.08441
32
-431.60709
13
-17.10880
23
738.08441
33
-431.60709
0
3DFACE
8
layer1
62
1
10
-17.10880
20
710.22351
30
-449.19421
11
18.32400
21
710.22351
31
-449.19421
12
18.32410
22
587.19250
32
-338.28131
13
-17.10880
23
587.19250
33
-338.28131
0
3DFACE
8
layer1
62
1
10
55.35670
20
597.33698
30
-185.42920
11
55.35670
21
622.05499
31
-333.13721
12
55.35670
22
587.45471
32
-338.92731
13
55.35670
23
562.73712
33
-191.21930
0
3DFACE
8
layer1
62
1
10
90.78950
20
622.05499
30
-333.13721
11
90.78950
21
597.33698
31
-185.42920
12
90.78950
22
562.73712
32
-191.21930
13
90.78950
23
587.45471
33
-338.92731
0
3DFACE
8
layer1
62
1
10
90.78950
20
622.05499
30
-333.13721
11
55.35670
21
622.05499
31
-333.13721
12
55.35670
22
597.33698
32
-185.42920
13
90.78950
23
597.33698
33
-185.42920
0
3DFACE
8
layer1
62
1
10
90.78950
20
562.73712
30
-191.21930
11
55.35670
21
562.73712
31
-191.21930
12
55.35670
22
587.45471
32
-338.92731
13
90.78950
23
587.45471
33
-338.92731
0
3DFACE
8
layer1
62
1
10
55.35670
20
674.92938
30
-54.20890
11
55.35670
21
594.71088
31
-199.13370
12
55.35670
22
562.64227
32
-191.57570
13
55.35670
23
642.86133
33
-46.65090
0
3DFACE
8
layer1
62
1
10
90.78950
20
594.71088
30
-199.13370
11
90.78950
21
674.92938
31
-54.20890
12
90.78950
22
642.86133
32
-46.65090
13
90.78950
23
562.64227
33
-191.57570
0
3DFACE
8
layer1
62
1
10
90.78950
20
594.71088
30
-199.13370
11
55.35670
21
594.71088
31
-199.13370
12
55.35670
22
674.92938
32
-54.20890
13
90.78950
23
674.92938
33
-54.20890
0
3DFACE
8
layer1
62
1
10
90.78950
20
642.86133
30
-46.65090
11
55.35670
21
642.86133
31
-46.65090
12
55.35670
22
562.64227
32
-191.57570
13
90.78950
23
562.64227
33
-191.57570
0
3DFACE
8
layer1
62
1
10
90.78950
20
738.08441
30
-431.60709
11
90.78950
21
615.05298
31
-320.69449
12
90.78950
22
587.19250
32
-338.28131
13
90.78950
23
710.22351
33
-449.19421
0
3DFACE
8
layer1
62
1
10
55.35670
20
615.05298
30
-320.69449
11
55.35670
21
738.08441
31
-431.60709
12
55.35670
22
710.22351
32
-449.19421
13
55.35670
23
587.19250
33
-338.28131
0
3DFACE
8
layer1
62
1
10
55.35670
20
615.05298
30
-320.69449
11
90.78950
21
615.05298
31
-320.69449
12
90.78950
22
738.08441
32
-431.60709
13
55.35670
23
738.08441
33
-431.60709
0
3DFACE
8
layer1
62
1
10
55.35670
20
710.22351
30
-449.19421
11
90.78950
21
710.22351
31
-449.19421
12
90.78950
22
587.19250
32
-338.28131
13
55.35670
23
587.19250
33
-338.28131
0
3DFACE
8
layer1
62
1
10
129.93280
20
597.33698
30
-185.42920
11
129.93280
21
622.05499
31
-333.13721
12
129.93280
22
587.45471
32
-338.92731
13
129.93280
23
562.73712
33
-191.21930
0
3DFACE
8
layer1
62
1
10
165.36560
20
622.05499
30
-333.13721
11
165.36560
21
597.33698
31
-185.42920
12
165.36560
22
562.73712
32
-191.21930
13
165.36560
23
587.45471
33
-338.92731
0
3DFACE
8
layer1
62
1
10
165.36560
20
622.05499
30
-333.13721
11
129.93280
21
622.05499
31
-333.13721
12
129.93280
22
597.33698
32
-185.42920
13
165.36560
23
597.33698
33
-185.42920
0
3DFACE
8
layer1
62
1
10
165.36560
20
562.73712
30
-191.21930
11
129.93280
21
562.73712
31
-191.21930
12
129.93280
22
587.45471
32
-338.92731
13
165.36560
23
587.45471
33
-338.92731
0
3DFACE
8
layer1
62
1
10
129.93280
20
674.92938
30
-54.20890
11
129.93280
21
594.71088
31
-199.13370
12
129.93280
22
562.64227
32
-191.57570
13
129.93280
23
642.86133
33
-46.65090
0
3DFACE
8
layer1
62
1
10
165.36560
20
594.71088
30
-199.13370
11
165.36560
21
674.92938
31
-54.20890
12
165.36560
22
642.86133
32
-46.65090
13
165.36560
23
562.64227
33
-191.57570
0
3DFACE
8
layer1
62
1
10
165.36560
20
594.71088
30
-199.13370
11
129.93280
21
594.71088
31
-199.13370
12
129.93280
22
674.92938
32
-54.20890
13
165.36560
23
674.92938
33
-54.20890
0
3DFACE
8
layer1
62
1
10
165.36560
20
642.86133
30
-46.65090
11
129.93280
21
642.86133
31
-46.65090
12
129.93280
22
562.64227
32
-191.57570
13
165.36560
23
562.64227
33
-191.57570
0
3DFACE
8
layer1
62
1
10
165.36560
20
738.08441
30
-431.60709
11
165.36560
21
615.05298
31
-320.69449
12
165.36560
22
587.19250
32
-338.28131
13
165.36560
23
710.22351
33
-449.19421
0
3DFACE
8
layer1
62
1
10
129.93280
20
615.05298
30
-320.69449
11
129.93280
21
738.08441
31
-431.60709
12
129.93280
22
710.22351
32
-449.19421
13
129.93280
23
587.19250
33
-338.28131
0
3DFACE
8
layer1
62
1
10
129.93280
20
615.05298
30
-320.69449
11
165.36560
21
615.05298
31
-320.69449
12
165.36560
22
738.08441
32
-431.60709
13
129.93280
23
738.08441
33
-431.60709
0
3DFACE
8
layer1
62
1
10
129.93280
20
710.22351
30
-449.19421
11
165.36560
21
710.22351
31
-449.19421
12
165.36560
22
587.19250
32
-338.28131
13
129.93280
23
587.19250
33
-338.28131
0
3DFACE
8
layer1
62
1
10
-65.92970
20
638.25598
30
-319.96130
11
-65.92970
21
638.25598
31
-469.72299
12
-65.92970
22
603.17493
32
-469.72299
13
-65.92970
23
603.17493
33
-319.96130
0
3DFACE
8
layer1
62
1
10
-8.73600
20
638.25598
30
-469.72299
11
-8.73600
21
638.25598
31
-319.96130
12
-8.73600
22
603.17493
32
-319.96130
13
-8.73600
23
603.17493
33
-469.72299
0
3DFACE
8
layer1
62
1
10
-8.73600
20
638.25598
30
-469.72299
11
-65.92970
21
638.25598
31
-469.72299
12
-65.92970
22
638.25598
32
-319.96130
13
-8.73600
23
638.25598
33
-319.96130
0
3DFACE
8
layer1
62
1
10
-8.73600
20
603.17493
30
-319.96130
11
-65.92970
21
603.17493
31
-319.96130
12
-65.92970
22
603.17493
32
-469.72299
13
-8.73600
23
603.17493
33
-469.72299
0
3DFACE
8
layer1
62
1
10
-65.92970
20
736.44202
30
-203.34720
11
-65.92970
21
633.40411
31
-333.04440
12
-65.92970
22
603.02283
32
-320.29739
13
-65.92970
23
706.06091
33
-190.60001
0
3DFACE
8
layer1
62
1
10
-8.73600
20
633.40411
30
-333.04440
11
-8.73600
21
736.44202
31
-203.34720
12
-8.73600
22
706.06091
32
-190.60001
13
-8.73600
23
603.02283
33
-320.29739
0
3DFACE
8
layer1
62
1
10
-8.73600
20
633.40411
30
-333.04440
11
-65.92970
21
633.40411
31
-333.04440
12
-65.92970
22
736.44202
32
-203.34720
13
-8.73600
23
736.44202
33
-203.34720
0
3DFACE
8
layer1
62
1
10
-8.73600
20
706.06091
30
-190.60001
11
-65.92970
21
706.06091
31
-190.60001
12
-65.92970
22
603.02283
32
-320.29739
13
-8.73600
23
603.02283
33
-320.29739
0
3DFACE
8
layer1
62
1
10
-8.73600
20
736.44202
30
-585.99261
11
-8.73600
21
633.40411
31
-456.29529
12
-8.73600
22
603.02283
32
-469.04251
13
-8.73600
23
706.06091
33
-598.74011
0
3DFACE
8
layer1
62
1
10
-65.92970
20
633.40411
30
-456.29529
11
-65.92980
21
736.44202
31
-585.99261
12
-65.92980
22
706.06091
32
-598.74011
13
-65.92970
23
603.02283
33
-469.04251
0
3DFACE
8
layer1
62
1
10
-65.92970
20
633.40411
30
-456.29529
11
-8.73600
21
633.40411
31
-456.29529
12
-8.73600
22
736.44202
32
-585.99261
13
-65.92980
23
736.44202
33
-585.99261
0
3DFACE
8
layer1
62
1
10
-65.92980
20
706.06091
30
-598.74011
11
-8.73600
21
706.06091
31
-598.74011
12
-8.73600
22
603.02283
32
-469.04251
13
-65.92970
23
603.02283
33
-469.04251
0
3DFACE
8
layer1
62
1
10
-65.92970
20
638.25598
30
319.96130
11
-65.92970
21
603.17493
31
319.96130
12
-65.92970
22
603.17493
32
469.72299
13
-65.92970
23
638.25598
33
469.72299
0
3DFACE
8
layer1
62
1
10
-8.73600
20
638.25598
30
469.72299
11
-8.73600
21
603.17493
31
469.72299
12
-8.73600
22
603.17493
32
319.96130
13
-8.73600
23
638.25598
33
319.96130
0
3DFACE
8
layer1
62
1
10
-8.73600
20
638.25598
30
469.72299
11
-8.73600
21
638.25598
31
319.96130
12
-65.92970
22
638.25598
32
319.96130
13
-65.92970
23
638.25598
33
469.72299
0
3DFACE
8
layer1
62
1
10
-8.73600
20
603.17493
30
319.96130
11
-8.73600
21
603.17493
31
469.72299
12
-65.92970
22
603.17493
32
469.72299
13
-65.92970
23
603.17493
33
319.96130
0
3DFACE
8
layer1
62
1
10
-65.92970
20
736.44202
30
203.34720
11
-65.92970
21
706.06091
31
190.60001
12
-65.92970
22
603.02283
32
320.29739
13
-65.92970
23
633.40411
33
333.04440
0
3DFACE
8
layer1
62
1
10
-8.73600
20
633.40411
30
333.04440
11
-8.73600
21
603.02283
31
320.29739
12
-8.73600
22
706.06091
32
190.60001
13
-8.73600
23
736.44202
33
203.34720
0
3DFACE
8
layer1
62
1
10
-8.73600
20
633.40411
30
333.04440
11
-8.73600
21
736.44202
31
203.34720
12
-65.92970
22
736.44202
32
203.34720
13
-65.92970
23
633.40411
33
333.04440
0
3DFACE
8
layer1
62
1
10
-8.73600
20
706.06091
30
190.60001
11
-8.73600
21
603.02283
31
320.29739
12
-65.92970
22
603.02283
32
320.29739
13
-65.92970
23
706.06091
33
190.60001
0
3DFACE
8
layer1
62
1
10
-8.73600
20
736.44202
30
585.99261
11
-8.73600
21
706.06091
31
598.74011
12
-8.73600
22
603.02283
32
469.04251
13
-8.73600
23
633.40411
33
456.29529
0
3DFACE
8
layer1
62
1
10
-65.92970
20
633.40411
30
456.29529
11
-65.92970
21
603.02283
31
469.04251
12
-65.92980
22
706.06091
32
598.74011
13
-65.92980
23
736.44202
33
585.99261
0
3DFACE
8
layer1
62
1
10
-65.92970
20
633.40411
30
456.29529
11
-65.92980
21
736.44202
31
585.99261
12
-8.73600
22
736.44202
32
585.99261
13
-8.73600
23
633.40411
33
456.29529
0
3DFACE
8
layer1
62
1
10
-65.92980
20
706.06091
30
598.74011
11
-65.92970
21
603.02283
31
469.04251
12
-8.73600
22
603.02283
32
469.04251
13
-8.73600
23
706.06091
33
598.74011
0
3DFACE
8
layer1
62
1
10
7.29560
20
638.25598
30
-319.96130
11
7.29560
21
638.25598
31
-469.72299
12
7.29560
22
603.17493
32
-469.72299
13
7.29560
23
603.17493
33
-319.96130
0
3DFACE
8
layer1
62
1
10
64.48930
20
638.25598
30
-469.72299
11
64.48930
21
638.25598
31
-319.96130
12
64.48930
22
603.17493
32
-319.96130
13
64.48930
23
603.17493
33
-469.72299
0
3DFACE
8
layer1
62
1
10
64.48930
20
638.25598
30
-469.72299
11
7.29560
21
638.25598
31
-469.72299
12
7.29560
22
638.25598
32
-319.96130
13
64.48930
23
638.25598
33
-319.96130
0
3DFACE
8
layer1
62
1
10
64.48930
20
603.17493
30
-319.96130
11
7.29560
21
603.17493
31
-319.96130
12
7.29560
22
603.17493
32
-469.72299
13
64.48930
23
603.17493
33
-469.72299
0
3DFACE
8
layer1
62
1
10
7.29560
20
736.44202
30
-203.34720
11
7.29560
21
633.40411
31
-333.04440
12
7.29560
22
603.02283
32
-320.29739
13
7.29560
23
706.06091
33
-190.60001
0
3DFACE
8
layer1
62
1
10
64.48930
20
633.40411
30
-333.04440
11
64.48930
21
736.44202
31
-203.34720
12
64.48930
22
706.06091
32
-190.60001
13
64.48930
23
603.02283
33
-320.29739
0
3DFACE
8
layer1
62
1
10
64.48930
20
633.40411
30
-333.04440
11
7.29560
21
633.40411
31
-333.04440
12
7.29560
22
736.44202
32
-203.34720
13
64.48930
23
736.44202
33
-203.34720
0
3DFACE
8
layer1
62
1
10
64.48930
20
706.06091
30
-190.60001
11
7.29560
21
706.06091
31
-190.60001
12
7.29560
22
603.02283
32
-320.29739
13
64.48930
23
603.02283
33
-320.29739
0
3DFACE
8
layer1
62
1
10
64.48930
20
736.44202
30
-585.99261
11
64.48930
21
633.40411
31
-456.29529
12
64.48930
22
603.02283
32
-469.04251
13
64.48930
23
706.06091
33
-598.74011
0
3DFACE
8
layer1
62
1
10
7.29560
20
633.40411
30
-456.29529
11
7.29560
21
736.44202
31
-585.99261
12
7.29560
22
706.06091
32
-598.74011
13
7.29560
23
603.02283
33
-469.04251
0
3DFACE
8
layer1
62
1
10
7.29560
20
633.40411
30
-456.29529
11
64.48930
21
633.40411
31
-456.29529
12
64.48930
22
736.44202
32
-585.99261
13
7.29560
23
736.44202
33
-585.99261
0
3DFACE
8
layer1
62
1
10
7.29560
20
706.06091
30
-598.74011
11
64.48930
21
706.06091
31
-598.74011
12
64.48930
22
603.02283
32
-469.04251
13
7.29560
23
603.02283
33
-469.04251
0
3DFACE
8
layer1
62
1
10
7.29560
20
638.25598
30
319.96130
11
7.29560
21
603.17493
31
319.96130
12
7.29560
22
603.17493
32
469.72299
13
7.29560
23
638.25598
33
469.72299
0
3DFACE
8
layer1
62
1
10
64.48930
20
638.25598
30
469.72299
11
64.48930
21
603.17493
31
469.72299
12
64.48930
22
603.17493
32
319.96130
13
64.48930
23
638.25598
33
319.96130
0
3DFACE
8
layer1
62
1
10
64.48930
20
638.25598
30
469.72299
11
64.48930
21
638.25598
31
319.96130
12
7.29560
22
638.25598
32
319.96130
13
7.29560
23
638.25598
33
469.72299
0
3DFACE
8
layer1
62
1
10
64.48930
20
603.17493
30
319.96130
11
64.48930
21
603.17493
31
469.72299
12
7.29560
22
603.17493
32
469.72299
13
7.29560
23
603.17493
33
319.96130
0
3DFACE
8
layer1
62
1
10
7.29560
20
736.44202
30
203.34720
11
7.29560
21
706.06091
31
190.60001
12
7.29560
22
603.02283
32
320.29739
13
7.29560
23
633.40411
33
333.04440
0
3DFACE
8
layer1
62
1
10
64.48930
20
633.40411
30
333.04440
11
64.48930
21
603.02283
31
320.29739
12
64.48930
22
706.06091
32
190.60001
13
64.48930
23
736.44202
33
203.34720
0
3DFACE
8
layer1
62
1
10
64.48930
20
633.40411
30
333.04440
11
64.48930
21
736.44202
31
203.34720
12
7.29560
22
736.44202
32
203.34720
13
7.29560
23
633.40411
33
333.04440
0
3DFACE
8
layer1
62
1
10
64.48930
20
706.06091
30
190.60001
11
64.48930
21
603.02283
31
320.29739
12
7.29560
22
603.02283
32
320.29739
13
7.29560
23
706.06091
33
190.60001
0
3DFACE
8
layer1
62
1
10
64.48930
20
736.44202
30
585.99261
11
64.48930
21
706.06091
31
598.74011
12
64.48930
22
603.02283
32
469.04251
13
64.48930
23
633.40411
33
456.29529
0
3DFACE
8
layer1
62
1
10
7.29560
20
633.40411
30
456.29529
11
7.29560
21
603.02283
31
469.04251
12
7.29560
22
706.06091
32
598.74011
13
7.29560
23
736.44202
33
585.99261
0
3DFACE
8
layer1
62
1
10
7.29560
20
633.40411
30
456.29529
11
7.29560
21
736.44202
31
585.99261
12
64.48930
22
736.44202
32
585.99261
13
64.48930
23
633.40411
33
456.29529
0
3DFACE
8
layer1
62
1
10
7.29560
20
706.06091
30
598.74011
11
7.29560
21
603.02283
31
469.04251
12
64.48930
22
603.02283
32
469.04251
13
64.48930
23
706.06091
33
598.74011
0
3DFACE
8
layer1
62
1
10
81.52780
20
638.25598
30
-319.96130
11
81.52780
21
638.25598
31
-469.72299
12
81.52780
22
603.17493
32
-469.72299
13
81.52780
23
603.17493
33
-319.96130
0
3DFACE
8
layer1
62
1
10
138.72150
20
638.25598
30
-469.72299
11
138.72150
21
638.25598
31
-319.96130
12
138.72150
22
603.17493
32
-319.96130
13
138.72150
23
603.17493
33
-469.72299
0
3DFACE
8
layer1
62
1
10
138.72150
20
638.25598
30
-469.72299
11
81.52780
21
638.25598
31
-469.72299
12
81.52780
22
638.25598
32
-319.96130
13
138.72150
23
638.25598
33
-319.96130
0
3DFACE
8
layer1
62
1
10
138.72150
20
603.17493
30
-319.96130
11
81.52780
21
603.17493
31
-319.96130
12
81.52780
22
603.17493
32
-469.72299
13
138.72150
23
603.17493
33
-469.72299
0
3DFACE
8
layer1
62
1
10
81.52780
20
736.44202
30
-203.34720
11
81.52780
21
633.40411
31
-333.04440
12
81.52780
22
603.02283
32
-320.29739
13
81.52780
23
706.06091
33
-190.60001
0
3DFACE
8
layer1
62
1
10
138.72150
20
633.40411
30
-333.04440
11
138.72150
21
736.44202
31
-203.34720
12
138.72150
22
706.06091
32
-190.60001
13
138.72150
23
603.02283
33
-320.29739
0
3DFACE
8
layer1
62
1
10
138.72150
20
633.40411
30
-333.04440
11
81.52780
21
633.40411
31
-333.04440
12
81.52780
22
736.44202
32
-203.34720
13
138.72150
23
736.44202
33
-203.34720
0
3DFACE
8
layer1
62
1
10
138.72150
20
706.06091
30
-190.60001
11
81.52780
21
706.06091
31
-190.60001
12
81.52780
22
603.02283
32
-320.29739
13
138.72150
23
603.02283
33
-320.29739
0
3DFACE
8
layer1
62
1
10
138.72150
20
736.44202
30
-585.99261
11
138.72150
21
633.40411
31
-456.29529
12
138.72150
22
603.02283
32
-469.04251
13
138.72150
23
706.06091
33
-598.74011
0
3DFACE
8
layer1
62
1
10
81.52780
20
633.40411
30
-456.29529
11
81.52780
21
736.44202
31
-585.99261
12
81.52780
22
706.06091
32
-598.74011
13
81.52780
23
603.02283
33
-469.04251
0
3DFACE
8
layer1
62
1
10
81.52780
20
633.40411
30
-456.29529
11
138.72150
21
633.40411
31
-456.29529
12
138.72150
22
736.44202
32
-585.99261
13
81.52780
23
736.44202
33
-585.99261
0
3DFACE
8
layer1
62
1
10
81.52780
20
706.06091
30
-598.74011
11
138.72150
21
706.06091
31
-598.74011
12
138.72150
22
603.02283
32
-469.04251
13
81.52780
23
603.02283
33
-469.04251
0
3DFACE
8
layer1
62
1
10
81.52780
20
638.25598
30
319.96130
11
81.52780
21
603.17493
31
319.96130
12
81.52780
22
603.17493
32
469.72299
13
81.52780
23
638.25598
33
469.72299
0
3DFACE
8
layer1
62
1
10
138.72150
20
638.25598
30
469.72299
11
138.72150
21
603.17493
31
469.72299
12
138.72150
22
603.17493
32
319.96130
13
138.72150
23
638.25598
33
319.96130
0
3DFACE
8
layer1
62
1
10
138.72150
20
638.25598
30
469.72299
11
138.72150
21
638.25598
31
319.96130
12
81.52780
22
638.25598
32
319.96130
13
81.52780
23
638.25598
33
469.72299
0
3DFACE
8
layer1
62
1
10
138.72150
20
603.17493
30
319.96130
11
138.72150
21
603.17493
31
469.72299
12
81.52780
22
603.17493
32
469.72299
13
81.52780
23
603.17493
33
319.96130
0
3DFACE
8
layer1
62
1
10
81.52780
20
736.44202
30
203.34720
11
81.52780
21
706.06091
31
190.60001
12
81.52780
22
603.02283
32
320.29739
13
81.52780
23
633.40411
33
333.04440
0
3DFACE
8
layer1
62
1
10
138.72150
20
633.40411
30
333.04440
11
138.72150
21
603.02283
31
320.29739
12
138.72150
22
706.06091
32
190.60001
13
138.72150
23
736.44202
33
203.34720
0
3DFACE
8
layer1
62
1
10
138.72150
20
633.40411
30
333.04440
11
138.72150
21
736.44202
31
203.34720
12
81.52780
22
736.44202
32
203.34720
13
81.52780
23
633.40411
33
333.04440
0
3DFACE
8
layer1
62
1
10
138.72150
20
706.06091
30
190.60001
11
138.72150
21
603.02283
31
320.29739
12
81.52780
22
603.02283
32
320.29739
13
81.52780
23
706.06091
33
190.60001
0
3DFACE
8
layer1
62
1
10
138.72150
20
736.44202
30
585.99261
11
138.72150
21
706.06091
31
598.74011
12
138.72150
22
603.02283
32
469.04251
13
138.72150
23
633.40411
33
456.29529
0
3DFACE
8
layer1
62
1
10
81.52780
20
633.40411
30
456.29529
11
81.52780
21
603.02283
31
469.04251
12
81.52780
22
706.06091
32
598.74011
13
81.52780
23
736.44202
33
585.99261
0
3DFACE
8
layer1
62
1
10
81.52780
20
633.40411
30
456.29529
11
81.52780
21
736.44202
31
585.99261
12
138.72150
22
736.44202
32
585.99261
13
138.72150
23
633.40411
33
456.29529
0
3DFACE
8
layer1
62
1
10
81.52780
20
706.06091
30
598.74011
11
81.52780
21
603.02283
31
469.04251
12
138.72150
22
603.02283
32
469.04251
13
138.72150
23
706.06091
33
598.74011
0
3DFACE
8
layer1
62
1
10
155.50450
20
638.25598
30
-319.96130
11
155.50450
21
638.25598
31
-469.72299
12
155.50450
22
603.17493
32
-469.72299
13
155.50450
23
603.17493
33
-319.96130
0
3DFACE
8
layer1
62
1
10
212.69830
20
638.25598
30
-469.72299
11
212.69830
21
638.25598
31
-319.96130
12
212.69830
22
603.17493
32
-319.96130
13
212.69830
23
603.17493
33
-469.72299
0
3DFACE
8
layer1
62
1
10
212.69830
20
638.25598
30
-469.72299
11
155.50450
21
638.25598
31
-469.72299
12
155.50450
22
638.25598
32
-319.96130
13
212.69830
23
638.25598
33
-319.96130
0
3DFACE
8
layer1
62
1
10
212.69830
20
603.17493
30
-319.96130
11
155.50450
21
603.17493
31
-319.96130
12
155.50450
22
603.17493
32
-469.72299
13
212.69830
23
603.17493
33
-469.72299
0
3DFACE
8
layer1
62
1
10
155.50450
20
736.44202
30
-203.34720
11
155.50450
21
633.40411
31
-333.04440
12
155.50450
22
603.02283
32
-320.29739
13
155.50450
23
706.06091
33
-190.60001
0
3DFACE
8
layer1
62
1
10
212.69830
20
633.40411
30
-333.04440
11
212.69830
21
736.44202
31
-203.34720
12
212.69830
22
706.06091
32
-190.60001
13
212.69830
23
603.02283
33
-320.29739
0
3DFACE
8
layer1
62
1
10
212.69830
20
633.40411
30
-333.04440
11
155.50450
21
633.40411
31
-333.04440
12
155.50450
22
736.44202
32
-203.34720
13
212.69830
23
736.44202
33
-203.34720
0
3DFACE
8
layer1
62
1
10
212.69830
20
706.06091
30
-190.60001
11
155.50450
21
706.06091
31
-190.60001
12
155.50450
22
603.02283
32
-320.29739
13
212.69830
23
603.02283
33
-320.29739
0
3DFACE
8
layer1
62
1
10
212.69820
20
736.44202
30
-585.99261
11
212.69830
21
633.40411
31
-456.29529
12
212.69830
22
603.02283
32
-469.04251
13
212.69820
23
706.06091
33
-598.74011
0
3DFACE
8
layer1
62
1
10
155.50459
20
633.40411
30
-456.29529
11
155.50450
21
736.44202
31
-585.99261
12
155.50450
22
706.06091
32
-598.74011
13
155.50459
23
603.02283
33
-469.04251
0
3DFACE
8
layer1
62
1
10
155.50459
20
633.40411
30
-456.29529
11
212.69830
21
633.40411
31
-456.29529
12
212.69820
22
736.44202
32
-585.99261
13
155.50450
23
736.44202
33
-585.99261
0
3DFACE
8
layer1
62
1
10
155.50450
20
706.06091
30
-598.74011
11
212.69820
21
706.06091
31
-598.74011
12
212.69830
22
603.02283
32
-469.04251
13
155.50459
23
603.02283
33
-469.04251
0
3DFACE
8
layer1
62
1
10
155.50450
20
638.25598
30
319.96130
11
155.50450
21
603.17493
31
319.96130
12
155.50450
22
603.17493
32
469.72299
13
155.50450
23
638.25598
33
469.72299
0
3DFACE
8
layer1
62
1
10
212.69830
20
638.25598
30
469.72299
11
212.69830
21
603.17493
31
469.72299
12
212.69830
22
603.17493
32
319.96130
13
212.69830
23
638.25598
33
319.96130
0
3DFACE
8
layer1
62
1
10
212.69830
20
638.25598
30
469.72299
11
212.69830
21
638.25598
31
319.96130
12
155.50450
22
638.25598
32
319.96130
13
155.50450
23
638.25598
33
469.72299
0
3DFACE
8
layer1
62
1
10
212.69830
20
603.17493
30
319.96130
11
212.69830
21
603.17493
31
469.72299
12
155.50450
22
603.17493
32
469.72299
13
155.50450
23
603.17493
33
319.96130
0
3DFACE
8
layer1
62
1
10
155.50450
20
736.44202
30
203.34720
11
155.50450
21
706.06091
31
190.60001
12
155.50450
22
603.02283
32
320.29739
13
155.50450
23
633.40411
33
333.04440
0
3DFACE
8
layer1
62
1
10
212.69830
20
633.40411
30
333.04440
11
212.69830
21
603.02283
31
320.29739
12
212.69830
22
706.06091
32
190.60001
13
212.69830
23
736.44202
33
203.34720
0
3DFACE
8
layer1
62
1
10
212.69830
20
633.40411
30
333.04440
11
212.69830
21
736.44202
31
203.34720
12
155.50450
22
736.44202
32
203.34720
13
155.50450
23
633.40411
33
333.04440
0
3DFACE
8
layer1
62
1
10
212.69830
20
706.06091
30
190.60001
11
212.69830
21
603.02283
31
320.29739
12
155.50450
22
603.02283
32
320.29739
13
155.50450
23
706.06091
33
190.60001
0
3DFACE
8
layer1
62
1
10
212.69820
20
736.44202
30
585.99261
11
212.69820
21
706.06091
31
598.74011
12
212.69830
22
603.02283
32
469.04251
13
212.69830
23
633.40411
33
456.29529
0
3DFACE
8
layer1
62
1
10
155.50459
20
633.40411
30
456.29529
11
155.50459
21
603.02283
31
469.04251
12
155.50450
22
706.06091
32
598.74011
13
155.50450
23
736.44202
33
585.99261
0
3DFACE
8
layer1
62
1
10
155.50459
20
633.40411
30
456.29529
11
155.50450
21
736.44202
31
585.99261
12
212.69820
22
736.44202
32
585.99261
13
212.69830
23
633.40411
33
456.29529
0
3DFACE
8
layer1
62
1
10
155.50450
20
706.06091
30
598.74011
11
155.50459
21
603.02283
31
469.04251
12
212.69830
22
603.02283
32
469.04251
13
212.69820
23
706.06091
33
598.74011
0
3DFACE
8
layer1
62
1
10
100.00000
20
574.39203
30
82.73500
11
-100.00000
21
574.39203
31
82.73500
12
-100.00000
22
408.17969
32
82.73500
13
100.00000
23
408.17969
33
82.73500
0
3DFACE
8
layer1
62
1
10
-100.00000
20
574.39203
30
-82.73500
11
100.00000
21
574.39203
31
-82.73500
12
100.00000
22
408.17969
32
-82.73500
13
-100.00000
23
408.17969
33
-82.73500
0
3DFACE
8
layer1
62
1
10
100.00000
20
574.39203
30
-82.73500
11
-100.00000
21
574.39203
31
-82.73500
12
-100.00000
22
574.39203
32
82.73500
13
100.00000
23
574.39203
33
82.73500
0
3DFACE
8
layer1
62
1
10
100.00000
20
408.17969
30
82.73500
11
-100.00000
21
408.17969
31
82.73500
12
-100.00000
22
408.17969
32
-82.73500
13
100.00000
23
408.17969
33
-82.73500
0
3DFACE
8
layer1
62
1
10
-347.11081
20
574.39203
30
-82.73500
11
-347.11081
21
574.39203
31
82.73500
12
-100.00000
22
574.39203
32
82.73500
13
-100.00000
23
574.39203
33
-82.73500
0
3DFACE
8
layer1
62
1
10
-347.11081
20
458.61081
30
-82.73500
11
-347.11081
21
574.39203
31
-82.73500
12
-100.00000
22
574.39203
32
-82.73500
13
-100.00000
23
408.17969
33
-82.73500
0
3DFACE
8
layer1
62
1
10
-347.11081
20
458.61081
30
82.73500
11
-347.11081
21
458.61081
31
-82.73500
12
-100.00000
22
408.17969
32
-82.73500
13
-100.00000
23
408.17969
33
82.73500
0
3DFACE
8
layer1
62
1
10
-347.11081
20
574.39203
30
82.73500
11
-347.11081
21
458.61081
31
82.73500
12
-100.00000
22
408.17969
32
82.73500
13
-100.00000
23
574.39203
33
82.73500
0
3DFACE
8
layer1
62
1
10
-347.11081
20
574.39203
30
82.73500
11
-347.11081
21
574.39203
31
-82.73500
12
-347.11081
22
458.61081
32
-82.73500
13
-347.11081
23
458.61081
33
82.73500
0
3DFACE
8
layer1
62
1
10
258.82819
20
574.39203
30
82.73500
11
258.82819
21
574.39203
31
-82.73500
12
100.00000
22
574.39203
32
-82.73500
13
100.00000
23
574.39203
33
82.73500
0
3DFACE
8
layer1
62
1
10
258.82819
20
502.05011
30
82.73500
11
258.82819
21
574.39203
31
82.73500
12
100.00000
22
574.39203
32
82.73500
13
100.00000
23
408.17969
33
82.73500
0
3DFACE
8
layer1
62
1
10
258.82819
20
502.05011
30
-82.73500
11
258.82819
21
502.05011
31
82.73500
12
100.00000
22
408.17969
32
82.73500
13
100.00000
23
408.17969
33
-82.73500
0
3DFACE
8
layer1
62
1
10
258.82819
20
574.39203
30
-82.73500
11
258.82819
21
502.05011
31
-82.73500
12
100.00000
22
408.17969
32
-82.73500
13
100.00000
23
574.39203
33
-82.73500
0
3DFACE
8
layer1
62
1
10
258.82819
20
574.39203
30
-82.73500
11
258.82819
21
574.39203
31
82.73500
12
258.82819
22
502.05011
32
82.73500
13
258.82819
23
502.05011
33
-82.73500
0
3DFACE
8
layer1
62
1
10
53.74320
20
342.30289
30
-15.26630
11
-69.54580
21
342.30289
31
-15.26630
12
-69.54580
22
318.64609
32
-15.26630
13
53.74320
23
318.64609
33
-15.26630
0
3DFACE
8
layer1
62
1
10
-69.54580
20
342.30289
30
-41.79860
11
53.74320
21
342.30289
31
-41.79860
12
53.74320
22
318.64609
32
-41.79860
13
-69.54580
23
318.64609
33
-41.79860
0
3DFACE
8
layer1
62
1
10
-69.54580
20
342.30289
30
-41.79860
11
-69.54580
21
342.30289
31
-15.26630
12
53.74320
22
342.30289
32
-15.26630
13
53.74320
23
342.30289
33
-41.79860
0
3DFACE
8
layer1
62
1
10
53.74320
20
318.64609
30
-41.79860
11
53.74320
21
318.64609
31
-15.26630
12
-69.54580
22
318.64609
32
-15.26630
13
-69.54580
23
318.64609
33
-41.79860
0
3DFACE
8
layer1
62
1
10
149.15320
20
420.03409
30
-15.26630
11
42.97280
21
339.03101
31
-15.26630
12
53.46660
22
318.54349
32
-15.26630
13
166.42551
23
404.81830
33
-15.26630
0
3DFACE
8
layer1
62
1
10
42.97280
20
339.03101
30
-41.79860
11
149.15320
21
420.03409
31
-41.79860
12
166.42551
22
404.81830
32
-41.79860
13
53.46660
23
318.54349
33
-41.79860
0
3DFACE
8
layer1
62
1
10
42.97280
20
339.03101
30
-41.79860
11
42.97280
21
339.03101
31
-15.26630
12
149.15320
22
420.03409
32
-15.26630
13
149.15320
23
420.03409
33
-41.79860
0
3DFACE
8
layer1
62
1
10
166.42551
20
404.81830
30
-41.79860
11
166.42551
21
404.81830
31
-15.26630
12
53.46660
22
318.54349
32
-15.26630
13
53.46660
23
318.54349
33
-41.79860
0
3DFACE
8
layer1
62
1
10
-172.20210
20
406.92630
30
-41.79860
11
-58.49160
21
339.03101
31
-41.79860
12
-68.98550
22
318.54349
32
-41.79860
13
-182.69640
23
386.43900
33
-41.79860
0
3DFACE
8
layer1
62
1
10
-58.49160
20
339.03101
30
-15.26630
11
-172.20210
21
406.92630
31
-15.26630
12
-182.69640
22
386.43900
32
-15.26630
13
-68.98550
23
318.54349
33
-15.26630
0
3DFACE
8
layer1
62
1
10
-58.49160
20
339.03101
30
-15.26630
11
-58.49160
21
339.03101
31
-41.79860
12
-172.20210
22
406.92630
32
-41.79860
13
-172.20210
23
406.92630
33
-15.26630
0
3DFACE
8
layer1
62
1
10
-182.69640
20
386.43900
30
-15.26630
11
-182.69640
21
386.43900
31
-41.79860
12
-68.98550
22
318.54349
32
-41.79860
13
-68.98550
23
318.54349
33
-15.26630
0
3DFACE
8
layer1
62
1
10
53.74320
20
342.30289
30
15.26630
11
53.74320
21
318.64609
31
15.26630
12
-69.54580
22
318.64609
32
15.26630
13
-69.54580
23
342.30289
33
15.26630
0
3DFACE
8
layer1
62
1
10
-69.54580
20
342.30289
30
41.79860
11
-69.54580
21
318.64609
31
41.79860
12
53.74320
22
318.64609
32
41.79860
13
53.74320
23
342.30289
33
41.79860
0
3DFACE
8
layer1
62
1
10
-69.54580
20
342.30289
30
41.79860
11
53.74320
21
342.30289
31
41.79860
12
53.74320
22
342.30289
32
15.26630
13
-69.54580
23
342.30289
33
15.26630
0
3DFACE
8
layer1
62
1
10
53.74320
20
318.64609
30
41.79860
11
-69.54580
21
318.64609
31
41.79860
12
-69.54580
22
318.64609
32
15.26630
13
53.74320
23
318.64609
33
15.26630
0
3DFACE
8
layer1
62
1
10
149.15320
20
420.03409
30
15.26630
11
166.42551
21
404.81830
31
15.26630
12
53.46660
22
318.54349
32
15.26630
13
42.97280
23
339.03101
33
15.26630
0
3DFACE
8
layer1
62
1
10
42.97280
20
339.03101
30
41.79860
11
53.46660
21
318.54349
31
41.79860
12
166.42551
22
404.81830
32
41.79860
13
149.15320
23
420.03409
33
41.79860
0
3DFACE
8
layer1
62
1
10
42.97280
20
339.03101
30
41.79860
11
149.15320
21
420.03409
31
41.79860
12
149.15320
22
420.03409
32
15.26630
13
42.97280
23
339.03101
33
15.26630
0
3DFACE
8
layer1
62
1
10
166.42551
20
404.81830
30
41.79860
11
53.46660
21
318.54349
31
41.79860
12
53.46660
22
318.54349
32
15.26630
13
166.42551
23
404.81830
33
15.26630
0
3DFACE
8
layer1
62
1
10
-172.20210
20
406.92630
30
41.79860
11
-182.69640
21
386.43900
31
41.79860
12
-68.98550
22
318.54349
32
41.79860
13
-58.49160
23
339.03101
33
41.79860
0
3DFACE
8
layer1
62
1
10
-58.49160
20
339.03101
30
15.26630
11
-68.98550
21
318.54349
31
15.26630
12
-182.69640
22
386.43900
32
15.26630
13
-172.20210
23
406.92630
33
15.26630
0
3DFACE
8
layer1
62
1
10
-58.49160
20
339.03101
30
15.26630
11
-172.20210
21
406.92630
31
15.26630
12
-172.20210
22
406.92630
32
41.79860
13
-58.49160
23
339.03101
33
41.79860
0
3DFACE
8
layer1
62
1
10
-182.69640
20
386.43900
30
15.26630
11
-68.98550
21
318.54349
31
15.26630
12
-68.98550
22
318.54349
32
41.79860
13
-182.69640
23
386.43900
33
41.79860
0
3DFACE
8
layer1
62
1
10
-158.70490
20
399.47781
30
-13.51090
11
-199.56100
21
450.29651
31
-13.51090
12
-223.57480
22
433.48190
32
-13.51090
13
-182.71870
23
382.66321
33
-13.51090
0
3DFACE
8
layer1
62
1
10
-199.56100
20
450.29651
30
-42.82630
11
-158.70490
21
399.47781
31
-42.82630
12
-182.71870
22
382.66321
32
-42.82630
13
-223.57480
23
433.48190
33
-42.82630
0
3DFACE
8
layer1
62
1
10
-158.70490
20
399.47781
30
-42.82630
11
-158.70490
21
399.47781
31
-13.51090
12
-182.71870
22
382.66321
32
-13.51090
13
-182.71870
23
382.66321
33
-42.82630
0
3DFACE
8
layer1
62
1
10
-158.70490
20
399.47781
30
-42.82630
11
-199.56100
21
450.29651
31
-42.82630
12
-199.56100
22
450.29651
32
-13.51090
13
-158.70490
23
399.47781
33
-13.51090
0
3DFACE
8
layer1
62
1
10
-182.71870
20
382.66321
30
-13.51090
11
-223.57480
21
433.48190
31
-13.51090
12
-223.57480
22
433.48190
32
-42.82630
13
-182.71870
23
382.66321
33
-42.82630
0
3DFACE
8
layer1
62
1
10
-158.70490
20
399.47781
30
13.51090
11
-182.71870
21
382.66321
31
13.51090
12
-223.57480
22
433.48190
32
13.51090
13
-199.56100
23
450.29651
33
13.51090
0
3DFACE
8
layer1
62
1
10
-199.56100
20
450.29651
30
42.82630
11
-223.57480
21
433.48190
31
42.82630
12
-182.71870
22
382.66321
32
42.82630
13
-158.70490
23
399.47781
33
42.82630
0
3DFACE
8
layer1
62
1
10
-158.70490
20
399.47781
30
42.82630
11
-182.71870
21
382.66321
31
42.82630
12
-182.71870
22
382.66321
32
13.51090
13
-158.70490
23
399.47781
33
13.51090
0
3DFACE
8
layer1
62
1
10
-158.70490
20
399.47781
30
42.82630
11
-158.70490
21
399.47781
31
13.51090
12
-199.56100
22
450.29651
32
13.51090
13
-199.56100
23
450.29651
33
42.82630
0
3DFACE
8
layer1
62
1
10
-182.71870
20
382.66321
30
13.51090
11
-182.71870
21
382.66321
31
42.82630
12
-223.57480
22
433.48190
32
42.82630
13
-223.57480
23
433.48190
33
13.51090
0
3DFACE
8
layer1
62
1
10
135.97009
20
405.12909
30
-42.82630
11
155.35820
21
467.38541
31
-42.82630
12
183.86360
22
460.54190
32
-42.82630
13
164.47549
23
398.28561
33
-42.82630
0
3DFACE
8
layer1
62
1
10
155.35820
20
467.38541
30
-13.51090
11
135.97009
21
405.12909
31
-13.51090
12
164.47549
22
398.28561
32
-13.51090
13
183.86360
23
460.54190
33
-13.51090
0
3DFACE
8
layer1
62
1
10
135.97009
20
405.12909
30
-13.51090
11
135.97009
21
405.12909
31
-42.82630
12
164.47549
22
398.28561
32
-42.82630
13
164.47549
23
398.28561
33
-13.51090
0
3DFACE
8
layer1
62
1
10
135.97009
20
405.12909
30
-13.51090
11
155.35820
21
467.38541
31
-13.51090
12
155.35820
22
467.38541
32
-42.82630
13
135.97009
23
405.12909
33
-42.82630
0
3DFACE
8
layer1
62
1
10
164.47549
20
398.28561
30
-42.82630
11
183.86360
21
460.54190
31
-42.82630
12
183.86360
22
460.54190
32
-13.51090
13
164.47549
23
398.28561
33
-13.51090
0
3DFACE
8
layer1
62
1
10
135.97009
20
405.12909
30
42.82630
11
164.47549
21
398.28561
31
42.82630
12
183.86360
22
460.54190
32
42.82630
13
155.35820
23
467.38541
33
42.82630
0
3DFACE
8
layer1
62
1
10
155.35820
20
467.38541
30
13.51090
11
183.86360
21
460.54190
31
13.51090
12
164.47549
22
398.28561
32
13.51090
13
135.97009
23
405.12909
33
13.51090
0
3DFACE
8
layer1
62
1
10
135.97009
20
405.12909
30
13.51090
11
164.47549
21
398.28561
31
13.51090
12
164.47549
22
398.28561
32
42.82630
13
135.97009
23
405.12909
33
42.82630
0
3DFACE
8
layer1
62
1
10
135.97009
20
405.12909
30
13.51090
11
135.97009
21
405.12909
31
42.82630
12
155.35820
22
467.38541
32
42.82630
13
155.35820
23
467.38541
33
13.51090
0
3DFACE
8
layer1
62
1
10
164.47549
20
398.28561
30
42.82630
11
164.47549
21
398.28561
31
13.51090
12
183.86360
22
460.54190
32
13.51090
13
183.86360
23
460.54190
33
42.82630
0
3DFACE
8
layer1
62
1
10
37.24940
20
377.57239
30
124.16320
11
-37.24940
21
377.57239
31
124.16320
12
-37.24940
22
303.07361
32
147.51280
13
37.24940
23
303.07361
33
147.51280
0
3DFACE
8
layer1
62
1
10
37.24940
20
377.57239
30
-124.16320
11
37.24940
21
303.07361
31
-147.51280
12
-37.24940
22
303.07361
32
-147.51280
13
-37.24940
23
377.57239
33
-124.16320
0
3DFACE
8
layer1
62
1
10
-148.12849
20
292.12561
30
-98.11930
11
-153.16901
21
292.12561
31
-98.11930
12
-153.16901
22
308.81119
32
-98.11930
13
-148.12849
23
308.81119
33
-98.11930
0
3DFACE
8
layer1
62
1
10
-148.12849
20
292.12561
30
98.11930
11
-148.12849
21
308.81119
31
98.11930
12
-153.16901
22
308.81119
32
98.11930
13
-153.16901
23
292.12561
33
98.11930
0
3DFACE
8
layer1
62
1
10
148.12849
20
292.12561
30
-98.11930
11
148.12849
21
308.81119
31
-98.11930
12
153.16901
22
308.81119
32
-98.11930
13
153.16901
23
292.12561
33
-98.11930
0
3DFACE
8
layer1
62
1
10
148.12849
20
292.12561
30
98.11930
11
153.16901
21
292.12561
31
98.11930
12
153.16901
22
308.81119
32
98.11930
13
148.12849
23
308.81119
33
98.11930
0
3DFACE
8
layer1
62
1
10
-128.14011
20
292.12561
30
-98.11930
11
-133.18060
21
292.12561
31
-98.11930
12
-133.18060
22
308.81119
32
-98.11930
13
-128.14011
23
308.81119
33
-98.11930
0
3DFACE
8
layer1
62
1
10
-128.14011
20
292.12561
30
98.11930
11
-128.14011
21
308.81119
31
98.11930
12
-133.18060
22
308.81119
32
98.11930
13
-133.18060
23
292.12561
33
98.11930
0
3DFACE
8
layer1
62
1
10
128.14011
20
292.12561
30
-98.11930
11
128.14011
21
308.81119
31
-98.11930
12
133.18060
22
308.81119
32
-98.11930
13
133.18060
23
292.12561
33
-98.11930
0
3DFACE
8
layer1
62
1
10
128.14011
20
292.12561
30
98.11930
11
133.18060
21
292.12561
31
98.11930
12
133.18060
22
308.81119
32
98.11930
13
128.14011
23
308.81119
33
98.11930
0
3DFACE
8
layer1
62
1
10
13.06910
20
553.70532
30
-94.21440
11
-13.06910
21
553.70532
31
-94.21440
12
-17.89400
22
561.88171
32
-94.21440
13
17.89400
23
561.88171
33
-94.21440
0
3DFACE
8
layer1
62
1
10
13.06910
20
553.70532
30
94.21440
11
17.89400
21
561.88171
31
94.21440
12
-17.89400
22
561.88171
32
94.21440
13
-13.06910
23
553.70532
33
94.21440
0
3DFACE
8
layer1
62
1
10
50.49510
20
385.14529
30
121.55150
11
-50.49510
21
385.14529
31
121.55150
12
-50.49510
22
274.71509
32
156.03490
13
50.49510
23
274.71509
33
156.03490
0
3DFACE
8
layer1
62
1
10
-50.49510
20
385.14529
30
121.55150
11
-50.49510
21
385.14529
31
80.43860
12
-50.49510
22
274.71509
32
80.43860
13
-50.49510
23
274.71509
33
156.03490
0
3DFACE
8
layer1
62
1
10
-50.49510
20
385.14529
30
80.43860
11
50.49510
21
385.14529
31
80.43860
12
50.49510
22
274.71509
32
80.43860
13
-50.49510
23
274.71509
33
80.43860
0
3DFACE
8
layer1
62
1
10
50.49510
20
385.14529
30
80.43860
11
50.49510
21
385.14529
31
121.55150
12
50.49510
22
274.71509
32
156.03490
13
50.49510
23
274.71509
33
80.43860
0
3DFACE
8
layer1
62
1
10
-30.36060
20
442.72949
30
80.43860
11
30.36060
21
442.72949
31
80.43860
12
50.49510
22
385.14529
32
80.43860
13
-50.49510
23
385.14529
33
80.43860
0
3DFACE
8
layer1
62
1
10
-30.36060
20
442.72949
30
96.73970
11
-30.36060
21
442.72949
31
80.43860
12
-50.49510
22
385.14529
32
80.43860
13
-50.49510
23
385.14529
33
121.55150
0
3DFACE
8
layer1
62
1
10
30.36060
20
442.72949
30
96.73970
11
-30.36060
21
442.72949
31
96.73970
12
-50.49510
22
385.14529
32
121.55150
13
50.49510
23
385.14529
33
121.55150
0
3DFACE
8
layer1
62
1
10
30.36060
20
442.72949
30
80.43860
11
30.36060
21
442.72949
31
96.73970
12
50.49510
22
385.14529
32
121.55150
13
50.49510
23
385.14529
33
80.43860
0
3DFACE
8
layer1
62
1
10
30.36060
20
442.72949
30
80.43860
11
-30.36060
21
442.72949
31
80.43860
12
-30.36060
22
442.72949
32
96.73970
13
30.36060
23
442.72949
33
96.73970
0
3DFACE
8
layer1
62
1
10
50.49510
20
385.14529
30
-121.55150
11
50.49510
21
274.71509
31
-156.03490
12
-50.49510
22
274.71509
32
-156.03490
13
-50.49510
23
385.14529
33
-121.55150
0
3DFACE
8
layer1
62
1
10
-50.49510
20
385.14529
30
-121.55150
11
-50.49510
21
274.71509
31
-156.03490
12
-50.49510
22
274.71509
32
-80.43860
13
-50.49510
23
385.14529
33
-80.43860
0
3DFACE
8
layer1
62
1
10
-50.49510
20
385.14529
30
-80.43860
11
-50.49510
21
274.71509
31
-80.43860
12
50.49510
22
274.71509
32
-80.43860
13
50.49510
23
385.14529
33
-80.43860
0
3DFACE
8
layer1
62
1
10
50.49510
20
385.14529
30
-80.43860
11
50.49510
21
274.71509
31
-80.43860
12
50.49510
22
274.71509
32
-156.03490
13
50.49510
23
385.14529
33
-121.55150
0
3DFACE
8
layer1
62
1
10
-30.36060
20
442.72949
30
-80.43860
11
-50.49510
21
385.14529
31
-80.43860
12
50.49510
22
385.14529
32
-80.43860
13
30.36060
23
442.72949
33
-80.43860
0
3DFACE
8
layer1
62
1
10
-30.36060
20
442.72949
30
-96.73970
11
-50.49510
21
385.14529
31
-121.55150
12
-50.49510
22
385.14529
32
-80.43860
13
-30.36060
23
442.72949
33
-80.43860
0
3DFACE
8
layer1
62
1
10
30.36060
20
442.72949
30
-96.73970
11
50.49510
21
385.14529
31
-121.55150
12
-50.49510
22
385.14529
32
-121.55150
13
-30.36060
23
442.72949
33
-96.73970
0
3DFACE
8
layer1
62
1
10
30.36060
20
442.72949
30
-80.43860
11
50.49510
21
385.14529
31
-80.43860
12
50.49510
22
385.14529
32
-121.55150
13
30.36060
23
442.72949
33
-96.73970
0
3DFACE
8
layer1
62
1
10
30.36060
20
442.72949
30
-80.43860
11
30.36060
21
442.72949
31
-96.73970
12
-30.36060
22
442.72949
32
-96.73970
13
-30.36060
23
442.72949
33
-80.43860
0
3DFACE
8
layer1
62
1
10
0.00000
20
364.71991
30
116.05960
11
-98.10300
21
364.71991
31
59.41980
12
-98.10300
22
254.24361
32
59.41980
13
0.00000
23
254.24361
33
116.05960
0
3DFACE
8
layer1
62
1
10
-98.10300
20
364.71991
30
59.41980
11
-98.10300
21
364.71991
31
-53.85980
12
-98.10300
22
254.24361
32
-53.85980
13
-98.10300
23
254.24361
33
59.41980
0
3DFACE
8
layer1
62
1
10
-98.10300
20
364.71991
30
-53.85980
11
0.00000
21
364.71991
31
-110.49960
12
0.00000
22
254.24361
32
-110.49960
13
-98.10300
23
254.24361
33
-53.85980
0
3DFACE
8
layer1
62
1
10
0.00000
20
364.71991
30
-110.49960
11
98.10300
21
364.71991
31
-53.85980
12
98.10300
22
254.24361
32
-53.85980
13
0.00000
23
254.24361
33
-110.49960
0
3DFACE
8
layer1
62
1
10
98.10300
20
364.71991
30
-53.85980
11
98.10300
21
364.71991
31
59.41980
12
98.10300
22
254.24361
32
59.41980
13
98.10300
23
254.24361
33
-53.85980
0
3DFACE
8
layer1
62
1
10
98.10300
20
364.71991
30
59.41980
11
0.00000
21
364.71991
31
116.05960
12
0.00000
22
254.24361
32
116.05960
13
98.10300
23
254.24361
33
59.41980
0
3DFACE
8
layer1
62
1
10
0.00000
20
364.71991
30
2.78000
11
-98.10300
21
364.71991
31
59.41980
12
0.00000
22
364.71991
32
116.05960
0
3DFACE
8
layer1
62
1
10
0.00000
20
364.71991
30
2.78000
11
-98.10300
21
364.71991
31
-53.85980
12
-98.10300
22
364.71991
32
59.41980
0
3DFACE
8
layer1
62
1
10
0.00000
20
364.71991
30
2.78000
11
0.00000
21
364.71991
31
-110.49960
12
-98.10300
22
364.71991
32
-53.85980
0
3DFACE
8
layer1
62
1
10
0.00000
20
364.71991
30
2.78000
11
98.10300
21
364.71991
31
-53.85980
12
0.00000
22
364.71991
32
-110.49960
0
3DFACE
8
layer1
62
1
10
0.00000
20
364.71991
30
2.78000
11
98.10300
21
364.71991
31
59.41980
12
98.10300
22
364.71991
32
-53.85980
0
3DFACE
8
layer1
62
1
10
0.00000
20
364.71991
30
2.78000
11
0.00000
21
364.71991
31
116.05960
12
98.10300
22
364.71991
32
59.41980
0
3DFACE
8
layer1
62
1
10
0.00000
20
277.40280
30
0.00000
11
-168.11890
21
277.40280
31
97.06350
12
0.00000
22
277.40280
32
194.12700
0
3DFACE
8
layer1
62
1
10
0.00000
20
277.40280
30
0.00000
11
-168.11890
21
277.40280
31
-97.06350
12
-168.11890
22
277.40280
32
97.06350
0
3DFACE
8
layer1
62
1
10
0.00000
20
277.40280
30
0.00000
11
0.00000
21
277.40280
31
-194.12700
12
-168.11890
22
277.40280
32
-97.06350
0
3DFACE
8
layer1
62
1
10
0.00000
20
277.40280
30
0.00000
11
168.11890
21
277.40280
31
-97.06350
12
0.00000
22
277.40280
32
-194.12700
0
3DFACE
8
layer1
62
1
10
0.00000
20
277.40280
30
0.00000
11
168.11890
21
277.40280
31
97.06350
12
168.11890
22
277.40280
32
-97.06350
0
3DFACE
8
layer1
62
1
10
0.00000
20
277.40280
30
0.00000
11
0.00000
21
277.40280
31
194.12700
12
168.11890
22
277.40280
32
97.06350
0
3DFACE
8
layer1
62
1
10
-90.49080
20
344.03671
30
-81.97270
11
-163.51810
21
344.03671
31
-81.97270
12
-163.51810
22
274.90741
32
-81.97270
13
-90.49080
23
274.90741
33
-81.97270
0
3DFACE
8
layer1
62
1
10
-163.51810
20
344.03671
30
-81.97270
11
-163.51810
21
344.03671
31
-97.88970
12
-163.51810
22
274.90741
32
-97.88970
13
-163.51810
23
274.90741
33
-81.97270
0
3DFACE
8
layer1
62
1
10
-163.51810
20
344.03671
30
-97.88970
11
-90.49080
21
344.03671
31
-97.88970
12
-90.49080
22
274.90741
32
-97.88970
13
-163.51810
23
274.90741
33
-97.88970
0
3DFACE
8
layer1
62
1
10
-90.49080
20
344.03671
30
-97.88970
11
-90.49080
21
344.03671
31
-81.97270
12
-90.49080
22
274.90741
32
-81.97270
13
-90.49080
23
274.90741
33
-97.88970
0
3DFACE
8
layer1
62
1
10
-90.49080
20
344.03671
30
-97.88970
11
-163.51810
21
344.03671
31
-97.88970
12
-163.51810
22
344.03671
32
-81.97270
13
-90.49080
23
344.03671
33
-81.97270
0
3DFACE
8
layer1
62
1
10
-90.49080
20
344.03671
30
81.97270
11
-90.49080
21
274.90741
31
81.97270
12
-163.51810
22
274.90741
32
81.97270
13
-163.51810
23
344.03671
33
81.97270
0
3DFACE
8
layer1
62
1
10
-163.51810
20
344.03671
30
81.97270
11
-163.51810
21
274.90741
31
81.97270
12
-163.51810
22
274.90741
32
97.88970
13
-163.51810
23
344.03671
33
97.88970
0
3DFACE
8
layer1
62
1
10
-163.51810
20
344.03671
30
97.88970
11
-163.51810
21
274.90741
31
97.88970
12
-90.49080
22
274.90741
32
97.88970
13
-90.49080
23
344.03671
33
97.88970
0
3DFACE
8
layer1
62
1
10
-90.49080
20
344.03671
30
97.88970
11
-90.49080
21
274.90741
31
97.88970
12
-90.49080
22
274.90741
32
81.97270
13
-90.49080
23
344.03671
33
81.97270
0
3DFACE
8
layer1
62
1
10
-90.49080
20
344.03671
30
97.88970
11
-90.49080
21
344.03671
31
81.97270
12
-163.51810
22
344.03671
32
81.97270
13
-163.51810
23
344.03671
33
97.88970
0
3DFACE
8
layer1
62
1
10
90.49080
20
344.03671
30
-81.97270
11
90.49080
21
274.90741
31
-81.97270
12
163.51810
22
274.90741
32
-81.97270
13
163.51810
23
344.03671
33
-81.97270
0
3DFACE
8
layer1
62
1
10
163.51810
20
344.03671
30
-81.97270
11
163.51810
21
274.90741
31
-81.97270
12
163.51810
22
274.90741
32
-97.88970
13
163.51810
23
344.03671
33
-97.88970
0
3DFACE
8
layer1
62
1
10
163.51810
20
344.03671
30
-97.88970
11
163.51810
21
274.90741
31
-97.88970
12
90.49080
22
274.90741
32
-97.88970
13
90.49080
23
344.03671
33
-97.88970
0
3DFACE
8
layer1
62
1
10
90.49080
20
344.03671
30
-97.88970
11
90.49080
21
274.90741
31
-97.88970
12
90.49080
22
274.90741
32
-81.97270
13
90.49080
23
344.03671
33
-81.97270
0
3DFACE
8
layer1
62
1
10
90.49080
20
344.03671
30
-97.88970
11
90.49080
21
344.03671
31
-81.97270
12
163.51810
22
344.03671
32
-81.97270
13
163.51810
23
344.03671
33
-97.88970
0
3DFACE
8
layer1
62
1
10
90.49080
20
344.03671
30
81.97270
11
163.51810
21
344.03671
31
81.97270
12
163.51810
22
274.90741
32
81.97270
13
90.49080
23
274.90741
33
81.97270
0
3DFACE
8
layer1
62
1
10
163.51810
20
344.03671
30
81.97270
11
163.51810
21
344.03671
31
97.88970
12
163.51810
22
274.90741
32
97.88970
13
163.51810
23
274.90741
33
81.97270
0
3DFACE
8
layer1
62
1
10
163.51810
20
344.03671
30
97.88970
11
90.49080
21
344.03671
31
97.88970
12
90.49080
22
274.90741
32
97.88970
13
163.51810
23
274.90741
33
97.88970
0
3DFACE
8
layer1
62
1
10
90.49080
20
344.03671
30
97.88970
11
90.49080
21
344.03671
31
81.97270
12
90.49080
22
274.90741
32
81.97270
13
90.49080
23
274.90741
33
97.88970
0
3DFACE
8
layer1
62
1
10
90.49080
20
344.03671
30
97.88970
11
163.51810
21
344.03671
31
97.88970
12
163.51810
22
344.03671
32
81.97270
13
90.49080
23
344.03671
33
81.97270
0
3DFACE
8
layer1
62
1
10
-102.51220
20
322.76230
30
-94.04150
11
-137.13409
21
342.75119
31
-94.04150
12
-10.84220
22
561.49512
32
-94.04150
13
23.77960
23
541.50610
33
-94.04150
0
3DFACE
8
layer1
62
1
10
-137.13409
20
342.75119
30
-82.12640
11
-10.84220
21
561.49512
31
-82.12640
12
-10.84220
22
561.49512
32
-94.04150
13
-137.13409
23
342.75119
33
-94.04150
0
3DFACE
8
layer1
62
1
10
23.77960
20
541.50610
30
-82.12640
11
-102.51220
21
322.76230
31
-82.12640
12
-102.51220
22
322.76230
32
-94.04150
13
23.77960
23
541.50610
33
-94.04150
0
3DFACE
8
layer1
62
1
10
23.77960
20
541.50610
30
-82.12640
11
-10.84220
21
561.49512
31
-82.12640
12
-137.13409
22
342.75119
32
-82.12640
13
-102.51220
23
322.76230
33
-82.12640
0
3DFACE
8
layer1
62
1
10
102.51220
20
322.76230
30
-94.04150
11
-23.77960
21
541.50610
31
-94.04150
12
10.84220
22
561.49512
32
-94.04150
13
137.13409
23
342.75119
33
-94.04150
0
3DFACE
8
layer1
62
1
10
137.13409
20
342.75119
30
-82.12640
11
137.13409
21
342.75119
31
-94.04150
12
10.84220
22
561.49512
32
-94.04150
13
10.84220
23
561.49512
33
-82.12640
0
3DFACE
8
layer1
62
1
10
-23.77960
20
541.50610
30
-82.12640
11
-23.77960
21
541.50610
31
-94.04150
12
102.51220
22
322.76230
32
-94.04150
13
102.51220
23
322.76230
33
-82.12640
0
3DFACE
8
layer1
62
1
10
-23.77960
20
541.50610
30
-82.12640
11
102.51220
21
322.76230
31
-82.12640
12
137.13409
22
342.75119
32
-82.12640
13
10.84220
23
561.49512
33
-82.12640
0
3DFACE
8
layer1
62
1
10
-102.51220
20
322.76230
30
94.04150
11
23.77960
21
541.50610
31
94.04150
12
-10.84220
22
561.49512
32
94.04150
13
-137.13409
23
342.75119
33
94.04150
0
3DFACE
8
layer1
62
1
10
-137.13409
20
342.75119
30
82.12640
11
-137.13409
21
342.75119
31
94.04150
12
-10.84220
22
561.49512
32
94.04150
13
-10.84220
23
561.49512
33
82.12640
0
3DFACE
8
layer1
62
1
10
23.77960
20
541.50610
30
82.12640
11
23.77960
21
541.50610
31
94.04150
12
-102.51220
22
322.76230
32
94.04150
13
-102.51220
23
322.76230
33
82.12640
0
3DFACE
8
layer1
62
1
10
23.77960
20
541.50610
30
82.12640
11
-102.51220
21
322.76230
31
82.12640
12
-137.13409
22
342.75119
32
82.12640
13
-10.84220
23
561.49512
33
82.12640
0
3DFACE
8
layer1
62
1
10
102.51220
20
322.76230
30
94.04150
11
137.13409
21
342.75119
31
94.04150
12
10.84220
22
561.49512
32
94.04150
13
-23.77960
23
541.50610
33
94.04150
0
3DFACE
8
layer1
62
1
10
137.13409
20
342.75119
30
82.12640
11
10.84220
21
561.49512
31
82.12640
12
10.84220
22
561.49512
32
94.04150
13
137.13409
23
342.75119
33
94.04150
0
3DFACE
8
layer1
62
1
10
-23.77960
20
541.50610
30
82.12640
11
102.51220
21
322.76230
31
82.12640
12
102.51220
22
322.76230
32
94.04150
13
-23.77960
23
541.50610
33
94.04150
0
3DFACE
8
layer1
62
1
10
-23.77960
20
541.50610
30
82.12640
11
10.84220
21
561.49512
31
82.12640
12
137.13409
22
342.75119
32
82.12640
13
102.51220
23
322.76230
33
82.12640
0
3DFACE
8
layer1
62
1
10
-20.70870
20
561.95020
30
-82.02220
11
-20.70870
21
561.95020
31
-94.02480
12
-44.61920
22
502.42819
32
-94.02480
13
-44.61920
23
502.42819
33
-82.02220
0
3DFACE
8
layer1
62
1
10
-20.70870
20
561.95020
30
-94.02480
11
20.98120
21
561.95020
31
-94.02480
12
44.33120
22
502.42819
32
-94.02480
13
-44.61920
23
502.42819
33
-94.02480
0
3DFACE
8
layer1
62
1
10
20.98120
20
561.95020
30
-94.02480
11
20.98120
21
561.95020
31
-82.02220
12
44.33120
22
502.42819
32
-82.02220
13
44.33120
23
502.42819
33
-94.02480
0
3DFACE
8
layer1
62
1
10
20.98120
20
561.95020
30
-94.02480
11
-20.70870
21
561.95020
31
-94.02480
12
-20.70870
22
561.95020
32
-82.02220
13
20.98120
23
561.95020
33
-82.02220
0
3DFACE
8
layer1
62
1
10
-20.70870
20
561.95020
30
82.02220
11
-44.61920
21
502.42819
31
82.02220
12
-44.61920
22
502.42819
32
94.02480
13
-20.70870
23
561.95020
33
94.02480
0
3DFACE
8
layer1
62
1
10
-20.70870
20
561.95020
30
94.02480
11
-44.61920
21
502.42819
31
94.02480
12
44.33120
22
502.42819
32
94.02480
13
20.98120
23
561.95020
33
94.02480
0
3DFACE
8
layer1
62
1
10
20.98120
20
561.95020
30
94.02480
11
44.33120
21
502.42819
31
94.02480
12
44.33120
22
502.42819
32
82.02220
13
20.98120
23
561.95020
33
82.02220
0
3DFACE
8
layer1
62
1
10
20.98120
20
561.95020
30
94.02480
11
20.98120
21
561.95020
31
82.02220
12
-20.70870
22
561.95020
32
82.02220
13
-20.70870
23
561.95020
33
94.02480
0
3DFACE
8
layer1
62
1
10
0.00000
20
275.39291
30
199.02901
11
-172.36420
21
275.39291
31
99.51450
12
-172.36420
22
247.50400
32
99.51450
13
0.00000
23
247.50400
33
199.02901
0
3DFACE
8
layer1
62
1
10
-172.36420
20
275.39291
30
99.51450
11
-172.36420
21
275.39291
31
-99.51450
12
-172.36420
22
247.50400
32
-99.51450
13
-172.36420
23
247.50400
33
99.51450
0
3DFACE
8
layer1
62
1
10
-172.36420
20
275.39291
30
-99.51450
11
0.00000
21
275.39291
31
-199.02901
12
0.00000
22
247.50400
32
-199.02901
13
-172.36420
23
247.50400
33
-99.51450
0
3DFACE
8
layer1
62
1
10
0.00000
20
275.39291
30
-199.02901
11
172.36420
21
275.39291
31
-99.51450
12
172.36420
22
247.50400
32
-99.51450
13
0.00000
23
247.50400
33
-199.02901
0
3DFACE
8
layer1
62
1
10
172.36420
20
275.39291
30
-99.51450
11
172.36420
21
275.39291
31
99.51450
12
172.36420
22
247.50400
32
99.51450
13
172.36420
23
247.50400
33
-99.51450
0
3DFACE
8
layer1
62
1
10
172.36420
20
275.39291
30
99.51450
11
0.00000
21
275.39291
31
199.02901
12
0.00000
22
247.50400
32
199.02901
13
172.36420
23
247.50400
33
99.51450
0
3DFACE
8
layer1
62
1
10
0.00000
20
275.39291
30
0.00000
11
-172.36420
21
275.39291
31
99.51450
12
0.00000
22
275.39291
32
199.02901
0
3DFACE
8
layer1
62
1
10
0.00000
20
275.39291
30
0.00000
11
-172.36420
21
275.39291
31
-99.51450
12
-172.36420
22
275.39291
32
99.51450
0
3DFACE
8
layer1
62
1
10
0.00000
20
275.39291
30
0.00000
11
0.00000
21
275.39291
31
-199.02901
12
-172.36420
22
275.39291
32
-99.51450
0
3DFACE
8
layer1
62
1
10
0.00000
20
275.39291
30
0.00000
11
172.36420
21
275.39291
31
-99.51450
12
0.00000
22
275.39291
32
-199.02901
0
3DFACE
8
layer1
62
1
10
0.00000
20
275.39291
30
0.00000
11
172.36420
21
275.39291
31
99.51450
12
172.36420
22
275.39291
32
-99.51450
0
3DFACE
8
layer1
62
1
10
0.00000
20
275.39291
30
0.00000
11
0.00000
21
275.39291
31
199.02901
12
172.36420
22
275.39291
32
99.51450
0
3DFACE
8
layer1
62
1
10
-160.22099
20
254.05560
30
160.22099
11
-226.58659
21
254.05560
31
0.00000
12
-226.58659
22
-0.04240
32
0.00000
13
-160.22099
23
-0.04240
33
160.22099
0
3DFACE
8
layer1
62
1
10
-160.22099
20
254.05560
30
-160.22099
11
0.00000
21
254.05560
31
-226.58659
12
0.00000
22
-0.04240
32
-226.58659
13
-160.22099
23
-0.04240
33
-160.22099
0
3DFACE
8
layer1
62
1
10
160.22099
20
254.05560
30
-160.22090
11
226.58659
21
254.05560
31
0.00000
12
226.58659
22
-0.04240
32
0.00000
13
160.22099
23
-0.04240
33
-160.22090
0
3DFACE
8
layer1
62
1
10
160.22099
20
254.05560
30
160.22090
11
0.00000
21
254.05560
31
226.58659
12
0.00000
22
-0.04240
32
226.58659
13
160.22099
23
-0.04240
33
160.22090
0
3DFACE
8
layer1
62
1
10
0.00000
20
254.05560
30
0.00000
11
-160.22099
21
254.05560
31
160.22099
12
0.00000
22
254.05560
32
226.58659
0
3DFACE
8
layer1
62
1
10
0.00000
20
254.05560
30
0.00000
11
-226.58659
21
254.05560
31
0.00000
12
-160.22099
22
254.05560
32
160.22099
0
3DFACE
8
layer1
62
1
10
0.00000
20
254.05560
30
0.00000
11
-160.22099
21
254.05560
31
-160.22099
12
-226.58659
22
254.05560
32
0.00000
0
3DFACE
8
layer1
62
1
10
0.00000
20
254.05560
30
0.00000
11
0.00000
21
254.05560
31
-226.58659
12
-160.22099
22
254.05560
32
-160.22099
0
3DFACE
8
layer1
62
1
10
0.00000
20
254.05560
30
0.00000
11
160.22099
21
254.05560
31
-160.22090
12
0.00000
22
254.05560
32
-226.58659
0
3DFACE
8
layer1
62
1
10
0.00000
20
254.05560
30
0.00000
11
226.58659
21
254.05560
31
0.00000
12
160.22099
22
254.05560
32
-160.22090
0
3DFACE
8
layer1
62
1
10
0.00000
20
254.05560
30
0.00000
11
160.22099
21
254.05560
31
160.22090
12
226.58659
22
254.05560
32
0.00000
0
3DFACE
8
layer1
62
1
10
0.00000
20
254.05560
30
0.00000
11
0.00000
21
254.05560
31
226.58659
12
160.22099
22
254.05560
32
160.22090
0
3DFACE
8
layer1
62
1
10
0.00000
20
253.71449
30
226.58659
11
-160.22099
21
253.71449
31
160.22099
12
-160.22099
22
0.11130
32
160.22099
13
0.00000
23
0.11130
33
226.58659
0
3DFACE
8
layer1
62
1
10
-226.58659
20
253.71449
30
0.00000
11
-160.22099
21
253.71449
31
-160.22099
12
-160.22099
22
0.11130
32
-160.22099
13
-226.58659
23
0.11130
33
0.00000
0
3DFACE
8
layer1
62
1
10
0.00000
20
253.71449
30
-226.58659
11
160.22099
21
253.71449
31
-160.22090
12
160.22099
22
0.11130
32
-160.22090
13
0.00000
23
0.11130
33
-226.58659
0
3DFACE
8
layer1
62
1
10
226.58659
20
253.71449
30
0.00000
11
160.22099
21
253.71449
31
160.22090
12
160.22099
22
0.11130
32
160.22090
13
226.58659
23
0.11130
33
0.00000
0
ENDSEC
0
EOF
