0
SECTION
2
ENTITIES
999
Created by Metasequoia
0
3DFACE
8
layer1
62
1
10
-274.76990
20
624.19696
30
-460.49908
11
-294.81750
21
623.33264
31
-460.36215
12
-281.69327
22
326.43689
32
-413.33856
13
-261.64554
23
327.30133
33
-413.47552
0
3DFACE
8
layer1
62
1
10
-294.81750
20
623.33264
30
-460.36215
11
-294.81750
21
620.19342
31
-480.18192
12
-281.69327
22
323.29773
32
-433.15820
13
-281.69327
23
326.43689
33
-413.33856
0
3DFACE
8
layer1
62
1
10
-294.81750
20
620.19342
30
-480.18192
11
-274.76990
21
621.05786
31
-480.31876
12
-261.64554
22
324.16241
32
-433.29517
13
-281.69327
23
323.29773
33
-433.15820
0
3DFACE
8
layer1
62
1
10
-274.76990
20
621.05786
30
-480.31876
11
-274.76990
21
624.19696
31
-460.49908
12
-261.64554
22
327.30133
32
-413.47552
13
-261.64554
23
324.16241
33
-433.29517
0
3DFACE
8
layer1
62
1
10
274.76990
20
624.19696
30
-460.49908
11
261.64554
21
327.30133
31
-413.47552
12
281.69327
22
326.43689
32
-413.33856
13
294.81750
23
623.33264
33
-460.36215
0
3DFACE
8
layer1
62
1
10
294.81750
20
623.33264
30
-460.36215
11
281.69327
21
326.43689
31
-413.33856
12
281.69327
22
323.29773
32
-433.15820
13
294.81750
23
620.19342
33
-480.18192
0
3DFACE
8
layer1
62
1
10
294.81750
20
620.19342
30
-480.18192
11
281.69327
21
323.29773
31
-433.15820
12
261.64554
22
324.16241
32
-433.29517
13
274.76990
23
621.05786
33
-480.31876
0
3DFACE
8
layer1
62
1
10
274.76990
20
621.05786
30
-480.31876
11
261.64554
21
324.16241
31
-433.29517
12
261.64554
22
327.30133
32
-413.47552
13
274.76990
23
624.19696
33
-460.49908
0
3DFACE
8
layer1
62
1
10
-274.76990
20
624.19696
30
455.30530
11
-261.64554
21
327.30133
31
408.28174
12
-281.69327
22
326.43689
32
408.14478
13
-294.81750
23
623.33264
33
455.16837
0
3DFACE
8
layer1
62
1
10
-294.81750
20
623.33264
30
455.16837
11
-281.69327
21
326.43689
31
408.14478
12
-281.69327
22
323.29773
32
427.96442
13
-294.81750
23
620.19342
33
474.98813
0
3DFACE
8
layer1
62
1
10
-294.81750
20
620.19342
30
474.98813
11
-281.69327
21
323.29773
31
427.96442
12
-261.64554
22
324.16241
32
428.10138
13
-274.76990
23
621.05786
33
475.12497
0
3DFACE
8
layer1
62
1
10
-274.76990
20
621.05786
30
475.12497
11
-261.64554
21
324.16241
31
428.10138
12
-261.64554
22
327.30133
32
408.28174
13
-274.76990
23
624.19696
33
455.30530
0
3DFACE
8
layer1
62
1
10
274.76990
20
624.19696
30
455.30530
11
294.81750
21
623.33264
31
455.16837
12
281.69327
22
326.43689
32
408.14478
13
261.64554
23
327.30133
33
408.28174
0
3DFACE
8
layer1
62
1
10
294.81750
20
623.33264
30
455.16837
11
294.81750
21
620.19342
31
474.98813
12
281.69327
22
323.29773
32
427.96442
13
281.69327
23
326.43689
33
408.14478
0
3DFACE
8
layer1
62
1
10
294.81750
20
620.19342
30
474.98813
11
274.76990
21
621.05786
31
475.12497
12
261.64554
22
324.16241
32
428.10138
13
281.69327
23
323.29773
33
427.96442
0
3DFACE
8
layer1
62
1
10
274.76990
20
621.05786
30
475.12497
11
274.76990
21
624.19696
31
455.30530
12
261.64554
22
327.30133
32
408.28174
13
261.64554
23
324.16241
33
428.10138
0
3DFACE
8
layer1
62
1
10
-147.92421
20
780.22437
30
-485.21136
11
-163.84422
21
792.28925
31
-487.12238
12
-294.97916
22
623.49548
32
-460.38806
13
-279.05914
23
611.43011
33
-458.47705
0
3DFACE
8
layer1
62
1
10
-163.84422
20
792.28925
30
-487.12238
11
-163.84422
21
789.15002
31
-506.94196
12
-294.97916
22
620.35632
32
-480.20764
13
-294.97916
23
623.49548
33
-460.38806
0
3DFACE
8
layer1
62
1
10
-163.84422
20
789.15002
30
-506.94196
11
-147.92421
21
777.08521
31
-505.03110
12
-279.05914
22
608.29102
32
-478.29675
13
-294.97916
23
620.35632
33
-480.20764
0
3DFACE
8
layer1
62
1
10
-147.92421
20
777.08521
30
-505.03110
11
-147.92421
21
780.22437
31
-485.21136
12
-279.05914
22
611.43011
32
-458.47705
13
-279.05914
23
608.29102
33
-478.29675
0
3DFACE
8
layer1
62
1
10
147.92421
20
780.22437
30
-485.21136
11
279.05914
21
611.43011
31
-458.47705
12
294.97916
22
623.49548
32
-460.38806
13
163.84422
23
792.28925
33
-487.12238
0
3DFACE
8
layer1
62
1
10
163.84422
20
792.28925
30
-487.12238
11
294.97916
21
623.49548
31
-460.38806
12
294.97916
22
620.35632
32
-480.20764
13
163.84422
23
789.15002
33
-506.94196
0
3DFACE
8
layer1
62
1
10
163.84422
20
789.15002
30
-506.94196
11
294.97916
21
620.35632
31
-480.20764
12
279.05914
22
608.29102
32
-478.29675
13
147.92421
23
777.08521
33
-505.03110
0
3DFACE
8
layer1
62
1
10
147.92421
20
777.08521
30
-505.03110
11
279.05914
21
608.29102
31
-478.29675
12
279.05914
22
611.43011
32
-458.47705
13
147.92421
23
780.22437
33
-485.21136
0
3DFACE
8
layer1
62
1
10
-147.92421
20
780.22437
30
480.01758
11
-279.05914
21
611.43011
31
453.28326
12
-294.97916
22
623.49548
32
455.19427
13
-163.84422
23
792.28925
33
481.92859
0
3DFACE
8
layer1
62
1
10
-163.84422
20
792.28925
30
481.92859
11
-294.97916
21
623.49548
31
455.19427
12
-294.97916
22
620.35632
32
475.01385
13
-163.84422
23
789.15002
33
501.74817
0
3DFACE
8
layer1
62
1
10
-163.84422
20
789.15002
30
501.74817
11
-294.97916
21
620.35632
31
475.01385
12
-279.05914
22
608.29102
32
473.10297
13
-147.92421
23
777.08521
33
499.83731
0
3DFACE
8
layer1
62
1
10
-147.92421
20
777.08521
30
499.83731
11
-279.05914
21
608.29102
31
473.10297
12
-279.05914
22
611.43011
32
453.28326
13
-147.92421
23
780.22437
33
480.01758
0
3DFACE
8
layer1
62
1
10
147.92421
20
780.22437
30
480.01758
11
163.84422
21
792.28925
31
481.92859
12
294.97916
22
623.49548
32
455.19427
13
279.05914
23
611.43011
33
453.28326
0
3DFACE
8
layer1
62
1
10
163.84422
20
792.28925
30
481.92859
11
163.84422
21
789.15002
31
501.74817
12
294.97916
22
620.35632
32
475.01385
13
294.97916
23
623.49548
33
455.19427
0
3DFACE
8
layer1
62
1
10
163.84422
20
789.15002
30
501.74817
11
147.92421
21
777.08521
31
499.83731
12
279.05914
22
608.29102
32
473.10297
13
294.97916
23
620.35632
33
475.01385
0
3DFACE
8
layer1
62
1
10
147.92421
20
777.08521
30
499.83731
11
147.92421
21
780.22437
31
480.01758
12
279.05914
22
611.43011
32
453.28326
13
279.05914
23
608.29102
33
473.10297
0
3DFACE
8
layer1
62
1
10
-163.80722
20
792.45068
30
-487.14798
11
-163.80722
21
772.63092
31
-484.00885
12
163.61453
22
772.63092
32
-484.00891
13
163.61453
23
792.45074
33
-487.14792
0
3DFACE
8
layer1
62
1
10
-163.80722
20
772.63092
30
-484.00885
11
-163.80722
21
769.49170
31
-503.82834
12
163.61453
22
769.49170
32
-503.82834
13
163.61453
23
772.63092
33
-484.00891
0
3DFACE
8
layer1
62
1
10
-163.80722
20
769.49170
30
-503.82834
11
-163.80722
21
789.31134
31
-506.96759
12
163.61453
22
789.31158
32
-506.96759
13
163.61453
23
769.49170
33
-503.82834
0
3DFACE
8
layer1
62
1
10
-163.80722
20
789.31134
30
-506.96759
11
-163.80722
21
792.45068
31
-487.14798
12
163.61453
22
792.45074
32
-487.14792
13
163.61453
23
789.31158
33
-506.96759
0
3DFACE
8
layer1
62
1
10
-163.80722
20
792.45068
30
481.95419
11
163.61453
21
792.45074
31
481.95413
12
163.61453
22
772.63092
32
478.81512
13
-163.80722
23
772.63092
33
478.81506
0
3DFACE
8
layer1
62
1
10
-163.80722
20
772.63092
30
478.81506
11
163.61453
21
772.63092
31
478.81512
12
163.61453
22
769.49170
32
498.63455
13
-163.80722
23
769.49170
33
498.63455
0
3DFACE
8
layer1
62
1
10
-163.80722
20
769.49170
30
498.63455
11
163.61453
21
769.49170
31
498.63455
12
163.61453
22
789.31158
32
501.77380
13
-163.80722
23
789.31134
33
501.77380
0
3DFACE
8
layer1
62
1
10
-163.80722
20
789.31134
30
501.77380
11
163.61453
21
789.31158
31
501.77380
12
163.61453
22
792.45074
32
481.95413
13
-163.80722
23
792.45068
33
481.95419
0
3DFACE
8
layer1
62
1
10
-274.76990
20
628.68146
30
-184.80725
11
-294.81750
21
627.80634
31
-184.80725
12
-281.69327
22
327.20953
32
-184.80725
13
-261.64554
23
328.08478
33
-184.80725
0
3DFACE
8
layer1
62
1
10
-294.81750
20
627.80634
30
-184.80725
11
-294.81750
21
627.80634
31
-204.87390
12
-281.69327
22
327.20953
32
-204.87390
13
-281.69327
23
327.20953
33
-184.80725
0
3DFACE
8
layer1
62
1
10
-294.81750
20
627.80634
30
-204.87390
11
-274.76990
21
628.68146
31
-204.87390
12
-261.64554
22
328.08478
32
-204.87390
13
-281.69327
23
327.20953
33
-204.87390
0
3DFACE
8
layer1
62
1
10
-274.76990
20
628.68146
30
-204.87390
11
-274.76990
21
628.68146
31
-184.80725
12
-261.64554
22
328.08478
32
-184.80725
13
-261.64554
23
328.08478
33
-204.87390
0
3DFACE
8
layer1
62
1
10
274.76990
20
628.68146
30
-184.80725
11
261.64554
21
328.08478
31
-184.80725
12
281.69327
22
327.20953
32
-184.80725
13
294.81750
23
627.80634
33
-184.80725
0
3DFACE
8
layer1
62
1
10
294.81750
20
627.80634
30
-184.80725
11
281.69327
21
327.20953
31
-184.80725
12
281.69327
22
327.20953
32
-204.87390
13
294.81750
23
627.80634
33
-204.87390
0
3DFACE
8
layer1
62
1
10
294.81750
20
627.80634
30
-204.87390
11
281.69327
21
327.20953
31
-204.87390
12
261.64554
22
328.08478
32
-204.87390
13
274.76990
23
628.68146
33
-204.87390
0
3DFACE
8
layer1
62
1
10
274.76990
20
628.68146
30
-204.87390
11
261.64554
21
328.08478
31
-204.87390
12
261.64554
22
328.08478
32
-184.80725
13
274.76990
23
628.68146
33
-184.80725
0
3DFACE
8
layer1
62
1
10
-147.92421
20
786.65344
30
-184.80725
11
-163.84422
21
798.86914
31
-184.80725
12
-294.97916
22
627.97095
32
-184.80725
13
-279.05914
23
615.75525
33
-184.80725
0
3DFACE
8
layer1
62
1
10
-163.84422
20
798.86914
30
-184.80725
11
-163.84422
21
798.86914
31
-204.87390
12
-294.97916
22
627.97095
32
-204.87390
13
-294.97916
23
627.97095
33
-184.80725
0
3DFACE
8
layer1
62
1
10
-163.84422
20
798.86914
30
-204.87390
11
-147.92421
21
786.65344
31
-204.87390
12
-279.05914
22
615.75525
32
-204.87390
13
-294.97916
23
627.97095
33
-204.87390
0
3DFACE
8
layer1
62
1
10
-147.92421
20
786.65344
30
-204.87390
11
-147.92421
21
786.65344
31
-184.80725
12
-279.05914
22
615.75525
32
-184.80725
13
-279.05914
23
615.75525
33
-204.87390
0
3DFACE
8
layer1
62
1
10
147.92421
20
786.65344
30
-184.80725
11
279.05914
21
615.75525
31
-184.80725
12
294.97916
22
627.97095
32
-184.80725
13
163.84422
23
798.86914
33
-184.80725
0
3DFACE
8
layer1
62
1
10
163.84422
20
798.86914
30
-184.80725
11
294.97916
21
627.97095
31
-184.80725
12
294.97916
22
627.97095
32
-204.87390
13
163.84422
23
798.86914
33
-204.87390
0
3DFACE
8
layer1
62
1
10
163.84422
20
798.86914
30
-204.87390
11
294.97916
21
627.97095
31
-204.87390
12
279.05914
22
615.75525
32
-204.87390
13
147.92421
23
786.65344
33
-204.87390
0
3DFACE
8
layer1
62
1
10
147.92421
20
786.65344
30
-204.87390
11
279.05914
21
615.75525
31
-204.87390
12
279.05914
22
615.75525
32
-184.80725
13
147.92421
23
786.65344
33
-184.80725
0
3DFACE
8
layer1
62
1
10
-163.80722
20
799.03229
30
-184.80725
11
-163.80722
21
778.96558
31
-184.80725
12
163.61453
22
778.96564
32
-184.80725
13
163.61453
23
799.03235
33
-184.80725
0
3DFACE
8
layer1
62
1
10
-163.80722
20
778.96558
30
-184.80725
11
-163.80722
21
778.96558
31
-204.87390
12
163.61453
22
778.96564
32
-204.87390
13
163.61453
23
778.96564
33
-184.80725
0
3DFACE
8
layer1
62
1
10
-163.80722
20
778.96558
30
-204.87390
11
-163.80722
21
799.03229
31
-204.87390
12
163.61453
22
799.03235
32
-204.87390
13
163.61453
23
778.96564
33
-204.87390
0
3DFACE
8
layer1
62
1
10
-163.80722
20
799.03229
30
-204.87390
11
-163.80722
21
799.03229
31
-184.80725
12
163.61453
22
799.03235
32
-184.80725
13
163.61453
23
799.03235
33
-204.87390
0
3DFACE
8
layer1
62
1
10
-274.76990
20
628.68146
30
184.80725
11
-261.64554
21
328.08478
31
184.80725
12
-281.69327
22
327.20953
32
184.80725
13
-294.81750
23
627.80634
33
184.80725
0
3DFACE
8
layer1
62
1
10
-294.81750
20
627.80634
30
184.80725
11
-281.69327
21
327.20953
31
184.80725
12
-281.69327
22
327.20953
32
204.87390
13
-294.81750
23
627.80634
33
204.87390
0
3DFACE
8
layer1
62
1
10
-294.81750
20
627.80634
30
204.87390
11
-281.69327
21
327.20953
31
204.87390
12
-261.64554
22
328.08478
32
204.87390
13
-274.76990
23
628.68146
33
204.87390
0
3DFACE
8
layer1
62
1
10
-274.76990
20
628.68146
30
204.87390
11
-261.64554
21
328.08478
31
204.87390
12
-261.64554
22
328.08478
32
184.80725
13
-274.76990
23
628.68146
33
184.80725
0
3DFACE
8
layer1
62
1
10
274.76990
20
628.68146
30
184.80725
11
294.81750
21
627.80634
31
184.80725
12
281.69327
22
327.20953
32
184.80725
13
261.64554
23
328.08478
33
184.80725
0
3DFACE
8
layer1
62
1
10
294.81750
20
627.80634
30
184.80725
11
294.81750
21
627.80634
31
204.87390
12
281.69327
22
327.20953
32
204.87390
13
281.69327
23
327.20953
33
184.80725
0
3DFACE
8
layer1
62
1
10
294.81750
20
627.80634
30
204.87390
11
274.76990
21
628.68146
31
204.87390
12
261.64554
22
328.08478
32
204.87390
13
281.69327
23
327.20953
33
204.87390
0
3DFACE
8
layer1
62
1
10
274.76990
20
628.68146
30
204.87390
11
274.76990
21
628.68146
31
184.80725
12
261.64554
22
328.08478
32
184.80725
13
261.64554
23
328.08478
33
204.87390
0
3DFACE
8
layer1
62
1
10
-147.92421
20
786.65344
30
184.80725
11
-279.05914
21
615.75525
31
184.80725
12
-294.97916
22
627.97095
32
184.80725
13
-163.84422
23
798.86914
33
184.80725
0
3DFACE
8
layer1
62
1
10
-163.84422
20
798.86914
30
184.80725
11
-294.97916
21
627.97095
31
184.80725
12
-294.97916
22
627.97095
32
204.87390
13
-163.84422
23
798.86914
33
204.87390
0
3DFACE
8
layer1
62
1
10
-163.84422
20
798.86914
30
204.87390
11
-294.97916
21
627.97095
31
204.87390
12
-279.05914
22
615.75525
32
204.87390
13
-147.92421
23
786.65344
33
204.87390
0
3DFACE
8
layer1
62
1
10
-147.92421
20
786.65344
30
204.87390
11
-279.05914
21
615.75525
31
204.87390
12
-279.05914
22
615.75525
32
184.80725
13
-147.92421
23
786.65344
33
184.80725
0
3DFACE
8
layer1
62
1
10
147.92421
20
786.65344
30
184.80725
11
163.84422
21
798.86914
31
184.80725
12
294.97916
22
627.97095
32
184.80725
13
279.05914
23
615.75525
33
184.80725
0
3DFACE
8
layer1
62
1
10
163.84422
20
798.86914
30
184.80725
11
163.84422
21
798.86914
31
204.87390
12
294.97916
22
627.97095
32
204.87390
13
294.97916
23
627.97095
33
184.80725
0
3DFACE
8
layer1
62
1
10
163.84422
20
798.86914
30
204.87390
11
147.92421
21
786.65344
31
204.87390
12
279.05914
22
615.75525
32
204.87390
13
294.97916
23
627.97095
33
204.87390
0
3DFACE
8
layer1
62
1
10
147.92421
20
786.65344
30
204.87390
11
147.92421
21
786.65344
31
184.80725
12
279.05914
22
615.75525
32
184.80725
13
279.05914
23
615.75525
33
204.87390
0
3DFACE
8
layer1
62
1
10
-163.80722
20
799.03229
30
184.80725
11
163.61453
21
799.03235
31
184.80725
12
163.61453
22
778.96564
32
184.80725
13
-163.80722
23
778.96558
33
184.80725
0
3DFACE
8
layer1
62
1
10
-163.80722
20
778.96558
30
184.80725
11
163.61453
21
778.96564
31
184.80725
12
163.61453
22
778.96564
32
204.87390
13
-163.80722
23
778.96558
33
204.87390
0
3DFACE
8
layer1
62
1
10
-163.80722
20
778.96558
30
204.87390
11
163.61453
21
778.96564
31
204.87390
12
163.61453
22
799.03235
32
204.87390
13
-163.80722
23
799.03229
33
204.87390
0
3DFACE
8
layer1
62
1
10
-163.80722
20
799.03229
30
204.87390
11
163.61453
21
799.03235
31
204.87390
12
163.61453
22
799.03235
32
184.80725
13
-163.80722
23
799.03229
33
184.80725
0
ENDSEC
0
EOF
