0
SECTION
2
ENTITIES
999
Created by Metasequoia
0
3DFACE
8
layer1
62
1
10
312.82211
20
23.09862
30
-257.72296
11
298.98193
21
-0.87320
31
-257.72296
12
298.98193
22
43.59429
32
-150.36929
13
312.82211
23
60.54482
33
-167.31955
0
3DFACE
8
layer1
62
1
10
298.98193
20
-0.87320
30
-257.72296
11
326.66223
21
-0.87320
31
-257.72296
12
326.66223
22
43.59429
32
-150.36929
13
298.98193
23
43.59429
33
-150.36929
0
3DFACE
8
layer1
62
1
10
326.66223
20
-0.87320
30
-257.72296
11
312.82211
21
23.09862
31
-257.72296
12
312.82211
22
60.54482
32
-167.31955
13
326.66223
23
43.59429
33
-150.36929
0
3DFACE
8
layer1
62
1
10
312.82211
20
60.54482
30
-167.31955
11
298.98193
21
43.59429
31
-150.36929
12
298.98193
22
150.94821
32
-105.90163
13
312.82211
23
150.94821
33
-129.87358
0
3DFACE
8
layer1
62
1
10
298.98193
20
43.59429
30
-150.36929
11
326.66223
21
43.59429
31
-150.36929
12
326.66223
22
150.94821
32
-105.90163
13
298.98193
23
150.94821
33
-105.90163
0
3DFACE
8
layer1
62
1
10
326.66223
20
43.59429
30
-150.36929
11
312.82211
21
60.54482
31
-167.31955
12
312.82211
22
150.94821
32
-129.87358
13
326.66223
23
150.94821
33
-105.90163
0
3DFACE
8
layer1
62
1
10
312.82211
20
150.94821
30
-129.87358
11
298.98193
21
150.94821
31
-105.90163
12
298.98193
22
258.30173
32
-150.36929
13
312.82211
23
241.35144
33
-167.31955
0
3DFACE
8
layer1
62
1
10
298.98193
20
150.94821
30
-105.90163
11
326.66223
21
150.94821
31
-105.90163
12
326.66223
22
258.30173
32
-150.36929
13
298.98193
23
258.30173
33
-150.36929
0
3DFACE
8
layer1
62
1
10
326.66223
20
150.94821
30
-105.90163
11
312.82211
21
150.94821
31
-129.87358
12
312.82211
22
241.35144
32
-167.31955
13
326.66223
23
258.30173
33
-150.36929
0
3DFACE
8
layer1
62
1
10
312.82211
20
241.35144
30
-167.31955
11
298.98193
21
258.30173
31
-150.36929
12
298.98193
22
302.76923
32
-257.72296
13
312.82211
23
278.79733
33
-257.72296
0
3DFACE
8
layer1
62
1
10
298.98193
20
258.30173
30
-150.36929
11
326.66223
21
258.30173
31
-150.36929
12
326.66223
22
302.76923
32
-257.72296
13
298.98193
23
302.76923
33
-257.72296
0
3DFACE
8
layer1
62
1
10
326.66223
20
258.30173
30
-150.36929
11
312.82211
21
241.35144
31
-167.31955
12
312.82211
22
278.79733
32
-257.72296
13
326.66223
23
302.76923
33
-257.72296
0
3DFACE
8
layer1
62
1
10
312.82211
20
278.79733
30
-257.72296
11
298.98193
21
302.76923
31
-257.72296
12
298.98193
22
258.30173
32
-365.07657
13
312.82211
23
241.35126
33
-348.12616
0
3DFACE
8
layer1
62
1
10
298.98193
20
302.76923
30
-257.72296
11
326.66223
21
302.76923
31
-257.72296
12
326.66223
22
258.30173
32
-365.07657
13
298.98193
23
258.30173
33
-365.07657
0
3DFACE
8
layer1
62
1
10
326.66223
20
302.76923
30
-257.72296
11
312.82211
21
278.79733
31
-257.72296
12
312.82211
22
241.35126
32
-348.12616
13
326.66223
23
258.30173
33
-365.07657
0
3DFACE
8
layer1
62
1
10
312.82211
20
241.35126
30
-348.12616
11
298.98193
21
258.30173
31
-365.07657
12
298.98193
22
150.94821
32
-409.54413
13
312.82211
23
150.94821
33
-385.57233
0
3DFACE
8
layer1
62
1
10
298.98193
20
258.30173
30
-365.07657
11
326.66223
21
258.30173
31
-365.07657
12
326.66223
22
150.94821
32
-409.54413
13
298.98193
23
150.94821
33
-409.54413
0
3DFACE
8
layer1
62
1
10
326.66223
20
258.30173
30
-365.07657
11
312.82211
21
241.35126
31
-348.12616
12
312.82211
22
150.94821
32
-385.57233
13
326.66223
23
150.94821
33
-409.54413
0
3DFACE
8
layer1
62
1
10
312.82211
20
150.94821
30
-385.57233
11
298.98193
21
150.94821
31
-409.54413
12
298.98193
22
43.59429
32
-365.07657
13
312.82211
23
60.54482
33
-348.12610
0
3DFACE
8
layer1
62
1
10
298.98193
20
150.94821
30
-409.54413
11
326.66223
21
150.94821
31
-409.54413
12
326.66223
22
43.59429
32
-365.07657
13
298.98193
23
43.59429
33
-365.07657
0
3DFACE
8
layer1
62
1
10
326.66223
20
150.94821
30
-409.54413
11
312.82211
21
150.94821
31
-385.57233
12
312.82211
22
60.54482
32
-348.12610
13
326.66223
23
43.59429
33
-365.07657
0
3DFACE
8
layer1
62
1
10
312.82211
20
60.54482
30
-348.12610
11
298.98193
21
43.59429
31
-365.07657
12
298.98193
22
-0.87320
32
-257.72296
13
312.82211
23
23.09862
33
-257.72296
0
3DFACE
8
layer1
62
1
10
298.98193
20
43.59429
30
-365.07657
11
326.66223
21
43.59429
31
-365.07657
12
326.66223
22
-0.87320
32
-257.72296
13
298.98193
23
-0.87320
33
-257.72296
0
3DFACE
8
layer1
62
1
10
326.66223
20
43.59429
30
-365.07657
11
312.82211
21
60.54482
31
-348.12610
12
312.82211
22
23.09862
32
-257.72296
13
326.66223
23
-0.87320
33
-257.72296
0
3DFACE
8
layer1
62
1
10
305.81573
20
150.94821
30
-257.72296
11
305.81573
21
123.39954
31
-230.17450
12
305.81573
22
150.94821
32
-218.76353
0
3DFACE
8
layer1
62
1
10
305.81573
20
150.94821
30
-257.72296
11
305.81573
21
111.98862
31
-257.72296
12
305.81573
22
123.39954
32
-230.17450
0
3DFACE
8
layer1
62
1
10
305.81573
20
150.94821
30
-257.72296
11
305.81573
21
123.39954
31
-285.27136
12
305.81573
22
111.98862
32
-257.72296
0
3DFACE
8
layer1
62
1
10
305.81573
20
150.94821
30
-257.72296
11
305.81573
21
150.94821
31
-296.68246
12
305.81573
22
123.39954
32
-285.27136
0
3DFACE
8
layer1
62
1
10
305.81573
20
150.94821
30
-257.72296
11
305.81573
21
178.49655
31
-285.27136
12
305.81573
22
150.94821
32
-296.68246
0
3DFACE
8
layer1
62
1
10
305.81573
20
150.94821
30
-257.72296
11
305.81573
21
189.90756
31
-257.72296
12
305.81573
22
178.49655
32
-285.27136
0
3DFACE
8
layer1
62
1
10
305.81573
20
150.94821
30
-257.72296
11
305.81573
21
178.49655
31
-230.17450
12
305.81573
22
189.90756
32
-257.72296
0
3DFACE
8
layer1
62
1
10
305.81573
20
150.94821
30
-257.72296
11
305.81573
21
150.94821
31
-218.76353
12
305.81573
22
178.49655
32
-230.17450
0
3DFACE
8
layer1
62
1
10
319.82843
20
150.94821
30
-257.72296
11
319.82843
21
150.94821
31
-218.76353
12
319.82843
22
123.39954
32
-230.17450
0
3DFACE
8
layer1
62
1
10
319.82843
20
150.94821
30
-257.72296
11
319.82843
21
123.39954
31
-230.17450
12
319.82843
22
111.98862
32
-257.72296
0
3DFACE
8
layer1
62
1
10
319.82843
20
150.94821
30
-257.72296
11
319.82843
21
111.98862
31
-257.72296
12
319.82843
22
123.39954
32
-285.27136
0
3DFACE
8
layer1
62
1
10
319.82843
20
150.94821
30
-257.72296
11
319.82843
21
123.39954
31
-285.27136
12
319.82843
22
150.94821
32
-296.68246
0
3DFACE
8
layer1
62
1
10
319.82843
20
150.94821
30
-257.72296
11
319.82843
21
150.94821
31
-296.68246
12
319.82843
22
178.49655
32
-285.27136
0
3DFACE
8
layer1
62
1
10
319.82843
20
150.94821
30
-257.72296
11
319.82843
21
178.49655
31
-285.27136
12
319.82843
22
189.90756
32
-257.72296
0
3DFACE
8
layer1
62
1
10
319.82843
20
150.94821
30
-257.72296
11
319.82843
21
189.90756
31
-257.72296
12
319.82843
22
178.49655
32
-230.17450
0
3DFACE
8
layer1
62
1
10
319.82843
20
150.94821
30
-257.72296
11
319.82843
21
178.49655
31
-230.17450
12
319.82843
22
150.94821
32
-218.76353
0
3DFACE
8
layer1
62
1
10
307.91791
20
88.41847
30
-134.03452
11
307.91791
21
107.70239
31
-126.04700
12
305.81573
22
150.94821
32
-218.76353
13
305.81573
23
123.39954
33
-230.17450
0
3DFACE
8
layer1
62
1
10
317.72632
20
88.41847
30
-134.03452
11
307.91791
21
88.41847
31
-134.03452
12
305.81573
22
123.39954
32
-230.17450
13
319.82843
23
123.39954
33
-230.17450
0
3DFACE
8
layer1
62
1
10
317.72632
20
107.70239
30
-126.04700
11
317.72632
21
88.41847
31
-134.03452
12
319.82843
22
123.39954
32
-230.17450
13
319.82843
23
150.94821
33
-218.76353
0
3DFACE
8
layer1
62
1
10
307.91791
20
107.70239
30
-126.04700
11
317.72632
21
107.70239
31
-126.04700
12
319.82843
22
150.94821
32
-218.76353
13
305.81573
23
150.94821
33
-218.76353
0
3DFACE
8
layer1
62
1
10
307.91791
20
27.25957
30
-320.25259
11
307.91791
21
19.27200
31
-300.96878
12
305.81573
22
111.98862
32
-257.72296
13
305.81573
23
123.39954
33
-285.27136
0
3DFACE
8
layer1
62
1
10
317.72632
20
27.25957
30
-320.25259
11
307.91791
21
27.25957
31
-320.25259
12
305.81573
22
123.39954
32
-285.27136
13
319.82843
23
123.39954
33
-285.27136
0
3DFACE
8
layer1
62
1
10
317.72632
20
19.27200
30
-300.96878
11
317.72632
21
27.25957
31
-320.25259
12
319.82843
22
123.39954
32
-285.27136
13
319.82843
23
111.98862
33
-257.72296
0
3DFACE
8
layer1
62
1
10
307.91791
20
19.27200
30
-300.96878
11
317.72632
21
19.27200
31
-300.96878
12
319.82843
22
111.98862
32
-257.72296
13
305.81573
23
111.98862
33
-257.72296
0
3DFACE
8
layer1
62
1
10
307.91791
20
213.47777
30
-381.41144
11
307.91791
21
194.19383
31
-389.39899
12
305.81573
22
150.94821
32
-296.68246
13
305.81573
23
178.49655
33
-285.27136
0
3DFACE
8
layer1
62
1
10
317.72632
20
213.47777
30
-381.41144
11
307.91791
21
213.47777
31
-381.41144
12
305.81573
22
178.49655
32
-285.27136
13
319.82843
23
178.49655
33
-285.27136
0
3DFACE
8
layer1
62
1
10
317.72632
20
194.19383
30
-389.39899
11
317.72632
21
213.47777
31
-381.41144
12
319.82843
22
178.49655
32
-285.27136
13
319.82843
23
150.94821
33
-296.68246
0
3DFACE
8
layer1
62
1
10
307.91791
20
194.19383
30
-389.39899
11
317.72632
21
194.19383
31
-389.39899
12
319.82843
22
150.94821
32
-296.68246
13
305.81573
23
150.94821
33
-296.68246
0
3DFACE
8
layer1
62
1
10
307.91791
20
274.63635
30
-195.19321
11
307.91791
21
282.62393
31
-214.47726
12
305.81573
22
189.90756
32
-257.72296
13
305.81573
23
178.49655
33
-230.17450
0
3DFACE
8
layer1
62
1
10
317.72632
20
274.63635
30
-195.19321
11
307.91791
21
274.63635
31
-195.19321
12
305.81573
22
178.49655
32
-230.17450
13
319.82843
23
178.49655
33
-230.17450
0
3DFACE
8
layer1
62
1
10
317.72632
20
282.62393
30
-214.47726
11
317.72632
21
274.63635
31
-195.19321
12
319.82843
22
178.49655
32
-230.17450
13
319.82843
23
189.90756
33
-257.72296
0
3DFACE
8
layer1
62
1
10
307.91791
20
282.62393
30
-214.47726
11
317.72632
21
282.62393
31
-214.47726
12
319.82843
22
189.90756
32
-257.72296
13
305.81573
23
189.90756
33
-257.72296
0
3DFACE
8
layer1
62
1
10
307.91791
20
24.48871
30
-216.63823
11
307.91791
21
32.47653
31
-197.35422
12
305.81573
22
123.39954
32
-230.17450
13
305.81573
23
111.98862
33
-257.72296
0
3DFACE
8
layer1
62
1
10
317.72632
20
24.48871
30
-216.63823
11
307.91791
21
24.48871
31
-216.63823
12
305.81573
22
111.98862
32
-257.72296
13
319.82843
23
111.98862
33
-257.72296
0
3DFACE
8
layer1
62
1
10
317.72632
20
32.47653
30
-197.35422
11
317.72632
21
24.48871
31
-216.63823
12
319.82843
22
111.98862
32
-257.72296
13
319.82843
23
123.39954
33
-230.17450
0
3DFACE
8
layer1
62
1
10
307.91791
20
32.47653
30
-197.35422
11
317.72632
21
32.47653
31
-197.35422
12
319.82843
22
123.39954
32
-230.17450
13
305.81573
23
123.39954
33
-230.17450
0
3DFACE
8
layer1
62
1
10
307.91791
20
109.86317
30
-384.18213
11
307.91791
21
90.57925
31
-376.19443
12
305.81573
22
123.39954
32
-285.27136
13
305.81573
23
150.94821
33
-296.68246
0
3DFACE
8
layer1
62
1
10
317.72632
20
109.86317
30
-384.18213
11
307.91791
21
109.86317
31
-384.18213
12
305.81573
22
150.94821
32
-296.68246
13
319.82843
23
150.94821
33
-296.68246
0
3DFACE
8
layer1
62
1
10
317.72632
20
90.57925
30
-376.19443
11
317.72632
21
109.86317
31
-384.18213
12
319.82843
22
150.94821
32
-296.68246
13
319.82843
23
123.39954
33
-285.27136
0
3DFACE
8
layer1
62
1
10
307.91791
20
90.57925
30
-376.19443
11
317.72632
21
90.57925
31
-376.19443
12
319.82843
22
123.39954
32
-285.27136
13
305.81573
23
123.39954
33
-285.27136
0
3DFACE
8
layer1
62
1
10
307.90524
20
277.41763
30
-298.78314
11
307.90524
21
269.40927
31
-318.11646
12
305.81573
22
178.49655
32
-285.27136
13
305.81573
23
189.90756
33
-257.72296
0
3DFACE
8
layer1
62
1
10
317.73898
20
277.41763
30
-298.78314
11
307.90524
21
277.41763
31
-298.78314
12
305.81573
22
189.90756
32
-257.72296
13
319.82843
23
189.90756
33
-257.72296
0
3DFACE
8
layer1
62
1
10
317.73898
20
269.40927
30
-318.11646
11
317.73898
21
277.41763
31
-298.78314
12
319.82843
22
189.90756
32
-257.72296
13
319.82843
23
178.49655
33
-285.27136
0
3DFACE
8
layer1
62
1
10
307.90524
20
269.40927
30
-318.11646
11
317.73898
21
269.40927
31
-318.11646
12
319.82843
22
178.49655
32
-285.27136
13
305.81573
23
178.49655
33
-285.27136
0
3DFACE
8
layer1
62
1
10
307.91791
20
192.03287
30
-131.26366
11
307.91791
21
211.31697
31
-139.25137
12
305.81573
22
178.49655
32
-230.17450
13
305.81573
23
150.94821
33
-218.76353
0
3DFACE
8
layer1
62
1
10
317.72632
20
192.03287
30
-131.26366
11
307.91791
21
192.03287
31
-131.26366
12
305.81573
22
150.94821
32
-218.76353
13
319.82843
23
150.94821
33
-218.76353
0
3DFACE
8
layer1
62
1
10
317.72632
20
211.31697
30
-139.25137
11
317.72632
21
192.03287
31
-131.26366
12
319.82843
22
150.94821
32
-218.76353
13
319.82843
23
178.49655
33
-230.17450
0
3DFACE
8
layer1
62
1
10
307.91791
20
211.31697
30
-139.25137
11
317.72632
21
211.31697
31
-139.25137
12
319.82843
22
178.49655
32
-230.17450
13
305.81573
23
178.49655
33
-230.17450
0
ENDSEC
0
EOF
