0
SECTION
2
ENTITIES
999
Created by Metasequoia
0
3DFACE
8
layer1
62
1
10
163.84752
20
797.06097
30
-194.85402
11
-163.84752
21
797.06097
31
-194.85402
12
-163.84752
22
753.88507
32
-3.38372
13
163.84752
23
753.88507
33
-3.38372
0
3DFACE
8
layer1
62
1
10
163.84752
20
753.88507
30
-3.38372
11
-163.84752
21
753.88507
31
-3.38372
12
-163.84752
22
797.06097
32
-194.85402
13
163.84752
23
797.06097
33
-194.85402
0
3DFACE
8
layer1
62
1
10
163.84752
20
753.86969
30
-4.54533
11
-163.84752
21
753.86969
31
-4.54533
12
-163.84752
22
797.06097
32
195.45461
13
163.84752
23
797.06097
33
195.45461
0
3DFACE
8
layer1
62
1
10
163.84752
20
797.06097
30
195.45461
11
-163.84752
21
797.06097
31
195.45461
12
-163.84752
22
753.86969
32
-4.54533
13
163.84752
23
753.86969
33
-4.54533
0
3DFACE
8
layer1
62
1
10
-163.51038
20
797.50507
30
-199.31503
11
-290.17120
21
628.49548
31
-199.31503
12
-290.17120
22
628.49548
32
0.68497
13
-163.51038
23
753.74127
33
-4.72881
0
3DFACE
8
layer1
62
1
10
-163.51038
20
753.74127
30
-4.72881
11
-290.17120
21
628.49548
31
0.68497
12
-290.17120
22
628.49548
32
-199.31503
13
-163.51038
23
797.50507
33
-199.31503
0
3DFACE
8
layer1
62
1
10
-163.51038
20
797.50507
30
199.31503
11
-163.51038
21
753.74127
31
-4.56112
12
-290.17120
22
628.49548
32
-0.68497
13
-290.17120
23
628.49548
33
199.31503
0
3DFACE
8
layer1
62
1
10
-163.51038
20
753.74127
30
-4.56112
11
-163.51038
21
797.50507
31
199.31503
12
-290.17120
22
628.49548
32
199.31503
13
-290.17120
23
628.49548
33
-0.68497
0
3DFACE
8
layer1
62
1
10
163.51038
20
797.50507
30
-199.31503
11
163.51038
21
753.74127
31
-4.72881
12
290.17120
22
628.49548
32
0.68497
13
290.17120
23
628.49548
33
-199.31503
0
3DFACE
8
layer1
62
1
10
163.51038
20
753.74127
30
-4.72881
11
163.51038
21
797.50507
31
-199.31503
12
290.17120
22
628.49548
32
-199.31503
13
290.17120
23
628.49548
33
0.68497
0
3DFACE
8
layer1
62
1
10
163.51038
20
797.50507
30
199.31503
11
290.17120
21
628.49548
31
199.31503
12
290.17120
22
628.49548
32
-0.68497
13
163.51038
23
753.74127
33
-4.56112
0
3DFACE
8
layer1
62
1
10
163.51038
20
753.74127
30
-4.56112
11
290.17120
21
628.49548
31
-0.68497
12
290.17120
22
628.49548
32
199.31503
13
163.51038
23
797.50507
33
199.31503
0
3DFACE
8
layer1
62
1
10
-290.34595
20
628.63751
30
-188.63809
11
-279.86795
21
324.66171
31
-188.63809
12
-279.86795
22
324.66171
32
190.48828
13
-290.34595
23
628.63751
33
190.48828
0
3DFACE
8
layer1
62
1
10
-290.34595
20
628.63751
30
190.48828
11
-279.86795
21
324.66171
31
190.48828
12
-279.86795
22
324.66171
32
-188.63809
13
-290.34595
23
628.63751
33
-188.63809
0
3DFACE
8
layer1
62
1
10
290.34595
20
628.63751
30
-188.63809
11
290.34595
21
628.63751
31
190.48828
12
279.86795
22
324.66171
32
190.48828
13
279.86795
23
324.66171
33
-188.63809
0
3DFACE
8
layer1
62
1
10
290.34595
20
628.63751
30
190.48828
11
290.34595
21
628.63751
31
-188.63809
12
279.86795
22
324.66171
32
-188.63809
13
279.86795
23
324.66171
33
190.48828
0
3DFACE
8
layer1
62
1
10
163.84752
20
787.77832
30
-491.97818
11
-163.84752
21
787.77832
31
-491.97818
12
-163.84752
22
753.88507
32
-341.98978
13
163.84752
23
753.88507
33
-341.98978
0
3DFACE
8
layer1
62
1
10
163.84752
20
753.88507
30
-341.98978
11
-163.84752
21
753.88507
31
-341.98978
12
-163.84752
22
787.77832
32
-491.97818
13
163.84752
23
787.77832
33
-491.97818
0
3DFACE
8
layer1
62
1
10
163.84752
20
753.86969
30
-343.15140
11
-163.84752
21
753.86969
31
-343.15140
12
-163.84752
22
797.06097
32
-203.78635
13
163.84752
23
797.06097
33
-203.78635
0
3DFACE
8
layer1
62
1
10
163.84752
20
797.06097
30
-203.78635
11
-163.84752
21
797.06097
31
-203.78635
12
-163.84752
22
753.86969
32
-343.15140
13
163.84752
23
753.86969
33
-343.15140
0
3DFACE
8
layer1
62
1
10
-163.51038
20
788.22241
30
-496.43915
11
-290.17120
21
628.49548
31
-464.41763
12
-290.17120
22
628.49548
32
-337.92111
13
-163.51038
23
753.74127
33
-343.33487
0
3DFACE
8
layer1
62
1
10
-163.51038
20
753.74127
30
-343.33487
11
-290.17120
21
628.49548
31
-337.92111
12
-290.17120
22
628.49548
32
-464.41763
13
-163.51038
23
788.22241
33
-496.43915
0
3DFACE
8
layer1
62
1
10
-163.51038
20
797.50507
30
-199.92590
11
-163.51038
21
753.74127
31
-343.16721
12
-290.17120
22
628.49548
32
-339.29105
13
-290.17120
23
628.49548
33
-199.92590
0
3DFACE
8
layer1
62
1
10
-163.51038
20
753.74127
30
-343.16721
11
-163.51038
21
797.50507
31
-199.92590
12
-290.17120
22
628.49548
32
-199.92590
13
-290.17120
23
628.49548
33
-339.29105
0
3DFACE
8
layer1
62
1
10
163.51038
20
788.22241
30
-496.43915
11
163.51038
21
753.74127
31
-343.33487
12
290.17120
22
628.49548
32
-337.92111
13
290.17120
23
628.49548
33
-464.41763
0
3DFACE
8
layer1
62
1
10
163.51038
20
753.74127
30
-343.33487
11
163.51038
21
788.22241
31
-496.43915
12
290.17120
22
628.49548
32
-464.41763
13
290.17120
23
628.49548
33
-337.92111
0
3DFACE
8
layer1
62
1
10
163.51038
20
797.50507
30
-199.92590
11
290.17120
21
628.49548
31
-199.92590
12
290.17120
22
628.49548
32
-339.29105
13
163.51038
23
753.74127
33
-343.16721
0
3DFACE
8
layer1
62
1
10
163.51038
20
753.74127
30
-343.16721
11
290.17120
21
628.49548
31
-339.29105
12
290.17120
22
628.49548
32
-199.92590
13
163.51038
23
797.50507
33
-199.92590
0
3DFACE
8
layer1
62
1
10
-290.34595
20
628.63751
30
-464.07330
11
-279.86795
21
324.66171
31
-430.95688
12
-279.86795
22
324.66171
32
-197.10394
13
-290.34595
23
628.63751
33
-197.10394
0
3DFACE
8
layer1
62
1
10
-290.34595
20
628.63751
30
-197.10394
11
-279.86795
21
324.66171
31
-197.10394
12
-279.86795
22
324.66171
32
-430.95688
13
-290.34595
23
628.63751
33
-464.07330
0
3DFACE
8
layer1
62
1
10
290.34595
20
628.63751
30
-464.07330
11
290.34595
21
628.63751
31
-197.10394
12
279.86795
22
324.66171
32
-197.10394
13
279.86795
23
324.66171
33
-430.95688
0
3DFACE
8
layer1
62
1
10
290.34595
20
628.63751
30
-197.10394
11
290.34595
21
628.63751
31
-464.07330
12
279.86795
22
324.66171
32
-430.95688
13
279.86795
23
324.66171
33
-197.10394
0
3DFACE
8
layer1
62
1
10
163.84752
20
787.77832
30
491.97818
11
163.84752
21
753.88507
31
341.98978
12
-163.84752
22
753.88507
32
341.98978
13
-163.84752
23
787.77832
33
491.97818
0
3DFACE
8
layer1
62
1
10
163.84752
20
753.88507
30
341.98978
11
163.84752
21
787.77832
31
491.97818
12
-163.84752
22
787.77832
32
491.97818
13
-163.84752
23
753.88507
33
341.98978
0
3DFACE
8
layer1
62
1
10
163.84752
20
753.86969
30
343.15140
11
163.84752
21
797.06097
31
203.78635
12
-163.84752
22
797.06097
32
203.78635
13
-163.84752
23
753.86969
33
343.15140
0
3DFACE
8
layer1
62
1
10
163.84752
20
797.06097
30
203.78635
11
163.84752
21
753.86969
31
343.15140
12
-163.84752
22
753.86969
32
343.15140
13
-163.84752
23
797.06097
33
203.78635
0
3DFACE
8
layer1
62
1
10
-163.51038
20
788.22241
30
496.43915
11
-163.51038
21
753.74127
31
343.33487
12
-290.17120
22
628.49548
32
337.92111
13
-290.17120
23
628.49548
33
464.41763
0
3DFACE
8
layer1
62
1
10
-163.51038
20
753.74127
30
343.33487
11
-163.51038
21
788.22241
31
496.43915
12
-290.17120
22
628.49548
32
464.41763
13
-290.17120
23
628.49548
33
337.92111
0
3DFACE
8
layer1
62
1
10
-163.51038
20
797.50507
30
199.92590
11
-290.17120
21
628.49548
31
199.92590
12
-290.17120
22
628.49548
32
339.29105
13
-163.51038
23
753.74127
33
343.16721
0
3DFACE
8
layer1
62
1
10
-163.51038
20
753.74127
30
343.16721
11
-290.17120
21
628.49548
31
339.29105
12
-290.17120
22
628.49548
32
199.92590
13
-163.51038
23
797.50507
33
199.92590
0
3DFACE
8
layer1
62
1
10
163.51038
20
788.22241
30
496.43915
11
290.17120
21
628.49548
31
464.41763
12
290.17120
22
628.49548
32
337.92111
13
163.51038
23
753.74127
33
343.33487
0
3DFACE
8
layer1
62
1
10
163.51038
20
753.74127
30
343.33487
11
290.17120
21
628.49548
31
337.92111
12
290.17120
22
628.49548
32
464.41763
13
163.51038
23
788.22241
33
496.43915
0
3DFACE
8
layer1
62
1
10
163.51038
20
797.50507
30
199.92590
11
163.51038
21
753.74127
31
343.16721
12
290.17120
22
628.49548
32
339.29105
13
290.17120
23
628.49548
33
199.92590
0
3DFACE
8
layer1
62
1
10
163.51038
20
753.74127
30
343.16721
11
163.51038
21
797.50507
31
199.92590
12
290.17120
22
628.49548
32
199.92590
13
290.17120
23
628.49548
33
339.29105
0
3DFACE
8
layer1
62
1
10
-290.34595
20
628.63751
30
464.07330
11
-290.34595
21
628.63751
31
197.10394
12
-279.86795
22
324.66171
32
197.10394
13
-279.86795
23
324.66171
33
424.56873
0
3DFACE
8
layer1
62
1
10
-290.34595
20
628.63751
30
197.10394
11
-290.34595
21
628.63751
31
464.07330
12
-279.86795
22
324.66171
32
424.56873
13
-279.86795
23
324.66171
33
197.10394
0
3DFACE
8
layer1
62
1
10
290.34595
20
628.63751
30
464.07330
11
279.86795
21
324.66171
31
424.56873
12
279.86795
22
324.66171
32
197.10394
13
290.34595
23
628.63751
33
197.10394
0
3DFACE
8
layer1
62
1
10
290.34595
20
628.63751
30
197.10394
11
279.86795
21
324.66171
31
197.10394
12
279.86795
22
324.66171
32
424.56873
13
290.34595
23
628.63751
33
464.07330
0
ENDSEC
0
EOF
