0
SECTION
2
ENTITIES
999
Created by Metasequoia
0
3DFACE
8
layer1
62
1
10
-265.10278
20
223.00735
30
416.38379
11
-289.11615
21
223.00735
31
416.38379
12
-289.11615
22
168.86696
32
416.38379
13
-265.10278
23
168.86696
33
416.38379
0
3DFACE
8
layer1
62
1
10
-289.11615
20
223.00735
30
416.38379
11
-289.11615
21
223.00735
31
-416.38379
12
-289.11615
22
168.86696
32
-416.38379
13
-289.11615
23
168.86696
33
416.38379
0
3DFACE
8
layer1
62
1
10
-289.11615
20
223.00735
30
-416.38379
11
-265.10278
21
223.00735
31
-416.38379
12
-265.10278
22
168.86696
32
-416.38379
13
-289.11615
23
168.86696
33
-416.38379
0
3DFACE
8
layer1
62
1
10
-265.10278
20
223.00735
30
-416.38379
11
-265.10278
21
223.00735
31
416.38379
12
-265.10278
22
168.86696
32
416.38379
13
-265.10278
23
168.86696
33
-416.38379
0
3DFACE
8
layer1
62
1
10
-265.10278
20
223.00735
30
-416.38379
11
-289.11615
21
223.00735
31
-416.38379
12
-289.11615
22
223.00735
32
416.38379
13
-265.10278
23
223.00735
33
416.38379
0
3DFACE
8
layer1
62
1
10
-265.10278
20
168.86696
30
416.38379
11
-289.11615
21
168.86696
31
416.38379
12
-289.11615
22
168.86696
32
-416.38379
13
-265.10278
23
168.86696
33
-416.38379
0
3DFACE
8
layer1
62
1
10
265.10272
20
276.54144
30
-427.90723
11
265.10272
21
330.68173
31
-427.90723
12
289.11615
22
330.68173
32
-427.90723
13
289.11615
23
276.54144
33
-427.90723
0
3DFACE
8
layer1
62
1
10
289.11615
20
276.54144
30
-427.90723
11
289.11615
21
330.68173
31
-427.90723
12
289.11615
22
330.68179
32
404.86035
13
289.11615
23
276.54150
33
404.86035
0
3DFACE
8
layer1
62
1
10
289.11615
20
276.54150
30
404.86035
11
289.11615
21
330.68179
31
404.86035
12
265.10272
22
330.68179
32
404.86035
13
265.10272
23
276.54150
33
404.86035
0
3DFACE
8
layer1
62
1
10
265.10272
20
276.54150
30
404.86035
11
265.10272
21
330.68179
31
404.86035
12
265.10272
22
330.68173
32
-427.90723
13
265.10272
23
276.54144
33
-427.90723
0
3DFACE
8
layer1
62
1
10
265.10272
20
276.54150
30
404.86035
11
265.10272
21
276.54144
31
-427.90723
12
289.11615
22
276.54144
32
-427.90723
13
289.11615
23
276.54150
33
404.86035
0
3DFACE
8
layer1
62
1
10
265.10272
20
330.68173
30
-427.90723
11
265.10272
21
330.68179
31
404.86035
12
289.11615
22
330.68179
32
404.86035
13
289.11615
23
330.68173
33
-427.90723
0
3DFACE
8
layer1
62
1
10
-260.75281
20
276.51514
30
404.86029
11
-284.76624
21
276.51514
31
404.86029
12
-284.76624
22
222.37483
32
404.86029
13
-260.75281
23
222.37483
33
404.86029
0
3DFACE
8
layer1
62
1
10
-284.76624
20
276.51514
30
404.86029
11
-284.76624
21
276.51514
31
-427.90729
12
-284.76624
22
222.37483
32
-427.90729
13
-284.76624
23
222.37483
33
404.86029
0
3DFACE
8
layer1
62
1
10
-284.76624
20
276.51514
30
-427.90729
11
-260.75281
21
276.51514
31
-427.90729
12
-260.75281
22
222.37483
32
-427.90729
13
-284.76624
23
222.37483
33
-427.90729
0
3DFACE
8
layer1
62
1
10
-260.75281
20
276.51514
30
-427.90729
11
-260.75281
21
276.51514
31
404.86029
12
-260.75281
22
222.37483
32
404.86029
13
-260.75281
23
222.37483
33
-427.90729
0
3DFACE
8
layer1
62
1
10
-260.75281
20
276.51514
30
-427.90729
11
-284.76624
21
276.51514
31
-427.90729
12
-284.76624
22
276.51514
32
404.86029
13
-260.75281
23
276.51514
33
404.86029
0
3DFACE
8
layer1
62
1
10
-260.75281
20
222.37483
30
404.86029
11
-284.76624
21
222.37483
31
404.86029
12
-284.76624
22
222.37483
32
-427.90729
13
-260.75281
23
222.37483
33
-427.90729
0
3DFACE
8
layer1
62
1
10
260.75281
20
223.03368
30
-416.38379
11
260.75281
21
277.17398
31
-416.38379
12
284.76617
22
277.17398
32
-416.38379
13
284.76617
23
223.03368
33
-416.38379
0
3DFACE
8
layer1
62
1
10
284.76617
20
223.03368
30
-416.38379
11
284.76617
21
277.17398
31
-416.38379
12
284.76617
22
277.17404
32
416.38379
13
284.76617
23
223.03371
33
416.38379
0
3DFACE
8
layer1
62
1
10
284.76617
20
223.03371
30
416.38379
11
284.76617
21
277.17404
31
416.38379
12
260.75281
22
277.17404
32
416.38379
13
260.75281
23
223.03371
33
416.38379
0
3DFACE
8
layer1
62
1
10
260.75281
20
223.03371
30
416.38379
11
260.75281
21
277.17404
31
416.38379
12
260.75281
22
277.17398
32
-416.38379
13
260.75281
23
223.03368
33
-416.38379
0
3DFACE
8
layer1
62
1
10
260.75281
20
223.03371
30
416.38379
11
260.75281
21
223.03368
31
-416.38379
12
284.76617
22
223.03368
32
-416.38379
13
284.76617
23
223.03371
33
416.38379
0
3DFACE
8
layer1
62
1
10
260.75281
20
277.17398
30
-416.38379
11
260.75281
21
277.17404
31
416.38379
12
284.76617
22
277.17404
32
416.38379
13
284.76617
23
277.17398
33
-416.38379
0
3DFACE
8
layer1
62
1
10
-265.10278
20
330.68179
30
416.38379
11
-289.11615
21
330.68179
31
416.38379
12
-289.11615
22
276.54147
32
416.38379
13
-265.10278
23
276.54147
33
416.38379
0
3DFACE
8
layer1
62
1
10
-289.11615
20
330.68179
30
416.38379
11
-289.11615
21
330.68179
31
-416.38379
12
-289.11615
22
276.54147
32
-416.38379
13
-289.11615
23
276.54147
33
416.38379
0
3DFACE
8
layer1
62
1
10
-289.11615
20
330.68179
30
-416.38379
11
-265.10278
21
330.68179
31
-416.38379
12
-265.10278
22
276.54147
32
-416.38379
13
-289.11615
23
276.54147
33
-416.38379
0
3DFACE
8
layer1
62
1
10
-265.10278
20
330.68179
30
-416.38379
11
-265.10278
21
330.68179
31
416.38379
12
-265.10278
22
276.54147
32
416.38379
13
-265.10278
23
276.54147
33
-416.38379
0
3DFACE
8
layer1
62
1
10
-265.10278
20
330.68179
30
-416.38379
11
-289.11615
21
330.68179
31
-416.38379
12
-289.11615
22
330.68179
32
416.38379
13
-265.10278
23
330.68179
33
416.38379
0
3DFACE
8
layer1
62
1
10
-265.10278
20
276.54147
30
416.38379
11
-289.11615
21
276.54147
31
416.38379
12
-289.11615
22
276.54147
32
-416.38379
13
-265.10278
23
276.54147
33
-416.38379
0
3DFACE
8
layer1
62
1
10
265.10272
20
168.86693
30
-427.90723
11
265.10272
21
223.00732
31
-427.90723
12
289.11615
22
223.00732
32
-427.90723
13
289.11615
23
168.86693
33
-427.90723
0
3DFACE
8
layer1
62
1
10
289.11615
20
168.86693
30
-427.90723
11
289.11615
21
223.00732
31
-427.90723
12
289.11615
22
223.00735
32
404.86035
13
289.11615
23
168.86697
33
404.86035
0
3DFACE
8
layer1
62
1
10
289.11615
20
168.86697
30
404.86035
11
289.11615
21
223.00735
31
404.86035
12
265.10272
22
223.00735
32
404.86035
13
265.10272
23
168.86697
33
404.86035
0
3DFACE
8
layer1
62
1
10
265.10272
20
168.86697
30
404.86035
11
265.10272
21
223.00735
31
404.86035
12
265.10272
22
223.00732
32
-427.90723
13
265.10272
23
168.86693
33
-427.90723
0
3DFACE
8
layer1
62
1
10
265.10272
20
168.86697
30
404.86035
11
265.10272
21
168.86693
31
-427.90723
12
289.11615
22
168.86693
32
-427.90723
13
289.11615
23
168.86697
33
404.86035
0
3DFACE
8
layer1
62
1
10
265.10272
20
223.00732
30
-427.90723
11
265.10272
21
223.00735
31
404.86035
12
289.11615
22
223.00735
32
404.86035
13
289.11615
23
223.00732
33
-427.90723
0
3DFACE
8
layer1
62
1
10
-285.61755
20
276.54144
30
-415.60193
11
-285.61755
21
330.68173
31
-415.60193
12
-285.61755
22
330.68173
32
-439.61536
13
-285.61755
23
276.54144
33
-439.61536
0
3DFACE
8
layer1
62
1
10
-285.61755
20
276.54144
30
-439.61536
11
-285.61755
21
330.68173
31
-439.61536
12
279.33038
22
330.68179
32
-439.61536
13
279.33038
23
276.54150
33
-439.61536
0
3DFACE
8
layer1
62
1
10
279.33038
20
276.54150
30
-439.61536
11
279.33038
21
330.68179
31
-439.61536
12
279.33038
22
330.68179
32
-415.60193
13
279.33038
23
276.54150
33
-415.60193
0
3DFACE
8
layer1
62
1
10
279.33038
20
276.54150
30
-415.60193
11
279.33038
21
330.68179
31
-415.60193
12
-285.61755
22
330.68173
32
-415.60193
13
-285.61755
23
276.54144
33
-415.60193
0
3DFACE
8
layer1
62
1
10
279.33038
20
276.54150
30
-415.60193
11
-285.61755
21
276.54144
31
-415.60193
12
-285.61755
22
276.54144
32
-439.61536
13
279.33038
23
276.54150
33
-439.61536
0
3DFACE
8
layer1
62
1
10
-285.61755
20
330.68173
30
-415.60193
11
279.33038
21
330.68179
31
-415.60193
12
279.33038
22
330.68179
32
-439.61536
13
-285.61755
23
330.68173
33
-439.61536
0
3DFACE
8
layer1
62
1
10
-274.09418
20
223.03368
30
-411.25195
11
-274.09418
21
277.17398
31
-411.25195
12
-274.09418
22
277.17398
32
-435.26538
13
-274.09418
23
223.03368
33
-435.26538
0
3DFACE
8
layer1
62
1
10
-274.09418
20
223.03368
30
-435.26538
11
-274.09418
21
277.17398
31
-435.26538
12
290.85388
22
277.17404
32
-435.26538
13
290.85388
23
223.03371
33
-435.26538
0
3DFACE
8
layer1
62
1
10
290.85388
20
223.03371
30
-435.26538
11
290.85388
21
277.17404
31
-435.26538
12
290.85388
22
277.17404
32
-411.25195
13
290.85388
23
223.03371
33
-411.25195
0
3DFACE
8
layer1
62
1
10
290.85388
20
223.03371
30
-411.25195
11
290.85388
21
277.17404
31
-411.25195
12
-274.09418
22
277.17398
32
-411.25195
13
-274.09418
23
223.03368
33
-411.25195
0
3DFACE
8
layer1
62
1
10
290.85388
20
223.03371
30
-411.25195
11
-274.09418
21
223.03368
31
-411.25195
12
-274.09418
22
223.03368
32
-435.26538
13
290.85388
23
223.03371
33
-435.26538
0
3DFACE
8
layer1
62
1
10
-274.09418
20
277.17398
30
-411.25195
11
290.85388
21
277.17404
31
-411.25195
12
290.85388
22
277.17404
32
-435.26538
13
-274.09418
23
277.17398
33
-435.26538
0
3DFACE
8
layer1
62
1
10
-285.61755
20
168.86693
30
-415.60193
11
-285.61755
21
223.00732
31
-415.60193
12
-285.61755
22
223.00732
32
-439.61536
13
-285.61755
23
168.86693
33
-439.61536
0
3DFACE
8
layer1
62
1
10
-285.61755
20
168.86693
30
-439.61536
11
-285.61755
21
223.00732
31
-439.61536
12
279.33038
22
223.00735
32
-439.61536
13
279.33038
23
168.86697
33
-439.61536
0
3DFACE
8
layer1
62
1
10
279.33038
20
168.86697
30
-439.61536
11
279.33038
21
223.00735
31
-439.61536
12
279.33038
22
223.00735
32
-415.60193
13
279.33038
23
168.86697
33
-415.60193
0
3DFACE
8
layer1
62
1
10
279.33038
20
168.86697
30
-415.60193
11
279.33038
21
223.00735
31
-415.60193
12
-285.61755
22
223.00732
32
-415.60193
13
-285.61755
23
168.86693
33
-415.60193
0
3DFACE
8
layer1
62
1
10
279.33038
20
168.86697
30
-415.60193
11
-285.61755
21
168.86693
31
-415.60193
12
-285.61755
22
168.86693
32
-439.61536
13
279.33038
23
168.86697
33
-439.61536
0
3DFACE
8
layer1
62
1
10
-285.61755
20
223.00732
30
-415.60193
11
279.33038
21
223.00735
31
-415.60193
12
279.33038
22
223.00735
32
-439.61536
13
-285.61755
23
223.00732
33
-439.61536
0
3DFACE
8
layer1
62
1
10
281.08899
20
223.00742
30
403.71497
11
281.08899
21
223.00742
31
427.72839
12
281.08899
22
168.86700
32
427.72839
13
281.08899
23
168.86700
33
403.71497
0
3DFACE
8
layer1
62
1
10
281.08899
20
223.00742
30
427.72839
11
-283.85895
21
223.00732
31
427.72839
12
-283.85895
22
168.86691
32
427.72839
13
281.08899
23
168.86700
33
427.72839
0
3DFACE
8
layer1
62
1
10
-283.85895
20
223.00732
30
427.72839
11
-283.85895
21
223.00732
31
403.71497
12
-283.85895
22
168.86691
32
403.71497
13
-283.85895
23
168.86691
33
427.72839
0
3DFACE
8
layer1
62
1
10
-283.85895
20
223.00732
30
403.71497
11
281.08899
21
223.00742
31
403.71497
12
281.08899
22
168.86700
32
403.71497
13
-283.85895
23
168.86691
33
403.71497
0
3DFACE
8
layer1
62
1
10
-283.85895
20
223.00732
30
403.71497
11
-283.85895
21
223.00732
31
427.72839
12
281.08899
22
223.00742
32
427.72839
13
281.08899
23
223.00742
33
403.71497
0
3DFACE
8
layer1
62
1
10
281.08899
20
168.86700
30
403.71497
11
281.08899
21
168.86700
31
427.72839
12
-283.85895
22
168.86691
32
427.72839
13
-283.85895
23
168.86691
33
403.71497
0
3DFACE
8
layer1
62
1
10
269.56561
20
276.51514
30
399.36499
11
269.56561
21
276.51514
31
423.37842
12
269.56561
22
222.37483
32
423.37842
13
269.56561
23
222.37483
33
399.36499
0
3DFACE
8
layer1
62
1
10
269.56561
20
276.51514
30
423.37842
11
-295.38245
21
276.51514
31
423.37842
12
-295.38245
22
222.37477
32
423.37842
13
269.56561
23
222.37483
33
423.37842
0
3DFACE
8
layer1
62
1
10
-295.38245
20
276.51514
30
423.37842
11
-295.38245
21
276.51514
31
399.36499
12
-295.38245
22
222.37477
32
399.36499
13
-295.38245
23
222.37477
33
423.37842
0
3DFACE
8
layer1
62
1
10
-295.38245
20
276.51514
30
399.36499
11
269.56561
21
276.51514
31
399.36499
12
269.56561
22
222.37483
32
399.36499
13
-295.38245
23
222.37477
33
399.36499
0
3DFACE
8
layer1
62
1
10
-295.38245
20
276.51514
30
399.36499
11
-295.38245
21
276.51514
31
423.37842
12
269.56561
22
276.51514
32
423.37842
13
269.56561
23
276.51514
33
399.36499
0
3DFACE
8
layer1
62
1
10
269.56561
20
222.37483
30
399.36499
11
269.56561
21
222.37483
31
423.37842
12
-295.38245
22
222.37477
32
423.37842
13
-295.38245
23
222.37477
33
399.36499
0
3DFACE
8
layer1
62
1
10
281.08899
20
330.68185
30
403.71497
11
281.08899
21
330.68185
31
427.72839
12
281.08899
22
276.54150
32
427.72839
13
281.08899
23
276.54150
33
403.71497
0
3DFACE
8
layer1
62
1
10
281.08899
20
330.68185
30
427.72839
11
-283.85895
21
330.68173
31
427.72839
12
-283.85895
22
276.54144
32
427.72839
13
281.08899
23
276.54150
33
427.72839
0
3DFACE
8
layer1
62
1
10
-283.85895
20
330.68173
30
427.72839
11
-283.85895
21
330.68173
31
403.71497
12
-283.85895
22
276.54144
32
403.71497
13
-283.85895
23
276.54144
33
427.72839
0
3DFACE
8
layer1
62
1
10
-283.85895
20
330.68173
30
403.71497
11
281.08899
21
330.68185
31
403.71497
12
281.08899
22
276.54150
32
403.71497
13
-283.85895
23
276.54144
33
403.71497
0
3DFACE
8
layer1
62
1
10
-283.85895
20
330.68173
30
403.71497
11
-283.85895
21
330.68173
31
427.72839
12
281.08899
22
330.68185
32
427.72839
13
281.08899
23
330.68185
33
403.71497
0
3DFACE
8
layer1
62
1
10
281.08899
20
276.54150
30
403.71497
11
281.08899
21
276.54150
31
427.72839
12
-283.85895
22
276.54144
32
427.72839
13
-283.85895
23
276.54144
33
403.71497
0
3DFACE
8
layer1
62
1
10
269.22372
20
174.68292
30
-429.17917
11
-272.92130
21
174.68292
31
-429.17917
12
-272.92130
22
174.68292
32
426.08624
13
269.22372
23
174.68292
33
426.08624
0
3DFACE
8
layer1
62
1
10
269.22372
20
174.68292
30
426.08624
11
-272.92130
21
174.68292
31
426.08624
12
-272.92130
22
174.68292
32
-429.17917
13
269.22372
23
174.68292
33
-429.17917
0
3DFACE
8
layer1
62
1
10
-265.10278
20
172.04181
30
-189.08064
11
-289.11615
21
172.04181
31
-189.08064
12
-289.11615
22
117.90143
32
-213.07529
13
-265.10278
23
117.90143
33
-213.07529
0
3DFACE
8
layer1
62
1
10
-289.11615
20
172.04181
30
-189.08064
11
-289.11615
21
172.04181
31
-326.66696
12
-289.11615
22
117.90143
32
-302.67233
13
-289.11615
23
117.90143
33
-213.07529
0
3DFACE
8
layer1
62
1
10
-289.11615
20
172.04181
30
-326.66696
11
-265.10278
21
172.04181
31
-326.66696
12
-265.10278
22
117.90143
32
-302.67233
13
-289.11615
23
117.90143
33
-302.67233
0
3DFACE
8
layer1
62
1
10
-265.10278
20
172.04181
30
-326.66696
11
-265.10278
21
172.04181
31
-189.08064
12
-265.10278
22
117.90143
32
-213.07529
13
-265.10278
23
117.90143
33
-302.67233
0
3DFACE
8
layer1
62
1
10
-265.10278
20
117.90143
30
-213.07529
11
-289.11615
21
117.90143
31
-213.07529
12
-289.11615
22
117.90143
32
-302.67233
13
-265.10278
23
117.90143
33
-302.67233
0
3DFACE
8
layer1
62
1
10
265.10278
20
172.04181
30
-189.08064
11
265.10278
21
117.90143
31
-213.07529
12
289.11615
22
117.90143
32
-213.07529
13
289.11615
23
172.04181
33
-189.08064
0
3DFACE
8
layer1
62
1
10
289.11615
20
172.04181
30
-189.08064
11
289.11615
21
117.90143
31
-213.07529
12
289.11615
22
117.90143
32
-302.67233
13
289.11615
23
172.04181
33
-326.66696
0
3DFACE
8
layer1
62
1
10
289.11615
20
172.04181
30
-326.66696
11
289.11615
21
117.90143
31
-302.67233
12
265.10278
22
117.90143
32
-302.67233
13
265.10278
23
172.04181
33
-326.66696
0
3DFACE
8
layer1
62
1
10
265.10278
20
172.04181
30
-326.66696
11
265.10278
21
117.90143
31
-302.67233
12
265.10278
22
117.90143
32
-213.07529
13
265.10278
23
172.04181
33
-189.08064
0
3DFACE
8
layer1
62
1
10
265.10278
20
117.90143
30
-213.07529
11
265.10278
21
117.90143
31
-302.67233
12
289.11615
22
117.90143
32
-302.67233
13
289.11615
23
117.90143
33
-213.07529
0
3DFACE
8
layer1
62
1
10
-265.10278
20
172.04181
30
189.08064
11
-265.10278
21
117.90143
31
213.07529
12
-289.11615
22
117.90143
32
213.07529
13
-289.11615
23
172.04181
33
189.08064
0
3DFACE
8
layer1
62
1
10
-289.11615
20
172.04181
30
189.08064
11
-289.11615
21
117.90143
31
213.07529
12
-289.11615
22
117.90143
32
302.67233
13
-289.11615
23
172.04181
33
326.66696
0
3DFACE
8
layer1
62
1
10
-289.11615
20
172.04181
30
326.66696
11
-289.11615
21
117.90143
31
302.67233
12
-265.10278
22
117.90143
32
302.67233
13
-265.10278
23
172.04181
33
326.66696
0
3DFACE
8
layer1
62
1
10
-265.10278
20
172.04181
30
326.66696
11
-265.10278
21
117.90143
31
302.67233
12
-265.10278
22
117.90143
32
213.07529
13
-265.10278
23
172.04181
33
189.08064
0
3DFACE
8
layer1
62
1
10
-265.10278
20
117.90143
30
213.07529
11
-265.10278
21
117.90143
31
302.67233
12
-289.11615
22
117.90143
32
302.67233
13
-289.11615
23
117.90143
33
213.07529
0
3DFACE
8
layer1
62
1
10
265.10278
20
172.04181
30
189.08064
11
289.11615
21
172.04181
31
189.08064
12
289.11615
22
117.90143
32
213.07529
13
265.10278
23
117.90143
33
213.07529
0
3DFACE
8
layer1
62
1
10
289.11615
20
172.04181
30
189.08064
11
289.11615
21
172.04181
31
326.66696
12
289.11615
22
117.90143
32
302.67233
13
289.11615
23
117.90143
33
213.07529
0
3DFACE
8
layer1
62
1
10
289.11615
20
172.04181
30
326.66696
11
265.10278
21
172.04181
31
326.66696
12
265.10278
22
117.90143
32
302.67233
13
289.11615
23
117.90143
33
302.67233
0
3DFACE
8
layer1
62
1
10
265.10278
20
172.04181
30
326.66696
11
265.10278
21
172.04181
31
189.08064
12
265.10278
22
117.90143
32
213.07529
13
265.10278
23
117.90143
33
302.67233
0
3DFACE
8
layer1
62
1
10
265.10278
20
117.90143
30
213.07529
11
289.11615
21
117.90143
31
213.07529
12
289.11615
22
117.90143
32
302.67233
13
265.10278
23
117.90143
33
302.67233
0
3DFACE
8
layer1
62
1
10
-265.10278
20
180.03381
30
402.82410
11
-265.10278
21
204.02847
31
484.32477
12
-289.11615
22
204.02847
32
484.32477
13
-289.11615
23
180.03381
33
402.82410
0
3DFACE
8
layer1
62
1
10
-289.11615
20
180.03381
30
402.82410
11
-289.11615
21
204.02847
31
484.32477
12
-289.11615
22
293.62552
32
484.32477
13
-289.11615
23
317.62015
33
402.82410
0
3DFACE
8
layer1
62
1
10
-289.11615
20
317.62015
30
402.82410
11
-289.11615
21
293.62552
31
484.32477
12
-265.10278
22
293.62552
32
484.32477
13
-265.10278
23
317.62015
33
402.82410
0
3DFACE
8
layer1
62
1
10
-265.10278
20
317.62015
30
402.82410
11
-265.10278
21
293.62552
31
484.32477
12
-265.10278
22
204.02847
32
484.32477
13
-265.10278
23
180.03381
33
402.82410
0
3DFACE
8
layer1
62
1
10
-265.10278
20
204.02847
30
484.32477
11
-265.10278
21
293.62552
31
484.32477
12
-289.11615
22
293.62552
32
484.32477
13
-289.11615
23
204.02847
33
484.32477
0
3DFACE
8
layer1
62
1
10
265.10278
20
180.03381
30
402.82410
11
289.11615
21
180.03381
31
402.82410
12
289.11615
22
204.02847
32
484.32477
13
265.10278
23
204.02847
33
484.32477
0
3DFACE
8
layer1
62
1
10
289.11615
20
180.03381
30
402.82410
11
289.11615
21
317.62015
31
402.82410
12
289.11615
22
293.62552
32
484.32477
13
289.11615
23
204.02847
33
484.32477
0
3DFACE
8
layer1
62
1
10
289.11615
20
317.62015
30
402.82410
11
265.10278
21
317.62015
31
402.82410
12
265.10278
22
293.62552
32
484.32477
13
289.11615
23
293.62552
33
484.32477
0
3DFACE
8
layer1
62
1
10
265.10278
20
317.62015
30
402.82410
11
265.10278
21
180.03381
31
402.82410
12
265.10278
22
204.02847
32
484.32477
13
265.10278
23
293.62552
33
484.32477
0
3DFACE
8
layer1
62
1
10
265.10278
20
204.02847
30
484.32477
11
289.11615
21
204.02847
31
484.32477
12
289.11615
22
293.62552
32
484.32477
13
265.10278
23
293.62552
33
484.32477
0
ENDSEC
0
EOF
