# Created using Spin 3D

# Vertex Array 
v -585.411 347.535 -22.295
v -585.411 -130.907 -22.295
v 1255.055 347.535 -22.295
v 1255.055 -130.907 -22.295
v 1255.055 347.535 -50.323
v 1255.055 -130.907 -50.323
v -585.411 347.535 -50.323
v -585.411 -130.907 -50.323
v -585.411 347.535 -777.360
v -585.411 -130.907 -777.360
v 1255.055 347.535 -777.360
v 1255.055 -130.907 -777.360
v 1255.055 347.535 -805.389
v 1255.055 -130.907 -805.389
v -585.411 347.535 -805.389
v -585.411 -130.907 -805.389
v -572.782 912.730 -31.057
v -572.782 371.111 -31.057
v 1255.055 912.730 -31.057
v 1255.055 371.111 -31.057
v 1255.055 912.730 -50.323
v 1255.055 371.111 -50.323
v -572.782 912.730 -50.323
v -572.782 371.111 -50.323
v -585.411 912.730 -777.360
v -585.411 371.111 -777.360
v 1255.055 912.730 -777.360
v 1255.055 371.111 -777.360
v 1255.055 912.730 -798.852
v 1255.055 371.111 -798.852
v -585.411 912.730 -798.852
v -585.411 371.111 -798.852
v -585.411 912.730 494.943
v -585.411 371.111 494.943
v 577.754 912.730 494.943
v 577.754 371.111 494.943
v 577.754 912.730 475.677
v 577.754 371.111 475.677
v -585.411 912.730 475.677
v -585.411 371.111 475.677
v -572.782 912.730 -251.360
v -572.782 371.111 -251.360
v -572.782 912.730 -272.852
v -572.782 371.111 -272.852
v 558.069 912.730 -37.896
v 558.069 371.111 -37.896
v 558.069 912.730 492.108
v 558.069 371.111 492.108
v 577.336 912.730 492.108
v 577.336 371.111 492.108
v 577.336 912.730 -37.896
v 577.336 371.111 -37.896
v -585.411 912.730 494.943
v -585.411 371.111 494.943
v 577.754 912.730 494.943
v 577.754 371.111 494.943
v 577.754 912.730 475.677
v 577.754 371.111 475.677
v -585.411 912.730 475.677
v -585.411 371.111 475.677
v -580.101 912.730 -807.218
v -580.101 371.111 -807.218
v -580.101 912.730 492.108
v -580.101 371.111 492.108
v -560.834 912.730 492.108
v -560.834 371.111 492.108
v -560.834 912.730 -807.218
v -560.834 371.111 -807.218
v 1235.381 912.730 -803.318
v 1235.381 -131.277 -803.318
v 1235.381 912.730 -26.526
v 1235.381 -131.277 -26.526
v 1254.647 912.730 -26.526
v 1254.647 -131.277 -26.526
v 1254.647 912.730 -803.318
v 1254.647 -131.277 -803.318
v 556.789 348.730 497.511
v 556.789 -87.635 497.511
v 683.947 348.730 497.511
v 683.947 -87.635 497.511
v 683.947 348.730 -33.793
v 683.947 -87.635 -33.793
v 556.789 348.730 -33.793
v 556.789 -87.635 -33.793
v 663.735 251.503 497.511
v 663.735 -184.862 497.511
v 790.892 251.503 497.511
v 790.892 -184.862 497.511
v 790.892 251.503 -33.793
v 790.892 -184.862 -33.793
v 663.735 251.503 -33.793
v 771.338 144.412 497.511
v 771.338 -291.953 497.511
v 898.496 144.412 497.511
v 898.496 -291.953 497.511
v 898.496 144.412 -33.793
v 898.496 -291.953 -33.793
v 771.338 144.412 -33.793
v 882.913 40.399 497.511
v 882.913 -395.966 497.511
v 1010.071 40.399 497.511
v 1010.071 -395.966 497.511
v 1010.071 40.399 -33.793
v 1010.071 -395.966 -33.793
v 882.913 40.399 -33.793
v 989.468 -65.686 497.511
v 989.468 -502.051 497.511
v 1116.626 -65.686 497.511
v 1116.626 -502.051 497.511
v 1116.626 -65.686 -33.793
v 1116.626 -502.051 -33.793
v 989.468 -65.686 -33.793
v -580.101 410.044 -807.218
v -580.101 -131.575 -807.218
v -580.101 410.044 -24.891
v -580.101 -131.575 -24.891
v 1223.233 1301.654 -402.386
v 1223.233 892.789 21.368
v 1249.766 1301.654 -402.386
v 1249.766 892.789 21.368
v 1249.766 1301.654 -427.471
v 1249.766 892.789 -835.590
v 1223.233 1301.654 -427.471
v 1223.233 892.789 -835.590
v 567.196 1573.183 -145.260
v 567.196 920.003 529.580
v 567.196 1573.183 -169.854
v 567.196 920.003 -819.995
v -580.668 1573.183 -145.260
v -580.668 920.003 529.580
v -580.668 1573.183 -169.854
v -580.668 920.003 -819.995

# Normal Array
vn -0.000 0.000 1.000
vn 0.000 0.000 1.000
vn 1.000 0.000 0.000
vn 1.000 0.000 0.000
vn -1.000 0.000 0.000
vn -1.000 0.000 0.000
vn 0.000 1.000 0.000
vn 0.000 1.000 0.000
vn 1.000 0.000 0.000
vn 1.000 0.000 0.000
vn -0.000 0.000 -1.000
vn 0.000 0.000 -1.000
vn -1.000 0.000 0.000
vn -1.000 0.000 0.000
vn 0.000 1.000 0.000
vn 0.000 1.000 0.000
vn -0.000 0.000 1.000
vn 0.000 0.000 1.000
vn 1.000 0.000 0.000
vn 1.000 0.000 0.000
vn -1.000 0.000 0.000
vn -1.000 0.000 0.000
vn 0.000 1.000 0.000
vn 0.000 1.000 0.000
vn 0.000 -1.000 0.000
vn 0.000 -1.000 0.000
vn 1.000 0.000 0.000
vn 1.000 0.000 0.000
vn -0.000 0.000 -1.000
vn 0.000 0.000 -1.000
vn -1.000 0.000 0.000
vn -1.000 0.000 0.000
vn 0.000 1.000 0.000
vn 0.000 1.000 0.000
vn 0.000 -1.000 0.000
vn 0.000 -1.000 0.000
vn -0.000 0.000 1.000
vn 0.000 0.000 1.000
vn 1.000 0.000 0.000
vn 1.000 0.000 0.000
vn -1.000 0.000 0.000
vn -1.000 0.000 0.000
vn 0.000 1.000 0.000
vn 0.000 1.000 0.000
vn 0.000 -1.000 0.000
vn 0.000 -1.000 0.000
vn -1.000 0.000 0.000
vn -1.000 0.000 0.000
vn -0.000 0.000 1.000
vn 0.000 0.000 1.000
vn 1.000 0.000 0.000
vn 1.000 0.000 0.000
vn 0.000 1.000 0.000
vn 0.000 1.000 0.000
vn 0.000 -1.000 0.000
vn 0.000 -1.000 -0.000
vn -0.000 0.000 1.000
vn 0.000 0.000 1.000
vn 1.000 0.000 0.000
vn 1.000 0.000 0.000
vn -1.000 0.000 0.000
vn -1.000 0.000 0.000
vn 0.000 1.000 0.000
vn 0.000 1.000 0.000
vn 0.000 -1.000 0.000
vn 0.000 -1.000 0.000
vn -1.000 0.000 0.000
vn -1.000 0.000 0.000
vn -0.000 0.000 1.000
vn 0.000 0.000 1.000
vn -0.000 0.000 -1.000
vn 0.000 0.000 -1.000
vn 0.000 1.000 -0.000
vn 0.000 1.000 0.000
vn 0.000 -1.000 0.000
vn 0.000 -1.000 -0.000
vn -0.000 0.000 1.000
vn 0.000 0.000 1.000
vn 1.000 0.000 0.000
vn 1.000 0.000 0.000
vn -0.000 0.000 -1.000
vn 0.000 0.000 -1.000
vn 0.000 1.000 -0.000
vn 0.000 1.000 0.000
vn -0.000 0.000 1.000
vn 0.000 0.000 1.000
vn 1.000 0.000 0.000
vn 1.000 0.000 0.000
vn -0.000 0.000 -1.000
vn 0.000 0.000 -1.000
vn -1.000 0.000 0.000
vn -1.000 0.000 0.000
vn 0.000 1.000 0.000
vn 0.000 1.000 0.000
vn -0.000 0.000 1.000
vn 0.000 0.000 1.000
vn 1.000 0.000 0.000
vn 1.000 0.000 0.000
vn 0.000 1.000 0.000
vn 0.000 1.000 0.000
vn -0.000 0.000 1.000
vn 0.000 0.000 1.000
vn 1.000 0.000 0.000
vn 1.000 0.000 0.000
vn 0.000 1.000 0.000
vn 0.000 1.000 0.000
vn -0.000 0.000 1.000
vn 0.000 0.000 1.000
vn 1.000 0.000 0.000
vn 1.000 0.000 0.000
vn 0.000 1.000 0.000
vn 0.000 1.000 0.000
vn -0.000 0.000 1.000
vn 0.000 0.000 1.000
vn 1.000 0.000 0.000
vn 1.000 0.000 0.000
vn 0.000 1.000 0.000
vn 0.000 1.000 0.000
vn -1.000 0.000 0.000
vn -1.000 0.000 0.000
vn -0.000 0.720 0.694
vn 0.000 0.720 0.694
vn 1.000 0.000 0.000
vn 1.000 0.000 0.000
vn 0.000 0.706 -0.708
vn 0.000 0.706 -0.708
vn -1.000 0.000 0.000
vn -1.000 0.000 0.000
vn 0.000 1.000 0.000
vn 0.000 1.000 0.000
vn 0.000 -1.000 0.000
vn 0.000 -1.000 0.000
vn 1.000 0.000 0.000
vn 1.000 0.000 0.000
vn -1.000 -0.000 0.000
vn -1.000 0.000 0.000

# Facets
f 1//1 4//1 3//1
f 4//2 1//2 2//2
f 3//3 6//3 5//3
f 6//4 3//4 4//4
f 7//5 2//5 1//5
f 2//6 7//6 8//6
f 7//7 3//7 5//7
f 3//8 7//8 1//8
f 11//9 14//9 13//9
f 14//10 11//10 12//10
f 13//11 16//11 15//11
f 16//12 13//12 14//12
f 15//13 10//13 9//13
f 10//14 15//14 16//14
f 15//15 11//15 13//15
f 11//16 15//16 9//16
f 17//17 20//17 19//17
f 20//18 17//18 18//18
f 19//19 22//19 21//19
f 22//20 19//20 20//20
f 23//21 18//21 17//21
f 18//22 23//22 24//22
f 23//23 19//23 21//23
f 19//24 23//24 17//24
f 18//25 22//25 20//25
f 22//26 18//26 24//26
f 27//27 30//27 29//27
f 30//28 27//28 28//28
f 29//29 32//29 31//29
f 32//30 29//30 30//30
f 31//31 26//31 25//31
f 26//32 31//32 32//32
f 31//33 27//33 29//33
f 27//34 31//34 25//34
f 26//35 30//35 28//35
f 30//36 26//36 32//36
f 33//37 36//37 35//37
f 36//38 33//38 34//38
f 35//39 38//39 37//39
f 38//40 35//40 36//40
f 39//41 34//41 33//41
f 34//42 39//42 40//42
f 39//43 35//43 37//43
f 35//44 39//44 33//44
f 34//45 38//45 36//45
f 38//46 34//46 40//46
f 43//47 42//47 41//47
f 42//48 43//48 44//48
f 47//49 50//49 49//49
f 50//50 47//50 48//50
f 49//51 52//51 51//51
f 52//52 49//52 50//52
f 51//53 47//53 49//53
f 47//54 51//54 45//54
f 46//55 50//55 48//55
f 50//56 46//56 52//56
f 53//57 56//57 55//57
f 56//58 53//58 54//58
f 55//59 58//59 57//59
f 58//60 55//60 56//60
f 59//61 54//61 53//61
f 54//62 59//62 60//62
f 59//63 55//63 57//63
f 55//64 59//64 53//64
f 54//65 58//65 56//65
f 58//66 54//66 60//66
f 61//67 64//67 63//67
f 64//68 61//68 62//68
f 63//69 66//69 65//69
f 66//70 63//70 64//70
f 67//71 62//71 61//71
f 62//72 67//72 68//72
f 67//73 63//73 65//73
f 63//74 67//74 61//74
f 62//75 66//75 64//75
f 66//76 62//76 68//76
f 71//77 74//77 73//77
f 74//78 71//78 72//78
f 73//79 76//79 75//79
f 76//80 73//80 74//80
f 75//81 70//81 69//81
f 70//82 75//82 76//82
f 75//83 71//83 73//83
f 71//84 75//84 69//84
f 77//85 80//85 79//85
f 80//86 77//86 78//86
f 79//87 82//87 81//87
f 82//88 79//88 80//88
f 81//89 84//89 83//89
f 84//90 81//90 82//90
f 83//91 78//91 77//91
f 78//92 83//92 84//92
f 83//93 79//93 81//93
f 79//94 83//94 77//94
f 85//95 88//95 87//95
f 88//96 85//96 86//96
f 87//97 90//97 89//97
f 90//98 87//98 88//98
f 91//99 87//99 89//99
f 87//100 91//100 85//100
f 92//101 95//101 94//101
f 95//102 92//102 93//102
f 94//103 97//103 96//103
f 97//104 94//104 95//104
f 98//105 94//105 96//105
f 94//106 98//106 92//106
f 99//107 102//107 101//107
f 102//108 99//108 100//108
f 101//109 104//109 103//109
f 104//110 101//110 102//110
f 105//111 101//111 103//111
f 101//112 105//112 99//112
f 106//113 109//113 108//113
f 109//114 106//114 107//114
f 108//115 111//115 110//115
f 111//116 108//116 109//116
f 112//117 108//117 110//117
f 108//118 112//118 106//118
f 113//119 116//119 115//119
f 116//120 113//120 114//120
f 117//121 120//121 119//121
f 120//122 117//122 118//122
f 119//123 122//123 121//123
f 122//124 119//124 120//124
f 121//125 124//125 123//125
f 124//126 121//126 122//126
f 123//127 118//127 117//127
f 118//128 123//128 124//128
f 123//129 119//129 121//129
f 119//130 123//130 117//130
f 118//131 122//131 120//131
f 122//132 118//132 124//132
f 125//133 128//133 127//133
f 128//134 125//134 126//134
f 129//135 132//135 130//135
f 132//136 129//136 131//136

# Thank you for using Spin 3D

