0
SECTION
2
ENTITIES
999
Created by Metasequoia
0
3DFACE
8
layer1
62
1
10
191.24411
20
124.04128
30
-449.82654
11
-191.24411
21
124.04128
31
-449.82654
12
-191.24411
22
108.86454
32
-449.82654
13
191.24411
23
108.86454
33
-449.82654
0
3DFACE
8
layer1
62
1
10
-191.24411
20
124.04128
30
-449.82654
11
-191.24411
21
124.04128
31
-465.00323
12
-191.24411
22
108.86454
32
-465.00323
13
-191.24411
23
108.86454
33
-449.82654
0
3DFACE
8
layer1
62
1
10
-191.24411
20
124.04128
30
-465.00323
11
191.24411
21
124.04128
31
-465.00323
12
191.24411
22
108.86454
32
-465.00323
13
-191.24411
23
108.86454
33
-465.00323
0
3DFACE
8
layer1
62
1
10
191.24411
20
124.04128
30
-465.00323
11
191.24411
21
124.04128
31
-449.82654
12
191.24411
22
108.86454
32
-449.82654
13
191.24411
23
108.86454
33
-465.00323
0
3DFACE
8
layer1
62
1
10
191.24411
20
124.04128
30
-465.00323
11
-191.24411
21
124.04128
31
-465.00323
12
-191.24411
22
124.04128
32
-449.82654
13
191.24411
23
124.04128
33
-449.82654
0
3DFACE
8
layer1
62
1
10
191.24411
20
108.86454
30
-449.82654
11
-191.24411
21
108.86454
31
-449.82654
12
-191.24411
22
108.86454
32
-465.00323
13
191.24411
23
108.86454
33
-465.00323
0
3DFACE
8
layer1
62
1
10
239.36472
20
264.72482
30
216.28503
11
-239.36472
21
264.72482
31
216.28503
12
-239.36472
22
227.84956
32
216.28503
13
239.36472
23
227.84956
33
216.28503
0
3DFACE
8
layer1
62
1
10
-239.36472
20
264.72482
30
216.28503
11
-239.36472
21
264.72482
31
179.40933
12
-239.36472
22
227.84956
32
179.40933
13
-239.36472
23
227.84956
33
216.28503
0
3DFACE
8
layer1
62
1
10
-239.36472
20
264.72482
30
179.40933
11
239.36472
21
264.72482
31
179.40933
12
239.36472
22
227.84956
32
179.40933
13
-239.36472
23
227.84956
33
179.40933
0
3DFACE
8
layer1
62
1
10
239.36472
20
264.72482
30
179.40933
11
239.36472
21
264.72482
31
216.28503
12
239.36472
22
227.84956
32
216.28503
13
239.36472
23
227.84956
33
179.40933
0
3DFACE
8
layer1
62
1
10
239.36472
20
264.72482
30
179.40933
11
-239.36472
21
264.72482
31
179.40933
12
-239.36472
22
264.72482
32
216.28503
13
239.36472
23
264.72482
33
216.28503
0
3DFACE
8
layer1
62
1
10
239.36472
20
227.84956
30
216.28503
11
-239.36472
21
227.84956
31
216.28503
12
-239.36472
22
227.84956
32
179.40933
13
239.36472
23
227.84956
33
179.40933
0
3DFACE
8
layer1
62
1
10
0.00000
20
737.79047
30
602.09058
11
-131.01282
21
662.15033
31
602.09058
12
-131.01282
22
662.15033
32
924.19128
13
0.00000
23
737.79047
33
924.19128
0
3DFACE
8
layer1
62
1
10
-131.01282
20
662.15033
30
602.09058
11
-131.01282
21
510.86957
31
602.09058
12
-131.01282
22
510.86957
32
924.19128
13
-131.01282
23
662.15033
33
924.19128
0
3DFACE
8
layer1
62
1
10
-131.01282
20
510.86957
30
602.09058
11
0.00001
21
435.22943
31
602.09058
12
0.00001
22
435.22943
32
924.19128
13
-131.01282
23
510.86957
33
924.19128
0
3DFACE
8
layer1
62
1
10
0.00001
20
435.22943
30
602.09058
11
131.01282
21
510.86957
31
602.09058
12
131.01282
22
510.86957
32
924.19128
13
0.00001
23
435.22943
33
924.19128
0
3DFACE
8
layer1
62
1
10
131.01282
20
510.86957
30
602.09058
11
131.01282
21
662.15033
31
602.09058
12
131.01282
22
662.15033
32
924.19128
13
131.01282
23
510.86957
33
924.19128
0
3DFACE
8
layer1
62
1
10
131.01282
20
662.15033
30
602.09058
11
0.00000
21
737.79047
31
602.09058
12
0.00000
22
737.79047
32
924.19128
13
131.01282
23
662.15033
33
924.19128
0
3DFACE
8
layer1
62
1
10
0.00000
20
586.50989
30
924.19128
11
0.00000
21
737.79047
31
924.19128
12
-131.01282
22
662.15033
32
924.19128
0
3DFACE
8
layer1
62
1
10
0.00000
20
586.50989
30
924.19128
11
-131.01282
21
662.15033
31
924.19128
12
-131.01282
22
510.86957
32
924.19128
0
3DFACE
8
layer1
62
1
10
0.00000
20
586.50989
30
924.19128
11
-131.01282
21
510.86957
31
924.19128
12
0.00001
22
435.22943
32
924.19128
0
3DFACE
8
layer1
62
1
10
0.00000
20
586.50989
30
924.19128
11
0.00001
21
435.22943
31
924.19128
12
131.01282
22
510.86957
32
924.19128
0
3DFACE
8
layer1
62
1
10
0.00000
20
586.50989
30
924.19128
11
131.01282
21
510.86957
31
924.19128
12
131.01282
22
662.15033
32
924.19128
0
3DFACE
8
layer1
62
1
10
0.00000
20
586.50989
30
924.19128
11
131.01282
21
662.15033
31
924.19128
12
0.00000
22
737.79047
32
924.19128
0
3DFACE
8
layer1
62
1
10
0.00000
20
737.79047
30
347.94696
11
-131.01282
21
662.15033
31
347.94696
12
-131.01282
22
662.15033
32
568.17181
13
0.00000
23
737.79047
33
568.17181
0
3DFACE
8
layer1
62
1
10
-131.01282
20
662.15033
30
347.94696
11
-131.01282
21
510.86957
31
347.94696
12
-131.01282
22
510.86957
32
568.17181
13
-131.01282
23
662.15033
33
568.17181
0
3DFACE
8
layer1
62
1
10
-131.01282
20
510.86957
30
347.94696
11
0.00001
21
435.22943
31
347.94696
12
0.00001
22
435.22943
32
568.17181
13
-131.01282
23
510.86957
33
568.17181
0
3DFACE
8
layer1
62
1
10
0.00001
20
435.22943
30
347.94696
11
131.01282
21
510.86957
31
347.94696
12
131.01282
22
510.86957
32
568.17181
13
0.00001
23
435.22943
33
568.17181
0
3DFACE
8
layer1
62
1
10
131.01282
20
510.86957
30
347.94696
11
131.01282
21
662.15033
31
347.94696
12
131.01282
22
662.15033
32
568.17181
13
131.01282
23
510.86957
33
568.17181
0
3DFACE
8
layer1
62
1
10
131.01282
20
662.15033
30
347.94696
11
0.00000
21
737.79047
31
347.94696
12
0.00000
22
737.79047
32
568.17181
13
131.01282
23
662.15033
33
568.17181
0
3DFACE
8
layer1
62
1
10
0.00000
20
737.79047
30
59.61846
11
-131.01282
21
662.15033
31
59.61846
12
-131.01282
22
662.15033
32
306.64404
13
0.00000
23
737.79047
33
306.64404
0
3DFACE
8
layer1
62
1
10
-131.01282
20
662.15033
30
59.61846
11
-131.01282
21
510.86957
31
59.61846
12
-131.01282
22
510.86957
32
306.64404
13
-131.01282
23
662.15033
33
306.64404
0
3DFACE
8
layer1
62
1
10
-131.01282
20
510.86957
30
59.61846
11
0.00001
21
435.22943
31
59.61846
12
0.00001
22
435.22943
32
306.64404
13
-131.01282
23
510.86957
33
306.64404
0
3DFACE
8
layer1
62
1
10
0.00001
20
435.22943
30
59.61846
11
131.01282
21
510.86957
31
59.61846
12
131.01282
22
510.86957
32
306.64404
13
0.00001
23
435.22943
33
306.64404
0
3DFACE
8
layer1
62
1
10
131.01282
20
510.86957
30
59.61846
11
131.01282
21
662.15033
31
59.61846
12
131.01282
22
662.15033
32
306.64404
13
131.01282
23
510.86957
33
306.64404
0
3DFACE
8
layer1
62
1
10
131.01282
20
662.15033
30
59.61846
11
0.00000
21
737.79047
31
59.61846
12
0.00000
22
737.79047
32
306.64404
13
131.01282
23
662.15033
33
306.64404
0
3DFACE
8
layer1
62
1
10
0.00000
20
737.79047
30
-216.19994
11
-131.01282
21
662.15033
31
-216.19994
12
-131.01282
22
662.15033
32
30.82566
13
0.00000
23
737.79047
33
30.82566
0
3DFACE
8
layer1
62
1
10
-131.01282
20
662.15033
30
-216.19994
11
-131.01282
21
510.86957
31
-216.19994
12
-131.01282
22
510.86957
32
30.82566
13
-131.01282
23
662.15033
33
30.82566
0
3DFACE
8
layer1
62
1
10
-131.01282
20
510.86957
30
-216.19994
11
0.00001
21
435.22943
31
-216.19994
12
0.00001
22
435.22943
32
30.82566
13
-131.01282
23
510.86957
33
30.82566
0
3DFACE
8
layer1
62
1
10
0.00001
20
435.22943
30
-216.19994
11
131.01282
21
510.86957
31
-216.19994
12
131.01282
22
510.86957
32
30.82566
13
0.00001
23
435.22943
33
30.82566
0
3DFACE
8
layer1
62
1
10
131.01282
20
510.86957
30
-216.19994
11
131.01282
21
662.15033
31
-216.19994
12
131.01282
22
662.15033
32
30.82566
13
131.01282
23
510.86957
33
30.82566
0
3DFACE
8
layer1
62
1
10
131.01282
20
662.15033
30
-216.19994
11
0.00000
21
737.79047
31
-216.19994
12
0.00000
22
737.79047
32
30.82566
13
131.01282
23
662.15033
33
30.82566
0
3DFACE
8
layer1
62
1
10
199.02875
20
589.09155
30
200.71390
11
-199.02875
21
589.09155
31
200.71390
12
-199.02875
22
552.21625
32
200.71390
13
199.02875
23
552.21625
33
200.71390
0
3DFACE
8
layer1
62
1
10
-199.02875
20
589.09155
30
200.71390
11
-199.02875
21
589.09155
31
163.83820
12
-199.02875
22
552.21625
32
163.83820
13
-199.02875
23
552.21625
33
200.71390
0
3DFACE
8
layer1
62
1
10
-199.02875
20
589.09155
30
163.83820
11
199.02875
21
589.09155
31
163.83820
12
199.02875
22
552.21625
32
163.83820
13
-199.02875
23
552.21625
33
163.83820
0
3DFACE
8
layer1
62
1
10
199.02875
20
589.09155
30
163.83820
11
199.02875
21
589.09155
31
200.71390
12
199.02875
22
552.21625
32
200.71390
13
199.02875
23
552.21625
33
163.83820
0
3DFACE
8
layer1
62
1
10
199.02875
20
589.09155
30
163.83820
11
-199.02875
21
589.09155
31
163.83820
12
-199.02875
22
589.09155
32
200.71390
13
199.02875
23
589.09155
33
200.71390
0
3DFACE
8
layer1
62
1
10
199.02875
20
552.21625
30
200.71390
11
-199.02875
21
552.21625
31
200.71390
12
-199.02875
22
552.21625
32
163.83820
13
199.02875
23
552.21625
33
163.83820
0
ENDSEC
0
EOF
