0
SECTION
2
ENTITIES
999
Created by Metasequoia
0
3DFACE
8
layer1
62
1
10
177.90596
20
532.08600
30
298.36993
11
150.29359
21
532.08600
31
298.36993
12
150.29359
22
303.39539
32
306.35596
13
177.90596
23
303.39539
33
306.35596
0
3DFACE
8
layer1
62
1
10
150.29359
20
532.08600
30
298.36993
11
150.29359
21
518.87012
31
-170.93837
12
150.29359
22
290.17923
32
-162.95233
13
150.29359
23
303.39539
33
306.35596
0
3DFACE
8
layer1
62
1
10
150.29359
20
518.87012
30
-170.93837
11
177.90596
21
518.87012
31
-170.93837
12
177.90596
22
290.17923
32
-162.95233
13
150.29359
23
290.17923
33
-162.95233
0
3DFACE
8
layer1
62
1
10
177.90596
20
518.87012
30
-170.93837
11
177.90596
21
532.08600
31
298.36993
12
177.90596
22
303.39539
32
306.35596
13
177.90596
23
290.17923
33
-162.95233
0
3DFACE
8
layer1
62
1
10
177.90596
20
518.87012
30
-170.93837
11
150.29359
21
518.87012
31
-170.93837
12
150.29359
22
532.08600
32
298.36993
13
177.90596
23
532.08600
33
298.36993
0
3DFACE
8
layer1
62
1
10
177.90596
20
303.39539
30
306.35596
11
150.29359
21
303.39539
31
306.35596
12
150.29359
22
290.17923
32
-162.95233
13
177.90596
23
290.17923
33
-162.95233
0
3DFACE
8
layer1
62
1
10
-177.90596
20
532.08600
30
298.36993
11
-177.90596
21
303.39539
31
306.35596
12
-150.29359
22
303.39539
32
306.35596
13
-150.29359
23
532.08600
33
298.36993
0
3DFACE
8
layer1
62
1
10
-150.29359
20
532.08600
30
298.36993
11
-150.29359
21
303.39539
31
306.35596
12
-150.29359
22
290.17923
32
-162.95233
13
-150.29359
23
518.87012
33
-170.93837
0
3DFACE
8
layer1
62
1
10
-150.29359
20
518.87012
30
-170.93837
11
-150.29359
21
290.17923
31
-162.95233
12
-177.90596
22
290.17923
32
-162.95233
13
-177.90596
23
518.87012
33
-170.93837
0
3DFACE
8
layer1
62
1
10
-177.90596
20
518.87012
30
-170.93837
11
-177.90596
21
290.17923
31
-162.95233
12
-177.90596
22
303.39539
32
306.35596
13
-177.90596
23
532.08600
33
298.36993
0
3DFACE
8
layer1
62
1
10
-177.90596
20
518.87012
30
-170.93837
11
-177.90596
21
532.08600
31
298.36993
12
-150.29359
22
532.08600
32
298.36993
13
-150.29359
23
518.87012
33
-170.93837
0
3DFACE
8
layer1
62
1
10
-177.90596
20
303.39539
30
306.35596
11
-177.90596
21
290.17923
31
-162.95233
12
-150.29359
22
290.17923
32
-162.95233
13
-150.29359
23
303.39539
33
306.35596
0
3DFACE
8
layer1
62
1
10
165.84354
20
421.78412
30
302.22180
11
-163.72308
21
421.78412
31
302.22180
12
-163.72308
22
303.39539
32
306.35596
13
165.84354
23
303.39539
33
306.35596
0
3DFACE
8
layer1
62
1
10
165.84354
20
408.56796
30
-167.08653
11
-163.72308
21
408.56796
31
-167.08653
12
-163.72308
22
421.78412
32
302.22180
13
165.84354
23
421.78412
33
302.22180
0
3DFACE
8
layer1
62
1
10
165.84354
20
303.39539
30
306.35596
11
-163.72308
21
303.39539
31
306.35596
12
-163.72308
22
290.17923
32
-162.95233
13
165.84354
23
290.17923
33
-162.95233
0
3DFACE
8
layer1
62
1
10
191.90596
20
441.40924
30
-138.09198
11
150.29359
21
441.40924
31
-138.09198
12
150.29359
22
291.23050
32
-132.84761
13
191.90596
23
291.23050
33
-132.84761
0
3DFACE
8
layer1
62
1
10
150.29359
20
441.40924
30
-138.09198
11
150.29359
21
433.42331
31
-366.78284
12
150.29359
22
245.84134
32
-391.19666
13
150.29359
23
291.23050
33
-132.84761
0
3DFACE
8
layer1
62
1
10
150.29359
20
433.42331
30
-366.78284
11
177.90596
21
433.42331
31
-366.78284
12
177.90596
22
245.84134
32
-391.19666
13
150.29359
23
245.84134
33
-391.19666
0
3DFACE
8
layer1
62
1
10
177.90596
20
433.42331
30
-366.78284
11
191.90596
21
441.40924
31
-138.09198
12
191.90596
22
291.23050
32
-132.84761
13
177.90596
23
245.84134
33
-391.19666
0
3DFACE
8
layer1
62
1
10
177.90596
20
433.42331
30
-366.78284
11
150.29359
21
433.42331
31
-366.78284
12
150.29359
22
441.40924
32
-138.09198
13
191.90596
23
441.40924
33
-138.09198
0
3DFACE
8
layer1
62
1
10
191.90596
20
291.23050
30
-132.84761
11
150.29359
21
291.23050
31
-132.84761
12
150.29359
22
245.84134
32
-391.19666
13
177.90596
23
245.84134
33
-391.19666
0
3DFACE
8
layer1
62
1
10
-191.90596
20
441.40924
30
-138.09198
11
-191.90596
21
291.23050
31
-132.84761
12
-150.29359
22
291.23050
32
-132.84761
13
-150.29359
23
441.40924
33
-138.09198
0
3DFACE
8
layer1
62
1
10
-150.29359
20
441.40924
30
-138.09198
11
-150.29359
21
291.23050
31
-132.84761
12
-150.29359
22
245.84134
32
-391.19666
13
-150.29359
23
433.42331
33
-366.78284
0
3DFACE
8
layer1
62
1
10
-150.29359
20
433.42331
30
-366.78284
11
-150.29359
21
245.84134
31
-391.19666
12
-177.90596
22
245.84134
32
-391.19666
13
-177.90596
23
433.42331
33
-366.78284
0
3DFACE
8
layer1
62
1
10
-177.90596
20
433.42331
30
-366.78284
11
-177.90596
21
245.84134
31
-391.19666
12
-191.90596
22
291.23050
32
-132.84761
13
-191.90596
23
441.40924
33
-138.09198
0
3DFACE
8
layer1
62
1
10
-177.90596
20
433.42331
30
-366.78284
11
-191.90596
21
441.40924
31
-138.09198
12
-150.29359
22
441.40924
32
-138.09198
13
-150.29359
23
433.42331
33
-366.78284
0
3DFACE
8
layer1
62
1
10
-191.90596
20
291.23050
30
-132.84761
11
-177.90596
21
245.84134
31
-391.19666
12
-150.29359
22
245.84134
32
-391.19666
13
-150.29359
23
291.23050
33
-132.84761
0
3DFACE
8
layer1
62
1
10
-163.72308
20
401.63309
30
-365.67273
11
165.84354
21
401.63309
31
-365.67273
12
165.84354
22
283.24438
32
-361.53839
13
-163.72308
23
283.24438
33
-361.53839
0
3DFACE
8
layer1
62
1
10
165.84354
20
401.63309
30
-365.67273
11
-163.72308
21
401.63309
31
-365.67273
12
-163.72308
22
409.61920
32
-136.98186
13
165.84354
23
409.61920
33
-136.98186
0
3DFACE
8
layer1
62
1
10
165.84354
20
291.23050
30
-132.84761
11
-163.72308
21
291.23050
31
-132.84761
12
-163.72308
22
283.24438
32
-361.53839
13
165.84354
23
283.24438
33
-361.53839
0
3DFACE
8
layer1
62
1
10
191.90596
20
378.11755
30
-354.94708
11
150.29359
21
378.11755
31
-354.94708
12
150.29359
22
163.94870
32
-347.46814
13
191.90596
23
163.94870
33
-347.46814
0
3DFACE
8
layer1
62
1
10
150.29359
20
378.11755
30
-354.94708
11
150.29359
21
349.70477
31
-562.22272
12
150.29359
22
156.68471
32
-555.48248
13
150.29359
23
163.94870
33
-347.46814
0
3DFACE
8
layer1
62
1
10
150.29359
20
349.70477
30
-562.22272
11
177.90596
21
349.70477
31
-562.22272
12
177.90596
22
156.68471
32
-555.48248
13
150.29359
23
156.68471
33
-555.48248
0
3DFACE
8
layer1
62
1
10
177.90596
20
349.70477
30
-562.22272
11
191.90596
21
378.11755
31
-354.94708
12
191.90596
22
163.94870
32
-347.46814
13
177.90596
23
156.68471
33
-555.48248
0
3DFACE
8
layer1
62
1
10
177.90596
20
349.70477
30
-562.22272
11
150.29359
21
349.70477
31
-562.22272
12
150.29359
22
378.11755
32
-354.94708
13
191.90596
23
378.11755
33
-354.94708
0
3DFACE
8
layer1
62
1
10
-191.90596
20
378.11755
30
-354.94708
11
-191.90596
21
163.94870
31
-347.46814
12
-150.29359
22
163.94870
32
-347.46814
13
-150.29359
23
378.11755
33
-354.94708
0
3DFACE
8
layer1
62
1
10
-150.29359
20
378.11755
30
-354.94708
11
-150.29359
21
163.94870
31
-347.46814
12
-150.29359
22
156.68471
32
-555.48248
13
-150.29359
23
349.70477
33
-562.22272
0
3DFACE
8
layer1
62
1
10
-150.29359
20
349.70477
30
-562.22272
11
-150.29359
21
156.68471
31
-555.48248
12
-177.90596
22
156.68471
32
-555.48248
13
-177.90596
23
349.70477
33
-562.22272
0
3DFACE
8
layer1
62
1
10
-177.90596
20
349.70477
30
-562.22272
11
-177.90596
21
156.68471
31
-555.48248
12
-191.90596
22
163.94870
32
-347.46814
13
-191.90596
23
378.11755
33
-354.94708
0
3DFACE
8
layer1
62
1
10
-177.90596
20
349.70477
30
-562.22272
11
-191.90596
21
378.11755
31
-354.94708
12
-150.29359
22
378.11755
32
-354.94708
13
-150.29359
23
349.70477
33
-562.22272
0
3DFACE
8
layer1
62
1
10
150.29359
20
91.59090
30
-377.79480
11
177.90596
21
91.59090
31
-377.79480
12
191.90596
22
163.94870
32
-347.46814
13
150.29359
23
163.94870
33
-347.46814
0
3DFACE
8
layer1
62
1
10
150.29359
20
86.61861
30
-520.18225
11
150.29359
21
91.59090
31
-377.79480
12
150.29359
22
163.94870
32
-347.46814
13
150.29359
23
156.68471
33
-555.48248
0
3DFACE
8
layer1
62
1
10
177.90596
20
86.61861
30
-520.18225
11
150.29359
21
86.61861
31
-520.18225
12
150.29359
22
156.68471
32
-555.48248
13
177.90596
23
156.68471
33
-555.48248
0
3DFACE
8
layer1
62
1
10
177.90596
20
91.59090
30
-377.79480
11
177.90596
21
86.61861
31
-520.18225
12
177.90596
22
156.68471
32
-555.48248
13
191.90596
23
163.94870
33
-347.46814
0
3DFACE
8
layer1
62
1
10
177.90596
20
91.59090
30
-377.79480
11
150.29359
21
91.59090
31
-377.79480
12
150.29359
22
86.61861
32
-520.18225
13
177.90596
23
86.61861
33
-520.18225
0
3DFACE
8
layer1
62
1
10
-177.90596
20
86.61861
30
-520.18225
11
-177.90596
21
91.59090
31
-377.79480
12
-191.90596
22
163.94870
32
-347.46814
13
-177.90596
23
156.68471
33
-555.48248
0
3DFACE
8
layer1
62
1
10
-150.29359
20
86.61861
30
-520.18225
11
-177.90596
21
86.61861
31
-520.18225
12
-177.90596
22
156.68471
32
-555.48248
13
-150.29359
23
156.68471
33
-555.48248
0
3DFACE
8
layer1
62
1
10
-150.29359
20
91.59090
30
-377.79480
11
-150.29359
21
86.61861
31
-520.18225
12
-150.29359
22
156.68471
32
-555.48248
13
-150.29359
23
163.94870
33
-347.46814
0
3DFACE
8
layer1
62
1
10
-177.90596
20
91.59090
30
-377.79480
11
-150.29359
21
91.59090
31
-377.79480
12
-150.29359
22
163.94870
32
-347.46814
13
-191.90596
23
163.94870
33
-347.46814
0
3DFACE
8
layer1
62
1
10
-177.90596
20
91.59090
30
-377.79480
11
-177.90596
21
86.61861
31
-520.18225
12
-150.29359
22
86.61861
32
-520.18225
13
-150.29359
23
91.59090
33
-377.79480
0
3DFACE
8
layer1
62
1
10
-177.90596
20
332.43695
30
283.74518
11
-177.90596
21
230.23880
31
250.91441
12
-150.29359
22
230.23880
32
250.91441
13
-150.29359
23
332.43695
33
283.74518
0
3DFACE
8
layer1
62
1
10
-150.29359
20
332.43695
30
283.74518
11
-150.29359
21
230.23880
31
250.91441
12
-150.29359
22
226.10440
32
132.52078
13
-150.29359
23
325.76340
33
92.64095
0
3DFACE
8
layer1
62
1
10
-150.29359
20
325.76340
30
92.64095
11
-150.29359
21
226.10440
31
132.52078
12
-177.90596
22
226.10440
32
132.52078
13
-177.90596
23
325.76340
33
92.64095
0
3DFACE
8
layer1
62
1
10
-177.90596
20
325.76340
30
92.64095
11
-177.90596
21
226.10440
31
132.52078
12
-177.90596
22
230.23880
32
250.91441
13
-177.90596
23
332.43695
33
283.74518
0
3DFACE
8
layer1
62
1
10
-177.90596
20
230.23880
30
250.91441
11
-177.90596
21
226.10440
31
132.52078
12
-150.29359
22
226.10440
32
132.52078
13
-150.29359
23
230.23880
33
250.91441
0
3DFACE
8
layer1
62
1
10
177.90596
20
332.43695
30
283.74518
11
150.29359
21
332.43695
31
283.74518
12
150.29359
22
230.23880
32
250.91441
13
177.90596
23
230.23880
33
250.91441
0
3DFACE
8
layer1
62
1
10
150.29359
20
332.43695
30
283.74518
11
150.29359
21
325.76340
31
92.64095
12
150.29359
22
226.10440
32
132.52078
13
150.29359
23
230.23880
33
250.91441
0
3DFACE
8
layer1
62
1
10
150.29359
20
325.76340
30
92.64095
11
177.90596
21
325.76340
31
92.64095
12
177.90596
22
226.10440
32
132.52078
13
150.29359
23
226.10440
33
132.52078
0
3DFACE
8
layer1
62
1
10
177.90596
20
325.76340
30
92.64095
11
177.90596
21
332.43695
31
283.74518
12
177.90596
22
230.23880
32
250.91441
13
177.90596
23
226.10440
33
132.52078
0
3DFACE
8
layer1
62
1
10
177.90596
20
230.23880
30
250.91441
11
150.29359
21
230.23880
31
250.91441
12
150.29359
22
226.10440
32
132.52078
13
177.90596
23
226.10440
33
132.52078
0
3DFACE
8
layer1
62
1
10
-191.90596
20
507.67896
30
86.28831
11
-177.90596
21
609.87720
31
119.11919
12
-150.29359
22
609.87720
32
119.11919
13
-150.29359
23
507.67896
33
86.28831
0
3DFACE
8
layer1
62
1
10
-150.29359
20
507.67896
30
86.28831
11
-150.29359
21
609.87720
31
119.11919
12
-150.29359
22
614.01160
32
237.51283
13
-150.29359
23
514.35260
33
277.39264
0
3DFACE
8
layer1
62
1
10
-150.29359
20
514.35260
30
277.39264
11
-150.29359
21
614.01160
31
237.51283
12
-177.90596
22
614.01160
32
237.51283
13
-191.90596
23
514.35260
33
277.39264
0
3DFACE
8
layer1
62
1
10
-191.90596
20
514.35260
30
277.39264
11
-177.90596
21
614.01160
31
237.51283
12
-177.90596
22
609.87720
32
119.11919
13
-191.90596
23
507.67896
33
86.28831
0
3DFACE
8
layer1
62
1
10
-177.90596
20
609.87720
30
119.11919
11
-177.90596
21
614.01160
31
237.51283
12
-150.29359
22
614.01160
32
237.51283
13
-150.29359
23
609.87720
33
119.11919
0
3DFACE
8
layer1
62
1
10
191.90596
20
507.67896
30
86.28831
11
150.29359
21
507.67896
31
86.28831
12
150.29359
22
609.87720
32
119.11919
13
177.90596
23
609.87720
33
119.11919
0
3DFACE
8
layer1
62
1
10
150.29359
20
507.67896
30
86.28831
11
150.29359
21
514.35260
31
277.39264
12
150.29359
22
614.01160
32
237.51283
13
150.29359
23
609.87720
33
119.11919
0
3DFACE
8
layer1
62
1
10
150.29359
20
514.35260
30
277.39264
11
191.90596
21
514.35260
31
277.39264
12
177.90596
22
614.01160
32
237.51283
13
150.29359
23
614.01160
33
237.51283
0
3DFACE
8
layer1
62
1
10
191.90596
20
514.35260
30
277.39264
11
191.90596
21
507.67896
31
86.28831
12
177.90596
22
609.87720
32
119.11919
13
177.90596
23
614.01160
33
237.51283
0
3DFACE
8
layer1
62
1
10
177.90596
20
609.87720
30
119.11919
11
150.29359
21
609.87720
31
119.11919
12
150.29359
22
614.01160
32
237.51283
13
177.90596
23
614.01160
33
237.51283
0
3DFACE
8
layer1
62
1
10
209.80630
20
39.46936
30
195.92554
11
187.46640
21
0.77541
31
195.92554
12
187.46640
22
72.55232
32
369.20993
13
209.80630
23
99.91293
33
341.84921
0
3DFACE
8
layer1
62
1
10
187.46640
20
0.77541
30
195.92554
11
232.14624
21
0.77541
31
195.92554
12
232.14624
22
72.55232
32
369.20993
13
187.46640
23
72.55232
33
369.20993
0
3DFACE
8
layer1
62
1
10
232.14624
20
0.77541
30
195.92554
11
209.80630
21
39.46936
31
195.92554
12
209.80630
22
99.91293
32
341.84921
13
232.14624
23
72.55232
33
369.20993
0
3DFACE
8
layer1
62
1
10
209.80630
20
99.91293
30
341.84921
11
187.46640
21
72.55232
31
369.20993
12
187.46640
22
245.83679
32
440.98685
13
209.80630
23
245.83679
33
402.29282
0
3DFACE
8
layer1
62
1
10
187.46640
20
72.55232
30
369.20993
11
232.14624
21
72.55232
31
369.20993
12
232.14624
22
245.83679
32
440.98685
13
187.46640
23
245.83679
33
440.98685
0
3DFACE
8
layer1
62
1
10
232.14624
20
72.55232
30
369.20993
11
209.80630
21
99.91293
31
341.84921
12
209.80630
22
245.83679
32
402.29282
13
232.14624
23
245.83679
33
440.98685
0
3DFACE
8
layer1
62
1
10
209.80630
20
245.83679
30
402.29282
11
187.46640
21
245.83679
31
440.98685
12
187.46640
22
419.12091
32
369.20993
13
209.80630
23
391.76038
33
341.84921
0
3DFACE
8
layer1
62
1
10
187.46640
20
245.83679
30
440.98685
11
232.14624
21
245.83679
31
440.98685
12
232.14624
22
419.12091
32
369.20993
13
187.46640
23
419.12091
33
369.20993
0
3DFACE
8
layer1
62
1
10
232.14624
20
245.83679
30
440.98685
11
209.80630
21
245.83679
31
402.29282
12
209.80630
22
391.76038
32
341.84921
13
232.14624
23
419.12091
33
369.20993
0
3DFACE
8
layer1
62
1
10
209.80630
20
391.76038
30
341.84921
11
187.46640
21
419.12091
31
369.20993
12
187.46640
22
490.89752
32
195.92551
13
209.80630
23
452.20367
33
195.92552
0
3DFACE
8
layer1
62
1
10
187.46640
20
419.12091
30
369.20993
11
232.14624
21
419.12091
31
369.20993
12
232.14624
22
490.89752
32
195.92551
13
187.46640
23
490.89752
33
195.92551
0
3DFACE
8
layer1
62
1
10
232.14624
20
419.12091
30
369.20993
11
209.80630
21
391.76038
31
341.84921
12
209.80630
22
452.20367
32
195.92552
13
232.14624
23
490.89752
33
195.92551
0
3DFACE
8
layer1
62
1
10
209.80630
20
452.20367
30
195.92552
11
187.46640
21
490.89752
31
195.92551
12
187.46640
22
419.12091
32
22.64110
13
209.80630
23
391.76013
33
50.00185
0
3DFACE
8
layer1
62
1
10
187.46640
20
490.89752
30
195.92551
11
232.14624
21
490.89752
31
195.92551
12
232.14624
22
419.12091
32
22.64110
13
187.46640
23
419.12091
33
22.64110
0
3DFACE
8
layer1
62
1
10
232.14624
20
490.89752
30
195.92551
11
209.80630
21
452.20367
31
195.92552
12
209.80630
22
391.76013
32
50.00185
13
232.14624
23
419.12091
33
22.64110
0
3DFACE
8
layer1
62
1
10
209.80630
20
391.76013
30
50.00185
11
187.46640
21
419.12091
31
22.64110
12
187.46640
22
245.83679
32
-49.13576
13
209.80630
23
245.83679
33
-10.44176
0
3DFACE
8
layer1
62
1
10
187.46640
20
419.12091
30
22.64110
11
232.14624
21
419.12091
31
22.64110
12
232.14624
22
245.83679
32
-49.13576
13
187.46640
23
245.83679
33
-49.13576
0
3DFACE
8
layer1
62
1
10
232.14624
20
419.12091
30
22.64110
11
209.80630
21
391.76013
31
50.00185
12
209.80630
22
245.83679
32
-10.44176
13
232.14624
23
245.83679
33
-49.13576
0
3DFACE
8
layer1
62
1
10
209.80630
20
245.83679
30
-10.44176
11
187.46640
21
245.83679
31
-49.13576
12
187.46640
22
72.55232
32
22.64110
13
209.80630
23
99.91293
33
50.00186
0
3DFACE
8
layer1
62
1
10
187.46640
20
245.83679
30
-49.13576
11
232.14624
21
245.83679
31
-49.13576
12
232.14624
22
72.55232
32
22.64110
13
187.46640
23
72.55232
33
22.64110
0
3DFACE
8
layer1
62
1
10
232.14624
20
245.83679
30
-49.13576
11
209.80630
21
245.83679
31
-10.44176
12
209.80630
22
99.91293
32
50.00186
13
232.14624
23
72.55232
33
22.64110
0
3DFACE
8
layer1
62
1
10
209.80630
20
99.91293
30
50.00186
11
187.46640
21
72.55232
31
22.64110
12
187.46640
22
0.77541
32
195.92554
13
209.80630
23
39.46936
33
195.92554
0
3DFACE
8
layer1
62
1
10
187.46640
20
72.55232
30
22.64110
11
232.14624
21
72.55232
31
22.64110
12
232.14624
22
0.77541
32
195.92554
13
187.46640
23
0.77541
33
195.92554
0
3DFACE
8
layer1
62
1
10
232.14624
20
72.55232
30
22.64110
11
209.80630
21
99.91293
31
50.00186
12
209.80630
22
39.46936
32
195.92554
13
232.14624
23
0.77541
33
195.92554
0
3DFACE
8
layer1
62
1
10
-209.80630
20
39.46936
30
195.92554
11
-209.80630
21
99.91293
31
341.84921
12
-187.46640
22
72.55232
32
369.20993
13
-187.46640
23
0.77541
33
195.92554
0
3DFACE
8
layer1
62
1
10
-187.46640
20
0.77541
30
195.92554
11
-187.46640
21
72.55232
31
369.20993
12
-232.14624
22
72.55232
32
369.20993
13
-232.14624
23
0.77541
33
195.92554
0
3DFACE
8
layer1
62
1
10
-232.14624
20
0.77541
30
195.92554
11
-232.14624
21
72.55232
31
369.20993
12
-209.80630
22
99.91293
32
341.84921
13
-209.80630
23
39.46936
33
195.92554
0
3DFACE
8
layer1
62
1
10
-209.80630
20
99.91293
30
341.84921
11
-209.80630
21
245.83679
31
402.29282
12
-187.46640
22
245.83679
32
440.98685
13
-187.46640
23
72.55232
33
369.20993
0
3DFACE
8
layer1
62
1
10
-187.46640
20
72.55232
30
369.20993
11
-187.46640
21
245.83679
31
440.98685
12
-232.14624
22
245.83679
32
440.98685
13
-232.14624
23
72.55232
33
369.20993
0
3DFACE
8
layer1
62
1
10
-232.14624
20
72.55232
30
369.20993
11
-232.14624
21
245.83679
31
440.98685
12
-209.80630
22
245.83679
32
402.29282
13
-209.80630
23
99.91293
33
341.84921
0
3DFACE
8
layer1
62
1
10
-209.80630
20
245.83679
30
402.29282
11
-209.80630
21
391.76038
31
341.84921
12
-187.46640
22
419.12091
32
369.20993
13
-187.46640
23
245.83679
33
440.98685
0
3DFACE
8
layer1
62
1
10
-187.46640
20
245.83679
30
440.98685
11
-187.46640
21
419.12091
31
369.20993
12
-232.14624
22
419.12091
32
369.20993
13
-232.14624
23
245.83679
33
440.98685
0
3DFACE
8
layer1
62
1
10
-232.14624
20
245.83679
30
440.98685
11
-232.14624
21
419.12091
31
369.20993
12
-209.80630
22
391.76038
32
341.84921
13
-209.80630
23
245.83679
33
402.29282
0
3DFACE
8
layer1
62
1
10
-209.80630
20
391.76038
30
341.84921
11
-209.80630
21
452.20367
31
195.92552
12
-187.46640
22
490.89752
32
195.92551
13
-187.46640
23
419.12091
33
369.20993
0
3DFACE
8
layer1
62
1
10
-187.46640
20
419.12091
30
369.20993
11
-187.46640
21
490.89752
31
195.92551
12
-232.14624
22
490.89752
32
195.92551
13
-232.14624
23
419.12091
33
369.20993
0
3DFACE
8
layer1
62
1
10
-232.14624
20
419.12091
30
369.20993
11
-232.14624
21
490.89752
31
195.92551
12
-209.80630
22
452.20367
32
195.92552
13
-209.80630
23
391.76038
33
341.84921
0
3DFACE
8
layer1
62
1
10
-209.80630
20
452.20367
30
195.92552
11
-209.80630
21
391.76013
31
50.00185
12
-187.46640
22
419.12091
32
22.64110
13
-187.46640
23
490.89752
33
195.92551
0
3DFACE
8
layer1
62
1
10
-187.46640
20
490.89752
30
195.92551
11
-187.46640
21
419.12091
31
22.64110
12
-232.14624
22
419.12091
32
22.64110
13
-232.14624
23
490.89752
33
195.92551
0
3DFACE
8
layer1
62
1
10
-232.14624
20
490.89752
30
195.92551
11
-232.14624
21
419.12091
31
22.64110
12
-209.80630
22
391.76013
32
50.00185
13
-209.80630
23
452.20367
33
195.92552
0
3DFACE
8
layer1
62
1
10
-209.80630
20
391.76013
30
50.00185
11
-209.80630
21
245.83679
31
-10.44176
12
-187.46640
22
245.83679
32
-49.13576
13
-187.46640
23
419.12091
33
22.64110
0
3DFACE
8
layer1
62
1
10
-187.46640
20
419.12091
30
22.64110
11
-187.46640
21
245.83679
31
-49.13576
12
-232.14624
22
245.83679
32
-49.13576
13
-232.14624
23
419.12091
33
22.64110
0
3DFACE
8
layer1
62
1
10
-232.14624
20
419.12091
30
22.64110
11
-232.14624
21
245.83679
31
-49.13576
12
-209.80630
22
245.83679
32
-10.44176
13
-209.80630
23
391.76013
33
50.00185
0
3DFACE
8
layer1
62
1
10
-209.80630
20
245.83679
30
-10.44176
11
-209.80630
21
99.91293
31
50.00186
12
-187.46640
22
72.55232
32
22.64110
13
-187.46640
23
245.83679
33
-49.13576
0
3DFACE
8
layer1
62
1
10
-187.46640
20
245.83679
30
-49.13576
11
-187.46640
21
72.55232
31
22.64110
12
-232.14624
22
72.55232
32
22.64110
13
-232.14624
23
245.83679
33
-49.13576
0
3DFACE
8
layer1
62
1
10
-232.14624
20
245.83679
30
-49.13576
11
-232.14624
21
72.55232
31
22.64110
12
-209.80630
22
99.91293
32
50.00186
13
-209.80630
23
245.83679
33
-10.44176
0
3DFACE
8
layer1
62
1
10
-209.80630
20
99.91293
30
50.00186
11
-209.80630
21
39.46936
31
195.92554
12
-187.46640
22
0.77541
32
195.92554
13
-187.46640
23
72.55232
33
22.64110
0
3DFACE
8
layer1
62
1
10
-187.46640
20
72.55232
30
22.64110
11
-187.46640
21
0.77541
31
195.92554
12
-232.14624
22
0.77541
32
195.92554
13
-232.14624
23
72.55232
33
22.64110
0
3DFACE
8
layer1
62
1
10
-232.14624
20
72.55232
30
22.64110
11
-232.14624
21
0.77541
31
195.92554
12
-209.80630
22
39.46936
32
195.92554
13
-209.80630
23
99.91293
33
50.00186
0
3DFACE
8
layer1
62
1
10
198.49722
20
245.83679
30
195.92554
11
198.49722
21
201.36945
31
240.39282
12
198.49722
22
245.83679
32
258.81177
0
3DFACE
8
layer1
62
1
10
198.49722
20
245.83679
30
195.92554
11
198.49722
21
182.95059
31
195.92554
12
198.49722
22
201.36945
32
240.39282
0
3DFACE
8
layer1
62
1
10
198.49722
20
245.83679
30
195.92554
11
198.49722
21
201.36945
31
151.45825
12
198.49722
22
182.95059
32
195.92554
0
3DFACE
8
layer1
62
1
10
198.49722
20
245.83679
30
195.92554
11
198.49722
21
245.83679
31
133.03932
12
198.49722
22
201.36945
32
151.45825
0
3DFACE
8
layer1
62
1
10
198.49722
20
245.83679
30
195.92554
11
198.49722
21
290.30402
31
151.45827
12
198.49722
22
245.83679
32
133.03932
0
3DFACE
8
layer1
62
1
10
198.49722
20
245.83679
30
195.92554
11
198.49722
21
308.72287
31
195.92554
12
198.49722
22
290.30402
32
151.45827
0
3DFACE
8
layer1
62
1
10
198.49722
20
245.83679
30
195.92554
11
198.49722
21
290.30402
31
240.39282
12
198.49722
22
308.72287
32
195.92554
0
3DFACE
8
layer1
62
1
10
198.49722
20
245.83679
30
195.92554
11
198.49722
21
245.83679
31
258.81177
12
198.49722
22
290.30402
32
240.39282
0
3DFACE
8
layer1
62
1
10
221.11542
20
245.83679
30
195.92554
11
221.11542
21
245.83679
31
258.81177
12
221.11542
22
201.36945
32
240.39282
0
3DFACE
8
layer1
62
1
10
221.11542
20
245.83679
30
195.92554
11
221.11542
21
201.36945
31
240.39282
12
221.11542
22
182.95059
32
195.92554
0
3DFACE
8
layer1
62
1
10
221.11542
20
245.83679
30
195.92554
11
221.11542
21
182.95059
31
195.92554
12
221.11542
22
201.36945
32
151.45825
0
3DFACE
8
layer1
62
1
10
221.11542
20
245.83679
30
195.92554
11
221.11542
21
201.36945
31
151.45825
12
221.11542
22
245.83679
32
133.03932
0
3DFACE
8
layer1
62
1
10
221.11542
20
245.83679
30
195.92554
11
221.11542
21
245.83679
31
133.03932
12
221.11542
22
290.30402
32
151.45827
0
3DFACE
8
layer1
62
1
10
221.11542
20
245.83679
30
195.92554
11
221.11542
21
290.30402
31
151.45827
12
221.11542
22
308.72287
32
195.92554
0
3DFACE
8
layer1
62
1
10
221.11542
20
245.83679
30
195.92554
11
221.11542
21
308.72287
31
195.92554
12
221.11542
22
290.30402
32
240.39282
0
3DFACE
8
layer1
62
1
10
221.11542
20
245.83679
30
195.92554
11
221.11542
21
290.30402
31
240.39282
12
221.11542
22
245.83679
32
258.81177
0
3DFACE
8
layer1
62
1
10
201.88986
20
144.90488
30
395.57639
11
201.88986
21
176.03195
31
408.46970
12
198.49722
22
245.83679
32
258.81177
13
198.49722
23
201.36945
33
240.39282
0
3DFACE
8
layer1
62
1
10
217.72272
20
144.90488
30
395.57639
11
201.88986
21
144.90488
31
395.57639
12
198.49722
22
201.36945
32
240.39282
13
221.11542
23
201.36945
33
240.39282
0
3DFACE
8
layer1
62
1
10
217.72272
20
176.03195
30
408.46970
11
217.72272
21
144.90488
31
395.57639
12
221.11542
22
201.36945
32
240.39282
13
221.11542
23
245.83679
33
258.81177
0
3DFACE
8
layer1
62
1
10
201.88986
20
176.03195
30
408.46970
11
217.72272
21
176.03195
31
408.46970
12
221.11542
22
245.83679
32
258.81177
13
198.49722
23
245.83679
33
258.81177
0
3DFACE
8
layer1
62
1
10
201.88986
20
46.18581
30
94.99361
11
201.88986
21
33.29259
31
126.12070
12
198.49722
22
182.95059
32
195.92554
13
198.49722
23
201.36945
33
151.45825
0
3DFACE
8
layer1
62
1
10
217.72272
20
46.18581
30
94.99361
11
201.88986
21
46.18581
31
94.99361
12
198.49722
22
201.36945
32
151.45825
13
221.11542
23
201.36945
33
151.45825
0
3DFACE
8
layer1
62
1
10
217.72272
20
33.29259
30
126.12070
11
217.72272
21
46.18581
31
94.99361
12
221.11542
22
201.36945
32
151.45825
13
221.11542
23
182.95059
33
195.92554
0
3DFACE
8
layer1
62
1
10
201.88986
20
33.29259
30
126.12070
11
217.72272
21
33.29259
31
126.12070
12
221.11542
22
182.95059
32
195.92554
13
198.49722
23
182.95059
33
195.92554
0
3DFACE
8
layer1
62
1
10
201.88986
20
346.76874
30
-3.72528
11
201.88986
21
315.64154
31
-16.61864
12
198.49722
22
245.83679
32
133.03932
13
198.49722
23
290.30402
33
151.45827
0
3DFACE
8
layer1
62
1
10
217.72272
20
346.76874
30
-3.72528
11
201.88986
21
346.76874
31
-3.72528
12
198.49722
22
290.30402
32
151.45827
13
221.11542
23
290.30402
33
151.45827
0
3DFACE
8
layer1
62
1
10
217.72272
20
315.64154
30
-16.61864
11
217.72272
21
346.76874
31
-3.72528
12
221.11542
22
290.30402
32
151.45827
13
221.11542
23
245.83679
33
133.03932
0
3DFACE
8
layer1
62
1
10
201.88986
20
315.64154
30
-16.61864
11
217.72272
21
315.64154
31
-16.61864
12
221.11542
22
245.83679
32
133.03932
13
198.49722
23
245.83679
33
133.03932
0
3DFACE
8
layer1
62
1
10
201.88986
20
445.48721
30
296.85745
11
201.88986
21
458.38055
31
265.73038
12
198.49722
22
308.72287
32
195.92554
13
198.49722
23
290.30402
33
240.39282
0
3DFACE
8
layer1
62
1
10
217.72272
20
445.48721
30
296.85745
11
201.88986
21
445.48721
31
296.85745
12
198.49722
22
290.30402
32
240.39282
13
221.11542
23
290.30402
33
240.39282
0
3DFACE
8
layer1
62
1
10
217.72272
20
458.38055
30
265.73038
11
217.72272
21
445.48721
31
296.85745
12
221.11542
22
290.30402
32
240.39282
13
221.11542
23
308.72287
33
195.92554
0
3DFACE
8
layer1
62
1
10
201.88986
20
458.38055
30
265.73038
11
217.72272
21
458.38055
31
265.73038
12
221.11542
22
308.72287
32
195.92554
13
198.49722
23
308.72287
33
195.92554
0
3DFACE
8
layer1
62
1
10
201.88986
20
41.71317
30
262.24243
11
201.88986
21
54.60655
31
293.36954
12
198.49722
22
201.36945
32
240.39282
13
198.49722
23
182.95059
33
195.92554
0
3DFACE
8
layer1
62
1
10
217.72272
20
41.71317
30
262.24243
11
201.88986
21
41.71317
31
262.24243
12
198.49722
22
182.95059
32
195.92554
13
221.11542
23
182.95059
33
195.92554
0
3DFACE
8
layer1
62
1
10
217.72272
20
54.60655
30
293.36954
11
217.72272
21
41.71317
31
262.24243
12
221.11542
22
182.95059
32
195.92554
13
221.11542
23
201.36945
33
240.39282
0
3DFACE
8
layer1
62
1
10
201.88986
20
54.60655
30
293.36954
11
217.72272
21
54.60655
31
293.36954
12
221.11542
22
201.36945
32
240.39282
13
198.49722
23
201.36945
33
240.39282
0
3DFACE
8
layer1
62
1
10
201.88986
20
179.51984
30
-8.19794
11
201.88986
21
148.39276
31
4.69537
12
198.49722
22
201.36945
32
151.45825
13
198.49722
23
245.83679
33
133.03932
0
3DFACE
8
layer1
62
1
10
217.72272
20
179.51984
30
-8.19794
11
201.88986
21
179.51984
31
-8.19794
12
198.49722
22
245.83679
32
133.03932
13
221.11542
23
245.83679
33
133.03932
0
3DFACE
8
layer1
62
1
10
217.72272
20
148.39276
30
4.69537
11
217.72272
21
179.51984
31
-8.19794
12
221.11542
22
245.83679
32
133.03932
13
221.11542
23
201.36945
33
151.45825
0
3DFACE
8
layer1
62
1
10
201.88986
20
148.39276
30
4.69537
11
217.72272
21
148.39276
31
4.69537
12
221.11542
22
201.36945
32
151.45825
13
198.49722
23
201.36945
33
151.45825
0
3DFACE
8
layer1
62
1
10
201.86935
20
449.97656
30
129.64850
11
201.86935
21
437.05014
31
98.44173
12
198.49722
22
290.30402
32
151.45827
13
198.49722
23
308.72287
33
195.92554
0
3DFACE
8
layer1
62
1
10
217.74329
20
449.97656
30
129.64850
11
201.86935
21
449.97656
31
129.64850
12
198.49722
22
308.72287
32
195.92554
13
221.11542
23
308.72287
33
195.92554
0
3DFACE
8
layer1
62
1
10
217.74329
20
437.05014
30
98.44173
11
217.74329
21
449.97656
31
129.64850
12
221.11542
22
308.72287
32
195.92554
13
221.11542
23
290.30402
33
151.45827
0
3DFACE
8
layer1
62
1
10
201.86935
20
437.05014
30
98.44173
11
217.74329
21
437.05014
31
98.44173
12
221.11542
22
290.30402
32
151.45827
13
198.49722
23
290.30402
33
151.45827
0
3DFACE
8
layer1
62
1
10
201.88986
20
312.15363
30
400.04898
11
201.88986
21
343.28070
31
387.15567
12
198.49722
22
290.30402
32
240.39282
13
198.49722
23
245.83679
33
258.81177
0
3DFACE
8
layer1
62
1
10
217.72272
20
312.15363
30
400.04898
11
201.88986
21
312.15363
31
400.04898
12
198.49722
22
245.83679
32
258.81177
13
221.11542
23
245.83679
33
258.81177
0
3DFACE
8
layer1
62
1
10
217.72272
20
343.28070
30
387.15567
11
217.72272
21
312.15363
31
400.04898
12
221.11542
22
245.83679
32
258.81177
13
221.11542
23
290.30402
33
240.39282
0
3DFACE
8
layer1
62
1
10
201.88986
20
343.28070
30
387.15567
11
217.72272
21
343.28070
31
387.15567
12
221.11542
22
290.30402
32
240.39282
13
198.49722
23
290.30402
33
240.39282
0
3DFACE
8
layer1
62
1
10
-198.49722
20
245.83679
30
195.92554
11
-198.49722
21
245.83679
31
258.81177
12
-198.49722
22
201.36945
32
240.39282
0
3DFACE
8
layer1
62
1
10
-198.49722
20
245.83679
30
195.92554
11
-198.49722
21
201.36945
31
240.39282
12
-198.49722
22
182.95059
32
195.92554
0
3DFACE
8
layer1
62
1
10
-198.49722
20
245.83679
30
195.92554
11
-198.49722
21
182.95059
31
195.92554
12
-198.49722
22
201.36945
32
151.45825
0
3DFACE
8
layer1
62
1
10
-198.49722
20
245.83679
30
195.92554
11
-198.49722
21
201.36945
31
151.45825
12
-198.49722
22
245.83679
32
133.03932
0
3DFACE
8
layer1
62
1
10
-198.49722
20
245.83679
30
195.92554
11
-198.49722
21
245.83679
31
133.03932
12
-198.49722
22
290.30402
32
151.45827
0
3DFACE
8
layer1
62
1
10
-198.49722
20
245.83679
30
195.92554
11
-198.49722
21
290.30402
31
151.45827
12
-198.49722
22
308.72287
32
195.92554
0
3DFACE
8
layer1
62
1
10
-198.49722
20
245.83679
30
195.92554
11
-198.49722
21
308.72287
31
195.92554
12
-198.49722
22
290.30402
32
240.39282
0
3DFACE
8
layer1
62
1
10
-198.49722
20
245.83679
30
195.92554
11
-198.49722
21
290.30402
31
240.39282
12
-198.49722
22
245.83679
32
258.81177
0
3DFACE
8
layer1
62
1
10
-221.11542
20
245.83679
30
195.92554
11
-221.11542
21
201.36945
31
240.39282
12
-221.11542
22
245.83679
32
258.81177
0
3DFACE
8
layer1
62
1
10
-221.11542
20
245.83679
30
195.92554
11
-221.11542
21
182.95059
31
195.92554
12
-221.11542
22
201.36945
32
240.39282
0
3DFACE
8
layer1
62
1
10
-221.11542
20
245.83679
30
195.92554
11
-221.11542
21
201.36945
31
151.45825
12
-221.11542
22
182.95059
32
195.92554
0
3DFACE
8
layer1
62
1
10
-221.11542
20
245.83679
30
195.92554
11
-221.11542
21
245.83679
31
133.03932
12
-221.11542
22
201.36945
32
151.45825
0
3DFACE
8
layer1
62
1
10
-221.11542
20
245.83679
30
195.92554
11
-221.11542
21
290.30402
31
151.45827
12
-221.11542
22
245.83679
32
133.03932
0
3DFACE
8
layer1
62
1
10
-221.11542
20
245.83679
30
195.92554
11
-221.11542
21
308.72287
31
195.92554
12
-221.11542
22
290.30402
32
151.45827
0
3DFACE
8
layer1
62
1
10
-221.11542
20
245.83679
30
195.92554
11
-221.11542
21
290.30402
31
240.39282
12
-221.11542
22
308.72287
32
195.92554
0
3DFACE
8
layer1
62
1
10
-221.11542
20
245.83679
30
195.92554
11
-221.11542
21
245.83679
31
258.81177
12
-221.11542
22
290.30402
32
240.39282
0
3DFACE
8
layer1
62
1
10
-201.88986
20
144.90488
30
395.57639
11
-198.49722
21
201.36945
31
240.39282
12
-198.49722
22
245.83679
32
258.81177
13
-201.88986
23
176.03195
33
408.46970
0
3DFACE
8
layer1
62
1
10
-217.72272
20
144.90488
30
395.57639
11
-221.11542
21
201.36945
31
240.39282
12
-198.49722
22
201.36945
32
240.39282
13
-201.88986
23
144.90488
33
395.57639
0
3DFACE
8
layer1
62
1
10
-217.72272
20
176.03195
30
408.46970
11
-221.11542
21
245.83679
31
258.81177
12
-221.11542
22
201.36945
32
240.39282
13
-217.72272
23
144.90488
33
395.57639
0
3DFACE
8
layer1
62
1
10
-201.88986
20
176.03195
30
408.46970
11
-198.49722
21
245.83679
31
258.81177
12
-221.11542
22
245.83679
32
258.81177
13
-217.72272
23
176.03195
33
408.46970
0
3DFACE
8
layer1
62
1
10
-201.88986
20
46.18581
30
94.99361
11
-198.49722
21
201.36945
31
151.45825
12
-198.49722
22
182.95059
32
195.92554
13
-201.88986
23
33.29259
33
126.12070
0
3DFACE
8
layer1
62
1
10
-217.72272
20
46.18581
30
94.99361
11
-221.11542
21
201.36945
31
151.45825
12
-198.49722
22
201.36945
32
151.45825
13
-201.88986
23
46.18581
33
94.99361
0
3DFACE
8
layer1
62
1
10
-217.72272
20
33.29259
30
126.12070
11
-221.11542
21
182.95059
31
195.92554
12
-221.11542
22
201.36945
32
151.45825
13
-217.72272
23
46.18581
33
94.99361
0
3DFACE
8
layer1
62
1
10
-201.88986
20
33.29259
30
126.12070
11
-198.49722
21
182.95059
31
195.92554
12
-221.11542
22
182.95059
32
195.92554
13
-217.72272
23
33.29259
33
126.12070
0
3DFACE
8
layer1
62
1
10
-201.88986
20
346.76874
30
-3.72528
11
-198.49722
21
290.30402
31
151.45827
12
-198.49722
22
245.83679
32
133.03932
13
-201.88986
23
315.64154
33
-16.61864
0
3DFACE
8
layer1
62
1
10
-217.72272
20
346.76874
30
-3.72528
11
-221.11542
21
290.30402
31
151.45827
12
-198.49722
22
290.30402
32
151.45827
13
-201.88986
23
346.76874
33
-3.72528
0
3DFACE
8
layer1
62
1
10
-217.72272
20
315.64154
30
-16.61864
11
-221.11542
21
245.83679
31
133.03932
12
-221.11542
22
290.30402
32
151.45827
13
-217.72272
23
346.76874
33
-3.72528
0
3DFACE
8
layer1
62
1
10
-201.88986
20
315.64154
30
-16.61864
11
-198.49722
21
245.83679
31
133.03932
12
-221.11542
22
245.83679
32
133.03932
13
-217.72272
23
315.64154
33
-16.61864
0
3DFACE
8
layer1
62
1
10
-201.88986
20
445.48721
30
296.85745
11
-198.49722
21
290.30402
31
240.39282
12
-198.49722
22
308.72287
32
195.92554
13
-201.88986
23
458.38055
33
265.73038
0
3DFACE
8
layer1
62
1
10
-217.72272
20
445.48721
30
296.85745
11
-221.11542
21
290.30402
31
240.39282
12
-198.49722
22
290.30402
32
240.39282
13
-201.88986
23
445.48721
33
296.85745
0
3DFACE
8
layer1
62
1
10
-217.72272
20
458.38055
30
265.73038
11
-221.11542
21
308.72287
31
195.92554
12
-221.11542
22
290.30402
32
240.39282
13
-217.72272
23
445.48721
33
296.85745
0
3DFACE
8
layer1
62
1
10
-201.88986
20
458.38055
30
265.73038
11
-198.49722
21
308.72287
31
195.92554
12
-221.11542
22
308.72287
32
195.92554
13
-217.72272
23
458.38055
33
265.73038
0
3DFACE
8
layer1
62
1
10
-201.88986
20
41.71317
30
262.24243
11
-198.49722
21
182.95059
31
195.92554
12
-198.49722
22
201.36945
32
240.39282
13
-201.88986
23
54.60655
33
293.36954
0
3DFACE
8
layer1
62
1
10
-217.72272
20
41.71317
30
262.24243
11
-221.11542
21
182.95059
31
195.92554
12
-198.49722
22
182.95059
32
195.92554
13
-201.88986
23
41.71317
33
262.24243
0
3DFACE
8
layer1
62
1
10
-217.72272
20
54.60655
30
293.36954
11
-221.11542
21
201.36945
31
240.39282
12
-221.11542
22
182.95059
32
195.92554
13
-217.72272
23
41.71317
33
262.24243
0
3DFACE
8
layer1
62
1
10
-201.88986
20
54.60655
30
293.36954
11
-198.49722
21
201.36945
31
240.39282
12
-221.11542
22
201.36945
32
240.39282
13
-217.72272
23
54.60655
33
293.36954
0
3DFACE
8
layer1
62
1
10
-201.88986
20
179.51984
30
-8.19794
11
-198.49722
21
245.83679
31
133.03932
12
-198.49722
22
201.36945
32
151.45825
13
-201.88986
23
148.39276
33
4.69537
0
3DFACE
8
layer1
62
1
10
-217.72272
20
179.51984
30
-8.19794
11
-221.11542
21
245.83679
31
133.03932
12
-198.49722
22
245.83679
32
133.03932
13
-201.88986
23
179.51984
33
-8.19794
0
3DFACE
8
layer1
62
1
10
-217.72272
20
148.39276
30
4.69537
11
-221.11542
21
201.36945
31
151.45825
12
-221.11542
22
245.83679
32
133.03932
13
-217.72272
23
179.51984
33
-8.19794
0
3DFACE
8
layer1
62
1
10
-201.88986
20
148.39276
30
4.69537
11
-198.49722
21
201.36945
31
151.45825
12
-221.11542
22
201.36945
32
151.45825
13
-217.72272
23
148.39276
33
4.69537
0
3DFACE
8
layer1
62
1
10
-201.86935
20
449.97656
30
129.64850
11
-198.49722
21
308.72287
31
195.92554
12
-198.49722
22
290.30402
32
151.45827
13
-201.86935
23
437.05014
33
98.44173
0
3DFACE
8
layer1
62
1
10
-217.74329
20
449.97656
30
129.64850
11
-221.11542
21
308.72287
31
195.92554
12
-198.49722
22
308.72287
32
195.92554
13
-201.86935
23
449.97656
33
129.64850
0
3DFACE
8
layer1
62
1
10
-217.74329
20
437.05014
30
98.44173
11
-221.11542
21
290.30402
31
151.45827
12
-221.11542
22
308.72287
32
195.92554
13
-217.74329
23
449.97656
33
129.64850
0
3DFACE
8
layer1
62
1
10
-201.86935
20
437.05014
30
98.44173
11
-198.49722
21
290.30402
31
151.45827
12
-221.11542
22
290.30402
32
151.45827
13
-217.74329
23
437.05014
33
98.44173
0
3DFACE
8
layer1
62
1
10
-201.88986
20
312.15363
30
400.04898
11
-198.49722
21
245.83679
31
258.81177
12
-198.49722
22
290.30402
32
240.39282
13
-201.88986
23
343.28070
33
387.15567
0
3DFACE
8
layer1
62
1
10
-217.72272
20
312.15363
30
400.04898
11
-221.11542
21
245.83679
31
258.81177
12
-198.49722
22
245.83679
32
258.81177
13
-201.88986
23
312.15363
33
400.04898
0
3DFACE
8
layer1
62
1
10
-217.72272
20
343.28070
30
387.15567
11
-221.11542
21
290.30402
31
240.39282
12
-221.11542
22
245.83679
32
258.81177
13
-217.72272
23
312.15363
33
400.04898
0
3DFACE
8
layer1
62
1
10
-201.88986
20
343.28070
30
387.15567
11
-198.49722
21
290.30402
31
240.39282
12
-221.11542
22
290.30402
32
240.39282
13
-217.72272
23
343.28070
33
387.15567
0
3DFACE
8
layer1
62
1
10
-132.79773
20
120.40854
30
-341.83499
11
-132.79773
21
37.14795
31
-372.96484
12
-61.92343
22
37.14798
32
-372.96484
13
-61.92343
23
120.40854
33
-341.83499
0
3DFACE
8
layer1
62
1
10
-132.79773
20
37.14795
30
-372.96484
11
-132.79771
21
0.28604
31
-453.85120
12
-61.92340
22
0.28607
32
-453.85120
13
-61.92343
23
37.14798
33
-372.96484
0
3DFACE
8
layer1
62
1
10
-132.79771
20
0.28604
30
-453.85120
11
-132.79773
21
31.41583
31
-537.11176
12
-61.92343
22
31.41586
32
-537.11176
13
-61.92340
23
0.28607
33
-453.85120
0
3DFACE
8
layer1
62
1
10
-132.79773
20
31.41583
30
-537.11176
11
-132.79773
21
112.30202
31
-573.97369
12
-61.92343
22
112.30203
32
-573.97369
13
-61.92343
23
31.41586
33
-537.11176
0
3DFACE
8
layer1
62
1
10
-132.79773
20
112.30202
30
-573.97369
11
-132.79773
21
195.56250
31
-542.84375
12
-61.92343
22
195.56250
32
-542.84375
13
-61.92343
23
112.30203
33
-573.97369
0
3DFACE
8
layer1
62
1
10
-132.79773
20
195.56250
30
-542.84375
11
-132.79776
21
232.42450
31
-461.95764
12
-61.92345
22
232.42456
32
-461.95764
13
-61.92343
23
195.56250
33
-542.84375
0
3DFACE
8
layer1
62
1
10
-132.79776
20
232.42450
30
-461.95764
11
-132.79773
21
201.29462
31
-378.69714
12
-61.92343
22
201.29462
32
-378.69714
13
-61.92345
23
232.42456
33
-461.95764
0
3DFACE
8
layer1
62
1
10
-132.79773
20
201.29462
30
-378.69714
11
-132.79773
21
120.40854
31
-341.83499
12
-61.92343
22
120.40854
32
-341.83499
13
-61.92343
23
201.29462
33
-378.69714
0
3DFACE
8
layer1
62
1
10
-132.79773
20
116.35524
30
-457.90436
11
-132.79773
21
37.14795
31
-372.96484
12
-132.79773
22
120.40854
32
-341.83499
0
3DFACE
8
layer1
62
1
10
-132.79773
20
116.35524
30
-457.90436
11
-132.79771
21
0.28604
31
-453.85120
12
-132.79773
22
37.14795
32
-372.96484
0
3DFACE
8
layer1
62
1
10
-132.79773
20
116.35524
30
-457.90436
11
-132.79773
21
31.41583
31
-537.11176
12
-132.79771
22
0.28604
32
-453.85120
0
3DFACE
8
layer1
62
1
10
-132.79773
20
116.35524
30
-457.90436
11
-132.79773
21
112.30202
31
-573.97369
12
-132.79773
22
31.41583
32
-537.11176
0
3DFACE
8
layer1
62
1
10
-132.79773
20
116.35524
30
-457.90436
11
-132.79773
21
195.56250
31
-542.84375
12
-132.79773
22
112.30202
32
-573.97369
0
3DFACE
8
layer1
62
1
10
-132.79773
20
116.35524
30
-457.90436
11
-132.79776
21
232.42450
31
-461.95764
12
-132.79773
22
195.56250
32
-542.84375
0
3DFACE
8
layer1
62
1
10
-132.79773
20
116.35524
30
-457.90436
11
-132.79773
21
201.29462
31
-378.69714
12
-132.79776
22
232.42450
32
-461.95764
0
3DFACE
8
layer1
62
1
10
-132.79773
20
116.35524
30
-457.90436
11
-132.79773
21
120.40854
31
-341.83499
12
-132.79773
22
201.29462
32
-378.69714
0
3DFACE
8
layer1
62
1
10
-61.92343
20
116.35524
30
-457.90436
11
-61.92343
21
120.40854
31
-341.83499
12
-61.92343
22
37.14798
32
-372.96484
0
3DFACE
8
layer1
62
1
10
-61.92343
20
116.35524
30
-457.90436
11
-61.92343
21
37.14798
31
-372.96484
12
-61.92340
22
0.28607
32
-453.85120
0
3DFACE
8
layer1
62
1
10
-61.92343
20
116.35524
30
-457.90436
11
-61.92340
21
0.28607
31
-453.85120
12
-61.92343
22
31.41586
32
-537.11176
0
3DFACE
8
layer1
62
1
10
-61.92343
20
116.35524
30
-457.90436
11
-61.92343
21
31.41586
31
-537.11176
12
-61.92343
22
112.30203
32
-573.97369
0
3DFACE
8
layer1
62
1
10
-61.92343
20
116.35524
30
-457.90436
11
-61.92343
21
112.30203
31
-573.97369
12
-61.92343
22
195.56250
32
-542.84375
0
3DFACE
8
layer1
62
1
10
-61.92343
20
116.35524
30
-457.90436
11
-61.92343
21
195.56250
31
-542.84375
12
-61.92345
22
232.42456
32
-461.95764
0
3DFACE
8
layer1
62
1
10
-61.92343
20
116.35524
30
-457.90436
11
-61.92345
21
232.42456
31
-461.95764
12
-61.92343
22
201.29462
32
-378.69714
0
3DFACE
8
layer1
62
1
10
-61.92343
20
116.35524
30
-457.90436
11
-61.92343
21
201.29462
31
-378.69714
12
-61.92343
22
120.40854
32
-341.83499
0
3DFACE
8
layer1
62
1
10
132.79773
20
120.40854
30
-341.83499
11
61.92343
21
120.40854
31
-341.83499
12
61.92343
22
37.14798
32
-372.96484
13
132.79773
23
37.14795
33
-372.96484
0
3DFACE
8
layer1
62
1
10
132.79773
20
37.14795
30
-372.96484
11
61.92343
21
37.14798
31
-372.96484
12
61.92340
22
0.28607
32
-453.85120
13
132.79771
23
0.28604
33
-453.85120
0
3DFACE
8
layer1
62
1
10
132.79771
20
0.28604
30
-453.85120
11
61.92340
21
0.28607
31
-453.85120
12
61.92343
22
31.41586
32
-537.11176
13
132.79773
23
31.41583
33
-537.11176
0
3DFACE
8
layer1
62
1
10
132.79773
20
31.41583
30
-537.11176
11
61.92343
21
31.41586
31
-537.11176
12
61.92343
22
112.30203
32
-573.97369
13
132.79773
23
112.30202
33
-573.97369
0
3DFACE
8
layer1
62
1
10
132.79773
20
112.30202
30
-573.97369
11
61.92343
21
112.30203
31
-573.97369
12
61.92343
22
195.56250
32
-542.84375
13
132.79773
23
195.56250
33
-542.84375
0
3DFACE
8
layer1
62
1
10
132.79773
20
195.56250
30
-542.84375
11
61.92343
21
195.56250
31
-542.84375
12
61.92345
22
232.42456
32
-461.95764
13
132.79776
23
232.42450
33
-461.95764
0
3DFACE
8
layer1
62
1
10
132.79776
20
232.42450
30
-461.95764
11
61.92345
21
232.42456
31
-461.95764
12
61.92343
22
201.29462
32
-378.69714
13
132.79773
23
201.29462
33
-378.69714
0
3DFACE
8
layer1
62
1
10
132.79773
20
201.29462
30
-378.69714
11
61.92343
21
201.29462
31
-378.69714
12
61.92343
22
120.40854
32
-341.83499
13
132.79773
23
120.40854
33
-341.83499
0
3DFACE
8
layer1
62
1
10
132.79773
20
116.35524
30
-457.90436
11
132.79773
21
120.40854
31
-341.83499
12
132.79773
22
37.14795
32
-372.96484
0
3DFACE
8
layer1
62
1
10
132.79773
20
116.35524
30
-457.90436
11
132.79773
21
37.14795
31
-372.96484
12
132.79771
22
0.28604
32
-453.85120
0
3DFACE
8
layer1
62
1
10
132.79773
20
116.35524
30
-457.90436
11
132.79771
21
0.28604
31
-453.85120
12
132.79773
22
31.41583
32
-537.11176
0
3DFACE
8
layer1
62
1
10
132.79773
20
116.35524
30
-457.90436
11
132.79773
21
31.41583
31
-537.11176
12
132.79773
22
112.30202
32
-573.97369
0
3DFACE
8
layer1
62
1
10
132.79773
20
116.35524
30
-457.90436
11
132.79773
21
112.30202
31
-573.97369
12
132.79773
22
195.56250
32
-542.84375
0
3DFACE
8
layer1
62
1
10
132.79773
20
116.35524
30
-457.90436
11
132.79773
21
195.56250
31
-542.84375
12
132.79776
22
232.42450
32
-461.95764
0
3DFACE
8
layer1
62
1
10
132.79773
20
116.35524
30
-457.90436
11
132.79776
21
232.42450
31
-461.95764
12
132.79773
22
201.29462
32
-378.69714
0
3DFACE
8
layer1
62
1
10
132.79773
20
116.35524
30
-457.90436
11
132.79773
21
201.29462
31
-378.69714
12
132.79773
22
120.40854
32
-341.83499
0
3DFACE
8
layer1
62
1
10
61.92343
20
116.35524
30
-457.90436
11
61.92343
21
37.14798
31
-372.96484
12
61.92343
22
120.40854
32
-341.83499
0
3DFACE
8
layer1
62
1
10
61.92343
20
116.35524
30
-457.90436
11
61.92340
21
0.28607
31
-453.85120
12
61.92343
22
37.14798
32
-372.96484
0
3DFACE
8
layer1
62
1
10
61.92343
20
116.35524
30
-457.90436
11
61.92343
21
31.41586
31
-537.11176
12
61.92340
22
0.28607
32
-453.85120
0
3DFACE
8
layer1
62
1
10
61.92343
20
116.35524
30
-457.90436
11
61.92343
21
112.30203
31
-573.97369
12
61.92343
22
31.41586
32
-537.11176
0
3DFACE
8
layer1
62
1
10
61.92343
20
116.35524
30
-457.90436
11
61.92343
21
195.56250
31
-542.84375
12
61.92343
22
112.30203
32
-573.97369
0
3DFACE
8
layer1
62
1
10
61.92343
20
116.35524
30
-457.90436
11
61.92345
21
232.42456
31
-461.95764
12
61.92343
22
195.56250
32
-542.84375
0
3DFACE
8
layer1
62
1
10
61.92343
20
116.35524
30
-457.90436
11
61.92343
21
201.29462
31
-378.69714
12
61.92345
22
232.42456
32
-461.95764
0
3DFACE
8
layer1
62
1
10
61.92343
20
116.35524
30
-457.90436
11
61.92343
21
120.40854
31
-341.83499
12
61.92343
22
201.29462
32
-378.69714
0
3DFACE
8
layer1
62
1
10
48.27862
20
401.18097
30
-364.93866
11
-48.27862
21
401.18097
31
-364.93866
12
-48.27862
22
285.22464
32
-364.93866
13
48.27862
23
285.22464
33
-364.93866
0
3DFACE
8
layer1
62
1
10
-48.27862
20
401.18097
30
-364.93866
11
-28.31298
21
140.03516
31
-514.62811
12
-28.31298
22
63.08601
32
-426.10828
13
-48.27862
23
285.22464
33
-364.93866
0
3DFACE
8
layer1
62
1
10
-28.31298
20
140.03516
30
-514.62811
11
28.31298
21
140.03516
31
-514.62811
12
28.31298
22
63.08601
32
-426.10828
13
-28.31298
23
63.08601
33
-426.10828
0
3DFACE
8
layer1
62
1
10
28.31298
20
140.03516
30
-514.62811
11
48.27862
21
401.18097
31
-364.93866
12
48.27862
22
285.22464
32
-364.93866
13
28.31298
23
63.08601
33
-426.10828
0
3DFACE
8
layer1
62
1
10
28.31298
20
140.03516
30
-514.62811
11
-28.31298
21
140.03516
31
-514.62811
12
-48.27862
22
401.18097
32
-364.93866
13
48.27862
23
401.18097
33
-364.93866
0
3DFACE
8
layer1
62
1
10
48.27862
20
285.22464
30
-364.93866
11
-48.27862
21
285.22464
31
-364.93866
12
-28.31298
22
63.08601
32
-426.10828
13
28.31298
23
63.08601
33
-426.10828
0
ENDSEC
0
EOF
