0
SECTION
2
ENTITIES
999
Created by Metasequoia
0
3DFACE
8
layer1
62
1
10
0.00000
20
749.54230
30
549.36914
11
-141.19022
21
668.02643
31
549.36914
12
-141.19022
22
668.02643
32
623.86743
13
0.00000
23
749.54230
33
623.86743
0
3DFACE
8
layer1
62
1
10
-141.19022
20
668.02643
30
549.36914
11
-141.19022
21
504.99359
31
549.36914
12
-141.19022
22
504.99359
32
623.86743
13
-141.19022
23
668.02643
33
623.86743
0
3DFACE
8
layer1
62
1
10
-141.19022
20
504.99359
30
549.36914
11
0.00001
21
423.47760
31
549.36914
12
0.00001
22
423.47760
32
623.86743
13
-141.19022
23
504.99359
33
623.86743
0
3DFACE
8
layer1
62
1
10
0.00001
20
423.47760
30
549.36914
11
141.19022
21
504.99359
31
549.36914
12
141.19022
22
504.99359
32
623.86743
13
0.00001
23
423.47760
33
623.86743
0
3DFACE
8
layer1
62
1
10
141.19022
20
504.99359
30
549.36914
11
141.19022
21
668.02643
31
549.36914
12
141.19022
22
668.02643
32
623.86743
13
141.19022
23
504.99359
33
623.86743
0
3DFACE
8
layer1
62
1
10
141.19022
20
668.02643
30
549.36914
11
0.00000
21
749.54230
31
549.36914
12
0.00000
22
749.54230
32
623.86743
13
141.19022
23
668.02643
33
623.86743
0
3DFACE
8
layer1
62
1
10
0.00000
20
586.50989
30
549.36914
11
-141.19022
21
668.02643
31
549.36914
12
0.00000
22
749.54230
32
549.36914
0
3DFACE
8
layer1
62
1
10
0.00000
20
586.50989
30
549.36914
11
-141.19022
21
504.99359
31
549.36914
12
-141.19022
22
668.02643
32
549.36914
0
3DFACE
8
layer1
62
1
10
0.00000
20
586.50989
30
549.36914
11
0.00001
21
423.47760
31
549.36914
12
-141.19022
22
504.99359
32
549.36914
0
3DFACE
8
layer1
62
1
10
0.00000
20
586.50989
30
549.36914
11
141.19022
21
504.99359
31
549.36914
12
0.00001
22
423.47760
32
549.36914
0
3DFACE
8
layer1
62
1
10
0.00000
20
586.50989
30
549.36914
11
141.19022
21
668.02643
31
549.36914
12
141.19022
22
504.99359
32
549.36914
0
3DFACE
8
layer1
62
1
10
0.00000
20
586.50989
30
549.36914
11
0.00000
21
749.54230
31
549.36914
12
141.19022
22
668.02643
32
549.36914
0
3DFACE
8
layer1
62
1
10
0.00000
20
586.50989
30
623.86743
11
0.00000
21
749.54230
31
623.86743
12
-141.19022
22
668.02643
32
623.86743
0
3DFACE
8
layer1
62
1
10
0.00000
20
586.50989
30
623.86743
11
-141.19022
21
668.02643
31
623.86743
12
-141.19022
22
504.99359
32
623.86743
0
3DFACE
8
layer1
62
1
10
0.00000
20
586.50989
30
623.86743
11
-141.19022
21
504.99359
31
623.86743
12
0.00001
22
423.47760
32
623.86743
0
3DFACE
8
layer1
62
1
10
0.00000
20
586.50989
30
623.86743
11
0.00001
21
423.47760
31
623.86743
12
141.19022
22
504.99359
32
623.86743
0
3DFACE
8
layer1
62
1
10
0.00000
20
586.50989
30
623.86743
11
141.19022
21
504.99359
31
623.86743
12
141.19022
22
668.02643
32
623.86743
0
3DFACE
8
layer1
62
1
10
0.00000
20
586.50989
30
623.86743
11
141.19022
21
668.02643
31
623.86743
12
0.00000
22
749.54230
32
623.86743
0
3DFACE
8
layer1
62
1
10
0.00000
20
749.54230
30
287.84137
11
-141.19022
21
668.02643
31
287.84137
12
-141.19022
22
668.02643
32
362.33972
13
0.00000
23
749.54230
33
362.33972
0
3DFACE
8
layer1
62
1
10
-141.19022
20
668.02643
30
287.84137
11
-141.19022
21
504.99359
31
287.84137
12
-141.19022
22
504.99359
32
362.33972
13
-141.19022
23
668.02643
33
362.33972
0
3DFACE
8
layer1
62
1
10
-141.19022
20
504.99359
30
287.84137
11
0.00001
21
423.47760
31
287.84137
12
0.00001
22
423.47760
32
362.33972
13
-141.19022
23
504.99359
33
362.33972
0
3DFACE
8
layer1
62
1
10
0.00001
20
423.47760
30
287.84137
11
141.19022
21
504.99359
31
287.84137
12
141.19022
22
504.99359
32
362.33972
13
0.00001
23
423.47760
33
362.33972
0
3DFACE
8
layer1
62
1
10
141.19022
20
504.99359
30
287.84137
11
141.19022
21
668.02643
31
287.84137
12
141.19022
22
668.02643
32
362.33972
13
141.19022
23
504.99359
33
362.33972
0
3DFACE
8
layer1
62
1
10
141.19022
20
668.02643
30
287.84137
11
0.00000
21
749.54230
31
287.84137
12
0.00000
22
749.54230
32
362.33972
13
141.19022
23
668.02643
33
362.33972
0
3DFACE
8
layer1
62
1
10
0.00000
20
586.50989
30
287.84137
11
-141.19022
21
668.02643
31
287.84137
12
0.00000
22
749.54230
32
287.84137
0
3DFACE
8
layer1
62
1
10
0.00000
20
586.50989
30
287.84137
11
-141.19022
21
504.99359
31
287.84137
12
-141.19022
22
668.02643
32
287.84137
0
3DFACE
8
layer1
62
1
10
0.00000
20
586.50989
30
287.84137
11
0.00001
21
423.47760
31
287.84137
12
-141.19022
22
504.99359
32
287.84137
0
3DFACE
8
layer1
62
1
10
0.00000
20
586.50989
30
287.84137
11
141.19022
21
504.99359
31
287.84137
12
0.00001
22
423.47760
32
287.84137
0
3DFACE
8
layer1
62
1
10
0.00000
20
586.50989
30
287.84137
11
141.19022
21
668.02643
31
287.84137
12
141.19022
22
504.99359
32
287.84137
0
3DFACE
8
layer1
62
1
10
0.00000
20
586.50989
30
287.84137
11
0.00000
21
749.54230
31
287.84137
12
141.19022
22
668.02643
32
287.84137
0
3DFACE
8
layer1
62
1
10
0.00000
20
586.50989
30
362.33972
11
0.00000
21
749.54230
31
362.33972
12
-141.19022
22
668.02643
32
362.33972
0
3DFACE
8
layer1
62
1
10
0.00000
20
586.50989
30
362.33972
11
-141.19022
21
668.02643
31
362.33972
12
-141.19022
22
504.99359
32
362.33972
0
3DFACE
8
layer1
62
1
10
0.00000
20
586.50989
30
362.33972
11
-141.19022
21
504.99359
31
362.33972
12
0.00001
22
423.47760
32
362.33972
0
3DFACE
8
layer1
62
1
10
0.00000
20
586.50989
30
362.33972
11
0.00001
21
423.47760
31
362.33972
12
141.19022
22
504.99359
32
362.33972
0
3DFACE
8
layer1
62
1
10
0.00000
20
586.50989
30
362.33972
11
141.19022
21
504.99359
31
362.33972
12
141.19022
22
668.02643
32
362.33972
0
3DFACE
8
layer1
62
1
10
0.00000
20
586.50989
30
362.33972
11
141.19022
21
668.02643
31
362.33972
12
0.00000
22
749.54230
32
362.33972
0
3DFACE
8
layer1
62
1
10
0.00000
20
749.54230
30
12.02299
11
-141.19022
21
668.02643
31
12.02299
12
-141.19022
22
668.02643
32
86.52134
13
0.00000
23
749.54230
33
86.52134
0
3DFACE
8
layer1
62
1
10
-141.19022
20
668.02643
30
12.02299
11
-141.19022
21
504.99359
31
12.02299
12
-141.19022
22
504.99359
32
86.52134
13
-141.19022
23
668.02643
33
86.52134
0
3DFACE
8
layer1
62
1
10
-141.19022
20
504.99359
30
12.02299
11
0.00001
21
423.47760
31
12.02299
12
0.00001
22
423.47760
32
86.52134
13
-141.19022
23
504.99359
33
86.52134
0
3DFACE
8
layer1
62
1
10
0.00001
20
423.47760
30
12.02299
11
141.19022
21
504.99359
31
12.02299
12
141.19022
22
504.99359
32
86.52134
13
0.00001
23
423.47760
33
86.52134
0
3DFACE
8
layer1
62
1
10
141.19022
20
504.99359
30
12.02299
11
141.19022
21
668.02643
31
12.02299
12
141.19022
22
668.02643
32
86.52134
13
141.19022
23
504.99359
33
86.52134
0
3DFACE
8
layer1
62
1
10
141.19022
20
668.02643
30
12.02299
11
0.00000
21
749.54230
31
12.02299
12
0.00000
22
749.54230
32
86.52134
13
141.19022
23
668.02643
33
86.52134
0
3DFACE
8
layer1
62
1
10
0.00000
20
586.50989
30
12.02299
11
-141.19022
21
668.02643
31
12.02299
12
0.00000
22
749.54230
32
12.02299
0
3DFACE
8
layer1
62
1
10
0.00000
20
586.50989
30
12.02299
11
-141.19022
21
504.99359
31
12.02299
12
-141.19022
22
668.02643
32
12.02299
0
3DFACE
8
layer1
62
1
10
0.00000
20
586.50989
30
12.02299
11
0.00001
21
423.47760
31
12.02299
12
-141.19022
22
504.99359
32
12.02299
0
3DFACE
8
layer1
62
1
10
0.00000
20
586.50989
30
12.02299
11
141.19022
21
504.99359
31
12.02299
12
0.00001
22
423.47760
32
12.02299
0
3DFACE
8
layer1
62
1
10
0.00000
20
586.50989
30
12.02299
11
141.19022
21
668.02643
31
12.02299
12
141.19022
22
504.99359
32
12.02299
0
3DFACE
8
layer1
62
1
10
0.00000
20
586.50989
30
12.02299
11
0.00000
21
749.54230
31
12.02299
12
141.19022
22
668.02643
32
12.02299
0
3DFACE
8
layer1
62
1
10
0.00000
20
586.50989
30
86.52134
11
0.00000
21
749.54230
31
86.52134
12
-141.19022
22
668.02643
32
86.52134
0
3DFACE
8
layer1
62
1
10
0.00000
20
586.50989
30
86.52134
11
-141.19022
21
668.02643
31
86.52134
12
-141.19022
22
504.99359
32
86.52134
0
3DFACE
8
layer1
62
1
10
0.00000
20
586.50989
30
86.52134
11
-141.19022
21
504.99359
31
86.52134
12
0.00001
22
423.47760
32
86.52134
0
3DFACE
8
layer1
62
1
10
0.00000
20
586.50989
30
86.52134
11
0.00001
21
423.47760
31
86.52134
12
141.19022
22
504.99359
32
86.52134
0
3DFACE
8
layer1
62
1
10
0.00000
20
586.50989
30
86.52134
11
141.19022
21
504.99359
31
86.52134
12
141.19022
22
668.02643
32
86.52134
0
3DFACE
8
layer1
62
1
10
0.00000
20
586.50989
30
86.52134
11
141.19022
21
668.02643
31
86.52134
12
0.00000
22
749.54230
32
86.52134
0
3DFACE
8
layer1
62
1
10
0.00000
20
783.56329
30
823.96765
11
-170.65326
21
685.03705
31
823.96765
12
-170.65326
22
685.03705
32
914.01208
13
0.00000
23
783.56329
33
914.01208
0
3DFACE
8
layer1
62
1
10
-170.65326
20
685.03705
30
823.96765
11
-170.65326
21
487.98300
31
823.96765
12
-170.65326
22
487.98300
32
914.01208
13
-170.65326
23
685.03705
33
914.01208
0
3DFACE
8
layer1
62
1
10
-170.65326
20
487.98300
30
823.96765
11
0.00002
21
389.45660
31
823.96765
12
0.00002
22
389.45660
32
914.01208
13
-170.65326
23
487.98300
33
914.01208
0
3DFACE
8
layer1
62
1
10
0.00002
20
389.45660
30
823.96765
11
170.65326
21
487.98300
31
823.96765
12
170.65326
22
487.98300
32
914.01208
13
0.00002
23
389.45660
33
914.01208
0
3DFACE
8
layer1
62
1
10
170.65326
20
487.98300
30
823.96765
11
170.65326
21
685.03705
31
823.96765
12
170.65326
22
685.03705
32
914.01208
13
170.65326
23
487.98300
33
914.01208
0
3DFACE
8
layer1
62
1
10
170.65326
20
685.03705
30
823.96765
11
0.00000
21
783.56329
31
823.96765
12
0.00000
22
783.56329
32
914.01208
13
170.65326
23
685.03705
33
914.01208
0
3DFACE
8
layer1
62
1
10
0.00000
20
586.50989
30
823.96765
11
-170.65326
21
685.03705
31
823.96765
12
0.00000
22
783.56329
32
823.96765
0
3DFACE
8
layer1
62
1
10
0.00000
20
586.50989
30
823.96765
11
-170.65326
21
487.98300
31
823.96765
12
-170.65326
22
685.03705
32
823.96765
0
3DFACE
8
layer1
62
1
10
0.00000
20
586.50989
30
823.96765
11
0.00002
21
389.45660
31
823.96765
12
-170.65326
22
487.98300
32
823.96765
0
3DFACE
8
layer1
62
1
10
0.00000
20
586.50989
30
823.96765
11
170.65326
21
487.98300
31
823.96765
12
0.00002
22
389.45660
32
823.96765
0
3DFACE
8
layer1
62
1
10
0.00000
20
586.50989
30
823.96765
11
170.65326
21
685.03705
31
823.96765
12
170.65326
22
487.98300
32
823.96765
0
3DFACE
8
layer1
62
1
10
0.00000
20
586.50989
30
823.96765
11
0.00000
21
783.56329
31
823.96765
12
170.65326
22
685.03705
32
823.96765
0
3DFACE
8
layer1
62
1
10
0.00000
20
586.50989
30
914.01208
11
0.00000
21
783.56329
31
914.01208
12
-170.65326
22
685.03705
32
914.01208
0
3DFACE
8
layer1
62
1
10
0.00000
20
586.50989
30
914.01208
11
-170.65326
21
685.03705
31
914.01208
12
-170.65326
22
487.98300
32
914.01208
0
3DFACE
8
layer1
62
1
10
0.00000
20
586.50989
30
914.01208
11
-170.65326
21
487.98300
31
914.01208
12
0.00002
22
389.45660
32
914.01208
0
3DFACE
8
layer1
62
1
10
0.00000
20
586.50989
30
914.01208
11
0.00002
21
389.45660
31
914.01208
12
170.65326
22
487.98300
32
914.01208
0
3DFACE
8
layer1
62
1
10
0.00000
20
586.50989
30
914.01208
11
170.65326
21
487.98300
31
914.01208
12
170.65326
22
685.03705
32
914.01208
0
3DFACE
8
layer1
62
1
10
0.00000
20
586.50989
30
914.01208
11
170.65326
21
685.03705
31
914.01208
12
0.00000
22
783.56329
32
914.01208
0
3DFACE
8
layer1
62
1
10
0.00000
20
749.54230
30
-247.25800
11
-141.19022
21
668.02643
31
-247.25800
12
-141.19022
22
668.02643
32
-172.75970
13
0.00000
23
749.54230
33
-172.75970
0
3DFACE
8
layer1
62
1
10
-141.19022
20
668.02643
30
-247.25800
11
-141.19022
21
504.99359
31
-247.25800
12
-141.19022
22
504.99359
32
-172.75970
13
-141.19022
23
668.02643
33
-172.75970
0
3DFACE
8
layer1
62
1
10
-141.19022
20
504.99359
30
-247.25800
11
0.00001
21
423.47760
31
-247.25800
12
0.00001
22
423.47760
32
-172.75970
13
-141.19022
23
504.99359
33
-172.75970
0
3DFACE
8
layer1
62
1
10
0.00001
20
423.47760
30
-247.25800
11
141.19022
21
504.99359
31
-247.25800
12
141.19022
22
504.99359
32
-172.75970
13
0.00001
23
423.47760
33
-172.75970
0
3DFACE
8
layer1
62
1
10
141.19022
20
504.99359
30
-247.25800
11
141.19022
21
668.02643
31
-247.25800
12
141.19022
22
668.02643
32
-172.75970
13
141.19022
23
504.99359
33
-172.75970
0
3DFACE
8
layer1
62
1
10
141.19022
20
668.02643
30
-247.25800
11
0.00000
21
749.54230
31
-247.25800
12
0.00000
22
749.54230
32
-172.75970
13
141.19022
23
668.02643
33
-172.75970
0
3DFACE
8
layer1
62
1
10
0.00000
20
586.50989
30
-306.65121
11
-141.19022
21
668.02643
31
-247.25800
12
0.00000
22
749.54230
32
-247.25800
0
3DFACE
8
layer1
62
1
10
0.00000
20
586.50989
30
-306.65121
11
-141.19022
21
504.99359
31
-247.25800
12
-141.19022
22
668.02643
32
-247.25800
0
3DFACE
8
layer1
62
1
10
0.00000
20
586.50989
30
-306.65121
11
0.00001
21
423.47760
31
-247.25800
12
-141.19022
22
504.99359
32
-247.25800
0
3DFACE
8
layer1
62
1
10
0.00000
20
586.50989
30
-306.65121
11
141.19022
21
504.99359
31
-247.25800
12
0.00001
22
423.47760
32
-247.25800
0
3DFACE
8
layer1
62
1
10
0.00000
20
586.50989
30
-306.65121
11
141.19022
21
668.02643
31
-247.25800
12
141.19022
22
504.99359
32
-247.25800
0
3DFACE
8
layer1
62
1
10
0.00000
20
586.50989
30
-306.65121
11
0.00000
21
749.54230
31
-247.25800
12
141.19022
22
668.02643
32
-247.25800
0
3DFACE
8
layer1
62
1
10
0.00000
20
586.50989
30
-172.75970
11
0.00000
21
749.54230
31
-172.75970
12
-141.19022
22
668.02643
32
-172.75970
0
3DFACE
8
layer1
62
1
10
0.00000
20
586.50989
30
-172.75970
11
-141.19022
21
668.02643
31
-172.75970
12
-141.19022
22
504.99359
32
-172.75970
0
3DFACE
8
layer1
62
1
10
0.00000
20
586.50989
30
-172.75970
11
-141.19022
21
504.99359
31
-172.75970
12
0.00001
22
423.47760
32
-172.75970
0
3DFACE
8
layer1
62
1
10
0.00000
20
586.50989
30
-172.75970
11
0.00001
21
423.47760
31
-172.75970
12
141.19022
22
504.99359
32
-172.75970
0
3DFACE
8
layer1
62
1
10
0.00000
20
586.50989
30
-172.75970
11
141.19022
21
504.99359
31
-172.75970
12
141.19022
22
668.02643
32
-172.75970
0
3DFACE
8
layer1
62
1
10
0.00000
20
586.50989
30
-172.75970
11
141.19022
21
668.02643
31
-172.75970
12
0.00000
22
749.54230
32
-172.75970
0
ENDSEC
0
EOF
