# Created using Spin 3D

# Vertex Array 
v -239.533 204.581 7.858
v -239.533 -14.814 7.858
v -210.363 204.581 7.858
v -210.363 -14.814 7.858
v -210.363 204.581 -7.858
v -210.363 -14.814 -7.858
v -239.533 204.581 -7.858
v -239.533 -14.814 -7.858
v 239.533 204.581 7.858
v 239.533 -14.814 7.858
v 210.363 204.581 7.858
v 210.363 -14.814 7.858
v 210.363 204.581 -7.858
v 210.363 -14.814 -7.858
v 239.533 204.581 -7.858
v 239.533 -14.814 -7.858
v 302.961 173.833 7.858
v -302.234 173.833 7.858
v 302.961 152.949 7.858
v -302.234 152.949 7.858
v 302.961 152.949 -7.858
v -302.234 152.949 -7.858
v 302.961 173.833 -7.858
v -302.234 173.833 -7.858
v 302.961 105.478 7.858
v -302.234 105.478 7.858
v 302.961 84.594 7.858
v -302.234 84.595 7.858
v 302.961 84.594 -7.858
v -302.234 84.595 -7.858
v 302.961 105.478 -7.858
v -302.234 105.478 -7.858

# Normal Array
vn -0.000 0.000 1.000
vn 0.000 0.000 1.000
vn 1.000 0.000 0.000
vn 1.000 0.000 0.000
vn -0.000 0.000 -1.000
vn 0.000 0.000 -1.000
vn -1.000 0.000 0.000
vn -1.000 0.000 0.000
vn 0.000 1.000 0.000
vn 0.000 1.000 0.000
vn 0.000 -1.000 0.000
vn 0.000 -1.000 0.000
vn 0.000 0.000 1.000
vn 0.000 0.000 1.000
vn -1.000 -0.000 0.000
vn -1.000 0.000 0.000
vn 0.000 0.000 -1.000
vn 0.000 0.000 -1.000
vn 1.000 0.000 0.000
vn 1.000 -0.000 0.000
vn 0.000 1.000 -0.000
vn 0.000 1.000 0.000
vn 0.000 -1.000 -0.000
vn 0.000 -1.000 0.000
vn 0.000 0.000 1.000
vn 0.000 0.000 1.000
vn 0.000 -1.000 -0.000
vn 0.000 -1.000 0.000
vn 0.000 0.000 -1.000
vn 0.000 0.000 -1.000
vn 0.000 1.000 -0.000
vn 0.000 1.000 0.000
vn 1.000 0.000 0.000
vn 1.000 -0.000 0.000
vn -1.000 -0.000 0.000
vn -1.000 0.000 0.000
vn 0.000 0.000 1.000
vn 0.000 0.000 1.000
vn -0.000 -1.000 -0.000
vn -0.000 -1.000 0.000
vn 0.000 0.000 -1.000
vn 0.000 0.000 -1.000
vn 0.000 1.000 -0.000
vn 0.000 1.000 0.000
vn 1.000 0.000 0.000
vn 1.000 -0.000 0.000
vn -1.000 -0.000 0.000
vn -1.000 0.000 0.000

# Facets
f 1//1 4//1 3//1
f 4//2 1//2 2//2
f 3//3 6//3 5//3
f 6//4 3//4 4//4
f 5//5 8//5 7//5
f 8//6 5//6 6//6
f 7//7 2//7 1//7
f 2//8 7//8 8//8
f 7//9 3//9 5//9
f 3//10 7//10 1//10
f 2//11 6//11 4//11
f 6//12 2//12 8//12
f 9//13 12//13 10//13
f 12//14 9//14 11//14
f 11//15 14//15 12//15
f 14//16 11//16 13//16
f 13//17 16//17 14//17
f 16//18 13//18 15//18
f 15//19 10//19 16//19
f 10//20 15//20 9//20
f 15//21 11//21 9//21
f 11//22 15//22 13//22
f 10//23 14//23 16//23
f 14//24 10//24 12//24
f 17//25 20//25 19//25
f 20//26 17//26 18//26
f 19//27 22//27 21//27
f 22//28 19//28 20//28
f 21//29 24//29 23//29
f 24//30 21//30 22//30
f 23//31 18//31 17//31
f 18//32 23//32 24//32
f 23//33 19//33 21//33
f 19//34 23//34 17//34
f 18//35 22//35 20//35
f 22//36 18//36 24//36
f 25//37 28//37 27//37
f 28//38 25//38 26//38
f 27//39 30//39 29//39
f 30//40 27//40 28//40
f 29//41 32//41 31//41
f 32//42 29//42 30//42
f 31//43 26//43 25//43
f 26//44 31//44 32//44
f 31//45 27//45 29//45
f 27//46 31//46 25//46
f 26//47 30//47 28//47
f 30//48 26//48 32//48

# Thank you for using Spin 3D

