# Created using Spin 3D

# Vertex Array 
v -412.251 208.419 197.340
v 0.000 192.151 197.340
v -412.251 196.354 197.340
v 0.000 180.086 197.340
v 412.251 208.419 197.340
v 412.251 196.354 197.340
v 412.251 208.419 81.297
v 0.000 192.151 81.297
v 412.251 196.354 81.297
v 0.000 180.086 81.297
v -412.251 208.419 81.297
v -412.251 196.354 81.297
v -433.323 208.419 75.405
v -21.073 199.131 75.405
v -433.323 196.354 75.405
v -21.073 187.066 75.405
v 391.178 208.419 75.405
v 391.178 196.354 75.405
v 391.178 208.419 -40.639
v -21.073 199.131 -40.639
v 391.178 196.354 -40.639
v -21.073 187.066 -40.639
v -433.323 208.419 -40.639
v -433.323 196.354 -40.639
v -415.666 208.419 -43.712
v -3.415 199.131 -43.712
v -415.666 196.354 -43.712
v -3.415 187.066 -43.712
v 408.836 208.419 -43.712
v 408.836 196.354 -43.712
v 408.836 208.419 -159.756
v -3.415 199.131 -159.756
v 408.836 196.354 -159.756
v -3.415 187.066 -159.756
v -415.666 208.419 -159.756
v -415.666 196.354 -159.756
v -304.476 449.688 -203.316
v -304.476 346.067 -177.953
v -304.476 159.055 -154.991
v -286.315 449.688 -203.316
v -286.315 346.067 -177.953
v -286.315 159.055 -154.991
v -286.315 447.475 -221.343
v -286.315 343.854 -195.980
v -286.315 156.842 -173.017
v -304.476 447.475 -221.343
v -304.476 343.854 -195.980
v -304.476 156.842 -173.017
v 304.476 449.688 -188.711
v 304.476 346.067 -177.953
v 304.476 159.055 -154.991
v 286.315 449.688 -188.711
v 286.315 346.067 -177.953
v 286.315 159.055 -154.991
v 286.315 447.475 -206.738
v 286.315 343.854 -195.980
v 286.315 156.842 -173.017
v 304.476 447.475 -206.738
v 304.476 343.854 -195.980
v 304.476 156.842 -173.017
v -425.001 463.064 -178.423
v -425.186 402.529 -163.892
v 424.255 465.774 -156.350
v 424.071 405.239 -141.819
v 425.186 457.421 -191.137
v 425.001 396.886 -176.606
v -424.071 454.711 -213.210
v -424.255 394.176 -198.679
v -424.774 350.181 -142.451
v -424.774 288.327 -135.403
v 424.774 350.181 -142.451
v 424.774 288.327 -135.403
v 424.774 346.130 -178.008
v 424.774 284.276 -170.961
v -424.774 346.130 -178.008
v -424.774 284.276 -170.961

# Normal Array
vn 0.000 0.000 1.000
vn 0.000 0.000 1.000
vn 0.000 0.000 1.000
vn 0.000 0.000 1.000
vn 1.000 0.000 0.000
vn 1.000 0.000 0.000
vn 0.000 0.000 -1.000
vn 0.000 0.000 -1.000
vn 0.000 0.000 -1.000
vn 0.000 0.000 -1.000
vn -1.000 0.000 0.000
vn -1.000 0.000 0.000
vn 0.039 0.999 0.000
vn 0.039 0.999 0.000
vn -0.039 0.999 0.000
vn -0.039 0.999 0.000
vn -0.039 -0.999 0.000
vn -0.039 -0.999 0.000
vn 0.039 -0.999 0.000
vn 0.039 -0.999 0.000
vn 0.000 0.000 1.000
vn 0.000 0.000 1.000
vn -0.000 0.000 1.000
vn 0.000 0.000 1.000
vn 1.000 0.000 0.000
vn 1.000 0.000 0.000
vn 0.000 0.000 -1.000
vn 0.000 0.000 -1.000
vn -0.000 0.000 -1.000
vn 0.000 0.000 -1.000
vn -1.000 0.000 0.000
vn -1.000 0.000 0.000
vn 0.023 1.000 0.000
vn 0.023 1.000 0.000
vn -0.023 1.000 0.000
vn -0.023 1.000 0.000
vn -0.023 -1.000 0.000
vn -0.023 -1.000 0.000
vn 0.023 -1.000 0.000
vn 0.023 -1.000 0.000
vn 0.000 0.000 1.000
vn 0.000 0.000 1.000
vn -0.000 0.000 1.000
vn 0.000 0.000 1.000
vn 1.000 0.000 0.000
vn 1.000 0.000 0.000
vn 0.000 0.000 -1.000
vn 0.000 0.000 -1.000
vn -0.000 0.000 -1.000
vn 0.000 0.000 -1.000
vn -1.000 0.000 0.000
vn -1.000 0.000 0.000
vn 0.023 1.000 0.000
vn 0.023 1.000 0.000
vn -0.023 1.000 0.000
vn -0.023 1.000 0.000
vn -0.023 -1.000 0.000
vn -0.023 -1.000 0.000
vn 0.023 -1.000 0.000
vn 0.023 -1.000 0.000
vn -0.000 0.238 0.971
vn 0.000 0.238 0.971
vn -0.000 0.122 0.993
vn 0.000 0.122 0.993
vn 1.000 0.000 0.000
vn 1.000 -0.000 0.000
vn 1.000 0.000 0.000
vn 1.000 -0.000 0.000
vn -0.000 -0.238 -0.971
vn 0.000 -0.238 -0.971
vn -0.000 -0.122 -0.993
vn 0.000 -0.122 -0.993
vn -1.000 0.000 0.000
vn -1.000 0.000 -0.000
vn -1.000 0.000 0.000
vn -1.000 0.000 -0.000
vn 0.000 0.993 -0.122
vn 0.000 0.993 -0.122
vn 0.000 -0.993 0.122
vn 0.000 -0.993 0.122
vn 0.000 0.103 0.995
vn 0.000 0.103 0.995
vn 0.000 0.122 0.993
vn 0.000 0.122 0.993
vn -1.000 -0.000 0.000
vn -1.000 0.000 0.000
vn -1.000 0.000 0.000
vn -1.000 0.000 0.000
vn 0.000 -0.103 -0.995
vn 0.000 -0.103 -0.995
vn 0.000 -0.122 -0.993
vn 0.000 -0.122 -0.993
vn 1.000 0.000 0.000
vn 1.000 0.000 0.000
vn 1.000 0.000 0.000
vn 1.000 0.000 0.000
vn 0.000 0.993 -0.122
vn 0.000 0.993 -0.122
vn 0.000 -0.993 0.122
vn 0.000 -0.993 0.122
vn -0.026 0.233 0.972
vn -0.026 0.233 0.972
vn 1.000 0.003 0.026
vn 1.000 0.003 0.026
vn 0.026 -0.233 -0.972
vn 0.026 -0.233 -0.972
vn -1.000 -0.003 -0.026
vn -1.000 -0.003 -0.026
vn 0.003 0.972 -0.233
vn 0.003 0.972 -0.233
vn -0.003 -0.972 0.233
vn -0.003 -0.972 0.233
vn -0.000 0.113 0.994
vn 0.000 0.113 0.994
vn 1.000 0.000 0.000
vn 1.000 0.000 0.000
vn -0.000 -0.113 -0.994
vn 0.000 -0.113 -0.994
vn -1.000 0.000 0.000
vn -1.000 0.000 -0.000
vn 0.000 0.994 -0.113
vn 0.000 0.994 -0.113
vn 0.000 -0.994 0.113
vn 0.000 -0.994 0.113

# Facets
f 1//1 4//1 2//1
f 4//2 1//2 3//2
f 2//3 6//3 5//3
f 6//4 2//4 4//4
f 5//5 9//5 7//5
f 9//6 5//6 6//6
f 7//7 10//7 8//7
f 10//8 7//8 9//8
f 8//9 12//9 11//9
f 12//10 8//10 10//10
f 11//11 3//11 1//11
f 3//12 11//12 12//12
f 11//13 2//13 8//13
f 2//14 11//14 1//14
f 8//15 5//15 7//15
f 5//16 8//16 2//16
f 3//17 10//17 4//17
f 10//18 3//18 12//18
f 4//19 9//19 6//19
f 9//20 4//20 10//20
f 13//21 16//21 14//21
f 16//22 13//22 15//22
f 14//23 18//23 17//23
f 18//24 14//24 16//24
f 17//25 21//25 19//25
f 21//26 17//26 18//26
f 19//27 22//27 20//27
f 22//28 19//28 21//28
f 20//29 24//29 23//29
f 24//30 20//30 22//30
f 23//31 15//31 13//31
f 15//32 23//32 24//32
f 23//33 14//33 20//33
f 14//34 23//34 13//34
f 20//35 17//35 19//35
f 17//36 20//36 14//36
f 15//37 22//37 16//37
f 22//38 15//38 24//38
f 16//39 21//39 18//39
f 21//40 16//40 22//40
f 25//41 28//41 26//41
f 28//42 25//42 27//42
f 26//43 30//43 29//43
f 30//44 26//44 28//44
f 29//45 33//45 31//45
f 33//46 29//46 30//46
f 31//47 34//47 32//47
f 34//48 31//48 33//48
f 32//49 36//49 35//49
f 36//50 32//50 34//50
f 35//51 27//51 25//51
f 27//52 35//52 36//52
f 35//53 26//53 32//53
f 26//54 35//54 25//54
f 32//55 29//55 31//55
f 29//56 32//56 26//56
f 27//57 34//57 28//57
f 34//58 27//58 36//58
f 28//59 33//59 30//59
f 33//60 28//60 34//60
f 37//61 41//61 40//61
f 41//62 37//62 38//62
f 38//63 42//63 41//63
f 42//64 38//64 39//64
f 40//65 44//65 43//65
f 44//66 40//66 41//66
f 41//67 45//67 44//67
f 45//68 41//68 42//68
f 43//69 47//69 46//69
f 47//70 43//70 44//70
f 44//71 48//71 47//71
f 48//72 44//72 45//72
f 46//73 38//73 37//73
f 38//74 46//74 47//74
f 47//75 39//75 38//75
f 39//76 47//76 48//76
f 46//77 40//77 43//77
f 40//78 46//78 37//78
f 39//79 45//79 42//79
f 45//80 39//80 48//80
f 49//81 53//81 50//81
f 53//82 49//82 52//82
f 50//83 54//83 51//83
f 54//84 50//84 53//84
f 52//85 56//85 53//85
f 56//86 52//86 55//86
f 53//87 57//87 54//87
f 57//88 53//88 56//88
f 55//89 59//89 56//89
f 59//90 55//90 58//90
f 56//91 60//91 57//91
f 60//92 56//92 59//92
f 58//93 50//93 59//93
f 50//94 58//94 49//94
f 59//95 51//95 60//95
f 51//96 59//96 50//96
f 58//97 52//97 49//97
f 52//98 58//98 55//98
f 51//99 57//99 60//99
f 57//100 51//100 54//100
f 61//101 64//101 63//101
f 64//102 61//102 62//102
f 63//103 66//103 65//103
f 66//104 63//104 64//104
f 65//105 68//105 67//105
f 68//106 65//106 66//106
f 67//107 62//107 61//107
f 62//108 67//108 68//108
f 67//109 63//109 65//109
f 63//110 67//110 61//110
f 62//111 66//111 64//111
f 66//112 62//112 68//112
f 69//113 72//113 71//113
f 72//114 69//114 70//114
f 71//115 74//115 73//115
f 74//116 71//116 72//116
f 73//117 76//117 75//117
f 76//118 73//118 74//118
f 75//119 70//119 69//119
f 70//120 75//120 76//120
f 75//121 71//121 73//121
f 71//122 75//122 69//122
f 70//123 74//123 72//123
f 74//124 70//124 76//124

# Thank you for using Spin 3D

