# Created using Spin 3D

# Vertex Array 
v -570.106 290.605 216.640
v -570.106 -15.453 216.640
v 570.106 290.605 216.640
v 570.106 -15.453 216.640
v 570.106 290.605 -216.640
v 570.106 -15.453 -216.640
v -570.106 290.605 -216.640
v -570.106 -15.453 -216.640
v -490.878 410.306 186.533
v 490.878 410.306 186.533
v 490.878 410.306 -186.533
v -490.878 410.306 -186.533
v -216.640 290.605 -570.106
v -216.640 -15.453 -570.106
v -216.640 290.605 570.106
v -216.640 -15.453 570.106
v 216.640 290.605 570.106
v 216.640 -15.453 570.106
v 216.640 290.605 -570.106
v 216.640 -15.453 -570.106
v -186.533 410.306 -490.878
v -186.533 410.306 490.878
v 186.533 410.306 490.878
v 186.533 410.306 -490.878
v -485.055 290.605 -178.679
v -485.055 -15.453 -178.679
v 178.679 290.605 485.055
v 178.679 -15.453 485.055
v 485.055 290.605 178.679
v 485.055 -15.453 178.679
v -178.679 290.605 -485.055
v -178.679 -15.453 -485.055
v -417.646 410.306 -153.848
v 153.848 410.306 417.646
v 417.646 410.306 153.848
v -153.848 410.306 -417.646
v 178.679 290.605 -485.055
v 178.679 -15.453 -485.055
v -485.055 290.605 178.679
v -485.055 -15.453 178.679
v -178.679 290.605 485.055
v -178.679 -15.453 485.055
v 485.055 290.605 -178.679
v 485.055 -15.453 -178.679
v 153.848 410.306 -417.646
v -417.646 410.306 153.848
v -153.848 410.306 417.646
v 417.646 410.306 -153.848
v -675.464 1473.625 256.676
v -675.464 1603.415 256.676
v 675.464 1473.625 256.676
v 675.464 1603.415 256.676
v 675.464 1473.625 -256.676
v 675.464 1603.415 -256.676
v -675.464 1473.625 -256.676
v -675.464 1603.415 -256.676
v -490.878 1322.952 186.533
v 490.878 1322.952 186.533
v 490.878 1322.952 -186.533
v -490.878 1322.952 -186.533
v -256.676 1473.625 -675.464
v -256.676 1603.415 -675.464
v -256.676 1473.625 675.464
v -256.676 1603.415 675.464
v 256.676 1473.625 675.464
v 256.676 1603.415 675.464
v 256.676 1473.625 -675.464
v 256.676 1603.415 -675.464
v -186.533 1322.952 -490.878
v -186.533 1322.952 490.878
v 186.533 1322.952 490.878
v 186.533 1322.952 -490.878
v -574.694 1473.625 -211.699
v -574.694 1603.415 -211.699
v 211.699 1473.625 574.694
v 211.699 1603.415 574.694
v 574.694 1473.625 211.699
v 574.694 1603.415 211.699
v -211.699 1473.625 -574.694
v -211.699 1603.415 -574.694
v -417.646 1322.952 -153.848
v 153.848 1322.952 417.646
v 417.646 1322.952 153.848
v -153.848 1322.952 -417.646
v 211.699 1473.625 -574.694
v 211.699 1603.415 -574.694
v -574.694 1473.625 211.699
v -574.694 1603.415 211.699
v -211.699 1473.625 574.694
v -211.699 1603.415 574.694
v 574.694 1473.625 -211.699
v 574.694 1603.415 -211.699
v 153.848 1322.952 -417.646
v -417.646 1322.952 153.848
v -153.848 1322.952 417.646
v 417.646 1322.952 -153.848

# Normal Array
vn -0.000 0.000 1.000
vn 0.000 0.000 1.000
vn 1.000 0.000 0.000
vn 1.000 0.000 0.000
vn -0.000 0.000 -1.000
vn 0.000 0.000 -1.000
vn -1.000 0.000 0.000
vn -1.000 0.000 0.000
vn 0.000 0.244 -0.970
vn 0.000 0.244 -0.970
vn 0.834 0.552 0.000
vn 0.834 0.552 -0.000
vn -0.000 0.244 0.970
vn 0.000 0.244 0.970
vn -0.834 0.552 0.000
vn -0.834 0.552 0.000
vn -1.000 0.000 -0.000
vn -1.000 0.000 -0.000
vn -0.000 0.000 1.000
vn 0.000 0.000 1.000
vn 1.000 0.000 0.000
vn 1.000 0.000 0.000
vn -0.000 0.000 -1.000
vn 0.000 0.000 -1.000
vn 0.970 0.244 0.000
vn 0.970 0.244 0.000
vn -0.000 0.552 0.834
vn 0.000 0.552 0.834
vn -0.970 0.244 0.000
vn -0.970 0.244 -0.000
vn 0.000 0.552 -0.834
vn 0.000 0.552 -0.834
vn 0.707 0.000 0.707
vn 0.707 0.000 0.707
vn -0.707 0.000 -0.707
vn -0.707 0.000 -0.707
vn 0.621 0.478 0.621
vn 0.621 0.478 0.621
vn -0.621 0.478 -0.621
vn -0.621 0.478 -0.621
vn -0.707 0.000 0.707
vn -0.707 0.000 0.707
vn 0.707 0.000 -0.707
vn 0.707 0.000 -0.707
vn -0.621 0.478 0.621
vn -0.621 0.478 0.621
vn 0.621 0.478 -0.621
vn 0.621 0.478 -0.621
vn 0.000 0.000 1.000
vn 0.000 0.000 1.000
vn 1.000 -0.000 0.000
vn 1.000 0.000 0.000
vn 0.000 0.000 -1.000
vn 0.000 0.000 -1.000
vn -1.000 0.000 0.000
vn -1.000 -0.000 0.000
vn 0.000 1.000 0.000
vn 0.000 1.000 -0.000
vn 0.000 -0.422 -0.907
vn 0.000 -0.422 -0.907
vn 0.632 -0.775 0.000
vn 0.632 -0.775 0.000
vn 0.000 -0.422 0.907
vn 0.000 -0.422 0.907
vn -0.632 -0.775 0.000
vn -0.632 -0.775 0.000
vn -1.000 0.000 0.000
vn -1.000 -0.000 0.000
vn 0.000 0.000 1.000
vn 0.000 0.000 1.000
vn 1.000 -0.000 0.000
vn 1.000 0.000 0.000
vn 0.000 0.000 -1.000
vn 0.000 0.000 -1.000
vn 0.000 1.000 0.000
vn 0.000 1.000 0.000
vn 0.907 -0.422 0.000
vn 0.907 -0.422 0.000
vn 0.000 -0.775 0.632
vn 0.000 -0.775 0.632
vn -0.907 -0.422 0.000
vn -0.907 -0.422 0.000
vn 0.000 -0.775 -0.632
vn 0.000 -0.775 -0.632
vn 0.707 -0.000 0.707
vn 0.707 0.000 0.707
vn -0.707 0.000 -0.707
vn -0.707 -0.000 -0.707
vn -0.000 1.000 0.000
vn 0.000 1.000 0.000
vn 0.498 -0.710 0.498
vn 0.498 -0.710 0.498
vn -0.498 -0.710 -0.498
vn -0.498 -0.710 -0.498
vn -0.707 0.000 0.707
vn -0.707 0.000 0.707
vn 0.707 0.000 -0.707
vn 0.707 0.000 -0.707
vn 0.000 1.000 -0.000
vn 0.000 1.000 0.000
vn -0.498 -0.710 0.498
vn -0.498 -0.710 0.498
vn 0.498 -0.710 -0.498
vn 0.498 -0.710 -0.498

# Facets
f 1//1 4//1 3//1
f 4//2 1//2 2//2
f 3//3 6//3 5//3
f 6//4 3//4 4//4
f 5//5 8//5 7//5
f 8//6 5//6 6//6
f 7//7 2//7 1//7
f 2//8 7//8 8//8
f 11//9 7//9 12//9
f 7//10 11//10 5//10
f 10//11 5//11 11//11
f 5//12 10//12 3//12
f 9//13 3//13 10//13
f 3//14 9//14 1//14
f 12//15 1//15 9//15
f 1//16 12//16 7//16
f 13//17 16//17 15//17
f 16//18 13//18 14//18
f 15//19 18//19 17//19
f 18//20 15//20 16//20
f 17//21 20//21 19//21
f 20//22 17//22 18//22
f 19//23 14//23 13//23
f 14//24 19//24 20//24
f 23//25 19//25 24//25
f 19//26 23//26 17//26
f 22//27 17//27 23//27
f 17//28 22//28 15//28
f 21//29 15//29 22//29
f 15//30 21//30 13//30
f 24//31 13//31 21//31
f 13//32 24//32 19//32
f 27//33 30//33 29//33
f 30//34 27//34 28//34
f 31//35 26//35 25//35
f 26//36 31//36 32//36
f 34//37 29//37 35//37
f 29//38 34//38 27//38
f 36//39 25//39 33//39
f 25//40 36//40 31//40
f 39//41 42//41 41//41
f 42//42 39//42 40//42
f 43//43 38//43 37//43
f 38//44 43//44 44//44
f 46//45 41//45 47//45
f 41//46 46//46 39//46
f 48//47 37//47 45//47
f 37//48 48//48 43//48
f 49//49 52//49 50//49
f 52//50 49//50 51//50
f 51//51 54//51 52//51
f 54//52 51//52 53//52
f 53//53 56//53 54//53
f 56//54 53//54 55//54
f 55//55 50//55 56//55
f 50//56 55//56 49//56
f 50//57 54//57 56//57
f 54//58 50//58 52//58
f 59//59 55//59 53//59
f 55//60 59//60 60//60
f 58//61 53//61 51//61
f 53//62 58//62 59//62
f 57//63 51//63 49//63
f 51//64 57//64 58//64
f 60//65 49//65 55//65
f 49//66 60//66 57//66
f 61//67 64//67 62//67
f 64//68 61//68 63//68
f 63//69 66//69 64//69
f 66//70 63//70 65//70
f 65//71 68//71 66//71
f 68//72 65//72 67//72
f 67//73 62//73 68//73
f 62//74 67//74 61//74
f 62//75 66//75 68//75
f 66//76 62//76 64//76
f 71//77 67//77 65//77
f 67//78 71//78 72//78
f 70//79 65//79 63//79
f 65//80 70//80 71//80
f 69//81 63//81 61//81
f 63//82 69//82 70//82
f 72//83 61//83 67//83
f 61//84 72//84 69//84
f 75//85 78//85 76//85
f 78//86 75//86 77//86
f 79//87 74//87 80//87
f 74//88 79//88 73//88
f 74//89 78//89 80//89
f 78//90 74//90 76//90
f 82//91 77//91 75//91
f 77//92 82//92 83//92
f 84//93 73//93 79//93
f 73//94 84//94 81//94
f 87//95 90//95 88//95
f 90//96 87//96 89//96
f 91//97 86//97 92//97
f 86//98 91//98 85//98
f 86//99 90//99 92//99
f 90//100 86//100 88//100
f 94//101 89//101 87//101
f 89//102 94//102 95//102
f 96//103 85//103 91//103
f 85//104 96//104 93//104

# Thank you for using Spin 3D

