# Created using Spin 3D

# Vertex Array 
v -490.878 410.306 186.533
v 490.878 410.306 186.533
v 490.878 410.306 -186.533
v -490.878 410.306 -186.533
v -490.878 1322.817 186.533
v 490.878 1322.817 186.533
v 490.878 1322.817 -186.533
v -490.878 1322.817 -186.533
v -186.533 410.306 -490.878
v -186.533 410.306 490.878
v 186.533 410.306 490.878
v 186.533 410.306 -490.878
v -186.533 1322.817 -490.878
v -186.533 1322.817 490.878
v 186.533 1322.817 490.878
v 186.533 1322.817 -490.878
v -417.646 410.306 -153.848
v 153.848 410.306 417.646
v 417.646 410.306 153.848
v -153.848 410.306 -417.646
v -417.646 1322.817 -153.848
v 153.848 1322.817 417.646
v 417.646 1322.817 153.848
v -153.848 1322.817 -417.646
v 153.848 410.306 -417.646
v -417.646 410.306 153.848
v -153.848 410.306 417.646
v 417.646 410.306 -153.848
v 153.848 1322.817 -417.646
v -417.646 1322.817 153.848
v -153.848 1322.817 417.646
v 417.646 1322.817 -153.848

# Normal Array
vn -0.000 0.000 -1.000
vn 0.000 0.000 -1.000
vn 1.000 0.000 0.000
vn 1.000 0.000 0.000
vn -0.000 0.000 1.000
vn 0.000 0.000 1.000
vn -1.000 0.000 0.000
vn -1.000 0.000 0.000
vn 1.000 0.000 0.000
vn 1.000 0.000 0.000
vn -0.000 0.000 1.000
vn 0.000 0.000 1.000
vn -1.000 0.000 0.000
vn -1.000 0.000 0.000
vn -0.000 0.000 -1.000
vn 0.000 0.000 -1.000
vn 0.707 0.000 0.707
vn 0.707 0.000 0.707
vn -0.707 0.000 -0.707
vn -0.707 0.000 -0.707
vn -0.707 0.000 0.707
vn -0.707 0.000 0.707
vn 0.707 0.000 -0.707
vn 0.707 0.000 -0.707

# Facets
f 7//1 4//1 8//1
f 4//2 7//2 3//2
f 6//3 3//3 7//3
f 3//4 6//4 2//4
f 5//5 2//5 6//5
f 2//6 5//6 1//6
f 8//7 1//7 5//7
f 1//8 8//8 4//8
f 15//9 12//9 16//9
f 12//10 15//10 11//10
f 14//11 11//11 15//11
f 11//12 14//12 10//12
f 13//13 10//13 14//13
f 10//14 13//14 9//14
f 16//15 9//15 13//15
f 9//16 16//16 12//16
f 22//17 19//17 23//17
f 19//18 22//18 18//18
f 24//19 17//19 21//19
f 17//20 24//20 20//20
f 30//21 27//21 31//21
f 27//22 30//22 26//22
f 32//23 25//23 29//23
f 25//24 32//24 28//24

# Thank you for using Spin 3D

