# Created using Spin 3D

# Vertex Array 
v -74.508 2846.749 6.868
v -24.836 2846.749 23.778
v 24.836 2846.749 23.778
v -56.633 1731.508 6.868
v -18.878 1731.508 23.778
v 18.878 1731.508 23.778
v -41.777 1593.933 6.868
v -13.926 1449.863 6.868
v 13.926 1449.863 6.868
v 74.508 2846.749 6.868
v 56.633 1731.508 6.868
v 41.777 1593.933 6.868
v 74.508 2846.749 -6.868
v 24.836 2846.749 -23.778
v -24.836 2846.749 -23.778
v 56.633 1731.508 -6.868
v 18.878 1731.508 -23.778
v -18.878 1731.508 -23.778
v 41.777 1593.933 -6.868
v 13.926 1449.863 -6.868
v -13.926 1449.863 -6.868
v -74.508 2846.749 -6.868
v -56.633 1731.508 -6.868
v -41.777 1593.933 -6.868
v 0.000 3280.234 -25.625
v -55.514 3280.234 -25.625
v -27.757 3328.551 -25.625
v 27.757 3328.551 -25.625
v 55.514 3280.234 -25.625
v 27.757 3231.917 -25.625
v -27.757 3231.917 -25.625
v -55.514 3280.234 25.625
v -27.757 3328.551 25.625
v 27.757 3328.551 25.625
v 55.514 3280.234 25.625
v 27.757 3231.917 25.625
v -27.757 3231.917 25.625
v 0.000 3280.234 25.625
v -534.781 3688.268 112.005
v -481.966 3596.791 112.005
v -468.963 3726.268 112.005
v -416.149 3634.791 112.005
v -468.963 3726.268 58.402
v -416.149 3634.791 58.402
v -534.781 3688.268 58.402
v -481.966 3596.791 58.402
v -531.064 3710.747 101.807
v -490.289 3734.289 101.807
v -490.289 3734.289 68.599
v -531.064 3710.747 68.599
v -533.487 3725.881 97.951
v -502.183 3743.954 97.951
v -502.183 3743.954 72.456
v -533.487 3725.881 72.456
v -449.284 3616.184 122.826
v -421.067 3632.475 104.015
v -421.067 3632.475 66.392
v -449.284 3616.184 47.581
v -477.501 3599.892 66.392
v -477.501 3599.892 104.015
v -163.422 3121.056 122.826
v -164.158 3187.495 104.015
v -164.158 3187.495 66.392
v -163.422 3121.056 47.581
v -220.592 3154.912 66.392
v -220.592 3154.912 104.015
v -804.667 3714.120 90.773
v -813.178 3574.568 90.773
v -683.015 3433.566 90.773
v -554.696 3365.606 90.773
v -773.968 3917.267 90.773
v -633.605 3678.244 122.267
v -503.752 3537.064 122.267
v -421.082 3324.168 90.773
v -773.968 3917.267 79.633
v -633.605 3678.244 48.139
v -503.752 3537.064 48.139
v -421.082 3324.168 79.633
v -804.667 3714.120 79.633
v -813.178 3574.568 79.633
v -683.015 3433.566 79.633
v -554.696 3365.606 79.633
v -546.699 3707.559 113.516
v -471.169 3576.738 113.516
v -546.699 3707.559 56.890
v -471.169 3576.738 56.890
v -483.736 3744.596 108.051
v -338.501 3793.382 90.745
v -409.129 3615.374 108.051
v -322.003 3718.963 90.745
v -192.192 3752.983 88.706
v -221.594 3728.070 88.706
v -192.192 3752.983 81.701
v -338.501 3793.382 79.661
v -221.594 3728.070 81.701
v -322.003 3718.963 79.661
v -483.736 3744.596 62.355
v -409.129 3615.374 62.355
v -837.351 4239.822 90.170
v -908.168 4410.996 89.437
v -560.702 3720.458 90.170
v -515.672 3731.171 97.575
v -795.336 4264.079 90.170
v -483.879 3764.812 90.170
v -795.336 4264.079 80.237
v -908.168 4410.996 80.970
v -483.879 3764.812 80.237
v -515.672 3731.171 72.832
v -837.351 4239.822 80.237
v -560.702 3720.458 80.237
v -864.643 1465.725 -55.512
v -935.161 1354.187 -50.209
v -772.250 1412.382 -55.512
v -833.586 1295.543 -50.209
v -772.250 1412.382 -162.197
v -833.586 1295.543 -167.499
v -864.643 1465.725 -162.197
v -935.161 1354.187 -167.499
v 245.067 3281.114 -67.285
v 276.243 3263.114 -88.070
v 276.243 3263.114 -129.639
v 245.067 3281.114 -150.424
v 213.890 3299.114 -129.639
v 213.890 3299.114 -88.070
v -173.777 2555.654 -37.617
v -120.350 2524.808 -73.236
v -120.350 2524.808 -144.473
v -173.777 2555.654 -180.092
v -227.206 2586.501 -144.473
v -227.206 2586.501 -73.236
v -201.560 2507.533 -108.854
v 326.255 3502.827 -63.153
v 200.016 3284.175 -63.153
v 396.482 3462.282 -63.153
v 270.243 3243.630 -63.153
v 396.482 3462.282 -154.556
v 270.243 3243.630 -154.556
v 326.255 3502.827 -154.556
v 200.016 3284.175 -154.556
v 2.805 3771.873 -100.838
v -97.822 3597.465 -100.838
v -134.550 3477.029 -100.838
v -109.662 3249.519 -100.838
v 379.399 3819.660 -100.838
v 197.746 3555.847 -69.700
v 87.457 3355.641 -69.700
v -34.031 3090.471 -100.838
v 379.399 3819.660 -116.871
v 197.746 3555.847 -148.009
v 87.457 3355.641 -148.009
v -34.031 3090.471 -116.871
v 2.805 3771.873 -116.871
v -97.822 3597.465 -116.871
v -134.550 3477.029 -116.871
v -109.662 3249.519 -116.871
v 311.474 3463.376 -78.945
v 235.945 3332.555 -78.945
v 311.474 3463.376 -138.764
v 235.945 3332.555 -138.764
v 739.757 3543.444 -100.838
v 791.139 3159.319 -100.838
v 593.538 2741.263 -100.838
v 377.642 2626.070 -100.838
v 602.657 3709.787 -100.838
v 503.417 3373.419 -69.700
v 415.054 3177.264 -69.700
v 21.725 2621.070 -100.838
v 602.657 3709.787 -116.871
v 503.417 3373.419 -148.009
v 415.054 3177.264 -148.009
v 21.725 2621.070 -116.871
v 739.757 3543.444 -116.871
v 791.139 3159.319 -116.871
v 593.538 2741.263 -116.871
v 377.642 2626.070 -116.871
v 362.858 3433.709 -78.945
v 287.328 3302.889 -78.945
v 362.858 3433.709 -138.764
v 287.328 3302.889 -138.764
v 440.362 3681.631 -73.769
v 332.928 3495.549 -73.769
v 494.276 3650.503 -73.769
v 386.842 3464.421 -73.769
v 494.276 3650.503 -143.940
v 386.842 3464.421 -143.940
v 440.362 3681.631 -143.940
v 332.928 3495.549 -143.940
v 454.419 3725.627 -62.695
v 525.350 3684.676 -62.695
v 525.350 3684.676 -155.014
v 454.419 3725.627 -155.014
v 649.036 3992.173 -102.450
v 658.877 3986.490 -102.450
v 658.877 3986.490 -115.259
v 649.036 3992.173 -115.259
v -39.547 2451.693 72.427
v 0.000 2462.768 78.263
v -39.547 1588.605 72.427
v 0.000 1556.754 78.263
v 39.547 2451.693 72.427
v 39.547 1588.605 72.427
v 39.547 2451.693 40.208
v 0.000 2462.768 40.208
v 39.547 1588.605 40.208
v 0.000 1556.754 40.208
v -39.547 2451.693 40.208
v -39.547 1588.605 40.208
v -1.364 2118.281 78.304
v -1.364 2079.393 78.304
v -311.635 2118.281 30.572
v -312.722 2079.393 30.572
v -1.364 2040.421 78.304
v -308.143 2040.421 30.572
v -1.364 2040.421 40.330
v -308.143 2040.421 19.260
v -312.722 2079.393 19.260
v -1.364 2118.281 40.330
v -311.635 2118.281 19.260
v 310.990 2118.281 30.572
v 312.469 2079.393 30.572
v 308.324 2040.421 30.572
v 308.324 2040.421 19.260
v 312.469 2079.393 19.260
v 310.990 2118.281 19.260

# Normal Array
vn -0.322 -0.002 0.947
vn -0.409 -0.007 0.913
vn -0.000 0.000 1.000
vn 0.000 0.000 1.000
vn 0.322 -0.005 0.947
vn 0.409 -0.002 0.913
vn -0.408 -0.062 0.911
vn 0.000 0.000 1.000
vn 0.000 -0.060 0.998
vn 0.000 -0.060 0.998
vn 0.408 -0.044 0.912
vn 0.323 -0.062 0.944
vn 1.000 -0.016 0.000
vn 1.000 -0.016 0.000
vn 0.994 -0.107 0.000
vn 0.994 -0.107 0.000
vn 0.322 -0.002 -0.947
vn 0.409 -0.007 -0.913
vn -0.000 0.000 -1.000
vn 0.000 0.000 -1.000
vn -0.322 -0.005 -0.947
vn -0.409 -0.002 -0.913
vn 0.408 -0.062 -0.911
vn 0.000 0.000 -1.000
vn -0.000 -0.060 -0.998
vn 0.000 -0.060 -0.998
vn -0.408 -0.044 -0.912
vn -0.323 -0.062 -0.944
vn -1.000 -0.016 0.000
vn -1.000 -0.016 -0.000
vn -0.994 -0.107 0.000
vn -0.994 -0.107 -0.000
vn -0.000 1.000 0.000
vn 0.000 1.000 0.000
vn 0.000 1.000 0.000
vn 0.000 1.000 0.000
vn 0.000 1.000 0.000
vn 0.000 1.000 0.000
vn -0.982 -0.190 0.000
vn -0.982 -0.190 0.000
vn 0.000 -1.000 0.000
vn 0.000 -1.000 0.000
vn 0.982 -0.190 0.000
vn 0.982 -0.190 0.000
vn -0.867 0.498 0.000
vn -0.867 0.498 0.000
vn 0.000 1.000 0.000
vn 0.000 1.000 0.000
vn 0.867 0.498 0.000
vn 0.867 0.498 0.000
vn 0.867 -0.498 0.000
vn 0.867 -0.498 0.000
vn 0.000 -1.000 0.000
vn 0.000 -1.000 0.000
vn -0.867 -0.498 0.000
vn -0.867 -0.498 0.000
vn 0.000 0.000 -1.000
vn 0.000 0.000 -1.000
vn 0.000 0.000 -1.000
vn 0.000 0.000 -1.000
vn 0.000 -0.000 -1.000
vn -0.000 0.000 -1.000
vn 0.000 0.000 1.000
vn 0.000 -0.000 1.000
vn 0.000 0.000 1.000
vn -0.000 0.000 1.000
vn 0.000 0.000 1.000
vn 0.000 0.000 1.000
vn -0.000 0.000 1.000
vn 0.000 0.000 1.000
vn 0.866 0.500 0.000
vn 0.866 0.500 -0.000
vn 0.000 0.000 -1.000
vn 0.000 0.000 -1.000
vn -0.866 -0.500 0.000
vn -0.866 -0.500 -0.000
vn 0.500 -0.866 0.000
vn 0.500 -0.866 0.000
vn -0.251 0.434 -0.865
vn -0.251 0.434 -0.865
vn 0.352 0.936 0.000
vn 0.352 0.936 -0.000
vn -0.251 0.434 0.865
vn -0.251 0.434 0.865
vn -0.987 0.163 0.000
vn -0.987 0.163 0.000
vn -0.130 0.225 -0.966
vn -0.130 0.225 -0.966
vn 0.631 0.776 0.000
vn 0.631 0.776 -0.000
vn -0.130 0.225 0.966
vn -0.130 0.225 0.966
vn -0.987 -0.158 0.000
vn -0.987 -0.158 -0.000
vn -0.500 0.866 0.000
vn -0.500 0.866 0.000
vn 0.433 0.250 0.866
vn 0.433 0.250 0.866
vn 0.433 0.250 -0.866
vn 0.433 0.250 -0.866
vn -0.433 -0.250 -0.866
vn -0.433 -0.250 -0.866
vn -0.433 -0.250 0.866
vn -0.433 -0.250 0.866
vn -0.176 0.027 0.984
vn -0.179 0.011 0.984
vn -0.113 -0.104 0.988
vn -0.113 -0.105 0.988
vn -0.072 -0.173 0.982
vn 0.000 0.000 1.000
vn 0.862 0.506 0.000
vn 0.862 0.506 -0.000
vn 0.932 0.362 0.000
vn 0.932 0.362 -0.000
vn 0.000 0.000 -1.000
vn -0.185 0.021 -0.983
vn -0.113 -0.104 -0.988
vn -0.113 -0.104 -0.988
vn -0.083 -0.156 -0.984
vn -0.051 -0.166 -0.985
vn -0.998 0.061 0.000
vn -0.998 0.061 0.000
vn -0.735 -0.678 0.000
vn -0.735 -0.678 -0.000
vn -0.468 -0.884 0.000
vn -0.468 -0.884 -0.000
vn -0.989 0.149 0.000
vn -0.989 0.149 0.000
vn -0.296 -0.955 0.000
vn -0.296 -0.955 0.000
vn -0.320 0.948 0.000
vn -0.320 0.948 0.000
vn 0.084 0.048 -0.995
vn 0.125 0.115 -0.986
vn 0.773 -0.635 0.000
vn 0.773 -0.635 0.000
vn 0.155 0.090 0.984
vn 0.076 0.070 0.995
vn 0.866 0.500 0.000
vn 0.866 0.500 -0.000
vn 0.110 0.024 0.994
vn 0.117 0.067 0.991
vn 0.011 -0.012 1.000
vn 0.020 0.004 1.000
vn 0.646 -0.763 0.000
vn 0.646 -0.763 0.000
vn 0.015 0.003 -1.000
vn 0.023 -0.027 -0.999
vn 0.099 0.057 -0.993
vn 0.155 0.034 -0.987
vn -0.866 -0.500 0.000
vn -0.866 -0.500 -0.000
vn -0.318 0.948 0.000
vn -0.318 0.948 0.000
vn 0.266 0.964 0.000
vn 0.266 0.964 0.000
vn 0.765 -0.644 0.000
vn 0.765 -0.644 0.000
vn 0.090 -0.996 0.000
vn 0.090 -0.996 0.000
vn -0.047 -0.015 0.999
vn -0.144 -0.077 0.987
vn -0.035 -0.022 0.999
vn 0.135 0.090 0.987
vn 0.848 0.529 0.000
vn 0.848 0.529 -0.000
vn 0.037 0.033 -0.999
vn 0.138 0.086 -0.987
vn 0.036 0.019 -0.999
vn -0.145 -0.072 -0.987
vn -0.883 -0.470 0.000
vn -0.883 -0.470 -0.000
vn -0.924 -0.382 0.000
vn -0.924 -0.382 0.000
vn 0.793 0.609 0.000
vn 0.793 0.609 0.000
vn 0.231 -0.973 0.000
vn 0.231 -0.973 0.000
vn 0.727 -0.687 0.000
vn 0.727 -0.687 0.000
vn 0.020 0.035 0.999
vn 0.020 0.035 0.999
vn 0.885 -0.465 0.000
vn 0.885 -0.465 0.000
vn 0.020 0.035 -0.999
vn 0.020 0.035 -0.999
vn -0.845 0.534 0.000
vn -0.845 0.534 0.000
vn 0.500 0.866 0.000
vn 0.500 0.866 0.000
vn -0.500 -0.866 0.000
vn -0.500 -0.866 0.000
vn 0.448 -0.223 0.866
vn 0.448 -0.223 0.866
vn 0.881 -0.473 0.000
vn 0.881 -0.473 0.000
vn 0.448 -0.223 -0.866
vn 0.448 -0.223 -0.866
vn -0.417 0.276 -0.866
vn -0.417 0.276 -0.866
vn -0.850 0.526 0.000
vn -0.850 0.526 0.000
vn -0.417 0.276 0.866
vn -0.417 0.276 0.866
vn -0.082 -0.811 0.580
vn 0.208 -0.978 0.000
vn -0.082 -0.811 -0.580
vn -0.661 -0.476 -0.580
vn -0.951 -0.309 0.000
vn -0.661 -0.476 0.580
vn 0.000 0.000 1.000
vn 0.000 -0.000 1.000
vn 0.866 -0.500 0.000
vn 0.866 -0.500 0.000
vn -0.000 0.000 -1.000
vn 0.000 0.000 -1.000
vn -0.866 0.500 0.000
vn -0.866 0.500 0.000
vn 0.500 0.866 0.000
vn 0.500 0.866 0.000
vn -0.500 -0.866 0.000
vn -0.500 -0.866 0.000
vn -0.016 0.128 0.992
vn -0.097 0.056 0.994
vn -0.097 0.054 0.994
vn -0.119 0.036 0.992
vn -0.161 -0.042 0.986
vn 0.000 0.000 1.000
vn 0.824 -0.567 0.000
vn 0.824 -0.567 0.000
vn 0.909 -0.417 0.000
vn 0.909 -0.417 0.000
vn 0.000 0.000 -1.000
vn -0.079 0.171 -0.982
vn -0.100 0.031 -0.994
vn -0.107 0.059 -0.993
vn -0.148 -0.016 -0.989
vn -0.125 -0.059 -0.990
vn -0.866 0.500 0.000
vn -0.866 0.500 0.000
vn -0.957 0.292 0.000
vn -0.957 0.292 0.000
vn -0.994 -0.109 0.000
vn -0.994 -0.109 -0.000
vn -0.126 0.992 0.000
vn -0.126 0.992 0.000
vn -0.903 -0.429 0.000
vn -0.903 -0.429 0.000
vn 0.631 0.776 -0.000
vn 0.631 0.776 0.000
vn 0.055 -0.032 -0.998
vn 0.057 -0.032 -0.998
vn -0.154 -0.988 -0.000
vn -0.154 -0.988 0.000
vn 0.057 -0.033 0.998
vn 0.056 -0.031 0.998
vn 0.866 -0.500 0.000
vn 0.866 -0.500 0.000
vn 0.119 0.016 0.993
vn 0.082 0.068 0.994
vn 0.081 -0.038 0.996
vn 0.081 -0.036 0.996
vn 0.000 0.000 1.000
vn 0.014 -0.066 0.998
vn -0.959 0.283 0.000
vn -0.959 0.283 0.000
vn -0.816 0.577 0.000
vn -0.816 0.577 0.000
vn 0.144 0.049 -0.988
vn 0.000 0.000 -1.000
vn 0.083 -0.037 -0.996
vn 0.080 -0.038 -0.996
vn 0.001 -0.056 -0.998
vn 0.031 -0.058 -0.998
vn 0.991 0.133 0.000
vn 0.991 0.133 0.000
vn 0.904 -0.427 0.000
vn 0.904 -0.427 0.000
vn 0.471 -0.882 0.000
vn 0.471 -0.882 0.000
vn 0.772 0.636 -0.000
vn 0.772 0.636 0.000
vn 0.014 -1.000 0.000
vn 0.014 -1.000 0.000
vn 0.394 0.919 0.000
vn 0.394 0.919 0.000
vn -0.050 0.023 -0.998
vn -0.053 0.030 -0.998
vn -0.701 -0.713 0.000
vn -0.701 -0.713 0.000
vn -0.055 0.025 0.998
vn -0.046 0.027 0.999
vn -0.866 0.500 0.000
vn -0.866 0.500 0.000
vn 0.000 0.000 1.000
vn 0.000 -0.000 1.000
vn 0.866 -0.500 0.000
vn 0.866 -0.500 0.000
vn -0.000 0.000 -1.000
vn 0.000 0.000 -1.000
vn -0.866 0.500 0.000
vn -0.866 0.500 0.000
vn -0.500 -0.866 0.000
vn -0.500 -0.866 0.000
vn -0.119 -0.206 -0.971
vn -0.119 -0.206 -0.971
vn 0.740 -0.673 0.000
vn 0.740 -0.673 0.000
vn -0.119 -0.206 0.971
vn -0.119 -0.206 0.971
vn -0.953 0.304 0.000
vn -0.953 0.304 0.000
vn 0.060 0.104 -0.993
vn 0.060 0.104 -0.993
vn 0.914 -0.405 0.000
vn 0.914 -0.405 0.000
vn 0.060 0.104 0.993
vn 0.060 0.104 0.993
vn -0.808 0.590 0.000
vn -0.808 0.590 0.000
vn 0.500 0.866 0.000
vn 0.500 0.866 0.000
vn -0.146 0.000 0.989
vn -0.146 0.000 0.989
vn 0.146 0.000 0.989
vn 0.146 0.000 0.989
vn 1.000 0.000 0.000
vn 1.000 0.000 0.000
vn -1.000 0.000 0.000
vn -1.000 0.000 0.000
vn -0.270 0.963 0.000
vn -0.270 0.963 0.000
vn 0.270 0.963 0.000
vn 0.270 0.963 0.000
vn -0.627 -0.779 0.000
vn -0.627 -0.779 0.000
vn 0.627 -0.779 0.000
vn 0.627 -0.779 0.000
vn -0.152 0.000 0.988
vn -0.152 0.004 0.988
vn -0.154 0.000 0.988
vn -0.152 -0.018 0.988
vn 0.000 -1.000 -0.000
vn 0.000 -1.000 0.000
vn 0.000 1.000 -0.000
vn -0.000 1.000 0.000
vn -1.000 0.028 0.000
vn -1.000 0.028 0.000
vn -0.993 -0.117 0.000
vn -0.993 -0.117 0.000
vn 0.150 0.006 0.989
vn 0.151 -0.000 0.989
vn 0.000 1.000 -0.000
vn 0.000 1.000 0.000
vn 0.999 0.038 0.000
vn 0.999 0.038 0.000
vn -0.000 -1.000 -0.000
vn 0.000 -1.000 0.000
vn 0.152 -0.016 0.988
vn 0.150 -0.000 0.989
vn 0.994 -0.106 0.000
vn 0.994 -0.106 0.000

# Facets
f 1//1 5//1 2//1
f 5//2 1//2 4//2
f 2//3 6//3 3//3
f 6//4 2//4 5//4
f 3//5 11//5 10//5
f 11//6 3//6 6//6
f 4//7 8//7 5//7
f 8//8 4//8 7//8
f 5//9 9//9 6//9
f 9//10 5//10 8//10
f 6//11 12//11 11//11
f 12//12 6//12 9//12
f 10//13 16//13 13//13
f 16//14 10//14 11//14
f 11//15 19//15 16//15
f 19//16 11//16 12//16
f 13//17 17//17 14//17
f 17//18 13//18 16//18
f 14//19 18//19 15//19
f 18//20 14//20 17//20
f 15//21 23//21 22//21
f 23//22 15//22 18//22
f 16//23 20//23 17//23
f 20//24 16//24 19//24
f 17//25 21//25 18//25
f 21//26 17//26 20//26
f 18//27 24//27 23//27
f 24//28 18//28 21//28
f 22//29 4//29 1//29
f 4//30 22//30 23//30
f 23//31 7//31 4//31
f 7//32 23//32 24//32
f 22//33 2//33 15//33
f 2//34 22//34 1//34
f 15//35 3//35 14//35
f 3//36 15//36 2//36
f 14//37 10//37 13//37
f 10//38 14//38 3//38
f 7//39 21//39 8//39
f 21//40 7//40 24//40
f 8//41 20//41 9//41
f 20//42 8//42 21//42
f 9//43 19//43 12//43
f 19//44 9//44 20//44
f 26//45 33//45 27//45
f 33//46 26//46 32//46
f 27//47 34//47 28//47
f 34//48 27//48 33//48
f 28//49 35//49 29//49
f 35//50 28//50 34//50
f 29//51 36//51 30//51
f 36//52 29//52 35//52
f 30//53 37//53 31//53
f 37//54 30//54 36//54
f 31//55 32//55 26//55
f 32//56 31//56 37//56
f 25//57 26//57 27//57
f 25//58 27//58 28//58
f 25//59 28//59 29//59
f 25//60 29//60 30//60
f 25//61 30//61 31//61
f 25//62 31//62 26//62
f 38//63 33//63 32//63
f 38//64 34//64 33//64
f 38//65 35//65 34//65
f 38//66 36//66 35//66
f 38//67 37//67 36//67
f 38//68 32//68 37//68
f 39//69 42//69 41//69
f 42//70 39//70 40//70
f 41//71 44//71 43//71
f 44//72 41//72 42//72
f 43//73 46//73 45//73
f 46//74 43//74 44//74
f 45//75 40//75 39//75
f 40//76 45//76 46//76
f 40//77 44//77 42//77
f 44//78 40//78 46//78
f 49//79 45//79 50//79
f 45//80 49//80 43//80
f 48//81 43//81 49//81
f 43//82 48//82 41//82
f 47//83 41//83 48//83
f 41//84 47//84 39//84
f 50//85 39//85 47//85
f 39//86 50//86 45//86
f 53//87 50//87 54//87
f 50//88 53//88 49//88
f 52//89 49//89 53//89
f 49//90 52//90 48//90
f 51//91 48//91 52//91
f 48//92 51//92 47//92
f 54//93 47//93 51//93
f 47//94 54//94 50//94
f 54//95 52//95 53//95
f 52//96 54//96 51//96
f 55//97 62//97 56//97
f 62//98 55//98 61//98
f 57//99 64//99 58//99
f 64//100 57//100 63//100
f 58//101 65//101 59//101
f 65//102 58//102 64//102
f 60//103 61//103 55//103
f 61//104 60//104 66//104
f 67//105 72//105 71//105
f 72//106 67//106 68//106
f 68//107 73//107 72//107
f 73//108 68//108 69//108
f 69//109 74//109 73//109
f 74//110 69//110 70//110
f 71//111 76//111 75//111
f 76//112 71//112 72//112
f 73//113 78//113 77//113
f 78//114 73//114 74//114
f 75//115 80//115 79//115
f 80//116 75//116 76//116
f 76//117 81//117 80//117
f 81//118 76//118 77//118
f 77//119 82//119 81//119
f 82//120 77//120 78//120
f 79//121 68//121 67//121
f 68//122 79//122 80//122
f 80//123 69//123 68//123
f 69//124 80//124 81//124
f 81//125 70//125 69//125
f 70//126 81//126 82//126
f 79//127 71//127 75//127
f 71//128 79//128 67//128
f 70//129 78//129 74//129
f 78//130 70//130 82//130
f 85//131 72//131 83//131
f 72//132 85//132 76//132
f 86//133 76//133 85//133
f 76//134 86//134 77//134
f 84//135 77//135 86//135
f 77//136 84//136 73//136
f 83//137 73//137 84//137
f 73//138 83//138 72//138
f 83//139 86//139 85//139
f 86//140 83//140 84//140
f 87//141 90//141 88//141
f 90//142 87//142 89//142
f 88//143 92//143 91//143
f 92//144 88//144 90//144
f 91//145 95//145 93//145
f 95//146 91//146 92//146
f 93//147 96//147 94//147
f 96//148 93//148 95//148
f 94//149 98//149 97//149
f 98//150 94//150 96//150
f 97//151 89//151 87//151
f 89//152 97//152 98//152
f 97//153 88//153 94//153
f 88//154 97//154 87//154
f 94//155 91//155 93//155
f 91//156 94//156 88//156
f 89//157 96//157 90//157
f 96//158 89//158 98//158
f 90//159 95//159 92//159
f 95//160 90//160 96//160
f 99//161 102//161 100//161
f 102//162 99//162 101//162
f 100//163 104//163 103//163
f 104//164 100//164 102//164
f 103//165 107//165 105//165
f 107//166 103//166 104//166
f 105//167 108//167 106//167
f 108//168 105//168 107//168
f 106//169 110//169 109//169
f 110//170 106//170 108//170
f 109//171 101//171 99//171
f 101//172 109//172 110//172
f 109//173 100//173 106//173
f 100//174 109//174 99//174
f 106//175 103//175 105//175
f 103//176 106//176 100//176
f 101//177 108//177 102//177
f 108//178 101//178 110//178
f 102//179 107//179 104//179
f 107//180 102//180 108//180
f 111//181 114//181 113//181
f 114//182 111//182 112//182
f 113//183 116//183 115//183
f 116//184 113//184 114//184
f 115//185 118//185 117//185
f 118//186 115//186 116//186
f 117//187 112//187 111//187
f 112//188 117//188 118//188
f 117//189 113//189 115//189
f 113//190 117//190 111//190
f 112//191 116//191 114//191
f 116//192 112//192 118//192
f 119//193 126//193 120//193
f 126//194 119//194 125//194
f 120//195 127//195 121//195
f 127//196 120//196 126//196
f 121//197 128//197 122//197
f 128//198 121//198 127//198
f 122//199 129//199 123//199
f 129//200 122//200 128//200
f 123//201 130//201 124//201
f 130//202 123//202 129//202
f 124//203 125//203 119//203
f 125//204 124//204 130//204
f 131//205 126//205 125//205
f 131//206 127//206 126//206
f 131//207 128//207 127//207
f 131//208 129//208 128//208
f 131//209 130//209 129//209
f 131//210 125//210 130//210
f 132//211 135//211 134//211
f 135//212 132//212 133//212
f 134//213 137//213 136//213
f 137//214 134//214 135//214
f 136//215 139//215 138//215
f 139//216 136//216 137//216
f 138//217 133//217 132//217
f 133//218 138//218 139//218
f 138//219 134//219 136//219
f 134//220 138//220 132//220
f 133//221 137//221 135//221
f 137//222 133//222 139//222
f 140//223 145//223 144//223
f 145//224 140//224 141//224
f 141//225 146//225 145//225
f 146//226 141//226 142//226
f 142//227 147//227 146//227
f 147//228 142//228 143//228
f 144//229 149//229 148//229
f 149//230 144//230 145//230
f 146//231 151//231 150//231
f 151//232 146//232 147//232
f 148//233 153//233 152//233
f 153//234 148//234 149//234
f 149//235 154//235 153//235
f 154//236 149//236 150//236
f 150//237 155//237 154//237
f 155//238 150//238 151//238
f 152//239 141//239 140//239
f 141//240 152//240 153//240
f 153//241 142//241 141//241
f 142//242 153//242 154//242
f 154//243 143//243 142//243
f 143//244 154//244 155//244
f 152//245 144//245 148//245
f 144//246 152//246 140//246
f 143//247 151//247 147//247
f 151//248 143//248 155//248
f 158//249 145//249 156//249
f 145//250 158//250 149//250
f 159//251 149//251 158//251
f 149//252 159//252 150//252
f 157//253 150//253 159//253
f 150//254 157//254 146//254
f 156//255 146//255 157//255
f 146//256 156//256 145//256
f 156//257 159//257 158//257
f 159//258 156//258 157//258
f 160//259 165//259 161//259
f 165//260 160//260 164//260
f 161//261 166//261 162//261
f 166//262 161//262 165//262
f 162//263 167//263 163//263
f 167//264 162//264 166//264
f 164//265 169//265 165//265
f 169//266 164//266 168//266
f 166//267 171//267 167//267
f 171//268 166//268 170//268
f 168//269 173//269 169//269
f 173//270 168//270 172//270
f 169//271 174//271 170//271
f 174//272 169//272 173//272
f 170//273 175//273 171//273
f 175//274 170//274 174//274
f 172//275 161//275 173//275
f 161//276 172//276 160//276
f 173//277 162//277 174//277
f 162//278 173//278 161//278
f 174//279 163//279 175//279
f 163//280 174//280 162//280
f 172//281 164//281 160//281
f 164//282 172//282 168//282
f 163//283 171//283 175//283
f 171//284 163//284 167//284
f 178//285 165//285 169//285
f 165//286 178//286 176//286
f 179//287 169//287 170//287
f 169//288 179//288 178//288
f 177//289 170//289 166//289
f 170//290 177//290 179//290
f 176//291 166//291 165//291
f 166//292 176//292 177//292
f 176//293 179//293 177//293
f 179//294 176//294 178//294
f 180//295 183//295 182//295
f 183//296 180//296 181//296
f 182//297 185//297 184//297
f 185//298 182//298 183//298
f 184//299 187//299 186//299
f 187//300 184//300 185//300
f 186//301 181//301 180//301
f 181//302 186//302 187//302
f 181//303 185//303 183//303
f 185//304 181//304 187//304
f 190//305 186//305 191//305
f 186//306 190//306 184//306
f 189//307 184//307 190//307
f 184//308 189//308 182//308
f 188//309 182//309 189//309
f 182//310 188//310 180//310
f 191//311 180//311 188//311
f 180//312 191//312 186//312
f 194//313 191//313 195//313
f 191//314 194//314 190//314
f 193//315 190//315 194//315
f 190//316 193//316 189//316
f 192//317 189//317 193//317
f 189//318 192//318 188//318
f 195//319 188//319 192//319
f 188//320 195//320 191//320
f 195//321 193//321 194//321
f 193//322 195//322 192//322
f 196//323 199//323 197//323
f 199//324 196//324 198//324
f 197//325 201//325 200//325
f 201//326 197//326 199//326
f 200//327 204//327 202//327
f 204//328 200//328 201//328
f 206//329 198//329 196//329
f 198//330 206//330 207//330
f 206//331 197//331 203//331
f 197//332 206//332 196//332
f 203//333 200//333 202//333
f 200//334 203//334 197//334
f 198//335 205//335 199//335
f 205//336 198//336 207//336
f 199//337 204//337 201//337
f 204//338 199//338 205//338
f 208//339 211//339 209//339
f 211//340 208//340 210//340
f 209//341 213//341 212//341
f 213//342 209//342 211//342
f 212//343 215//343 214//343
f 215//344 212//344 213//344
f 217//345 210//345 208//345
f 210//346 217//346 218//346
f 210//347 216//347 211//347
f 216//348 210//348 218//348
f 211//349 215//349 213//349
f 215//350 211//350 216//350
f 219//351 209//351 220//351
f 209//352 219//352 208//352
f 224//353 208//353 219//353
f 208//354 224//354 217//354
f 224//355 220//355 223//355
f 220//356 224//356 219//356
f 221//357 214//357 222//357
f 214//358 221//358 212//358
f 220//359 212//359 221//359
f 212//360 220//360 209//360
f 223//361 221//361 222//361
f 221//362 223//362 220//362

# Thank you for using Spin 3D

