0
SECTION
2
ENTITIES
999
Created by Metasequoia
0
3DFACE
8
layer1
62
1
10
96.92740
20
27.57660
30
-168.04829
11
123.89500
21
27.57660
31
-196.96750
12
123.89500
22
-11.96550
32
-196.96750
13
96.92740
23
-11.96550
33
-168.04829
0
3DFACE
8
layer1
62
1
10
123.89500
20
27.57660
30
-196.96750
11
190.74280
21
27.57660
31
-134.63110
12
190.74280
22
-11.96550
32
-134.63110
13
123.89500
23
-11.96550
33
-196.96750
0
3DFACE
8
layer1
62
1
10
190.74280
20
27.57660
30
-134.63110
11
163.77530
21
27.57660
31
-105.71180
12
163.77530
22
-11.96550
32
-105.71180
13
190.74280
23
-11.96550
33
-134.63110
0
3DFACE
8
layer1
62
1
10
163.77530
20
27.57660
30
-105.71180
11
96.92740
21
27.57660
31
-168.04829
12
96.92740
22
-11.96550
32
-168.04829
13
163.77530
23
-11.96550
33
-105.71180
0
3DFACE
8
layer1
62
1
10
163.77530
20
27.57660
30
-105.71180
11
190.74280
21
27.57660
31
-134.63110
12
123.89500
22
27.57660
32
-196.96750
13
96.92740
23
27.57660
33
-168.04829
0
3DFACE
8
layer1
62
1
10
234.18739
20
12.70600
30
51.06160
11
203.67580
21
18.36400
31
26.55440
12
203.67580
22
-20.16470
32
17.65940
13
234.18739
23
-25.82260
33
42.16660
0
3DFACE
8
layer1
62
1
10
203.67580
20
18.36400
30
26.55440
11
261.81500
21
34.22940
31
-42.16650
12
261.81500
22
-4.29920
32
-51.06150
13
203.67580
23
-20.16470
33
17.65940
0
3DFACE
8
layer1
62
1
10
261.81500
20
34.22940
30
-42.16650
11
292.32660
21
28.57150
31
-17.65930
12
292.32660
22
-9.95710
32
-26.55440
13
261.81500
23
-4.29920
33
-51.06150
0
3DFACE
8
layer1
62
1
10
292.32660
20
28.57150
30
-17.65930
11
234.18739
21
12.70600
31
51.06160
12
234.18739
22
-25.82260
32
42.16660
13
292.32660
23
-9.95710
33
-26.55440
0
3DFACE
8
layer1
62
1
10
292.32660
20
28.57150
30
-17.65930
11
261.81500
21
34.22940
31
-42.16650
12
203.67580
22
18.36400
32
26.55440
13
234.18739
23
12.70600
33
51.06160
0
3DFACE
8
layer1
62
1
10
93.69420
20
8.65690
30
-16.22210
11
82.79500
21
8.65690
31
21.78820
12
82.79500
22
-30.88520
32
21.78820
13
93.69420
23
-30.88520
33
-16.22210
0
3DFACE
8
layer1
62
1
10
82.79500
20
8.65690
30
21.78820
11
-5.06700
21
8.65690
31
-3.40580
12
-5.06700
22
-30.88520
32
-3.40580
13
82.79500
23
-30.88520
33
21.78820
0
3DFACE
8
layer1
62
1
10
-5.06700
20
8.65690
30
-3.40580
11
5.83220
21
8.65690
31
-41.41600
12
5.83220
22
-30.88520
32
-41.41600
13
-5.06700
23
-30.88520
33
-3.40580
0
3DFACE
8
layer1
62
1
10
5.83220
20
8.65690
30
-41.41600
11
93.69420
21
8.65690
31
-16.22210
12
93.69420
22
-30.88520
32
-16.22210
13
5.83220
23
-30.88520
33
-41.41600
0
3DFACE
8
layer1
62
1
10
5.83220
20
8.65690
30
-41.41600
11
-5.06700
21
8.65690
31
-3.40580
12
82.79500
22
8.65690
32
21.78820
13
93.69420
23
8.65690
33
-16.22210
0
3DFACE
8
layer1
62
1
10
-128.07919
20
-6.21360
30
-149.13580
11
-89.76700
21
-0.55570
31
-141.15170
12
-85.72880
22
-39.08440
32
-133.22620
13
-124.04090
23
-44.74230
33
-141.21030
0
3DFACE
8
layer1
62
1
10
-89.76700
20
-0.55570
30
-141.15170
11
-110.37090
21
15.30970
31
-53.52620
12
-106.33270
22
-23.21890
32
-45.60070
13
-85.72880
23
-39.08440
33
-133.22620
0
3DFACE
8
layer1
62
1
10
-110.37090
20
15.30970
30
-53.52620
11
-148.68300
21
9.65180
31
-61.51030
12
-144.64470
22
-28.87680
32
-53.58480
13
-106.33270
23
-23.21890
33
-45.60070
0
3DFACE
8
layer1
62
1
10
-148.68300
20
9.65180
30
-61.51030
11
-128.07919
21
-6.21360
31
-149.13580
12
-124.04090
22
-44.74230
32
-141.21030
13
-144.64470
23
-28.87680
33
-53.58480
0
3DFACE
8
layer1
62
1
10
-148.68300
20
9.65180
30
-61.51030
11
-110.37090
21
15.30970
31
-53.52620
12
-89.76700
22
-0.55570
32
-141.15170
13
-128.07919
23
-6.21360
33
-149.13580
0
3DFACE
8
layer1
62
1
10
-227.16290
20
27.57660
30
6.67680
11
-264.87500
21
27.57660
31
-5.21370
12
-264.87500
22
-11.96550
32
-5.21370
13
-227.16290
23
-11.96550
33
6.67680
0
3DFACE
8
layer1
62
1
10
-264.87500
20
27.57660
30
-5.21370
11
-237.38960
21
27.57660
31
-92.38620
12
-237.38960
22
-11.96550
32
-92.38620
13
-264.87500
23
-11.96550
33
-5.21370
0
3DFACE
8
layer1
62
1
10
-237.38960
20
27.57660
30
-92.38620
11
-199.67751
21
27.57660
31
-80.49570
12
-199.67751
22
-11.96550
32
-80.49570
13
-237.38960
23
-11.96550
33
-92.38620
0
3DFACE
8
layer1
62
1
10
-199.67751
20
27.57660
30
-80.49570
11
-227.16290
21
27.57660
31
6.67680
12
-227.16290
22
-11.96550
32
6.67680
13
-199.67751
23
-11.96550
33
-80.49570
0
3DFACE
8
layer1
62
1
10
-199.67751
20
27.57660
30
-80.49570
11
-237.38960
21
27.57660
31
-92.38620
12
-264.87500
22
27.57660
32
-5.21370
13
-227.16290
23
27.57660
33
6.67680
0
3DFACE
8
layer1
62
1
10
-88.48940
20
12.70600
30
-211.54150
11
-97.47350
21
18.36400
31
-173.45140
12
-105.50210
22
-20.16470
32
-169.62210
13
-96.51790
23
-25.82260
33
-207.71201
0
3DFACE
8
layer1
62
1
10
-97.47350
20
18.36400
30
-173.45140
11
-184.52991
21
34.22940
31
-196.34200
12
-192.55830
22
-4.29920
32
-192.51270
13
-105.50210
23
-20.16470
33
-169.62210
0
3DFACE
8
layer1
62
1
10
-184.52991
20
34.22940
30
-196.34200
11
-175.54559
21
28.57150
31
-234.43179
12
-183.57420
22
-9.95710
32
-230.60260
13
-192.55830
23
-4.29920
33
-192.51270
0
3DFACE
8
layer1
62
1
10
-175.54559
20
28.57150
30
-234.43179
11
-88.48940
21
12.70600
31
-211.54150
12
-96.51790
22
-25.82260
32
-207.71201
13
-183.57420
23
-9.95710
33
-230.60260
0
3DFACE
8
layer1
62
1
10
-175.54559
20
28.57150
30
-234.43179
11
-184.52991
21
34.22940
31
-196.34200
12
-97.47350
22
18.36400
32
-173.45140
13
-88.48940
23
12.70600
33
-211.54150
0
3DFACE
8
layer1
62
1
10
-88.73480
20
8.65690
30
-55.76790
11
-49.73500
21
8.65690
31
-62.29430
12
-49.73500
22
-30.88520
32
-62.29430
13
-88.73480
23
-30.88520
33
-55.76790
0
3DFACE
8
layer1
62
1
10
-49.73500
20
8.65690
30
-62.29430
11
-34.64910
21
8.65690
31
27.85490
12
-34.64910
22
-30.88520
32
27.85490
13
-49.73500
23
-30.88520
33
-62.29430
0
3DFACE
8
layer1
62
1
10
-34.64910
20
8.65690
30
27.85490
11
-73.64890
21
8.65690
31
34.38130
12
-73.64890
22
-30.88520
32
34.38130
13
-34.64910
23
-30.88520
33
27.85490
0
3DFACE
8
layer1
62
1
10
-73.64890
20
8.65690
30
34.38130
11
-88.73480
21
8.65690
31
-55.76790
12
-88.73480
22
-30.88520
32
-55.76790
13
-73.64890
23
-30.88520
33
34.38130
0
3DFACE
8
layer1
62
1
10
-73.64890
20
8.65690
30
34.38130
11
-34.64910
21
8.65690
31
27.85490
12
-49.73500
22
8.65690
32
-62.29430
13
-88.73480
23
8.65690
33
-55.76790
0
3DFACE
8
layer1
62
1
10
-113.22490
20
-6.21360
30
201.62260
11
-122.51240
21
-0.55570
31
163.60530
12
-117.09740
22
-39.08440
32
156.54840
13
-107.80990
23
-44.74230
33
194.56570
0
3DFACE
8
layer1
62
1
10
-122.51240
20
-0.55570
30
163.60530
11
-34.55260
21
15.30970
31
144.47810
12
-29.13770
22
-23.21890
32
137.42140
13
-117.09740
23
-39.08440
33
156.54840
0
3DFACE
8
layer1
62
1
10
-34.55260
20
15.30970
30
144.47810
11
-25.26520
21
9.65180
31
182.49541
12
-19.85020
22
-28.87680
32
175.43851
13
-29.13770
23
-23.21890
33
137.42140
0
3DFACE
8
layer1
62
1
10
-25.26520
20
9.65180
30
182.49541
11
-113.22490
21
-6.21360
31
201.62260
12
-107.80990
22
-44.74230
32
194.56570
13
-19.85020
23
-28.87680
33
175.43851
0
3DFACE
8
layer1
62
1
10
-25.26520
20
9.65180
30
182.49541
11
-34.55260
21
15.30970
31
144.47810
12
-122.51240
22
-0.55570
32
163.60530
13
-113.22490
23
-6.21360
33
201.62260
0
3DFACE
8
layer1
62
1
10
96.92740
20
27.57660
30
-40.69890
11
123.89500
21
27.57660
31
-69.61810
12
123.89500
22
-11.96550
32
-69.61810
13
96.92740
23
-11.96550
33
-40.69890
0
3DFACE
8
layer1
62
1
10
123.89500
20
27.57660
30
-69.61810
11
190.74280
21
27.57660
31
-7.28160
12
190.74280
22
-11.96550
32
-7.28160
13
123.89500
23
-11.96550
33
-69.61810
0
3DFACE
8
layer1
62
1
10
190.74280
20
27.57660
30
-7.28160
11
163.77530
21
27.57660
31
21.63760
12
163.77530
22
-11.96550
32
21.63760
13
190.74280
23
-11.96550
33
-7.28160
0
3DFACE
8
layer1
62
1
10
163.77530
20
27.57660
30
21.63760
11
96.92740
21
27.57660
31
-40.69890
12
96.92740
22
-11.96550
32
-40.69890
13
163.77530
23
-11.96550
33
21.63760
0
3DFACE
8
layer1
62
1
10
163.77530
20
27.57660
30
21.63760
11
190.74280
21
27.57660
31
-7.28160
12
123.89500
22
27.57660
32
-69.61810
13
96.92740
23
27.57660
33
-40.69890
0
3DFACE
8
layer1
62
1
10
234.18739
20
12.70600
30
178.41100
11
203.67580
21
18.36400
31
153.90390
12
203.67580
22
-20.16470
32
145.00880
13
234.18739
23
-25.82260
33
169.51601
0
3DFACE
8
layer1
62
1
10
203.67580
20
18.36400
30
153.90390
11
261.81500
21
34.22940
31
85.18290
12
261.81500
22
-4.29920
32
76.28790
13
203.67580
23
-20.16470
33
145.00880
0
3DFACE
8
layer1
62
1
10
261.81500
20
34.22940
30
85.18290
11
292.32660
21
28.57150
31
109.69010
12
292.32660
22
-9.95710
32
100.79510
13
261.81500
23
-4.29920
33
76.28790
0
3DFACE
8
layer1
62
1
10
292.32660
20
28.57150
30
109.69010
11
234.18739
21
12.70600
31
178.41100
12
234.18739
22
-25.82260
32
169.51601
13
292.32660
23
-9.95710
33
100.79510
0
3DFACE
8
layer1
62
1
10
292.32660
20
28.57150
30
109.69010
11
261.81500
21
34.22940
31
85.18290
12
203.67580
22
18.36400
32
153.90390
13
234.18739
23
12.70600
33
178.41100
0
3DFACE
8
layer1
62
1
10
93.69420
20
8.65690
30
111.12730
11
82.79500
21
8.65690
31
149.13760
12
82.79500
22
-30.88520
32
149.13760
13
93.69420
23
-30.88520
33
111.12730
0
3DFACE
8
layer1
62
1
10
82.79500
20
8.65690
30
149.13760
11
-5.06700
21
8.65690
31
123.94370
12
-5.06700
22
-30.88520
32
123.94370
13
82.79500
23
-30.88520
33
149.13760
0
3DFACE
8
layer1
62
1
10
-5.06700
20
8.65690
30
123.94370
11
5.83220
21
8.65690
31
85.93340
12
5.83220
22
-30.88520
32
85.93340
13
-5.06700
23
-30.88520
33
123.94370
0
3DFACE
8
layer1
62
1
10
5.83220
20
8.65690
30
85.93340
11
93.69420
21
8.65690
31
111.12730
12
93.69420
22
-30.88520
32
111.12730
13
5.83220
23
-30.88520
33
85.93340
0
3DFACE
8
layer1
62
1
10
5.83220
20
8.65690
30
85.93340
11
-5.06700
21
8.65690
31
123.94370
12
82.79500
22
8.65690
32
149.13760
13
93.69420
23
8.65690
33
111.12730
0
3DFACE
8
layer1
62
1
10
-128.07919
20
-6.21360
30
-21.78630
11
-89.76700
21
-0.55570
31
-13.80230
12
-85.72880
22
-39.08440
32
-5.87680
13
-124.04090
23
-44.74230
33
-13.86080
0
3DFACE
8
layer1
62
1
10
-89.76700
20
-0.55570
30
-13.80230
11
-110.37090
21
15.30970
31
73.82320
12
-106.33270
22
-23.21890
32
81.74870
13
-85.72880
23
-39.08440
33
-5.87680
0
3DFACE
8
layer1
62
1
10
-110.37090
20
15.30970
30
73.82320
11
-148.68300
21
9.65180
31
65.83910
12
-144.64470
22
-28.87680
32
73.76460
13
-106.33270
23
-23.21890
33
81.74870
0
3DFACE
8
layer1
62
1
10
-148.68300
20
9.65180
30
65.83910
11
-128.07919
21
-6.21360
31
-21.78630
12
-124.04090
22
-44.74230
32
-13.86080
13
-144.64470
23
-28.87680
33
73.76460
0
3DFACE
8
layer1
62
1
10
-148.68300
20
9.65180
30
65.83910
11
-110.37090
21
15.30970
31
73.82320
12
-89.76700
22
-0.55570
32
-13.80230
13
-128.07919
23
-6.21360
33
-21.78630
0
ENDSEC
0
EOF
