# Created using Spin 3D

# Vertex Array 
v 562.568 1201.571 -845.309
v 562.568 146.649 -845.309
v 562.568 1201.571 644.127
v 562.568 146.649 644.127
v -578.927 1201.571 -845.309
v -578.927 146.649 -845.309
v -578.927 1201.571 644.127
v -578.927 146.649 644.127
v 588.225 1201.571 628.041
v 588.225 146.650 628.041
v -579.482 1201.571 628.041
v -579.482 146.650 628.041
v 564.468 1201.571 -847.517
v 564.468 146.650 -847.517
v -579.482 1201.571 -847.517
v -579.482 146.650 -847.517
v 25.028 2198.927 628.041
v 675.729 1201.368 628.041
v -16.284 2198.927 628.041
v -666.985 1201.368 628.041
v 25.028 2198.927 -847.359
v 675.729 1201.368 -847.359
v -16.284 2198.927 -847.359
v -666.985 1201.368 -847.359
v -592.985 1201.571 212.163
v -592.985 630.939 212.163
v -840.064 1201.571 212.163
v -840.064 630.939 212.163
v -592.985 1201.571 -234.013
v -592.985 630.939 -234.013
v -840.064 1201.571 -234.013
v -840.064 630.939 -234.013
v -837.960 1201.571 215.553
v -837.960 630.939 215.553
v -837.960 1201.571 -226.554
v -837.960 630.939 -226.554
v -837.960 1926.757 24.028
v -837.960 1202.939 222.757
v -837.960 1926.757 -23.307
v -837.960 1202.939 -248.387
v -837.960 1723.402 79.860
v -837.960 1723.838 -86.407
v 890.336 1003.370 -608.253
v 890.336 630.939 -608.253
v 585.263 1203.499 -608.253
v 585.263 630.939 -608.253
v 890.336 1003.370 -249.025
v 890.336 630.939 -249.025
v 585.263 1203.499 -249.025
v 585.263 630.939 -249.025
v 892.960 1000.863 -608.904
v 892.960 628.272 -608.904
v 892.960 1000.863 -250.082
v 892.960 628.272 -250.082
v 611.820 2036.647 255.517
v 611.820 1208.368 98.829
v 611.820 2036.647 279.795
v 611.820 1208.368 453.306
v 611.820 1670.819 98.829
v 611.820 1669.890 453.306
v 612.036 1686.659 453.033
v 612.036 1208.368 453.033
v 257.559 1686.659 453.033
v 257.559 1208.368 453.033
v 612.036 1686.659 100.231
v 612.036 1208.368 100.231
v 257.559 1686.659 100.231
v 257.559 1208.368 100.231

# Normal Array
vn 1.000 0.000 0.000
vn 1.000 -0.000 0.000
vn -1.000 0.000 0.000
vn -1.000 0.000 0.000
vn 0.000 0.000 1.000
vn 0.000 0.000 1.000
vn -0.000 0.000 -1.000
vn 0.000 0.000 -1.000
vn 0.000 0.000 1.000
vn 0.000 0.000 1.000
vn -0.000 0.000 -1.000
vn 0.000 0.000 -1.000
vn 0.000 0.000 1.000
vn 0.000 0.000 1.000
vn -0.000 0.000 -1.000
vn 0.000 0.000 -1.000
vn -1.000 -0.000 0.000
vn -1.000 0.000 0.000
vn -1.000 -0.000 0.000
vn -1.000 0.000 0.000
vn -1.000 0.000 0.000
vn -1.000 0.000 0.000
vn -0.000 0.000 -1.000
vn 0.000 0.000 -1.000
vn 0.000 0.000 1.000
vn 0.000 0.000 1.000
vn 1.000 0.000 0.000
vn 1.000 -0.000 0.000
vn 1.000 0.000 0.000
vn 1.000 -0.000 0.000
vn 1.000 0.000 -0.000
vn 1.000 0.000 0.000
vn 0.000 0.000 1.000
vn 0.000 0.000 1.000
vn -0.000 0.000 -1.000
vn 0.000 0.000 -1.000

# Facets
f 1//1 4//1 2//1
f 4//2 1//2 3//2
f 5//3 8//3 7//3
f 8//4 5//4 6//4
f 9//5 12//5 10//5
f 12//6 9//6 11//6
f 13//7 16//7 15//7
f 16//8 13//8 14//8
f 17//9 20//9 18//9
f 20//10 17//10 19//10
f 21//11 24//11 23//11
f 24//12 21//12 22//12
f 25//13 28//13 26//13
f 28//14 25//14 27//14
f 29//15 32//15 31//15
f 32//16 29//16 30//16
f 33//17 36//17 34//17
f 36//18 33//18 35//18
f 41//19 40//19 38//19
f 40//20 41//20 42//20
f 41//21 39//21 42//21
f 39//22 41//22 37//22
f 43//23 46//23 45//23
f 46//24 43//24 44//24
f 47//25 50//25 48//25
f 50//26 47//26 49//26
f 51//27 54//27 52//27
f 54//28 51//28 53//28
f 59//29 58//29 56//29
f 58//30 59//30 60//30
f 59//31 57//31 60//31
f 57//32 59//32 55//32
f 61//33 64//33 62//33
f 64//34 61//34 63//34
f 65//35 68//35 67//35
f 68//36 65//36 66//36

# Thank you for using Spin 3D

