# Created using Spin 3D

# Vertex Array 
v -638.986 615.856 713.237
v -638.986 597.143 713.237
v 959.730 615.856 713.237
v 959.730 597.143 713.237
v 959.730 615.856 635.193
v 959.730 597.143 635.193
v -638.986 615.856 635.193
v -638.986 597.143 635.193
v -615.729 621.416 796.579
v -615.729 602.703 796.579
v 982.987 621.416 796.579
v 982.987 602.703 796.579
v 982.987 621.416 718.534
v 982.987 602.703 718.534
v -615.729 621.416 718.534
v -615.729 602.703 718.534
v -646.316 611.516 878.868
v -646.316 592.804 878.868
v 952.400 611.516 878.868
v 952.400 592.804 878.868
v 952.400 611.516 800.823
v 952.400 592.804 800.823
v -646.316 611.516 800.823
v -646.316 592.804 800.823
v -629.727 623.513 958.205
v -629.727 604.800 958.205
v 968.988 623.513 958.205
v 968.988 604.800 958.205
v 968.988 623.513 880.160
v 968.988 604.800 880.160
v -629.727 623.513 880.160
v -629.727 604.800 880.160
v -638.986 615.856 1037.049
v -638.986 597.143 1037.049
v 959.730 615.856 1037.049
v 959.730 597.143 1037.049
v 959.730 615.856 959.004
v 959.730 597.143 959.004
v -638.986 615.856 959.004
v -638.986 597.143 959.004
v -615.729 621.416 1120.390
v -615.729 602.703 1120.390
v 982.987 621.416 1120.390
v 982.987 602.703 1120.390
v 982.987 621.416 1042.345
v 982.987 602.703 1042.345
v -615.729 621.416 1042.345
v -615.729 602.703 1042.345
v -646.316 611.516 1202.679
v -646.316 592.804 1202.679
v 952.400 611.516 1202.679
v 952.400 592.804 1202.679
v 952.400 611.516 1124.634
v 952.400 592.804 1124.634
v -646.316 611.516 1124.634
v -646.316 592.804 1124.634
v -638.986 46.743 713.237
v -638.986 28.030 713.237
v 959.730 46.743 713.237
v 959.730 28.030 713.237
v 959.730 46.743 635.193
v 959.730 28.030 635.193
v -638.986 46.743 635.193
v -638.986 28.030 635.193
v -615.729 52.303 796.579
v -615.729 33.590 796.579
v 982.987 52.303 796.579
v 982.987 33.590 796.579
v 982.987 52.303 718.534
v 982.987 33.590 718.534
v -615.729 52.303 718.534
v -615.729 33.590 718.534
v -646.316 42.404 878.868
v -646.316 23.691 878.868
v 952.400 42.404 878.868
v 952.400 23.691 878.868
v 952.400 42.404 800.823
v 952.400 23.691 800.823
v -646.316 42.404 800.823
v -646.316 23.691 800.823
v -629.727 54.400 958.205
v -629.727 35.687 958.205
v 968.988 54.400 958.205
v 968.988 35.687 958.205
v 968.988 54.400 880.160
v 968.988 35.687 880.160
v -629.727 54.400 880.160
v -629.727 35.687 880.160
v -638.986 46.743 1037.049
v -638.986 28.030 1037.049
v 959.730 46.743 1037.049
v 959.730 28.030 1037.049
v 959.730 46.743 959.004
v 959.730 28.030 959.004
v -638.986 46.743 959.004
v -638.986 28.030 959.004
v -615.729 52.303 1120.390
v -615.729 33.590 1120.390
v 982.987 52.303 1120.390
v 982.987 33.590 1120.390
v 982.987 52.303 1042.345
v 982.987 33.590 1042.345
v -615.729 52.303 1042.345
v -615.729 33.590 1042.345
v -646.316 42.404 1202.679
v -646.316 23.691 1202.679
v 952.400 42.404 1202.679
v 952.400 23.691 1202.679
v 952.400 42.404 1124.634
v 952.400 23.691 1124.634
v -646.316 42.404 1124.634
v -646.316 23.691 1124.634
v 118.248 1121.463 638.370
v 118.248 610.857 638.370
v 425.012 1121.463 638.370
v 425.012 610.857 638.370
v -435.965 1053.991 640.308
v -435.965 1040.122 640.308
v -165.356 1053.991 640.308
v -165.356 1040.122 640.308
v -435.965 942.161 640.308
v -435.965 928.292 640.308
v -165.356 942.161 640.308
v -165.356 928.292 640.308
v -237.811 1120.506 640.308
v -251.680 1120.506 640.308
v -237.811 861.777 640.308
v -251.680 861.777 640.308
v -349.641 1120.506 640.308
v -363.510 1120.506 640.308
v -349.641 861.777 640.308
v -363.510 861.777 640.308
v 181.927 1078.028 -861.909
v 181.927 1064.159 -861.909
v -219.364 1078.028 -861.909
v -219.364 1064.159 -861.909
v 181.927 911.430 -861.909
v 181.927 897.561 -861.909
v -219.364 911.430 -861.909
v -219.364 897.561 -861.909
v -121.567 1147.585 -861.909
v -107.699 1147.585 -861.909
v -121.567 830.034 -861.909
v -107.699 830.034 -861.909
v 70.262 1147.585 -861.909
v 84.131 1147.585 -861.909
v 70.262 830.034 -861.909
v 84.131 830.034 -861.909
v -29.738 1147.585 -861.909
v -15.869 1147.585 -861.909
v -29.738 830.034 -861.909
v -15.869 830.034 -861.909
v 181.927 990.515 -861.909
v 181.927 976.646 -861.909
v -219.364 990.515 -861.909
v -219.364 976.646 -861.909
v 904.517 872.300 -294.616
v 904.517 858.432 -294.616
v 904.517 872.300 -565.224
v 904.517 858.432 -565.224
v 904.517 760.471 -294.616
v 904.517 746.602 -294.616
v 904.517 760.471 -565.224
v 904.517 746.602 -565.224
v 904.517 938.816 -492.769
v 904.517 938.816 -478.900
v 904.517 680.086 -492.769
v 904.517 680.086 -478.900
v 904.517 938.816 -380.939
v 904.517 938.816 -367.070
v 904.517 680.086 -380.939
v 904.517 680.086 -367.070
v -850.487 1053.129 133.511
v -850.487 1039.260 133.511
v -850.487 1053.129 -137.098
v -850.487 1039.260 -137.098
v -850.487 941.299 133.511
v -850.487 927.430 133.511
v -850.487 941.299 -137.098
v -850.487 927.430 -137.098
v -850.487 1119.644 -64.643
v -850.487 1119.644 -50.774
v -850.487 860.915 -64.643
v -850.487 860.915 -50.774
v -850.487 1119.644 47.187
v -850.487 1119.644 61.056
v -850.487 860.915 47.187
v -850.487 860.915 61.056
v -591.015 446.210 464.990
v -591.015 432.341 464.990
v -591.015 446.210 307.972
v -591.015 432.341 307.972
v -591.015 538.468 377.725
v -591.015 538.468 391.594
v -591.015 238.575 377.725
v -591.015 238.575 391.594
v -591.015 340.547 464.990
v -591.015 326.678 464.990
v -591.015 340.547 307.972
v -591.015 326.678 307.972
v -591.015 446.210 -307.306
v -591.015 432.341 -307.306
v -591.015 446.210 -543.661
v -591.015 432.341 -543.661
v -591.015 538.468 -434.239
v -591.015 538.468 -420.371
v -591.015 238.575 -434.239
v -591.015 238.575 -420.371
v -591.015 340.547 -307.306
v -591.015 326.678 -307.306
v -591.015 340.547 -543.661
v -591.015 326.678 -543.661
v 323.962 446.210 641.305
v 323.962 432.341 641.305
v 166.945 446.210 641.305
v 166.945 432.341 641.305
v 236.697 538.468 641.305
v 250.566 538.468 641.305
v 236.697 238.575 641.305
v 250.566 238.575 641.305
v 323.962 340.547 641.305
v 323.962 326.678 641.305
v 166.945 340.547 641.305
v 166.945 326.678 641.305
v 137.783 446.210 -860.550
v 137.783 432.341 -860.550
v 294.801 446.210 -860.550
v 294.801 432.341 -860.550
v 225.048 538.468 -860.550
v 211.179 538.468 -860.550
v 225.048 238.575 -860.550
v 211.179 238.575 -860.550
v 137.783 340.547 -860.550
v 137.783 326.678 -860.550
v 294.801 340.547 -860.550
v 294.801 326.678 -860.550
v -323.343 446.210 -859.443
v -323.343 432.341 -859.443
v -166.325 446.210 -859.443
v -166.325 432.341 -859.443
v -236.078 538.468 -859.443
v -249.947 538.468 -859.443
v -236.078 238.575 -859.443
v -249.947 238.575 -859.443
v -323.343 340.547 -859.443
v -323.343 326.678 -859.443
v -166.325 340.547 -859.443
v -166.325 326.678 -859.443
v 623.049 1506.715 197.680
v 623.049 1492.846 197.680
v 623.049 1506.715 354.697
v 623.049 1492.846 354.697
v 623.049 1598.973 284.944
v 623.049 1598.973 271.075
v 623.049 1299.079 284.944
v 623.049 1299.079 271.075
v 623.049 1401.052 197.680
v 623.049 1387.183 197.680
v 623.049 1401.052 354.697
v 623.049 1387.183 354.697
v -142.410 446.210 641.305
v -142.410 432.341 641.305
v -376.893 446.210 641.305
v -376.893 432.341 641.305
v -264.155 538.468 641.305
v -250.286 538.468 641.305
v -264.155 238.575 641.305
v -250.286 238.575 641.305
v -142.410 340.547 641.305
v -142.410 326.678 641.305
v -376.893 340.547 641.305
v -376.893 326.678 641.305

# Normal Array
vn -0.000 0.000 1.000
vn 0.000 0.000 1.000
vn 1.000 0.000 0.000
vn 1.000 0.000 0.000
vn -0.000 0.000 -1.000
vn 0.000 0.000 -1.000
vn -1.000 0.000 0.000
vn -1.000 0.000 0.000
vn 0.000 1.000 0.000
vn 0.000 1.000 0.000
vn 0.000 -1.000 0.000
vn 0.000 -1.000 0.000
vn -0.000 0.000 1.000
vn 0.000 0.000 1.000
vn 1.000 0.000 0.000
vn 1.000 0.000 0.000
vn -0.000 0.000 -1.000
vn 0.000 0.000 -1.000
vn -1.000 0.000 0.000
vn -1.000 0.000 0.000
vn 0.000 1.000 0.000
vn 0.000 1.000 0.000
vn 0.000 -1.000 0.000
vn 0.000 -1.000 0.000
vn -0.000 0.000 1.000
vn 0.000 0.000 1.000
vn 1.000 0.000 0.000
vn 1.000 0.000 0.000
vn -0.000 0.000 -1.000
vn 0.000 0.000 -1.000
vn -1.000 0.000 0.000
vn -1.000 0.000 0.000
vn 0.000 1.000 0.000
vn 0.000 1.000 0.000
vn 0.000 -1.000 0.000
vn 0.000 -1.000 0.000
vn -0.000 0.000 1.000
vn 0.000 0.000 1.000
vn 1.000 0.000 0.000
vn 1.000 0.000 0.000
vn -0.000 0.000 -1.000
vn 0.000 0.000 -1.000
vn -1.000 0.000 0.000
vn -1.000 0.000 0.000
vn 0.000 1.000 0.000
vn 0.000 1.000 0.000
vn 0.000 -1.000 0.000
vn 0.000 -1.000 0.000
vn -0.000 0.000 1.000
vn 0.000 0.000 1.000
vn 1.000 0.000 0.000
vn 1.000 0.000 0.000
vn -0.000 0.000 -1.000
vn 0.000 0.000 -1.000
vn -1.000 0.000 0.000
vn -1.000 0.000 0.000
vn 0.000 1.000 0.000
vn 0.000 1.000 0.000
vn 0.000 -1.000 0.000
vn 0.000 -1.000 0.000
vn -0.000 0.000 1.000
vn 0.000 0.000 1.000
vn 1.000 0.000 0.000
vn 1.000 0.000 0.000
vn -0.000 0.000 -1.000
vn 0.000 0.000 -1.000
vn -1.000 0.000 0.000
vn -1.000 0.000 0.000
vn 0.000 1.000 0.000
vn 0.000 1.000 0.000
vn 0.000 -1.000 0.000
vn 0.000 -1.000 0.000
vn -0.000 0.000 1.000
vn 0.000 0.000 1.000
vn 1.000 0.000 0.000
vn 1.000 0.000 0.000
vn -0.000 0.000 -1.000
vn 0.000 0.000 -1.000
vn -1.000 0.000 0.000
vn -1.000 0.000 0.000
vn 0.000 1.000 0.000
vn 0.000 1.000 0.000
vn 0.000 -1.000 0.000
vn 0.000 -1.000 0.000
vn -0.000 0.000 1.000
vn 0.000 0.000 1.000
vn 1.000 0.000 0.000
vn 1.000 0.000 0.000
vn -0.000 0.000 -1.000
vn 0.000 0.000 -1.000
vn -1.000 0.000 0.000
vn -1.000 0.000 0.000
vn 0.000 1.000 0.000
vn 0.000 1.000 0.000
vn 0.000 -1.000 0.000
vn 0.000 -1.000 0.000
vn -0.000 0.000 1.000
vn 0.000 0.000 1.000
vn 1.000 0.000 0.000
vn 1.000 0.000 0.000
vn -0.000 0.000 -1.000
vn 0.000 0.000 -1.000
vn -1.000 0.000 0.000
vn -1.000 0.000 0.000
vn 0.000 1.000 0.000
vn 0.000 1.000 0.000
vn 0.000 -1.000 0.000
vn 0.000 -1.000 0.000
vn -0.000 0.000 1.000
vn 0.000 0.000 1.000
vn 1.000 0.000 0.000
vn 1.000 0.000 0.000
vn -0.000 0.000 -1.000
vn 0.000 0.000 -1.000
vn -1.000 0.000 0.000
vn -1.000 0.000 0.000
vn 0.000 1.000 0.000
vn 0.000 1.000 0.000
vn 0.000 -1.000 0.000
vn 0.000 -1.000 0.000
vn -0.000 0.000 1.000
vn 0.000 0.000 1.000
vn 1.000 0.000 0.000
vn 1.000 0.000 0.000
vn -0.000 0.000 -1.000
vn 0.000 0.000 -1.000
vn -1.000 0.000 0.000
vn -1.000 0.000 0.000
vn 0.000 1.000 0.000
vn 0.000 1.000 0.000
vn 0.000 -1.000 0.000
vn 0.000 -1.000 0.000
vn -0.000 0.000 1.000
vn 0.000 0.000 1.000
vn 1.000 0.000 0.000
vn 1.000 0.000 0.000
vn -0.000 0.000 -1.000
vn 0.000 0.000 -1.000
vn -1.000 0.000 0.000
vn -1.000 0.000 0.000
vn 0.000 1.000 0.000
vn 0.000 1.000 0.000
vn 0.000 -1.000 0.000
vn 0.000 -1.000 0.000
vn -0.000 0.000 1.000
vn 0.000 0.000 1.000
vn 1.000 0.000 0.000
vn 1.000 0.000 0.000
vn -0.000 0.000 -1.000
vn 0.000 0.000 -1.000
vn -1.000 0.000 0.000
vn -1.000 0.000 0.000
vn 0.000 1.000 0.000
vn 0.000 1.000 0.000
vn 0.000 -1.000 0.000
vn 0.000 -1.000 0.000
vn -0.000 0.000 1.000
vn 0.000 0.000 1.000
vn 1.000 0.000 0.000
vn 1.000 0.000 0.000
vn -0.000 0.000 -1.000
vn 0.000 0.000 -1.000
vn -1.000 0.000 0.000
vn -1.000 0.000 0.000
vn 0.000 1.000 0.000
vn 0.000 1.000 0.000
vn 0.000 -1.000 0.000
vn 0.000 -1.000 0.000
vn -0.000 0.000 1.000
vn 0.000 0.000 1.000
vn -0.000 0.000 1.000
vn 0.000 0.000 1.000
vn -0.000 0.000 1.000
vn 0.000 0.000 1.000
vn 0.000 0.000 1.000
vn 0.000 0.000 1.000
vn 0.000 0.000 1.000
vn 0.000 0.000 1.000
vn -0.000 0.000 -1.000
vn 0.000 0.000 -1.000
vn -0.000 0.000 -1.000
vn 0.000 0.000 -1.000
vn 0.000 0.000 -1.000
vn 0.000 0.000 -1.000
vn 0.000 0.000 -1.000
vn 0.000 0.000 -1.000
vn 0.000 0.000 -1.000
vn 0.000 0.000 -1.000
vn -0.000 0.000 -1.000
vn 0.000 0.000 -1.000
vn 1.000 0.000 0.000
vn 1.000 0.000 0.000
vn 1.000 0.000 0.000
vn 1.000 0.000 0.000
vn 1.000 0.000 0.000
vn 1.000 -0.000 0.000
vn 1.000 0.000 0.000
vn 1.000 -0.000 0.000
vn -1.000 -0.000 0.000
vn -1.000 0.000 0.000
vn -1.000 -0.000 0.000
vn -1.000 0.000 0.000
vn -1.000 0.000 0.000
vn -1.000 0.000 0.000
vn -1.000 0.000 0.000
vn -1.000 0.000 0.000
vn -1.000 -0.000 0.000
vn -1.000 0.000 0.000
vn -1.000 0.000 0.000
vn -1.000 0.000 0.000
vn -1.000 -0.000 0.000
vn -1.000 0.000 0.000
vn -1.000 -0.000 0.000
vn -1.000 0.000 0.000
vn -1.000 0.000 0.000
vn -1.000 0.000 0.000
vn -1.000 -0.000 0.000
vn -1.000 0.000 0.000
vn 0.000 0.000 1.000
vn 0.000 0.000 1.000
vn -0.000 0.000 1.000
vn 0.000 0.000 1.000
vn 0.000 0.000 1.000
vn 0.000 0.000 1.000
vn 0.000 0.000 -1.000
vn 0.000 0.000 -1.000
vn -0.000 0.000 -1.000
vn 0.000 0.000 -1.000
vn 0.000 0.000 -1.000
vn 0.000 0.000 -1.000
vn 0.000 0.000 -1.000
vn 0.000 0.000 -1.000
vn -0.000 0.000 -1.000
vn 0.000 0.000 -1.000
vn 0.000 0.000 -1.000
vn 0.000 0.000 -1.000
vn 1.000 0.000 0.000
vn 1.000 -0.000 0.000
vn 1.000 0.000 0.000
vn 1.000 0.000 0.000
vn 1.000 0.000 0.000
vn 1.000 -0.000 0.000
vn 0.000 0.000 1.000
vn 0.000 0.000 1.000
vn -0.000 0.000 1.000
vn 0.000 0.000 1.000
vn 0.000 0.000 1.000
vn 0.000 0.000 1.000

# Facets
f 1//1 4//1 3//1
f 4//2 1//2 2//2
f 3//3 6//3 5//3
f 6//4 3//4 4//4
f 5//5 8//5 7//5
f 8//6 5//6 6//6
f 7//7 2//7 1//7
f 2//8 7//8 8//8
f 7//9 3//9 5//9
f 3//10 7//10 1//10
f 2//11 6//11 4//11
f 6//12 2//12 8//12
f 9//13 12//13 11//13
f 12//14 9//14 10//14
f 11//15 14//15 13//15
f 14//16 11//16 12//16
f 13//17 16//17 15//17
f 16//18 13//18 14//18
f 15//19 10//19 9//19
f 10//20 15//20 16//20
f 15//21 11//21 13//21
f 11//22 15//22 9//22
f 10//23 14//23 12//23
f 14//24 10//24 16//24
f 17//25 20//25 19//25
f 20//26 17//26 18//26
f 19//27 22//27 21//27
f 22//28 19//28 20//28
f 21//29 24//29 23//29
f 24//30 21//30 22//30
f 23//31 18//31 17//31
f 18//32 23//32 24//32
f 23//33 19//33 21//33
f 19//34 23//34 17//34
f 18//35 22//35 20//35
f 22//36 18//36 24//36
f 25//37 28//37 27//37
f 28//38 25//38 26//38
f 27//39 30//39 29//39
f 30//40 27//40 28//40
f 29//41 32//41 31//41
f 32//42 29//42 30//42
f 31//43 26//43 25//43
f 26//44 31//44 32//44
f 31//45 27//45 29//45
f 27//46 31//46 25//46
f 26//47 30//47 28//47
f 30//48 26//48 32//48
f 33//49 36//49 35//49
f 36//50 33//50 34//50
f 35//51 38//51 37//51
f 38//52 35//52 36//52
f 37//53 40//53 39//53
f 40//54 37//54 38//54
f 39//55 34//55 33//55
f 34//56 39//56 40//56
f 39//57 35//57 37//57
f 35//58 39//58 33//58
f 34//59 38//59 36//59
f 38//60 34//60 40//60
f 41//61 44//61 43//61
f 44//62 41//62 42//62
f 43//63 46//63 45//63
f 46//64 43//64 44//64
f 45//65 48//65 47//65
f 48//66 45//66 46//66
f 47//67 42//67 41//67
f 42//68 47//68 48//68
f 47//69 43//69 45//69
f 43//70 47//70 41//70
f 42//71 46//71 44//71
f 46//72 42//72 48//72
f 49//73 52//73 51//73
f 52//74 49//74 50//74
f 51//75 54//75 53//75
f 54//76 51//76 52//76
f 53//77 56//77 55//77
f 56//78 53//78 54//78
f 55//79 50//79 49//79
f 50//80 55//80 56//80
f 55//81 51//81 53//81
f 51//82 55//82 49//82
f 50//83 54//83 52//83
f 54//84 50//84 56//84
f 57//85 60//85 59//85
f 60//86 57//86 58//86
f 59//87 62//87 61//87
f 62//88 59//88 60//88
f 61//89 64//89 63//89
f 64//90 61//90 62//90
f 63//91 58//91 57//91
f 58//92 63//92 64//92
f 63//93 59//93 61//93
f 59//94 63//94 57//94
f 58//95 62//95 60//95
f 62//96 58//96 64//96
f 65//97 68//97 67//97
f 68//98 65//98 66//98
f 67//99 70//99 69//99
f 70//100 67//100 68//100
f 69//101 72//101 71//101
f 72//102 69//102 70//102
f 71//103 66//103 65//103
f 66//104 71//104 72//104
f 71//105 67//105 69//105
f 67//106 71//106 65//106
f 66//107 70//107 68//107
f 70//108 66//108 72//108
f 73//109 76//109 75//109
f 76//110 73//110 74//110
f 75//111 78//111 77//111
f 78//112 75//112 76//112
f 77//113 80//113 79//113
f 80//114 77//114 78//114
f 79//115 74//115 73//115
f 74//116 79//116 80//116
f 79//117 75//117 77//117
f 75//118 79//118 73//118
f 74//119 78//119 76//119
f 78//120 74//120 80//120
f 81//121 84//121 83//121
f 84//122 81//122 82//122
f 83//123 86//123 85//123
f 86//124 83//124 84//124
f 85//125 88//125 87//125
f 88//126 85//126 86//126
f 87//127 82//127 81//127
f 82//128 87//128 88//128
f 87//129 83//129 85//129
f 83//130 87//130 81//130
f 82//131 86//131 84//131
f 86//132 82//132 88//132
f 89//133 92//133 91//133
f 92//134 89//134 90//134
f 91//135 94//135 93//135
f 94//136 91//136 92//136
f 93//137 96//137 95//137
f 96//138 93//138 94//138
f 95//139 90//139 89//139
f 90//140 95//140 96//140
f 95//141 91//141 93//141
f 91//142 95//142 89//142
f 90//143 94//143 92//143
f 94//144 90//144 96//144
f 97//145 100//145 99//145
f 100//146 97//146 98//146
f 99//147 102//147 101//147
f 102//148 99//148 100//148
f 101//149 104//149 103//149
f 104//150 101//150 102//150
f 103//151 98//151 97//151
f 98//152 103//152 104//152
f 103//153 99//153 101//153
f 99//154 103//154 97//154
f 98//155 102//155 100//155
f 102//156 98//156 104//156
f 105//157 108//157 107//157
f 108//158 105//158 106//158
f 107//159 110//159 109//159
f 110//160 107//160 108//160
f 109//161 112//161 111//161
f 112//162 109//162 110//162
f 111//163 106//163 105//163
f 106//164 111//164 112//164
f 111//165 107//165 109//165
f 107//166 111//166 105//166
f 106//167 110//167 108//167
f 110//168 106//168 112//168
f 113//169 116//169 115//169
f 116//170 113//170 114//170
f 117//171 120//171 119//171
f 120//172 117//172 118//172
f 121//173 124//173 123//173
f 124//174 121//174 122//174
f 125//175 128//175 127//175
f 128//176 125//176 126//176
f 129//177 132//177 131//177
f 132//178 129//178 130//178
f 133//179 136//179 135//179
f 136//180 133//180 134//180
f 137//181 140//181 139//181
f 140//182 137//182 138//182
f 141//183 144//183 143//183
f 144//184 141//184 142//184
f 145//185 148//185 147//185
f 148//186 145//186 146//186
f 149//187 152//187 151//187
f 152//188 149//188 150//188
f 153//189 156//189 155//189
f 156//190 153//190 154//190
f 157//191 160//191 159//191
f 160//192 157//192 158//192
f 161//193 164//193 163//193
f 164//194 161//194 162//194
f 165//195 168//195 167//195
f 168//196 165//196 166//196
f 169//197 172//197 171//197
f 172//198 169//198 170//198
f 173//199 176//199 174//199
f 176//200 173//200 175//200
f 177//201 180//201 178//201
f 180//202 177//202 179//202
f 181//203 184//203 182//203
f 184//204 181//204 183//204
f 185//205 188//205 186//205
f 188//206 185//206 187//206
f 189//207 192//207 190//207
f 192//208 189//208 191//208
f 193//209 196//209 194//209
f 196//210 193//210 195//210
f 197//211 200//211 198//211
f 200//212 197//212 199//212
f 201//213 204//213 202//213
f 204//214 201//214 203//214
f 205//215 208//215 206//215
f 208//216 205//216 207//216
f 209//217 212//217 210//217
f 212//218 209//218 211//218
f 213//219 216//219 214//219
f 216//220 213//220 215//220
f 217//221 220//221 218//221
f 220//222 217//222 219//222
f 221//223 224//223 222//223
f 224//224 221//224 223//224
f 225//225 228//225 226//225
f 228//226 225//226 227//226
f 229//227 232//227 230//227
f 232//228 229//228 231//228
f 233//229 236//229 234//229
f 236//230 233//230 235//230
f 237//231 240//231 238//231
f 240//232 237//232 239//232
f 241//233 244//233 242//233
f 244//234 241//234 243//234
f 245//235 248//235 246//235
f 248//236 245//236 247//236
f 249//237 252//237 250//237
f 252//238 249//238 251//238
f 253//239 256//239 254//239
f 256//240 253//240 255//240
f 257//241 260//241 258//241
f 260//242 257//242 259//242
f 261//243 264//243 262//243
f 264//244 261//244 263//244
f 265//245 268//245 266//245
f 268//246 265//246 267//246
f 269//247 272//247 270//247
f 272//248 269//248 271//248

# Thank you for using Spin 3D

