0
SECTION
2
ENTITIES
999
Created by Metasequoia
0
3DFACE
8
layer1
62
1
10
-27.66990
20
-0.27930
30
66.08790
11
-32.85800
21
7.71670
31
78.92890
12
34.27240
22
7.71670
32
78.34300
13
28.86090
23
-0.27930
33
65.59450
0
3DFACE
8
layer1
62
1
10
-32.85800
20
7.71670
30
78.92890
11
-30.48950
21
-7.41070
31
73.06660
12
31.80190
22
-7.41070
32
72.52300
13
34.27240
23
7.71670
33
78.34300
0
3DFACE
8
layer1
62
1
10
-30.48950
20
-7.41070
30
73.06660
11
-27.66990
21
-0.27930
31
66.08790
12
28.86090
22
-0.27930
32
65.59450
13
31.80190
23
-7.41070
33
72.52300
0
3DFACE
8
layer1
62
1
10
28.86090
20
-0.27930
30
65.59450
11
34.27240
21
7.71670
31
78.34300
12
81.32650
22
7.71670
32
30.46040
13
68.48550
23
-0.27930
33
25.27230
0
3DFACE
8
layer1
62
1
10
34.27240
20
7.71670
30
78.34300
11
31.80190
21
-7.41070
31
72.52300
12
75.46420
22
-7.41070
32
28.09190
13
81.32650
23
7.71670
33
30.46040
0
3DFACE
8
layer1
62
1
10
31.80190
20
-7.41070
30
72.52300
11
28.86090
21
-0.27930
31
65.59450
12
68.48550
22
-0.27930
32
25.27230
13
75.46420
23
-7.41070
33
28.09190
0
3DFACE
8
layer1
62
1
10
68.48550
20
-0.27930
30
25.27230
11
81.32650
21
7.71670
31
30.46040
12
80.74060
22
7.71670
32
-36.67000
13
67.99210
23
-0.27930
33
-31.25850
0
3DFACE
8
layer1
62
1
10
81.32650
20
7.71670
30
30.46040
11
75.46420
21
-7.41070
31
28.09190
12
74.92060
22
-7.41070
32
-34.19950
13
80.74060
23
7.71670
33
-36.67000
0
3DFACE
8
layer1
62
1
10
75.46420
20
-7.41070
30
28.09190
11
68.48550
21
-0.27930
31
25.27230
12
67.99210
22
-0.27930
32
-31.25850
13
74.92060
23
-7.41070
33
-34.19950
0
3DFACE
8
layer1
62
1
10
67.99210
20
-0.27930
30
-31.25850
11
80.74060
21
7.71670
31
-36.67000
12
32.85800
22
7.71670
32
-83.72410
13
27.66990
23
-0.27930
33
-70.88310
0
3DFACE
8
layer1
62
1
10
80.74060
20
7.71670
30
-36.67000
11
74.92060
21
-7.41070
31
-34.19950
12
30.48950
22
-7.41070
32
-77.86180
13
32.85800
23
7.71670
33
-83.72410
0
3DFACE
8
layer1
62
1
10
74.92060
20
-7.41070
30
-34.19950
11
67.99210
21
-0.27930
31
-31.25850
12
27.66990
22
-0.27930
32
-70.88310
13
30.48950
23
-7.41070
33
-77.86180
0
3DFACE
8
layer1
62
1
10
27.66990
20
-0.27930
30
-70.88310
11
32.85800
21
7.71670
31
-83.72410
12
-34.27240
22
7.71670
32
-83.13820
13
-28.86100
23
-0.27930
33
-70.38970
0
3DFACE
8
layer1
62
1
10
32.85800
20
7.71670
30
-83.72410
11
30.48950
21
-7.41070
31
-77.86180
12
-31.80190
22
-7.41070
32
-77.31820
13
-34.27240
23
7.71670
33
-83.13820
0
3DFACE
8
layer1
62
1
10
30.48950
20
-7.41070
30
-77.86180
11
27.66990
21
-0.27930
31
-70.88310
12
-28.86100
22
-0.27930
32
-70.38970
13
-31.80190
23
-7.41070
33
-77.31820
0
3DFACE
8
layer1
62
1
10
-28.86100
20
-0.27930
30
-70.38970
11
-34.27240
21
7.71670
31
-83.13820
12
-81.32650
22
7.71670
32
-35.25560
13
-68.48550
23
-0.27930
33
-30.06750
0
3DFACE
8
layer1
62
1
10
-34.27240
20
7.71670
30
-83.13820
11
-31.80190
21
-7.41070
31
-77.31820
12
-75.46420
22
-7.41070
32
-32.88710
13
-81.32650
23
7.71670
33
-35.25560
0
3DFACE
8
layer1
62
1
10
-31.80190
20
-7.41070
30
-77.31820
11
-28.86100
21
-0.27930
31
-70.38970
12
-68.48550
22
-0.27930
32
-30.06750
13
-75.46420
23
-7.41070
33
-32.88710
0
3DFACE
8
layer1
62
1
10
-68.48550
20
-0.27930
30
-30.06750
11
-81.32650
21
7.71670
31
-35.25560
12
-80.74060
22
7.71670
32
31.87480
13
-67.99210
23
-0.27930
33
26.46330
0
3DFACE
8
layer1
62
1
10
-81.32650
20
7.71670
30
-35.25560
11
-75.46420
21
-7.41070
31
-32.88710
12
-74.92060
22
-7.41070
32
29.40430
13
-80.74060
23
7.71670
33
31.87480
0
3DFACE
8
layer1
62
1
10
-75.46420
20
-7.41070
30
-32.88710
11
-68.48550
21
-0.27930
31
-30.06750
12
-67.99210
22
-0.27930
32
26.46330
13
-74.92060
23
-7.41070
33
29.40430
0
3DFACE
8
layer1
62
1
10
-67.99210
20
-0.27930
30
26.46330
11
-80.74060
21
7.71670
31
31.87480
12
-32.85800
22
7.71670
32
78.92890
13
-27.66990
23
-0.27930
33
66.08790
0
3DFACE
8
layer1
62
1
10
-80.74060
20
7.71670
30
31.87480
11
-74.92060
21
-7.41070
31
29.40430
12
-30.48950
22
-7.41070
32
73.06660
13
-32.85800
23
7.71670
33
78.92890
0
3DFACE
8
layer1
62
1
10
-74.92060
20
-7.41070
30
29.40430
11
-67.99210
21
-0.27930
31
26.46330
12
-27.66990
22
-0.27930
32
66.08790
13
-30.48950
23
-7.41070
33
73.06660
0
3DFACE
8
layer1
62
1
10
28.24920
20
262.74631
30
68.87570
11
33.64850
21
254.42480
31
82.23940
12
-36.21450
22
254.42480
32
81.62970
13
-30.58280
23
262.74631
33
68.36230
0
3DFACE
8
layer1
62
1
10
33.64850
20
254.42480
30
82.23940
11
31.18360
21
270.16809
31
76.13850
12
-33.64350
22
270.16809
32
75.57270
13
-36.21450
23
254.42480
33
81.62970
0
3DFACE
8
layer1
62
1
10
31.18360
20
270.16809
30
76.13850
11
28.24920
21
262.74631
31
68.87570
12
-30.58280
22
262.74631
32
68.36230
13
-33.64350
23
270.16809
33
75.57270
0
3DFACE
8
layer1
62
1
10
-30.58280
20
262.74631
30
68.36230
11
-36.21450
21
254.42480
31
81.62970
12
-85.18410
22
254.42480
32
31.79800
13
-71.82040
23
262.74631
33
26.39870
0
3DFACE
8
layer1
62
1
10
-36.21450
20
254.42480
30
81.62970
11
-33.64350
21
270.16809
31
75.57270
12
-79.08310
22
270.16809
32
29.33300
13
-85.18410
23
254.42480
33
31.79800
0
3DFACE
8
layer1
62
1
10
-33.64350
20
270.16809
30
75.57270
11
-30.58280
21
262.74631
31
68.36230
12
-71.82040
22
262.74631
32
26.39870
13
-79.08310
23
270.16809
33
29.33300
0
3DFACE
8
layer1
62
1
10
-71.82040
20
262.74631
30
26.39870
11
-85.18410
21
254.42480
31
31.79800
12
-84.57440
22
254.42480
32
-38.06510
13
-71.30690
23
262.74631
33
-32.43340
0
3DFACE
8
layer1
62
1
10
-85.18410
20
254.42480
30
31.79800
11
-79.08310
21
270.16809
31
29.33300
12
-78.51740
22
270.16809
32
-35.49410
13
-84.57440
23
254.42480
33
-38.06510
0
3DFACE
8
layer1
62
1
10
-79.08310
20
270.16809
30
29.33300
11
-71.82040
21
262.74631
31
26.39870
12
-71.30690
22
262.74631
32
-32.43340
13
-78.51740
23
270.16809
33
-35.49410
0
3DFACE
8
layer1
62
1
10
-71.30690
20
262.74631
30
-32.43340
11
-84.57440
21
254.42480
31
-38.06510
12
-34.74260
22
254.42480
32
-87.03470
13
-29.34330
23
262.74631
33
-73.67100
0
3DFACE
8
layer1
62
1
10
-84.57440
20
254.42480
30
-38.06510
11
-78.51740
21
270.16809
31
-35.49410
12
-32.27770
22
270.16809
32
-80.93370
13
-34.74260
23
254.42480
33
-87.03470
0
3DFACE
8
layer1
62
1
10
-78.51740
20
270.16809
30
-35.49410
11
-71.30690
21
262.74631
31
-32.43340
12
-29.34330
22
262.74631
32
-73.67100
13
-32.27770
23
270.16809
33
-80.93370
0
3DFACE
8
layer1
62
1
10
-29.34330
20
262.74631
30
-73.67100
11
-34.74260
21
254.42480
31
-87.03470
12
35.12050
22
254.42480
32
-86.42490
13
29.48880
23
262.74631
33
-73.15750
0
3DFACE
8
layer1
62
1
10
-34.74260
20
254.42480
30
-87.03470
11
-32.27770
21
270.16809
31
-80.93370
12
32.54940
22
270.16809
32
-80.36800
13
35.12050
23
254.42480
33
-86.42490
0
3DFACE
8
layer1
62
1
10
-32.27770
20
270.16809
30
-80.93370
11
-29.34330
21
262.74631
31
-73.67100
12
29.48880
22
262.74631
32
-73.15750
13
32.54940
23
270.16809
33
-80.36800
0
3DFACE
8
layer1
62
1
10
29.48880
20
262.74631
30
-73.15750
11
35.12050
21
254.42480
31
-86.42490
12
84.09000
22
254.42480
32
-36.59320
13
70.72630
23
262.74640
33
-31.19390
0
3DFACE
8
layer1
62
1
10
35.12050
20
254.42480
30
-86.42490
11
32.54940
21
270.16809
31
-80.36800
12
77.98900
22
270.16809
32
-34.12830
13
84.09000
23
254.42480
33
-36.59320
0
3DFACE
8
layer1
62
1
10
32.54940
20
270.16809
30
-80.36800
11
29.48880
21
262.74631
31
-73.15750
12
70.72630
22
262.74640
32
-31.19390
13
77.98900
23
270.16809
33
-34.12830
0
3DFACE
8
layer1
62
1
10
70.72630
20
262.74640
30
-31.19390
11
84.09000
21
254.42480
31
-36.59320
12
83.48030
22
254.42480
32
33.26990
13
70.21280
23
262.74640
33
27.63820
0
3DFACE
8
layer1
62
1
10
84.09000
20
254.42480
30
-36.59320
11
77.98900
21
270.16809
31
-34.12830
12
77.42330
22
270.16809
32
30.69880
13
83.48030
23
254.42480
33
33.26990
0
3DFACE
8
layer1
62
1
10
77.98900
20
270.16809
30
-34.12830
11
70.72630
21
262.74640
31
-31.19390
12
70.21280
22
262.74640
32
27.63820
13
77.42330
23
270.16809
33
30.69880
0
3DFACE
8
layer1
62
1
10
70.21280
20
262.74640
30
27.63820
11
83.48030
21
254.42480
31
33.26990
12
33.64850
22
254.42480
32
82.23940
13
28.24920
23
262.74631
33
68.87570
0
3DFACE
8
layer1
62
1
10
83.48030
20
254.42480
30
33.26990
11
77.42330
21
270.16809
31
30.69880
12
31.18360
22
270.16809
32
76.13850
13
33.64850
23
254.42480
33
82.23940
0
3DFACE
8
layer1
62
1
10
77.42330
20
270.16809
30
30.69880
11
70.21280
21
262.74640
31
27.63820
12
28.24920
22
262.74631
32
68.87570
13
31.18360
23
270.16809
33
76.13850
0
3DFACE
8
layer1
62
1
10
35.85624
20
180.38127
30
87.70382
11
42.68184
21
171.80704
31
104.59773
12
-45.63668
22
171.80704
32
103.82700
13
-38.51727
23
180.38127
33
87.05476
0
3DFACE
8
layer1
62
1
10
42.68184
20
171.80704
30
104.59773
11
39.56582
21
188.02847
31
96.88519
12
-42.38652
22
188.02847
32
96.16995
13
-45.63668
23
171.80704
33
103.82700
0
3DFACE
8
layer1
62
1
10
39.56582
20
188.02847
30
96.88519
11
35.85624
21
180.38127
31
87.70382
12
-38.51727
22
180.38127
32
87.05476
13
-42.38652
23
188.02847
33
96.16995
0
3DFACE
8
layer1
62
1
10
-38.51727
20
180.38127
30
87.05476
11
-45.63668
21
171.80704
31
103.82700
12
-107.54242
22
171.80704
32
40.83139
13
-90.64851
23
180.38127
33
34.00576
0
3DFACE
8
layer1
62
1
10
-45.63668
20
171.80704
30
103.82700
11
-42.38652
21
188.02847
31
96.16995
12
-99.82975
22
188.02847
32
37.71522
13
-107.54242
23
171.80704
33
40.83139
0
3DFACE
8
layer1
62
1
10
-42.38652
20
188.02847
30
96.16995
11
-38.51727
21
180.38127
31
87.05476
12
-90.64851
22
180.38127
32
34.00576
13
-99.82975
23
188.02847
33
37.71522
0
3DFACE
8
layer1
62
1
10
-90.64851
20
180.38127
30
34.00576
11
-107.54242
21
171.80704
31
40.83139
12
-106.77171
22
171.80704
32
-47.48729
13
-89.99936
23
180.38127
33
-40.36788
0
3DFACE
8
layer1
62
1
10
-107.54242
20
171.80704
30
40.83139
11
-99.82975
21
188.02847
31
37.71522
12
-99.11465
22
188.02847
32
-44.23711
13
-106.77171
23
171.80704
33
-47.48729
0
3DFACE
8
layer1
62
1
10
-99.82975
20
188.02847
30
37.71522
11
-90.64851
21
180.38127
31
34.00576
12
-89.99936
22
180.38127
32
-40.36788
13
-99.11465
23
188.02847
33
-44.23711
0
3DFACE
8
layer1
62
1
10
-89.99936
20
180.38127
30
-40.36788
11
-106.77171
21
171.80704
31
-47.48729
12
-43.77594
22
171.80704
32
-109.39302
13
-36.95034
23
180.38127
33
-92.49911
0
3DFACE
8
layer1
62
1
10
-106.77171
20
171.80704
30
-47.48729
11
-99.11465
21
188.02847
31
-44.23711
12
-40.65992
22
188.02847
32
-101.68037
13
-43.77594
23
171.80704
33
-109.39302
0
3DFACE
8
layer1
62
1
10
-99.11465
20
188.02847
30
-44.23711
11
-89.99936
21
180.38127
31
-40.36788
12
-36.95034
22
180.38127
32
-92.49911
13
-40.65992
23
188.02847
33
-101.68037
0
3DFACE
8
layer1
62
1
10
-36.95034
20
180.38127
30
-92.49911
11
-43.77594
21
171.80704
31
-109.39302
12
44.54269
22
171.80704
32
-108.62222
13
37.42328
23
180.38127
33
-91.84997
0
3DFACE
8
layer1
62
1
10
-43.77594
20
171.80704
30
-109.39302
11
-40.65992
21
188.02847
31
-101.68037
12
41.29242
22
188.02847
32
-100.96525
13
44.54269
23
171.80704
33
-108.62222
0
3DFACE
8
layer1
62
1
10
-40.65992
20
188.02847
30
-101.68037
11
-36.95034
21
180.38127
31
-92.49911
12
37.42328
22
180.38127
32
-91.84997
13
41.29242
23
188.02847
33
-100.96525
0
3DFACE
8
layer1
62
1
10
37.42328
20
180.38127
30
-91.84997
11
44.54269
21
171.80704
31
-108.62222
12
106.44832
22
171.80704
32
-45.62655
13
89.55442
23
180.38132
33
-38.80093
0
3DFACE
8
layer1
62
1
10
44.54269
20
171.80704
30
-108.62222
11
41.29242
21
188.02847
31
-100.96525
12
98.73565
22
188.02847
32
-42.51052
13
106.44832
23
171.80704
33
-45.62655
0
3DFACE
8
layer1
62
1
10
41.29242
20
188.02847
30
-100.96525
11
37.42328
21
180.38127
31
-91.84997
12
89.55442
22
180.38132
32
-38.80093
13
98.73565
23
188.02847
33
-42.51052
0
3DFACE
8
layer1
62
1
10
89.55442
20
180.38132
30
-38.80093
11
106.44832
21
171.80704
31
-45.62655
12
105.67760
22
171.80704
32
42.69209
13
88.90526
23
180.38132
33
35.57269
0
3DFACE
8
layer1
62
1
10
106.44832
20
171.80704
30
-45.62655
11
98.73565
21
188.02847
31
-42.51052
12
98.02055
22
188.02847
32
39.44181
13
105.67760
23
171.80704
33
42.69209
0
3DFACE
8
layer1
62
1
10
98.73565
20
188.02847
30
-42.51052
11
89.55442
21
180.38132
31
-38.80093
12
88.90526
22
180.38132
32
35.57269
13
98.02055
23
188.02847
33
39.44181
0
3DFACE
8
layer1
62
1
10
88.90526
20
180.38132
30
35.57269
11
105.67760
21
171.80704
31
42.69209
12
42.68184
22
171.80704
32
104.59773
13
35.85624
23
180.38127
33
87.70382
0
3DFACE
8
layer1
62
1
10
105.67760
20
171.80704
30
42.69209
11
98.02055
21
188.02847
31
39.44181
12
39.56582
22
188.02847
32
96.88519
13
42.68184
23
171.80704
33
104.59773
0
3DFACE
8
layer1
62
1
10
98.02055
20
188.02847
30
39.44181
11
88.90526
21
180.38132
31
35.57269
12
35.85624
22
180.38127
32
87.70382
13
39.56582
23
188.02847
33
96.88519
0
3DFACE
8
layer1
62
1
10
-35.86267
20
84.88718
30
86.36571
11
-42.58693
21
95.25072
31
103.00883
12
44.42011
22
95.25072
32
102.24949
13
37.40631
23
84.88718
33
85.72626
0
3DFACE
8
layer1
62
1
10
-42.58693
20
95.25072
30
103.00883
11
-39.51714
21
75.64425
31
95.41075
12
41.21813
22
75.64425
32
94.70622
13
44.42011
23
95.25072
33
102.24949
0
3DFACE
8
layer1
62
1
10
-39.51714
20
75.64425
30
95.41075
11
-35.86267
21
84.88718
31
86.36571
12
37.40631
22
84.88718
32
85.72626
13
41.21813
23
75.64425
33
94.70622
0
3DFACE
8
layer1
62
1
10
37.40631
20
84.88718
30
85.72626
11
44.42011
21
95.25072
31
102.24949
12
105.40643
22
95.25072
32
40.18932
13
88.76331
23
84.88718
33
33.46507
0
3DFACE
8
layer1
62
1
10
44.42011
20
95.25072
30
102.24949
11
41.21813
21
75.64425
31
94.70622
12
97.80836
22
75.64425
32
37.11954
13
105.40643
23
95.25072
33
40.18932
0
3DFACE
8
layer1
62
1
10
41.21813
20
75.64425
30
94.70622
11
37.40631
21
84.88718
31
85.72626
12
88.76331
22
84.88718
32
33.46507
13
97.80836
23
75.64425
33
37.11954
0
3DFACE
8
layer1
62
1
10
88.76331
20
84.88718
30
33.46507
11
105.40643
21
95.25072
31
40.18932
12
104.64709
22
95.25072
32
-46.81771
13
88.12389
23
84.88718
33
-39.80390
0
3DFACE
8
layer1
62
1
10
105.40643
20
95.25072
30
40.18932
11
97.80836
21
75.64425
31
37.11954
12
97.10382
22
75.64425
32
-43.61573
13
104.64709
23
95.25072
33
-46.81771
0
3DFACE
8
layer1
62
1
10
97.80836
20
75.64425
30
37.11954
11
88.76331
21
84.88718
31
33.46507
12
88.12389
22
84.88718
32
-39.80390
13
97.10382
23
75.64425
33
-43.61573
0
3DFACE
8
layer1
62
1
10
88.12389
20
84.88718
30
-39.80390
11
104.64709
21
95.25072
31
-46.81771
12
42.58693
22
95.25072
32
-107.80402
13
35.86267
23
84.88718
33
-91.16093
0
3DFACE
8
layer1
62
1
10
104.64709
20
95.25072
30
-46.81771
11
97.10382
21
75.64425
31
-43.61573
12
39.51714
22
75.64425
32
-100.20596
13
42.58693
23
95.25072
33
-107.80402
0
3DFACE
8
layer1
62
1
10
97.10382
20
75.64425
30
-43.61573
11
88.12389
21
84.88718
31
-39.80390
12
35.86267
22
84.88718
32
-91.16093
13
39.51714
23
75.64425
33
-100.20596
0
3DFACE
8
layer1
62
1
10
35.86267
20
84.88718
30
-91.16093
11
42.58693
21
95.25072
31
-107.80402
12
-44.42011
22
95.25072
32
-107.04469
13
-37.40645
23
84.88718
33
-90.52148
0
3DFACE
8
layer1
62
1
10
42.58693
20
95.25072
30
-107.80402
11
39.51714
21
75.64425
31
-100.20596
12
-41.21813
22
75.64425
32
-99.50142
13
-44.42011
23
95.25072
33
-107.04469
0
3DFACE
8
layer1
62
1
10
39.51714
20
75.64425
30
-100.20596
11
35.86267
21
84.88718
31
-91.16093
12
-37.40645
22
84.88718
32
-90.52148
13
-41.21813
23
75.64425
33
-99.50142
0
3DFACE
8
layer1
62
1
10
-37.40645
20
84.88718
30
-90.52148
11
-44.42011
21
95.25072
31
-107.04469
12
-105.40643
22
95.25072
32
-44.98453
13
-88.76331
23
84.88718
33
-38.26027
0
3DFACE
8
layer1
62
1
10
-44.42011
20
95.25072
30
-107.04469
11
-41.21813
21
75.64425
31
-99.50142
12
-97.80836
22
75.64425
32
-41.91474
13
-105.40643
23
95.25072
33
-44.98453
0
3DFACE
8
layer1
62
1
10
-41.21813
20
75.64425
30
-99.50142
11
-37.40645
21
84.88718
31
-90.52148
12
-88.76331
22
84.88718
32
-38.26027
13
-97.80836
23
75.64425
33
-41.91474
0
3DFACE
8
layer1
62
1
10
-88.76331
20
84.88718
30
-38.26027
11
-105.40643
21
95.25072
31
-44.98453
12
-104.64709
22
95.25072
32
42.02251
13
-88.12389
23
84.88718
33
35.00871
0
3DFACE
8
layer1
62
1
10
-105.40643
20
95.25072
30
-44.98453
11
-97.80836
21
75.64425
31
-41.91474
12
-97.10382
22
75.64425
32
38.82052
13
-104.64709
23
95.25072
33
42.02251
0
3DFACE
8
layer1
62
1
10
-97.80836
20
75.64425
30
-41.91474
11
-88.76331
21
84.88718
31
-38.26027
12
-88.12389
22
84.88718
32
35.00871
13
-97.10382
23
75.64425
33
38.82052
0
3DFACE
8
layer1
62
1
10
-88.12389
20
84.88718
30
35.00871
11
-104.64709
21
95.25072
31
42.02251
12
-42.58693
22
95.25072
32
103.00883
13
-35.86267
23
84.88718
33
86.36571
0
3DFACE
8
layer1
62
1
10
-104.64709
20
95.25072
30
42.02251
11
-97.10382
21
75.64425
31
38.82052
12
-39.51714
22
75.64425
32
95.41075
13
-42.58693
23
95.25072
33
103.00883
0
3DFACE
8
layer1
62
1
10
-97.10382
20
75.64425
30
38.82052
11
-88.12389
21
84.88718
31
35.00871
12
-35.86267
22
84.88718
32
86.36571
13
-39.51714
23
75.64425
33
95.41075
0
3DFACE
8
layer1
62
1
10
73.40130
20
263.02609
30
-34.46380
11
-73.40130
21
263.02609
31
-34.46380
12
-73.40130
22
263.02609
32
30.97450
13
73.40130
23
263.02609
33
30.97450
0
3DFACE
8
layer1
62
1
10
73.40130
20
-1.93380
30
30.24490
11
-73.40130
21
-1.93380
31
30.24490
12
-73.40130
22
-1.93380
32
-35.19350
13
73.40130
23
-1.93380
33
-35.19350
0
ENDSEC
0
EOF
