0
SECTION
2
ENTITIES
999
Created by Metasequoia
0
3DFACE
8
layer1
62
1
10
-65.75600
20
258.85809
30
28.25920
11
-82.44120
21
258.85809
31
28.25920
12
-106.15210
22
153.22720
32
36.81150
13
-84.63420
23
153.22720
33
36.81150
0
3DFACE
8
layer1
62
1
10
-82.44120
20
258.85809
30
28.25920
11
-82.44120
21
258.85809
31
-30.96660
12
-106.15210
22
153.22720
32
-39.56850
13
-106.15210
23
153.22720
33
36.81150
0
3DFACE
8
layer1
62
1
10
-82.44120
20
258.85809
30
-30.96660
11
-65.75600
21
258.85809
31
-30.96660
12
-84.63420
22
153.22720
32
-39.56850
13
-106.15210
23
153.22720
33
-39.56850
0
3DFACE
8
layer1
62
1
10
-106.15210
20
113.62820
30
36.81150
11
-84.63420
21
113.62820
31
36.81150
12
-84.63420
22
153.22720
32
36.81150
13
-106.15210
23
153.22720
33
36.81150
0
3DFACE
8
layer1
62
1
10
-106.15210
20
113.62820
30
-39.56850
11
-106.15210
21
113.62820
31
36.81150
12
-106.15210
22
153.22720
32
36.81150
13
-106.15210
23
153.22720
33
-39.56850
0
3DFACE
8
layer1
62
1
10
-84.63420
20
113.62820
30
-39.56850
11
-106.15210
21
113.62820
31
-39.56850
12
-106.15210
22
153.22720
32
-39.56850
13
-84.63420
23
153.22720
33
-39.56850
0
3DFACE
8
layer1
62
1
10
-78.07090
20
1.84230
30
26.68280
11
-62.27650
21
1.84230
31
26.68280
12
-84.63420
22
113.62820
32
36.81150
13
-106.15210
23
113.62820
33
36.81150
0
3DFACE
8
layer1
62
1
10
-78.07090
20
1.84230
30
-29.38110
11
-78.07090
21
1.84230
31
26.68280
12
-106.15210
22
113.62820
32
36.81150
13
-106.15210
23
113.62820
33
-39.56850
0
3DFACE
8
layer1
62
1
10
-62.27650
20
1.84230
30
-29.38110
11
-78.07090
21
1.84230
31
-29.38110
12
-106.15210
22
113.62820
32
-39.56850
13
-84.63420
23
113.62820
33
-39.56850
0
3DFACE
8
layer1
62
1
10
-25.73530
20
258.85809
30
66.41280
11
-37.53350
21
258.85809
31
78.21090
12
-48.23730
22
153.22720
32
101.23140
13
-33.02190
23
153.22720
33
86.01600
0
3DFACE
8
layer1
62
1
10
-37.53350
20
258.85809
30
78.21090
11
-79.41250
21
258.85809
31
36.33200
12
-102.24610
22
153.22720
32
47.22260
13
-48.23730
23
153.22720
33
101.23140
0
3DFACE
8
layer1
62
1
10
-79.41250
20
258.85809
30
36.33200
11
-67.61430
21
258.85809
31
24.53380
12
-87.03060
22
153.22720
32
32.00720
13
-102.24610
23
153.22720
33
47.22260
0
3DFACE
8
layer1
62
1
10
-48.23730
20
113.62820
30
101.23140
11
-33.02190
21
113.62820
31
86.01600
12
-33.02190
22
153.22720
32
86.01600
13
-48.23730
23
153.22720
33
101.23140
0
3DFACE
8
layer1
62
1
10
-102.24610
20
113.62820
30
47.22260
11
-48.23730
21
113.62820
31
101.23140
12
-48.23730
22
153.22720
32
101.23140
13
-102.24610
23
153.22720
33
47.22260
0
3DFACE
8
layer1
62
1
10
-87.03060
20
113.62820
30
32.00720
11
-102.24610
21
113.62820
31
47.22260
12
-102.24610
22
153.22720
32
47.22260
13
-87.03060
23
153.22720
33
32.00720
0
3DFACE
8
layer1
62
1
10
-35.56070
20
1.84230
30
73.96790
11
-24.39230
21
1.84230
31
62.79960
12
-33.02190
22
113.62820
32
86.01600
13
-48.23730
23
113.62820
33
101.23140
0
3DFACE
8
layer1
62
1
10
-75.20390
20
1.84230
30
34.32470
11
-35.56070
21
1.84230
31
73.96790
12
-48.23730
22
113.62820
32
101.23140
13
-102.24610
23
113.62820
33
47.22260
0
3DFACE
8
layer1
62
1
10
-64.03550
20
1.84230
30
23.15640
11
-75.20390
21
1.84230
31
34.32470
12
-102.24610
22
113.62820
32
47.22260
13
-87.03060
23
113.62820
33
32.00720
0
3DFACE
8
layer1
62
1
10
30.04950
20
258.85809
30
63.80810
11
30.04950
21
258.85809
31
80.49330
12
38.92060
22
153.22720
32
104.17490
13
38.92060
23
153.22720
33
82.65700
0
3DFACE
8
layer1
62
1
10
30.04950
20
258.85809
30
80.49330
11
-29.17630
21
258.85809
31
80.49330
12
-37.45940
22
153.22720
32
104.17490
13
38.92060
23
153.22720
33
104.17490
0
3DFACE
8
layer1
62
1
10
-29.17630
20
258.85809
30
80.49330
11
-29.17630
21
258.85809
31
63.80810
12
-37.45940
22
153.22720
32
82.65700
13
-37.45940
23
153.22720
33
104.17490
0
3DFACE
8
layer1
62
1
10
38.92060
20
113.62820
30
104.17490
11
38.92060
21
113.62820
31
82.65700
12
38.92060
22
153.22720
32
82.65700
13
38.92060
23
153.22720
33
104.17490
0
3DFACE
8
layer1
62
1
10
-37.45940
20
113.62820
30
104.17490
11
38.92060
21
113.62820
31
104.17490
12
38.92060
22
153.22720
32
104.17490
13
-37.45940
23
153.22720
33
104.17490
0
3DFACE
8
layer1
62
1
10
-37.45940
20
113.62820
30
82.65700
11
-37.45940
21
113.62820
31
104.17490
12
-37.45940
22
153.22720
32
104.17490
13
-37.45940
23
153.22720
33
82.65700
0
3DFACE
8
layer1
62
1
10
28.41440
20
1.84230
30
76.12840
11
28.41440
21
1.84230
31
60.33400
12
38.92060
22
113.62820
32
82.65700
13
38.92060
23
113.62820
33
104.17490
0
3DFACE
8
layer1
62
1
10
-27.64960
20
1.84230
30
76.12840
11
28.41440
21
1.84230
31
76.12840
12
38.92060
22
113.62820
32
104.17490
13
-37.45940
23
113.62820
33
104.17490
0
3DFACE
8
layer1
62
1
10
-27.64960
20
1.84230
30
60.33400
11
-27.64960
21
1.84230
31
76.12840
12
-37.45940
22
113.62820
32
104.17490
13
-37.45940
23
113.62820
33
82.65700
0
3DFACE
8
layer1
62
1
10
83.47730
20
153.22720
30
36.81150
11
104.99520
21
153.22720
31
36.81150
12
81.28430
22
258.85809
32
28.25920
13
64.59920
23
258.85809
33
28.25920
0
3DFACE
8
layer1
62
1
10
104.99520
20
153.22720
30
36.81150
11
104.99520
21
153.22720
31
-39.56850
12
81.28430
22
258.85809
32
-30.96660
13
81.28430
23
258.85809
33
28.25920
0
3DFACE
8
layer1
62
1
10
104.99520
20
153.22720
30
-39.56850
11
83.47730
21
153.22720
31
-39.56850
12
64.59920
22
258.85809
32
-30.96660
13
81.28430
23
258.85809
33
-30.96660
0
3DFACE
8
layer1
62
1
10
31.86490
20
153.22720
30
86.01600
11
47.08050
21
153.22720
31
101.23140
12
36.37670
22
258.85809
32
78.21090
13
24.57850
23
258.85809
33
66.41280
0
3DFACE
8
layer1
62
1
10
47.08050
20
153.22720
30
101.23140
11
101.08920
21
153.22720
31
47.22260
12
78.25560
22
258.85809
32
36.33200
13
36.37670
23
258.85809
33
78.21090
0
3DFACE
8
layer1
62
1
10
101.08920
20
153.22720
30
47.22260
11
85.87380
21
153.22720
31
32.00720
12
66.45740
22
258.85809
32
24.53380
13
78.25560
23
258.85809
33
36.33200
0
3DFACE
8
layer1
62
1
10
104.99520
20
113.62820
30
-39.56850
11
83.47730
21
113.62820
31
-39.56850
12
83.47730
22
153.22720
32
-39.56850
13
104.99520
23
153.22720
33
-39.56850
0
3DFACE
8
layer1
62
1
10
104.99520
20
113.62820
30
36.81150
11
104.99520
21
113.62820
31
-39.56850
12
104.99520
22
153.22720
32
-39.56850
13
104.99520
23
153.22720
33
36.81150
0
3DFACE
8
layer1
62
1
10
83.47730
20
113.62820
30
36.81150
11
104.99520
21
113.62820
31
36.81150
12
104.99520
22
153.22720
32
36.81150
13
83.47730
23
153.22720
33
36.81150
0
3DFACE
8
layer1
62
1
10
101.08920
20
113.62820
30
47.22260
11
85.87380
21
113.62820
31
32.00720
12
85.87380
22
153.22720
32
32.00720
13
101.08920
23
153.22720
33
47.22260
0
3DFACE
8
layer1
62
1
10
47.08050
20
113.62820
30
101.23140
11
101.08920
21
113.62820
31
47.22260
12
101.08920
22
153.22720
32
47.22260
13
47.08050
23
153.22720
33
101.23140
0
3DFACE
8
layer1
62
1
10
31.86490
20
113.62820
30
86.01600
11
47.08050
21
113.62820
31
101.23140
12
47.08050
22
153.22720
32
101.23140
13
31.86490
23
153.22720
33
86.01600
0
3DFACE
8
layer1
62
1
10
76.91390
20
1.84230
30
-29.38110
11
61.11960
21
1.84230
31
-29.38110
12
83.47730
22
113.62820
32
-39.56850
13
104.99520
23
113.62820
33
-39.56850
0
3DFACE
8
layer1
62
1
10
76.91390
20
1.84230
30
26.68280
11
76.91390
21
1.84230
31
-29.38110
12
104.99520
22
113.62820
32
-39.56850
13
104.99520
23
113.62820
33
36.81150
0
3DFACE
8
layer1
62
1
10
61.11960
20
1.84230
30
26.68280
11
76.91390
21
1.84230
31
26.68280
12
104.99520
22
113.62820
32
36.81150
13
83.47730
23
113.62820
33
36.81150
0
3DFACE
8
layer1
62
1
10
74.04710
20
1.84230
30
34.32470
11
62.87870
21
1.84230
31
23.15640
12
85.87380
22
113.62820
32
32.00720
13
101.08920
23
113.62820
33
47.22260
0
3DFACE
8
layer1
62
1
10
34.40380
20
1.84230
30
73.96790
11
74.04710
21
1.84230
31
34.32470
12
101.08920
22
113.62820
32
47.22260
13
47.08050
23
113.62820
33
101.23140
0
3DFACE
8
layer1
62
1
10
23.23550
20
1.84230
30
62.79960
11
34.40380
21
1.84230
31
73.96790
12
47.08050
22
113.62820
32
101.23140
13
31.86490
23
113.62820
33
86.01600
0
3DFACE
8
layer1
62
1
10
24.57850
20
258.85809
30
-68.94900
11
36.37670
21
258.85809
31
-80.74720
12
47.08050
22
153.22720
32
-103.76770
13
31.86500
23
153.22720
33
-88.55230
0
3DFACE
8
layer1
62
1
10
36.37670
20
258.85809
30
-80.74720
11
78.25560
21
258.85809
31
-38.86830
12
101.08920
22
153.22720
32
-49.75880
13
47.08050
23
153.22720
33
-103.76770
0
3DFACE
8
layer1
62
1
10
78.25560
20
258.85809
30
-38.86830
11
66.45740
21
258.85809
31
-27.07000
12
85.87380
22
153.22720
32
-34.54340
13
101.08920
23
153.22720
33
-49.75880
0
3DFACE
8
layer1
62
1
10
-31.20630
20
258.85809
30
-66.34440
11
-31.20630
21
258.85809
31
-83.02960
12
-40.07740
22
153.22720
32
-106.71110
13
-40.07740
23
153.22720
33
-85.19320
0
3DFACE
8
layer1
62
1
10
-31.20630
20
258.85809
30
-83.02960
11
28.01940
21
258.85809
31
-83.02960
12
36.30260
22
153.22720
32
-106.71110
13
-40.07740
23
153.22720
33
-106.71110
0
3DFACE
8
layer1
62
1
10
28.01940
20
258.85809
30
-83.02960
11
28.01940
21
258.85809
31
-66.34440
12
36.30260
22
153.22720
32
-85.19330
13
36.30260
23
153.22720
33
-106.71110
0
3DFACE
8
layer1
62
1
10
-33.02180
20
153.22720
30
-88.55230
11
-48.23730
21
153.22720
31
-103.76770
12
-37.53350
22
258.85809
32
-80.74720
13
-25.73530
23
258.85809
33
-68.94900
0
3DFACE
8
layer1
62
1
10
-48.23730
20
153.22720
30
-103.76770
11
-102.24610
21
153.22720
31
-49.75880
12
-79.41240
22
258.85809
32
-38.86820
13
-37.53350
23
258.85809
33
-80.74720
0
3DFACE
8
layer1
62
1
10
-102.24610
20
153.22720
30
-49.75880
11
-87.03060
21
153.22720
31
-34.54340
12
-67.61420
22
258.85809
32
-27.07000
13
-79.41240
23
258.85809
33
-38.86820
0
3DFACE
8
layer1
62
1
10
47.08050
20
113.62820
30
-103.76770
11
31.86500
21
113.62820
31
-88.55230
12
31.86500
22
153.22720
32
-88.55230
13
47.08050
23
153.22720
33
-103.76770
0
3DFACE
8
layer1
62
1
10
101.08920
20
113.62820
30
-49.75880
11
47.08050
21
113.62820
31
-103.76770
12
47.08050
22
153.22720
32
-103.76770
13
101.08920
23
153.22720
33
-49.75880
0
3DFACE
8
layer1
62
1
10
85.87380
20
113.62820
30
-34.54340
11
101.08920
21
113.62820
31
-49.75880
12
101.08920
22
153.22720
32
-49.75880
13
85.87380
23
153.22720
33
-34.54340
0
3DFACE
8
layer1
62
1
10
-40.07740
20
113.62820
30
-106.71110
11
-40.07740
21
113.62820
31
-85.19320
12
-40.07740
22
153.22720
32
-85.19320
13
-40.07740
23
153.22720
33
-106.71110
0
3DFACE
8
layer1
62
1
10
36.30260
20
113.62820
30
-106.71110
11
-40.07740
21
113.62820
31
-106.71110
12
-40.07740
22
153.22720
32
-106.71110
13
36.30260
23
153.22720
33
-106.71110
0
3DFACE
8
layer1
62
1
10
36.30260
20
113.62820
30
-85.19330
11
36.30260
21
113.62820
31
-106.71110
12
36.30260
22
153.22720
32
-106.71110
13
36.30260
23
153.22720
33
-85.19330
0
3DFACE
8
layer1
62
1
10
-102.24610
20
113.62820
30
-49.75880
11
-87.03060
21
113.62820
31
-34.54340
12
-87.03060
22
153.22720
32
-34.54340
13
-102.24610
23
153.22720
33
-49.75880
0
3DFACE
8
layer1
62
1
10
-48.23730
20
113.62820
30
-103.76770
11
-102.24610
21
113.62820
31
-49.75880
12
-102.24610
22
153.22720
32
-49.75880
13
-48.23730
23
153.22720
33
-103.76770
0
3DFACE
8
layer1
62
1
10
-33.02180
20
113.62820
30
-88.55230
11
-48.23730
21
113.62820
31
-103.76770
12
-48.23730
22
153.22720
32
-103.76770
13
-33.02180
23
153.22720
33
-88.55230
0
3DFACE
8
layer1
62
1
10
34.40380
20
1.84230
30
-76.50420
11
23.23550
21
1.84230
31
-65.33580
12
31.86500
22
113.62820
32
-88.55230
13
47.08050
23
113.62820
33
-103.76770
0
3DFACE
8
layer1
62
1
10
74.04710
20
1.84230
30
-36.86100
11
34.40380
21
1.84230
31
-76.50420
12
47.08050
22
113.62820
32
-103.76770
13
101.08920
23
113.62820
33
-49.75880
0
3DFACE
8
layer1
62
1
10
62.87870
20
1.84230
30
-25.69260
11
74.04710
21
1.84230
31
-36.86100
12
101.08920
22
113.62820
32
-49.75880
13
85.87380
23
113.62820
33
-34.54340
0
3DFACE
8
layer1
62
1
10
-29.57120
20
1.84230
30
-78.66470
11
-29.57120
21
1.84230
31
-62.87030
12
-40.07740
22
113.62820
32
-85.19320
13
-40.07740
23
113.62820
33
-106.71110
0
3DFACE
8
layer1
62
1
10
26.49270
20
1.84230
30
-78.66470
11
-29.57120
21
1.84230
31
-78.66470
12
-40.07740
22
113.62820
32
-106.71110
13
36.30260
23
113.62820
33
-106.71110
0
3DFACE
8
layer1
62
1
10
26.49270
20
1.84230
30
-62.87030
11
26.49270
21
1.84230
31
-78.66470
12
36.30260
22
113.62820
32
-106.71110
13
36.30260
23
113.62820
33
-85.19330
0
3DFACE
8
layer1
62
1
10
-75.20390
20
1.84230
30
-36.86090
11
-64.03550
21
1.84230
31
-25.69260
12
-87.03060
22
113.62820
32
-34.54340
13
-102.24610
23
113.62820
33
-49.75880
0
3DFACE
8
layer1
62
1
10
-35.56070
20
1.84230
30
-76.50420
11
-75.20390
21
1.84230
31
-36.86090
12
-102.24610
22
113.62820
32
-49.75880
13
-48.23730
23
113.62820
33
-103.76770
0
3DFACE
8
layer1
62
1
10
-24.39230
20
1.84230
30
-65.33580
11
-35.56070
21
1.84230
31
-76.50420
12
-48.23730
22
113.62820
32
-103.76770
13
-33.02180
23
113.62820
33
-88.55230
0
3DFACE
8
layer1
62
1
10
35.97140
20
263.92111
30
-78.89800
11
-35.97140
21
263.92111
31
-78.89800
12
-72.31110
22
263.92111
32
-32.45430
13
72.31110
23
263.92111
33
-32.45430
0
3DFACE
8
layer1
62
1
10
-35.97140
20
263.92111
30
74.67910
11
35.97140
21
263.92111
31
74.67910
12
72.31110
22
263.92111
32
28.23540
13
-72.31110
23
263.92111
33
28.23540
0
3DFACE
8
layer1
62
1
10
35.97140
20
-2.82880
30
68.93150
11
-35.97140
21
-2.82880
31
68.93150
12
-72.31110
22
-2.82880
32
28.23540
13
72.31110
23
-2.82880
33
28.23540
0
3DFACE
8
layer1
62
1
10
-35.97140
20
-2.82880
30
-73.78780
11
35.97140
21
-2.82880
31
-73.78780
12
72.31110
22
-2.82880
32
-32.45430
13
-72.31110
23
-2.82880
33
-32.45430
0
ENDSEC
0
EOF
