# Created using Spin 3D

# Vertex Array 
v 396.537 74.528 479.164
v 384.595 -3.589 491.106
v 470.665 74.528 479.164
v 482.607 -3.589 491.106
v 470.665 74.528 405.035
v 482.607 -3.589 393.093
v 396.537 74.528 405.035
v 384.595 -3.589 393.093
v -396.537 74.528 479.164
v -384.595 -3.589 491.106
v -470.665 74.528 479.164
v -482.607 -3.589 491.106
v -470.665 74.528 405.035
v -482.607 -3.589 393.093
v -396.537 74.528 405.035
v -384.595 -3.589 393.093
v 396.537 74.528 -479.164
v 384.595 -3.589 -491.106
v 470.665 74.528 -479.164
v 482.607 -3.589 -491.106
v 470.665 74.528 -405.035
v 482.607 -3.589 -393.093
v 396.537 74.528 -405.035
v 384.595 -3.589 -393.093
v -396.537 74.528 -479.164
v -384.595 -3.589 -491.106
v -470.665 74.528 -479.164
v -482.607 -3.589 -491.106
v -470.665 74.528 -405.035
v -482.607 -3.589 -393.093
v -396.537 74.528 -405.035
v -384.595 -3.589 -393.093
v 396.537 74.528 113.666
v 384.595 -3.589 101.724
v 470.665 74.528 113.666
v 482.607 -3.589 101.724
v 470.665 74.528 187.794
v 482.607 -3.589 199.737
v 396.537 74.528 187.794
v 384.595 -3.589 199.737
v -396.537 74.528 113.666
v -384.595 -3.589 101.724
v -470.665 74.528 113.666
v -482.607 -3.589 101.724
v -470.665 74.528 187.794
v -482.607 -3.589 199.737
v -396.537 74.528 187.794
v -384.595 -3.589 199.737

# Normal Array
vn -0.000 0.151 0.989
vn 0.000 0.151 0.989
vn 0.989 0.151 0.000
vn 0.989 0.151 -0.000
vn 0.000 0.151 -0.989
vn 0.000 0.151 -0.989
vn -0.989 0.151 0.000
vn -0.989 0.151 0.000
vn 0.000 1.000 0.000
vn 0.000 1.000 0.000
vn 0.000 0.151 0.989
vn 0.000 0.151 0.989
vn -0.989 0.151 0.000
vn -0.989 0.151 0.000
vn 0.000 0.151 -0.989
vn 0.000 0.151 -0.989
vn 0.989 0.151 0.000
vn 0.989 0.151 0.000
vn 0.000 1.000 -0.000
vn 0.000 1.000 0.000
vn 0.000 0.151 -0.989
vn 0.000 0.151 -0.989
vn 0.989 0.151 0.000
vn 0.989 0.151 0.000
vn 0.000 0.151 0.989
vn 0.000 0.151 0.989
vn -0.989 0.151 0.000
vn -0.989 0.151 0.000
vn 0.000 1.000 0.000
vn 0.000 1.000 -0.000
vn 0.000 0.151 -0.989
vn 0.000 0.151 -0.989
vn -0.989 0.151 0.000
vn -0.989 0.151 0.000
vn -0.000 0.151 0.989
vn 0.000 0.151 0.989
vn 0.989 0.151 0.000
vn 0.989 0.151 -0.000
vn 0.000 1.000 0.000
vn 0.000 1.000 0.000
vn 0.000 0.151 -0.989
vn 0.000 0.151 -0.989
vn 0.989 0.151 0.000
vn 0.989 0.151 0.000
vn 0.000 0.151 0.989
vn 0.000 0.151 0.989
vn -0.989 0.151 0.000
vn -0.989 0.151 0.000
vn 0.000 1.000 0.000
vn 0.000 1.000 -0.000
vn 0.000 0.151 -0.989
vn 0.000 0.151 -0.989
vn -0.989 0.151 0.000
vn -0.989 0.151 0.000
vn -0.000 0.151 0.989
vn 0.000 0.151 0.989
vn 0.989 0.151 0.000
vn 0.989 0.151 -0.000
vn 0.000 1.000 0.000
vn 0.000 1.000 0.000

# Facets
f 1//1 4//1 3//1
f 4//2 1//2 2//2
f 3//3 6//3 5//3
f 6//4 3//4 4//4
f 5//5 8//5 7//5
f 8//6 5//6 6//6
f 7//7 2//7 1//7
f 2//8 7//8 8//8
f 7//9 3//9 5//9
f 3//10 7//10 1//10
f 9//11 12//11 10//11
f 12//12 9//12 11//12
f 11//13 14//13 12//13
f 14//14 11//14 13//14
f 13//15 16//15 14//15
f 16//16 13//16 15//16
f 15//17 10//17 16//17
f 10//18 15//18 9//18
f 15//19 11//19 9//19
f 11//20 15//20 13//20
f 17//21 20//21 18//21
f 20//22 17//22 19//22
f 19//23 22//23 20//23
f 22//24 19//24 21//24
f 21//25 24//25 22//25
f 24//26 21//26 23//26
f 23//27 18//27 24//27
f 18//28 23//28 17//28
f 23//29 19//29 17//29
f 19//30 23//30 21//30
f 25//31 28//31 27//31
f 28//32 25//32 26//32
f 27//33 30//33 29//33
f 30//34 27//34 28//34
f 29//35 32//35 31//35
f 32//36 29//36 30//36
f 31//37 26//37 25//37
f 26//38 31//38 32//38
f 31//39 27//39 29//39
f 27//40 31//40 25//40
f 33//41 36//41 34//41
f 36//42 33//42 35//42
f 35//43 38//43 36//43
f 38//44 35//44 37//44
f 37//45 40//45 38//45
f 40//46 37//46 39//46
f 39//47 34//47 40//47
f 34//48 39//48 33//48
f 39//49 35//49 33//49
f 35//50 39//50 37//50
f 41//51 44//51 43//51
f 44//52 41//52 42//52
f 43//53 46//53 45//53
f 46//54 43//54 44//54
f 45//55 48//55 47//55
f 48//56 45//56 46//56
f 47//57 42//57 41//57
f 42//58 47//58 48//58
f 47//59 43//59 45//59
f 43//60 47//60 41//60

# Thank you for using Spin 3D

