# Created using Spin 3D

# Vertex Array 
v -622.078 1115.881 936.063
v -622.078 981.255 936.063
v 605.923 1115.881 936.063
v 605.923 981.255 936.063
v 605.923 1115.881 -938.407
v 605.923 981.255 -938.407
v -622.078 1115.881 -938.407
v -622.078 981.255 -938.407
v -602.533 1014.393 950.422
v -602.533 879.766 950.422
v 625.468 1014.393 950.422
v 625.468 879.766 950.422
v 625.468 1014.393 -924.048
v 625.468 879.766 -924.048
v -602.533 1014.393 -924.048
v -602.533 879.766 -924.048
v -622.078 909.219 936.063
v -622.078 774.593 936.063
v 605.923 909.219 936.063
v 605.923 774.593 936.063
v 605.923 909.219 -938.407
v 605.923 774.593 -938.407
v -622.078 909.219 -938.407
v -622.078 774.593 -938.407
v -602.533 807.731 950.422
v -602.533 673.105 950.422
v 625.468 807.731 950.422
v 625.468 673.105 950.422
v 625.468 807.731 -924.048
v 625.468 673.105 -924.048
v -602.533 807.731 -924.048
v -602.533 673.105 -924.048
v -622.078 692.204 936.063
v -622.078 557.578 936.063
v 605.923 692.204 936.063
v 605.923 557.578 936.063
v 605.923 692.204 -938.407
v 605.923 557.578 -938.407
v -622.078 692.204 -938.407
v -622.078 557.578 -938.407
v -602.533 590.716 950.422
v -602.533 456.089 950.422
v 625.468 590.716 950.422
v 625.468 456.089 950.422
v 625.468 590.716 -924.048
v 625.468 456.089 -924.048
v -602.533 590.716 -924.048
v -602.533 456.089 -924.048
v -622.078 460.547 936.063
v -622.078 325.920 936.063
v 605.923 460.547 936.063
v 605.923 325.920 936.063
v 605.923 460.547 -938.407
v 605.923 325.920 -938.407
v -622.078 460.547 -938.407
v -622.078 325.920 -938.407
v -602.533 359.058 950.422
v -602.533 224.432 950.422
v 625.468 359.058 950.422
v 625.468 224.432 950.422
v 625.468 359.058 -924.048
v 625.468 224.432 -924.048
v -602.533 359.058 -924.048
v -602.533 224.432 -924.048
v -622.078 261.803 936.063
v -622.078 55.817 936.063
v 605.923 261.803 936.063
v 605.923 55.817 936.063
v 605.923 261.803 -938.407
v 605.923 55.817 -938.407
v -622.078 261.803 -938.407
v -622.078 55.817 -938.407
v -602.533 88.955 950.422
v -602.533 -45.671 950.422
v 625.468 88.955 950.422
v 625.468 -45.671 950.422
v 625.468 88.955 -924.048
v 625.468 -45.671 -924.048
v -602.533 88.955 -924.048
v -602.533 -45.671 -924.048
v -24.994 2102.697 942.015
v 24.994 2102.697 942.015
v -626.774 1126.699 942.015
v 626.774 1126.699 942.015
v -24.994 2102.697 -942.015
v 24.994 2102.697 -942.015
v -626.774 1126.699 -942.015
v 626.774 1126.699 -942.015
v 569.919 626.078 -128.718
v 1220.671 626.078 -128.718
v 569.919 -19.994 -128.718
v 1220.671 -19.994 -128.718
v 1220.671 626.078 -797.858
v 569.919 626.078 -797.859
v 1220.671 -19.994 -797.858
v 569.919 -19.994 -797.859
v 1234.031 626.078 -155.058
v 1234.031 626.078 -798.820
v 1234.031 -19.994 -155.058
v 1234.031 -19.994 -798.820
v 569.919 915.360 -128.718
v 1220.671 665.866 -128.718
v 569.919 624.785 -128.718
v 1220.671 624.785 -128.718
v 1220.671 665.866 -797.858
v 569.919 915.360 -797.859
v 1220.671 624.785 -797.858
v 569.919 624.785 -797.859

# Normal Array
vn -0.000 0.000 1.000
vn 0.000 0.000 1.000
vn 1.000 0.000 0.000
vn 1.000 0.000 0.000
vn -0.000 0.000 -1.000
vn 0.000 0.000 -1.000
vn -1.000 0.000 0.000
vn -1.000 0.000 0.000
vn 0.000 -1.000 0.000
vn 0.000 -1.000 0.000
vn -0.000 0.000 1.000
vn 0.000 0.000 1.000
vn 1.000 0.000 0.000
vn 1.000 0.000 0.000
vn -0.000 0.000 -1.000
vn 0.000 0.000 -1.000
vn -1.000 0.000 0.000
vn -1.000 0.000 0.000
vn 0.000 1.000 0.000
vn 0.000 1.000 0.000
vn 0.000 -1.000 0.000
vn 0.000 -1.000 0.000
vn -0.000 0.000 1.000
vn 0.000 0.000 1.000
vn 1.000 0.000 0.000
vn 1.000 0.000 0.000
vn -0.000 0.000 -1.000
vn 0.000 0.000 -1.000
vn -1.000 0.000 0.000
vn -1.000 0.000 0.000
vn 0.000 1.000 0.000
vn 0.000 1.000 0.000
vn 0.000 -1.000 0.000
vn 0.000 -1.000 0.000
vn -0.000 0.000 1.000
vn 0.000 0.000 1.000
vn 1.000 0.000 0.000
vn 1.000 0.000 0.000
vn -0.000 0.000 -1.000
vn 0.000 0.000 -1.000
vn -1.000 0.000 0.000
vn -1.000 0.000 0.000
vn 0.000 1.000 0.000
vn 0.000 1.000 0.000
vn 0.000 -1.000 0.000
vn 0.000 -1.000 0.000
vn -0.000 0.000 1.000
vn 0.000 0.000 1.000
vn 1.000 0.000 0.000
vn 1.000 0.000 0.000
vn -0.000 0.000 -1.000
vn 0.000 0.000 -1.000
vn -1.000 0.000 0.000
vn -1.000 0.000 0.000
vn 0.000 1.000 0.000
vn 0.000 1.000 0.000
vn 0.000 -1.000 0.000
vn 0.000 -1.000 0.000
vn -0.000 0.000 1.000
vn 0.000 0.000 1.000
vn 1.000 0.000 0.000
vn 1.000 0.000 0.000
vn -0.000 0.000 -1.000
vn 0.000 0.000 -1.000
vn -1.000 0.000 0.000
vn -1.000 0.000 0.000
vn 0.000 1.000 0.000
vn 0.000 1.000 0.000
vn 0.000 -1.000 0.000
vn 0.000 -1.000 0.000
vn -0.000 0.000 1.000
vn 0.000 0.000 1.000
vn 1.000 0.000 0.000
vn 1.000 0.000 0.000
vn -0.000 0.000 -1.000
vn 0.000 0.000 -1.000
vn -1.000 0.000 0.000
vn -1.000 0.000 0.000
vn 0.000 1.000 0.000
vn 0.000 1.000 0.000
vn 0.000 -1.000 0.000
vn 0.000 -1.000 0.000
vn -0.000 0.000 1.000
vn 0.000 0.000 1.000
vn 1.000 0.000 0.000
vn 1.000 0.000 0.000
vn -0.000 0.000 -1.000
vn 0.000 0.000 -1.000
vn -1.000 0.000 0.000
vn -1.000 0.000 0.000
vn 0.000 1.000 0.000
vn 0.000 1.000 0.000
vn 0.000 -1.000 0.000
vn 0.000 -1.000 0.000
vn -0.000 0.000 1.000
vn 0.000 0.000 1.000
vn 1.000 0.000 0.000
vn 1.000 0.000 0.000
vn -0.000 0.000 -1.000
vn 0.000 0.000 -1.000
vn -1.000 0.000 0.000
vn -1.000 0.000 0.000
vn 0.000 1.000 0.000
vn 0.000 1.000 0.000
vn 0.000 -1.000 0.000
vn 0.000 -1.000 0.000
vn -0.000 0.000 1.000
vn 0.000 0.000 1.000
vn 1.000 0.000 0.000
vn 1.000 0.000 0.000
vn -0.000 0.000 -1.000
vn 0.000 0.000 -1.000
vn -1.000 0.000 0.000
vn -1.000 0.000 0.000
vn 0.000 1.000 0.000
vn 0.000 1.000 0.000
vn -0.000 0.000 1.000
vn 0.000 0.000 1.000
vn 0.000 -0.000 -1.000
vn 0.000 0.000 -1.000
vn -0.000 0.000 1.000
vn 0.000 0.000 1.000
vn 0.000 0.000 -1.000
vn 0.000 0.000 -1.000
vn 1.000 0.000 0.000
vn 1.000 0.000 0.000
vn 0.000 0.000 1.000
vn 0.000 0.000 1.000
vn 0.000 0.000 -1.000
vn 0.000 0.000 -1.000

# Facets
f 1//1 4//1 3//1
f 4//2 1//2 2//2
f 3//3 6//3 5//3
f 6//4 3//4 4//4
f 5//5 8//5 7//5
f 8//6 5//6 6//6
f 7//7 2//7 1//7
f 2//8 7//8 8//8
f 2//9 6//9 4//9
f 6//10 2//10 8//10
f 9//11 12//11 11//11
f 12//12 9//12 10//12
f 11//13 14//13 13//13
f 14//14 11//14 12//14
f 13//15 16//15 15//15
f 16//16 13//16 14//16
f 15//17 10//17 9//17
f 10//18 15//18 16//18
f 15//19 11//19 13//19
f 11//20 15//20 9//20
f 10//21 14//21 12//21
f 14//22 10//22 16//22
f 17//23 20//23 19//23
f 20//24 17//24 18//24
f 19//25 22//25 21//25
f 22//26 19//26 20//26
f 21//27 24//27 23//27
f 24//28 21//28 22//28
f 23//29 18//29 17//29
f 18//30 23//30 24//30
f 23//31 19//31 21//31
f 19//32 23//32 17//32
f 18//33 22//33 20//33
f 22//34 18//34 24//34
f 25//35 28//35 27//35
f 28//36 25//36 26//36
f 27//37 30//37 29//37
f 30//38 27//38 28//38
f 29//39 32//39 31//39
f 32//40 29//40 30//40
f 31//41 26//41 25//41
f 26//42 31//42 32//42
f 31//43 27//43 29//43
f 27//44 31//44 25//44
f 26//45 30//45 28//45
f 30//46 26//46 32//46
f 33//47 36//47 35//47
f 36//48 33//48 34//48
f 35//49 38//49 37//49
f 38//50 35//50 36//50
f 37//51 40//51 39//51
f 40//52 37//52 38//52
f 39//53 34//53 33//53
f 34//54 39//54 40//54
f 39//55 35//55 37//55
f 35//56 39//56 33//56
f 34//57 38//57 36//57
f 38//58 34//58 40//58
f 41//59 44//59 43//59
f 44//60 41//60 42//60
f 43//61 46//61 45//61
f 46//62 43//62 44//62
f 45//63 48//63 47//63
f 48//64 45//64 46//64
f 47//65 42//65 41//65
f 42//66 47//66 48//66
f 47//67 43//67 45//67
f 43//68 47//68 41//68
f 42//69 46//69 44//69
f 46//70 42//70 48//70
f 49//71 52//71 51//71
f 52//72 49//72 50//72
f 51//73 54//73 53//73
f 54//74 51//74 52//74
f 53//75 56//75 55//75
f 56//76 53//76 54//76
f 55//77 50//77 49//77
f 50//78 55//78 56//78
f 55//79 51//79 53//79
f 51//80 55//80 49//80
f 50//81 54//81 52//81
f 54//82 50//82 56//82
f 57//83 60//83 59//83
f 60//84 57//84 58//84
f 59//85 62//85 61//85
f 62//86 59//86 60//86
f 61//87 64//87 63//87
f 64//88 61//88 62//88
f 63//89 58//89 57//89
f 58//90 63//90 64//90
f 63//91 59//91 61//91
f 59//92 63//92 57//92
f 58//93 62//93 60//93
f 62//94 58//94 64//94
f 65//95 68//95 67//95
f 68//96 65//96 66//96
f 67//97 70//97 69//97
f 70//98 67//98 68//98
f 69//99 72//99 71//99
f 72//100 69//100 70//100
f 71//101 66//101 65//101
f 66//102 71//102 72//102
f 71//103 67//103 69//103
f 67//104 71//104 65//104
f 66//105 70//105 68//105
f 70//106 66//106 72//106
f 73//107 76//107 75//107
f 76//108 73//108 74//108
f 75//109 78//109 77//109
f 78//110 75//110 76//110
f 77//111 80//111 79//111
f 80//112 77//112 78//112
f 79//113 74//113 73//113
f 74//114 79//114 80//114
f 79//115 75//115 77//115
f 75//116 79//116 73//116
f 81//117 84//117 82//117
f 84//118 81//118 83//118
f 85//119 88//119 87//119
f 88//120 85//120 86//120
f 89//121 92//121 90//121
f 92//122 89//122 91//122
f 93//123 96//123 94//123
f 96//124 93//124 95//124
f 97//125 100//125 98//125
f 100//126 97//126 99//126
f 101//127 104//127 102//127
f 104//128 101//128 103//128
f 105//129 108//129 106//129
f 108//130 105//130 107//130

# Thank you for using Spin 3D

