# Created using Spin 3D

# Vertex Array 
v 595.016 1017.920 600.654
v 595.016 817.920 600.654
v 638.706 1017.920 600.654
v 638.706 817.920 600.654
v 638.706 1017.920 367.213
v 638.706 817.920 367.213
v 595.016 1017.920 367.213
v 595.016 817.920 367.213
v -595.016 1017.920 600.654
v -595.016 817.920 600.654
v -638.706 1017.920 600.654
v -638.706 817.920 600.654
v -638.706 1017.920 367.213
v -638.706 817.920 367.213
v -595.016 1017.920 367.213
v -595.016 817.920 367.213
v 595.016 1017.920 -600.654
v 595.016 817.920 -600.654
v 638.706 1017.920 -600.654
v 638.706 817.920 -600.654
v 638.706 1017.920 -367.213
v 638.706 817.920 -367.213
v 595.016 1017.920 -367.213
v 595.016 817.920 -367.213
v -595.016 1017.920 -600.654
v -595.016 817.920 -600.654
v -638.706 1017.920 -600.654
v -638.706 817.920 -600.654
v -638.706 1017.920 -367.213
v -638.706 817.920 -367.213
v -595.016 1017.920 -367.213
v -595.016 817.920 -367.213
v -108.489 1017.920 921.555
v -108.489 817.920 921.555
v -108.489 1017.920 965.244
v -108.489 817.920 965.244
v 124.952 1017.920 965.244
v 124.952 817.920 965.244
v 124.952 1017.920 921.555
v 124.952 817.920 921.555
v -108.489 1017.920 -921.555
v -108.489 817.920 -921.555
v -108.489 1017.920 -965.244
v -108.489 817.920 -965.244
v 124.952 1017.920 -965.244
v 124.952 817.920 -965.244
v 124.952 1017.920 -921.555
v 124.952 817.920 -921.555
v 595.016 420.379 600.654
v 595.016 220.379 600.654
v 638.706 420.379 600.654
v 638.706 220.379 600.654
v 638.706 420.379 367.213
v 638.706 220.379 367.213
v 595.016 420.379 367.213
v 595.016 220.379 367.213
v -595.016 420.379 600.654
v -595.016 220.379 600.654
v -638.706 420.379 600.654
v -638.706 220.379 600.654
v -638.706 420.379 367.213
v -638.706 220.379 367.213
v -595.016 420.379 367.213
v -595.016 220.379 367.213
v -108.489 420.379 921.555
v -108.489 220.379 921.555
v -108.489 420.379 965.244
v -108.489 220.379 965.244
v 124.952 420.379 965.244
v 124.952 220.379 965.244
v 124.952 420.379 921.555
v 124.952 220.379 921.555
v 780.518 420.379 -161.913
v 780.518 -22.790 -161.913
v 780.518 420.379 -118.224
v 780.518 -22.790 -118.224
v 1045.974 420.379 -118.224
v 1045.974 -22.790 -118.224
v 1045.974 420.379 -161.913
v 1045.974 -22.790 -161.913
v 1193.901 612.272 -600.058
v 1193.901 410.007 -600.058
v 1237.591 612.272 -600.058
v 1237.591 410.007 -600.058
v 1237.591 612.272 -747.583
v 1237.591 410.007 -747.583
v 1193.901 612.272 -747.583
v 1193.901 410.007 -747.583
v -159.017 2229.437 718.507
v -159.017 1957.869 718.507
v 159.017 2229.437 718.507
v 159.017 1957.869 718.507
v 159.017 2229.437 400.473
v 159.017 1957.869 400.473
v -159.017 2229.437 400.473
v -159.017 1957.869 400.473
v -159.017 2229.437 -718.507
v -159.017 1957.869 -718.507
v 159.017 2229.437 -718.507
v 159.017 1957.869 -718.507
v 159.017 2229.437 -400.473
v 159.017 1957.869 -400.473
v -159.017 2229.437 -400.473
v -159.017 1957.869 -400.473
v -193.161 2282.556 752.652
v -193.161 2228.595 752.652
v 193.161 2282.556 752.652
v 193.161 2228.595 752.652
v 193.161 2282.556 366.329
v 193.161 2228.595 366.329
v -193.161 2282.556 366.329
v -193.161 2228.595 366.329
v -193.161 2282.556 -752.652
v -193.161 2228.595 -752.652
v 193.161 2282.556 -752.652
v 193.161 2228.595 -752.652
v 193.161 2282.556 -366.329
v 193.161 2228.595 -366.329
v -193.161 2282.556 -366.329
v -193.161 2228.595 -366.329
v -159.017 2539.271 718.507
v -159.017 2267.702 718.507
v 159.017 2539.271 718.507
v 159.017 2267.702 718.507
v 159.017 2539.271 400.473
v 159.017 2267.702 400.473
v -159.017 2539.271 400.473
v -159.017 2267.702 400.473
v -159.017 2539.271 -718.507
v -159.017 2267.702 -718.507
v 159.017 2539.271 -718.507
v 159.017 2267.702 -718.507
v 159.017 2539.271 -400.473
v 159.017 2267.702 -400.473
v -159.017 2539.271 -400.473
v -159.017 2267.702 -400.473

# Normal Array
vn -0.000 0.000 1.000
vn 0.000 0.000 1.000
vn 1.000 0.000 0.000
vn 1.000 0.000 0.000
vn -0.000 0.000 -1.000
vn 0.000 0.000 -1.000
vn 0.000 1.000 0.000
vn 0.000 1.000 0.000
vn 0.000 -1.000 0.000
vn 0.000 -1.000 0.000
vn 0.000 0.000 1.000
vn 0.000 0.000 1.000
vn -1.000 -0.000 0.000
vn -1.000 0.000 0.000
vn 0.000 0.000 -1.000
vn 0.000 0.000 -1.000
vn 0.000 1.000 -0.000
vn 0.000 1.000 0.000
vn 0.000 -1.000 -0.000
vn 0.000 -1.000 0.000
vn 0.000 0.000 -1.000
vn 0.000 0.000 -1.000
vn 1.000 0.000 0.000
vn 1.000 -0.000 0.000
vn 0.000 0.000 1.000
vn 0.000 0.000 1.000
vn 0.000 1.000 0.000
vn 0.000 1.000 -0.000
vn 0.000 -1.000 0.000
vn 0.000 -1.000 -0.000
vn -0.000 0.000 -1.000
vn 0.000 0.000 -1.000
vn -1.000 0.000 0.000
vn -1.000 0.000 0.000
vn -0.000 0.000 1.000
vn 0.000 0.000 1.000
vn 0.000 1.000 0.000
vn 0.000 1.000 0.000
vn 0.000 -1.000 0.000
vn 0.000 -1.000 0.000
vn -1.000 0.000 0.000
vn -1.000 0.000 0.000
vn -0.000 0.000 1.000
vn 0.000 0.000 1.000
vn 1.000 0.000 0.000
vn 1.000 0.000 0.000
vn 0.000 1.000 -0.000
vn 0.000 1.000 0.000
vn 0.000 -1.000 0.000
vn 0.000 -1.000 -0.000
vn -1.000 -0.000 0.000
vn -1.000 0.000 0.000
vn 0.000 0.000 -1.000
vn 0.000 0.000 -1.000
vn 1.000 0.000 0.000
vn 1.000 -0.000 0.000
vn 0.000 1.000 0.000
vn 0.000 1.000 0.000
vn 0.000 -1.000 0.000
vn 0.000 -1.000 0.000
vn -0.000 0.000 1.000
vn 0.000 0.000 1.000
vn 1.000 0.000 0.000
vn 1.000 0.000 0.000
vn -0.000 0.000 -1.000
vn 0.000 0.000 -1.000
vn 0.000 1.000 0.000
vn 0.000 1.000 0.000
vn 0.000 -1.000 0.000
vn 0.000 -1.000 0.000
vn 0.000 0.000 1.000
vn 0.000 0.000 1.000
vn -1.000 -0.000 0.000
vn -1.000 0.000 0.000
vn 0.000 0.000 -1.000
vn 0.000 0.000 -1.000
vn 0.000 1.000 -0.000
vn 0.000 1.000 0.000
vn 0.000 -1.000 -0.000
vn 0.000 -1.000 0.000
vn -1.000 0.000 0.000
vn -1.000 0.000 0.000
vn -0.000 0.000 1.000
vn 0.000 0.000 1.000
vn 1.000 0.000 0.000
vn 1.000 0.000 0.000
vn 0.000 1.000 -0.000
vn 0.000 1.000 0.000
vn 0.000 -1.000 0.000
vn 0.000 -1.000 -0.000
vn -1.000 0.000 0.000
vn -1.000 0.000 0.000
vn -0.000 0.000 1.000
vn 0.000 0.000 1.000
vn 1.000 0.000 0.000
vn 1.000 0.000 0.000
vn 0.000 1.000 -0.000
vn 0.000 1.000 0.000
vn -0.000 0.000 1.000
vn 0.000 0.000 1.000
vn 1.000 0.000 0.000
vn 1.000 0.000 0.000
vn -0.000 0.000 -1.000
vn 0.000 0.000 -1.000
vn 0.000 1.000 0.000
vn 0.000 1.000 0.000
vn 0.000 -1.000 0.000
vn 0.000 -1.000 0.000
vn -0.000 0.000 1.000
vn 0.000 0.000 1.000
vn 1.000 0.000 0.000
vn 1.000 0.000 0.000
vn -0.000 0.000 -1.000
vn 0.000 0.000 -1.000
vn -1.000 0.000 0.000
vn -1.000 0.000 0.000
vn 0.000 0.000 -1.000
vn 0.000 0.000 -1.000
vn 1.000 0.000 0.000
vn 1.000 -0.000 0.000
vn 0.000 0.000 1.000
vn 0.000 0.000 1.000
vn -1.000 -0.000 0.000
vn -1.000 0.000 0.000
vn -0.000 0.000 1.000
vn 0.000 0.000 1.000
vn 1.000 0.000 0.000
vn 1.000 0.000 0.000
vn -0.000 0.000 -1.000
vn 0.000 0.000 -1.000
vn -1.000 0.000 0.000
vn -1.000 0.000 0.000
vn 0.000 1.000 0.000
vn 0.000 1.000 0.000
vn 0.000 -1.000 0.000
vn 0.000 -1.000 0.000
vn 0.000 0.000 -1.000
vn 0.000 0.000 -1.000
vn 1.000 0.000 0.000
vn 1.000 -0.000 0.000
vn 0.000 0.000 1.000
vn 0.000 0.000 1.000
vn -1.000 -0.000 0.000
vn -1.000 0.000 0.000
vn 0.000 1.000 0.000
vn 0.000 1.000 -0.000
vn 0.000 -1.000 0.000
vn 0.000 -1.000 -0.000
vn -0.000 0.000 1.000
vn 0.000 0.000 1.000
vn 1.000 0.000 0.000
vn 1.000 0.000 0.000
vn -0.000 0.000 -1.000
vn 0.000 0.000 -1.000
vn -1.000 0.000 0.000
vn -1.000 0.000 0.000
vn 0.000 1.000 0.000
vn 0.000 1.000 0.000
vn 0.000 0.000 -1.000
vn 0.000 0.000 -1.000
vn 1.000 0.000 0.000
vn 1.000 -0.000 0.000
vn 0.000 0.000 1.000
vn 0.000 0.000 1.000
vn -1.000 -0.000 0.000
vn -1.000 0.000 0.000
vn 0.000 1.000 0.000
vn 0.000 1.000 -0.000

# Facets
f 1//1 4//1 3//1
f 4//2 1//2 2//2
f 3//3 6//3 5//3
f 6//4 3//4 4//4
f 5//5 8//5 7//5
f 8//6 5//6 6//6
f 7//7 3//7 5//7
f 3//8 7//8 1//8
f 2//9 6//9 4//9
f 6//10 2//10 8//10
f 9//11 12//11 10//11
f 12//12 9//12 11//12
f 11//13 14//13 12//13
f 14//14 11//14 13//14
f 13//15 16//15 14//15
f 16//16 13//16 15//16
f 15//17 11//17 9//17
f 11//18 15//18 13//18
f 10//19 14//19 16//19
f 14//20 10//20 12//20
f 17//21 20//21 18//21
f 20//22 17//22 19//22
f 19//23 22//23 20//23
f 22//24 19//24 21//24
f 21//25 24//25 22//25
f 24//26 21//26 23//26
f 23//27 19//27 17//27
f 19//28 23//28 21//28
f 18//29 22//29 24//29
f 22//30 18//30 20//30
f 25//31 28//31 27//31
f 28//32 25//32 26//32
f 27//33 30//33 29//33
f 30//34 27//34 28//34
f 29//35 32//35 31//35
f 32//36 29//36 30//36
f 31//37 27//37 29//37
f 27//38 31//38 25//38
f 26//39 30//39 28//39
f 30//40 26//40 32//40
f 33//41 36//41 35//41
f 36//42 33//42 34//42
f 35//43 38//43 37//43
f 38//44 35//44 36//44
f 37//45 40//45 39//45
f 40//46 37//46 38//46
f 39//47 35//47 37//47
f 35//48 39//48 33//48
f 34//49 38//49 36//49
f 38//50 34//50 40//50
f 41//51 44//51 42//51
f 44//52 41//52 43//52
f 43//53 46//53 44//53
f 46//54 43//54 45//54
f 45//55 48//55 46//55
f 48//56 45//56 47//56
f 47//57 43//57 41//57
f 43//58 47//58 45//58
f 42//59 46//59 48//59
f 46//60 42//60 44//60
f 49//61 52//61 51//61
f 52//62 49//62 50//62
f 51//63 54//63 53//63
f 54//64 51//64 52//64
f 53//65 56//65 55//65
f 56//66 53//66 54//66
f 55//67 51//67 53//67
f 51//68 55//68 49//68
f 50//69 54//69 52//69
f 54//70 50//70 56//70
f 57//71 60//71 58//71
f 60//72 57//72 59//72
f 59//73 62//73 60//73
f 62//74 59//74 61//74
f 61//75 64//75 62//75
f 64//76 61//76 63//76
f 63//77 59//77 57//77
f 59//78 63//78 61//78
f 58//79 62//79 64//79
f 62//80 58//80 60//80
f 65//81 68//81 67//81
f 68//82 65//82 66//82
f 67//83 70//83 69//83
f 70//84 67//84 68//84
f 69//85 72//85 71//85
f 72//86 69//86 70//86
f 71//87 67//87 69//87
f 67//88 71//88 65//88
f 66//89 70//89 68//89
f 70//90 66//90 72//90
f 73//91 76//91 75//91
f 76//92 73//92 74//92
f 75//93 78//93 77//93
f 78//94 75//94 76//94
f 77//95 80//95 79//95
f 80//96 77//96 78//96
f 79//97 75//97 77//97
f 75//98 79//98 73//98
f 81//99 84//99 83//99
f 84//100 81//100 82//100
f 83//101 86//101 85//101
f 86//102 83//102 84//102
f 85//103 88//103 87//103
f 88//104 85//104 86//104
f 87//105 83//105 85//105
f 83//106 87//106 81//106
f 82//107 86//107 84//107
f 86//108 82//108 88//108
f 89//109 92//109 91//109
f 92//110 89//110 90//110
f 91//111 94//111 93//111
f 94//112 91//112 92//112
f 93//113 96//113 95//113
f 96//114 93//114 94//114
f 95//115 90//115 89//115
f 90//116 95//116 96//116
f 97//117 100//117 98//117
f 100//118 97//118 99//118
f 99//119 102//119 100//119
f 102//120 99//120 101//120
f 101//121 104//121 102//121
f 104//122 101//122 103//122
f 103//123 98//123 104//123
f 98//124 103//124 97//124
f 105//125 108//125 107//125
f 108//126 105//126 106//126
f 107//127 110//127 109//127
f 110//128 107//128 108//128
f 109//129 112//129 111//129
f 112//130 109//130 110//130
f 111//131 106//131 105//131
f 106//132 111//132 112//132
f 111//133 107//133 109//133
f 107//134 111//134 105//134
f 106//135 110//135 108//135
f 110//136 106//136 112//136
f 113//137 116//137 114//137
f 116//138 113//138 115//138
f 115//139 118//139 116//139
f 118//140 115//140 117//140
f 117//141 120//141 118//141
f 120//142 117//142 119//142
f 119//143 114//143 120//143
f 114//144 119//144 113//144
f 119//145 115//145 113//145
f 115//146 119//146 117//146
f 114//147 118//147 120//147
f 118//148 114//148 116//148
f 121//149 124//149 123//149
f 124//150 121//150 122//150
f 123//151 126//151 125//151
f 126//152 123//152 124//152
f 125//153 128//153 127//153
f 128//154 125//154 126//154
f 127//155 122//155 121//155
f 122//156 127//156 128//156
f 127//157 123//157 125//157
f 123//158 127//158 121//158
f 129//159 132//159 130//159
f 132//160 129//160 131//160
f 131//161 134//161 132//161
f 134//162 131//162 133//162
f 133//163 136//163 134//163
f 136//164 133//164 135//164
f 135//165 130//165 136//165
f 130//166 135//166 129//166
f 135//167 131//167 129//167
f 131//168 135//168 133//168

# Thank you for using Spin 3D

