# Created using Spin 3D

# Vertex Array 
v -633.056 1137.320 948.185
v -633.056 1086.831 948.185
v 633.056 1137.320 948.185
v 633.056 1086.831 948.185
v 633.056 1137.320 -948.185
v 633.056 1086.831 -948.185
v -633.056 1137.320 -948.185
v -633.056 1086.831 -948.185
v -633.056 1126.515 -170.786
v -633.056 1126.515 -120.297
v 633.056 1126.515 -170.786
v 633.056 1126.515 -120.297
v 633.056 -17.070 -170.786
v 633.056 -17.070 -120.297
v -633.056 -17.070 -170.786
v -633.056 -17.070 -120.297
v -633.056 1126.515 -805.485
v -633.056 1126.515 -754.996
v 633.056 1126.515 -805.485
v 633.056 1126.515 -754.996
v 633.056 -17.070 -805.485
v 633.056 -17.070 -754.996
v -633.056 -17.070 -805.485
v -633.056 -17.070 -754.996
v 1182.606 654.512 -123.930
v 1182.606 -27.070 -123.930
v 1236.746 654.512 -123.930
v 1236.746 -27.070 -123.930
v 1236.746 654.512 -178.070
v 1236.746 -27.070 -178.070
v 1182.606 654.512 -178.070
v 1182.606 -27.070 -178.070
v 1182.606 654.512 -750.102
v 1182.606 -27.070 -750.102
v 1236.746 654.512 -750.102
v 1236.746 -27.070 -750.102
v 1236.746 654.512 -804.242
v 1236.746 -27.070 -804.242
v 1182.606 654.512 -804.242
v 1182.606 -27.070 -804.242
v 1235.178 654.143 -123.905
v 624.099 654.143 -123.905
v 1235.178 612.371 -123.905
v 624.099 612.371 -123.905
v 1235.178 612.371 -803.560
v 624.099 612.371 -803.560
v 1235.178 654.143 -803.560
v 624.099 654.143 -803.560
v 1235.178 654.143 -762.228
v 624.099 654.143 -762.228
v 1235.178 612.371 -762.228
v 624.099 612.371 -762.228
v 1235.178 612.371 -804.000
v 624.099 612.371 -804.000
v 1235.178 654.143 -804.000
v 624.099 654.143 -804.000
v 1218.079 462.555 -123.905
v 624.099 462.555 -123.905
v 1218.079 420.783 -123.905
v 624.099 420.783 -123.905
v 1218.079 420.783 -803.927
v 624.099 420.783 -803.927
v 1218.079 462.555 -803.927
v 624.099 462.555 -803.927
v 1192.946 407.893 -156.990
v 1192.946 407.893 -768.070
v 1192.946 366.121 -156.990
v 1192.946 366.121 -768.070
v 1234.718 366.121 -156.990
v 1234.718 366.121 -768.070
v 1234.718 407.893 -156.990
v 1234.718 407.893 -768.070
v 1192.946 653.638 -156.990
v 1192.946 653.638 -768.070
v 1192.946 611.867 -156.990
v 1192.946 611.867 -768.070
v 1234.718 611.867 -156.990
v 1234.718 611.867 -768.070
v 1234.718 653.638 -156.990
v 1234.718 653.638 -768.070
v 736.102 631.286 -166.025
v 736.102 -22.955 -166.025
v 736.102 631.286 -124.254
v 736.102 -22.955 -124.254
v 777.874 631.286 -124.254
v 777.874 -22.955 -124.254
v 777.874 631.286 -166.025
v 777.874 -22.955 -166.025
v 1047.389 631.286 -166.025
v 1047.389 -22.955 -166.025
v 1047.389 631.286 -124.254
v 1047.389 -22.955 -124.254
v 1089.161 631.286 -124.254
v 1089.161 -22.955 -124.254
v 1089.161 631.286 -166.025
v 1089.161 -22.955 -166.025
v 1194.365 631.286 -371.291
v 1194.365 -22.955 -371.291
v 1194.365 631.286 -329.519
v 1194.365 -22.955 -329.519
v 1236.137 631.286 -329.519
v 1236.137 -22.955 -329.519
v 1236.137 631.286 -371.291
v 1236.137 -22.955 -371.291
v 1194.365 631.286 -598.338
v 1194.365 -22.955 -598.339
v 1194.365 631.286 -556.567
v 1194.365 -22.955 -556.567
v 1236.137 631.286 -556.567
v 1236.137 -22.955 -556.567
v 1236.137 631.286 -598.338
v 1236.137 -22.955 -598.339
v -386.368 1621.806 948.185
v -386.368 1571.317 948.185
v 386.368 1621.806 948.185
v 386.368 1571.317 948.185
v 386.368 1621.806 -948.185
v 386.368 1571.317 -948.185
v -386.368 1621.806 -948.185
v -386.368 1571.317 -948.185
v 144.525 1615.846 948.185
v 100.801 1590.602 948.185
v 421.168 1116.576 948.185
v 377.443 1091.332 948.185
v 421.168 1116.576 -948.185
v 377.443 1091.332 -948.185
v 144.525 1615.846 -948.185
v 100.801 1590.602 -948.185
v -144.525 1615.846 948.185
v -100.801 1590.602 948.185
v -421.168 1116.576 948.185
v -377.443 1091.332 948.185
v -421.168 1116.576 -948.185
v -377.443 1091.332 -948.185
v -144.525 1615.846 -948.185
v -100.801 1590.602 -948.185

# Normal Array
vn -0.000 0.000 1.000
vn 0.000 0.000 1.000
vn 1.000 0.000 0.000
vn 1.000 0.000 0.000
vn -0.000 0.000 -1.000
vn 0.000 0.000 -1.000
vn -1.000 0.000 0.000
vn -1.000 0.000 0.000
vn 0.000 1.000 0.000
vn 0.000 1.000 0.000
vn 0.000 -1.000 0.000
vn 0.000 -1.000 0.000
vn 1.000 0.000 0.000
vn 1.000 -0.000 0.000
vn -1.000 0.000 0.000
vn -1.000 -0.000 0.000
vn 0.000 -0.000 -1.000
vn -0.000 -0.000 -1.000
vn -0.000 0.000 1.000
vn 0.000 0.000 1.000
vn 1.000 0.000 0.000
vn 1.000 -0.000 0.000
vn -1.000 0.000 0.000
vn -1.000 -0.000 0.000
vn 0.000 -0.000 -1.000
vn -0.000 -0.000 -1.000
vn -0.000 0.000 1.000
vn 0.000 0.000 1.000
vn -0.000 0.000 1.000
vn 0.000 0.000 1.000
vn 1.000 0.000 0.000
vn 1.000 0.000 0.000
vn -0.000 0.000 -1.000
vn 0.000 0.000 -1.000
vn -1.000 0.000 0.000
vn -1.000 0.000 0.000
vn 0.000 1.000 0.000
vn 0.000 1.000 0.000
vn -0.000 0.000 1.000
vn 0.000 0.000 1.000
vn 1.000 0.000 0.000
vn 1.000 0.000 0.000
vn -0.000 0.000 -1.000
vn 0.000 0.000 -1.000
vn -1.000 0.000 0.000
vn -1.000 0.000 0.000
vn 0.000 1.000 0.000
vn 0.000 1.000 0.000
vn 0.000 0.000 1.000
vn 0.000 0.000 1.000
vn -0.000 -1.000 -0.000
vn -0.000 -1.000 0.000
vn 0.000 0.000 -1.000
vn 0.000 0.000 -1.000
vn 0.000 1.000 -0.000
vn 0.000 1.000 0.000
vn 0.000 0.000 1.000
vn 0.000 0.000 1.000
vn -0.000 -1.000 -0.000
vn -0.000 -1.000 0.000
vn 0.000 0.000 -1.000
vn 0.000 0.000 -1.000
vn 0.000 1.000 -0.000
vn 0.000 1.000 0.000
vn 0.000 0.000 1.000
vn 0.000 0.000 1.000
vn -0.000 -1.000 -0.000
vn -0.000 -1.000 0.000
vn 0.000 0.000 -1.000
vn 0.000 0.000 -1.000
vn 0.000 1.000 -0.000
vn 0.000 1.000 0.000
vn -1.000 -0.000 -0.000
vn -1.000 0.000 -0.000
vn 0.000 -1.000 -0.000
vn -0.000 -1.000 -0.000
vn 1.000 -0.000 0.000
vn 1.000 0.000 0.000
vn 0.000 1.000 0.000
vn 0.000 1.000 0.000
vn -1.000 -0.000 -0.000
vn -1.000 0.000 -0.000
vn 0.000 -1.000 0.000
vn 0.000 -1.000 0.000
vn 1.000 -0.000 0.000
vn 1.000 0.000 0.000
vn 0.000 1.000 0.000
vn -0.000 1.000 0.000
vn -1.000 -0.000 0.000
vn -1.000 -0.000 -0.000
vn 0.000 -0.000 1.000
vn 0.000 -0.000 1.000
vn 1.000 0.000 0.000
vn 1.000 0.000 0.000
vn 0.000 0.000 -1.000
vn 0.000 0.000 -1.000
vn -1.000 -0.000 0.000
vn -1.000 -0.000 -0.000
vn 0.000 -0.000 1.000
vn 0.000 -0.000 1.000
vn 1.000 0.000 0.000
vn 1.000 0.000 0.000
vn 0.000 0.000 -1.000
vn 0.000 0.000 -1.000
vn -1.000 -0.000 0.000
vn -1.000 -0.000 -0.000
vn 0.000 -0.000 1.000
vn 0.000 -0.000 1.000
vn 1.000 0.000 0.000
vn 1.000 0.000 0.000
vn 0.000 0.000 -1.000
vn 0.000 0.000 -1.000
vn -1.000 -0.000 0.000
vn -1.000 -0.000 -0.000
vn 0.000 -0.000 1.000
vn 0.000 -0.000 1.000
vn 1.000 0.000 0.000
vn 1.000 0.000 0.000
vn 0.000 0.000 -1.000
vn 0.000 0.000 -1.000
vn -0.000 0.000 1.000
vn 0.000 0.000 1.000
vn 1.000 0.000 0.000
vn 1.000 0.000 0.000
vn -0.000 0.000 -1.000
vn 0.000 0.000 -1.000
vn -1.000 0.000 0.000
vn -1.000 0.000 0.000
vn 0.000 1.000 0.000
vn 0.000 1.000 0.000
vn 0.000 -1.000 0.000
vn 0.000 -1.000 0.000
vn 0.000 0.000 1.000
vn 0.000 0.000 1.000
vn 0.500 -0.866 0.000
vn 0.500 -0.866 0.000
vn 0.000 0.000 -1.000
vn 0.000 0.000 -1.000
vn -0.500 0.866 0.000
vn -0.500 0.866 0.000
vn 0.875 0.485 0.000
vn 0.875 0.485 0.000
vn -0.875 -0.485 0.000
vn -0.875 -0.485 0.000
vn 0.000 0.000 1.000
vn 0.000 -0.000 1.000
vn -0.500 -0.866 0.000
vn -0.500 -0.866 0.000
vn 0.000 0.000 -1.000
vn -0.000 0.000 -1.000
vn 0.500 0.866 0.000
vn 0.500 0.866 0.000
vn -0.875 0.485 0.000
vn -0.875 0.485 0.000
vn 0.875 -0.485 0.000
vn 0.875 -0.485 0.000

# Facets
f 1//1 4//1 3//1
f 4//2 1//2 2//2
f 3//3 6//3 5//3
f 6//4 3//4 4//4
f 5//5 8//5 7//5
f 8//6 5//6 6//6
f 7//7 2//7 1//7
f 2//8 7//8 8//8
f 7//9 3//9 5//9
f 3//10 7//10 1//10
f 2//11 6//11 4//11
f 6//12 2//12 8//12
f 11//13 14//13 13//13
f 14//14 11//14 12//14
f 15//15 10//15 9//15
f 10//16 15//16 16//16
f 15//17 11//17 13//17
f 11//18 15//18 9//18
f 10//19 14//19 12//19
f 14//20 10//20 16//20
f 19//21 22//21 21//21
f 22//22 19//22 20//22
f 23//23 18//23 17//23
f 18//24 23//24 24//24
f 23//25 19//25 21//25
f 19//26 23//26 17//26
f 18//27 22//27 20//27
f 22//28 18//28 24//28
f 25//29 28//29 27//29
f 28//30 25//30 26//30
f 27//31 30//31 29//31
f 30//32 27//32 28//32
f 29//33 32//33 31//33
f 32//34 29//34 30//34
f 31//35 26//35 25//35
f 26//36 31//36 32//36
f 31//37 27//37 29//37
f 27//38 31//38 25//38
f 33//39 36//39 35//39
f 36//40 33//40 34//40
f 35//41 38//41 37//41
f 38//42 35//42 36//42
f 37//43 40//43 39//43
f 40//44 37//44 38//44
f 39//45 34//45 33//45
f 34//46 39//46 40//46
f 39//47 35//47 37//47
f 35//48 39//48 33//48
f 41//49 44//49 43//49
f 44//50 41//50 42//50
f 43//51 46//51 45//51
f 46//52 43//52 44//52
f 45//53 48//53 47//53
f 48//54 45//54 46//54
f 47//55 42//55 41//55
f 42//56 47//56 48//56
f 49//57 52//57 51//57
f 52//58 49//58 50//58
f 51//59 54//59 53//59
f 54//60 51//60 52//60
f 53//61 56//61 55//61
f 56//62 53//62 54//62
f 55//63 50//63 49//63
f 50//64 55//64 56//64
f 57//65 60//65 59//65
f 60//66 57//66 58//66
f 59//67 62//67 61//67
f 62//68 59//68 60//68
f 61//69 64//69 63//69
f 64//70 61//70 62//70
f 63//71 58//71 57//71
f 58//72 63//72 64//72
f 65//73 68//73 67//73
f 68//74 65//74 66//74
f 67//75 70//75 69//75
f 70//76 67//76 68//76
f 69//77 72//77 71//77
f 72//78 69//78 70//78
f 71//79 66//79 65//79
f 66//80 71//80 72//80
f 73//81 76//81 75//81
f 76//82 73//82 74//82
f 75//83 78//83 77//83
f 78//84 75//84 76//84
f 77//85 80//85 79//85
f 80//86 77//86 78//86
f 79//87 74//87 73//87
f 74//88 79//88 80//88
f 81//89 84//89 83//89
f 84//90 81//90 82//90
f 83//91 86//91 85//91
f 86//92 83//92 84//92
f 85//93 88//93 87//93
f 88//94 85//94 86//94
f 87//95 82//95 81//95
f 82//96 87//96 88//96
f 89//97 92//97 91//97
f 92//98 89//98 90//98
f 91//99 94//99 93//99
f 94//100 91//100 92//100
f 93//101 96//101 95//101
f 96//102 93//102 94//102
f 95//103 90//103 89//103
f 90//104 95//104 96//104
f 97//105 100//105 99//105
f 100//106 97//106 98//106
f 99//107 102//107 101//107
f 102//108 99//108 100//108
f 101//109 104//109 103//109
f 104//110 101//110 102//110
f 103//111 98//111 97//111
f 98//112 103//112 104//112
f 105//113 108//113 107//113
f 108//114 105//114 106//114
f 107//115 110//115 109//115
f 110//116 107//116 108//116
f 109//117 112//117 111//117
f 112//118 109//118 110//118
f 111//119 106//119 105//119
f 106//120 111//120 112//120
f 113//121 116//121 115//121
f 116//122 113//122 114//122
f 115//123 118//123 117//123
f 118//124 115//124 116//124
f 117//125 120//125 119//125
f 120//126 117//126 118//126
f 119//127 114//127 113//127
f 114//128 119//128 120//128
f 119//129 115//129 117//129
f 115//130 119//130 113//130
f 114//131 118//131 116//131
f 118//132 114//132 120//132
f 121//133 124//133 123//133
f 124//134 121//134 122//134
f 123//135 126//135 125//135
f 126//136 123//136 124//136
f 125//137 128//137 127//137
f 128//138 125//138 126//138
f 127//139 122//139 121//139
f 122//140 127//140 128//140
f 127//141 123//141 125//141
f 123//142 127//142 121//142
f 122//143 126//143 124//143
f 126//144 122//144 128//144
f 129//145 132//145 130//145
f 132//146 129//146 131//146
f 131//147 134//147 132//147
f 134//148 131//148 133//148
f 133//149 136//149 134//149
f 136//150 133//150 135//150
f 135//151 130//151 136//151
f 130//152 135//152 129//152
f 135//153 131//153 129//153
f 131//154 135//154 133//154
f 130//155 134//155 136//155
f 134//156 130//156 132//156

# Thank you for using Spin 3D

