# Created using Spin 3D

# Vertex Array 
v -100.000 93.837 107.635
v -100.000 50.147 107.635
v 100.000 93.837 107.635
v 100.000 50.147 107.635
v 100.000 93.837 100.235
v 100.000 50.147 100.235
v -100.000 93.837 100.235
v -100.000 50.147 100.235
v -100.000 93.837 -107.635
v -100.000 50.147 -107.635
v 100.000 93.837 -107.635
v 100.000 50.147 -107.635
v 100.000 93.837 -100.235
v 100.000 50.147 -100.235
v -100.000 93.837 -100.235
v -100.000 50.147 -100.235
v -100.000 51.393 106.807
v -100.000 7.703 106.807
v 100.000 51.393 110.887
v 100.000 7.703 110.887
v 100.000 51.393 103.487
v 100.000 7.703 103.487
v -100.000 51.393 99.407
v -100.000 7.703 99.407
v -100.000 51.393 -110.887
v -100.000 7.703 -110.887
v 100.000 51.393 -107.865
v 100.000 7.703 -107.865
v 100.000 51.393 -100.464
v 100.000 7.703 -100.464
v -100.000 51.393 -103.487
v -100.000 7.703 -103.487
v -97.289 7.703 100.000
v -97.289 51.393 100.000
v -97.289 7.703 -105.031
v -97.289 51.393 -105.031
v -89.889 7.703 -105.031
v -89.889 51.393 -105.031
v -89.889 7.703 100.000
v -89.889 51.393 100.000
v 97.099 7.703 102.707
v 97.099 51.393 102.707
v 97.099 7.703 -100.000
v 97.099 51.393 -100.000
v 89.698 7.703 -100.000
v 89.698 51.393 -100.000
v 89.698 7.703 100.000
v 89.698 51.393 100.000
v -100.541 50.147 100.000
v -100.541 93.837 100.000
v -100.542 50.147 -100.000
v -100.542 93.837 -100.000
v -93.141 50.147 -100.000
v -93.141 93.837 -100.000
v -93.141 50.147 100.000
v -93.141 93.837 100.000
v 100.351 50.147 100.000
v 100.351 93.837 100.000
v 100.351 50.147 -100.000
v 100.351 93.837 -100.000
v 92.950 50.147 -100.000
v 92.950 93.837 -100.000
v 92.950 50.147 100.000
v 92.950 93.837 100.000
v -100.756 8.783 110.490
v -100.756 2.253 110.490
v 100.727 8.783 110.490
v 100.727 2.253 110.490
v 100.727 8.783 -110.490
v 100.727 2.253 -110.490
v -100.756 8.783 -110.490
v -100.756 2.253 -110.490

# Normal Array
vn -0.000 0.000 1.000
vn 0.000 0.000 1.000
vn 1.000 0.000 0.000
vn 1.000 0.000 0.000
vn -0.000 0.000 -1.000
vn 0.000 0.000 -1.000
vn -1.000 0.000 0.000
vn -1.000 0.000 0.000
vn 0.000 1.000 0.000
vn 0.000 1.000 0.000
vn 0.000 -1.000 0.000
vn 0.000 -1.000 0.000
vn 0.000 0.000 -1.000
vn 0.000 0.000 -1.000
vn 1.000 0.000 0.000
vn 1.000 -0.000 0.000
vn 0.000 0.000 1.000
vn 0.000 0.000 1.000
vn -1.000 -0.000 0.000
vn -1.000 0.000 0.000
vn 0.000 1.000 0.000
vn 0.000 1.000 -0.000
vn 0.000 -1.000 0.000
vn 0.000 -1.000 -0.000
vn -0.020 0.000 1.000
vn -0.020 0.000 1.000
vn 1.000 0.000 0.000
vn 1.000 0.000 0.000
vn 0.020 0.000 -1.000
vn 0.020 0.000 -1.000
vn -1.000 0.000 0.000
vn -1.000 0.000 0.000
vn 0.000 1.000 0.000
vn 0.000 1.000 0.000
vn 0.015 0.000 -1.000
vn 0.015 0.000 -1.000
vn 1.000 0.000 0.000
vn 1.000 -0.000 0.000
vn -0.015 0.000 1.000
vn -0.015 0.000 1.000
vn -1.000 -0.000 0.000
vn -1.000 0.000 0.000
vn 0.000 1.000 0.000
vn 0.000 1.000 -0.000
vn -1.000 0.000 0.000
vn -1.000 0.000 0.000
vn 1.000 0.000 0.000
vn 1.000 0.000 0.000
vn 0.000 1.000 0.000
vn 0.000 1.000 -0.000
vn 1.000 0.000 -0.000
vn 1.000 0.000 -0.000
vn -1.000 0.000 0.000
vn -1.000 -0.000 0.000
vn 0.000 1.000 0.000
vn 0.000 1.000 0.000
vn -1.000 0.000 0.000
vn -1.000 0.000 0.000
vn 1.000 0.000 0.000
vn 1.000 0.000 0.000
vn 0.000 -1.000 -0.000
vn 0.000 -1.000 0.000
vn 0.000 1.000 0.000
vn 0.000 1.000 -0.000
vn 1.000 -0.000 0.000
vn 1.000 0.000 0.000
vn -1.000 0.000 0.000
vn -1.000 -0.000 0.000
vn 0.000 -1.000 0.000
vn 0.000 -1.000 0.000
vn 0.000 1.000 0.000
vn 0.000 1.000 0.000
vn -0.000 0.000 1.000
vn 0.000 0.000 1.000
vn 1.000 0.000 0.000
vn 1.000 0.000 0.000
vn -0.000 0.000 -1.000
vn 0.000 0.000 -1.000
vn -1.000 0.000 0.000
vn -1.000 0.000 0.000
vn 0.000 1.000 0.000
vn 0.000 1.000 0.000
vn 0.000 -1.000 0.000
vn 0.000 -1.000 0.000

# Facets
f 1//1 4//1 3//1
f 4//2 1//2 2//2
f 3//3 6//3 5//3
f 6//4 3//4 4//4
f 5//5 8//5 7//5
f 8//6 5//6 6//6
f 7//7 2//7 1//7
f 2//8 7//8 8//8
f 7//9 3//9 5//9
f 3//10 7//10 1//10
f 2//11 6//11 4//11
f 6//12 2//12 8//12
f 9//13 12//13 10//13
f 12//14 9//14 11//14
f 11//15 14//15 12//15
f 14//16 11//16 13//16
f 13//17 16//17 14//17
f 16//18 13//18 15//18
f 15//19 10//19 16//19
f 10//20 15//20 9//20
f 15//21 11//21 9//21
f 11//22 15//22 13//22
f 10//23 14//23 16//23
f 14//24 10//24 12//24
f 17//25 20//25 19//25
f 20//26 17//26 18//26
f 19//27 22//27 21//27
f 22//28 19//28 20//28
f 21//29 24//29 23//29
f 24//30 21//30 22//30
f 23//31 18//31 17//31
f 18//32 23//32 24//32
f 23//33 19//33 21//33
f 19//34 23//34 17//34
f 25//35 28//35 26//35
f 28//36 25//36 27//36
f 27//37 30//37 28//37
f 30//38 27//38 29//38
f 29//39 32//39 30//39
f 32//40 29//40 31//40
f 31//41 26//41 32//41
f 26//42 31//42 25//42
f 31//43 27//43 25//43
f 27//44 31//44 29//44
f 33//45 36//45 35//45
f 36//46 33//46 34//46
f 37//47 40//47 39//47
f 40//48 37//48 38//48
f 34//49 38//49 36//49
f 38//50 34//50 40//50
f 41//51 44//51 42//51
f 44//52 41//52 43//52
f 45//53 48//53 46//53
f 48//54 45//54 47//54
f 42//55 46//55 48//55
f 46//56 42//56 44//56
f 49//57 52//57 51//57
f 52//58 49//58 50//58
f 53//59 56//59 55//59
f 56//60 53//60 54//60
f 55//61 51//61 53//61
f 51//62 55//62 49//62
f 50//63 54//63 52//63
f 54//64 50//64 56//64
f 57//65 60//65 58//65
f 60//66 57//66 59//66
f 61//67 64//67 62//67
f 64//68 61//68 63//68
f 63//69 59//69 57//69
f 59//70 63//70 61//70
f 58//71 62//71 64//71
f 62//72 58//72 60//72
f 65//73 68//73 67//73
f 68//74 65//74 66//74
f 67//75 70//75 69//75
f 70//76 67//76 68//76
f 69//77 72//77 71//77
f 72//78 69//78 70//78
f 71//79 66//79 65//79
f 66//80 71//80 72//80
f 71//81 67//81 69//81
f 67//82 71//82 65//82
f 66//83 70//83 68//83
f 70//84 66//84 72//84

# Thank you for using Spin 3D

