# Created using Spin 3D

# Vertex Array 
v 25.069 163.314 -34.150
v 25.069 7.130 -45.121
v 66.636 163.314 -34.150
v 83.363 7.130 -45.121
v 66.636 193.452 -92.968
v 83.363 36.281 -92.968
v 25.069 193.452 -59.534
v 25.069 36.281 -76.455
v 95.895 162.278 42.929
v 88.625 7.396 21.194
v 64.764 167.533 15.892
v 44.965 14.766 -16.723
v 25.789 188.712 64.885
v 13.261 36.543 24.016
v 79.075 188.234 67.341
v 67.863 31.533 49.792
v 9.813 163.314 14.660
v 13.923 7.130 24.833
v -28.726 163.314 30.232
v -40.126 7.130 46.671
v -6.693 193.452 84.767
v -22.202 36.281 91.033
v 19.322 193.452 38.196
v 25.661 36.281 53.885
v -84.730 162.278 -30.274
v -69.847 7.396 -12.845
v -45.737 167.533 -16.868
v -15.162 14.766 5.956
v -27.954 188.712 -76.894
v -1.028 36.543 -43.693
v -78.280 188.234 -59.209
v -61.310 31.533 -47.139

# Normal Array
vn 0.000 -0.070 0.998
vn 0.000 -0.070 0.998
vn 0.993 0.106 0.054
vn 0.993 0.102 0.062
vn -0.625 0.084 -0.776
vn -0.272 -0.029 -0.962
vn -1.000 0.000 0.000
vn -1.000 0.000 0.000
vn 0.344 0.836 0.428
vn 0.000 0.644 0.765
vn 0.000 -0.854 -0.520
vn -0.189 -0.719 -0.669
vn 0.661 0.074 -0.747
vn 0.661 0.074 -0.747
vn -0.708 0.237 -0.665
vn -0.702 0.235 -0.672
vn -0.047 -0.108 0.993
vn -0.433 -0.200 0.879
vn 0.749 -0.126 0.650
vn 0.749 -0.126 0.650
vn 0.026 0.925 -0.379
vn 0.507 0.742 -0.439
vn -0.345 -0.913 0.220
vn -0.301 -0.825 0.478
vn -0.374 -0.070 -0.925
vn -0.374 -0.070 -0.925
vn -0.941 0.106 0.322
vn -0.944 0.102 0.314
vn 0.870 0.084 0.486
vn 0.613 -0.029 0.790
vn 0.927 0.000 -0.375
vn 0.927 -0.000 -0.375
vn -0.480 0.836 -0.268
vn -0.287 0.644 -0.709
vn 0.195 -0.854 0.482
vn 0.426 -0.719 0.549
vn -0.333 0.074 0.940
vn -0.333 0.074 0.940
vn 0.906 0.237 0.352
vn 0.903 0.235 0.360
vn -0.329 -0.108 -0.938
vn 0.072 -0.200 -0.977
vn -0.938 -0.126 -0.323
vn -0.938 -0.126 -0.323
vn 0.118 0.925 0.361
vn -0.305 0.742 0.597
vn 0.237 -0.913 -0.333
vn 0.100 -0.825 -0.556

# Facets
f 1//1 4//1 3//1
f 4//2 1//2 2//2
f 3//3 6//3 5//3
f 6//4 3//4 4//4
f 5//5 8//5 7//5
f 8//6 5//6 6//6
f 7//7 2//7 1//7
f 2//8 7//8 8//8
f 7//9 3//9 5//9
f 3//10 7//10 1//10
f 2//11 6//11 4//11
f 6//12 2//12 8//12
f 9//13 12//13 11//13
f 12//14 9//14 10//14
f 11//15 14//15 13//15
f 14//16 11//16 12//16
f 13//17 16//17 15//17
f 16//18 13//18 14//18
f 15//19 10//19 9//19
f 10//20 15//20 16//20
f 15//21 11//21 13//21
f 11//22 15//22 9//22
f 10//23 14//23 12//23
f 14//24 10//24 16//24
f 17//25 20//25 19//25
f 20//26 17//26 18//26
f 19//27 22//27 21//27
f 22//28 19//28 20//28
f 21//29 24//29 23//29
f 24//30 21//30 22//30
f 23//31 18//31 17//31
f 18//32 23//32 24//32
f 23//33 19//33 21//33
f 19//34 23//34 17//34
f 18//35 22//35 20//35
f 22//36 18//36 24//36
f 25//37 28//37 27//37
f 28//38 25//38 26//38
f 27//39 30//39 29//39
f 30//40 27//40 28//40
f 29//41 32//41 31//41
f 32//42 29//42 30//42
f 31//43 26//43 25//43
f 26//44 31//44 32//44
f 31//45 27//45 29//45
f 27//46 31//46 25//46
f 26//47 30//47 28//47
f 30//48 26//48 32//48

# Thank you for using Spin 3D

