0
SECTION
2
ENTITIES
999
Created by Metasequoia
0
3DFACE
8
layer1
62
1
10
17.80503
20
638.35669
30
17.80503
11
-17.80503
21
638.35669
31
17.80503
12
-17.80503
22
-17.11319
32
17.80503
13
17.80503
23
-17.11319
33
17.80503
0
3DFACE
8
layer1
62
1
10
-17.80503
20
638.35669
30
17.80503
11
-17.80503
21
638.35669
31
-17.80503
12
-17.80503
22
-17.11319
32
-17.80503
13
-17.80503
23
-17.11319
33
17.80503
0
3DFACE
8
layer1
62
1
10
-17.80503
20
638.35669
30
-17.80503
11
17.80503
21
638.35669
31
-17.80503
12
17.80503
22
-17.11319
32
-17.80503
13
-17.80503
23
-17.11319
33
-17.80503
0
3DFACE
8
layer1
62
1
10
17.80503
20
638.35669
30
-17.80503
11
17.80503
21
638.35669
31
17.80503
12
17.80503
22
-17.11319
32
17.80503
13
17.80503
23
-17.11319
33
-17.80503
0
3DFACE
8
layer1
62
1
10
17.80503
20
638.35669
30
-17.80503
11
-17.80503
21
638.35669
31
-17.80503
12
-17.80503
22
638.35669
32
17.80503
13
17.80503
23
638.35669
33
17.80503
0
3DFACE
8
layer1
62
1
10
17.80503
20
-17.11319
30
17.80503
11
-17.80503
21
-17.11319
31
17.80503
12
-17.80503
22
-17.11319
32
-17.80503
13
17.80503
23
-17.11319
33
-17.80503
0
3DFACE
8
layer1
62
1
10
-223.22142
20
503.31873
30
16.19524
11
-223.22142
21
470.92816
31
16.19524
12
223.22142
22
470.92816
32
16.19524
13
223.22142
23
503.31879
33
16.19524
0
3DFACE
8
layer1
62
1
10
-223.22142
20
470.92816
30
16.19524
11
-223.22142
21
470.92816
31
-16.19524
12
223.22142
22
470.92816
32
-16.19524
13
223.22142
23
470.92816
33
16.19524
0
3DFACE
8
layer1
62
1
10
-223.22142
20
470.92816
30
-16.19524
11
-223.22142
21
503.31873
31
-16.19524
12
223.22142
22
503.31879
32
-16.19524
13
223.22142
23
470.92816
33
-16.19524
0
3DFACE
8
layer1
62
1
10
-223.22142
20
503.31873
30
-16.19524
11
-223.22142
21
503.31873
31
16.19524
12
223.22142
22
503.31879
32
16.19524
13
223.22142
23
503.31879
33
-16.19524
0
3DFACE
8
layer1
62
1
10
-223.22142
20
503.31873
30
-16.19524
11
-223.22142
21
470.92816
31
-16.19524
12
-223.22142
22
470.92816
32
16.19524
13
-223.22142
23
503.31873
33
16.19524
0
3DFACE
8
layer1
62
1
10
223.22142
20
503.31879
30
16.19524
11
223.22142
21
470.92816
31
16.19524
12
223.22142
22
470.92816
32
-16.19524
13
223.22142
23
503.31879
33
-16.19524
0
3DFACE
8
layer1
62
1
10
0.00000
20
239.21909
30
0.00000
11
0.00000
21
239.21909
31
88.71856
12
-62.73352
22
239.21909
32
62.73352
0
3DFACE
8
layer1
62
1
10
0.00000
20
239.21909
30
0.00000
11
-62.73352
21
239.21909
31
62.73352
12
-88.71856
22
239.21909
32
-0.00000
0
3DFACE
8
layer1
62
1
10
0.00000
20
239.21909
30
0.00000
11
-88.71856
21
239.21909
31
-0.00000
12
-62.73352
22
239.21909
32
-62.73352
0
3DFACE
8
layer1
62
1
10
0.00000
20
239.21909
30
0.00000
11
-62.73352
21
239.21909
31
-62.73352
12
0.00001
22
239.21909
32
-88.71856
0
3DFACE
8
layer1
62
1
10
0.00000
20
239.21909
30
0.00000
11
0.00001
21
239.21909
31
-88.71856
12
62.73353
22
239.21909
32
-62.73350
0
3DFACE
8
layer1
62
1
10
0.00000
20
239.21909
30
0.00000
11
62.73353
21
239.21909
31
-62.73350
12
88.71856
22
239.21909
32
0.00000
0
3DFACE
8
layer1
62
1
10
0.00000
20
239.21909
30
0.00000
11
88.71856
21
239.21909
31
0.00000
12
62.73352
22
239.21909
32
62.73351
0
3DFACE
8
layer1
62
1
10
0.00000
20
239.21909
30
0.00000
11
62.73352
21
239.21909
31
62.73351
12
0.00000
22
239.21909
32
88.71856
0
3DFACE
8
layer1
62
1
10
-0.00000
20
695.92853
30
1.69695
11
-76.48511
21
646.97571
31
-29.98421
12
-31.68116
22
611.37604
32
78.18203
0
3DFACE
8
layer1
62
1
10
-0.00000
20
695.92853
30
1.69695
11
0.00001
21
646.97571
31
-87.91088
12
-76.48511
22
646.97571
32
-29.98421
0
3DFACE
8
layer1
62
1
10
-0.00000
20
695.92853
30
1.69695
11
76.48512
21
646.97571
31
-29.98421
12
0.00001
22
646.97571
32
-87.91088
0
3DFACE
8
layer1
62
1
10
-0.00000
20
695.92853
30
1.69695
11
63.36232
21
611.37604
31
65.05930
12
76.48512
22
646.97571
32
-29.98421
0
3DFACE
8
layer1
62
1
10
-0.00000
20
695.92853
30
1.69695
11
-31.68116
21
611.37604
31
78.18203
12
63.36232
22
611.37604
32
65.05930
0
3DFACE
8
layer1
62
1
10
-49.42355
20
515.13489
30
-18.39504
11
-54.21495
21
445.33002
31
-22.45657
12
-27.47057
22
445.33002
32
54.21495
0
3DFACE
8
layer1
62
1
10
-49.42355
20
515.13489
30
-18.39504
11
-27.47057
21
445.33002
31
54.21495
12
-23.40903
22
515.13489
32
44.40955
0
3DFACE
8
layer1
62
1
10
0.00000
20
515.13489
30
-52.02902
11
0.00001
21
445.33002
31
-63.51676
12
-54.21495
22
445.33002
32
-22.45657
0
3DFACE
8
layer1
62
1
10
0.00000
20
515.13489
30
-52.02902
11
-54.21495
21
445.33002
31
-22.45657
12
-49.42355
22
515.13489
32
-18.39504
0
3DFACE
8
layer1
62
1
10
44.40955
20
515.13489
30
-18.39503
11
57.39198
21
445.33002
31
-22.45656
12
0.00001
22
445.33002
32
-63.51676
0
3DFACE
8
layer1
62
1
10
44.40955
20
515.13489
30
-18.39503
11
0.00001
21
445.33002
31
-63.51676
12
0.00000
22
515.13489
32
-52.02902
0
3DFACE
8
layer1
62
1
10
39.96710
20
515.13489
30
36.79007
11
48.09017
21
445.33002
31
44.91313
12
57.39198
22
445.33002
32
-22.45656
0
3DFACE
8
layer1
62
1
10
39.96710
20
515.13489
30
36.79007
11
57.39198
21
445.33002
31
-22.45656
12
44.40955
22
515.13489
32
-18.39503
0
3DFACE
8
layer1
62
1
10
-23.40903
20
515.13489
30
44.40955
11
-27.47057
21
445.33002
31
54.21495
12
48.09017
22
445.33002
32
44.91313
0
3DFACE
8
layer1
62
1
10
-23.40903
20
515.13489
30
44.40955
11
48.09017
21
445.33002
31
44.91313
12
39.96710
22
515.13489
32
36.79007
0
3DFACE
8
layer1
62
1
10
-27.47057
20
445.33002
30
54.21495
11
-62.73352
21
239.21909
31
62.73352
12
0.00000
22
239.21909
32
88.71856
0
3DFACE
8
layer1
62
1
10
-54.21495
20
445.33002
30
-22.45657
11
-88.71856
21
239.21909
31
-0.00000
12
-62.73352
22
239.21909
32
62.73352
0
3DFACE
8
layer1
62
1
10
-54.21495
20
445.33002
30
-22.45657
11
-62.73352
21
239.21909
31
62.73352
12
-27.47057
22
445.33002
32
54.21495
0
3DFACE
8
layer1
62
1
10
-54.21495
20
445.33002
30
-22.45657
11
-62.73352
21
239.21909
31
-62.73352
12
-88.71856
22
239.21909
32
-0.00000
0
3DFACE
8
layer1
62
1
10
0.00001
20
445.33002
30
-63.51676
11
0.00001
21
239.21909
31
-88.71856
12
-62.73352
22
239.21909
32
-62.73352
0
3DFACE
8
layer1
62
1
10
0.00001
20
445.33002
30
-63.51676
11
-62.73352
21
239.21909
31
-62.73352
12
-54.21495
22
445.33002
32
-22.45657
0
3DFACE
8
layer1
62
1
10
57.39198
20
445.33002
30
-22.45656
11
62.73353
21
239.21909
31
-62.73350
12
0.00001
22
239.21909
32
-88.71856
0
3DFACE
8
layer1
62
1
10
57.39198
20
445.33002
30
-22.45656
11
0.00001
21
239.21909
31
-88.71856
12
0.00001
22
445.33002
32
-63.51676
0
3DFACE
8
layer1
62
1
10
57.39198
20
445.33002
30
-22.45656
11
88.71856
21
239.21909
31
0.00000
12
62.73353
22
239.21909
32
-62.73350
0
3DFACE
8
layer1
62
1
10
48.09017
20
445.33002
30
44.91313
11
62.73352
21
239.21909
31
62.73351
12
88.71856
22
239.21909
32
0.00000
0
3DFACE
8
layer1
62
1
10
48.09017
20
445.33002
30
44.91313
11
88.71856
21
239.21909
31
0.00000
12
57.39198
22
445.33002
32
-22.45656
0
3DFACE
8
layer1
62
1
10
-27.47057
20
445.33002
30
54.21495
11
0.00000
21
239.21909
31
88.71856
12
62.73352
22
239.21909
32
62.73351
0
3DFACE
8
layer1
62
1
10
-27.47057
20
445.33002
30
54.21495
11
62.73352
21
239.21909
31
62.73351
12
48.09017
22
445.33002
32
44.91313
0
3DFACE
8
layer1
62
1
10
-76.48511
20
646.97571
30
-29.98421
11
-49.42355
21
515.13489
31
-18.39504
12
-23.40903
22
515.13489
32
44.40955
0
3DFACE
8
layer1
62
1
10
-76.48511
20
646.97571
30
-29.98421
11
-23.40903
21
515.13489
31
44.40955
12
-31.68116
22
611.37604
32
78.18203
0
3DFACE
8
layer1
62
1
10
0.00001
20
646.97571
30
-87.91088
11
0.00000
21
515.13489
31
-52.02902
12
-49.42355
22
515.13489
32
-18.39504
0
3DFACE
8
layer1
62
1
10
0.00001
20
646.97571
30
-87.91088
11
-49.42355
21
515.13489
31
-18.39504
12
-76.48511
22
646.97571
32
-29.98421
0
3DFACE
8
layer1
62
1
10
76.48512
20
646.97571
30
-29.98421
11
44.40955
21
515.13489
31
-18.39503
12
0.00000
22
515.13489
32
-52.02902
0
3DFACE
8
layer1
62
1
10
76.48512
20
646.97571
30
-29.98421
11
0.00000
21
515.13489
31
-52.02902
12
0.00001
22
646.97571
32
-87.91088
0
3DFACE
8
layer1
62
1
10
63.36232
20
611.37604
30
65.05930
11
39.96710
21
515.13489
31
36.79007
12
44.40955
22
515.13489
32
-18.39503
0
3DFACE
8
layer1
62
1
10
63.36232
20
611.37604
30
65.05930
11
44.40955
21
515.13489
31
-18.39503
12
76.48512
22
646.97571
32
-29.98421
0
3DFACE
8
layer1
62
1
10
-31.68116
20
611.37604
30
78.18203
11
-23.40903
21
515.13489
31
44.40955
12
39.96710
22
515.13489
32
36.79007
0
3DFACE
8
layer1
62
1
10
-31.68116
20
611.37604
30
78.18203
11
39.96710
21
515.13489
31
36.79007
12
63.36232
22
611.37604
32
65.05930
0
3DFACE
8
layer1
62
1
10
233.65741
20
491.16986
30
0.00000
11
223.37492
21
479.94293
31
27.10417
12
223.37495
22
464.06564
32
-11.22691
0
3DFACE
8
layer1
62
1
10
233.65741
20
491.16986
30
0.00000
11
223.37495
21
464.06564
31
-11.22691
12
223.37492
22
491.16986
32
-31.75451
0
3DFACE
8
layer1
62
1
10
233.65741
20
491.16986
30
0.00000
11
223.37492
21
491.16986
31
-31.75451
12
223.37492
22
518.27399
32
-11.22691
0
3DFACE
8
layer1
62
1
10
233.65741
20
491.16986
30
0.00000
11
223.37492
21
518.27399
31
-11.22691
12
223.37492
22
513.62372
32
22.45383
0
3DFACE
8
layer1
62
1
10
233.65741
20
491.16986
30
0.00000
11
223.37492
21
513.62372
31
22.45383
12
223.37492
22
479.94293
32
27.10417
0
3DFACE
8
layer1
62
1
10
33.04960
20
481.50314
30
23.33749
11
135.04556
21
457.37054
31
33.79931
12
135.04556
22
491.16986
32
47.79946
0
3DFACE
8
layer1
62
1
10
33.04960
20
467.83234
30
-9.66671
11
135.04556
21
443.37030
31
-0.00000
12
135.04556
22
457.37054
32
33.79931
0
3DFACE
8
layer1
62
1
10
33.04960
20
467.83234
30
-9.66671
11
135.04556
21
457.37054
31
33.79931
12
33.04960
22
481.50314
32
23.33749
0
3DFACE
8
layer1
62
1
10
33.04960
20
467.83234
30
-9.66671
11
135.04556
21
457.37054
31
-33.79931
12
135.04556
22
443.37030
32
-0.00000
0
3DFACE
8
layer1
62
1
10
33.04960
20
491.16986
30
-27.34156
11
135.04556
21
491.16986
31
-47.79946
12
135.04556
22
457.37054
32
-33.79931
0
3DFACE
8
layer1
62
1
10
33.04960
20
491.16986
30
-27.34156
11
135.04556
21
457.37054
31
-33.79931
12
33.04960
22
467.83234
32
-9.66671
0
3DFACE
8
layer1
62
1
10
33.04960
20
502.83859
30
-4.83335
11
135.04556
21
524.96899
31
-33.79930
12
135.04556
22
491.16986
32
-47.79946
0
3DFACE
8
layer1
62
1
10
33.04960
20
502.83859
30
-4.83335
11
135.04556
21
491.16986
31
-47.79946
12
33.04960
22
491.16986
32
-27.34156
0
3DFACE
8
layer1
62
1
10
33.04960
20
502.83859
30
-4.83335
11
135.04556
21
538.96912
31
0.00000
12
135.04556
22
524.96899
32
-33.79930
0
3DFACE
8
layer1
62
1
10
33.04960
20
510.50336
30
19.33341
11
135.04556
21
524.96899
31
33.79931
12
135.04556
22
538.96912
32
0.00000
0
3DFACE
8
layer1
62
1
10
33.04960
20
510.50336
30
19.33341
11
135.04556
21
538.96912
31
0.00000
12
33.04960
22
502.83859
32
-4.83335
0
3DFACE
8
layer1
62
1
10
33.04960
20
481.50314
30
23.33749
11
135.04556
21
491.16986
31
47.79946
12
135.04556
22
524.96899
32
33.79931
0
3DFACE
8
layer1
62
1
10
33.04960
20
481.50314
30
23.33749
11
135.04556
21
524.96899
31
33.79931
12
33.04960
22
510.50336
32
19.33341
0
3DFACE
8
layer1
62
1
10
135.04556
20
457.37054
30
33.79931
11
223.37492
21
479.94293
31
27.10417
12
135.04556
22
491.16986
32
47.79946
0
3DFACE
8
layer1
62
1
10
135.04556
20
443.37030
30
-0.00000
11
223.37495
21
464.06564
31
-11.22691
12
223.37492
22
479.94293
32
27.10417
0
3DFACE
8
layer1
62
1
10
135.04556
20
443.37030
30
-0.00000
11
223.37492
21
479.94293
31
27.10417
12
135.04556
22
457.37054
32
33.79931
0
3DFACE
8
layer1
62
1
10
135.04556
20
457.37054
30
-33.79931
11
223.37495
21
464.06564
31
-11.22691
12
135.04556
22
443.37030
32
-0.00000
0
3DFACE
8
layer1
62
1
10
135.04556
20
491.16986
30
-47.79946
11
223.37492
21
491.16986
31
-31.75451
12
223.37495
22
464.06564
32
-11.22691
0
3DFACE
8
layer1
62
1
10
135.04556
20
491.16986
30
-47.79946
11
223.37495
21
464.06564
31
-11.22691
12
135.04556
22
457.37054
32
-33.79931
0
3DFACE
8
layer1
62
1
10
135.04556
20
524.96899
30
-33.79930
11
223.37492
21
518.27399
31
-11.22691
12
223.37492
22
491.16986
32
-31.75451
0
3DFACE
8
layer1
62
1
10
135.04556
20
524.96899
30
-33.79930
11
223.37492
21
491.16986
31
-31.75451
12
135.04556
22
491.16986
32
-47.79946
0
3DFACE
8
layer1
62
1
10
135.04556
20
538.96912
30
0.00000
11
223.37492
21
518.27399
31
-11.22691
12
135.04556
22
524.96899
32
-33.79930
0
3DFACE
8
layer1
62
1
10
135.04556
20
524.96899
30
33.79931
11
223.37492
21
513.62372
31
22.45383
12
223.37492
22
518.27399
32
-11.22691
0
3DFACE
8
layer1
62
1
10
135.04556
20
524.96899
30
33.79931
11
223.37492
21
518.27399
31
-11.22691
12
135.04556
22
538.96912
32
0.00000
0
3DFACE
8
layer1
62
1
10
135.04556
20
524.96899
30
33.79931
11
135.04556
21
491.16986
31
47.79946
12
223.37492
22
479.94293
32
27.10417
0
3DFACE
8
layer1
62
1
10
135.04556
20
524.96899
30
33.79931
11
223.37492
21
479.94293
31
27.10417
12
223.37492
22
513.62372
32
22.45383
0
3DFACE
8
layer1
62
1
10
-245.44437
20
491.16986
30
0.00000
11
-223.37495
21
464.06564
31
-11.22691
12
-223.37492
22
479.94293
32
27.10417
0
3DFACE
8
layer1
62
1
10
-245.44437
20
491.16986
30
0.00000
11
-223.37492
21
491.16986
31
-31.75451
12
-223.37495
22
464.06564
32
-11.22691
0
3DFACE
8
layer1
62
1
10
-245.44437
20
491.16986
30
0.00000
11
-223.37492
21
518.27399
31
-11.22691
12
-223.37492
22
491.16986
32
-31.75451
0
3DFACE
8
layer1
62
1
10
-245.44437
20
491.16986
30
0.00000
11
-223.37492
21
513.62372
31
22.45383
12
-223.37492
22
518.27399
32
-11.22691
0
3DFACE
8
layer1
62
1
10
-245.44437
20
491.16986
30
0.00000
11
-223.37492
21
479.94293
31
27.10417
12
-223.37492
22
513.62372
32
22.45383
0
3DFACE
8
layer1
62
1
10
-33.04960
20
481.50314
30
23.33749
11
-135.04556
21
491.16986
31
47.79946
12
-135.04556
22
457.37054
32
33.79931
0
3DFACE
8
layer1
62
1
10
-33.04960
20
467.83234
30
-9.66671
11
-135.04556
21
457.37054
31
33.79931
12
-135.04556
22
443.37030
32
-0.00000
0
3DFACE
8
layer1
62
1
10
-33.04960
20
467.83234
30
-9.66671
11
-33.04960
21
481.50314
31
23.33749
12
-135.04556
22
457.37054
32
33.79931
0
3DFACE
8
layer1
62
1
10
-33.04960
20
467.83234
30
-9.66671
11
-135.04556
21
443.37030
31
-0.00000
12
-135.04556
22
457.37054
32
-33.79931
0
3DFACE
8
layer1
62
1
10
-33.04960
20
491.16986
30
-27.34156
11
-135.04556
21
457.37054
31
-33.79931
12
-135.04556
22
491.16986
32
-47.79946
0
3DFACE
8
layer1
62
1
10
-33.04960
20
491.16986
30
-27.34156
11
-33.04960
21
467.83234
31
-9.66671
12
-135.04556
22
457.37054
32
-33.79931
0
3DFACE
8
layer1
62
1
10
-33.04960
20
502.83859
30
-4.83335
11
-135.04556
21
491.16986
31
-47.79946
12
-135.04556
22
524.96899
32
-33.79930
0
3DFACE
8
layer1
62
1
10
-33.04960
20
502.83859
30
-4.83335
11
-33.04960
21
491.16986
31
-27.34156
12
-135.04556
22
491.16986
32
-47.79946
0
3DFACE
8
layer1
62
1
10
-33.04960
20
502.83859
30
-4.83335
11
-135.04556
21
524.96899
31
-33.79930
12
-135.04556
22
538.96912
32
0.00000
0
3DFACE
8
layer1
62
1
10
-33.04960
20
510.50336
30
19.33341
11
-135.04556
21
538.96912
31
0.00000
12
-135.04556
22
524.96899
32
33.79931
0
3DFACE
8
layer1
62
1
10
-33.04960
20
510.50336
30
19.33341
11
-33.04960
21
502.83859
31
-4.83335
12
-135.04556
22
538.96912
32
0.00000
0
3DFACE
8
layer1
62
1
10
-33.04960
20
481.50314
30
23.33749
11
-135.04556
21
524.96899
31
33.79931
12
-135.04556
22
491.16986
32
47.79946
0
3DFACE
8
layer1
62
1
10
-33.04960
20
481.50314
30
23.33749
11
-33.04960
21
510.50336
31
19.33341
12
-135.04556
22
524.96899
32
33.79931
0
3DFACE
8
layer1
62
1
10
-135.04556
20
457.37054
30
33.79931
11
-135.04556
21
491.16986
31
47.79946
12
-223.37492
22
479.94293
32
27.10417
0
3DFACE
8
layer1
62
1
10
-135.04556
20
443.37030
30
-0.00000
11
-223.37492
21
479.94293
31
27.10417
12
-223.37495
22
464.06564
32
-11.22691
0
3DFACE
8
layer1
62
1
10
-135.04556
20
443.37030
30
-0.00000
11
-135.04556
21
457.37054
31
33.79931
12
-223.37492
22
479.94293
32
27.10417
0
3DFACE
8
layer1
62
1
10
-135.04556
20
457.37054
30
-33.79931
11
-135.04556
21
443.37030
31
-0.00000
12
-223.37495
22
464.06564
32
-11.22691
0
3DFACE
8
layer1
62
1
10
-135.04556
20
491.16986
30
-47.79946
11
-223.37495
21
464.06564
31
-11.22691
12
-223.37492
22
491.16986
32
-31.75451
0
3DFACE
8
layer1
62
1
10
-135.04556
20
491.16986
30
-47.79946
11
-135.04556
21
457.37054
31
-33.79931
12
-223.37495
22
464.06564
32
-11.22691
0
3DFACE
8
layer1
62
1
10
-135.04556
20
524.96899
30
-33.79930
11
-223.37492
21
491.16986
31
-31.75451
12
-223.37492
22
518.27399
32
-11.22691
0
3DFACE
8
layer1
62
1
10
-135.04556
20
524.96899
30
-33.79930
11
-135.04556
21
491.16986
31
-47.79946
12
-223.37492
22
491.16986
32
-31.75451
0
3DFACE
8
layer1
62
1
10
-135.04556
20
538.96912
30
0.00000
11
-135.04556
21
524.96899
31
-33.79930
12
-223.37492
22
518.27399
32
-11.22691
0
3DFACE
8
layer1
62
1
10
-135.04556
20
524.96899
30
33.79931
11
-223.37492
21
518.27399
31
-11.22691
12
-223.37492
22
513.62372
32
22.45383
0
3DFACE
8
layer1
62
1
10
-135.04556
20
524.96899
30
33.79931
11
-135.04556
21
538.96912
31
0.00000
12
-223.37492
22
518.27399
32
-11.22691
0
3DFACE
8
layer1
62
1
10
-135.04556
20
524.96899
30
33.79931
11
-223.37492
21
479.94293
31
27.10417
12
-135.04556
22
491.16986
32
47.79946
0
3DFACE
8
layer1
62
1
10
-135.04556
20
524.96899
30
33.79931
11
-223.37492
21
513.62372
31
22.45383
12
-223.37492
22
479.94293
32
27.10417
0
ENDSEC
0
EOF
