0
SECTION
2
ENTITIES
999
Created by Metasequoia
0
3DFACE
8
layer1
62
1
10
100.00000
20
117.14320
30
61.64417
11
-100.00000
21
117.14320
31
61.64417
12
-100.00000
22
-13.74934
32
61.64417
13
100.00000
23
-13.74934
33
61.64417
0
3DFACE
8
layer1
62
1
10
-100.00000
20
117.14320
30
61.64417
11
-100.00000
21
117.14320
31
-61.64416
12
-100.00000
22
-13.74934
32
-61.64416
13
-100.00000
23
-13.74934
33
61.64417
0
3DFACE
8
layer1
62
1
10
-100.00000
20
117.14320
30
-61.64416
11
100.00000
21
117.14320
31
-61.64416
12
100.00000
22
-13.74934
32
-61.64416
13
-100.00000
23
-13.74934
33
-61.64416
0
3DFACE
8
layer1
62
1
10
100.00000
20
117.14320
30
-61.64416
11
100.00000
21
117.14320
31
61.64417
12
100.00000
22
-13.74934
32
61.64417
13
100.00000
23
-13.74934
33
-61.64416
0
3DFACE
8
layer1
62
1
10
100.00000
20
117.14320
30
-61.64416
11
-100.00000
21
117.14320
31
-61.64416
12
-100.00000
22
117.14320
32
61.64417
13
100.00000
23
117.14320
33
61.64417
0
3DFACE
8
layer1
62
1
10
-98.17419
20
117.14320
30
55.22405
11
-298.17432
21
117.14320
31
55.22405
12
-298.17432
22
-13.74934
32
55.22405
13
-98.17419
23
-13.74934
33
55.22405
0
3DFACE
8
layer1
62
1
10
-298.17432
20
117.14320
30
-68.06429
11
-98.17419
21
117.14320
31
-68.06429
12
-98.17419
22
-13.74934
32
-68.06429
13
-298.17432
23
-13.74934
33
-68.06429
0
3DFACE
8
layer1
62
1
10
-98.17419
20
117.14320
30
-68.06429
11
-98.17419
21
117.14320
31
55.22405
12
-98.17419
22
-13.74934
32
55.22405
13
-98.17419
23
-13.74934
33
-68.06429
0
3DFACE
8
layer1
62
1
10
-98.17419
20
117.14320
30
-68.06429
11
-298.17432
21
117.14320
31
-68.06429
12
-298.17432
22
117.14320
32
55.22405
13
-98.17419
23
117.14320
33
55.22405
0
3DFACE
8
layer1
62
1
10
494.52823
20
117.14320
30
61.64417
11
294.52835
21
117.14320
31
61.64417
12
294.52835
22
-13.74934
32
61.64417
13
494.52823
23
-13.74934
33
61.64417
0
3DFACE
8
layer1
62
1
10
294.52835
20
117.14320
30
61.64417
11
294.52835
21
117.14320
31
-61.64416
12
294.52835
22
-13.74934
32
-61.64416
13
294.52835
23
-13.74934
33
61.64417
0
3DFACE
8
layer1
62
1
10
294.52835
20
117.14320
30
-61.64416
11
494.52823
21
117.14320
31
-61.64416
12
494.52823
22
-13.74934
32
-61.64416
13
294.52835
23
-13.74934
33
-61.64416
0
3DFACE
8
layer1
62
1
10
494.52823
20
117.14320
30
-61.64416
11
494.52823
21
117.14320
31
61.64417
12
494.52823
22
-13.74934
32
61.64417
13
494.52823
23
-13.74934
33
-61.64416
0
3DFACE
8
layer1
62
1
10
494.52823
20
117.14320
30
-61.64416
11
294.52835
21
117.14320
31
-61.64416
12
294.52835
22
117.14320
32
61.64417
13
494.52823
23
117.14320
33
61.64417
0
3DFACE
8
layer1
62
1
10
296.35416
20
117.14320
30
55.22405
11
96.35396
21
117.14320
31
55.22405
12
96.35396
22
-13.74934
32
55.22405
13
296.35416
23
-13.74934
33
55.22405
0
3DFACE
8
layer1
62
1
10
96.35396
20
117.14320
30
-68.06429
11
296.35416
21
117.14320
31
-68.06429
12
296.35416
22
-13.74934
32
-68.06429
13
96.35396
23
-13.74934
33
-68.06429
0
3DFACE
8
layer1
62
1
10
296.35416
20
117.14320
30
-68.06429
11
296.35416
21
117.14320
31
55.22405
12
296.35416
22
-13.74934
32
55.22405
13
296.35416
23
-13.74934
33
-68.06429
0
3DFACE
8
layer1
62
1
10
296.35416
20
117.14320
30
-68.06429
11
96.35396
21
117.14320
31
-68.06429
12
96.35396
22
117.14320
32
55.22405
13
296.35416
23
117.14320
33
55.22405
0
3DFACE
8
layer1
62
1
10
-295.43414
20
117.14320
30
61.64417
11
-495.43411
21
117.14320
31
61.64417
12
-495.43411
22
-13.74934
32
61.64417
13
-295.43414
23
-13.74934
33
61.64417
0
3DFACE
8
layer1
62
1
10
-495.43411
20
117.14320
30
61.64417
11
-495.43411
21
117.14320
31
-61.64416
12
-495.43411
22
-13.74934
32
-61.64416
13
-495.43411
23
-13.74934
33
61.64417
0
3DFACE
8
layer1
62
1
10
-495.43411
20
117.14320
30
-61.64416
11
-295.43414
21
117.14320
31
-61.64416
12
-295.43414
22
-13.74934
32
-61.64416
13
-495.43411
23
-13.74934
33
-61.64416
0
3DFACE
8
layer1
62
1
10
-295.43414
20
117.14320
30
-61.64416
11
-295.43414
21
117.14320
31
61.64417
12
-295.43414
22
-13.74934
32
61.64417
13
-295.43414
23
-13.74934
33
-61.64416
0
3DFACE
8
layer1
62
1
10
-295.43414
20
117.14320
30
-61.64416
11
-495.43411
21
117.14320
31
-61.64416
12
-495.43411
22
117.14320
32
61.64417
13
-295.43414
23
117.14320
33
61.64417
0
3DFACE
8
layer1
62
1
10
-493.60831
20
117.14320
30
55.22405
11
-693.60852
21
117.14320
31
55.22405
12
-693.60852
22
-13.74934
32
55.22405
13
-493.60831
23
-13.74934
33
55.22405
0
3DFACE
8
layer1
62
1
10
-693.60852
20
117.14320
30
-68.06429
11
-493.60831
21
117.14320
31
-68.06429
12
-493.60831
22
-13.74934
32
-68.06429
13
-693.60852
23
-13.74934
33
-68.06429
0
3DFACE
8
layer1
62
1
10
-493.60831
20
117.14320
30
-68.06429
11
-493.60831
21
117.14320
31
55.22405
12
-493.60831
22
-13.74934
32
55.22405
13
-493.60831
23
-13.74934
33
-68.06429
0
3DFACE
8
layer1
62
1
10
-493.60831
20
117.14320
30
-68.06429
11
-693.60852
21
117.14320
31
-68.06429
12
-693.60852
22
117.14320
32
55.22405
13
-493.60831
23
117.14320
33
55.22405
0
3DFACE
8
layer1
62
1
10
690.33948
20
117.14320
30
55.22405
11
490.33929
21
117.14320
31
55.22405
12
490.33929
22
-13.74934
32
55.22405
13
690.33948
23
-13.74934
33
55.22405
0
3DFACE
8
layer1
62
1
10
490.33929
20
117.14320
30
-68.06429
11
690.33948
21
117.14320
31
-68.06429
12
690.33948
22
-13.74934
32
-68.06429
13
490.33929
23
-13.74934
33
-68.06429
0
3DFACE
8
layer1
62
1
10
690.33948
20
117.14320
30
-68.06429
11
690.33948
21
117.14320
31
55.22405
12
690.33948
22
-13.74934
32
55.22405
13
690.33948
23
-13.74934
33
-68.06429
0
3DFACE
8
layer1
62
1
10
690.33948
20
117.14320
30
-68.06429
11
490.33929
21
117.14320
31
-68.06429
12
490.33929
22
117.14320
32
55.22405
13
690.33948
23
117.14320
33
55.22405
0
3DFACE
8
layer1
62
1
10
100.00000
20
226.61688
30
57.05172
11
-100.00000
21
226.61688
31
57.05172
12
-100.00000
22
95.72438
32
57.05172
13
100.00000
23
95.72438
33
57.05172
0
3DFACE
8
layer1
62
1
10
-100.00000
20
226.61688
30
57.05172
11
-100.00000
21
226.61688
31
-66.23660
12
-100.00000
22
95.72438
32
-66.23660
13
-100.00000
23
95.72438
33
57.05172
0
3DFACE
8
layer1
62
1
10
-100.00000
20
226.61688
30
-66.23660
11
100.00000
21
226.61688
31
-66.23660
12
100.00000
22
95.72438
32
-66.23660
13
-100.00000
23
95.72438
33
-66.23660
0
3DFACE
8
layer1
62
1
10
100.00000
20
226.61688
30
-66.23660
11
100.00000
21
226.61688
31
57.05172
12
100.00000
22
95.72438
32
57.05172
13
100.00000
23
95.72438
33
-66.23660
0
3DFACE
8
layer1
62
1
10
100.00000
20
226.61688
30
-66.23660
11
-100.00000
21
226.61688
31
-66.23660
12
-100.00000
22
226.61688
32
57.05172
13
100.00000
23
226.61688
33
57.05172
0
3DFACE
8
layer1
62
1
10
100.00000
20
95.72438
30
57.05172
11
-100.00000
21
95.72438
31
57.05172
12
-100.00000
22
95.72438
32
-66.23660
13
100.00000
23
95.72438
33
-66.23660
0
3DFACE
8
layer1
62
1
10
-98.17419
20
226.61688
30
50.63161
11
-298.17432
21
226.61688
31
50.63161
12
-298.17432
22
95.72438
32
50.63161
13
-98.17419
23
95.72438
33
50.63161
0
3DFACE
8
layer1
62
1
10
-298.17432
20
226.61688
30
-72.65672
11
-98.17419
21
226.61688
31
-72.65672
12
-98.17419
22
95.72438
32
-72.65672
13
-298.17432
23
95.72438
33
-72.65672
0
3DFACE
8
layer1
62
1
10
-98.17419
20
226.61688
30
-72.65672
11
-98.17419
21
226.61688
31
50.63161
12
-98.17419
22
95.72438
32
50.63161
13
-98.17419
23
95.72438
33
-72.65672
0
3DFACE
8
layer1
62
1
10
-98.17419
20
226.61688
30
-72.65672
11
-298.17432
21
226.61688
31
-72.65672
12
-298.17432
22
226.61688
32
50.63161
13
-98.17419
23
226.61688
33
50.63161
0
3DFACE
8
layer1
62
1
10
-98.17419
20
95.72438
30
50.63161
11
-298.17432
21
95.72438
31
50.63161
12
-298.17432
22
95.72438
32
-72.65672
13
-98.17419
23
95.72438
33
-72.65672
0
3DFACE
8
layer1
62
1
10
494.52823
20
226.61688
30
57.05172
11
294.52835
21
226.61688
31
57.05172
12
294.52835
22
95.72438
32
57.05172
13
494.52823
23
95.72438
33
57.05172
0
3DFACE
8
layer1
62
1
10
294.52835
20
226.61688
30
57.05172
11
294.52835
21
226.61688
31
-66.23660
12
294.52835
22
95.72438
32
-66.23660
13
294.52835
23
95.72438
33
57.05172
0
3DFACE
8
layer1
62
1
10
294.52835
20
226.61688
30
-66.23660
11
494.52823
21
226.61688
31
-66.23660
12
494.52823
22
95.72438
32
-66.23660
13
294.52835
23
95.72438
33
-66.23660
0
3DFACE
8
layer1
62
1
10
494.52823
20
226.61688
30
-66.23660
11
494.52823
21
226.61688
31
57.05172
12
494.52823
22
95.72438
32
57.05172
13
494.52823
23
95.72438
33
-66.23660
0
3DFACE
8
layer1
62
1
10
494.52823
20
226.61688
30
-66.23660
11
294.52835
21
226.61688
31
-66.23660
12
294.52835
22
226.61688
32
57.05172
13
494.52823
23
226.61688
33
57.05172
0
3DFACE
8
layer1
62
1
10
494.52823
20
95.72438
30
57.05172
11
294.52835
21
95.72438
31
57.05172
12
294.52835
22
95.72438
32
-66.23660
13
494.52823
23
95.72438
33
-66.23660
0
3DFACE
8
layer1
62
1
10
296.35416
20
226.61688
30
50.63161
11
96.35396
21
226.61688
31
50.63161
12
96.35396
22
95.72438
32
50.63161
13
296.35416
23
95.72438
33
50.63161
0
3DFACE
8
layer1
62
1
10
96.35396
20
226.61688
30
-72.65672
11
296.35416
21
226.61688
31
-72.65672
12
296.35416
22
95.72438
32
-72.65672
13
96.35396
23
95.72438
33
-72.65672
0
3DFACE
8
layer1
62
1
10
296.35416
20
226.61688
30
-72.65672
11
296.35416
21
226.61688
31
50.63161
12
296.35416
22
95.72438
32
50.63161
13
296.35416
23
95.72438
33
-72.65672
0
3DFACE
8
layer1
62
1
10
296.35416
20
226.61688
30
-72.65672
11
96.35396
21
226.61688
31
-72.65672
12
96.35396
22
226.61688
32
50.63161
13
296.35416
23
226.61688
33
50.63161
0
3DFACE
8
layer1
62
1
10
296.35416
20
95.72438
30
50.63161
11
96.35396
21
95.72438
31
50.63161
12
96.35396
22
95.72438
32
-72.65672
13
296.35416
23
95.72438
33
-72.65672
0
3DFACE
8
layer1
62
1
10
-295.43414
20
226.61688
30
57.05172
11
-495.43411
21
226.61688
31
57.05172
12
-495.43411
22
95.72438
32
57.05172
13
-295.43414
23
95.72438
33
57.05172
0
3DFACE
8
layer1
62
1
10
-495.43411
20
226.61688
30
57.05172
11
-495.43411
21
226.61688
31
-66.23660
12
-495.43411
22
95.72438
32
-66.23660
13
-495.43411
23
95.72438
33
57.05172
0
3DFACE
8
layer1
62
1
10
-495.43411
20
226.61688
30
-66.23660
11
-295.43414
21
226.61688
31
-66.23660
12
-295.43414
22
95.72438
32
-66.23660
13
-495.43411
23
95.72438
33
-66.23660
0
3DFACE
8
layer1
62
1
10
-295.43414
20
226.61688
30
-66.23660
11
-295.43414
21
226.61688
31
57.05172
12
-295.43414
22
95.72438
32
57.05172
13
-295.43414
23
95.72438
33
-66.23660
0
3DFACE
8
layer1
62
1
10
-295.43414
20
226.61688
30
-66.23660
11
-495.43411
21
226.61688
31
-66.23660
12
-495.43411
22
226.61688
32
57.05172
13
-295.43414
23
226.61688
33
57.05172
0
3DFACE
8
layer1
62
1
10
-295.43414
20
95.72438
30
57.05172
11
-495.43411
21
95.72438
31
57.05172
12
-495.43411
22
95.72438
32
-66.23660
13
-295.43414
23
95.72438
33
-66.23660
0
3DFACE
8
layer1
62
1
10
-493.60831
20
226.61688
30
50.63161
11
-693.60852
21
226.61688
31
50.63161
12
-693.60852
22
95.72438
32
50.63161
13
-493.60831
23
95.72438
33
50.63161
0
3DFACE
8
layer1
62
1
10
-693.60852
20
226.61688
30
-72.65672
11
-493.60831
21
226.61688
31
-72.65672
12
-493.60831
22
95.72438
32
-72.65672
13
-693.60852
23
95.72438
33
-72.65672
0
3DFACE
8
layer1
62
1
10
-493.60831
20
226.61688
30
-72.65672
11
-493.60831
21
226.61688
31
50.63161
12
-493.60831
22
95.72438
32
50.63161
13
-493.60831
23
95.72438
33
-72.65672
0
3DFACE
8
layer1
62
1
10
-493.60831
20
226.61688
30
-72.65672
11
-693.60852
21
226.61688
31
-72.65672
12
-693.60852
22
226.61688
32
50.63161
13
-493.60831
23
226.61688
33
50.63161
0
3DFACE
8
layer1
62
1
10
-493.60831
20
95.72438
30
50.63161
11
-693.60852
21
95.72438
31
50.63161
12
-693.60852
22
95.72438
32
-72.65672
13
-493.60831
23
95.72438
33
-72.65672
0
3DFACE
8
layer1
62
1
10
690.33948
20
226.61688
30
50.63161
11
490.33929
21
226.61688
31
50.63161
12
490.33929
22
95.72438
32
50.63161
13
690.33948
23
95.72438
33
50.63161
0
3DFACE
8
layer1
62
1
10
490.33929
20
226.61688
30
-72.65672
11
690.33948
21
226.61688
31
-72.65672
12
690.33948
22
95.72438
32
-72.65672
13
490.33929
23
95.72438
33
-72.65672
0
3DFACE
8
layer1
62
1
10
690.33948
20
226.61688
30
-72.65672
11
690.33948
21
226.61688
31
50.63161
12
690.33948
22
95.72438
32
50.63161
13
690.33948
23
95.72438
33
-72.65672
0
3DFACE
8
layer1
62
1
10
690.33948
20
226.61688
30
-72.65672
11
490.33929
21
226.61688
31
-72.65672
12
490.33929
22
226.61688
32
50.63161
13
690.33948
23
226.61688
33
50.63161
0
3DFACE
8
layer1
62
1
10
690.33948
20
95.72438
30
50.63161
11
490.33929
21
95.72438
31
50.63161
12
490.33929
22
95.72438
32
-72.65672
13
690.33948
23
95.72438
33
-72.65672
0
3DFACE
8
layer1
62
1
10
100.00000
20
347.44037
30
61.64417
11
-100.00000
21
347.44037
31
61.64417
12
-100.00000
22
216.54790
32
61.64417
13
100.00000
23
216.54790
33
61.64417
0
3DFACE
8
layer1
62
1
10
-100.00000
20
347.44037
30
61.64417
11
-100.00000
21
347.44037
31
-61.64416
12
-100.00000
22
216.54790
32
-61.64416
13
-100.00000
23
216.54790
33
61.64417
0
3DFACE
8
layer1
62
1
10
-100.00000
20
347.44037
30
-61.64416
11
100.00000
21
347.44037
31
-61.64416
12
100.00000
22
216.54790
32
-61.64416
13
-100.00000
23
216.54790
33
-61.64416
0
3DFACE
8
layer1
62
1
10
100.00000
20
347.44037
30
-61.64416
11
100.00000
21
347.44037
31
61.64417
12
100.00000
22
216.54790
32
61.64417
13
100.00000
23
216.54790
33
-61.64416
0
3DFACE
8
layer1
62
1
10
100.00000
20
347.44037
30
-61.64416
11
-100.00000
21
347.44037
31
-61.64416
12
-100.00000
22
347.44037
32
61.64417
13
100.00000
23
347.44037
33
61.64417
0
3DFACE
8
layer1
62
1
10
100.00000
20
216.54790
30
61.64417
11
-100.00000
21
216.54790
31
61.64417
12
-100.00000
22
216.54790
32
-61.64416
13
100.00000
23
216.54790
33
-61.64416
0
3DFACE
8
layer1
62
1
10
-98.17419
20
347.44037
30
55.22405
11
-298.17432
21
347.44037
31
55.22405
12
-298.17432
22
216.54790
32
55.22405
13
-98.17419
23
216.54790
33
55.22405
0
3DFACE
8
layer1
62
1
10
-298.17432
20
347.44037
30
-68.06429
11
-98.17419
21
347.44037
31
-68.06429
12
-98.17419
22
216.54790
32
-68.06429
13
-298.17432
23
216.54790
33
-68.06429
0
3DFACE
8
layer1
62
1
10
-98.17419
20
347.44037
30
-68.06429
11
-98.17419
21
347.44037
31
55.22405
12
-98.17419
22
216.54790
32
55.22405
13
-98.17419
23
216.54790
33
-68.06429
0
3DFACE
8
layer1
62
1
10
-98.17419
20
347.44037
30
-68.06429
11
-298.17432
21
347.44037
31
-68.06429
12
-298.17432
22
347.44037
32
55.22405
13
-98.17419
23
347.44037
33
55.22405
0
3DFACE
8
layer1
62
1
10
-98.17419
20
216.54790
30
55.22405
11
-298.17432
21
216.54790
31
55.22405
12
-298.17432
22
216.54790
32
-68.06429
13
-98.17419
23
216.54790
33
-68.06429
0
3DFACE
8
layer1
62
1
10
494.52823
20
347.44037
30
61.64417
11
294.52835
21
347.44037
31
61.64417
12
294.52835
22
216.54790
32
61.64417
13
494.52823
23
216.54790
33
61.64417
0
3DFACE
8
layer1
62
1
10
294.52835
20
347.44037
30
61.64417
11
294.52835
21
347.44037
31
-61.64416
12
294.52835
22
216.54790
32
-61.64416
13
294.52835
23
216.54790
33
61.64417
0
3DFACE
8
layer1
62
1
10
294.52835
20
347.44037
30
-61.64416
11
494.52823
21
347.44037
31
-61.64416
12
494.52823
22
216.54790
32
-61.64416
13
294.52835
23
216.54790
33
-61.64416
0
3DFACE
8
layer1
62
1
10
494.52823
20
347.44037
30
-61.64416
11
494.52823
21
347.44037
31
61.64417
12
494.52823
22
216.54790
32
61.64417
13
494.52823
23
216.54790
33
-61.64416
0
3DFACE
8
layer1
62
1
10
494.52823
20
347.44037
30
-61.64416
11
294.52835
21
347.44037
31
-61.64416
12
294.52835
22
347.44037
32
61.64417
13
494.52823
23
347.44037
33
61.64417
0
3DFACE
8
layer1
62
1
10
494.52823
20
216.54790
30
61.64417
11
294.52835
21
216.54790
31
61.64417
12
294.52835
22
216.54790
32
-61.64416
13
494.52823
23
216.54790
33
-61.64416
0
3DFACE
8
layer1
62
1
10
296.35416
20
347.44037
30
55.22405
11
96.35396
21
347.44037
31
55.22405
12
96.35396
22
216.54790
32
55.22405
13
296.35416
23
216.54790
33
55.22405
0
3DFACE
8
layer1
62
1
10
96.35396
20
347.44037
30
-68.06429
11
296.35416
21
347.44037
31
-68.06429
12
296.35416
22
216.54790
32
-68.06429
13
96.35396
23
216.54790
33
-68.06429
0
3DFACE
8
layer1
62
1
10
296.35416
20
347.44037
30
-68.06429
11
296.35416
21
347.44037
31
55.22405
12
296.35416
22
216.54790
32
55.22405
13
296.35416
23
216.54790
33
-68.06429
0
3DFACE
8
layer1
62
1
10
296.35416
20
347.44037
30
-68.06429
11
96.35396
21
347.44037
31
-68.06429
12
96.35396
22
347.44037
32
55.22405
13
296.35416
23
347.44037
33
55.22405
0
3DFACE
8
layer1
62
1
10
296.35416
20
216.54790
30
55.22405
11
96.35396
21
216.54790
31
55.22405
12
96.35396
22
216.54790
32
-68.06429
13
296.35416
23
216.54790
33
-68.06429
0
3DFACE
8
layer1
62
1
10
-295.43414
20
347.44037
30
61.64417
11
-495.43411
21
347.44037
31
61.64417
12
-495.43411
22
216.54790
32
61.64417
13
-295.43414
23
216.54790
33
61.64417
0
3DFACE
8
layer1
62
1
10
-495.43411
20
347.44037
30
61.64417
11
-495.43411
21
347.44037
31
-61.64416
12
-495.43411
22
216.54790
32
-61.64416
13
-495.43411
23
216.54790
33
61.64417
0
3DFACE
8
layer1
62
1
10
-495.43411
20
347.44037
30
-61.64416
11
-295.43414
21
347.44037
31
-61.64416
12
-295.43414
22
216.54790
32
-61.64416
13
-495.43411
23
216.54790
33
-61.64416
0
3DFACE
8
layer1
62
1
10
-295.43414
20
347.44037
30
-61.64416
11
-295.43414
21
347.44037
31
61.64417
12
-295.43414
22
216.54790
32
61.64417
13
-295.43414
23
216.54790
33
-61.64416
0
3DFACE
8
layer1
62
1
10
-295.43414
20
347.44037
30
-61.64416
11
-495.43411
21
347.44037
31
-61.64416
12
-495.43411
22
347.44037
32
61.64417
13
-295.43414
23
347.44037
33
61.64417
0
3DFACE
8
layer1
62
1
10
-295.43414
20
216.54790
30
61.64417
11
-495.43411
21
216.54790
31
61.64417
12
-495.43411
22
216.54790
32
-61.64416
13
-295.43414
23
216.54790
33
-61.64416
0
3DFACE
8
layer1
62
1
10
-493.60831
20
347.44037
30
55.22405
11
-693.60852
21
347.44037
31
55.22405
12
-693.60852
22
216.54790
32
55.22405
13
-493.60831
23
216.54790
33
55.22405
0
3DFACE
8
layer1
62
1
10
-693.60852
20
347.44037
30
-68.06429
11
-493.60831
21
347.44037
31
-68.06429
12
-493.60831
22
216.54790
32
-68.06429
13
-693.60852
23
216.54790
33
-68.06429
0
3DFACE
8
layer1
62
1
10
-493.60831
20
347.44037
30
-68.06429
11
-493.60831
21
347.44037
31
55.22405
12
-493.60831
22
216.54790
32
55.22405
13
-493.60831
23
216.54790
33
-68.06429
0
3DFACE
8
layer1
62
1
10
-493.60831
20
347.44037
30
-68.06429
11
-693.60852
21
347.44037
31
-68.06429
12
-693.60852
22
347.44037
32
55.22405
13
-493.60831
23
347.44037
33
55.22405
0
3DFACE
8
layer1
62
1
10
-493.60831
20
216.54790
30
55.22405
11
-693.60852
21
216.54790
31
55.22405
12
-693.60852
22
216.54790
32
-68.06429
13
-493.60831
23
216.54790
33
-68.06429
0
3DFACE
8
layer1
62
1
10
690.33948
20
347.44037
30
55.22405
11
490.33929
21
347.44037
31
55.22405
12
490.33929
22
216.54790
32
55.22405
13
690.33948
23
216.54790
33
55.22405
0
3DFACE
8
layer1
62
1
10
490.33929
20
347.44037
30
-68.06429
11
690.33948
21
347.44037
31
-68.06429
12
690.33948
22
216.54790
32
-68.06429
13
490.33929
23
216.54790
33
-68.06429
0
3DFACE
8
layer1
62
1
10
690.33948
20
347.44037
30
-68.06429
11
690.33948
21
347.44037
31
55.22405
12
690.33948
22
216.54790
32
55.22405
13
690.33948
23
216.54790
33
-68.06429
0
3DFACE
8
layer1
62
1
10
690.33948
20
347.44037
30
-68.06429
11
490.33929
21
347.44037
31
-68.06429
12
490.33929
22
347.44037
32
55.22405
13
690.33948
23
347.44037
33
55.22405
0
3DFACE
8
layer1
62
1
10
690.33948
20
216.54790
30
55.22405
11
490.33929
21
216.54790
31
55.22405
12
490.33929
22
216.54790
32
-68.06429
13
690.33948
23
216.54790
33
-68.06429
0
3DFACE
8
layer1
62
1
10
100.00000
20
456.91434
30
57.05172
11
-100.00000
21
456.91434
31
57.05172
12
-100.00000
22
326.02176
32
57.05172
13
100.00000
23
326.02176
33
57.05172
0
3DFACE
8
layer1
62
1
10
-100.00000
20
456.91434
30
57.05172
11
-100.00000
21
456.91434
31
-66.23660
12
-100.00000
22
326.02176
32
-66.23660
13
-100.00000
23
326.02176
33
57.05172
0
3DFACE
8
layer1
62
1
10
-100.00000
20
456.91434
30
-66.23660
11
100.00000
21
456.91434
31
-66.23660
12
100.00000
22
326.02176
32
-66.23660
13
-100.00000
23
326.02176
33
-66.23660
0
3DFACE
8
layer1
62
1
10
100.00000
20
456.91434
30
-66.23660
11
100.00000
21
456.91434
31
57.05172
12
100.00000
22
326.02176
32
57.05172
13
100.00000
23
326.02176
33
-66.23660
0
3DFACE
8
layer1
62
1
10
100.00000
20
456.91434
30
-66.23660
11
-100.00000
21
456.91434
31
-66.23660
12
-100.00000
22
456.91434
32
57.05172
13
100.00000
23
456.91434
33
57.05172
0
3DFACE
8
layer1
62
1
10
100.00000
20
326.02176
30
57.05172
11
-100.00000
21
326.02176
31
57.05172
12
-100.00000
22
326.02176
32
-66.23660
13
100.00000
23
326.02176
33
-66.23660
0
3DFACE
8
layer1
62
1
10
-98.17419
20
456.91434
30
50.63161
11
-298.17432
21
456.91434
31
50.63161
12
-298.17432
22
326.02176
32
50.63161
13
-98.17419
23
326.02176
33
50.63161
0
3DFACE
8
layer1
62
1
10
-298.17432
20
456.91434
30
-72.65672
11
-98.17419
21
456.91434
31
-72.65672
12
-98.17419
22
326.02176
32
-72.65672
13
-298.17432
23
326.02176
33
-72.65672
0
3DFACE
8
layer1
62
1
10
-98.17419
20
456.91434
30
-72.65672
11
-98.17419
21
456.91434
31
50.63161
12
-98.17419
22
326.02176
32
50.63161
13
-98.17419
23
326.02176
33
-72.65672
0
3DFACE
8
layer1
62
1
10
-98.17419
20
456.91434
30
-72.65672
11
-298.17432
21
456.91434
31
-72.65672
12
-298.17432
22
456.91434
32
50.63161
13
-98.17419
23
456.91434
33
50.63161
0
3DFACE
8
layer1
62
1
10
-98.17419
20
326.02176
30
50.63161
11
-298.17432
21
326.02176
31
50.63161
12
-298.17432
22
326.02176
32
-72.65672
13
-98.17419
23
326.02176
33
-72.65672
0
3DFACE
8
layer1
62
1
10
494.52823
20
456.91434
30
57.05172
11
294.52835
21
456.91434
31
57.05172
12
294.52835
22
326.02176
32
57.05172
13
494.52823
23
326.02176
33
57.05172
0
3DFACE
8
layer1
62
1
10
294.52835
20
456.91434
30
57.05172
11
294.52835
21
456.91434
31
-66.23660
12
294.52835
22
326.02176
32
-66.23660
13
294.52835
23
326.02176
33
57.05172
0
3DFACE
8
layer1
62
1
10
294.52835
20
456.91434
30
-66.23660
11
494.52823
21
456.91434
31
-66.23660
12
494.52823
22
326.02176
32
-66.23660
13
294.52835
23
326.02176
33
-66.23660
0
3DFACE
8
layer1
62
1
10
494.52823
20
456.91434
30
-66.23660
11
494.52823
21
456.91434
31
57.05172
12
494.52823
22
326.02176
32
57.05172
13
494.52823
23
326.02176
33
-66.23660
0
3DFACE
8
layer1
62
1
10
494.52823
20
456.91434
30
-66.23660
11
294.52835
21
456.91434
31
-66.23660
12
294.52835
22
456.91434
32
57.05172
13
494.52823
23
456.91434
33
57.05172
0
3DFACE
8
layer1
62
1
10
494.52823
20
326.02176
30
57.05172
11
294.52835
21
326.02176
31
57.05172
12
294.52835
22
326.02176
32
-66.23660
13
494.52823
23
326.02176
33
-66.23660
0
3DFACE
8
layer1
62
1
10
296.35416
20
456.91434
30
50.63161
11
96.35396
21
456.91434
31
50.63161
12
96.35396
22
326.02176
32
50.63161
13
296.35416
23
326.02176
33
50.63161
0
3DFACE
8
layer1
62
1
10
96.35396
20
456.91434
30
-72.65672
11
296.35416
21
456.91434
31
-72.65672
12
296.35416
22
326.02176
32
-72.65672
13
96.35396
23
326.02176
33
-72.65672
0
3DFACE
8
layer1
62
1
10
296.35416
20
456.91434
30
-72.65672
11
296.35416
21
456.91434
31
50.63161
12
296.35416
22
326.02176
32
50.63161
13
296.35416
23
326.02176
33
-72.65672
0
3DFACE
8
layer1
62
1
10
296.35416
20
456.91434
30
-72.65672
11
96.35396
21
456.91434
31
-72.65672
12
96.35396
22
456.91434
32
50.63161
13
296.35416
23
456.91434
33
50.63161
0
3DFACE
8
layer1
62
1
10
296.35416
20
326.02176
30
50.63161
11
96.35396
21
326.02176
31
50.63161
12
96.35396
22
326.02176
32
-72.65672
13
296.35416
23
326.02176
33
-72.65672
0
3DFACE
8
layer1
62
1
10
-295.43414
20
456.91434
30
57.05172
11
-495.43411
21
456.91434
31
57.05172
12
-495.43411
22
326.02176
32
57.05172
13
-295.43414
23
326.02176
33
57.05172
0
3DFACE
8
layer1
62
1
10
-495.43411
20
456.91434
30
57.05172
11
-495.43411
21
456.91434
31
-66.23660
12
-495.43411
22
326.02176
32
-66.23660
13
-495.43411
23
326.02176
33
57.05172
0
3DFACE
8
layer1
62
1
10
-495.43411
20
456.91434
30
-66.23660
11
-295.43414
21
456.91434
31
-66.23660
12
-295.43414
22
326.02176
32
-66.23660
13
-495.43411
23
326.02176
33
-66.23660
0
3DFACE
8
layer1
62
1
10
-295.43414
20
456.91434
30
-66.23660
11
-295.43414
21
456.91434
31
57.05172
12
-295.43414
22
326.02176
32
57.05172
13
-295.43414
23
326.02176
33
-66.23660
0
3DFACE
8
layer1
62
1
10
-295.43414
20
456.91434
30
-66.23660
11
-495.43411
21
456.91434
31
-66.23660
12
-495.43411
22
456.91434
32
57.05172
13
-295.43414
23
456.91434
33
57.05172
0
3DFACE
8
layer1
62
1
10
-295.43414
20
326.02176
30
57.05172
11
-495.43411
21
326.02176
31
57.05172
12
-495.43411
22
326.02176
32
-66.23660
13
-295.43414
23
326.02176
33
-66.23660
0
3DFACE
8
layer1
62
1
10
-493.60831
20
456.91434
30
50.63161
11
-693.60852
21
456.91434
31
50.63161
12
-693.60852
22
326.02176
32
50.63161
13
-493.60831
23
326.02176
33
50.63161
0
3DFACE
8
layer1
62
1
10
-693.60852
20
456.91434
30
-72.65672
11
-493.60831
21
456.91434
31
-72.65672
12
-493.60831
22
326.02176
32
-72.65672
13
-693.60852
23
326.02176
33
-72.65672
0
3DFACE
8
layer1
62
1
10
-493.60831
20
456.91434
30
-72.65672
11
-493.60831
21
456.91434
31
50.63161
12
-493.60831
22
326.02176
32
50.63161
13
-493.60831
23
326.02176
33
-72.65672
0
3DFACE
8
layer1
62
1
10
-493.60831
20
456.91434
30
-72.65672
11
-693.60852
21
456.91434
31
-72.65672
12
-693.60852
22
456.91434
32
50.63161
13
-493.60831
23
456.91434
33
50.63161
0
3DFACE
8
layer1
62
1
10
-493.60831
20
326.02176
30
50.63161
11
-693.60852
21
326.02176
31
50.63161
12
-693.60852
22
326.02176
32
-72.65672
13
-493.60831
23
326.02176
33
-72.65672
0
3DFACE
8
layer1
62
1
10
690.33948
20
456.91434
30
50.63161
11
490.33929
21
456.91434
31
50.63161
12
490.33929
22
326.02176
32
50.63161
13
690.33948
23
326.02176
33
50.63161
0
3DFACE
8
layer1
62
1
10
490.33929
20
456.91434
30
-72.65672
11
690.33948
21
456.91434
31
-72.65672
12
690.33948
22
326.02176
32
-72.65672
13
490.33929
23
326.02176
33
-72.65672
0
3DFACE
8
layer1
62
1
10
690.33948
20
456.91434
30
-72.65672
11
690.33948
21
456.91434
31
50.63161
12
690.33948
22
326.02176
32
50.63161
13
690.33948
23
326.02176
33
-72.65672
0
3DFACE
8
layer1
62
1
10
690.33948
20
456.91434
30
-72.65672
11
490.33929
21
456.91434
31
-72.65672
12
490.33929
22
456.91434
32
50.63161
13
690.33948
23
456.91434
33
50.63161
0
3DFACE
8
layer1
62
1
10
690.33948
20
326.02176
30
50.63161
11
490.33929
21
326.02176
31
50.63161
12
490.33929
22
326.02176
32
-72.65672
13
690.33948
23
326.02176
33
-72.65672
0
3DFACE
8
layer1
62
1
10
100.00000
20
575.37152
30
61.64417
11
-100.00000
21
575.37152
31
61.64417
12
-100.00000
22
444.47897
32
61.64417
13
100.00000
23
444.47897
33
61.64417
0
3DFACE
8
layer1
62
1
10
-100.00000
20
575.37152
30
61.64417
11
-100.00000
21
575.37152
31
-61.64416
12
-100.00000
22
444.47897
32
-61.64416
13
-100.00000
23
444.47897
33
61.64417
0
3DFACE
8
layer1
62
1
10
-100.00000
20
575.37152
30
-61.64416
11
100.00000
21
575.37152
31
-61.64416
12
100.00000
22
444.47897
32
-61.64416
13
-100.00000
23
444.47897
33
-61.64416
0
3DFACE
8
layer1
62
1
10
100.00000
20
575.37152
30
-61.64416
11
100.00000
21
575.37152
31
61.64417
12
100.00000
22
444.47897
32
61.64417
13
100.00000
23
444.47897
33
-61.64416
0
3DFACE
8
layer1
62
1
10
100.00000
20
575.37152
30
-61.64416
11
-100.00000
21
575.37152
31
-61.64416
12
-100.00000
22
575.37152
32
61.64417
13
100.00000
23
575.37152
33
61.64417
0
3DFACE
8
layer1
62
1
10
100.00000
20
444.47897
30
61.64417
11
-100.00000
21
444.47897
31
61.64417
12
-100.00000
22
444.47897
32
-61.64416
13
100.00000
23
444.47897
33
-61.64416
0
3DFACE
8
layer1
62
1
10
-98.17419
20
575.37152
30
55.22405
11
-298.17432
21
575.37152
31
55.22405
12
-298.17432
22
444.47897
32
55.22405
13
-98.17419
23
444.47897
33
55.22405
0
3DFACE
8
layer1
62
1
10
-298.17432
20
575.37152
30
-68.06429
11
-98.17419
21
575.37152
31
-68.06429
12
-98.17419
22
444.47897
32
-68.06429
13
-298.17432
23
444.47897
33
-68.06429
0
3DFACE
8
layer1
62
1
10
-98.17419
20
575.37152
30
-68.06429
11
-98.17419
21
575.37152
31
55.22405
12
-98.17419
22
444.47897
32
55.22405
13
-98.17419
23
444.47897
33
-68.06429
0
3DFACE
8
layer1
62
1
10
-98.17419
20
575.37152
30
-68.06429
11
-298.17432
21
575.37152
31
-68.06429
12
-298.17432
22
575.37152
32
55.22405
13
-98.17419
23
575.37152
33
55.22405
0
3DFACE
8
layer1
62
1
10
-98.17419
20
444.47897
30
55.22405
11
-298.17432
21
444.47897
31
55.22405
12
-298.17432
22
444.47897
32
-68.06429
13
-98.17419
23
444.47897
33
-68.06429
0
3DFACE
8
layer1
62
1
10
494.52823
20
575.37152
30
61.64417
11
294.52835
21
575.37152
31
61.64417
12
294.52835
22
444.47897
32
61.64417
13
494.52823
23
444.47897
33
61.64417
0
3DFACE
8
layer1
62
1
10
294.52835
20
575.37152
30
61.64417
11
294.52835
21
575.37152
31
-61.64416
12
294.52835
22
444.47897
32
-61.64416
13
294.52835
23
444.47897
33
61.64417
0
3DFACE
8
layer1
62
1
10
294.52835
20
575.37152
30
-61.64416
11
494.52823
21
575.37152
31
-61.64416
12
494.52823
22
444.47897
32
-61.64416
13
294.52835
23
444.47897
33
-61.64416
0
3DFACE
8
layer1
62
1
10
494.52823
20
575.37152
30
-61.64416
11
494.52823
21
575.37152
31
61.64417
12
494.52823
22
444.47897
32
61.64417
13
494.52823
23
444.47897
33
-61.64416
0
3DFACE
8
layer1
62
1
10
494.52823
20
575.37152
30
-61.64416
11
294.52835
21
575.37152
31
-61.64416
12
294.52835
22
575.37152
32
61.64417
13
494.52823
23
575.37152
33
61.64417
0
3DFACE
8
layer1
62
1
10
494.52823
20
444.47897
30
61.64417
11
294.52835
21
444.47897
31
61.64417
12
294.52835
22
444.47897
32
-61.64416
13
494.52823
23
444.47897
33
-61.64416
0
3DFACE
8
layer1
62
1
10
296.35416
20
575.37152
30
55.22405
11
96.35396
21
575.37152
31
55.22405
12
96.35396
22
444.47897
32
55.22405
13
296.35416
23
444.47897
33
55.22405
0
3DFACE
8
layer1
62
1
10
96.35396
20
575.37152
30
-68.06429
11
296.35416
21
575.37152
31
-68.06429
12
296.35416
22
444.47897
32
-68.06429
13
96.35396
23
444.47897
33
-68.06429
0
3DFACE
8
layer1
62
1
10
296.35416
20
575.37152
30
-68.06429
11
296.35416
21
575.37152
31
55.22405
12
296.35416
22
444.47897
32
55.22405
13
296.35416
23
444.47897
33
-68.06429
0
3DFACE
8
layer1
62
1
10
296.35416
20
575.37152
30
-68.06429
11
96.35396
21
575.37152
31
-68.06429
12
96.35396
22
575.37152
32
55.22405
13
296.35416
23
575.37152
33
55.22405
0
3DFACE
8
layer1
62
1
10
296.35416
20
444.47897
30
55.22405
11
96.35396
21
444.47897
31
55.22405
12
96.35396
22
444.47897
32
-68.06429
13
296.35416
23
444.47897
33
-68.06429
0
3DFACE
8
layer1
62
1
10
-295.43414
20
575.37152
30
61.64417
11
-495.43411
21
575.37152
31
61.64417
12
-495.43411
22
444.47897
32
61.64417
13
-295.43414
23
444.47897
33
61.64417
0
3DFACE
8
layer1
62
1
10
-495.43411
20
575.37152
30
61.64417
11
-495.43411
21
575.37152
31
-61.64416
12
-495.43411
22
444.47897
32
-61.64416
13
-495.43411
23
444.47897
33
61.64417
0
3DFACE
8
layer1
62
1
10
-495.43411
20
575.37152
30
-61.64416
11
-295.43414
21
575.37152
31
-61.64416
12
-295.43414
22
444.47897
32
-61.64416
13
-495.43411
23
444.47897
33
-61.64416
0
3DFACE
8
layer1
62
1
10
-295.43414
20
575.37152
30
-61.64416
11
-295.43414
21
575.37152
31
61.64417
12
-295.43414
22
444.47897
32
61.64417
13
-295.43414
23
444.47897
33
-61.64416
0
3DFACE
8
layer1
62
1
10
-295.43414
20
575.37152
30
-61.64416
11
-495.43411
21
575.37152
31
-61.64416
12
-495.43411
22
575.37152
32
61.64417
13
-295.43414
23
575.37152
33
61.64417
0
3DFACE
8
layer1
62
1
10
-295.43414
20
444.47897
30
61.64417
11
-495.43411
21
444.47897
31
61.64417
12
-495.43411
22
444.47897
32
-61.64416
13
-295.43414
23
444.47897
33
-61.64416
0
3DFACE
8
layer1
62
1
10
-493.60831
20
575.37152
30
55.22405
11
-693.60852
21
575.37152
31
55.22405
12
-693.60852
22
444.47897
32
55.22405
13
-493.60831
23
444.47897
33
55.22405
0
3DFACE
8
layer1
62
1
10
-693.60852
20
575.37152
30
-68.06429
11
-493.60831
21
575.37152
31
-68.06429
12
-493.60831
22
444.47897
32
-68.06429
13
-693.60852
23
444.47897
33
-68.06429
0
3DFACE
8
layer1
62
1
10
-493.60831
20
575.37152
30
-68.06429
11
-493.60831
21
575.37152
31
55.22405
12
-493.60831
22
444.47897
32
55.22405
13
-493.60831
23
444.47897
33
-68.06429
0
3DFACE
8
layer1
62
1
10
-493.60831
20
575.37152
30
-68.06429
11
-693.60852
21
575.37152
31
-68.06429
12
-693.60852
22
575.37152
32
55.22405
13
-493.60831
23
575.37152
33
55.22405
0
3DFACE
8
layer1
62
1
10
-493.60831
20
444.47897
30
55.22405
11
-693.60852
21
444.47897
31
55.22405
12
-693.60852
22
444.47897
32
-68.06429
13
-493.60831
23
444.47897
33
-68.06429
0
3DFACE
8
layer1
62
1
10
690.33948
20
575.37152
30
55.22405
11
490.33929
21
575.37152
31
55.22405
12
490.33929
22
444.47897
32
55.22405
13
690.33948
23
444.47897
33
55.22405
0
3DFACE
8
layer1
62
1
10
490.33929
20
575.37152
30
-68.06429
11
690.33948
21
575.37152
31
-68.06429
12
690.33948
22
444.47897
32
-68.06429
13
490.33929
23
444.47897
33
-68.06429
0
3DFACE
8
layer1
62
1
10
690.33948
20
575.37152
30
-68.06429
11
690.33948
21
575.37152
31
55.22405
12
690.33948
22
444.47897
32
55.22405
13
690.33948
23
444.47897
33
-68.06429
0
3DFACE
8
layer1
62
1
10
690.33948
20
575.37152
30
-68.06429
11
490.33929
21
575.37152
31
-68.06429
12
490.33929
22
575.37152
32
55.22405
13
690.33948
23
575.37152
33
55.22405
0
3DFACE
8
layer1
62
1
10
690.33948
20
444.47897
30
55.22405
11
490.33929
21
444.47897
31
55.22405
12
490.33929
22
444.47897
32
-68.06429
13
690.33948
23
444.47897
33
-68.06429
0
3DFACE
8
layer1
62
1
10
100.00000
20
684.84509
30
57.05172
11
-100.00000
21
684.84509
31
57.05172
12
-100.00000
22
553.95282
32
57.05172
13
100.00000
23
553.95282
33
57.05172
0
3DFACE
8
layer1
62
1
10
-100.00000
20
684.84509
30
57.05172
11
-100.00000
21
684.84509
31
-66.23660
12
-100.00000
22
553.95282
32
-66.23660
13
-100.00000
23
553.95282
33
57.05172
0
3DFACE
8
layer1
62
1
10
-100.00000
20
684.84509
30
-66.23660
11
100.00000
21
684.84509
31
-66.23660
12
100.00000
22
553.95282
32
-66.23660
13
-100.00000
23
553.95282
33
-66.23660
0
3DFACE
8
layer1
62
1
10
100.00000
20
684.84509
30
-66.23660
11
100.00000
21
684.84509
31
57.05172
12
100.00000
22
553.95282
32
57.05172
13
100.00000
23
553.95282
33
-66.23660
0
3DFACE
8
layer1
62
1
10
100.00000
20
684.84509
30
-66.23660
11
-100.00000
21
684.84509
31
-66.23660
12
-100.00000
22
684.84509
32
57.05172
13
100.00000
23
684.84509
33
57.05172
0
3DFACE
8
layer1
62
1
10
100.00000
20
553.95282
30
57.05172
11
-100.00000
21
553.95282
31
57.05172
12
-100.00000
22
553.95282
32
-66.23660
13
100.00000
23
553.95282
33
-66.23660
0
3DFACE
8
layer1
62
1
10
-98.17419
20
684.84509
30
50.63161
11
-298.17432
21
684.84509
31
50.63161
12
-298.17432
22
553.95282
32
50.63161
13
-98.17419
23
553.95282
33
50.63161
0
3DFACE
8
layer1
62
1
10
-298.17432
20
684.84509
30
-72.65672
11
-98.17419
21
684.84509
31
-72.65672
12
-98.17419
22
553.95282
32
-72.65672
13
-298.17432
23
553.95282
33
-72.65672
0
3DFACE
8
layer1
62
1
10
-98.17419
20
684.84509
30
-72.65672
11
-98.17419
21
684.84509
31
50.63161
12
-98.17419
22
553.95282
32
50.63161
13
-98.17419
23
553.95282
33
-72.65672
0
3DFACE
8
layer1
62
1
10
-98.17419
20
684.84509
30
-72.65672
11
-298.17432
21
684.84509
31
-72.65672
12
-298.17432
22
684.84509
32
50.63161
13
-98.17419
23
684.84509
33
50.63161
0
3DFACE
8
layer1
62
1
10
-98.17419
20
553.95282
30
50.63161
11
-298.17432
21
553.95282
31
50.63161
12
-298.17432
22
553.95282
32
-72.65672
13
-98.17419
23
553.95282
33
-72.65672
0
3DFACE
8
layer1
62
1
10
494.52823
20
684.84509
30
57.05172
11
294.52835
21
684.84509
31
57.05172
12
294.52835
22
553.95282
32
57.05172
13
494.52823
23
553.95282
33
57.05172
0
3DFACE
8
layer1
62
1
10
294.52835
20
684.84509
30
57.05172
11
294.52835
21
684.84509
31
-66.23660
12
294.52835
22
553.95282
32
-66.23660
13
294.52835
23
553.95282
33
57.05172
0
3DFACE
8
layer1
62
1
10
294.52835
20
684.84509
30
-66.23660
11
494.52823
21
684.84509
31
-66.23660
12
494.52823
22
553.95282
32
-66.23660
13
294.52835
23
553.95282
33
-66.23660
0
3DFACE
8
layer1
62
1
10
494.52823
20
684.84509
30
-66.23660
11
494.52823
21
684.84509
31
57.05172
12
494.52823
22
553.95282
32
57.05172
13
494.52823
23
553.95282
33
-66.23660
0
3DFACE
8
layer1
62
1
10
494.52823
20
684.84509
30
-66.23660
11
294.52835
21
684.84509
31
-66.23660
12
294.52835
22
684.84509
32
57.05172
13
494.52823
23
684.84509
33
57.05172
0
3DFACE
8
layer1
62
1
10
494.52823
20
553.95282
30
57.05172
11
294.52835
21
553.95282
31
57.05172
12
294.52835
22
553.95282
32
-66.23660
13
494.52823
23
553.95282
33
-66.23660
0
3DFACE
8
layer1
62
1
10
296.35416
20
684.84509
30
50.63161
11
96.35396
21
684.84509
31
50.63161
12
96.35396
22
553.95282
32
50.63161
13
296.35416
23
553.95282
33
50.63161
0
3DFACE
8
layer1
62
1
10
96.35396
20
684.84509
30
-72.65672
11
296.35416
21
684.84509
31
-72.65672
12
296.35416
22
553.95282
32
-72.65672
13
96.35396
23
553.95282
33
-72.65672
0
3DFACE
8
layer1
62
1
10
296.35416
20
684.84509
30
-72.65672
11
296.35416
21
684.84509
31
50.63161
12
296.35416
22
553.95282
32
50.63161
13
296.35416
23
553.95282
33
-72.65672
0
3DFACE
8
layer1
62
1
10
296.35416
20
684.84509
30
-72.65672
11
96.35396
21
684.84509
31
-72.65672
12
96.35396
22
684.84509
32
50.63161
13
296.35416
23
684.84509
33
50.63161
0
3DFACE
8
layer1
62
1
10
296.35416
20
553.95282
30
50.63161
11
96.35396
21
553.95282
31
50.63161
12
96.35396
22
553.95282
32
-72.65672
13
296.35416
23
553.95282
33
-72.65672
0
3DFACE
8
layer1
62
1
10
-295.43414
20
684.84509
30
57.05172
11
-495.43411
21
684.84509
31
57.05172
12
-495.43411
22
553.95282
32
57.05172
13
-295.43414
23
553.95282
33
57.05172
0
3DFACE
8
layer1
62
1
10
-495.43411
20
684.84509
30
57.05172
11
-495.43411
21
684.84509
31
-66.23660
12
-495.43411
22
553.95282
32
-66.23660
13
-495.43411
23
553.95282
33
57.05172
0
3DFACE
8
layer1
62
1
10
-495.43411
20
684.84509
30
-66.23660
11
-295.43414
21
684.84509
31
-66.23660
12
-295.43414
22
553.95282
32
-66.23660
13
-495.43411
23
553.95282
33
-66.23660
0
3DFACE
8
layer1
62
1
10
-295.43414
20
684.84509
30
-66.23660
11
-295.43414
21
684.84509
31
57.05172
12
-295.43414
22
553.95282
32
57.05172
13
-295.43414
23
553.95282
33
-66.23660
0
3DFACE
8
layer1
62
1
10
-295.43414
20
684.84509
30
-66.23660
11
-495.43411
21
684.84509
31
-66.23660
12
-495.43411
22
684.84509
32
57.05172
13
-295.43414
23
684.84509
33
57.05172
0
3DFACE
8
layer1
62
1
10
-295.43414
20
553.95282
30
57.05172
11
-495.43411
21
553.95282
31
57.05172
12
-495.43411
22
553.95282
32
-66.23660
13
-295.43414
23
553.95282
33
-66.23660
0
3DFACE
8
layer1
62
1
10
-493.60831
20
684.84509
30
50.63161
11
-693.60852
21
684.84509
31
50.63161
12
-693.60852
22
553.95282
32
50.63161
13
-493.60831
23
553.95282
33
50.63161
0
3DFACE
8
layer1
62
1
10
-693.60852
20
684.84509
30
-72.65672
11
-493.60831
21
684.84509
31
-72.65672
12
-493.60831
22
553.95282
32
-72.65672
13
-693.60852
23
553.95282
33
-72.65672
0
3DFACE
8
layer1
62
1
10
-493.60831
20
684.84509
30
-72.65672
11
-493.60831
21
684.84509
31
50.63161
12
-493.60831
22
553.95282
32
50.63161
13
-493.60831
23
553.95282
33
-72.65672
0
3DFACE
8
layer1
62
1
10
-493.60831
20
684.84509
30
-72.65672
11
-693.60852
21
684.84509
31
-72.65672
12
-693.60852
22
684.84509
32
50.63161
13
-493.60831
23
684.84509
33
50.63161
0
3DFACE
8
layer1
62
1
10
-493.60831
20
553.95282
30
50.63161
11
-693.60852
21
553.95282
31
50.63161
12
-693.60852
22
553.95282
32
-72.65672
13
-493.60831
23
553.95282
33
-72.65672
0
3DFACE
8
layer1
62
1
10
690.33948
20
684.84509
30
50.63161
11
490.33929
21
684.84509
31
50.63161
12
490.33929
22
553.95282
32
50.63161
13
690.33948
23
553.95282
33
50.63161
0
3DFACE
8
layer1
62
1
10
490.33929
20
684.84509
30
-72.65672
11
690.33948
21
684.84509
31
-72.65672
12
690.33948
22
553.95282
32
-72.65672
13
490.33929
23
553.95282
33
-72.65672
0
3DFACE
8
layer1
62
1
10
690.33948
20
684.84509
30
-72.65672
11
690.33948
21
684.84509
31
50.63161
12
690.33948
22
553.95282
32
50.63161
13
690.33948
23
553.95282
33
-72.65672
0
3DFACE
8
layer1
62
1
10
690.33948
20
684.84509
30
-72.65672
11
490.33929
21
684.84509
31
-72.65672
12
490.33929
22
684.84509
32
50.63161
13
690.33948
23
684.84509
33
50.63161
0
3DFACE
8
layer1
62
1
10
690.33948
20
553.95282
30
50.63161
11
490.33929
21
553.95282
31
50.63161
12
490.33929
22
553.95282
32
-72.65672
13
690.33948
23
553.95282
33
-72.65672
0
3DFACE
8
layer1
62
1
10
100.00000
20
797.29523
30
61.64417
11
-100.00000
21
797.29523
31
61.64417
12
-100.00000
22
666.40289
32
61.64417
13
100.00000
23
666.40289
33
61.64417
0
3DFACE
8
layer1
62
1
10
-100.00000
20
797.29523
30
61.64417
11
-100.00000
21
797.29523
31
-61.64416
12
-100.00000
22
666.40289
32
-61.64416
13
-100.00000
23
666.40289
33
61.64417
0
3DFACE
8
layer1
62
1
10
-100.00000
20
797.29523
30
-61.64416
11
100.00000
21
797.29523
31
-61.64416
12
100.00000
22
666.40289
32
-61.64416
13
-100.00000
23
666.40289
33
-61.64416
0
3DFACE
8
layer1
62
1
10
100.00000
20
797.29523
30
-61.64416
11
100.00000
21
797.29523
31
61.64417
12
100.00000
22
666.40289
32
61.64417
13
100.00000
23
666.40289
33
-61.64416
0
3DFACE
8
layer1
62
1
10
100.00000
20
797.29523
30
-61.64416
11
-100.00000
21
797.29523
31
-61.64416
12
-100.00000
22
797.29523
32
61.64417
13
100.00000
23
797.29523
33
61.64417
0
3DFACE
8
layer1
62
1
10
100.00000
20
666.40289
30
61.64417
11
-100.00000
21
666.40289
31
61.64417
12
-100.00000
22
666.40289
32
-61.64416
13
100.00000
23
666.40289
33
-61.64416
0
3DFACE
8
layer1
62
1
10
-98.17419
20
797.29523
30
55.22405
11
-298.17432
21
797.29523
31
55.22405
12
-298.17432
22
666.40289
32
55.22405
13
-98.17419
23
666.40289
33
55.22405
0
3DFACE
8
layer1
62
1
10
-298.17432
20
797.29523
30
-68.06429
11
-98.17419
21
797.29523
31
-68.06429
12
-98.17419
22
666.40289
32
-68.06429
13
-298.17432
23
666.40289
33
-68.06429
0
3DFACE
8
layer1
62
1
10
-98.17419
20
797.29523
30
-68.06429
11
-98.17419
21
797.29523
31
55.22405
12
-98.17419
22
666.40289
32
55.22405
13
-98.17419
23
666.40289
33
-68.06429
0
3DFACE
8
layer1
62
1
10
-98.17419
20
797.29523
30
-68.06429
11
-298.17432
21
797.29523
31
-68.06429
12
-298.17432
22
797.29523
32
55.22405
13
-98.17419
23
797.29523
33
55.22405
0
3DFACE
8
layer1
62
1
10
-98.17419
20
666.40289
30
55.22405
11
-298.17432
21
666.40289
31
55.22405
12
-298.17432
22
666.40289
32
-68.06429
13
-98.17419
23
666.40289
33
-68.06429
0
3DFACE
8
layer1
62
1
10
494.52823
20
797.29523
30
61.64417
11
294.52835
21
797.29523
31
61.64417
12
294.52835
22
666.40289
32
61.64417
13
494.52823
23
666.40289
33
61.64417
0
3DFACE
8
layer1
62
1
10
294.52835
20
797.29523
30
61.64417
11
294.52835
21
797.29523
31
-61.64416
12
294.52835
22
666.40289
32
-61.64416
13
294.52835
23
666.40289
33
61.64417
0
3DFACE
8
layer1
62
1
10
294.52835
20
797.29523
30
-61.64416
11
494.52823
21
797.29523
31
-61.64416
12
494.52823
22
666.40289
32
-61.64416
13
294.52835
23
666.40289
33
-61.64416
0
3DFACE
8
layer1
62
1
10
494.52823
20
797.29523
30
-61.64416
11
494.52823
21
797.29523
31
61.64417
12
494.52823
22
666.40289
32
61.64417
13
494.52823
23
666.40289
33
-61.64416
0
3DFACE
8
layer1
62
1
10
494.52823
20
797.29523
30
-61.64416
11
294.52835
21
797.29523
31
-61.64416
12
294.52835
22
797.29523
32
61.64417
13
494.52823
23
797.29523
33
61.64417
0
3DFACE
8
layer1
62
1
10
494.52823
20
666.40289
30
61.64417
11
294.52835
21
666.40289
31
61.64417
12
294.52835
22
666.40289
32
-61.64416
13
494.52823
23
666.40289
33
-61.64416
0
3DFACE
8
layer1
62
1
10
296.35416
20
797.29523
30
55.22405
11
96.35396
21
797.29523
31
55.22405
12
96.35396
22
666.40289
32
55.22405
13
296.35416
23
666.40289
33
55.22405
0
3DFACE
8
layer1
62
1
10
96.35396
20
797.29523
30
-68.06429
11
296.35416
21
797.29523
31
-68.06429
12
296.35416
22
666.40289
32
-68.06429
13
96.35396
23
666.40289
33
-68.06429
0
3DFACE
8
layer1
62
1
10
296.35416
20
797.29523
30
-68.06429
11
296.35416
21
797.29523
31
55.22405
12
296.35416
22
666.40289
32
55.22405
13
296.35416
23
666.40289
33
-68.06429
0
3DFACE
8
layer1
62
1
10
296.35416
20
797.29523
30
-68.06429
11
96.35396
21
797.29523
31
-68.06429
12
96.35396
22
797.29523
32
55.22405
13
296.35416
23
797.29523
33
55.22405
0
3DFACE
8
layer1
62
1
10
296.35416
20
666.40289
30
55.22405
11
96.35396
21
666.40289
31
55.22405
12
96.35396
22
666.40289
32
-68.06429
13
296.35416
23
666.40289
33
-68.06429
0
3DFACE
8
layer1
62
1
10
-295.43414
20
797.29523
30
61.64417
11
-495.43411
21
797.29523
31
61.64417
12
-495.43411
22
666.40289
32
61.64417
13
-295.43414
23
666.40289
33
61.64417
0
3DFACE
8
layer1
62
1
10
-495.43411
20
797.29523
30
61.64417
11
-495.43411
21
797.29523
31
-61.64416
12
-495.43411
22
666.40289
32
-61.64416
13
-495.43411
23
666.40289
33
61.64417
0
3DFACE
8
layer1
62
1
10
-495.43411
20
797.29523
30
-61.64416
11
-295.43414
21
797.29523
31
-61.64416
12
-295.43414
22
666.40289
32
-61.64416
13
-495.43411
23
666.40289
33
-61.64416
0
3DFACE
8
layer1
62
1
10
-295.43414
20
797.29523
30
-61.64416
11
-295.43414
21
797.29523
31
61.64417
12
-295.43414
22
666.40289
32
61.64417
13
-295.43414
23
666.40289
33
-61.64416
0
3DFACE
8
layer1
62
1
10
-295.43414
20
797.29523
30
-61.64416
11
-495.43411
21
797.29523
31
-61.64416
12
-495.43411
22
797.29523
32
61.64417
13
-295.43414
23
797.29523
33
61.64417
0
3DFACE
8
layer1
62
1
10
-295.43414
20
666.40289
30
61.64417
11
-495.43411
21
666.40289
31
61.64417
12
-495.43411
22
666.40289
32
-61.64416
13
-295.43414
23
666.40289
33
-61.64416
0
3DFACE
8
layer1
62
1
10
-493.60831
20
797.29523
30
55.22405
11
-693.60852
21
797.29523
31
55.22405
12
-693.60852
22
666.40289
32
55.22405
13
-493.60831
23
666.40289
33
55.22405
0
3DFACE
8
layer1
62
1
10
-693.60852
20
797.29523
30
-68.06429
11
-493.60831
21
797.29523
31
-68.06429
12
-493.60831
22
666.40289
32
-68.06429
13
-693.60852
23
666.40289
33
-68.06429
0
3DFACE
8
layer1
62
1
10
-493.60831
20
797.29523
30
-68.06429
11
-493.60831
21
797.29523
31
55.22405
12
-493.60831
22
666.40289
32
55.22405
13
-493.60831
23
666.40289
33
-68.06429
0
3DFACE
8
layer1
62
1
10
-493.60831
20
797.29523
30
-68.06429
11
-693.60852
21
797.29523
31
-68.06429
12
-693.60852
22
797.29523
32
55.22405
13
-493.60831
23
797.29523
33
55.22405
0
3DFACE
8
layer1
62
1
10
-493.60831
20
666.40289
30
55.22405
11
-693.60852
21
666.40289
31
55.22405
12
-693.60852
22
666.40289
32
-68.06429
13
-493.60831
23
666.40289
33
-68.06429
0
3DFACE
8
layer1
62
1
10
690.33948
20
797.29523
30
55.22405
11
490.33929
21
797.29523
31
55.22405
12
490.33929
22
666.40289
32
55.22405
13
690.33948
23
666.40289
33
55.22405
0
3DFACE
8
layer1
62
1
10
490.33929
20
797.29523
30
-68.06429
11
690.33948
21
797.29523
31
-68.06429
12
690.33948
22
666.40289
32
-68.06429
13
490.33929
23
666.40289
33
-68.06429
0
3DFACE
8
layer1
62
1
10
690.33948
20
797.29523
30
-68.06429
11
690.33948
21
797.29523
31
55.22405
12
690.33948
22
666.40289
32
55.22405
13
690.33948
23
666.40289
33
-68.06429
0
3DFACE
8
layer1
62
1
10
690.33948
20
797.29523
30
-68.06429
11
490.33929
21
797.29523
31
-68.06429
12
490.33929
22
797.29523
32
55.22405
13
690.33948
23
797.29523
33
55.22405
0
3DFACE
8
layer1
62
1
10
690.33948
20
666.40289
30
55.22405
11
490.33929
21
666.40289
31
55.22405
12
490.33929
22
666.40289
32
-68.06429
13
690.33948
23
666.40289
33
-68.06429
0
3DFACE
8
layer1
62
1
10
100.00000
20
906.76910
30
57.05172
11
-100.00000
21
906.76910
31
57.05172
12
-100.00000
22
775.87695
32
57.05172
13
100.00000
23
775.87695
33
57.05172
0
3DFACE
8
layer1
62
1
10
-100.00000
20
906.76910
30
57.05172
11
-100.00000
21
906.76910
31
-66.23660
12
-100.00000
22
775.87695
32
-66.23660
13
-100.00000
23
775.87695
33
57.05172
0
3DFACE
8
layer1
62
1
10
-100.00000
20
906.76910
30
-66.23660
11
100.00000
21
906.76910
31
-66.23660
12
100.00000
22
775.87695
32
-66.23660
13
-100.00000
23
775.87695
33
-66.23660
0
3DFACE
8
layer1
62
1
10
100.00000
20
906.76910
30
-66.23660
11
100.00000
21
906.76910
31
57.05172
12
100.00000
22
775.87695
32
57.05172
13
100.00000
23
775.87695
33
-66.23660
0
3DFACE
8
layer1
62
1
10
100.00000
20
906.76910
30
-66.23660
11
-100.00000
21
906.76910
31
-66.23660
12
-100.00000
22
906.76910
32
57.05172
13
100.00000
23
906.76910
33
57.05172
0
3DFACE
8
layer1
62
1
10
100.00000
20
775.87695
30
57.05172
11
-100.00000
21
775.87695
31
57.05172
12
-100.00000
22
775.87695
32
-66.23660
13
100.00000
23
775.87695
33
-66.23660
0
3DFACE
8
layer1
62
1
10
-98.17419
20
906.76910
30
50.63161
11
-298.17432
21
906.76910
31
50.63161
12
-298.17432
22
775.87695
32
50.63161
13
-98.17419
23
775.87695
33
50.63161
0
3DFACE
8
layer1
62
1
10
-298.17432
20
906.76910
30
-72.65672
11
-98.17419
21
906.76910
31
-72.65672
12
-98.17419
22
775.87695
32
-72.65672
13
-298.17432
23
775.87695
33
-72.65672
0
3DFACE
8
layer1
62
1
10
-98.17419
20
906.76910
30
-72.65672
11
-98.17419
21
906.76910
31
50.63161
12
-98.17419
22
775.87695
32
50.63161
13
-98.17419
23
775.87695
33
-72.65672
0
3DFACE
8
layer1
62
1
10
-98.17419
20
906.76910
30
-72.65672
11
-298.17432
21
906.76910
31
-72.65672
12
-298.17432
22
906.76910
32
50.63161
13
-98.17419
23
906.76910
33
50.63161
0
3DFACE
8
layer1
62
1
10
-98.17419
20
775.87695
30
50.63161
11
-298.17432
21
775.87695
31
50.63161
12
-298.17432
22
775.87695
32
-72.65672
13
-98.17419
23
775.87695
33
-72.65672
0
3DFACE
8
layer1
62
1
10
494.52823
20
906.76910
30
57.05172
11
294.52835
21
906.76910
31
57.05172
12
294.52835
22
775.87695
32
57.05172
13
494.52823
23
775.87695
33
57.05172
0
3DFACE
8
layer1
62
1
10
294.52835
20
906.76910
30
57.05172
11
294.52835
21
906.76910
31
-66.23660
12
294.52835
22
775.87695
32
-66.23660
13
294.52835
23
775.87695
33
57.05172
0
3DFACE
8
layer1
62
1
10
294.52835
20
906.76910
30
-66.23660
11
494.52823
21
906.76910
31
-66.23660
12
494.52823
22
775.87695
32
-66.23660
13
294.52835
23
775.87695
33
-66.23660
0
3DFACE
8
layer1
62
1
10
494.52823
20
906.76910
30
-66.23660
11
494.52823
21
906.76910
31
57.05172
12
494.52823
22
775.87695
32
57.05172
13
494.52823
23
775.87695
33
-66.23660
0
3DFACE
8
layer1
62
1
10
494.52823
20
906.76910
30
-66.23660
11
294.52835
21
906.76910
31
-66.23660
12
294.52835
22
906.76910
32
57.05172
13
494.52823
23
906.76910
33
57.05172
0
3DFACE
8
layer1
62
1
10
494.52823
20
775.87695
30
57.05172
11
294.52835
21
775.87695
31
57.05172
12
294.52835
22
775.87695
32
-66.23660
13
494.52823
23
775.87695
33
-66.23660
0
3DFACE
8
layer1
62
1
10
296.35416
20
906.76910
30
50.63161
11
96.35396
21
906.76910
31
50.63161
12
96.35396
22
775.87695
32
50.63161
13
296.35416
23
775.87695
33
50.63161
0
3DFACE
8
layer1
62
1
10
96.35396
20
906.76910
30
-72.65672
11
296.35416
21
906.76910
31
-72.65672
12
296.35416
22
775.87695
32
-72.65672
13
96.35396
23
775.87695
33
-72.65672
0
3DFACE
8
layer1
62
1
10
296.35416
20
906.76910
30
-72.65672
11
296.35416
21
906.76910
31
50.63161
12
296.35416
22
775.87695
32
50.63161
13
296.35416
23
775.87695
33
-72.65672
0
3DFACE
8
layer1
62
1
10
296.35416
20
906.76910
30
-72.65672
11
96.35396
21
906.76910
31
-72.65672
12
96.35396
22
906.76910
32
50.63161
13
296.35416
23
906.76910
33
50.63161
0
3DFACE
8
layer1
62
1
10
296.35416
20
775.87695
30
50.63161
11
96.35396
21
775.87695
31
50.63161
12
96.35396
22
775.87695
32
-72.65672
13
296.35416
23
775.87695
33
-72.65672
0
3DFACE
8
layer1
62
1
10
-295.43414
20
906.76910
30
57.05172
11
-495.43411
21
906.76910
31
57.05172
12
-495.43411
22
775.87695
32
57.05172
13
-295.43414
23
775.87695
33
57.05172
0
3DFACE
8
layer1
62
1
10
-495.43411
20
906.76910
30
57.05172
11
-495.43411
21
906.76910
31
-66.23660
12
-495.43411
22
775.87695
32
-66.23660
13
-495.43411
23
775.87695
33
57.05172
0
3DFACE
8
layer1
62
1
10
-495.43411
20
906.76910
30
-66.23660
11
-295.43414
21
906.76910
31
-66.23660
12
-295.43414
22
775.87695
32
-66.23660
13
-495.43411
23
775.87695
33
-66.23660
0
3DFACE
8
layer1
62
1
10
-295.43414
20
906.76910
30
-66.23660
11
-295.43414
21
906.76910
31
57.05172
12
-295.43414
22
775.87695
32
57.05172
13
-295.43414
23
775.87695
33
-66.23660
0
3DFACE
8
layer1
62
1
10
-295.43414
20
906.76910
30
-66.23660
11
-495.43411
21
906.76910
31
-66.23660
12
-495.43411
22
906.76910
32
57.05172
13
-295.43414
23
906.76910
33
57.05172
0
3DFACE
8
layer1
62
1
10
-295.43414
20
775.87695
30
57.05172
11
-495.43411
21
775.87695
31
57.05172
12
-495.43411
22
775.87695
32
-66.23660
13
-295.43414
23
775.87695
33
-66.23660
0
3DFACE
8
layer1
62
1
10
-493.60831
20
906.76910
30
50.63161
11
-693.60852
21
906.76910
31
50.63161
12
-693.60852
22
775.87695
32
50.63161
13
-493.60831
23
775.87695
33
50.63161
0
3DFACE
8
layer1
62
1
10
-693.60852
20
906.76910
30
-72.65672
11
-493.60831
21
906.76910
31
-72.65672
12
-493.60831
22
775.87695
32
-72.65672
13
-693.60852
23
775.87695
33
-72.65672
0
3DFACE
8
layer1
62
1
10
-493.60831
20
906.76910
30
-72.65672
11
-493.60831
21
906.76910
31
50.63161
12
-493.60831
22
775.87695
32
50.63161
13
-493.60831
23
775.87695
33
-72.65672
0
3DFACE
8
layer1
62
1
10
-493.60831
20
906.76910
30
-72.65672
11
-693.60852
21
906.76910
31
-72.65672
12
-693.60852
22
906.76910
32
50.63161
13
-493.60831
23
906.76910
33
50.63161
0
3DFACE
8
layer1
62
1
10
-493.60831
20
775.87695
30
50.63161
11
-693.60852
21
775.87695
31
50.63161
12
-693.60852
22
775.87695
32
-72.65672
13
-493.60831
23
775.87695
33
-72.65672
0
3DFACE
8
layer1
62
1
10
690.33948
20
906.76910
30
50.63161
11
490.33929
21
906.76910
31
50.63161
12
490.33929
22
775.87695
32
50.63161
13
690.33948
23
775.87695
33
50.63161
0
3DFACE
8
layer1
62
1
10
490.33929
20
906.76910
30
-72.65672
11
690.33948
21
906.76910
31
-72.65672
12
690.33948
22
775.87695
32
-72.65672
13
490.33929
23
775.87695
33
-72.65672
0
3DFACE
8
layer1
62
1
10
690.33948
20
906.76910
30
-72.65672
11
690.33948
21
906.76910
31
50.63161
12
690.33948
22
775.87695
32
50.63161
13
690.33948
23
775.87695
33
-72.65672
0
3DFACE
8
layer1
62
1
10
690.33948
20
906.76910
30
-72.65672
11
490.33929
21
906.76910
31
-72.65672
12
490.33929
22
906.76910
32
50.63161
13
690.33948
23
906.76910
33
50.63161
0
3DFACE
8
layer1
62
1
10
690.33948
20
775.87695
30
50.63161
11
490.33929
21
775.87695
31
50.63161
12
490.33929
22
775.87695
32
-72.65672
13
690.33948
23
775.87695
33
-72.65672
0
ENDSEC
0
EOF
