0
SECTION
2
ENTITIES
999
Created by Metasequoia
0
3DFACE
8
layer1
62
1
10
100.00000
20
184.85144
30
61.64417
11
-100.00000
21
184.85144
31
61.64417
12
-100.00000
22
-37.23273
32
61.64417
13
100.00000
23
-37.23273
33
61.64417
0
3DFACE
8
layer1
62
1
10
-100.00000
20
184.85144
30
61.64417
11
-100.00000
21
184.85144
31
-61.64416
12
-100.00000
22
-37.23273
32
-61.64416
13
-100.00000
23
-37.23273
33
61.64417
0
3DFACE
8
layer1
62
1
10
100.00000
20
184.85144
30
-61.64416
11
100.00000
21
184.85144
31
61.64417
12
100.00000
22
-37.23273
32
61.64417
13
100.00000
23
-37.23273
33
-61.64416
0
3DFACE
8
layer1
62
1
10
100.00000
20
184.85144
30
-61.64416
11
-100.00000
21
184.85144
31
-61.64416
12
-100.00000
22
184.85144
32
61.64417
13
100.00000
23
184.85144
33
61.64417
0
3DFACE
8
layer1
62
1
10
-98.17419
20
184.85144
30
55.22405
11
-298.17432
21
184.85144
31
55.22405
12
-298.17432
22
-37.23273
32
55.22405
13
-98.17419
23
-37.23273
33
55.22405
0
3DFACE
8
layer1
62
1
10
-98.17419
20
184.85144
30
-68.06429
11
-98.17419
21
184.85144
31
55.22405
12
-98.17419
22
-37.23273
32
55.22405
13
-98.17419
23
-37.23273
33
-68.06429
0
3DFACE
8
layer1
62
1
10
-98.17419
20
184.85144
30
-68.06429
11
-298.17432
21
184.85144
31
-68.06429
12
-298.17432
22
184.85144
32
55.22405
13
-98.17419
23
184.85144
33
55.22405
0
3DFACE
8
layer1
62
1
10
494.52823
20
184.85144
30
61.64417
11
294.52835
21
184.85144
31
61.64417
12
294.52835
22
-37.23273
32
61.64417
13
494.52823
23
-37.23273
33
61.64417
0
3DFACE
8
layer1
62
1
10
294.52835
20
184.85144
30
61.64417
11
294.52835
21
184.85144
31
-61.64416
12
294.52835
22
-37.23273
32
-61.64416
13
294.52835
23
-37.23273
33
61.64417
0
3DFACE
8
layer1
62
1
10
494.52823
20
184.85144
30
-61.64416
11
494.52823
21
184.85144
31
61.64417
12
494.52823
22
-37.23273
32
61.64417
13
494.52823
23
-37.23273
33
-61.64416
0
3DFACE
8
layer1
62
1
10
494.52823
20
184.85144
30
-61.64416
11
294.52835
21
184.85144
31
-61.64416
12
294.52835
22
184.85144
32
61.64417
13
494.52823
23
184.85144
33
61.64417
0
3DFACE
8
layer1
62
1
10
296.35416
20
184.85144
30
55.22405
11
96.35396
21
184.85144
31
55.22405
12
96.35396
22
-37.23273
32
55.22405
13
296.35416
23
-37.23273
33
55.22405
0
3DFACE
8
layer1
62
1
10
296.35416
20
184.85144
30
-68.06429
11
296.35416
21
184.85144
31
55.22405
12
296.35416
22
-37.23273
32
55.22405
13
296.35416
23
-37.23273
33
-68.06429
0
3DFACE
8
layer1
62
1
10
296.35416
20
184.85144
30
-68.06429
11
96.35396
21
184.85144
31
-68.06429
12
96.35396
22
184.85144
32
55.22405
13
296.35416
23
184.85144
33
55.22405
0
3DFACE
8
layer1
62
1
10
-295.43414
20
184.85144
30
61.64417
11
-495.43411
21
184.85144
31
61.64417
12
-495.43411
22
-37.23273
32
61.64417
13
-295.43414
23
-37.23273
33
61.64417
0
3DFACE
8
layer1
62
1
10
-495.43411
20
184.85144
30
61.64417
11
-495.43411
21
184.85144
31
-61.64416
12
-495.43411
22
-37.23273
32
-61.64416
13
-495.43411
23
-37.23273
33
61.64417
0
3DFACE
8
layer1
62
1
10
-295.43414
20
184.85144
30
-61.64416
11
-295.43414
21
184.85144
31
61.64417
12
-295.43414
22
-37.23273
32
61.64417
13
-295.43414
23
-37.23273
33
-61.64416
0
3DFACE
8
layer1
62
1
10
-295.43414
20
184.85144
30
-61.64416
11
-495.43411
21
184.85144
31
-61.64416
12
-495.43411
22
184.85144
32
61.64417
13
-295.43414
23
184.85144
33
61.64417
0
3DFACE
8
layer1
62
1
10
-493.60831
20
184.85144
30
55.22405
11
-693.60852
21
184.85144
31
55.22405
12
-693.60852
22
-37.23273
32
55.22405
13
-493.60831
23
-37.23273
33
55.22405
0
3DFACE
8
layer1
62
1
10
-493.60831
20
184.85144
30
-68.06429
11
-493.60831
21
184.85144
31
55.22405
12
-493.60831
22
-37.23273
32
55.22405
13
-493.60831
23
-37.23273
33
-68.06429
0
3DFACE
8
layer1
62
1
10
-493.60831
20
184.85144
30
-68.06429
11
-693.60852
21
184.85144
31
-68.06429
12
-693.60852
22
184.85144
32
55.22405
13
-493.60831
23
184.85144
33
55.22405
0
3DFACE
8
layer1
62
1
10
690.33948
20
184.85144
30
55.22405
11
490.33929
21
184.85144
31
55.22405
12
490.33929
22
-37.23273
32
55.22405
13
690.33948
23
-37.23273
33
55.22405
0
3DFACE
8
layer1
62
1
10
690.33948
20
184.85144
30
-68.06429
11
690.33948
21
184.85144
31
55.22405
12
690.33948
22
-37.23273
32
55.22405
13
690.33948
23
-37.23273
33
-68.06429
0
3DFACE
8
layer1
62
1
10
690.33948
20
184.85144
30
-68.06429
11
490.33929
21
184.85144
31
-68.06429
12
490.33929
22
184.85144
32
55.22405
13
690.33948
23
184.85144
33
55.22405
0
3DFACE
8
layer1
62
1
10
100.00000
20
370.59433
30
57.05172
11
-100.00000
21
370.59433
31
57.05172
12
-100.00000
22
148.51031
32
57.05172
13
100.00000
23
148.51031
33
57.05172
0
3DFACE
8
layer1
62
1
10
-100.00000
20
370.59433
30
57.05172
11
-100.00000
21
370.59433
31
-66.23660
12
-100.00000
22
148.51031
32
-66.23660
13
-100.00000
23
148.51031
33
57.05172
0
3DFACE
8
layer1
62
1
10
100.00000
20
370.59433
30
-66.23660
11
100.00000
21
370.59433
31
57.05172
12
100.00000
22
148.51031
32
57.05172
13
100.00000
23
148.51031
33
-66.23660
0
3DFACE
8
layer1
62
1
10
100.00000
20
370.59433
30
-66.23660
11
-100.00000
21
370.59433
31
-66.23660
12
-100.00000
22
370.59433
32
57.05172
13
100.00000
23
370.59433
33
57.05172
0
3DFACE
8
layer1
62
1
10
100.00000
20
148.51031
30
57.05172
11
-100.00000
21
148.51031
31
57.05172
12
-100.00000
22
148.51031
32
-66.23660
13
100.00000
23
148.51031
33
-66.23660
0
3DFACE
8
layer1
62
1
10
-98.17419
20
370.59433
30
50.63161
11
-298.17432
21
370.59433
31
50.63161
12
-298.17432
22
148.51031
32
50.63161
13
-98.17419
23
148.51031
33
50.63161
0
3DFACE
8
layer1
62
1
10
-98.17419
20
370.59433
30
-72.65672
11
-98.17419
21
370.59433
31
50.63161
12
-98.17419
22
148.51031
32
50.63161
13
-98.17419
23
148.51031
33
-72.65672
0
3DFACE
8
layer1
62
1
10
-98.17419
20
370.59433
30
-72.65672
11
-298.17432
21
370.59433
31
-72.65672
12
-298.17432
22
370.59433
32
50.63161
13
-98.17419
23
370.59433
33
50.63161
0
3DFACE
8
layer1
62
1
10
-98.17419
20
148.51031
30
50.63161
11
-298.17432
21
148.51031
31
50.63161
12
-298.17432
22
148.51031
32
-72.65672
13
-98.17419
23
148.51031
33
-72.65672
0
3DFACE
8
layer1
62
1
10
494.52823
20
370.59433
30
57.05172
11
294.52835
21
370.59433
31
57.05172
12
294.52835
22
148.51031
32
57.05172
13
494.52823
23
148.51031
33
57.05172
0
3DFACE
8
layer1
62
1
10
294.52835
20
370.59433
30
57.05172
11
294.52835
21
370.59433
31
-66.23660
12
294.52835
22
148.51031
32
-66.23660
13
294.52835
23
148.51031
33
57.05172
0
3DFACE
8
layer1
62
1
10
494.52823
20
370.59433
30
-66.23660
11
494.52823
21
370.59433
31
57.05172
12
494.52823
22
148.51031
32
57.05172
13
494.52823
23
148.51031
33
-66.23660
0
3DFACE
8
layer1
62
1
10
494.52823
20
370.59433
30
-66.23660
11
294.52835
21
370.59433
31
-66.23660
12
294.52835
22
370.59433
32
57.05172
13
494.52823
23
370.59433
33
57.05172
0
3DFACE
8
layer1
62
1
10
494.52823
20
148.51031
30
57.05172
11
294.52835
21
148.51031
31
57.05172
12
294.52835
22
148.51031
32
-66.23660
13
494.52823
23
148.51031
33
-66.23660
0
3DFACE
8
layer1
62
1
10
296.35416
20
370.59433
30
50.63161
11
96.35396
21
370.59433
31
50.63161
12
96.35396
22
148.51031
32
50.63161
13
296.35416
23
148.51031
33
50.63161
0
3DFACE
8
layer1
62
1
10
296.35416
20
370.59433
30
-72.65672
11
296.35416
21
370.59433
31
50.63161
12
296.35416
22
148.51031
32
50.63161
13
296.35416
23
148.51031
33
-72.65672
0
3DFACE
8
layer1
62
1
10
296.35416
20
370.59433
30
-72.65672
11
96.35396
21
370.59433
31
-72.65672
12
96.35396
22
370.59433
32
50.63161
13
296.35416
23
370.59433
33
50.63161
0
3DFACE
8
layer1
62
1
10
296.35416
20
148.51031
30
50.63161
11
96.35396
21
148.51031
31
50.63161
12
96.35396
22
148.51031
32
-72.65672
13
296.35416
23
148.51031
33
-72.65672
0
3DFACE
8
layer1
62
1
10
-295.43414
20
370.59433
30
57.05172
11
-495.43411
21
370.59433
31
57.05172
12
-495.43411
22
148.51031
32
57.05172
13
-295.43414
23
148.51031
33
57.05172
0
3DFACE
8
layer1
62
1
10
-495.43411
20
370.59433
30
57.05172
11
-495.43411
21
370.59433
31
-66.23660
12
-495.43411
22
148.51031
32
-66.23660
13
-495.43411
23
148.51031
33
57.05172
0
3DFACE
8
layer1
62
1
10
-295.43414
20
370.59433
30
-66.23660
11
-295.43414
21
370.59433
31
57.05172
12
-295.43414
22
148.51031
32
57.05172
13
-295.43414
23
148.51031
33
-66.23660
0
3DFACE
8
layer1
62
1
10
-295.43414
20
370.59433
30
-66.23660
11
-495.43411
21
370.59433
31
-66.23660
12
-495.43411
22
370.59433
32
57.05172
13
-295.43414
23
370.59433
33
57.05172
0
3DFACE
8
layer1
62
1
10
-295.43414
20
148.51031
30
57.05172
11
-495.43411
21
148.51031
31
57.05172
12
-495.43411
22
148.51031
32
-66.23660
13
-295.43414
23
148.51031
33
-66.23660
0
3DFACE
8
layer1
62
1
10
-493.60831
20
370.59433
30
50.63161
11
-693.60852
21
370.59433
31
50.63161
12
-693.60852
22
148.51031
32
50.63161
13
-493.60831
23
148.51031
33
50.63161
0
3DFACE
8
layer1
62
1
10
-493.60831
20
370.59433
30
-72.65672
11
-493.60831
21
370.59433
31
50.63161
12
-493.60831
22
148.51031
32
50.63161
13
-493.60831
23
148.51031
33
-72.65672
0
3DFACE
8
layer1
62
1
10
-493.60831
20
370.59433
30
-72.65672
11
-693.60852
21
370.59433
31
-72.65672
12
-693.60852
22
370.59433
32
50.63161
13
-493.60831
23
370.59433
33
50.63161
0
3DFACE
8
layer1
62
1
10
-493.60831
20
148.51031
30
50.63161
11
-693.60852
21
148.51031
31
50.63161
12
-693.60852
22
148.51031
32
-72.65672
13
-493.60831
23
148.51031
33
-72.65672
0
3DFACE
8
layer1
62
1
10
690.33948
20
370.59433
30
50.63161
11
490.33929
21
370.59433
31
50.63161
12
490.33929
22
148.51031
32
50.63161
13
690.33948
23
148.51031
33
50.63161
0
3DFACE
8
layer1
62
1
10
690.33948
20
370.59433
30
-72.65672
11
690.33948
21
370.59433
31
50.63161
12
690.33948
22
148.51031
32
50.63161
13
690.33948
23
148.51031
33
-72.65672
0
3DFACE
8
layer1
62
1
10
690.33948
20
370.59433
30
-72.65672
11
490.33929
21
370.59433
31
-72.65672
12
490.33929
22
370.59433
32
50.63161
13
690.33948
23
370.59433
33
50.63161
0
3DFACE
8
layer1
62
1
10
690.33948
20
148.51031
30
50.63161
11
490.33929
21
148.51031
31
50.63161
12
490.33929
22
148.51031
32
-72.65672
13
690.33948
23
148.51031
33
-72.65672
0
3DFACE
8
layer1
62
1
10
100.00000
20
575.59448
30
61.64417
11
-100.00000
21
575.59448
31
61.64417
12
-100.00000
22
353.51038
32
61.64417
13
100.00000
23
353.51038
33
61.64417
0
3DFACE
8
layer1
62
1
10
-100.00000
20
575.59448
30
61.64417
11
-100.00000
21
575.59448
31
-61.64416
12
-100.00000
22
353.51038
32
-61.64416
13
-100.00000
23
353.51038
33
61.64417
0
3DFACE
8
layer1
62
1
10
100.00000
20
575.59448
30
-61.64416
11
100.00000
21
575.59448
31
61.64417
12
100.00000
22
353.51038
32
61.64417
13
100.00000
23
353.51038
33
-61.64416
0
3DFACE
8
layer1
62
1
10
100.00000
20
575.59448
30
-61.64416
11
-100.00000
21
575.59448
31
-61.64416
12
-100.00000
22
575.59448
32
61.64417
13
100.00000
23
575.59448
33
61.64417
0
3DFACE
8
layer1
62
1
10
100.00000
20
353.51038
30
61.64417
11
-100.00000
21
353.51038
31
61.64417
12
-100.00000
22
353.51038
32
-61.64416
13
100.00000
23
353.51038
33
-61.64416
0
3DFACE
8
layer1
62
1
10
-98.17419
20
575.59448
30
55.22405
11
-298.17432
21
575.59448
31
55.22405
12
-298.17432
22
353.51038
32
55.22405
13
-98.17419
23
353.51038
33
55.22405
0
3DFACE
8
layer1
62
1
10
-98.17419
20
575.59448
30
-68.06429
11
-98.17419
21
575.59448
31
55.22405
12
-98.17419
22
353.51038
32
55.22405
13
-98.17419
23
353.51038
33
-68.06429
0
3DFACE
8
layer1
62
1
10
-98.17419
20
575.59448
30
-68.06429
11
-298.17432
21
575.59448
31
-68.06429
12
-298.17432
22
575.59448
32
55.22405
13
-98.17419
23
575.59448
33
55.22405
0
3DFACE
8
layer1
62
1
10
-98.17419
20
353.51038
30
55.22405
11
-298.17432
21
353.51038
31
55.22405
12
-298.17432
22
353.51038
32
-68.06429
13
-98.17419
23
353.51038
33
-68.06429
0
3DFACE
8
layer1
62
1
10
494.52823
20
575.59448
30
61.64417
11
294.52835
21
575.59448
31
61.64417
12
294.52835
22
353.51038
32
61.64417
13
494.52823
23
353.51038
33
61.64417
0
3DFACE
8
layer1
62
1
10
294.52835
20
575.59448
30
61.64417
11
294.52835
21
575.59448
31
-61.64416
12
294.52835
22
353.51038
32
-61.64416
13
294.52835
23
353.51038
33
61.64417
0
3DFACE
8
layer1
62
1
10
494.52823
20
575.59448
30
-61.64416
11
494.52823
21
575.59448
31
61.64417
12
494.52823
22
353.51038
32
61.64417
13
494.52823
23
353.51038
33
-61.64416
0
3DFACE
8
layer1
62
1
10
494.52823
20
575.59448
30
-61.64416
11
294.52835
21
575.59448
31
-61.64416
12
294.52835
22
575.59448
32
61.64417
13
494.52823
23
575.59448
33
61.64417
0
3DFACE
8
layer1
62
1
10
494.52823
20
353.51038
30
61.64417
11
294.52835
21
353.51038
31
61.64417
12
294.52835
22
353.51038
32
-61.64416
13
494.52823
23
353.51038
33
-61.64416
0
3DFACE
8
layer1
62
1
10
296.35416
20
575.59448
30
55.22405
11
96.35396
21
575.59448
31
55.22405
12
96.35396
22
353.51038
32
55.22405
13
296.35416
23
353.51038
33
55.22405
0
3DFACE
8
layer1
62
1
10
296.35416
20
575.59448
30
-68.06429
11
296.35416
21
575.59448
31
55.22405
12
296.35416
22
353.51038
32
55.22405
13
296.35416
23
353.51038
33
-68.06429
0
3DFACE
8
layer1
62
1
10
296.35416
20
575.59448
30
-68.06429
11
96.35396
21
575.59448
31
-68.06429
12
96.35396
22
575.59448
32
55.22405
13
296.35416
23
575.59448
33
55.22405
0
3DFACE
8
layer1
62
1
10
296.35416
20
353.51038
30
55.22405
11
96.35396
21
353.51038
31
55.22405
12
96.35396
22
353.51038
32
-68.06429
13
296.35416
23
353.51038
33
-68.06429
0
3DFACE
8
layer1
62
1
10
-295.43414
20
575.59448
30
61.64417
11
-495.43411
21
575.59448
31
61.64417
12
-495.43411
22
353.51038
32
61.64417
13
-295.43414
23
353.51038
33
61.64417
0
3DFACE
8
layer1
62
1
10
-495.43411
20
575.59448
30
61.64417
11
-495.43411
21
575.59448
31
-61.64416
12
-495.43411
22
353.51038
32
-61.64416
13
-495.43411
23
353.51038
33
61.64417
0
3DFACE
8
layer1
62
1
10
-295.43414
20
575.59448
30
-61.64416
11
-295.43414
21
575.59448
31
61.64417
12
-295.43414
22
353.51038
32
61.64417
13
-295.43414
23
353.51038
33
-61.64416
0
3DFACE
8
layer1
62
1
10
-295.43414
20
575.59448
30
-61.64416
11
-495.43411
21
575.59448
31
-61.64416
12
-495.43411
22
575.59448
32
61.64417
13
-295.43414
23
575.59448
33
61.64417
0
3DFACE
8
layer1
62
1
10
-295.43414
20
353.51038
30
61.64417
11
-495.43411
21
353.51038
31
61.64417
12
-495.43411
22
353.51038
32
-61.64416
13
-295.43414
23
353.51038
33
-61.64416
0
3DFACE
8
layer1
62
1
10
-493.60831
20
575.59448
30
55.22405
11
-693.60852
21
575.59448
31
55.22405
12
-693.60852
22
353.51038
32
55.22405
13
-493.60831
23
353.51038
33
55.22405
0
3DFACE
8
layer1
62
1
10
-493.60831
20
575.59448
30
-68.06429
11
-493.60831
21
575.59448
31
55.22405
12
-493.60831
22
353.51038
32
55.22405
13
-493.60831
23
353.51038
33
-68.06429
0
3DFACE
8
layer1
62
1
10
-493.60831
20
575.59448
30
-68.06429
11
-693.60852
21
575.59448
31
-68.06429
12
-693.60852
22
575.59448
32
55.22405
13
-493.60831
23
575.59448
33
55.22405
0
3DFACE
8
layer1
62
1
10
-493.60831
20
353.51038
30
55.22405
11
-693.60852
21
353.51038
31
55.22405
12
-693.60852
22
353.51038
32
-68.06429
13
-493.60831
23
353.51038
33
-68.06429
0
3DFACE
8
layer1
62
1
10
690.33948
20
575.59448
30
55.22405
11
490.33929
21
575.59448
31
55.22405
12
490.33929
22
353.51038
32
55.22405
13
690.33948
23
353.51038
33
55.22405
0
3DFACE
8
layer1
62
1
10
690.33948
20
575.59448
30
-68.06429
11
690.33948
21
575.59448
31
55.22405
12
690.33948
22
353.51038
32
55.22405
13
690.33948
23
353.51038
33
-68.06429
0
3DFACE
8
layer1
62
1
10
690.33948
20
575.59448
30
-68.06429
11
490.33929
21
575.59448
31
-68.06429
12
490.33929
22
575.59448
32
55.22405
13
690.33948
23
575.59448
33
55.22405
0
3DFACE
8
layer1
62
1
10
690.33948
20
353.51038
30
55.22405
11
490.33929
21
353.51038
31
55.22405
12
490.33929
22
353.51038
32
-68.06429
13
690.33948
23
353.51038
33
-68.06429
0
3DFACE
8
layer1
62
1
10
100.00000
20
761.33783
30
57.05172
11
-100.00000
21
761.33783
31
57.05172
12
-100.00000
22
539.25342
32
57.05172
13
100.00000
23
539.25342
33
57.05172
0
3DFACE
8
layer1
62
1
10
-100.00000
20
761.33783
30
57.05172
11
-100.00000
21
761.33783
31
-66.23660
12
-100.00000
22
539.25342
32
-66.23660
13
-100.00000
23
539.25342
33
57.05172
0
3DFACE
8
layer1
62
1
10
100.00000
20
761.33783
30
-66.23660
11
100.00000
21
761.33783
31
57.05172
12
100.00000
22
539.25342
32
57.05172
13
100.00000
23
539.25342
33
-66.23660
0
3DFACE
8
layer1
62
1
10
100.00000
20
761.33783
30
-66.23660
11
-100.00000
21
761.33783
31
-66.23660
12
-100.00000
22
761.33783
32
57.05172
13
100.00000
23
761.33783
33
57.05172
0
3DFACE
8
layer1
62
1
10
100.00000
20
539.25342
30
57.05172
11
-100.00000
21
539.25342
31
57.05172
12
-100.00000
22
539.25342
32
-66.23660
13
100.00000
23
539.25342
33
-66.23660
0
3DFACE
8
layer1
62
1
10
-98.17419
20
761.33783
30
50.63161
11
-298.17432
21
761.33783
31
50.63161
12
-298.17432
22
539.25342
32
50.63161
13
-98.17419
23
539.25342
33
50.63161
0
3DFACE
8
layer1
62
1
10
-98.17419
20
761.33783
30
-72.65672
11
-98.17419
21
761.33783
31
50.63161
12
-98.17419
22
539.25342
32
50.63161
13
-98.17419
23
539.25342
33
-72.65672
0
3DFACE
8
layer1
62
1
10
-98.17419
20
761.33783
30
-72.65672
11
-298.17432
21
761.33783
31
-72.65672
12
-298.17432
22
761.33783
32
50.63161
13
-98.17419
23
761.33783
33
50.63161
0
3DFACE
8
layer1
62
1
10
-98.17419
20
539.25342
30
50.63161
11
-298.17432
21
539.25342
31
50.63161
12
-298.17432
22
539.25342
32
-72.65672
13
-98.17419
23
539.25342
33
-72.65672
0
3DFACE
8
layer1
62
1
10
494.52823
20
761.33783
30
57.05172
11
294.52835
21
761.33783
31
57.05172
12
294.52835
22
539.25342
32
57.05172
13
494.52823
23
539.25342
33
57.05172
0
3DFACE
8
layer1
62
1
10
294.52835
20
761.33783
30
57.05172
11
294.52835
21
761.33783
31
-66.23660
12
294.52835
22
539.25342
32
-66.23660
13
294.52835
23
539.25342
33
57.05172
0
3DFACE
8
layer1
62
1
10
494.52823
20
761.33783
30
-66.23660
11
494.52823
21
761.33783
31
57.05172
12
494.52823
22
539.25342
32
57.05172
13
494.52823
23
539.25342
33
-66.23660
0
3DFACE
8
layer1
62
1
10
494.52823
20
761.33783
30
-66.23660
11
294.52835
21
761.33783
31
-66.23660
12
294.52835
22
761.33783
32
57.05172
13
494.52823
23
761.33783
33
57.05172
0
3DFACE
8
layer1
62
1
10
494.52823
20
539.25342
30
57.05172
11
294.52835
21
539.25342
31
57.05172
12
294.52835
22
539.25342
32
-66.23660
13
494.52823
23
539.25342
33
-66.23660
0
3DFACE
8
layer1
62
1
10
296.35416
20
761.33783
30
50.63161
11
96.35396
21
761.33783
31
50.63161
12
96.35396
22
539.25342
32
50.63161
13
296.35416
23
539.25342
33
50.63161
0
3DFACE
8
layer1
62
1
10
296.35416
20
761.33783
30
-72.65672
11
296.35416
21
761.33783
31
50.63161
12
296.35416
22
539.25342
32
50.63161
13
296.35416
23
539.25342
33
-72.65672
0
3DFACE
8
layer1
62
1
10
296.35416
20
761.33783
30
-72.65672
11
96.35396
21
761.33783
31
-72.65672
12
96.35396
22
761.33783
32
50.63161
13
296.35416
23
761.33783
33
50.63161
0
3DFACE
8
layer1
62
1
10
296.35416
20
539.25342
30
50.63161
11
96.35396
21
539.25342
31
50.63161
12
96.35396
22
539.25342
32
-72.65672
13
296.35416
23
539.25342
33
-72.65672
0
3DFACE
8
layer1
62
1
10
-295.43414
20
761.33783
30
57.05172
11
-495.43411
21
761.33783
31
57.05172
12
-495.43411
22
539.25342
32
57.05172
13
-295.43414
23
539.25342
33
57.05172
0
3DFACE
8
layer1
62
1
10
-495.43411
20
761.33783
30
57.05172
11
-495.43411
21
761.33783
31
-66.23660
12
-495.43411
22
539.25342
32
-66.23660
13
-495.43411
23
539.25342
33
57.05172
0
3DFACE
8
layer1
62
1
10
-295.43414
20
761.33783
30
-66.23660
11
-295.43414
21
761.33783
31
57.05172
12
-295.43414
22
539.25342
32
57.05172
13
-295.43414
23
539.25342
33
-66.23660
0
3DFACE
8
layer1
62
1
10
-295.43414
20
761.33783
30
-66.23660
11
-495.43411
21
761.33783
31
-66.23660
12
-495.43411
22
761.33783
32
57.05172
13
-295.43414
23
761.33783
33
57.05172
0
3DFACE
8
layer1
62
1
10
-295.43414
20
539.25342
30
57.05172
11
-495.43411
21
539.25342
31
57.05172
12
-495.43411
22
539.25342
32
-66.23660
13
-295.43414
23
539.25342
33
-66.23660
0
3DFACE
8
layer1
62
1
10
-493.60831
20
761.33783
30
50.63161
11
-693.60852
21
761.33783
31
50.63161
12
-693.60852
22
539.25342
32
50.63161
13
-493.60831
23
539.25342
33
50.63161
0
3DFACE
8
layer1
62
1
10
-493.60831
20
761.33783
30
-72.65672
11
-493.60831
21
761.33783
31
50.63161
12
-493.60831
22
539.25342
32
50.63161
13
-493.60831
23
539.25342
33
-72.65672
0
3DFACE
8
layer1
62
1
10
-493.60831
20
761.33783
30
-72.65672
11
-693.60852
21
761.33783
31
-72.65672
12
-693.60852
22
761.33783
32
50.63161
13
-493.60831
23
761.33783
33
50.63161
0
3DFACE
8
layer1
62
1
10
-493.60831
20
539.25342
30
50.63161
11
-693.60852
21
539.25342
31
50.63161
12
-693.60852
22
539.25342
32
-72.65672
13
-493.60831
23
539.25342
33
-72.65672
0
3DFACE
8
layer1
62
1
10
690.33948
20
761.33783
30
50.63161
11
490.33929
21
761.33783
31
50.63161
12
490.33929
22
539.25342
32
50.63161
13
690.33948
23
539.25342
33
50.63161
0
3DFACE
8
layer1
62
1
10
690.33948
20
761.33783
30
-72.65672
11
690.33948
21
761.33783
31
50.63161
12
690.33948
22
539.25342
32
50.63161
13
690.33948
23
539.25342
33
-72.65672
0
3DFACE
8
layer1
62
1
10
690.33948
20
761.33783
30
-72.65672
11
490.33929
21
761.33783
31
-72.65672
12
490.33929
22
761.33783
32
50.63161
13
690.33948
23
761.33783
33
50.63161
0
3DFACE
8
layer1
62
1
10
690.33948
20
539.25342
30
50.63161
11
490.33929
21
539.25342
31
50.63161
12
490.33929
22
539.25342
32
-72.65672
13
690.33948
23
539.25342
33
-72.65672
0
3DFACE
8
layer1
62
1
10
100.00000
20
962.32294
30
61.64417
11
-100.00000
21
962.32294
31
61.64417
12
-100.00000
22
740.23871
32
61.64417
13
100.00000
23
740.23871
33
61.64417
0
3DFACE
8
layer1
62
1
10
-100.00000
20
962.32294
30
61.64417
11
-100.00000
21
962.32294
31
-61.64416
12
-100.00000
22
740.23871
32
-61.64416
13
-100.00000
23
740.23871
33
61.64417
0
3DFACE
8
layer1
62
1
10
100.00000
20
962.32294
30
-61.64416
11
100.00000
21
962.32294
31
61.64417
12
100.00000
22
740.23871
32
61.64417
13
100.00000
23
740.23871
33
-61.64416
0
3DFACE
8
layer1
62
1
10
100.00000
20
962.32294
30
-61.64416
11
-100.00000
21
962.32294
31
-61.64416
12
-100.00000
22
962.32294
32
61.64417
13
100.00000
23
962.32294
33
61.64417
0
3DFACE
8
layer1
62
1
10
100.00000
20
740.23871
30
61.64417
11
-100.00000
21
740.23871
31
61.64417
12
-100.00000
22
740.23871
32
-61.64416
13
100.00000
23
740.23871
33
-61.64416
0
3DFACE
8
layer1
62
1
10
-98.17419
20
962.32294
30
55.22405
11
-298.17432
21
962.32294
31
55.22405
12
-298.17432
22
740.23871
32
55.22405
13
-98.17419
23
740.23871
33
55.22405
0
3DFACE
8
layer1
62
1
10
-98.17419
20
962.32294
30
-68.06429
11
-98.17419
21
962.32294
31
55.22405
12
-98.17419
22
740.23871
32
55.22405
13
-98.17419
23
740.23871
33
-68.06429
0
3DFACE
8
layer1
62
1
10
-98.17419
20
962.32294
30
-68.06429
11
-298.17432
21
962.32294
31
-68.06429
12
-298.17432
22
962.32294
32
55.22405
13
-98.17419
23
962.32294
33
55.22405
0
3DFACE
8
layer1
62
1
10
-98.17419
20
740.23871
30
55.22405
11
-298.17432
21
740.23871
31
55.22405
12
-298.17432
22
740.23871
32
-68.06429
13
-98.17419
23
740.23871
33
-68.06429
0
3DFACE
8
layer1
62
1
10
494.52823
20
962.32294
30
61.64417
11
294.52835
21
962.32294
31
61.64417
12
294.52835
22
740.23871
32
61.64417
13
494.52823
23
740.23871
33
61.64417
0
3DFACE
8
layer1
62
1
10
294.52835
20
962.32294
30
61.64417
11
294.52835
21
962.32294
31
-61.64416
12
294.52835
22
740.23871
32
-61.64416
13
294.52835
23
740.23871
33
61.64417
0
3DFACE
8
layer1
62
1
10
494.52823
20
962.32294
30
-61.64416
11
494.52823
21
962.32294
31
61.64417
12
494.52823
22
740.23871
32
61.64417
13
494.52823
23
740.23871
33
-61.64416
0
3DFACE
8
layer1
62
1
10
494.52823
20
962.32294
30
-61.64416
11
294.52835
21
962.32294
31
-61.64416
12
294.52835
22
962.32294
32
61.64417
13
494.52823
23
962.32294
33
61.64417
0
3DFACE
8
layer1
62
1
10
494.52823
20
740.23871
30
61.64417
11
294.52835
21
740.23871
31
61.64417
12
294.52835
22
740.23871
32
-61.64416
13
494.52823
23
740.23871
33
-61.64416
0
3DFACE
8
layer1
62
1
10
296.35416
20
962.32294
30
55.22405
11
96.35396
21
962.32294
31
55.22405
12
96.35396
22
740.23871
32
55.22405
13
296.35416
23
740.23871
33
55.22405
0
3DFACE
8
layer1
62
1
10
296.35416
20
962.32294
30
-68.06429
11
296.35416
21
962.32294
31
55.22405
12
296.35416
22
740.23871
32
55.22405
13
296.35416
23
740.23871
33
-68.06429
0
3DFACE
8
layer1
62
1
10
296.35416
20
962.32294
30
-68.06429
11
96.35396
21
962.32294
31
-68.06429
12
96.35396
22
962.32294
32
55.22405
13
296.35416
23
962.32294
33
55.22405
0
3DFACE
8
layer1
62
1
10
296.35416
20
740.23871
30
55.22405
11
96.35396
21
740.23871
31
55.22405
12
96.35396
22
740.23871
32
-68.06429
13
296.35416
23
740.23871
33
-68.06429
0
3DFACE
8
layer1
62
1
10
-295.43414
20
962.32294
30
61.64417
11
-495.43411
21
962.32294
31
61.64417
12
-495.43411
22
740.23871
32
61.64417
13
-295.43414
23
740.23871
33
61.64417
0
3DFACE
8
layer1
62
1
10
-495.43411
20
962.32294
30
61.64417
11
-495.43411
21
962.32294
31
-61.64416
12
-495.43411
22
740.23871
32
-61.64416
13
-495.43411
23
740.23871
33
61.64417
0
3DFACE
8
layer1
62
1
10
-295.43414
20
962.32294
30
-61.64416
11
-295.43414
21
962.32294
31
61.64417
12
-295.43414
22
740.23871
32
61.64417
13
-295.43414
23
740.23871
33
-61.64416
0
3DFACE
8
layer1
62
1
10
-295.43414
20
962.32294
30
-61.64416
11
-495.43411
21
962.32294
31
-61.64416
12
-495.43411
22
962.32294
32
61.64417
13
-295.43414
23
962.32294
33
61.64417
0
3DFACE
8
layer1
62
1
10
-295.43414
20
740.23871
30
61.64417
11
-495.43411
21
740.23871
31
61.64417
12
-495.43411
22
740.23871
32
-61.64416
13
-295.43414
23
740.23871
33
-61.64416
0
3DFACE
8
layer1
62
1
10
-493.60831
20
962.32294
30
55.22405
11
-693.60852
21
962.32294
31
55.22405
12
-693.60852
22
740.23871
32
55.22405
13
-493.60831
23
740.23871
33
55.22405
0
3DFACE
8
layer1
62
1
10
-493.60831
20
962.32294
30
-68.06429
11
-493.60831
21
962.32294
31
55.22405
12
-493.60831
22
740.23871
32
55.22405
13
-493.60831
23
740.23871
33
-68.06429
0
3DFACE
8
layer1
62
1
10
-493.60831
20
962.32294
30
-68.06429
11
-693.60852
21
962.32294
31
-68.06429
12
-693.60852
22
962.32294
32
55.22405
13
-493.60831
23
962.32294
33
55.22405
0
3DFACE
8
layer1
62
1
10
-493.60831
20
740.23871
30
55.22405
11
-693.60852
21
740.23871
31
55.22405
12
-693.60852
22
740.23871
32
-68.06429
13
-493.60831
23
740.23871
33
-68.06429
0
3DFACE
8
layer1
62
1
10
690.33948
20
962.32294
30
55.22405
11
490.33929
21
962.32294
31
55.22405
12
490.33929
22
740.23871
32
55.22405
13
690.33948
23
740.23871
33
55.22405
0
3DFACE
8
layer1
62
1
10
690.33948
20
962.32294
30
-68.06429
11
690.33948
21
962.32294
31
55.22405
12
690.33948
22
740.23871
32
55.22405
13
690.33948
23
740.23871
33
-68.06429
0
3DFACE
8
layer1
62
1
10
690.33948
20
962.32294
30
-68.06429
11
490.33929
21
962.32294
31
-68.06429
12
490.33929
22
962.32294
32
55.22405
13
690.33948
23
962.32294
33
55.22405
0
3DFACE
8
layer1
62
1
10
690.33948
20
740.23871
30
55.22405
11
490.33929
21
740.23871
31
55.22405
12
490.33929
22
740.23871
32
-68.06429
13
690.33948
23
740.23871
33
-68.06429
0
3DFACE
8
layer1
62
1
10
100.00000
20
1148.06506
30
57.05172
11
-100.00000
21
1148.06506
31
57.05172
12
-100.00000
22
925.98181
32
57.05172
13
100.00000
23
925.98181
33
57.05172
0
3DFACE
8
layer1
62
1
10
-100.00000
20
1148.06506
30
57.05172
11
-100.00000
21
1148.06506
31
-66.23660
12
-100.00000
22
925.98181
32
-66.23660
13
-100.00000
23
925.98181
33
57.05172
0
3DFACE
8
layer1
62
1
10
100.00000
20
1148.06506
30
-66.23660
11
100.00000
21
1148.06506
31
57.05172
12
100.00000
22
925.98181
32
57.05172
13
100.00000
23
925.98181
33
-66.23660
0
3DFACE
8
layer1
62
1
10
100.00000
20
1148.06506
30
-66.23660
11
-100.00000
21
1148.06506
31
-66.23660
12
-100.00000
22
1148.06506
32
57.05172
13
100.00000
23
1148.06506
33
57.05172
0
3DFACE
8
layer1
62
1
10
100.00000
20
925.98181
30
57.05172
11
-100.00000
21
925.98181
31
57.05172
12
-100.00000
22
925.98181
32
-66.23660
13
100.00000
23
925.98181
33
-66.23660
0
3DFACE
8
layer1
62
1
10
-98.17419
20
1148.06506
30
50.63161
11
-298.17432
21
1148.06506
31
50.63161
12
-298.17432
22
925.98181
32
50.63161
13
-98.17419
23
925.98181
33
50.63161
0
3DFACE
8
layer1
62
1
10
-98.17419
20
1148.06506
30
-72.65672
11
-98.17419
21
1148.06506
31
50.63161
12
-98.17419
22
925.98181
32
50.63161
13
-98.17419
23
925.98181
33
-72.65672
0
3DFACE
8
layer1
62
1
10
-98.17419
20
1148.06506
30
-72.65672
11
-298.17432
21
1148.06506
31
-72.65672
12
-298.17432
22
1148.06506
32
50.63161
13
-98.17419
23
1148.06506
33
50.63161
0
3DFACE
8
layer1
62
1
10
-98.17419
20
925.98181
30
50.63161
11
-298.17432
21
925.98181
31
50.63161
12
-298.17432
22
925.98181
32
-72.65672
13
-98.17419
23
925.98181
33
-72.65672
0
3DFACE
8
layer1
62
1
10
494.52823
20
1148.06506
30
57.05172
11
294.52835
21
1148.06506
31
57.05172
12
294.52835
22
925.98181
32
57.05172
13
494.52823
23
925.98181
33
57.05172
0
3DFACE
8
layer1
62
1
10
294.52835
20
1148.06506
30
57.05172
11
294.52835
21
1148.06506
31
-66.23660
12
294.52835
22
925.98181
32
-66.23660
13
294.52835
23
925.98181
33
57.05172
0
3DFACE
8
layer1
62
1
10
494.52823
20
1148.06506
30
-66.23660
11
494.52823
21
1148.06506
31
57.05172
12
494.52823
22
925.98181
32
57.05172
13
494.52823
23
925.98181
33
-66.23660
0
3DFACE
8
layer1
62
1
10
494.52823
20
1148.06506
30
-66.23660
11
294.52835
21
1148.06506
31
-66.23660
12
294.52835
22
1148.06506
32
57.05172
13
494.52823
23
1148.06506
33
57.05172
0
3DFACE
8
layer1
62
1
10
494.52823
20
925.98181
30
57.05172
11
294.52835
21
925.98181
31
57.05172
12
294.52835
22
925.98181
32
-66.23660
13
494.52823
23
925.98181
33
-66.23660
0
3DFACE
8
layer1
62
1
10
296.35416
20
1148.06506
30
50.63161
11
96.35396
21
1148.06506
31
50.63161
12
96.35396
22
925.98181
32
50.63161
13
296.35416
23
925.98181
33
50.63161
0
3DFACE
8
layer1
62
1
10
296.35416
20
1148.06506
30
-72.65672
11
296.35416
21
1148.06506
31
50.63161
12
296.35416
22
925.98181
32
50.63161
13
296.35416
23
925.98181
33
-72.65672
0
3DFACE
8
layer1
62
1
10
296.35416
20
1148.06506
30
-72.65672
11
96.35396
21
1148.06506
31
-72.65672
12
96.35396
22
1148.06506
32
50.63161
13
296.35416
23
1148.06506
33
50.63161
0
3DFACE
8
layer1
62
1
10
296.35416
20
925.98181
30
50.63161
11
96.35396
21
925.98181
31
50.63161
12
96.35396
22
925.98181
32
-72.65672
13
296.35416
23
925.98181
33
-72.65672
0
3DFACE
8
layer1
62
1
10
-295.43414
20
1148.06506
30
57.05172
11
-495.43411
21
1148.06506
31
57.05172
12
-495.43411
22
925.98181
32
57.05172
13
-295.43414
23
925.98181
33
57.05172
0
3DFACE
8
layer1
62
1
10
-495.43411
20
1148.06506
30
57.05172
11
-495.43411
21
1148.06506
31
-66.23660
12
-495.43411
22
925.98181
32
-66.23660
13
-495.43411
23
925.98181
33
57.05172
0
3DFACE
8
layer1
62
1
10
-295.43414
20
1148.06506
30
-66.23660
11
-295.43414
21
1148.06506
31
57.05172
12
-295.43414
22
925.98181
32
57.05172
13
-295.43414
23
925.98181
33
-66.23660
0
3DFACE
8
layer1
62
1
10
-295.43414
20
1148.06506
30
-66.23660
11
-495.43411
21
1148.06506
31
-66.23660
12
-495.43411
22
1148.06506
32
57.05172
13
-295.43414
23
1148.06506
33
57.05172
0
3DFACE
8
layer1
62
1
10
-295.43414
20
925.98181
30
57.05172
11
-495.43411
21
925.98181
31
57.05172
12
-495.43411
22
925.98181
32
-66.23660
13
-295.43414
23
925.98181
33
-66.23660
0
3DFACE
8
layer1
62
1
10
-493.60831
20
1148.06506
30
50.63161
11
-693.60852
21
1148.06506
31
50.63161
12
-693.60852
22
925.98181
32
50.63161
13
-493.60831
23
925.98181
33
50.63161
0
3DFACE
8
layer1
62
1
10
-493.60831
20
1148.06506
30
-72.65672
11
-493.60831
21
1148.06506
31
50.63161
12
-493.60831
22
925.98181
32
50.63161
13
-493.60831
23
925.98181
33
-72.65672
0
3DFACE
8
layer1
62
1
10
-493.60831
20
1148.06506
30
-72.65672
11
-693.60852
21
1148.06506
31
-72.65672
12
-693.60852
22
1148.06506
32
50.63161
13
-493.60831
23
1148.06506
33
50.63161
0
3DFACE
8
layer1
62
1
10
-493.60831
20
925.98181
30
50.63161
11
-693.60852
21
925.98181
31
50.63161
12
-693.60852
22
925.98181
32
-72.65672
13
-493.60831
23
925.98181
33
-72.65672
0
3DFACE
8
layer1
62
1
10
690.33948
20
1148.06506
30
50.63161
11
490.33929
21
1148.06506
31
50.63161
12
490.33929
22
925.98181
32
50.63161
13
690.33948
23
925.98181
33
50.63161
0
3DFACE
8
layer1
62
1
10
690.33948
20
1148.06506
30
-72.65672
11
690.33948
21
1148.06506
31
50.63161
12
690.33948
22
925.98181
32
50.63161
13
690.33948
23
925.98181
33
-72.65672
0
3DFACE
8
layer1
62
1
10
690.33948
20
1148.06506
30
-72.65672
11
490.33929
21
1148.06506
31
-72.65672
12
490.33929
22
1148.06506
32
50.63161
13
690.33948
23
1148.06506
33
50.63161
0
3DFACE
8
layer1
62
1
10
690.33948
20
925.98181
30
50.63161
11
490.33929
21
925.98181
31
50.63161
12
490.33929
22
925.98181
32
-72.65672
13
690.33948
23
925.98181
33
-72.65672
0
3DFACE
8
layer1
62
1
10
100.00000
20
1338.85803
30
61.64417
11
-100.00000
21
1338.85803
31
61.64417
12
-100.00000
22
1116.77454
32
61.64417
13
100.00000
23
1116.77454
33
61.64417
0
3DFACE
8
layer1
62
1
10
-100.00000
20
1338.85803
30
61.64417
11
-100.00000
21
1338.85803
31
-61.64416
12
-100.00000
22
1116.77454
32
-61.64416
13
-100.00000
23
1116.77454
33
61.64417
0
3DFACE
8
layer1
62
1
10
100.00000
20
1338.85803
30
-61.64416
11
100.00000
21
1338.85803
31
61.64417
12
100.00000
22
1116.77454
32
61.64417
13
100.00000
23
1116.77454
33
-61.64416
0
3DFACE
8
layer1
62
1
10
100.00000
20
1338.85803
30
-61.64416
11
-100.00000
21
1338.85803
31
-61.64416
12
-100.00000
22
1338.85803
32
61.64417
13
100.00000
23
1338.85803
33
61.64417
0
3DFACE
8
layer1
62
1
10
100.00000
20
1116.77454
30
61.64417
11
-100.00000
21
1116.77454
31
61.64417
12
-100.00000
22
1116.77454
32
-61.64416
13
100.00000
23
1116.77454
33
-61.64416
0
3DFACE
8
layer1
62
1
10
-98.17419
20
1338.85803
30
55.22405
11
-298.17432
21
1338.85803
31
55.22405
12
-298.17432
22
1116.77454
32
55.22405
13
-98.17419
23
1116.77454
33
55.22405
0
3DFACE
8
layer1
62
1
10
-98.17419
20
1338.85803
30
-68.06429
11
-98.17419
21
1338.85803
31
55.22405
12
-98.17419
22
1116.77454
32
55.22405
13
-98.17419
23
1116.77454
33
-68.06429
0
3DFACE
8
layer1
62
1
10
-98.17419
20
1338.85803
30
-68.06429
11
-298.17432
21
1338.85803
31
-68.06429
12
-298.17432
22
1338.85803
32
55.22405
13
-98.17419
23
1338.85803
33
55.22405
0
3DFACE
8
layer1
62
1
10
-98.17419
20
1116.77454
30
55.22405
11
-298.17432
21
1116.77454
31
55.22405
12
-298.17432
22
1116.77454
32
-68.06429
13
-98.17419
23
1116.77454
33
-68.06429
0
3DFACE
8
layer1
62
1
10
494.52823
20
1338.85803
30
61.64417
11
294.52835
21
1338.85803
31
61.64417
12
294.52835
22
1116.77454
32
61.64417
13
494.52823
23
1116.77454
33
61.64417
0
3DFACE
8
layer1
62
1
10
294.52835
20
1338.85803
30
61.64417
11
294.52835
21
1338.85803
31
-61.64416
12
294.52835
22
1116.77454
32
-61.64416
13
294.52835
23
1116.77454
33
61.64417
0
3DFACE
8
layer1
62
1
10
494.52823
20
1338.85803
30
-61.64416
11
494.52823
21
1338.85803
31
61.64417
12
494.52823
22
1116.77454
32
61.64417
13
494.52823
23
1116.77454
33
-61.64416
0
3DFACE
8
layer1
62
1
10
494.52823
20
1338.85803
30
-61.64416
11
294.52835
21
1338.85803
31
-61.64416
12
294.52835
22
1338.85803
32
61.64417
13
494.52823
23
1338.85803
33
61.64417
0
3DFACE
8
layer1
62
1
10
494.52823
20
1116.77454
30
61.64417
11
294.52835
21
1116.77454
31
61.64417
12
294.52835
22
1116.77454
32
-61.64416
13
494.52823
23
1116.77454
33
-61.64416
0
3DFACE
8
layer1
62
1
10
296.35416
20
1338.85803
30
55.22405
11
96.35396
21
1338.85803
31
55.22405
12
96.35396
22
1116.77454
32
55.22405
13
296.35416
23
1116.77454
33
55.22405
0
3DFACE
8
layer1
62
1
10
296.35416
20
1338.85803
30
-68.06429
11
296.35416
21
1338.85803
31
55.22405
12
296.35416
22
1116.77454
32
55.22405
13
296.35416
23
1116.77454
33
-68.06429
0
3DFACE
8
layer1
62
1
10
296.35416
20
1338.85803
30
-68.06429
11
96.35396
21
1338.85803
31
-68.06429
12
96.35396
22
1338.85803
32
55.22405
13
296.35416
23
1338.85803
33
55.22405
0
3DFACE
8
layer1
62
1
10
296.35416
20
1116.77454
30
55.22405
11
96.35396
21
1116.77454
31
55.22405
12
96.35396
22
1116.77454
32
-68.06429
13
296.35416
23
1116.77454
33
-68.06429
0
3DFACE
8
layer1
62
1
10
-295.43414
20
1338.85803
30
61.64417
11
-495.43411
21
1338.85803
31
61.64417
12
-495.43411
22
1116.77454
32
61.64417
13
-295.43414
23
1116.77454
33
61.64417
0
3DFACE
8
layer1
62
1
10
-495.43411
20
1338.85803
30
61.64417
11
-495.43411
21
1338.85803
31
-61.64416
12
-495.43411
22
1116.77454
32
-61.64416
13
-495.43411
23
1116.77454
33
61.64417
0
3DFACE
8
layer1
62
1
10
-295.43414
20
1338.85803
30
-61.64416
11
-295.43414
21
1338.85803
31
61.64417
12
-295.43414
22
1116.77454
32
61.64417
13
-295.43414
23
1116.77454
33
-61.64416
0
3DFACE
8
layer1
62
1
10
-295.43414
20
1338.85803
30
-61.64416
11
-495.43411
21
1338.85803
31
-61.64416
12
-495.43411
22
1338.85803
32
61.64417
13
-295.43414
23
1338.85803
33
61.64417
0
3DFACE
8
layer1
62
1
10
-295.43414
20
1116.77454
30
61.64417
11
-495.43411
21
1116.77454
31
61.64417
12
-495.43411
22
1116.77454
32
-61.64416
13
-295.43414
23
1116.77454
33
-61.64416
0
3DFACE
8
layer1
62
1
10
-493.60831
20
1338.85803
30
55.22405
11
-693.60852
21
1338.85803
31
55.22405
12
-693.60852
22
1116.77454
32
55.22405
13
-493.60831
23
1116.77454
33
55.22405
0
3DFACE
8
layer1
62
1
10
-493.60831
20
1338.85803
30
-68.06429
11
-493.60831
21
1338.85803
31
55.22405
12
-493.60831
22
1116.77454
32
55.22405
13
-493.60831
23
1116.77454
33
-68.06429
0
3DFACE
8
layer1
62
1
10
-493.60831
20
1338.85803
30
-68.06429
11
-693.60852
21
1338.85803
31
-68.06429
12
-693.60852
22
1338.85803
32
55.22405
13
-493.60831
23
1338.85803
33
55.22405
0
3DFACE
8
layer1
62
1
10
-493.60831
20
1116.77454
30
55.22405
11
-693.60852
21
1116.77454
31
55.22405
12
-693.60852
22
1116.77454
32
-68.06429
13
-493.60831
23
1116.77454
33
-68.06429
0
3DFACE
8
layer1
62
1
10
690.33948
20
1338.85803
30
55.22405
11
490.33929
21
1338.85803
31
55.22405
12
490.33929
22
1116.77454
32
55.22405
13
690.33948
23
1116.77454
33
55.22405
0
3DFACE
8
layer1
62
1
10
690.33948
20
1338.85803
30
-68.06429
11
690.33948
21
1338.85803
31
55.22405
12
690.33948
22
1116.77454
32
55.22405
13
690.33948
23
1116.77454
33
-68.06429
0
3DFACE
8
layer1
62
1
10
690.33948
20
1338.85803
30
-68.06429
11
490.33929
21
1338.85803
31
-68.06429
12
490.33929
22
1338.85803
32
55.22405
13
690.33948
23
1338.85803
33
55.22405
0
3DFACE
8
layer1
62
1
10
690.33948
20
1116.77454
30
55.22405
11
490.33929
21
1116.77454
31
55.22405
12
490.33929
22
1116.77454
32
-68.06429
13
690.33948
23
1116.77454
33
-68.06429
0
3DFACE
8
layer1
62
1
10
100.00000
20
1302.51819
30
57.05172
11
-100.00000
21
1302.51819
31
57.05172
12
-100.00000
22
1302.51819
32
-66.23660
13
100.00000
23
1302.51819
33
-66.23660
0
3DFACE
8
layer1
62
1
10
-98.17419
20
1302.51819
30
50.63161
11
-298.17432
21
1302.51819
31
50.63161
12
-298.17432
22
1302.51819
32
-72.65672
13
-98.17419
23
1302.51819
33
-72.65672
0
3DFACE
8
layer1
62
1
10
494.52823
20
1302.51819
30
57.05172
11
294.52835
21
1302.51819
31
57.05172
12
294.52835
22
1302.51819
32
-66.23660
13
494.52823
23
1302.51819
33
-66.23660
0
3DFACE
8
layer1
62
1
10
296.35416
20
1302.51819
30
50.63161
11
96.35396
21
1302.51819
31
50.63161
12
96.35396
22
1302.51819
32
-72.65672
13
296.35416
23
1302.51819
33
-72.65672
0
3DFACE
8
layer1
62
1
10
-295.43414
20
1302.51819
30
57.05172
11
-495.43411
21
1302.51819
31
57.05172
12
-495.43411
22
1302.51819
32
-66.23660
13
-295.43414
23
1302.51819
33
-66.23660
0
3DFACE
8
layer1
62
1
10
-493.60831
20
1302.51819
30
50.63161
11
-693.60852
21
1302.51819
31
50.63161
12
-693.60852
22
1302.51819
32
-72.65672
13
-493.60831
23
1302.51819
33
-72.65672
0
3DFACE
8
layer1
62
1
10
690.33948
20
1302.51819
30
50.63161
11
490.33929
21
1302.51819
31
50.63161
12
490.33929
22
1302.51819
32
-72.65672
13
690.33948
23
1302.51819
33
-72.65672
0
ENDSEC
0
EOF
