0
SECTION
2
ENTITIES
999
Created by Metasequoia
0
3DFACE
8
layer1
62
1
10
460.26505
20
750.32837
30
82.74915
11
409.61044
21
750.32837
31
82.74915
12
409.61044
22
-33.62777
32
82.74915
13
460.26505
23
-33.62777
33
82.74915
0
3DFACE
8
layer1
62
1
10
409.61044
20
750.32837
30
82.74915
11
409.61044
21
750.32837
31
-2.06479
12
409.61044
22
-33.62777
32
-2.06479
13
409.61044
23
-33.62777
33
82.74915
0
3DFACE
8
layer1
62
1
10
460.26505
20
750.32837
30
-2.06479
11
460.26505
21
750.32837
31
82.74915
12
460.26505
22
-33.62777
32
82.74915
13
460.26505
23
-33.62777
33
-2.06479
0
3DFACE
8
layer1
62
1
10
-460.26505
20
750.32837
30
82.74915
11
-460.26505
21
-33.62777
31
82.74915
12
-409.61044
22
-33.62777
32
82.74915
13
-409.61044
23
750.32837
33
82.74915
0
3DFACE
8
layer1
62
1
10
-409.61044
20
750.32837
30
82.74915
11
-409.61044
21
-33.62777
31
82.74915
12
-409.61044
22
-33.62777
32
-2.06479
13
-409.61044
23
750.32837
33
-2.06479
0
3DFACE
8
layer1
62
1
10
-460.26505
20
750.32837
30
-2.06479
11
-460.26505
21
-33.62777
31
-2.06479
12
-460.26505
22
-33.62777
32
82.74915
13
-460.26505
23
750.32837
33
82.74915
0
3DFACE
8
layer1
62
1
10
350.86212
20
962.98138
30
82.74915
11
300.20752
21
962.98138
31
82.74915
12
409.61044
22
750.22925
32
82.74915
13
460.26505
23
750.22925
33
82.74915
0
3DFACE
8
layer1
62
1
10
300.20752
20
962.98138
30
82.74915
11
300.20752
21
962.98138
31
-2.06479
12
409.61044
22
750.22925
32
-2.06479
13
409.61044
23
750.22925
33
82.74915
0
3DFACE
8
layer1
62
1
10
350.86212
20
962.98138
30
-2.06479
11
350.86212
21
962.98138
31
82.74915
12
460.26505
22
750.22925
32
82.74915
13
460.26505
23
750.22925
33
-2.06479
0
3DFACE
8
layer1
62
1
10
-350.86212
20
962.98138
30
82.74915
11
-460.26505
21
750.22925
31
82.74915
12
-409.61044
22
750.22925
32
82.74915
13
-300.20752
23
962.98138
33
82.74915
0
3DFACE
8
layer1
62
1
10
-300.20752
20
962.98138
30
82.74915
11
-409.61044
21
750.22925
31
82.74915
12
-409.61044
22
750.22925
32
-2.06479
13
-300.20752
23
962.98138
33
-2.06479
0
3DFACE
8
layer1
62
1
10
-350.86212
20
962.98138
30
-2.06479
11
-460.26505
21
750.22925
31
-2.06479
12
-460.26505
22
750.22925
32
82.74915
13
-350.86212
23
962.98138
33
82.74915
0
3DFACE
8
layer1
62
1
10
219.98424
20
1119.04126
30
82.74915
11
208.45938
21
1070.47156
31
82.74915
12
301.00732
22
961.62268
32
82.74915
13
351.66193
23
961.62268
33
82.74915
0
3DFACE
8
layer1
62
1
10
208.45938
20
1070.47156
30
82.74915
11
208.45938
21
1070.47156
31
-2.06479
12
301.00732
22
961.62268
32
-2.06479
13
301.00732
23
961.62268
33
82.74915
0
3DFACE
8
layer1
62
1
10
219.98424
20
1119.04126
30
-2.06479
11
219.98424
21
1119.04126
31
82.74915
12
351.66193
22
961.62268
32
82.74915
13
351.66193
23
961.62268
33
-2.06479
0
3DFACE
8
layer1
62
1
10
-0.09153
20
1163.47656
30
82.74915
11
-0.09153
21
1163.47656
31
-2.06479
12
208.45938
22
1070.47156
32
-2.06479
13
208.45938
23
1070.47156
33
82.74915
0
3DFACE
8
layer1
62
1
10
-0.01974
20
1212.04626
30
82.74915
11
-0.09153
21
1163.47656
31
82.74915
12
208.45938
22
1070.47156
32
82.74915
13
219.98424
23
1119.04126
33
82.74915
0
3DFACE
8
layer1
62
1
10
-0.01974
20
1212.04626
30
-2.06479
11
-0.01974
21
1212.04626
31
82.74915
12
219.98424
22
1119.04126
32
82.74915
13
219.98424
23
1119.04126
33
-2.06479
0
3DFACE
8
layer1
62
1
10
-219.98424
20
1119.04126
30
82.74915
11
-351.66193
21
961.62268
31
82.74915
12
-301.00732
22
961.62268
32
82.74915
13
-208.45938
23
1070.47156
33
82.74915
0
3DFACE
8
layer1
62
1
10
-208.45938
20
1070.47156
30
82.74915
11
-301.00732
21
961.62268
31
82.74915
12
-301.00732
22
961.62268
32
-2.06479
13
-208.45938
23
1070.47156
33
-2.06479
0
3DFACE
8
layer1
62
1
10
-219.98424
20
1119.04126
30
-2.06479
11
-351.66193
21
961.62268
31
-2.06479
12
-351.66193
22
961.62268
32
82.74915
13
-219.98424
23
1119.04126
33
82.74915
0
3DFACE
8
layer1
62
1
10
0.09791
20
1163.47656
30
82.74915
11
-208.45938
21
1070.47156
31
82.74915
12
-208.45938
22
1070.47156
32
-2.06479
13
0.09791
23
1163.47656
33
-2.06479
0
3DFACE
8
layer1
62
1
10
0.02612
20
1212.04626
30
82.74915
11
-219.98424
21
1119.04126
31
82.74915
12
-208.45938
22
1070.47156
32
82.74915
13
0.09791
23
1163.47656
33
82.74915
0
3DFACE
8
layer1
62
1
10
0.02612
20
1212.04626
30
-2.06479
11
-219.98424
21
1119.04126
31
-2.06479
12
-219.98424
22
1119.04126
32
82.74915
13
0.02612
23
1212.04626
33
82.74915
0
3DFACE
8
layer1
62
1
10
0.02612
20
1212.04626
30
-2.06479
11
0.02612
21
1212.04626
31
82.74915
12
0.09791
22
1163.47656
32
82.74915
13
0.09791
23
1163.47656
33
-2.06479
0
3DFACE
8
layer1
62
1
10
17.19412
20
1164.21826
30
18.52983
11
-17.19412
21
1164.21826
31
18.52983
12
-17.19412
22
-100.00000
32
18.52983
13
17.19412
23
-100.00000
33
18.52983
0
3DFACE
8
layer1
62
1
10
-17.19412
20
1164.21826
30
18.52983
11
-17.19412
21
1164.21826
31
-18.52983
12
-17.19412
22
-100.00000
32
-18.52983
13
-17.19412
23
-100.00000
33
18.52983
0
3DFACE
8
layer1
62
1
10
17.19412
20
1164.21826
30
-18.52983
11
17.19412
21
1164.21826
31
18.52983
12
17.19412
22
-100.00000
32
18.52983
13
17.19412
23
-100.00000
33
-18.52983
0
3DFACE
8
layer1
62
1
10
-500.01947
20
549.30322
30
18.52983
11
-500.01947
21
514.91498
31
18.52983
12
500.01947
22
514.91504
32
18.52983
13
500.01947
23
549.30328
33
18.52983
0
3DFACE
8
layer1
62
1
10
-500.01947
20
514.91498
30
18.52983
11
-500.01947
21
514.91498
31
-18.52983
12
500.01947
22
514.91504
32
-18.52983
13
500.01947
23
514.91504
33
18.52983
0
3DFACE
8
layer1
62
1
10
-500.01947
20
549.30322
30
-18.52983
11
-500.01947
21
549.30322
31
18.52983
12
500.01947
22
549.30328
32
18.52983
13
500.01947
23
549.30328
33
-18.52983
0
3DFACE
8
layer1
62
1
10
439.54431
20
746.46155
30
18.52983
11
423.13544
21
776.68225
31
18.52983
12
-1.16242
22
559.14075
32
18.52983
13
15.24638
23
528.92004
33
18.52983
0
3DFACE
8
layer1
62
1
10
423.13544
20
776.68225
30
18.52983
11
423.13544
21
776.68225
31
-18.52983
12
-1.16242
22
559.14075
32
-18.52983
13
-1.16242
23
559.14075
33
18.52983
0
3DFACE
8
layer1
62
1
10
439.54431
20
746.46155
30
-18.52983
11
439.54431
21
746.46155
31
18.52983
12
15.24638
22
528.92004
32
18.52983
13
15.24638
23
528.92004
33
-18.52983
0
3DFACE
8
layer1
62
1
10
-439.54431
20
746.46155
30
18.52983
11
-15.24638
21
528.92004
31
18.52983
12
1.16242
22
559.14075
32
18.52983
13
-423.13544
23
776.68225
33
18.52983
0
3DFACE
8
layer1
62
1
10
-423.13544
20
776.68225
30
18.52983
11
1.16242
21
559.14075
31
18.52983
12
1.16242
22
559.14075
32
-18.52983
13
-423.13544
23
776.68225
33
-18.52983
0
3DFACE
8
layer1
62
1
10
-439.54431
20
746.46155
30
-18.52983
11
-15.24638
21
528.92004
31
-18.52983
12
-15.24638
22
528.92004
32
18.52983
13
-439.54431
23
746.46155
33
18.52983
0
3DFACE
8
layer1
62
1
10
323.29260
20
955.16046
30
18.52983
11
295.82886
21
975.85596
31
18.52983
12
-7.45963
22
583.49701
32
18.52983
13
20.00397
23
562.80151
33
18.52983
0
3DFACE
8
layer1
62
1
10
295.82886
20
975.85596
30
18.52983
11
295.82886
21
975.85596
31
-18.52983
12
-7.45963
22
583.49701
32
-18.52983
13
-7.45963
23
583.49701
33
18.52983
0
3DFACE
8
layer1
62
1
10
323.29260
20
955.16046
30
-18.52983
11
323.29260
21
955.16046
31
18.52983
12
20.00397
22
562.80151
32
18.52983
13
20.00397
23
562.80151
33
-18.52983
0
3DFACE
8
layer1
62
1
10
-323.29260
20
955.16046
30
18.52983
11
-20.00397
21
562.80151
31
18.52983
12
7.45963
22
583.49701
32
18.52983
13
-295.82886
23
975.85596
33
18.52983
0
3DFACE
8
layer1
62
1
10
-295.82886
20
975.85596
30
18.52983
11
7.45963
21
583.49701
31
18.52983
12
7.45963
22
583.49701
32
-18.52983
13
-295.82886
23
975.85596
33
-18.52983
0
3DFACE
8
layer1
62
1
10
-323.29260
20
955.16046
30
-18.52983
11
-20.00397
21
562.80151
31
-18.52983
12
-20.00397
22
562.80151
32
18.52983
13
-323.29260
23
955.16046
33
18.52983
0
3DFACE
8
layer1
62
1
10
225.84752
20
1066.38843
30
18.52983
11
195.20714
21
1082.00000
31
18.52983
12
-16.41263
22
558.65662
32
18.52983
13
14.22768
23
543.04504
33
18.52983
0
3DFACE
8
layer1
62
1
10
195.20714
20
1082.00000
30
18.52983
11
195.20714
21
1082.00000
31
-18.52983
12
-16.41263
22
558.65662
32
-18.52983
13
-16.41263
23
558.65662
33
18.52983
0
3DFACE
8
layer1
62
1
10
225.84752
20
1066.38843
30
-18.52983
11
225.84752
21
1066.38843
31
18.52983
12
14.22768
22
543.04504
32
18.52983
13
14.22768
23
543.04504
33
-18.52983
0
3DFACE
8
layer1
62
1
10
-225.84752
20
1066.38843
30
18.52983
11
-14.22768
21
543.04504
31
18.52983
12
16.41263
22
558.65662
32
18.52983
13
-195.20714
23
1082.00000
33
18.52983
0
3DFACE
8
layer1
62
1
10
-195.20714
20
1082.00000
30
18.52983
11
16.41263
21
558.65662
31
18.52983
12
16.41263
22
558.65662
32
-18.52983
13
-195.20714
23
1082.00000
33
-18.52983
0
3DFACE
8
layer1
62
1
10
-225.84752
20
1066.38843
30
-18.52983
11
-14.22768
21
543.04504
31
-18.52983
12
-14.22768
22
543.04504
32
18.52983
13
-225.84752
23
1066.38843
33
18.52983
0
3DFACE
8
layer1
62
1
10
330.25525
20
539.11493
30
18.52983
11
295.86700
21
539.11493
31
18.52983
12
295.86700
22
-100.13550
32
18.52983
13
330.25525
23
-100.13550
33
18.52983
0
3DFACE
8
layer1
62
1
10
295.86700
20
539.11493
30
18.52983
11
295.86700
21
539.11493
31
-18.52983
12
295.86700
22
-100.13550
32
-18.52983
13
295.86700
23
-100.13550
33
18.52983
0
3DFACE
8
layer1
62
1
10
330.25525
20
539.11493
30
-18.52983
11
330.25525
21
539.11493
31
18.52983
12
330.25525
22
-100.13550
32
18.52983
13
330.25525
23
-100.13550
33
-18.52983
0
3DFACE
8
layer1
62
1
10
-330.25525
20
539.11493
30
18.52983
11
-330.25525
21
-100.13550
31
18.52983
12
-295.86700
22
-100.13550
32
18.52983
13
-295.86700
23
539.11493
33
18.52983
0
3DFACE
8
layer1
62
1
10
-295.86700
20
539.11493
30
18.52983
11
-295.86700
21
-100.13550
31
18.52983
12
-295.86700
22
-100.13550
32
-18.52983
13
-295.86700
23
539.11493
33
-18.52983
0
3DFACE
8
layer1
62
1
10
-330.25525
20
539.11493
30
-18.52983
11
-330.25525
21
-100.13550
31
-18.52983
12
-330.25525
22
-100.13550
32
18.52983
13
-330.25525
23
539.11493
33
18.52983
0
3DFACE
8
layer1
62
1
10
234.90091
20
539.11493
30
18.52983
11
200.51266
21
539.11493
31
18.52983
12
200.51266
22
-100.13550
32
18.52983
13
234.90091
23
-100.13550
33
18.52983
0
3DFACE
8
layer1
62
1
10
200.51266
20
539.11493
30
18.52983
11
200.51266
21
539.11493
31
-18.52983
12
200.51266
22
-100.13550
32
-18.52983
13
200.51266
23
-100.13550
33
18.52983
0
3DFACE
8
layer1
62
1
10
234.90091
20
539.11493
30
-18.52983
11
234.90091
21
539.11493
31
18.52983
12
234.90091
22
-100.13550
32
18.52983
13
234.90091
23
-100.13550
33
-18.52983
0
3DFACE
8
layer1
62
1
10
-234.90091
20
539.11493
30
18.52983
11
-234.90091
21
-100.13550
31
18.52983
12
-200.51266
22
-100.13550
32
18.52983
13
-200.51266
23
539.11493
33
18.52983
0
3DFACE
8
layer1
62
1
10
-200.51266
20
539.11493
30
18.52983
11
-200.51266
21
-100.13550
31
18.52983
12
-200.51266
22
-100.13550
32
-18.52983
13
-200.51266
23
539.11493
33
-18.52983
0
3DFACE
8
layer1
62
1
10
-234.90091
20
539.11493
30
-18.52983
11
-234.90091
21
-100.13550
31
-18.52983
12
-234.90091
22
-100.13550
32
18.52983
13
-234.90091
23
539.11493
33
18.52983
0
3DFACE
8
layer1
62
1
10
121.83012
20
539.11493
30
18.52983
11
87.44187
21
539.11493
31
18.52983
12
87.44187
22
-100.13550
32
18.52983
13
121.83012
23
-100.13550
33
18.52983
0
3DFACE
8
layer1
62
1
10
87.44187
20
539.11493
30
18.52983
11
87.44187
21
539.11493
31
-18.52983
12
87.44187
22
-100.13550
32
-18.52983
13
87.44187
23
-100.13550
33
18.52983
0
3DFACE
8
layer1
62
1
10
121.83012
20
539.11493
30
-18.52983
11
121.83012
21
539.11493
31
18.52983
12
121.83012
22
-100.13550
32
18.52983
13
121.83012
23
-100.13550
33
-18.52983
0
3DFACE
8
layer1
62
1
10
-121.83012
20
539.11493
30
18.52983
11
-121.83012
21
-100.13550
31
18.52983
12
-87.44187
22
-100.13550
32
18.52983
13
-87.44187
23
539.11493
33
18.52983
0
3DFACE
8
layer1
62
1
10
-87.44187
20
539.11493
30
18.52983
11
-87.44187
21
-100.13550
31
18.52983
12
-87.44187
22
-100.13550
32
-18.52983
13
-87.44187
23
539.11493
33
-18.52983
0
3DFACE
8
layer1
62
1
10
-121.83012
20
539.11493
30
-18.52983
11
-121.83012
21
-100.13550
31
-18.52983
12
-121.83012
22
-100.13550
32
18.52983
13
-121.83012
23
539.11493
33
18.52983
0
ENDSEC
0
EOF
