0
SECTION
2
ENTITIES
999
Created by Metasequoia
0
3DFACE
8
layer1
62
1
10
1239.12134
20
184.85144
30
61.64417
11
1039.12134
21
184.85144
31
61.64417
12
1039.12134
22
-37.23273
32
61.64417
13
1239.12134
23
-37.23273
33
61.64417
0
3DFACE
8
layer1
62
1
10
1039.12134
20
184.85144
30
61.64417
11
1039.12134
21
184.85144
31
-61.64416
12
1039.12134
22
-37.23273
32
-61.64416
13
1039.12134
23
-37.23273
33
61.64417
0
3DFACE
8
layer1
62
1
10
1239.12134
20
184.85144
30
-61.64416
11
1239.12134
21
184.85144
31
61.64417
12
1239.12134
22
-37.23273
32
61.64417
13
1239.12134
23
-37.23273
33
-61.64416
0
3DFACE
8
layer1
62
1
10
1239.12134
20
184.85144
30
-61.64416
11
1039.12134
21
184.85144
31
-61.64416
12
1039.12134
22
184.85144
32
61.64417
13
1239.12134
23
184.85144
33
61.64417
0
3DFACE
8
layer1
62
1
10
-1239.12134
20
184.85144
30
61.64417
11
-1239.12134
21
-37.23273
31
61.64417
12
-1039.12134
22
-37.23273
32
61.64417
13
-1039.12134
23
184.85144
33
61.64417
0
3DFACE
8
layer1
62
1
10
-1039.12134
20
184.85144
30
61.64417
11
-1039.12134
21
-37.23273
31
61.64417
12
-1039.12134
22
-37.23273
32
-61.64416
13
-1039.12134
23
184.85144
33
-61.64416
0
3DFACE
8
layer1
62
1
10
-1239.12134
20
184.85144
30
-61.64416
11
-1239.12134
21
-37.23273
31
-61.64416
12
-1239.12134
22
-37.23273
32
61.64417
13
-1239.12134
23
184.85144
33
61.64417
0
3DFACE
8
layer1
62
1
10
-1239.12134
20
184.85144
30
-61.64416
11
-1239.12134
21
184.85144
31
61.64417
12
-1039.12134
22
184.85144
32
61.64417
13
-1039.12134
23
184.85144
33
-61.64416
0
3DFACE
8
layer1
62
1
10
1040.94702
20
184.85144
30
55.22405
11
840.94708
21
184.85144
31
55.22405
12
840.94708
22
-37.23273
32
55.22405
13
1040.94702
23
-37.23273
33
55.22405
0
3DFACE
8
layer1
62
1
10
1040.94702
20
184.85144
30
-68.06429
11
1040.94702
21
184.85144
31
55.22405
12
1040.94702
22
-37.23273
32
55.22405
13
1040.94702
23
-37.23273
33
-68.06429
0
3DFACE
8
layer1
62
1
10
1040.94702
20
184.85144
30
-68.06429
11
840.94708
21
184.85144
31
-68.06429
12
840.94708
22
184.85144
32
55.22405
13
1040.94702
23
184.85144
33
55.22405
0
3DFACE
8
layer1
62
1
10
-1040.94702
20
184.85144
30
55.22405
11
-1040.94702
21
-37.23273
31
55.22405
12
-840.94708
22
-37.23273
32
55.22405
13
-840.94708
23
184.85144
33
55.22405
0
3DFACE
8
layer1
62
1
10
-1040.94702
20
184.85144
30
-68.06429
11
-1040.94702
21
-37.23273
31
-68.06429
12
-1040.94702
22
-37.23273
32
55.22405
13
-1040.94702
23
184.85144
33
55.22405
0
3DFACE
8
layer1
62
1
10
-1040.94702
20
184.85144
30
-68.06429
11
-1040.94702
21
184.85144
31
55.22405
12
-840.94708
22
184.85144
32
55.22405
13
-840.94708
23
184.85144
33
-68.06429
0
3DFACE
8
layer1
62
1
10
1633.64941
20
184.85144
30
61.64417
11
1433.64966
21
184.85144
31
61.64417
12
1433.64966
22
-37.23273
32
61.64417
13
1633.64941
23
-37.23273
33
61.64417
0
3DFACE
8
layer1
62
1
10
1433.64966
20
184.85144
30
61.64417
11
1433.64966
21
184.85144
31
-61.64416
12
1433.64966
22
-37.23273
32
-61.64416
13
1433.64966
23
-37.23273
33
61.64417
0
3DFACE
8
layer1
62
1
10
1633.64941
20
184.85144
30
-61.64416
11
1633.64941
21
184.85144
31
61.64417
12
1633.64941
22
-37.23273
32
61.64417
13
1633.64941
23
-37.23273
33
-61.64416
0
3DFACE
8
layer1
62
1
10
1633.64941
20
184.85144
30
-61.64416
11
1433.64966
21
184.85144
31
-61.64416
12
1433.64966
22
184.85144
32
61.64417
13
1633.64941
23
184.85144
33
61.64417
0
3DFACE
8
layer1
62
1
10
1435.47534
20
184.85144
30
55.22405
11
1235.47510
21
184.85144
31
55.22405
12
1235.47510
22
-37.23273
32
55.22405
13
1435.47534
23
-37.23273
33
55.22405
0
3DFACE
8
layer1
62
1
10
1435.47534
20
184.85144
30
-68.06429
11
1435.47534
21
184.85144
31
55.22405
12
1435.47534
22
-37.23273
32
55.22405
13
1435.47534
23
-37.23273
33
-68.06429
0
3DFACE
8
layer1
62
1
10
1435.47534
20
184.85144
30
-68.06429
11
1235.47510
21
184.85144
31
-68.06429
12
1235.47510
22
184.85144
32
55.22405
13
1435.47534
23
184.85144
33
55.22405
0
3DFACE
8
layer1
62
1
10
-1633.64941
20
184.85144
30
61.64417
11
-1633.64941
21
-37.23273
31
61.64417
12
-1433.64966
22
-37.23273
32
61.64417
13
-1433.64966
23
184.85144
33
61.64417
0
3DFACE
8
layer1
62
1
10
-1433.64966
20
184.85144
30
61.64417
11
-1433.64966
21
-37.23273
31
61.64417
12
-1433.64966
22
-37.23273
32
-61.64416
13
-1433.64966
23
184.85144
33
-61.64416
0
3DFACE
8
layer1
62
1
10
-1633.64941
20
184.85144
30
-61.64416
11
-1633.64941
21
-37.23273
31
-61.64416
12
-1633.64941
22
-37.23273
32
61.64417
13
-1633.64941
23
184.85144
33
61.64417
0
3DFACE
8
layer1
62
1
10
-1633.64941
20
184.85144
30
-61.64416
11
-1633.64941
21
184.85144
31
61.64417
12
-1433.64966
22
184.85144
32
61.64417
13
-1433.64966
23
184.85144
33
-61.64416
0
3DFACE
8
layer1
62
1
10
-1435.47534
20
184.85144
30
55.22405
11
-1435.47534
21
-37.23273
31
55.22405
12
-1235.47510
22
-37.23273
32
55.22405
13
-1235.47510
23
184.85144
33
55.22405
0
3DFACE
8
layer1
62
1
10
-1435.47534
20
184.85144
30
-68.06429
11
-1435.47534
21
-37.23273
31
-68.06429
12
-1435.47534
22
-37.23273
32
55.22405
13
-1435.47534
23
184.85144
33
55.22405
0
3DFACE
8
layer1
62
1
10
-1435.47534
20
184.85144
30
-68.06429
11
-1435.47534
21
184.85144
31
55.22405
12
-1235.47510
22
184.85144
32
55.22405
13
-1235.47510
23
184.85144
33
-68.06429
0
3DFACE
8
layer1
62
1
10
843.68719
20
184.85144
30
61.64417
11
643.68719
21
184.85144
31
61.64417
12
643.68719
22
-37.23273
32
61.64417
13
843.68719
23
-37.23273
33
61.64417
0
3DFACE
8
layer1
62
1
10
643.68719
20
184.85144
30
61.64417
11
643.68719
21
184.85144
31
-61.64416
12
643.68719
22
-37.23273
32
-61.64416
13
643.68719
23
-37.23273
33
61.64417
0
3DFACE
8
layer1
62
1
10
843.68719
20
184.85144
30
-61.64416
11
843.68719
21
184.85144
31
61.64417
12
843.68719
22
-37.23273
32
61.64417
13
843.68719
23
-37.23273
33
-61.64416
0
3DFACE
8
layer1
62
1
10
843.68719
20
184.85144
30
-61.64416
11
643.68719
21
184.85144
31
-61.64416
12
643.68719
22
184.85144
32
61.64417
13
843.68719
23
184.85144
33
61.64417
0
3DFACE
8
layer1
62
1
10
645.51300
20
184.85144
30
55.22405
11
445.51276
21
184.85144
31
55.22405
12
445.51276
22
-37.23273
32
55.22405
13
645.51300
23
-37.23273
33
55.22405
0
3DFACE
8
layer1
62
1
10
645.51300
20
184.85144
30
-68.06429
11
645.51300
21
184.85144
31
55.22405
12
645.51300
22
-37.23273
32
55.22405
13
645.51300
23
-37.23273
33
-68.06429
0
3DFACE
8
layer1
62
1
10
645.51300
20
184.85144
30
-68.06429
11
445.51276
21
184.85144
31
-68.06429
12
445.51276
22
184.85144
32
55.22405
13
645.51300
23
184.85144
33
55.22405
0
3DFACE
8
layer1
62
1
10
-843.68719
20
184.85144
30
61.64417
11
-843.68719
21
-37.23273
31
61.64417
12
-643.68719
22
-37.23273
32
61.64417
13
-643.68719
23
184.85144
33
61.64417
0
3DFACE
8
layer1
62
1
10
-643.68719
20
184.85144
30
61.64417
11
-643.68719
21
-37.23273
31
61.64417
12
-643.68719
22
-37.23273
32
-61.64416
13
-643.68719
23
184.85144
33
-61.64416
0
3DFACE
8
layer1
62
1
10
-843.68719
20
184.85144
30
-61.64416
11
-843.68719
21
-37.23273
31
-61.64416
12
-843.68719
22
-37.23273
32
61.64417
13
-843.68719
23
184.85144
33
61.64417
0
3DFACE
8
layer1
62
1
10
-843.68719
20
184.85144
30
-61.64416
11
-843.68719
21
184.85144
31
61.64417
12
-643.68719
22
184.85144
32
61.64417
13
-643.68719
23
184.85144
33
-61.64416
0
3DFACE
8
layer1
62
1
10
-645.51300
20
184.85144
30
55.22405
11
-645.51300
21
-37.23273
31
55.22405
12
-445.51276
22
-37.23273
32
55.22405
13
-445.51276
23
184.85144
33
55.22405
0
3DFACE
8
layer1
62
1
10
-645.51300
20
184.85144
30
-68.06429
11
-645.51300
21
-37.23273
31
-68.06429
12
-645.51300
22
-37.23273
32
55.22405
13
-645.51300
23
184.85144
33
55.22405
0
3DFACE
8
layer1
62
1
10
-645.51300
20
184.85144
30
-68.06429
11
-645.51300
21
184.85144
31
55.22405
12
-445.51276
22
184.85144
32
55.22405
13
-445.51276
23
184.85144
33
-68.06429
0
3DFACE
8
layer1
62
1
10
1829.46069
20
184.85144
30
55.22405
11
1629.46069
21
184.85144
31
55.22405
12
1629.46069
22
-37.23273
32
55.22405
13
1829.46069
23
-37.23273
33
55.22405
0
3DFACE
8
layer1
62
1
10
1829.46069
20
184.85144
30
-68.06429
11
1829.46069
21
184.85144
31
55.22405
12
1829.46069
22
-37.23273
32
55.22405
13
1829.46069
23
-37.23273
33
-68.06429
0
3DFACE
8
layer1
62
1
10
1829.46069
20
184.85144
30
-68.06429
11
1629.46069
21
184.85144
31
-68.06429
12
1629.46069
22
184.85144
32
55.22405
13
1829.46069
23
184.85144
33
55.22405
0
3DFACE
8
layer1
62
1
10
-1829.46069
20
184.85144
30
55.22405
11
-1829.46069
21
-37.23273
31
55.22405
12
-1629.46069
22
-37.23273
32
55.22405
13
-1629.46069
23
184.85144
33
55.22405
0
3DFACE
8
layer1
62
1
10
-1829.46069
20
184.85144
30
-68.06429
11
-1829.46069
21
-37.23273
31
-68.06429
12
-1829.46069
22
-37.23273
32
55.22405
13
-1829.46069
23
184.85144
33
55.22405
0
3DFACE
8
layer1
62
1
10
-1829.46069
20
184.85144
30
-68.06429
11
-1829.46069
21
184.85144
31
55.22405
12
-1629.46069
22
184.85144
32
55.22405
13
-1629.46069
23
184.85144
33
-68.06429
0
3DFACE
8
layer1
62
1
10
1239.12134
20
370.59433
30
57.05172
11
1039.12134
21
370.59433
31
57.05172
12
1039.12134
22
148.51031
32
57.05172
13
1239.12134
23
148.51031
33
57.05172
0
3DFACE
8
layer1
62
1
10
1039.12134
20
370.59433
30
57.05172
11
1039.12134
21
370.59433
31
-66.23660
12
1039.12134
22
148.51031
32
-66.23660
13
1039.12134
23
148.51031
33
57.05172
0
3DFACE
8
layer1
62
1
10
1239.12134
20
370.59433
30
-66.23660
11
1239.12134
21
370.59433
31
57.05172
12
1239.12134
22
148.51031
32
57.05172
13
1239.12134
23
148.51031
33
-66.23660
0
3DFACE
8
layer1
62
1
10
1239.12134
20
370.59433
30
-66.23660
11
1039.12134
21
370.59433
31
-66.23660
12
1039.12134
22
370.59433
32
57.05172
13
1239.12134
23
370.59433
33
57.05172
0
3DFACE
8
layer1
62
1
10
1239.12134
20
148.51031
30
57.05172
11
1039.12134
21
148.51031
31
57.05172
12
1039.12134
22
148.51031
32
-66.23660
13
1239.12134
23
148.51031
33
-66.23660
0
3DFACE
8
layer1
62
1
10
1040.94702
20
370.59433
30
50.63161
11
840.94708
21
370.59433
31
50.63161
12
840.94708
22
148.51031
32
50.63161
13
1040.94702
23
148.51031
33
50.63161
0
3DFACE
8
layer1
62
1
10
1040.94702
20
370.59433
30
-72.65672
11
1040.94702
21
370.59433
31
50.63161
12
1040.94702
22
148.51031
32
50.63161
13
1040.94702
23
148.51031
33
-72.65672
0
3DFACE
8
layer1
62
1
10
1040.94702
20
370.59433
30
-72.65672
11
840.94708
21
370.59433
31
-72.65672
12
840.94708
22
370.59433
32
50.63161
13
1040.94702
23
370.59433
33
50.63161
0
3DFACE
8
layer1
62
1
10
1040.94702
20
148.51031
30
50.63161
11
840.94708
21
148.51031
31
50.63161
12
840.94708
22
148.51031
32
-72.65672
13
1040.94702
23
148.51031
33
-72.65672
0
3DFACE
8
layer1
62
1
10
1633.64941
20
370.59433
30
57.05172
11
1433.64966
21
370.59433
31
57.05172
12
1433.64966
22
148.51031
32
57.05172
13
1633.64941
23
148.51031
33
57.05172
0
3DFACE
8
layer1
62
1
10
1433.64966
20
370.59433
30
57.05172
11
1433.64966
21
370.59433
31
-66.23660
12
1433.64966
22
148.51031
32
-66.23660
13
1433.64966
23
148.51031
33
57.05172
0
3DFACE
8
layer1
62
1
10
1633.64941
20
370.59433
30
-66.23660
11
1633.64941
21
370.59433
31
57.05172
12
1633.64941
22
148.51031
32
57.05172
13
1633.64941
23
148.51031
33
-66.23660
0
3DFACE
8
layer1
62
1
10
1633.64941
20
370.59433
30
-66.23660
11
1433.64966
21
370.59433
31
-66.23660
12
1433.64966
22
370.59433
32
57.05172
13
1633.64941
23
370.59433
33
57.05172
0
3DFACE
8
layer1
62
1
10
1633.64941
20
148.51031
30
57.05172
11
1433.64966
21
148.51031
31
57.05172
12
1433.64966
22
148.51031
32
-66.23660
13
1633.64941
23
148.51031
33
-66.23660
0
3DFACE
8
layer1
62
1
10
1435.47534
20
370.59433
30
50.63161
11
1235.47510
21
370.59433
31
50.63161
12
1235.47510
22
148.51031
32
50.63161
13
1435.47534
23
148.51031
33
50.63161
0
3DFACE
8
layer1
62
1
10
1435.47534
20
370.59433
30
-72.65672
11
1435.47534
21
370.59433
31
50.63161
12
1435.47534
22
148.51031
32
50.63161
13
1435.47534
23
148.51031
33
-72.65672
0
3DFACE
8
layer1
62
1
10
1435.47534
20
370.59433
30
-72.65672
11
1235.47510
21
370.59433
31
-72.65672
12
1235.47510
22
370.59433
32
50.63161
13
1435.47534
23
370.59433
33
50.63161
0
3DFACE
8
layer1
62
1
10
1435.47534
20
148.51031
30
50.63161
11
1235.47510
21
148.51031
31
50.63161
12
1235.47510
22
148.51031
32
-72.65672
13
1435.47534
23
148.51031
33
-72.65672
0
3DFACE
8
layer1
62
1
10
843.68719
20
370.59433
30
57.05172
11
643.68719
21
370.59433
31
57.05172
12
643.68719
22
148.51031
32
57.05172
13
843.68719
23
148.51031
33
57.05172
0
3DFACE
8
layer1
62
1
10
643.68719
20
370.59433
30
57.05172
11
643.68719
21
370.59433
31
-66.23660
12
643.68719
22
148.51031
32
-66.23660
13
643.68719
23
148.51031
33
57.05172
0
3DFACE
8
layer1
62
1
10
843.68719
20
370.59433
30
-66.23660
11
843.68719
21
370.59433
31
57.05172
12
843.68719
22
148.51031
32
57.05172
13
843.68719
23
148.51031
33
-66.23660
0
3DFACE
8
layer1
62
1
10
843.68719
20
370.59433
30
-66.23660
11
643.68719
21
370.59433
31
-66.23660
12
643.68719
22
370.59433
32
57.05172
13
843.68719
23
370.59433
33
57.05172
0
3DFACE
8
layer1
62
1
10
843.68719
20
148.51031
30
57.05172
11
643.68719
21
148.51031
31
57.05172
12
643.68719
22
148.51031
32
-66.23660
13
843.68719
23
148.51031
33
-66.23660
0
3DFACE
8
layer1
62
1
10
645.51300
20
370.59433
30
50.63161
11
445.51276
21
370.59433
31
50.63161
12
445.51276
22
148.51031
32
50.63161
13
645.51300
23
148.51031
33
50.63161
0
3DFACE
8
layer1
62
1
10
645.51300
20
370.59433
30
-72.65672
11
645.51300
21
370.59433
31
50.63161
12
645.51300
22
148.51031
32
50.63161
13
645.51300
23
148.51031
33
-72.65672
0
3DFACE
8
layer1
62
1
10
645.51300
20
370.59433
30
-72.65672
11
445.51276
21
370.59433
31
-72.65672
12
445.51276
22
370.59433
32
50.63161
13
645.51300
23
370.59433
33
50.63161
0
3DFACE
8
layer1
62
1
10
645.51300
20
148.51031
30
50.63161
11
445.51276
21
148.51031
31
50.63161
12
445.51276
22
148.51031
32
-72.65672
13
645.51300
23
148.51031
33
-72.65672
0
3DFACE
8
layer1
62
1
10
1829.46069
20
370.59433
30
50.63161
11
1629.46069
21
370.59433
31
50.63161
12
1629.46069
22
148.51031
32
50.63161
13
1829.46069
23
148.51031
33
50.63161
0
3DFACE
8
layer1
62
1
10
1829.46069
20
370.59433
30
-72.65672
11
1829.46069
21
370.59433
31
50.63161
12
1829.46069
22
148.51031
32
50.63161
13
1829.46069
23
148.51031
33
-72.65672
0
3DFACE
8
layer1
62
1
10
1829.46069
20
370.59433
30
-72.65672
11
1629.46069
21
370.59433
31
-72.65672
12
1629.46069
22
370.59433
32
50.63161
13
1829.46069
23
370.59433
33
50.63161
0
3DFACE
8
layer1
62
1
10
1829.46069
20
148.51031
30
50.63161
11
1629.46069
21
148.51031
31
50.63161
12
1629.46069
22
148.51031
32
-72.65672
13
1829.46069
23
148.51031
33
-72.65672
0
3DFACE
8
layer1
62
1
10
-1239.12134
20
370.59433
30
57.05172
11
-1239.12134
21
148.51031
31
57.05172
12
-1039.12134
22
148.51031
32
57.05172
13
-1039.12134
23
370.59433
33
57.05172
0
3DFACE
8
layer1
62
1
10
-1039.12134
20
370.59433
30
57.05172
11
-1039.12134
21
148.51031
31
57.05172
12
-1039.12134
22
148.51031
32
-66.23660
13
-1039.12134
23
370.59433
33
-66.23660
0
3DFACE
8
layer1
62
1
10
-1239.12134
20
370.59433
30
-66.23660
11
-1239.12134
21
148.51031
31
-66.23660
12
-1239.12134
22
148.51031
32
57.05172
13
-1239.12134
23
370.59433
33
57.05172
0
3DFACE
8
layer1
62
1
10
-1239.12134
20
370.59433
30
-66.23660
11
-1239.12134
21
370.59433
31
57.05172
12
-1039.12134
22
370.59433
32
57.05172
13
-1039.12134
23
370.59433
33
-66.23660
0
3DFACE
8
layer1
62
1
10
-1239.12134
20
148.51031
30
57.05172
11
-1239.12134
21
148.51031
31
-66.23660
12
-1039.12134
22
148.51031
32
-66.23660
13
-1039.12134
23
148.51031
33
57.05172
0
3DFACE
8
layer1
62
1
10
-1040.94702
20
370.59433
30
50.63161
11
-1040.94702
21
148.51031
31
50.63161
12
-840.94708
22
148.51031
32
50.63161
13
-840.94708
23
370.59433
33
50.63161
0
3DFACE
8
layer1
62
1
10
-1040.94702
20
370.59433
30
-72.65672
11
-1040.94702
21
148.51031
31
-72.65672
12
-1040.94702
22
148.51031
32
50.63161
13
-1040.94702
23
370.59433
33
50.63161
0
3DFACE
8
layer1
62
1
10
-1040.94702
20
370.59433
30
-72.65672
11
-1040.94702
21
370.59433
31
50.63161
12
-840.94708
22
370.59433
32
50.63161
13
-840.94708
23
370.59433
33
-72.65672
0
3DFACE
8
layer1
62
1
10
-1040.94702
20
148.51031
30
50.63161
11
-1040.94702
21
148.51031
31
-72.65672
12
-840.94708
22
148.51031
32
-72.65672
13
-840.94708
23
148.51031
33
50.63161
0
3DFACE
8
layer1
62
1
10
-1633.64941
20
370.59433
30
57.05172
11
-1633.64941
21
148.51031
31
57.05172
12
-1433.64966
22
148.51031
32
57.05172
13
-1433.64966
23
370.59433
33
57.05172
0
3DFACE
8
layer1
62
1
10
-1433.64966
20
370.59433
30
57.05172
11
-1433.64966
21
148.51031
31
57.05172
12
-1433.64966
22
148.51031
32
-66.23660
13
-1433.64966
23
370.59433
33
-66.23660
0
3DFACE
8
layer1
62
1
10
-1633.64941
20
370.59433
30
-66.23660
11
-1633.64941
21
148.51031
31
-66.23660
12
-1633.64941
22
148.51031
32
57.05172
13
-1633.64941
23
370.59433
33
57.05172
0
3DFACE
8
layer1
62
1
10
-1633.64941
20
370.59433
30
-66.23660
11
-1633.64941
21
370.59433
31
57.05172
12
-1433.64966
22
370.59433
32
57.05172
13
-1433.64966
23
370.59433
33
-66.23660
0
3DFACE
8
layer1
62
1
10
-1633.64941
20
148.51031
30
57.05172
11
-1633.64941
21
148.51031
31
-66.23660
12
-1433.64966
22
148.51031
32
-66.23660
13
-1433.64966
23
148.51031
33
57.05172
0
3DFACE
8
layer1
62
1
10
-1435.47534
20
370.59433
30
50.63161
11
-1435.47534
21
148.51031
31
50.63161
12
-1235.47510
22
148.51031
32
50.63161
13
-1235.47510
23
370.59433
33
50.63161
0
3DFACE
8
layer1
62
1
10
-1435.47534
20
370.59433
30
-72.65672
11
-1435.47534
21
148.51031
31
-72.65672
12
-1435.47534
22
148.51031
32
50.63161
13
-1435.47534
23
370.59433
33
50.63161
0
3DFACE
8
layer1
62
1
10
-1435.47534
20
370.59433
30
-72.65672
11
-1435.47534
21
370.59433
31
50.63161
12
-1235.47510
22
370.59433
32
50.63161
13
-1235.47510
23
370.59433
33
-72.65672
0
3DFACE
8
layer1
62
1
10
-1435.47534
20
148.51031
30
50.63161
11
-1435.47534
21
148.51031
31
-72.65672
12
-1235.47510
22
148.51031
32
-72.65672
13
-1235.47510
23
148.51031
33
50.63161
0
3DFACE
8
layer1
62
1
10
-843.68719
20
370.59433
30
57.05172
11
-843.68719
21
148.51031
31
57.05172
12
-643.68719
22
148.51031
32
57.05172
13
-643.68719
23
370.59433
33
57.05172
0
3DFACE
8
layer1
62
1
10
-643.68719
20
370.59433
30
57.05172
11
-643.68719
21
148.51031
31
57.05172
12
-643.68719
22
148.51031
32
-66.23660
13
-643.68719
23
370.59433
33
-66.23660
0
3DFACE
8
layer1
62
1
10
-843.68719
20
370.59433
30
-66.23660
11
-843.68719
21
148.51031
31
-66.23660
12
-843.68719
22
148.51031
32
57.05172
13
-843.68719
23
370.59433
33
57.05172
0
3DFACE
8
layer1
62
1
10
-843.68719
20
370.59433
30
-66.23660
11
-843.68719
21
370.59433
31
57.05172
12
-643.68719
22
370.59433
32
57.05172
13
-643.68719
23
370.59433
33
-66.23660
0
3DFACE
8
layer1
62
1
10
-843.68719
20
148.51031
30
57.05172
11
-843.68719
21
148.51031
31
-66.23660
12
-643.68719
22
148.51031
32
-66.23660
13
-643.68719
23
148.51031
33
57.05172
0
3DFACE
8
layer1
62
1
10
-645.51300
20
370.59433
30
50.63161
11
-645.51300
21
148.51031
31
50.63161
12
-445.51276
22
148.51031
32
50.63161
13
-445.51276
23
370.59433
33
50.63161
0
3DFACE
8
layer1
62
1
10
-645.51300
20
370.59433
30
-72.65672
11
-645.51300
21
148.51031
31
-72.65672
12
-645.51300
22
148.51031
32
50.63161
13
-645.51300
23
370.59433
33
50.63161
0
3DFACE
8
layer1
62
1
10
-645.51300
20
370.59433
30
-72.65672
11
-645.51300
21
370.59433
31
50.63161
12
-445.51276
22
370.59433
32
50.63161
13
-445.51276
23
370.59433
33
-72.65672
0
3DFACE
8
layer1
62
1
10
-645.51300
20
148.51031
30
50.63161
11
-645.51300
21
148.51031
31
-72.65672
12
-445.51276
22
148.51031
32
-72.65672
13
-445.51276
23
148.51031
33
50.63161
0
3DFACE
8
layer1
62
1
10
-1829.46069
20
370.59433
30
50.63161
11
-1829.46069
21
148.51031
31
50.63161
12
-1629.46069
22
148.51031
32
50.63161
13
-1629.46069
23
370.59433
33
50.63161
0
3DFACE
8
layer1
62
1
10
-1829.46069
20
370.59433
30
-72.65672
11
-1829.46069
21
148.51031
31
-72.65672
12
-1829.46069
22
148.51031
32
50.63161
13
-1829.46069
23
370.59433
33
50.63161
0
3DFACE
8
layer1
62
1
10
-1829.46069
20
370.59433
30
-72.65672
11
-1829.46069
21
370.59433
31
50.63161
12
-1629.46069
22
370.59433
32
50.63161
13
-1629.46069
23
370.59433
33
-72.65672
0
3DFACE
8
layer1
62
1
10
-1829.46069
20
148.51031
30
50.63161
11
-1829.46069
21
148.51031
31
-72.65672
12
-1629.46069
22
148.51031
32
-72.65672
13
-1629.46069
23
148.51031
33
50.63161
0
3DFACE
8
layer1
62
1
10
1239.12134
20
575.59448
30
61.64417
11
1039.12134
21
575.59448
31
61.64417
12
1039.12134
22
353.51038
32
61.64417
13
1239.12134
23
353.51038
33
61.64417
0
3DFACE
8
layer1
62
1
10
1039.12134
20
575.59448
30
61.64417
11
1039.12134
21
575.59448
31
-61.64416
12
1039.12134
22
353.51038
32
-61.64416
13
1039.12134
23
353.51038
33
61.64417
0
3DFACE
8
layer1
62
1
10
1239.12134
20
575.59448
30
-61.64416
11
1239.12134
21
575.59448
31
61.64417
12
1239.12134
22
353.51038
32
61.64417
13
1239.12134
23
353.51038
33
-61.64416
0
3DFACE
8
layer1
62
1
10
1239.12134
20
575.59448
30
-61.64416
11
1039.12134
21
575.59448
31
-61.64416
12
1039.12134
22
575.59448
32
61.64417
13
1239.12134
23
575.59448
33
61.64417
0
3DFACE
8
layer1
62
1
10
1239.12134
20
353.51038
30
61.64417
11
1039.12134
21
353.51038
31
61.64417
12
1039.12134
22
353.51038
32
-61.64416
13
1239.12134
23
353.51038
33
-61.64416
0
3DFACE
8
layer1
62
1
10
1040.94702
20
575.59448
30
55.22405
11
840.94708
21
575.59448
31
55.22405
12
840.94708
22
353.51038
32
55.22405
13
1040.94702
23
353.51038
33
55.22405
0
3DFACE
8
layer1
62
1
10
1040.94702
20
575.59448
30
-68.06429
11
1040.94702
21
575.59448
31
55.22405
12
1040.94702
22
353.51038
32
55.22405
13
1040.94702
23
353.51038
33
-68.06429
0
3DFACE
8
layer1
62
1
10
1040.94702
20
575.59448
30
-68.06429
11
840.94708
21
575.59448
31
-68.06429
12
840.94708
22
575.59448
32
55.22405
13
1040.94702
23
575.59448
33
55.22405
0
3DFACE
8
layer1
62
1
10
1040.94702
20
353.51038
30
55.22405
11
840.94708
21
353.51038
31
55.22405
12
840.94708
22
353.51038
32
-68.06429
13
1040.94702
23
353.51038
33
-68.06429
0
3DFACE
8
layer1
62
1
10
1633.64941
20
575.59448
30
61.64417
11
1433.64966
21
575.59448
31
61.64417
12
1433.64966
22
353.51038
32
61.64417
13
1633.64941
23
353.51038
33
61.64417
0
3DFACE
8
layer1
62
1
10
1433.64966
20
575.59448
30
61.64417
11
1433.64966
21
575.59448
31
-61.64416
12
1433.64966
22
353.51038
32
-61.64416
13
1433.64966
23
353.51038
33
61.64417
0
3DFACE
8
layer1
62
1
10
1633.64941
20
575.59448
30
-61.64416
11
1633.64941
21
575.59448
31
61.64417
12
1633.64941
22
353.51038
32
61.64417
13
1633.64941
23
353.51038
33
-61.64416
0
3DFACE
8
layer1
62
1
10
1633.64941
20
575.59448
30
-61.64416
11
1433.64966
21
575.59448
31
-61.64416
12
1433.64966
22
575.59448
32
61.64417
13
1633.64941
23
575.59448
33
61.64417
0
3DFACE
8
layer1
62
1
10
1633.64941
20
353.51038
30
61.64417
11
1433.64966
21
353.51038
31
61.64417
12
1433.64966
22
353.51038
32
-61.64416
13
1633.64941
23
353.51038
33
-61.64416
0
3DFACE
8
layer1
62
1
10
1435.47534
20
575.59448
30
55.22405
11
1235.47510
21
575.59448
31
55.22405
12
1235.47510
22
353.51038
32
55.22405
13
1435.47534
23
353.51038
33
55.22405
0
3DFACE
8
layer1
62
1
10
1435.47534
20
575.59448
30
-68.06429
11
1435.47534
21
575.59448
31
55.22405
12
1435.47534
22
353.51038
32
55.22405
13
1435.47534
23
353.51038
33
-68.06429
0
3DFACE
8
layer1
62
1
10
1435.47534
20
575.59448
30
-68.06429
11
1235.47510
21
575.59448
31
-68.06429
12
1235.47510
22
575.59448
32
55.22405
13
1435.47534
23
575.59448
33
55.22405
0
3DFACE
8
layer1
62
1
10
1435.47534
20
353.51038
30
55.22405
11
1235.47510
21
353.51038
31
55.22405
12
1235.47510
22
353.51038
32
-68.06429
13
1435.47534
23
353.51038
33
-68.06429
0
3DFACE
8
layer1
62
1
10
843.68719
20
575.59448
30
61.64417
11
643.68719
21
575.59448
31
61.64417
12
643.68719
22
353.51038
32
61.64417
13
843.68719
23
353.51038
33
61.64417
0
3DFACE
8
layer1
62
1
10
643.68719
20
575.59448
30
61.64417
11
643.68719
21
575.59448
31
-61.64416
12
643.68719
22
353.51038
32
-61.64416
13
643.68719
23
353.51038
33
61.64417
0
3DFACE
8
layer1
62
1
10
843.68719
20
575.59448
30
-61.64416
11
843.68719
21
575.59448
31
61.64417
12
843.68719
22
353.51038
32
61.64417
13
843.68719
23
353.51038
33
-61.64416
0
3DFACE
8
layer1
62
1
10
843.68719
20
575.59448
30
-61.64416
11
643.68719
21
575.59448
31
-61.64416
12
643.68719
22
575.59448
32
61.64417
13
843.68719
23
575.59448
33
61.64417
0
3DFACE
8
layer1
62
1
10
843.68719
20
353.51038
30
61.64417
11
643.68719
21
353.51038
31
61.64417
12
643.68719
22
353.51038
32
-61.64416
13
843.68719
23
353.51038
33
-61.64416
0
3DFACE
8
layer1
62
1
10
645.51300
20
575.59448
30
55.22405
11
445.51276
21
575.59448
31
55.22405
12
445.51276
22
353.51038
32
55.22405
13
645.51300
23
353.51038
33
55.22405
0
3DFACE
8
layer1
62
1
10
645.51300
20
575.59448
30
-68.06429
11
645.51300
21
575.59448
31
55.22405
12
645.51300
22
353.51038
32
55.22405
13
645.51300
23
353.51038
33
-68.06429
0
3DFACE
8
layer1
62
1
10
645.51300
20
575.59448
30
-68.06429
11
445.51276
21
575.59448
31
-68.06429
12
445.51276
22
575.59448
32
55.22405
13
645.51300
23
575.59448
33
55.22405
0
3DFACE
8
layer1
62
1
10
645.51300
20
353.51038
30
55.22405
11
445.51276
21
353.51038
31
55.22405
12
445.51276
22
353.51038
32
-68.06429
13
645.51300
23
353.51038
33
-68.06429
0
3DFACE
8
layer1
62
1
10
1829.46069
20
575.59448
30
55.22405
11
1629.46069
21
575.59448
31
55.22405
12
1629.46069
22
353.51038
32
55.22405
13
1829.46069
23
353.51038
33
55.22405
0
3DFACE
8
layer1
62
1
10
1829.46069
20
575.59448
30
-68.06429
11
1829.46069
21
575.59448
31
55.22405
12
1829.46069
22
353.51038
32
55.22405
13
1829.46069
23
353.51038
33
-68.06429
0
3DFACE
8
layer1
62
1
10
1829.46069
20
575.59448
30
-68.06429
11
1629.46069
21
575.59448
31
-68.06429
12
1629.46069
22
575.59448
32
55.22405
13
1829.46069
23
575.59448
33
55.22405
0
3DFACE
8
layer1
62
1
10
1829.46069
20
353.51038
30
55.22405
11
1629.46069
21
353.51038
31
55.22405
12
1629.46069
22
353.51038
32
-68.06429
13
1829.46069
23
353.51038
33
-68.06429
0
3DFACE
8
layer1
62
1
10
1239.12134
20
761.33783
30
57.05172
11
1039.12134
21
761.33783
31
57.05172
12
1039.12134
22
539.25342
32
57.05172
13
1239.12134
23
539.25342
33
57.05172
0
3DFACE
8
layer1
62
1
10
1039.12134
20
761.33783
30
57.05172
11
1039.12134
21
761.33783
31
-66.23660
12
1039.12134
22
539.25342
32
-66.23660
13
1039.12134
23
539.25342
33
57.05172
0
3DFACE
8
layer1
62
1
10
1239.12134
20
761.33783
30
-66.23660
11
1239.12134
21
761.33783
31
57.05172
12
1239.12134
22
539.25342
32
57.05172
13
1239.12134
23
539.25342
33
-66.23660
0
3DFACE
8
layer1
62
1
10
1239.12134
20
761.33783
30
-66.23660
11
1039.12134
21
761.33783
31
-66.23660
12
1039.12134
22
761.33783
32
57.05172
13
1239.12134
23
761.33783
33
57.05172
0
3DFACE
8
layer1
62
1
10
1239.12134
20
539.25342
30
57.05172
11
1039.12134
21
539.25342
31
57.05172
12
1039.12134
22
539.25342
32
-66.23660
13
1239.12134
23
539.25342
33
-66.23660
0
3DFACE
8
layer1
62
1
10
1040.94702
20
761.33783
30
50.63161
11
840.94708
21
761.33783
31
50.63161
12
840.94708
22
539.25342
32
50.63161
13
1040.94702
23
539.25342
33
50.63161
0
3DFACE
8
layer1
62
1
10
1040.94702
20
761.33783
30
-72.65672
11
1040.94702
21
761.33783
31
50.63161
12
1040.94702
22
539.25342
32
50.63161
13
1040.94702
23
539.25342
33
-72.65672
0
3DFACE
8
layer1
62
1
10
1040.94702
20
761.33783
30
-72.65672
11
840.94708
21
761.33783
31
-72.65672
12
840.94708
22
761.33783
32
50.63161
13
1040.94702
23
761.33783
33
50.63161
0
3DFACE
8
layer1
62
1
10
1040.94702
20
539.25342
30
50.63161
11
840.94708
21
539.25342
31
50.63161
12
840.94708
22
539.25342
32
-72.65672
13
1040.94702
23
539.25342
33
-72.65672
0
3DFACE
8
layer1
62
1
10
1633.64941
20
761.33783
30
57.05172
11
1433.64966
21
761.33783
31
57.05172
12
1433.64966
22
539.25342
32
57.05172
13
1633.64941
23
539.25342
33
57.05172
0
3DFACE
8
layer1
62
1
10
1433.64966
20
761.33783
30
57.05172
11
1433.64966
21
761.33783
31
-66.23660
12
1433.64966
22
539.25342
32
-66.23660
13
1433.64966
23
539.25342
33
57.05172
0
3DFACE
8
layer1
62
1
10
1633.64941
20
761.33783
30
-66.23660
11
1633.64941
21
761.33783
31
57.05172
12
1633.64941
22
539.25342
32
57.05172
13
1633.64941
23
539.25342
33
-66.23660
0
3DFACE
8
layer1
62
1
10
1633.64941
20
761.33783
30
-66.23660
11
1433.64966
21
761.33783
31
-66.23660
12
1433.64966
22
761.33783
32
57.05172
13
1633.64941
23
761.33783
33
57.05172
0
3DFACE
8
layer1
62
1
10
1633.64941
20
539.25342
30
57.05172
11
1433.64966
21
539.25342
31
57.05172
12
1433.64966
22
539.25342
32
-66.23660
13
1633.64941
23
539.25342
33
-66.23660
0
3DFACE
8
layer1
62
1
10
1435.47534
20
761.33783
30
50.63161
11
1235.47510
21
761.33783
31
50.63161
12
1235.47510
22
539.25342
32
50.63161
13
1435.47534
23
539.25342
33
50.63161
0
3DFACE
8
layer1
62
1
10
1435.47534
20
761.33783
30
-72.65672
11
1435.47534
21
761.33783
31
50.63161
12
1435.47534
22
539.25342
32
50.63161
13
1435.47534
23
539.25342
33
-72.65672
0
3DFACE
8
layer1
62
1
10
1435.47534
20
761.33783
30
-72.65672
11
1235.47510
21
761.33783
31
-72.65672
12
1235.47510
22
761.33783
32
50.63161
13
1435.47534
23
761.33783
33
50.63161
0
3DFACE
8
layer1
62
1
10
1435.47534
20
539.25342
30
50.63161
11
1235.47510
21
539.25342
31
50.63161
12
1235.47510
22
539.25342
32
-72.65672
13
1435.47534
23
539.25342
33
-72.65672
0
3DFACE
8
layer1
62
1
10
843.68719
20
761.33783
30
57.05172
11
643.68719
21
761.33783
31
57.05172
12
643.68719
22
539.25342
32
57.05172
13
843.68719
23
539.25342
33
57.05172
0
3DFACE
8
layer1
62
1
10
643.68719
20
761.33783
30
57.05172
11
643.68719
21
761.33783
31
-66.23660
12
643.68719
22
539.25342
32
-66.23660
13
643.68719
23
539.25342
33
57.05172
0
3DFACE
8
layer1
62
1
10
843.68719
20
761.33783
30
-66.23660
11
843.68719
21
761.33783
31
57.05172
12
843.68719
22
539.25342
32
57.05172
13
843.68719
23
539.25342
33
-66.23660
0
3DFACE
8
layer1
62
1
10
843.68719
20
761.33783
30
-66.23660
11
643.68719
21
761.33783
31
-66.23660
12
643.68719
22
761.33783
32
57.05172
13
843.68719
23
761.33783
33
57.05172
0
3DFACE
8
layer1
62
1
10
843.68719
20
539.25342
30
57.05172
11
643.68719
21
539.25342
31
57.05172
12
643.68719
22
539.25342
32
-66.23660
13
843.68719
23
539.25342
33
-66.23660
0
3DFACE
8
layer1
62
1
10
645.51300
20
761.33783
30
50.63161
11
445.51276
21
761.33783
31
50.63161
12
445.51276
22
539.25342
32
50.63161
13
645.51300
23
539.25342
33
50.63161
0
3DFACE
8
layer1
62
1
10
645.51300
20
761.33783
30
-72.65672
11
645.51300
21
761.33783
31
50.63161
12
645.51300
22
539.25342
32
50.63161
13
645.51300
23
539.25342
33
-72.65672
0
3DFACE
8
layer1
62
1
10
645.51300
20
761.33783
30
-72.65672
11
445.51276
21
761.33783
31
-72.65672
12
445.51276
22
761.33783
32
50.63161
13
645.51300
23
761.33783
33
50.63161
0
3DFACE
8
layer1
62
1
10
645.51300
20
539.25342
30
50.63161
11
445.51276
21
539.25342
31
50.63161
12
445.51276
22
539.25342
32
-72.65672
13
645.51300
23
539.25342
33
-72.65672
0
3DFACE
8
layer1
62
1
10
1829.46069
20
761.33783
30
50.63161
11
1629.46069
21
761.33783
31
50.63161
12
1629.46069
22
539.25342
32
50.63161
13
1829.46069
23
539.25342
33
50.63161
0
3DFACE
8
layer1
62
1
10
1829.46069
20
761.33783
30
-72.65672
11
1829.46069
21
761.33783
31
50.63161
12
1829.46069
22
539.25342
32
50.63161
13
1829.46069
23
539.25342
33
-72.65672
0
3DFACE
8
layer1
62
1
10
1829.46069
20
761.33783
30
-72.65672
11
1629.46069
21
761.33783
31
-72.65672
12
1629.46069
22
761.33783
32
50.63161
13
1829.46069
23
761.33783
33
50.63161
0
3DFACE
8
layer1
62
1
10
1829.46069
20
539.25342
30
50.63161
11
1629.46069
21
539.25342
31
50.63161
12
1629.46069
22
539.25342
32
-72.65672
13
1829.46069
23
539.25342
33
-72.65672
0
3DFACE
8
layer1
62
1
10
-1239.12134
20
575.59448
30
61.64417
11
-1239.12134
21
353.51038
31
61.64417
12
-1039.12134
22
353.51038
32
61.64417
13
-1039.12134
23
575.59448
33
61.64417
0
3DFACE
8
layer1
62
1
10
-1039.12134
20
575.59448
30
61.64417
11
-1039.12134
21
353.51038
31
61.64417
12
-1039.12134
22
353.51038
32
-61.64416
13
-1039.12134
23
575.59448
33
-61.64416
0
3DFACE
8
layer1
62
1
10
-1239.12134
20
575.59448
30
-61.64416
11
-1239.12134
21
353.51038
31
-61.64416
12
-1239.12134
22
353.51038
32
61.64417
13
-1239.12134
23
575.59448
33
61.64417
0
3DFACE
8
layer1
62
1
10
-1239.12134
20
575.59448
30
-61.64416
11
-1239.12134
21
575.59448
31
61.64417
12
-1039.12134
22
575.59448
32
61.64417
13
-1039.12134
23
575.59448
33
-61.64416
0
3DFACE
8
layer1
62
1
10
-1239.12134
20
353.51038
30
61.64417
11
-1239.12134
21
353.51038
31
-61.64416
12
-1039.12134
22
353.51038
32
-61.64416
13
-1039.12134
23
353.51038
33
61.64417
0
3DFACE
8
layer1
62
1
10
-1040.94702
20
575.59448
30
55.22405
11
-1040.94702
21
353.51038
31
55.22405
12
-840.94708
22
353.51038
32
55.22405
13
-840.94708
23
575.59448
33
55.22405
0
3DFACE
8
layer1
62
1
10
-1040.94702
20
575.59448
30
-68.06429
11
-1040.94702
21
353.51038
31
-68.06429
12
-1040.94702
22
353.51038
32
55.22405
13
-1040.94702
23
575.59448
33
55.22405
0
3DFACE
8
layer1
62
1
10
-1040.94702
20
575.59448
30
-68.06429
11
-1040.94702
21
575.59448
31
55.22405
12
-840.94708
22
575.59448
32
55.22405
13
-840.94708
23
575.59448
33
-68.06429
0
3DFACE
8
layer1
62
1
10
-1040.94702
20
353.51038
30
55.22405
11
-1040.94702
21
353.51038
31
-68.06429
12
-840.94708
22
353.51038
32
-68.06429
13
-840.94708
23
353.51038
33
55.22405
0
3DFACE
8
layer1
62
1
10
-1633.64941
20
575.59448
30
61.64417
11
-1633.64941
21
353.51038
31
61.64417
12
-1433.64966
22
353.51038
32
61.64417
13
-1433.64966
23
575.59448
33
61.64417
0
3DFACE
8
layer1
62
1
10
-1433.64966
20
575.59448
30
61.64417
11
-1433.64966
21
353.51038
31
61.64417
12
-1433.64966
22
353.51038
32
-61.64416
13
-1433.64966
23
575.59448
33
-61.64416
0
3DFACE
8
layer1
62
1
10
-1633.64941
20
575.59448
30
-61.64416
11
-1633.64941
21
353.51038
31
-61.64416
12
-1633.64941
22
353.51038
32
61.64417
13
-1633.64941
23
575.59448
33
61.64417
0
3DFACE
8
layer1
62
1
10
-1633.64941
20
575.59448
30
-61.64416
11
-1633.64941
21
575.59448
31
61.64417
12
-1433.64966
22
575.59448
32
61.64417
13
-1433.64966
23
575.59448
33
-61.64416
0
3DFACE
8
layer1
62
1
10
-1633.64941
20
353.51038
30
61.64417
11
-1633.64941
21
353.51038
31
-61.64416
12
-1433.64966
22
353.51038
32
-61.64416
13
-1433.64966
23
353.51038
33
61.64417
0
3DFACE
8
layer1
62
1
10
-1435.47534
20
575.59448
30
55.22405
11
-1435.47534
21
353.51038
31
55.22405
12
-1235.47510
22
353.51038
32
55.22405
13
-1235.47510
23
575.59448
33
55.22405
0
3DFACE
8
layer1
62
1
10
-1435.47534
20
575.59448
30
-68.06429
11
-1435.47534
21
353.51038
31
-68.06429
12
-1435.47534
22
353.51038
32
55.22405
13
-1435.47534
23
575.59448
33
55.22405
0
3DFACE
8
layer1
62
1
10
-1435.47534
20
575.59448
30
-68.06429
11
-1435.47534
21
575.59448
31
55.22405
12
-1235.47510
22
575.59448
32
55.22405
13
-1235.47510
23
575.59448
33
-68.06429
0
3DFACE
8
layer1
62
1
10
-1435.47534
20
353.51038
30
55.22405
11
-1435.47534
21
353.51038
31
-68.06429
12
-1235.47510
22
353.51038
32
-68.06429
13
-1235.47510
23
353.51038
33
55.22405
0
3DFACE
8
layer1
62
1
10
-843.68719
20
575.59448
30
61.64417
11
-843.68719
21
353.51038
31
61.64417
12
-643.68719
22
353.51038
32
61.64417
13
-643.68719
23
575.59448
33
61.64417
0
3DFACE
8
layer1
62
1
10
-643.68719
20
575.59448
30
61.64417
11
-643.68719
21
353.51038
31
61.64417
12
-643.68719
22
353.51038
32
-61.64416
13
-643.68719
23
575.59448
33
-61.64416
0
3DFACE
8
layer1
62
1
10
-843.68719
20
575.59448
30
-61.64416
11
-843.68719
21
353.51038
31
-61.64416
12
-843.68719
22
353.51038
32
61.64417
13
-843.68719
23
575.59448
33
61.64417
0
3DFACE
8
layer1
62
1
10
-843.68719
20
575.59448
30
-61.64416
11
-843.68719
21
575.59448
31
61.64417
12
-643.68719
22
575.59448
32
61.64417
13
-643.68719
23
575.59448
33
-61.64416
0
3DFACE
8
layer1
62
1
10
-843.68719
20
353.51038
30
61.64417
11
-843.68719
21
353.51038
31
-61.64416
12
-643.68719
22
353.51038
32
-61.64416
13
-643.68719
23
353.51038
33
61.64417
0
3DFACE
8
layer1
62
1
10
-645.51300
20
575.59448
30
55.22405
11
-645.51300
21
353.51038
31
55.22405
12
-445.51276
22
353.51038
32
55.22405
13
-445.51276
23
575.59448
33
55.22405
0
3DFACE
8
layer1
62
1
10
-645.51300
20
575.59448
30
-68.06429
11
-645.51300
21
353.51038
31
-68.06429
12
-645.51300
22
353.51038
32
55.22405
13
-645.51300
23
575.59448
33
55.22405
0
3DFACE
8
layer1
62
1
10
-645.51300
20
575.59448
30
-68.06429
11
-645.51300
21
575.59448
31
55.22405
12
-445.51276
22
575.59448
32
55.22405
13
-445.51276
23
575.59448
33
-68.06429
0
3DFACE
8
layer1
62
1
10
-645.51300
20
353.51038
30
55.22405
11
-645.51300
21
353.51038
31
-68.06429
12
-445.51276
22
353.51038
32
-68.06429
13
-445.51276
23
353.51038
33
55.22405
0
3DFACE
8
layer1
62
1
10
-1829.46069
20
575.59448
30
55.22405
11
-1829.46069
21
353.51038
31
55.22405
12
-1629.46069
22
353.51038
32
55.22405
13
-1629.46069
23
575.59448
33
55.22405
0
3DFACE
8
layer1
62
1
10
-1829.46069
20
575.59448
30
-68.06429
11
-1829.46069
21
353.51038
31
-68.06429
12
-1829.46069
22
353.51038
32
55.22405
13
-1829.46069
23
575.59448
33
55.22405
0
3DFACE
8
layer1
62
1
10
-1829.46069
20
575.59448
30
-68.06429
11
-1829.46069
21
575.59448
31
55.22405
12
-1629.46069
22
575.59448
32
55.22405
13
-1629.46069
23
575.59448
33
-68.06429
0
3DFACE
8
layer1
62
1
10
-1829.46069
20
353.51038
30
55.22405
11
-1829.46069
21
353.51038
31
-68.06429
12
-1629.46069
22
353.51038
32
-68.06429
13
-1629.46069
23
353.51038
33
55.22405
0
3DFACE
8
layer1
62
1
10
-1239.12134
20
761.33783
30
57.05172
11
-1239.12134
21
539.25342
31
57.05172
12
-1039.12134
22
539.25342
32
57.05172
13
-1039.12134
23
761.33783
33
57.05172
0
3DFACE
8
layer1
62
1
10
-1039.12134
20
761.33783
30
57.05172
11
-1039.12134
21
539.25342
31
57.05172
12
-1039.12134
22
539.25342
32
-66.23660
13
-1039.12134
23
761.33783
33
-66.23660
0
3DFACE
8
layer1
62
1
10
-1239.12134
20
761.33783
30
-66.23660
11
-1239.12134
21
539.25342
31
-66.23660
12
-1239.12134
22
539.25342
32
57.05172
13
-1239.12134
23
761.33783
33
57.05172
0
3DFACE
8
layer1
62
1
10
-1239.12134
20
761.33783
30
-66.23660
11
-1239.12134
21
761.33783
31
57.05172
12
-1039.12134
22
761.33783
32
57.05172
13
-1039.12134
23
761.33783
33
-66.23660
0
3DFACE
8
layer1
62
1
10
-1239.12134
20
539.25342
30
57.05172
11
-1239.12134
21
539.25342
31
-66.23660
12
-1039.12134
22
539.25342
32
-66.23660
13
-1039.12134
23
539.25342
33
57.05172
0
3DFACE
8
layer1
62
1
10
-1040.94702
20
761.33783
30
50.63161
11
-1040.94702
21
539.25342
31
50.63161
12
-840.94708
22
539.25342
32
50.63161
13
-840.94708
23
761.33783
33
50.63161
0
3DFACE
8
layer1
62
1
10
-1040.94702
20
761.33783
30
-72.65672
11
-1040.94702
21
539.25342
31
-72.65672
12
-1040.94702
22
539.25342
32
50.63161
13
-1040.94702
23
761.33783
33
50.63161
0
3DFACE
8
layer1
62
1
10
-1040.94702
20
761.33783
30
-72.65672
11
-1040.94702
21
761.33783
31
50.63161
12
-840.94708
22
761.33783
32
50.63161
13
-840.94708
23
761.33783
33
-72.65672
0
3DFACE
8
layer1
62
1
10
-1040.94702
20
539.25342
30
50.63161
11
-1040.94702
21
539.25342
31
-72.65672
12
-840.94708
22
539.25342
32
-72.65672
13
-840.94708
23
539.25342
33
50.63161
0
3DFACE
8
layer1
62
1
10
-1633.64941
20
761.33783
30
57.05172
11
-1633.64941
21
539.25342
31
57.05172
12
-1433.64966
22
539.25342
32
57.05172
13
-1433.64966
23
761.33783
33
57.05172
0
3DFACE
8
layer1
62
1
10
-1433.64966
20
761.33783
30
57.05172
11
-1433.64966
21
539.25342
31
57.05172
12
-1433.64966
22
539.25342
32
-66.23660
13
-1433.64966
23
761.33783
33
-66.23660
0
3DFACE
8
layer1
62
1
10
-1633.64941
20
761.33783
30
-66.23660
11
-1633.64941
21
539.25342
31
-66.23660
12
-1633.64941
22
539.25342
32
57.05172
13
-1633.64941
23
761.33783
33
57.05172
0
3DFACE
8
layer1
62
1
10
-1633.64941
20
761.33783
30
-66.23660
11
-1633.64941
21
761.33783
31
57.05172
12
-1433.64966
22
761.33783
32
57.05172
13
-1433.64966
23
761.33783
33
-66.23660
0
3DFACE
8
layer1
62
1
10
-1633.64941
20
539.25342
30
57.05172
11
-1633.64941
21
539.25342
31
-66.23660
12
-1433.64966
22
539.25342
32
-66.23660
13
-1433.64966
23
539.25342
33
57.05172
0
3DFACE
8
layer1
62
1
10
-1435.47534
20
761.33783
30
50.63161
11
-1435.47534
21
539.25342
31
50.63161
12
-1235.47510
22
539.25342
32
50.63161
13
-1235.47510
23
761.33783
33
50.63161
0
3DFACE
8
layer1
62
1
10
-1435.47534
20
761.33783
30
-72.65672
11
-1435.47534
21
539.25342
31
-72.65672
12
-1435.47534
22
539.25342
32
50.63161
13
-1435.47534
23
761.33783
33
50.63161
0
3DFACE
8
layer1
62
1
10
-1435.47534
20
761.33783
30
-72.65672
11
-1435.47534
21
761.33783
31
50.63161
12
-1235.47510
22
761.33783
32
50.63161
13
-1235.47510
23
761.33783
33
-72.65672
0
3DFACE
8
layer1
62
1
10
-1435.47534
20
539.25342
30
50.63161
11
-1435.47534
21
539.25342
31
-72.65672
12
-1235.47510
22
539.25342
32
-72.65672
13
-1235.47510
23
539.25342
33
50.63161
0
3DFACE
8
layer1
62
1
10
-843.68719
20
761.33783
30
57.05172
11
-843.68719
21
539.25342
31
57.05172
12
-643.68719
22
539.25342
32
57.05172
13
-643.68719
23
761.33783
33
57.05172
0
3DFACE
8
layer1
62
1
10
-643.68719
20
761.33783
30
57.05172
11
-643.68719
21
539.25342
31
57.05172
12
-643.68719
22
539.25342
32
-66.23660
13
-643.68719
23
761.33783
33
-66.23660
0
3DFACE
8
layer1
62
1
10
-843.68719
20
761.33783
30
-66.23660
11
-843.68719
21
539.25342
31
-66.23660
12
-843.68719
22
539.25342
32
57.05172
13
-843.68719
23
761.33783
33
57.05172
0
3DFACE
8
layer1
62
1
10
-843.68719
20
761.33783
30
-66.23660
11
-843.68719
21
761.33783
31
57.05172
12
-643.68719
22
761.33783
32
57.05172
13
-643.68719
23
761.33783
33
-66.23660
0
3DFACE
8
layer1
62
1
10
-843.68719
20
539.25342
30
57.05172
11
-843.68719
21
539.25342
31
-66.23660
12
-643.68719
22
539.25342
32
-66.23660
13
-643.68719
23
539.25342
33
57.05172
0
3DFACE
8
layer1
62
1
10
-645.51300
20
761.33783
30
50.63161
11
-645.51300
21
539.25342
31
50.63161
12
-445.51276
22
539.25342
32
50.63161
13
-445.51276
23
761.33783
33
50.63161
0
3DFACE
8
layer1
62
1
10
-645.51300
20
761.33783
30
-72.65672
11
-645.51300
21
539.25342
31
-72.65672
12
-645.51300
22
539.25342
32
50.63161
13
-645.51300
23
761.33783
33
50.63161
0
3DFACE
8
layer1
62
1
10
-645.51300
20
761.33783
30
-72.65672
11
-645.51300
21
761.33783
31
50.63161
12
-445.51276
22
761.33783
32
50.63161
13
-445.51276
23
761.33783
33
-72.65672
0
3DFACE
8
layer1
62
1
10
-645.51300
20
539.25342
30
50.63161
11
-645.51300
21
539.25342
31
-72.65672
12
-445.51276
22
539.25342
32
-72.65672
13
-445.51276
23
539.25342
33
50.63161
0
3DFACE
8
layer1
62
1
10
-1829.46069
20
761.33783
30
50.63161
11
-1829.46069
21
539.25342
31
50.63161
12
-1629.46069
22
539.25342
32
50.63161
13
-1629.46069
23
761.33783
33
50.63161
0
3DFACE
8
layer1
62
1
10
-1829.46069
20
761.33783
30
-72.65672
11
-1829.46069
21
539.25342
31
-72.65672
12
-1829.46069
22
539.25342
32
50.63161
13
-1829.46069
23
761.33783
33
50.63161
0
3DFACE
8
layer1
62
1
10
-1829.46069
20
761.33783
30
-72.65672
11
-1829.46069
21
761.33783
31
50.63161
12
-1629.46069
22
761.33783
32
50.63161
13
-1629.46069
23
761.33783
33
-72.65672
0
3DFACE
8
layer1
62
1
10
-1829.46069
20
539.25342
30
50.63161
11
-1829.46069
21
539.25342
31
-72.65672
12
-1629.46069
22
539.25342
32
-72.65672
13
-1629.46069
23
539.25342
33
50.63161
0
3DFACE
8
layer1
62
1
10
1239.12134
20
962.32294
30
61.64417
11
1039.12134
21
962.32294
31
61.64417
12
1039.12134
22
740.23871
32
61.64417
13
1239.12134
23
740.23871
33
61.64417
0
3DFACE
8
layer1
62
1
10
1039.12134
20
962.32294
30
61.64417
11
1039.12134
21
962.32294
31
-61.64416
12
1039.12134
22
740.23871
32
-61.64416
13
1039.12134
23
740.23871
33
61.64417
0
3DFACE
8
layer1
62
1
10
1239.12134
20
962.32294
30
-61.64416
11
1239.12134
21
962.32294
31
61.64417
12
1239.12134
22
740.23871
32
61.64417
13
1239.12134
23
740.23871
33
-61.64416
0
3DFACE
8
layer1
62
1
10
1239.12134
20
962.32294
30
-61.64416
11
1039.12134
21
962.32294
31
-61.64416
12
1039.12134
22
962.32294
32
61.64417
13
1239.12134
23
962.32294
33
61.64417
0
3DFACE
8
layer1
62
1
10
1239.12134
20
740.23871
30
61.64417
11
1039.12134
21
740.23871
31
61.64417
12
1039.12134
22
740.23871
32
-61.64416
13
1239.12134
23
740.23871
33
-61.64416
0
3DFACE
8
layer1
62
1
10
1040.94702
20
962.32294
30
55.22405
11
840.94708
21
962.32294
31
55.22405
12
840.94708
22
740.23871
32
55.22405
13
1040.94702
23
740.23871
33
55.22405
0
3DFACE
8
layer1
62
1
10
1040.94702
20
962.32294
30
-68.06429
11
1040.94702
21
962.32294
31
55.22405
12
1040.94702
22
740.23871
32
55.22405
13
1040.94702
23
740.23871
33
-68.06429
0
3DFACE
8
layer1
62
1
10
1040.94702
20
962.32294
30
-68.06429
11
840.94708
21
962.32294
31
-68.06429
12
840.94708
22
962.32294
32
55.22405
13
1040.94702
23
962.32294
33
55.22405
0
3DFACE
8
layer1
62
1
10
1040.94702
20
740.23871
30
55.22405
11
840.94708
21
740.23871
31
55.22405
12
840.94708
22
740.23871
32
-68.06429
13
1040.94702
23
740.23871
33
-68.06429
0
3DFACE
8
layer1
62
1
10
1633.64941
20
962.32294
30
61.64417
11
1433.64966
21
962.32294
31
61.64417
12
1433.64966
22
740.23871
32
61.64417
13
1633.64941
23
740.23871
33
61.64417
0
3DFACE
8
layer1
62
1
10
1433.64966
20
962.32294
30
61.64417
11
1433.64966
21
962.32294
31
-61.64416
12
1433.64966
22
740.23871
32
-61.64416
13
1433.64966
23
740.23871
33
61.64417
0
3DFACE
8
layer1
62
1
10
1633.64941
20
962.32294
30
-61.64416
11
1633.64941
21
962.32294
31
61.64417
12
1633.64941
22
740.23871
32
61.64417
13
1633.64941
23
740.23871
33
-61.64416
0
3DFACE
8
layer1
62
1
10
1633.64941
20
962.32294
30
-61.64416
11
1433.64966
21
962.32294
31
-61.64416
12
1433.64966
22
962.32294
32
61.64417
13
1633.64941
23
962.32294
33
61.64417
0
3DFACE
8
layer1
62
1
10
1633.64941
20
740.23871
30
61.64417
11
1433.64966
21
740.23871
31
61.64417
12
1433.64966
22
740.23871
32
-61.64416
13
1633.64941
23
740.23871
33
-61.64416
0
3DFACE
8
layer1
62
1
10
1435.47534
20
962.32294
30
55.22405
11
1235.47510
21
962.32294
31
55.22405
12
1235.47510
22
740.23871
32
55.22405
13
1435.47534
23
740.23871
33
55.22405
0
3DFACE
8
layer1
62
1
10
1435.47534
20
962.32294
30
-68.06429
11
1435.47534
21
962.32294
31
55.22405
12
1435.47534
22
740.23871
32
55.22405
13
1435.47534
23
740.23871
33
-68.06429
0
3DFACE
8
layer1
62
1
10
1435.47534
20
962.32294
30
-68.06429
11
1235.47510
21
962.32294
31
-68.06429
12
1235.47510
22
962.32294
32
55.22405
13
1435.47534
23
962.32294
33
55.22405
0
3DFACE
8
layer1
62
1
10
1435.47534
20
740.23871
30
55.22405
11
1235.47510
21
740.23871
31
55.22405
12
1235.47510
22
740.23871
32
-68.06429
13
1435.47534
23
740.23871
33
-68.06429
0
3DFACE
8
layer1
62
1
10
843.68719
20
962.32294
30
61.64417
11
643.68719
21
962.32294
31
61.64417
12
643.68719
22
740.23871
32
61.64417
13
843.68719
23
740.23871
33
61.64417
0
3DFACE
8
layer1
62
1
10
643.68719
20
962.32294
30
61.64417
11
643.68719
21
962.32294
31
-61.64416
12
643.68719
22
740.23871
32
-61.64416
13
643.68719
23
740.23871
33
61.64417
0
3DFACE
8
layer1
62
1
10
843.68719
20
962.32294
30
-61.64416
11
843.68719
21
962.32294
31
61.64417
12
843.68719
22
740.23871
32
61.64417
13
843.68719
23
740.23871
33
-61.64416
0
3DFACE
8
layer1
62
1
10
843.68719
20
962.32294
30
-61.64416
11
643.68719
21
962.32294
31
-61.64416
12
643.68719
22
962.32294
32
61.64417
13
843.68719
23
962.32294
33
61.64417
0
3DFACE
8
layer1
62
1
10
843.68719
20
740.23871
30
61.64417
11
643.68719
21
740.23871
31
61.64417
12
643.68719
22
740.23871
32
-61.64416
13
843.68719
23
740.23871
33
-61.64416
0
3DFACE
8
layer1
62
1
10
645.51300
20
962.32294
30
55.22405
11
341.34253
21
962.32294
31
55.22405
12
445.51276
22
740.23871
32
55.22405
13
645.51300
23
740.23871
33
55.22405
0
3DFACE
8
layer1
62
1
10
645.51300
20
962.32294
30
-68.06429
11
645.51300
21
962.32294
31
55.22405
12
645.51300
22
740.23871
32
55.22405
13
645.51300
23
740.23871
33
-68.06429
0
3DFACE
8
layer1
62
1
10
645.51300
20
962.32294
30
-68.06429
11
445.51276
21
962.32294
31
-68.06429
12
341.34253
22
962.32294
32
55.22405
13
645.51300
23
962.32294
33
55.22405
0
3DFACE
8
layer1
62
1
10
645.51300
20
740.23871
30
55.22405
11
445.51276
21
740.23871
31
55.22405
12
445.51276
22
740.23871
32
-68.06429
13
645.51300
23
740.23871
33
-68.06429
0
3DFACE
8
layer1
62
1
10
1829.46069
20
962.32294
30
55.22405
11
1629.46069
21
962.32294
31
55.22405
12
1629.46069
22
740.23871
32
55.22405
13
1829.46069
23
740.23871
33
55.22405
0
3DFACE
8
layer1
62
1
10
1829.46069
20
962.32294
30
-68.06429
11
1829.46069
21
962.32294
31
55.22405
12
1829.46069
22
740.23871
32
55.22405
13
1829.46069
23
740.23871
33
-68.06429
0
3DFACE
8
layer1
62
1
10
1829.46069
20
962.32294
30
-68.06429
11
1629.46069
21
962.32294
31
-68.06429
12
1629.46069
22
962.32294
32
55.22405
13
1829.46069
23
962.32294
33
55.22405
0
3DFACE
8
layer1
62
1
10
1829.46069
20
740.23871
30
55.22405
11
1629.46069
21
740.23871
31
55.22405
12
1629.46069
22
740.23871
32
-68.06429
13
1829.46069
23
740.23871
33
-68.06429
0
3DFACE
8
layer1
62
1
10
1239.12134
20
1148.06506
30
57.05172
11
1039.12134
21
1148.06506
31
57.05172
12
1039.12134
22
925.98181
32
57.05172
13
1239.12134
23
925.98181
33
57.05172
0
3DFACE
8
layer1
62
1
10
1039.12134
20
1148.06506
30
57.05172
11
1039.12134
21
1148.06506
31
-66.23660
12
1039.12134
22
925.98181
32
-66.23660
13
1039.12134
23
925.98181
33
57.05172
0
3DFACE
8
layer1
62
1
10
1239.12134
20
1148.06506
30
-66.23660
11
1239.12134
21
1148.06506
31
57.05172
12
1239.12134
22
925.98181
32
57.05172
13
1239.12134
23
925.98181
33
-66.23660
0
3DFACE
8
layer1
62
1
10
1239.12134
20
1148.06506
30
-66.23660
11
1039.12134
21
1148.06506
31
-66.23660
12
1039.12134
22
1148.06506
32
57.05172
13
1239.12134
23
1148.06506
33
57.05172
0
3DFACE
8
layer1
62
1
10
1239.12134
20
925.98181
30
57.05172
11
1039.12134
21
925.98181
31
57.05172
12
1039.12134
22
925.98181
32
-66.23660
13
1239.12134
23
925.98181
33
-66.23660
0
3DFACE
8
layer1
62
1
10
1040.94702
20
1148.06506
30
50.63161
11
840.94708
21
1148.06506
31
50.63161
12
840.94708
22
925.98181
32
50.63161
13
1040.94702
23
925.98181
33
50.63161
0
3DFACE
8
layer1
62
1
10
1040.94702
20
1148.06506
30
-72.65672
11
1040.94702
21
1148.06506
31
50.63161
12
1040.94702
22
925.98181
32
50.63161
13
1040.94702
23
925.98181
33
-72.65672
0
3DFACE
8
layer1
62
1
10
1040.94702
20
1148.06506
30
-72.65672
11
840.94708
21
1148.06506
31
-72.65672
12
840.94708
22
1148.06506
32
50.63161
13
1040.94702
23
1148.06506
33
50.63161
0
3DFACE
8
layer1
62
1
10
1040.94702
20
925.98181
30
50.63161
11
840.94708
21
925.98181
31
50.63161
12
840.94708
22
925.98181
32
-72.65672
13
1040.94702
23
925.98181
33
-72.65672
0
3DFACE
8
layer1
62
1
10
1633.64941
20
1148.06506
30
57.05172
11
1433.64966
21
1148.06506
31
57.05172
12
1433.64966
22
925.98181
32
57.05172
13
1633.64941
23
925.98181
33
57.05172
0
3DFACE
8
layer1
62
1
10
1433.64966
20
1148.06506
30
57.05172
11
1433.64966
21
1148.06506
31
-66.23660
12
1433.64966
22
925.98181
32
-66.23660
13
1433.64966
23
925.98181
33
57.05172
0
3DFACE
8
layer1
62
1
10
1633.64941
20
1148.06506
30
-66.23660
11
1633.64941
21
1148.06506
31
57.05172
12
1633.64941
22
925.98181
32
57.05172
13
1633.64941
23
925.98181
33
-66.23660
0
3DFACE
8
layer1
62
1
10
1633.64941
20
1148.06506
30
-66.23660
11
1433.64966
21
1148.06506
31
-66.23660
12
1433.64966
22
1148.06506
32
57.05172
13
1633.64941
23
1148.06506
33
57.05172
0
3DFACE
8
layer1
62
1
10
1633.64941
20
925.98181
30
57.05172
11
1433.64966
21
925.98181
31
57.05172
12
1433.64966
22
925.98181
32
-66.23660
13
1633.64941
23
925.98181
33
-66.23660
0
3DFACE
8
layer1
62
1
10
1435.47534
20
1148.06506
30
50.63161
11
1235.47510
21
1148.06506
31
50.63161
12
1235.47510
22
925.98181
32
50.63161
13
1435.47534
23
925.98181
33
50.63161
0
3DFACE
8
layer1
62
1
10
1435.47534
20
1148.06506
30
-72.65672
11
1435.47534
21
1148.06506
31
50.63161
12
1435.47534
22
925.98181
32
50.63161
13
1435.47534
23
925.98181
33
-72.65672
0
3DFACE
8
layer1
62
1
10
1435.47534
20
1148.06506
30
-72.65672
11
1235.47510
21
1148.06506
31
-72.65672
12
1235.47510
22
1148.06506
32
50.63161
13
1435.47534
23
1148.06506
33
50.63161
0
3DFACE
8
layer1
62
1
10
1435.47534
20
925.98181
30
50.63161
11
1235.47510
21
925.98181
31
50.63161
12
1235.47510
22
925.98181
32
-72.65672
13
1435.47534
23
925.98181
33
-72.65672
0
3DFACE
8
layer1
62
1
10
843.68719
20
1148.06506
30
57.05172
11
643.68719
21
1148.06506
31
57.05172
12
643.68719
22
925.98181
32
57.05172
13
843.68719
23
925.98181
33
57.05172
0
3DFACE
8
layer1
62
1
10
643.68719
20
1148.06506
30
57.05172
11
643.68719
21
1148.06506
31
-66.23660
12
643.68719
22
925.98181
32
-66.23660
13
643.68719
23
925.98181
33
57.05172
0
3DFACE
8
layer1
62
1
10
843.68719
20
1148.06506
30
-66.23660
11
843.68719
21
1148.06506
31
57.05172
12
843.68719
22
925.98181
32
57.05172
13
843.68719
23
925.98181
33
-66.23660
0
3DFACE
8
layer1
62
1
10
843.68719
20
1148.06506
30
-66.23660
11
643.68719
21
1148.06506
31
-66.23660
12
643.68719
22
1148.06506
32
57.05172
13
843.68719
23
1148.06506
33
57.05172
0
3DFACE
8
layer1
62
1
10
843.68719
20
925.98181
30
57.05172
11
643.68719
21
925.98181
31
57.05172
12
643.68719
22
925.98181
32
-66.23660
13
843.68719
23
925.98181
33
-66.23660
0
3DFACE
8
layer1
62
1
10
645.51300
20
1148.06506
30
50.63161
11
194.87582
21
1148.06506
31
50.63161
12
368.76590
22
925.98181
32
50.63161
13
645.51300
23
925.98181
33
50.63161
0
3DFACE
8
layer1
62
1
10
645.51300
20
1148.06506
30
-72.65672
11
645.51300
21
1148.06506
31
50.63161
12
645.51300
22
925.98181
32
50.63161
13
645.51300
23
925.98181
33
-72.65672
0
3DFACE
8
layer1
62
1
10
645.51300
20
1148.06506
30
-72.65672
11
445.51276
21
1148.06506
31
-72.65672
12
194.87582
22
1148.06506
32
50.63161
13
645.51300
23
1148.06506
33
50.63161
0
3DFACE
8
layer1
62
1
10
645.51300
20
925.98181
30
50.63161
11
368.76590
21
925.98181
31
50.63161
12
445.51276
22
925.98181
32
-72.65672
13
645.51300
23
925.98181
33
-72.65672
0
3DFACE
8
layer1
62
1
10
1829.46069
20
1148.06506
30
50.63161
11
1629.46069
21
1148.06506
31
50.63161
12
1629.46069
22
925.98181
32
50.63161
13
1829.46069
23
925.98181
33
50.63161
0
3DFACE
8
layer1
62
1
10
1829.46069
20
1148.06506
30
-72.65672
11
1829.46069
21
1148.06506
31
50.63161
12
1829.46069
22
925.98181
32
50.63161
13
1829.46069
23
925.98181
33
-72.65672
0
3DFACE
8
layer1
62
1
10
1829.46069
20
1148.06506
30
-72.65672
11
1629.46069
21
1148.06506
31
-72.65672
12
1629.46069
22
1148.06506
32
50.63161
13
1829.46069
23
1148.06506
33
50.63161
0
3DFACE
8
layer1
62
1
10
1829.46069
20
925.98181
30
50.63161
11
1629.46069
21
925.98181
31
50.63161
12
1629.46069
22
925.98181
32
-72.65672
13
1829.46069
23
925.98181
33
-72.65672
0
3DFACE
8
layer1
62
1
10
-1239.12134
20
962.32294
30
61.64417
11
-1239.12134
21
740.23871
31
61.64417
12
-1039.12134
22
740.23871
32
61.64417
13
-1039.12134
23
962.32294
33
61.64417
0
3DFACE
8
layer1
62
1
10
-1039.12134
20
962.32294
30
61.64417
11
-1039.12134
21
740.23871
31
61.64417
12
-1039.12134
22
740.23871
32
-61.64416
13
-1039.12134
23
962.32294
33
-61.64416
0
3DFACE
8
layer1
62
1
10
-1239.12134
20
962.32294
30
-61.64416
11
-1239.12134
21
740.23871
31
-61.64416
12
-1239.12134
22
740.23871
32
61.64417
13
-1239.12134
23
962.32294
33
61.64417
0
3DFACE
8
layer1
62
1
10
-1239.12134
20
962.32294
30
-61.64416
11
-1239.12134
21
962.32294
31
61.64417
12
-1039.12134
22
962.32294
32
61.64417
13
-1039.12134
23
962.32294
33
-61.64416
0
3DFACE
8
layer1
62
1
10
-1239.12134
20
740.23871
30
61.64417
11
-1239.12134
21
740.23871
31
-61.64416
12
-1039.12134
22
740.23871
32
-61.64416
13
-1039.12134
23
740.23871
33
61.64417
0
3DFACE
8
layer1
62
1
10
-1040.94702
20
962.32294
30
55.22405
11
-1040.94702
21
740.23871
31
55.22405
12
-840.94708
22
740.23871
32
55.22405
13
-840.94708
23
962.32294
33
55.22405
0
3DFACE
8
layer1
62
1
10
-1040.94702
20
962.32294
30
-68.06429
11
-1040.94702
21
740.23871
31
-68.06429
12
-1040.94702
22
740.23871
32
55.22405
13
-1040.94702
23
962.32294
33
55.22405
0
3DFACE
8
layer1
62
1
10
-1040.94702
20
962.32294
30
-68.06429
11
-1040.94702
21
962.32294
31
55.22405
12
-840.94708
22
962.32294
32
55.22405
13
-840.94708
23
962.32294
33
-68.06429
0
3DFACE
8
layer1
62
1
10
-1040.94702
20
740.23871
30
55.22405
11
-1040.94702
21
740.23871
31
-68.06429
12
-840.94708
22
740.23871
32
-68.06429
13
-840.94708
23
740.23871
33
55.22405
0
3DFACE
8
layer1
62
1
10
-1633.64941
20
962.32294
30
61.64417
11
-1633.64941
21
740.23871
31
61.64417
12
-1433.64966
22
740.23871
32
61.64417
13
-1433.64966
23
962.32294
33
61.64417
0
3DFACE
8
layer1
62
1
10
-1433.64966
20
962.32294
30
61.64417
11
-1433.64966
21
740.23871
31
61.64417
12
-1433.64966
22
740.23871
32
-61.64416
13
-1433.64966
23
962.32294
33
-61.64416
0
3DFACE
8
layer1
62
1
10
-1633.64941
20
962.32294
30
-61.64416
11
-1633.64941
21
740.23871
31
-61.64416
12
-1633.64941
22
740.23871
32
61.64417
13
-1633.64941
23
962.32294
33
61.64417
0
3DFACE
8
layer1
62
1
10
-1633.64941
20
962.32294
30
-61.64416
11
-1633.64941
21
962.32294
31
61.64417
12
-1433.64966
22
962.32294
32
61.64417
13
-1433.64966
23
962.32294
33
-61.64416
0
3DFACE
8
layer1
62
1
10
-1633.64941
20
740.23871
30
61.64417
11
-1633.64941
21
740.23871
31
-61.64416
12
-1433.64966
22
740.23871
32
-61.64416
13
-1433.64966
23
740.23871
33
61.64417
0
3DFACE
8
layer1
62
1
10
-1435.47534
20
962.32294
30
55.22405
11
-1435.47534
21
740.23871
31
55.22405
12
-1235.47510
22
740.23871
32
55.22405
13
-1235.47510
23
962.32294
33
55.22405
0
3DFACE
8
layer1
62
1
10
-1435.47534
20
962.32294
30
-68.06429
11
-1435.47534
21
740.23871
31
-68.06429
12
-1435.47534
22
740.23871
32
55.22405
13
-1435.47534
23
962.32294
33
55.22405
0
3DFACE
8
layer1
62
1
10
-1435.47534
20
962.32294
30
-68.06429
11
-1435.47534
21
962.32294
31
55.22405
12
-1235.47510
22
962.32294
32
55.22405
13
-1235.47510
23
962.32294
33
-68.06429
0
3DFACE
8
layer1
62
1
10
-1435.47534
20
740.23871
30
55.22405
11
-1435.47534
21
740.23871
31
-68.06429
12
-1235.47510
22
740.23871
32
-68.06429
13
-1235.47510
23
740.23871
33
55.22405
0
3DFACE
8
layer1
62
1
10
-843.68719
20
962.32294
30
61.64417
11
-843.68719
21
740.23871
31
61.64417
12
-643.68719
22
740.23871
32
61.64417
13
-643.68719
23
962.32294
33
61.64417
0
3DFACE
8
layer1
62
1
10
-643.68719
20
962.32294
30
61.64417
11
-643.68719
21
740.23871
31
61.64417
12
-643.68719
22
740.23871
32
-61.64416
13
-643.68719
23
962.32294
33
-61.64416
0
3DFACE
8
layer1
62
1
10
-843.68719
20
962.32294
30
-61.64416
11
-843.68719
21
740.23871
31
-61.64416
12
-843.68719
22
740.23871
32
61.64417
13
-843.68719
23
962.32294
33
61.64417
0
3DFACE
8
layer1
62
1
10
-843.68719
20
962.32294
30
-61.64416
11
-843.68719
21
962.32294
31
61.64417
12
-643.68719
22
962.32294
32
61.64417
13
-643.68719
23
962.32294
33
-61.64416
0
3DFACE
8
layer1
62
1
10
-843.68719
20
740.23871
30
61.64417
11
-843.68719
21
740.23871
31
-61.64416
12
-643.68719
22
740.23871
32
-61.64416
13
-643.68719
23
740.23871
33
61.64417
0
3DFACE
8
layer1
62
1
10
-645.51300
20
962.32294
30
55.22405
11
-645.51300
21
740.23871
31
55.22405
12
-445.51276
22
740.23871
32
55.22405
13
-341.34253
23
962.32294
33
55.22405
0
3DFACE
8
layer1
62
1
10
-645.51300
20
962.32294
30
-68.06429
11
-645.51300
21
740.23871
31
-68.06429
12
-645.51300
22
740.23871
32
55.22405
13
-645.51300
23
962.32294
33
55.22405
0
3DFACE
8
layer1
62
1
10
-645.51300
20
962.32294
30
-68.06429
11
-645.51300
21
962.32294
31
55.22405
12
-341.34253
22
962.32294
32
55.22405
13
-445.51276
23
962.32294
33
-68.06429
0
3DFACE
8
layer1
62
1
10
-645.51300
20
740.23871
30
55.22405
11
-645.51300
21
740.23871
31
-68.06429
12
-445.51276
22
740.23871
32
-68.06429
13
-445.51276
23
740.23871
33
55.22405
0
3DFACE
8
layer1
62
1
10
-1829.46069
20
962.32294
30
55.22405
11
-1829.46069
21
740.23871
31
55.22405
12
-1629.46069
22
740.23871
32
55.22405
13
-1629.46069
23
962.32294
33
55.22405
0
3DFACE
8
layer1
62
1
10
-1829.46069
20
962.32294
30
-68.06429
11
-1829.46069
21
740.23871
31
-68.06429
12
-1829.46069
22
740.23871
32
55.22405
13
-1829.46069
23
962.32294
33
55.22405
0
3DFACE
8
layer1
62
1
10
-1829.46069
20
962.32294
30
-68.06429
11
-1829.46069
21
962.32294
31
55.22405
12
-1629.46069
22
962.32294
32
55.22405
13
-1629.46069
23
962.32294
33
-68.06429
0
3DFACE
8
layer1
62
1
10
-1829.46069
20
740.23871
30
55.22405
11
-1829.46069
21
740.23871
31
-68.06429
12
-1629.46069
22
740.23871
32
-68.06429
13
-1629.46069
23
740.23871
33
55.22405
0
3DFACE
8
layer1
62
1
10
-1239.12134
20
1148.06506
30
57.05172
11
-1239.12134
21
925.98181
31
57.05172
12
-1039.12134
22
925.98181
32
57.05172
13
-1039.12134
23
1148.06506
33
57.05172
0
3DFACE
8
layer1
62
1
10
-1039.12134
20
1148.06506
30
57.05172
11
-1039.12134
21
925.98181
31
57.05172
12
-1039.12134
22
925.98181
32
-66.23660
13
-1039.12134
23
1148.06506
33
-66.23660
0
3DFACE
8
layer1
62
1
10
-1239.12134
20
1148.06506
30
-66.23660
11
-1239.12134
21
925.98181
31
-66.23660
12
-1239.12134
22
925.98181
32
57.05172
13
-1239.12134
23
1148.06506
33
57.05172
0
3DFACE
8
layer1
62
1
10
-1239.12134
20
1148.06506
30
-66.23660
11
-1239.12134
21
1148.06506
31
57.05172
12
-1039.12134
22
1148.06506
32
57.05172
13
-1039.12134
23
1148.06506
33
-66.23660
0
3DFACE
8
layer1
62
1
10
-1239.12134
20
925.98181
30
57.05172
11
-1239.12134
21
925.98181
31
-66.23660
12
-1039.12134
22
925.98181
32
-66.23660
13
-1039.12134
23
925.98181
33
57.05172
0
3DFACE
8
layer1
62
1
10
-1040.94702
20
1148.06506
30
50.63161
11
-1040.94702
21
925.98181
31
50.63161
12
-840.94708
22
925.98181
32
50.63161
13
-840.94708
23
1148.06506
33
50.63161
0
3DFACE
8
layer1
62
1
10
-1040.94702
20
1148.06506
30
-72.65672
11
-1040.94702
21
925.98181
31
-72.65672
12
-1040.94702
22
925.98181
32
50.63161
13
-1040.94702
23
1148.06506
33
50.63161
0
3DFACE
8
layer1
62
1
10
-1040.94702
20
1148.06506
30
-72.65672
11
-1040.94702
21
1148.06506
31
50.63161
12
-840.94708
22
1148.06506
32
50.63161
13
-840.94708
23
1148.06506
33
-72.65672
0
3DFACE
8
layer1
62
1
10
-1040.94702
20
925.98181
30
50.63161
11
-1040.94702
21
925.98181
31
-72.65672
12
-840.94708
22
925.98181
32
-72.65672
13
-840.94708
23
925.98181
33
50.63161
0
3DFACE
8
layer1
62
1
10
-1633.64941
20
1148.06506
30
57.05172
11
-1633.64941
21
925.98181
31
57.05172
12
-1433.64966
22
925.98181
32
57.05172
13
-1433.64966
23
1148.06506
33
57.05172
0
3DFACE
8
layer1
62
1
10
-1433.64966
20
1148.06506
30
57.05172
11
-1433.64966
21
925.98181
31
57.05172
12
-1433.64966
22
925.98181
32
-66.23660
13
-1433.64966
23
1148.06506
33
-66.23660
0
3DFACE
8
layer1
62
1
10
-1633.64941
20
1148.06506
30
-66.23660
11
-1633.64941
21
925.98181
31
-66.23660
12
-1633.64941
22
925.98181
32
57.05172
13
-1633.64941
23
1148.06506
33
57.05172
0
3DFACE
8
layer1
62
1
10
-1633.64941
20
1148.06506
30
-66.23660
11
-1633.64941
21
1148.06506
31
57.05172
12
-1433.64966
22
1148.06506
32
57.05172
13
-1433.64966
23
1148.06506
33
-66.23660
0
3DFACE
8
layer1
62
1
10
-1633.64941
20
925.98181
30
57.05172
11
-1633.64941
21
925.98181
31
-66.23660
12
-1433.64966
22
925.98181
32
-66.23660
13
-1433.64966
23
925.98181
33
57.05172
0
3DFACE
8
layer1
62
1
10
-1435.47534
20
1148.06506
30
50.63161
11
-1435.47534
21
925.98181
31
50.63161
12
-1235.47510
22
925.98181
32
50.63161
13
-1235.47510
23
1148.06506
33
50.63161
0
3DFACE
8
layer1
62
1
10
-1435.47534
20
1148.06506
30
-72.65672
11
-1435.47534
21
925.98181
31
-72.65672
12
-1435.47534
22
925.98181
32
50.63161
13
-1435.47534
23
1148.06506
33
50.63161
0
3DFACE
8
layer1
62
1
10
-1435.47534
20
1148.06506
30
-72.65672
11
-1435.47534
21
1148.06506
31
50.63161
12
-1235.47510
22
1148.06506
32
50.63161
13
-1235.47510
23
1148.06506
33
-72.65672
0
3DFACE
8
layer1
62
1
10
-1435.47534
20
925.98181
30
50.63161
11
-1435.47534
21
925.98181
31
-72.65672
12
-1235.47510
22
925.98181
32
-72.65672
13
-1235.47510
23
925.98181
33
50.63161
0
3DFACE
8
layer1
62
1
10
-843.68719
20
1148.06506
30
57.05172
11
-843.68719
21
925.98181
31
57.05172
12
-643.68719
22
925.98181
32
57.05172
13
-643.68719
23
1148.06506
33
57.05172
0
3DFACE
8
layer1
62
1
10
-643.68719
20
1148.06506
30
57.05172
11
-643.68719
21
925.98181
31
57.05172
12
-643.68719
22
925.98181
32
-66.23660
13
-643.68719
23
1148.06506
33
-66.23660
0
3DFACE
8
layer1
62
1
10
-843.68719
20
1148.06506
30
-66.23660
11
-843.68719
21
925.98181
31
-66.23660
12
-843.68719
22
925.98181
32
57.05172
13
-843.68719
23
1148.06506
33
57.05172
0
3DFACE
8
layer1
62
1
10
-843.68719
20
1148.06506
30
-66.23660
11
-843.68719
21
1148.06506
31
57.05172
12
-643.68719
22
1148.06506
32
57.05172
13
-643.68719
23
1148.06506
33
-66.23660
0
3DFACE
8
layer1
62
1
10
-843.68719
20
925.98181
30
57.05172
11
-843.68719
21
925.98181
31
-66.23660
12
-643.68719
22
925.98181
32
-66.23660
13
-643.68719
23
925.98181
33
57.05172
0
3DFACE
8
layer1
62
1
10
-645.51300
20
1148.06506
30
50.63161
11
-645.51300
21
925.98181
31
50.63161
12
-368.76590
22
925.98181
32
50.63161
13
-194.87582
23
1148.06506
33
50.63161
0
3DFACE
8
layer1
62
1
10
-645.51300
20
1148.06506
30
-72.65672
11
-645.51300
21
925.98181
31
-72.65672
12
-645.51300
22
925.98181
32
50.63161
13
-645.51300
23
1148.06506
33
50.63161
0
3DFACE
8
layer1
62
1
10
-645.51300
20
1148.06506
30
-72.65672
11
-645.51300
21
1148.06506
31
50.63161
12
-194.87582
22
1148.06506
32
50.63161
13
-445.51276
23
1148.06506
33
-72.65672
0
3DFACE
8
layer1
62
1
10
-645.51300
20
925.98181
30
50.63161
11
-645.51300
21
925.98181
31
-72.65672
12
-445.51276
22
925.98181
32
-72.65672
13
-368.76590
23
925.98181
33
50.63161
0
3DFACE
8
layer1
62
1
10
-1829.46069
20
1148.06506
30
50.63161
11
-1829.46069
21
925.98181
31
50.63161
12
-1629.46069
22
925.98181
32
50.63161
13
-1629.46069
23
1148.06506
33
50.63161
0
3DFACE
8
layer1
62
1
10
-1829.46069
20
1148.06506
30
-72.65672
11
-1829.46069
21
925.98181
31
-72.65672
12
-1829.46069
22
925.98181
32
50.63161
13
-1829.46069
23
1148.06506
33
50.63161
0
3DFACE
8
layer1
62
1
10
-1829.46069
20
1148.06506
30
-72.65672
11
-1829.46069
21
1148.06506
31
50.63161
12
-1629.46069
22
1148.06506
32
50.63161
13
-1629.46069
23
1148.06506
33
-72.65672
0
3DFACE
8
layer1
62
1
10
-1829.46069
20
925.98181
30
50.63161
11
-1829.46069
21
925.98181
31
-72.65672
12
-1629.46069
22
925.98181
32
-72.65672
13
-1629.46069
23
925.98181
33
50.63161
0
3DFACE
8
layer1
62
1
10
1239.12134
20
1338.85803
30
61.64417
11
1039.12134
21
1338.85803
31
61.64417
12
1039.12134
22
1116.77454
32
61.64417
13
1239.12134
23
1116.77454
33
61.64417
0
3DFACE
8
layer1
62
1
10
1039.12134
20
1338.85803
30
61.64417
11
1039.12134
21
1338.85803
31
-61.64416
12
1039.12134
22
1116.77454
32
-61.64416
13
1039.12134
23
1116.77454
33
61.64417
0
3DFACE
8
layer1
62
1
10
1239.12134
20
1338.85803
30
-61.64416
11
1239.12134
21
1338.85803
31
61.64417
12
1239.12134
22
1116.77454
32
61.64417
13
1239.12134
23
1116.77454
33
-61.64416
0
3DFACE
8
layer1
62
1
10
1239.12134
20
1338.85803
30
-61.64416
11
1039.12134
21
1338.85803
31
-61.64416
12
1039.12134
22
1338.85803
32
61.64417
13
1239.12134
23
1338.85803
33
61.64417
0
3DFACE
8
layer1
62
1
10
1239.12134
20
1116.77454
30
61.64417
11
1039.12134
21
1116.77454
31
61.64417
12
1039.12134
22
1116.77454
32
-61.64416
13
1239.12134
23
1116.77454
33
-61.64416
0
3DFACE
8
layer1
62
1
10
1040.94702
20
1338.85803
30
55.22405
11
840.94708
21
1338.85803
31
55.22405
12
840.94708
22
1116.77454
32
55.22405
13
1040.94702
23
1116.77454
33
55.22405
0
3DFACE
8
layer1
62
1
10
1040.94702
20
1338.85803
30
-68.06429
11
1040.94702
21
1338.85803
31
55.22405
12
1040.94702
22
1116.77454
32
55.22405
13
1040.94702
23
1116.77454
33
-68.06429
0
3DFACE
8
layer1
62
1
10
1040.94702
20
1338.85803
30
-68.06429
11
840.94708
21
1338.85803
31
-68.06429
12
840.94708
22
1338.85803
32
55.22405
13
1040.94702
23
1338.85803
33
55.22405
0
3DFACE
8
layer1
62
1
10
1040.94702
20
1116.77454
30
55.22405
11
840.94708
21
1116.77454
31
55.22405
12
840.94708
22
1116.77454
32
-68.06429
13
1040.94702
23
1116.77454
33
-68.06429
0
3DFACE
8
layer1
62
1
10
1633.64941
20
1338.85803
30
61.64417
11
1433.64966
21
1338.85803
31
61.64417
12
1433.64966
22
1116.77454
32
61.64417
13
1633.64941
23
1116.77454
33
61.64417
0
3DFACE
8
layer1
62
1
10
1433.64966
20
1338.85803
30
61.64417
11
1433.64966
21
1338.85803
31
-61.64416
12
1433.64966
22
1116.77454
32
-61.64416
13
1433.64966
23
1116.77454
33
61.64417
0
3DFACE
8
layer1
62
1
10
1633.64941
20
1338.85803
30
-61.64416
11
1633.64941
21
1338.85803
31
61.64417
12
1633.64941
22
1116.77454
32
61.64417
13
1633.64941
23
1116.77454
33
-61.64416
0
3DFACE
8
layer1
62
1
10
1633.64941
20
1338.85803
30
-61.64416
11
1433.64966
21
1338.85803
31
-61.64416
12
1433.64966
22
1338.85803
32
61.64417
13
1633.64941
23
1338.85803
33
61.64417
0
3DFACE
8
layer1
62
1
10
1633.64941
20
1116.77454
30
61.64417
11
1433.64966
21
1116.77454
31
61.64417
12
1433.64966
22
1116.77454
32
-61.64416
13
1633.64941
23
1116.77454
33
-61.64416
0
3DFACE
8
layer1
62
1
10
1435.47534
20
1338.85803
30
55.22405
11
1235.47510
21
1338.85803
31
55.22405
12
1235.47510
22
1116.77454
32
55.22405
13
1435.47534
23
1116.77454
33
55.22405
0
3DFACE
8
layer1
62
1
10
1435.47534
20
1338.85803
30
-68.06429
11
1435.47534
21
1338.85803
31
55.22405
12
1435.47534
22
1116.77454
32
55.22405
13
1435.47534
23
1116.77454
33
-68.06429
0
3DFACE
8
layer1
62
1
10
1435.47534
20
1338.85803
30
-68.06429
11
1235.47510
21
1338.85803
31
-68.06429
12
1235.47510
22
1338.85803
32
55.22405
13
1435.47534
23
1338.85803
33
55.22405
0
3DFACE
8
layer1
62
1
10
1435.47534
20
1116.77454
30
55.22405
11
1235.47510
21
1116.77454
31
55.22405
12
1235.47510
22
1116.77454
32
-68.06429
13
1435.47534
23
1116.77454
33
-68.06429
0
3DFACE
8
layer1
62
1
10
843.68719
20
1338.85803
30
61.64417
11
643.68719
21
1338.85803
31
61.64417
12
643.68719
22
1116.77454
32
61.64417
13
843.68719
23
1116.77454
33
61.64417
0
3DFACE
8
layer1
62
1
10
643.68719
20
1338.85803
30
61.64417
11
643.68719
21
1338.85803
31
-61.64416
12
643.68719
22
1116.77454
32
-61.64416
13
643.68719
23
1116.77454
33
61.64417
0
3DFACE
8
layer1
62
1
10
843.68719
20
1338.85803
30
-61.64416
11
843.68719
21
1338.85803
31
61.64417
12
843.68719
22
1116.77454
32
61.64417
13
843.68719
23
1116.77454
33
-61.64416
0
3DFACE
8
layer1
62
1
10
843.68719
20
1338.85803
30
-61.64416
11
643.68719
21
1338.85803
31
-61.64416
12
643.68719
22
1338.85803
32
61.64417
13
843.68719
23
1338.85803
33
61.64417
0
3DFACE
8
layer1
62
1
10
843.68719
20
1116.77454
30
61.64417
11
643.68719
21
1116.77454
31
61.64417
12
643.68719
22
1116.77454
32
-61.64416
13
843.68719
23
1116.77454
33
-61.64416
0
3DFACE
8
layer1
62
1
10
645.51300
20
1338.85803
30
55.22405
11
445.51276
21
1338.85803
31
55.22405
12
445.51276
22
1116.77454
32
55.22405
13
645.51300
23
1116.77454
33
55.22405
0
3DFACE
8
layer1
62
1
10
645.51300
20
1338.85803
30
-68.06429
11
645.51300
21
1338.85803
31
55.22405
12
645.51300
22
1116.77454
32
55.22405
13
645.51300
23
1116.77454
33
-68.06429
0
3DFACE
8
layer1
62
1
10
645.51300
20
1338.85803
30
-68.06429
11
445.51276
21
1338.85803
31
-68.06429
12
445.51276
22
1338.85803
32
55.22405
13
645.51300
23
1338.85803
33
55.22405
0
3DFACE
8
layer1
62
1
10
645.51300
20
1116.77454
30
55.22405
11
445.51276
21
1116.77454
31
55.22405
12
445.51276
22
1116.77454
32
-68.06429
13
645.51300
23
1116.77454
33
-68.06429
0
3DFACE
8
layer1
62
1
10
1829.46069
20
1338.85803
30
55.22405
11
1629.46069
21
1338.85803
31
55.22405
12
1629.46069
22
1116.77454
32
55.22405
13
1829.46069
23
1116.77454
33
55.22405
0
3DFACE
8
layer1
62
1
10
1829.46069
20
1338.85803
30
-68.06429
11
1829.46069
21
1338.85803
31
55.22405
12
1829.46069
22
1116.77454
32
55.22405
13
1829.46069
23
1116.77454
33
-68.06429
0
3DFACE
8
layer1
62
1
10
1829.46069
20
1338.85803
30
-68.06429
11
1629.46069
21
1338.85803
31
-68.06429
12
1629.46069
22
1338.85803
32
55.22405
13
1829.46069
23
1338.85803
33
55.22405
0
3DFACE
8
layer1
62
1
10
1829.46069
20
1116.77454
30
55.22405
11
1629.46069
21
1116.77454
31
55.22405
12
1629.46069
22
1116.77454
32
-68.06429
13
1829.46069
23
1116.77454
33
-68.06429
0
3DFACE
8
layer1
62
1
10
1239.12134
20
1302.51819
30
57.05172
11
1039.12134
21
1302.51819
31
57.05172
12
1039.12134
22
1302.51819
32
-66.23660
13
1239.12134
23
1302.51819
33
-66.23660
0
3DFACE
8
layer1
62
1
10
1040.94702
20
1302.51819
30
50.63161
11
840.94708
21
1302.51819
31
50.63161
12
840.94708
22
1302.51819
32
-72.65672
13
1040.94702
23
1302.51819
33
-72.65672
0
3DFACE
8
layer1
62
1
10
1633.64941
20
1302.51819
30
57.05172
11
1433.64966
21
1302.51819
31
57.05172
12
1433.64966
22
1302.51819
32
-66.23660
13
1633.64941
23
1302.51819
33
-66.23660
0
3DFACE
8
layer1
62
1
10
1435.47534
20
1302.51819
30
50.63161
11
1235.47510
21
1302.51819
31
50.63161
12
1235.47510
22
1302.51819
32
-72.65672
13
1435.47534
23
1302.51819
33
-72.65672
0
3DFACE
8
layer1
62
1
10
843.68719
20
1302.51819
30
57.05172
11
643.68719
21
1302.51819
31
57.05172
12
643.68719
22
1302.51819
32
-66.23660
13
843.68719
23
1302.51819
33
-66.23660
0
3DFACE
8
layer1
62
1
10
645.51300
20
1302.51819
30
50.63161
11
445.51276
21
1302.51819
31
50.63161
12
445.51276
22
1302.51819
32
-72.65672
13
645.51300
23
1302.51819
33
-72.65672
0
3DFACE
8
layer1
62
1
10
1829.46069
20
1302.51819
30
50.63161
11
1629.46069
21
1302.51819
31
50.63161
12
1629.46069
22
1302.51819
32
-72.65672
13
1829.46069
23
1302.51819
33
-72.65672
0
3DFACE
8
layer1
62
1
10
-1239.12134
20
1338.85803
30
61.64417
11
-1239.12134
21
1116.77454
31
61.64417
12
-1039.12134
22
1116.77454
32
61.64417
13
-1039.12134
23
1338.85803
33
61.64417
0
3DFACE
8
layer1
62
1
10
-1039.12134
20
1338.85803
30
61.64417
11
-1039.12134
21
1116.77454
31
61.64417
12
-1039.12134
22
1116.77454
32
-61.64416
13
-1039.12134
23
1338.85803
33
-61.64416
0
3DFACE
8
layer1
62
1
10
-1239.12134
20
1338.85803
30
-61.64416
11
-1239.12134
21
1116.77454
31
-61.64416
12
-1239.12134
22
1116.77454
32
61.64417
13
-1239.12134
23
1338.85803
33
61.64417
0
3DFACE
8
layer1
62
1
10
-1239.12134
20
1338.85803
30
-61.64416
11
-1239.12134
21
1338.85803
31
61.64417
12
-1039.12134
22
1338.85803
32
61.64417
13
-1039.12134
23
1338.85803
33
-61.64416
0
3DFACE
8
layer1
62
1
10
-1239.12134
20
1116.77454
30
61.64417
11
-1239.12134
21
1116.77454
31
-61.64416
12
-1039.12134
22
1116.77454
32
-61.64416
13
-1039.12134
23
1116.77454
33
61.64417
0
3DFACE
8
layer1
62
1
10
-1040.94702
20
1338.85803
30
55.22405
11
-1040.94702
21
1116.77454
31
55.22405
12
-840.94708
22
1116.77454
32
55.22405
13
-840.94708
23
1338.85803
33
55.22405
0
3DFACE
8
layer1
62
1
10
-1040.94702
20
1338.85803
30
-68.06429
11
-1040.94702
21
1116.77454
31
-68.06429
12
-1040.94702
22
1116.77454
32
55.22405
13
-1040.94702
23
1338.85803
33
55.22405
0
3DFACE
8
layer1
62
1
10
-1040.94702
20
1338.85803
30
-68.06429
11
-1040.94702
21
1338.85803
31
55.22405
12
-840.94708
22
1338.85803
32
55.22405
13
-840.94708
23
1338.85803
33
-68.06429
0
3DFACE
8
layer1
62
1
10
-1040.94702
20
1116.77454
30
55.22405
11
-1040.94702
21
1116.77454
31
-68.06429
12
-840.94708
22
1116.77454
32
-68.06429
13
-840.94708
23
1116.77454
33
55.22405
0
3DFACE
8
layer1
62
1
10
-1633.64941
20
1338.85803
30
61.64417
11
-1633.64941
21
1116.77454
31
61.64417
12
-1433.64966
22
1116.77454
32
61.64417
13
-1433.64966
23
1338.85803
33
61.64417
0
3DFACE
8
layer1
62
1
10
-1433.64966
20
1338.85803
30
61.64417
11
-1433.64966
21
1116.77454
31
61.64417
12
-1433.64966
22
1116.77454
32
-61.64416
13
-1433.64966
23
1338.85803
33
-61.64416
0
3DFACE
8
layer1
62
1
10
-1633.64941
20
1338.85803
30
-61.64416
11
-1633.64941
21
1116.77454
31
-61.64416
12
-1633.64941
22
1116.77454
32
61.64417
13
-1633.64941
23
1338.85803
33
61.64417
0
3DFACE
8
layer1
62
1
10
-1633.64941
20
1338.85803
30
-61.64416
11
-1633.64941
21
1338.85803
31
61.64417
12
-1433.64966
22
1338.85803
32
61.64417
13
-1433.64966
23
1338.85803
33
-61.64416
0
3DFACE
8
layer1
62
1
10
-1633.64941
20
1116.77454
30
61.64417
11
-1633.64941
21
1116.77454
31
-61.64416
12
-1433.64966
22
1116.77454
32
-61.64416
13
-1433.64966
23
1116.77454
33
61.64417
0
3DFACE
8
layer1
62
1
10
-1435.47534
20
1338.85803
30
55.22405
11
-1435.47534
21
1116.77454
31
55.22405
12
-1235.47510
22
1116.77454
32
55.22405
13
-1235.47510
23
1338.85803
33
55.22405
0
3DFACE
8
layer1
62
1
10
-1435.47534
20
1338.85803
30
-68.06429
11
-1435.47534
21
1116.77454
31
-68.06429
12
-1435.47534
22
1116.77454
32
55.22405
13
-1435.47534
23
1338.85803
33
55.22405
0
3DFACE
8
layer1
62
1
10
-1435.47534
20
1338.85803
30
-68.06429
11
-1435.47534
21
1338.85803
31
55.22405
12
-1235.47510
22
1338.85803
32
55.22405
13
-1235.47510
23
1338.85803
33
-68.06429
0
3DFACE
8
layer1
62
1
10
-1435.47534
20
1116.77454
30
55.22405
11
-1435.47534
21
1116.77454
31
-68.06429
12
-1235.47510
22
1116.77454
32
-68.06429
13
-1235.47510
23
1116.77454
33
55.22405
0
3DFACE
8
layer1
62
1
10
-843.68719
20
1338.85803
30
61.64417
11
-843.68719
21
1116.77454
31
61.64417
12
-643.68719
22
1116.77454
32
61.64417
13
-643.68719
23
1338.85803
33
61.64417
0
3DFACE
8
layer1
62
1
10
-643.68719
20
1338.85803
30
61.64417
11
-643.68719
21
1116.77454
31
61.64417
12
-643.68719
22
1116.77454
32
-61.64416
13
-643.68719
23
1338.85803
33
-61.64416
0
3DFACE
8
layer1
62
1
10
-843.68719
20
1338.85803
30
-61.64416
11
-843.68719
21
1116.77454
31
-61.64416
12
-843.68719
22
1116.77454
32
61.64417
13
-843.68719
23
1338.85803
33
61.64417
0
3DFACE
8
layer1
62
1
10
-843.68719
20
1338.85803
30
-61.64416
11
-843.68719
21
1338.85803
31
61.64417
12
-643.68719
22
1338.85803
32
61.64417
13
-643.68719
23
1338.85803
33
-61.64416
0
3DFACE
8
layer1
62
1
10
-843.68719
20
1116.77454
30
61.64417
11
-843.68719
21
1116.77454
31
-61.64416
12
-643.68719
22
1116.77454
32
-61.64416
13
-643.68719
23
1116.77454
33
61.64417
0
3DFACE
8
layer1
62
1
10
-645.51300
20
1338.85803
30
55.22405
11
-645.51300
21
1116.77454
31
55.22405
12
-445.51276
22
1116.77454
32
55.22405
13
-445.51276
23
1338.85803
33
55.22405
0
3DFACE
8
layer1
62
1
10
-645.51300
20
1338.85803
30
-68.06429
11
-645.51300
21
1116.77454
31
-68.06429
12
-645.51300
22
1116.77454
32
55.22405
13
-645.51300
23
1338.85803
33
55.22405
0
3DFACE
8
layer1
62
1
10
-645.51300
20
1338.85803
30
-68.06429
11
-645.51300
21
1338.85803
31
55.22405
12
-445.51276
22
1338.85803
32
55.22405
13
-445.51276
23
1338.85803
33
-68.06429
0
3DFACE
8
layer1
62
1
10
-645.51300
20
1116.77454
30
55.22405
11
-645.51300
21
1116.77454
31
-68.06429
12
-445.51276
22
1116.77454
32
-68.06429
13
-445.51276
23
1116.77454
33
55.22405
0
3DFACE
8
layer1
62
1
10
-1829.46069
20
1338.85803
30
55.22405
11
-1829.46069
21
1116.77454
31
55.22405
12
-1629.46069
22
1116.77454
32
55.22405
13
-1629.46069
23
1338.85803
33
55.22405
0
3DFACE
8
layer1
62
1
10
-1829.46069
20
1338.85803
30
-68.06429
11
-1829.46069
21
1116.77454
31
-68.06429
12
-1829.46069
22
1116.77454
32
55.22405
13
-1829.46069
23
1338.85803
33
55.22405
0
3DFACE
8
layer1
62
1
10
-1829.46069
20
1338.85803
30
-68.06429
11
-1829.46069
21
1338.85803
31
55.22405
12
-1629.46069
22
1338.85803
32
55.22405
13
-1629.46069
23
1338.85803
33
-68.06429
0
3DFACE
8
layer1
62
1
10
-1829.46069
20
1116.77454
30
55.22405
11
-1829.46069
21
1116.77454
31
-68.06429
12
-1629.46069
22
1116.77454
32
-68.06429
13
-1629.46069
23
1116.77454
33
55.22405
0
3DFACE
8
layer1
62
1
10
-1239.12134
20
1302.51819
30
57.05172
11
-1239.12134
21
1302.51819
31
-66.23660
12
-1039.12134
22
1302.51819
32
-66.23660
13
-1039.12134
23
1302.51819
33
57.05172
0
3DFACE
8
layer1
62
1
10
-1040.94702
20
1302.51819
30
50.63161
11
-1040.94702
21
1302.51819
31
-72.65672
12
-840.94708
22
1302.51819
32
-72.65672
13
-840.94708
23
1302.51819
33
50.63161
0
3DFACE
8
layer1
62
1
10
-1633.64941
20
1302.51819
30
57.05172
11
-1633.64941
21
1302.51819
31
-66.23660
12
-1433.64966
22
1302.51819
32
-66.23660
13
-1433.64966
23
1302.51819
33
57.05172
0
3DFACE
8
layer1
62
1
10
-1435.47534
20
1302.51819
30
50.63161
11
-1435.47534
21
1302.51819
31
-72.65672
12
-1235.47510
22
1302.51819
32
-72.65672
13
-1235.47510
23
1302.51819
33
50.63161
0
3DFACE
8
layer1
62
1
10
-843.68719
20
1302.51819
30
57.05172
11
-843.68719
21
1302.51819
31
-66.23660
12
-643.68719
22
1302.51819
32
-66.23660
13
-643.68719
23
1302.51819
33
57.05172
0
3DFACE
8
layer1
62
1
10
-645.51300
20
1302.51819
30
50.63161
11
-645.51300
21
1302.51819
31
-72.65672
12
-445.51276
22
1302.51819
32
-72.65672
13
-445.51276
23
1302.51819
33
50.63161
0
3DFACE
8
layer1
62
1
10
-1829.46069
20
1302.51819
30
50.63161
11
-1829.46069
21
1302.51819
31
-72.65672
12
-1629.46069
22
1302.51819
32
-72.65672
13
-1629.46069
23
1302.51819
33
50.63161
0
3DFACE
8
layer1
62
1
10
448.54391
20
1338.15613
30
61.64417
11
220.85214
21
1338.15613
31
61.64417
12
220.85214
22
1116.07202
32
61.64417
13
448.54391
23
1116.07202
33
61.64417
0
3DFACE
8
layer1
62
1
10
220.85214
20
1338.15613
30
61.64417
11
220.85214
21
1338.15613
31
-61.64416
12
220.85214
22
1116.07202
32
-61.64416
13
220.85214
23
1116.07202
33
61.64417
0
3DFACE
8
layer1
62
1
10
448.54391
20
1338.15613
30
-61.64416
11
448.54391
21
1338.15613
31
61.64417
12
448.54391
22
1116.07202
32
61.64417
13
448.54391
23
1116.07202
33
-61.64416
0
3DFACE
8
layer1
62
1
10
448.54391
20
1338.15613
30
-61.64416
11
220.85214
21
1338.15613
31
-61.64416
12
220.85214
22
1338.15613
32
61.64417
13
448.54391
23
1338.15613
33
61.64417
0
3DFACE
8
layer1
62
1
10
222.93076
20
1338.15613
30
55.22405
11
-4.76120
21
1338.15613
31
55.22405
12
-4.76120
22
1209.81702
32
55.22405
13
222.93076
23
1116.07202
33
55.22405
0
3DFACE
8
layer1
62
1
10
222.93076
20
1338.15613
30
-68.06429
11
222.93076
21
1338.15613
31
55.22405
12
222.93076
22
1116.07202
32
55.22405
13
222.93076
23
1116.07202
33
-68.06429
0
3DFACE
8
layer1
62
1
10
222.93076
20
1338.15613
30
-68.06429
11
-4.76120
21
1338.15613
31
-68.06429
12
-4.76120
22
1338.15613
32
55.22405
13
222.93076
23
1338.15613
33
55.22405
0
3DFACE
8
layer1
62
1
10
-448.54391
20
1338.15613
30
61.64417
11
-448.54391
21
1116.07202
31
61.64417
12
-220.85214
22
1116.07202
32
61.64417
13
-220.85214
23
1338.15613
33
61.64417
0
3DFACE
8
layer1
62
1
10
-220.85214
20
1338.15613
30
61.64417
11
-220.85214
21
1116.07202
31
61.64417
12
-220.85214
22
1116.07202
32
-61.64416
13
-220.85214
23
1338.15613
33
-61.64416
0
3DFACE
8
layer1
62
1
10
-448.54391
20
1338.15613
30
-61.64416
11
-448.54391
21
1116.07202
31
-61.64416
12
-448.54391
22
1116.07202
32
61.64417
13
-448.54391
23
1338.15613
33
61.64417
0
3DFACE
8
layer1
62
1
10
-448.54391
20
1338.15613
30
-61.64416
11
-448.54391
21
1338.15613
31
61.64417
12
-220.85214
22
1338.15613
32
61.64417
13
-220.85214
23
1338.15613
33
-61.64416
0
3DFACE
8
layer1
62
1
10
-222.93076
20
1338.15613
30
55.22405
11
-222.93076
21
1116.07202
31
55.22405
12
4.76120
22
1209.81702
32
55.22405
13
4.76120
23
1338.15613
33
55.22405
0
3DFACE
8
layer1
62
1
10
-222.93076
20
1338.15613
30
-68.06429
11
-222.93076
21
1116.07202
31
-68.06429
12
-222.93076
22
1116.07202
32
55.22405
13
-222.93076
23
1338.15613
33
55.22405
0
3DFACE
8
layer1
62
1
10
-222.93076
20
1338.15613
30
-68.06429
11
-222.93076
21
1338.15613
31
55.22405
12
4.76120
22
1338.15613
32
55.22405
13
4.76120
23
1338.15613
33
-68.06429
0
ENDSEC
0
EOF
