0
SECTION
2
ENTITIES
999
Created by Metasequoia
0
3DFACE
8
layer1
62
1
10
100.00000
20
186.91670
30
343.63040
11
-100.00000
21
186.91670
31
343.63040
12
-100.00000
22
-18.13350
32
343.63040
13
100.00000
23
-18.13350
33
343.63040
0
3DFACE
8
layer1
62
1
10
-100.00000
20
186.91670
30
343.63040
11
-145.36320
21
186.91670
31
247.55360
12
-145.36320
22
-18.13350
32
247.55360
13
-100.00000
23
-18.13350
33
343.63040
0
3DFACE
8
layer1
62
1
10
145.36320
20
186.91670
30
247.55360
11
100.00000
21
186.91670
31
343.63040
12
100.00000
22
-18.13350
32
343.63040
13
145.36320
23
-18.13350
33
247.55360
0
3DFACE
8
layer1
62
1
10
145.36320
20
186.91670
30
247.55360
11
-145.36320
21
186.91670
31
247.55360
12
-100.00000
22
186.91670
32
343.63040
13
100.00000
23
186.91670
33
343.63040
0
3DFACE
8
layer1
62
1
10
100.00000
20
186.91670
30
-343.63040
11
100.00000
21
-18.13350
31
-343.63040
12
-100.00000
22
-18.13350
32
-343.63040
13
-100.00000
23
186.91670
33
-343.63040
0
3DFACE
8
layer1
62
1
10
-100.00000
20
186.91670
30
-343.63040
11
-100.00000
21
-18.13350
31
-343.63040
12
-145.00000
22
-18.13350
32
-247.55360
13
-145.00000
23
186.91670
33
-247.55360
0
3DFACE
8
layer1
62
1
10
145.00000
20
186.91670
30
-247.55360
11
145.00000
21
-18.13350
31
-247.55360
12
100.00000
22
-18.13350
32
-343.63040
13
100.00000
23
186.91670
33
-343.63040
0
3DFACE
8
layer1
62
1
10
145.00000
20
186.91670
30
-247.55360
11
100.00000
21
186.91670
31
-343.63040
12
-100.00000
22
186.91670
32
-343.63040
13
-145.00000
23
186.91670
33
-247.55360
0
3DFACE
8
layer1
62
1
10
343.63040
20
186.91670
30
-100.00000
11
343.63040
21
186.91670
31
100.00000
12
343.63040
22
-18.13350
32
100.00000
13
343.63040
23
-18.13350
33
-100.00000
0
3DFACE
8
layer1
62
1
10
343.63040
20
186.91670
30
100.00000
11
247.55360
21
186.91670
31
145.00000
12
247.55360
22
-18.13350
32
145.00000
13
343.63040
23
-18.13350
33
100.00000
0
3DFACE
8
layer1
62
1
10
247.55360
20
186.91670
30
-145.00000
11
343.63040
21
186.91670
31
-100.00000
12
343.63040
22
-18.13350
32
-100.00000
13
247.55360
23
-18.13350
33
-145.00000
0
3DFACE
8
layer1
62
1
10
247.55360
20
186.91670
30
-145.00000
11
247.55360
21
186.91670
31
145.00000
12
343.63040
22
186.91670
32
100.00000
13
343.63040
23
186.91670
33
-100.00000
0
3DFACE
8
layer1
62
1
10
-343.63040
20
186.91670
30
-100.00000
11
-343.63040
21
-18.13350
31
-100.00000
12
-343.63040
22
-18.13350
32
100.00000
13
-343.63040
23
186.91670
33
100.00000
0
3DFACE
8
layer1
62
1
10
-343.63040
20
186.91670
30
100.00000
11
-343.63040
21
-18.13350
31
100.00000
12
-247.55360
22
-18.13350
32
145.00000
13
-247.55360
23
186.91670
33
145.00000
0
3DFACE
8
layer1
62
1
10
-247.55360
20
186.91670
30
-145.00000
11
-247.55360
21
-18.13350
31
-145.00000
12
-343.63040
22
-18.13350
32
-100.00000
13
-343.63040
23
186.91670
33
-100.00000
0
3DFACE
8
layer1
62
1
10
-247.55360
20
186.91670
30
-145.00000
11
-343.63040
21
186.91670
31
-100.00000
12
-343.63040
22
186.91670
32
100.00000
13
-247.55360
23
186.91670
33
145.00000
0
3DFACE
8
layer1
62
1
10
313.69409
20
186.91670
30
172.27271
11
172.27271
21
186.91670
31
313.69409
12
172.27271
22
-18.13350
32
313.69409
13
313.69409
23
-18.13350
33
172.27271
0
3DFACE
8
layer1
62
1
10
172.27271
20
186.91670
30
313.69409
11
72.51630
21
186.91670
31
277.57730
12
72.51630
22
-18.13350
32
277.57730
13
172.27271
23
-18.13350
33
313.69409
0
3DFACE
8
layer1
62
1
10
277.57730
20
186.91670
30
72.51630
11
313.69409
21
186.91670
31
172.27271
12
313.69409
22
-18.13350
32
172.27271
13
277.57730
23
-18.13350
33
72.51630
0
3DFACE
8
layer1
62
1
10
277.57730
20
186.91670
30
72.51630
11
72.51630
21
186.91670
31
277.57730
12
172.27271
22
186.91670
32
313.69409
13
313.69409
23
186.91670
33
172.27271
0
3DFACE
8
layer1
62
1
10
-172.27271
20
186.91670
30
-313.69409
11
-172.27271
21
-18.13350
31
-313.69409
12
-313.69409
22
-18.13350
32
-172.27271
13
-313.69409
23
186.91670
33
-172.27271
0
3DFACE
8
layer1
62
1
10
-313.69409
20
186.91670
30
-172.27271
11
-313.69409
21
-18.13350
31
-172.27271
12
-277.57730
22
-18.13350
32
-72.51630
13
-277.57730
23
186.91670
33
-72.51630
0
3DFACE
8
layer1
62
1
10
-72.51630
20
186.91670
30
-277.57730
11
-72.51630
21
-18.13350
31
-277.57730
12
-172.27271
22
-18.13350
32
-313.69409
13
-172.27271
23
186.91670
33
-313.69409
0
3DFACE
8
layer1
62
1
10
-72.51630
20
186.91670
30
-277.57730
11
-172.27271
21
186.91670
31
-313.69409
12
-313.69409
22
186.91670
32
-172.27271
13
-277.57730
23
186.91670
33
-72.51630
0
3DFACE
8
layer1
62
1
10
172.27271
20
186.91670
30
-313.69409
11
313.69409
21
186.91670
31
-172.27271
12
313.69409
22
-18.13350
32
-172.27271
13
172.27271
23
-18.13350
33
-313.69409
0
3DFACE
8
layer1
62
1
10
313.69409
20
186.91670
30
-172.27271
11
277.57730
21
186.91670
31
-72.51630
12
277.57730
22
-18.13350
32
-72.51630
13
313.69409
23
-18.13350
33
-172.27271
0
3DFACE
8
layer1
62
1
10
72.51630
20
186.91670
30
-277.57730
11
172.27271
21
186.91670
31
-313.69409
12
172.27271
22
-18.13350
32
-313.69409
13
72.51630
23
-18.13350
33
-277.57730
0
3DFACE
8
layer1
62
1
10
72.51630
20
186.91670
30
-277.57730
11
277.57730
21
186.91670
31
-72.51630
12
313.69409
22
186.91670
32
-172.27271
13
172.27271
23
186.91670
33
-313.69409
0
3DFACE
8
layer1
62
1
10
-313.69409
20
186.91670
30
172.27271
11
-313.69409
21
-18.13350
31
172.27271
12
-172.27271
22
-18.13350
32
313.69409
13
-172.27271
23
186.91670
33
313.69409
0
3DFACE
8
layer1
62
1
10
-172.27271
20
186.91670
30
313.69409
11
-172.27271
21
-18.13350
31
313.69409
12
-72.51630
22
-18.13350
32
277.57730
13
-72.51630
23
186.91670
33
277.57730
0
3DFACE
8
layer1
62
1
10
-277.57730
20
186.91670
30
72.51630
11
-277.57730
21
-18.13350
31
72.51630
12
-313.69409
22
-18.13350
32
172.27271
13
-313.69409
23
186.91670
33
172.27271
0
3DFACE
8
layer1
62
1
10
-277.57730
20
186.91670
30
72.51630
11
-313.69409
21
186.91670
31
172.27271
12
-172.27271
22
186.91670
32
313.69409
13
-72.51630
23
186.91670
33
277.57730
0
3DFACE
8
layer1
62
1
10
97.53700
20
380.12271
30
335.16699
11
-97.53700
21
380.12271
31
335.16699
12
-97.53700
22
180.12320
32
335.16699
13
97.53700
23
180.12320
33
335.16699
0
3DFACE
8
layer1
62
1
10
-97.53700
20
380.12271
30
335.16699
11
-141.78300
21
380.12271
31
241.45641
12
-141.78300
22
180.12320
32
241.45641
13
-97.53700
23
180.12320
33
335.16699
0
3DFACE
8
layer1
62
1
10
141.78300
20
380.12271
30
241.45641
11
97.53700
21
380.12271
31
335.16699
12
97.53700
22
180.12320
32
335.16699
13
141.78300
23
180.12320
33
241.45641
0
3DFACE
8
layer1
62
1
10
141.78300
20
380.12271
30
241.45641
11
-141.78300
21
380.12271
31
241.45641
12
-97.53700
22
380.12271
32
335.16699
13
97.53700
23
380.12271
33
335.16699
0
3DFACE
8
layer1
62
1
10
97.53700
20
380.12271
30
-335.16699
11
97.53700
21
180.12320
31
-335.16699
12
-97.53700
22
180.12320
32
-335.16699
13
-97.53700
23
380.12271
33
-335.16699
0
3DFACE
8
layer1
62
1
10
-97.53700
20
380.12271
30
-335.16699
11
-97.53700
21
180.12320
31
-335.16699
12
-141.42870
22
180.12320
32
-241.45641
13
-141.42870
23
380.12271
33
-241.45641
0
3DFACE
8
layer1
62
1
10
141.42870
20
380.12271
30
-241.45641
11
141.42870
21
180.12320
31
-241.45641
12
97.53700
22
180.12320
32
-335.16699
13
97.53700
23
380.12271
33
-335.16699
0
3DFACE
8
layer1
62
1
10
141.42870
20
380.12271
30
-241.45641
11
97.53700
21
380.12271
31
-335.16699
12
-97.53700
22
380.12271
32
-335.16699
13
-141.42870
23
380.12271
33
-241.45641
0
3DFACE
8
layer1
62
1
10
335.16699
20
380.12271
30
-97.53700
11
335.16699
21
380.12271
31
97.53700
12
335.16699
22
180.12320
32
97.53700
13
335.16699
23
180.12320
33
-97.53700
0
3DFACE
8
layer1
62
1
10
335.16699
20
380.12271
30
97.53700
11
241.45641
21
380.12271
31
141.42870
12
241.45641
22
180.12320
32
141.42870
13
335.16699
23
180.12320
33
97.53700
0
3DFACE
8
layer1
62
1
10
241.45641
20
380.12271
30
-141.42870
11
335.16699
21
380.12271
31
-97.53700
12
335.16699
22
180.12320
32
-97.53700
13
241.45641
23
180.12320
33
-141.42870
0
3DFACE
8
layer1
62
1
10
241.45641
20
380.12271
30
-141.42870
11
241.45641
21
380.12271
31
141.42870
12
335.16699
22
380.12271
32
97.53700
13
335.16699
23
380.12271
33
-97.53700
0
3DFACE
8
layer1
62
1
10
-335.16699
20
380.12271
30
-97.53700
11
-335.16699
21
180.12320
31
-97.53700
12
-335.16699
22
180.12320
32
97.53700
13
-335.16699
23
380.12271
33
97.53700
0
3DFACE
8
layer1
62
1
10
-335.16699
20
380.12271
30
97.53700
11
-335.16699
21
180.12320
31
97.53700
12
-241.45641
22
180.12320
32
141.42870
13
-241.45641
23
380.12271
33
141.42870
0
3DFACE
8
layer1
62
1
10
-241.45641
20
380.12271
30
-141.42870
11
-241.45641
21
180.12320
31
-141.42870
12
-335.16699
22
180.12320
32
-97.53700
13
-335.16699
23
380.12271
33
-97.53700
0
3DFACE
8
layer1
62
1
10
-241.45641
20
380.12271
30
-141.42870
11
-335.16699
21
380.12271
31
-97.53700
12
-335.16699
22
380.12271
32
97.53700
13
-241.45641
23
380.12271
33
141.42870
0
3DFACE
8
layer1
62
1
10
305.96799
20
380.12271
30
168.02969
11
168.02969
21
380.12271
31
305.96799
12
168.02969
22
180.12320
32
305.96799
13
305.96799
23
180.12320
33
168.02969
0
3DFACE
8
layer1
62
1
10
168.02969
20
380.12271
30
305.96799
11
70.73030
21
380.12271
31
270.74060
12
70.73030
22
180.12320
32
270.74060
13
168.02969
23
180.12320
33
305.96799
0
3DFACE
8
layer1
62
1
10
270.74060
20
380.12271
30
70.73030
11
305.96799
21
380.12271
31
168.02969
12
305.96799
22
180.12320
32
168.02969
13
270.74060
23
180.12320
33
70.73030
0
3DFACE
8
layer1
62
1
10
270.74060
20
380.12271
30
70.73030
11
70.73030
21
380.12271
31
270.74060
12
168.02969
22
380.12271
32
305.96799
13
305.96799
23
380.12271
33
168.02969
0
3DFACE
8
layer1
62
1
10
-168.02969
20
380.12271
30
-305.96799
11
-168.02969
21
180.12320
31
-305.96799
12
-305.96799
22
180.12320
32
-168.02969
13
-305.96799
23
380.12271
33
-168.02969
0
3DFACE
8
layer1
62
1
10
-305.96799
20
380.12271
30
-168.02969
11
-305.96799
21
180.12320
31
-168.02969
12
-270.74060
22
180.12320
32
-70.73030
13
-270.74060
23
380.12271
33
-70.73030
0
3DFACE
8
layer1
62
1
10
-70.73030
20
380.12271
30
-270.74060
11
-70.73030
21
180.12320
31
-270.74060
12
-168.02969
22
180.12320
32
-305.96799
13
-168.02969
23
380.12271
33
-305.96799
0
3DFACE
8
layer1
62
1
10
-70.73030
20
380.12271
30
-270.74060
11
-168.02969
21
380.12271
31
-305.96799
12
-305.96799
22
380.12271
32
-168.02969
13
-270.74060
23
380.12271
33
-70.73030
0
3DFACE
8
layer1
62
1
10
168.02969
20
380.12271
30
-305.96799
11
305.96790
21
380.12271
31
-168.02969
12
305.96790
22
180.12320
32
-168.02969
13
168.02969
23
180.12320
33
-305.96799
0
3DFACE
8
layer1
62
1
10
305.96790
20
380.12271
30
-168.02969
11
270.74060
21
380.12271
31
-70.73030
12
270.74060
22
180.12320
32
-70.73030
13
305.96790
23
180.12320
33
-168.02969
0
3DFACE
8
layer1
62
1
10
70.73030
20
380.12271
30
-270.74060
11
168.02969
21
380.12271
31
-305.96799
12
168.02969
22
180.12320
32
-305.96799
13
70.73030
23
180.12320
33
-270.74060
0
3DFACE
8
layer1
62
1
10
70.73030
20
380.12271
30
-270.74060
11
270.74060
21
380.12271
31
-70.73030
12
305.96790
22
380.12271
32
-168.02969
13
168.02969
23
380.12271
33
-305.96799
0
3DFACE
8
layer1
62
1
10
-305.96790
20
380.12271
30
168.02969
11
-305.96790
21
180.12320
31
168.02969
12
-168.02969
22
180.12320
32
305.96799
13
-168.02969
23
380.12271
33
305.96799
0
3DFACE
8
layer1
62
1
10
-168.02969
20
380.12271
30
305.96799
11
-168.02969
21
180.12320
31
305.96799
12
-70.73030
22
180.12320
32
270.74060
13
-70.73030
23
380.12271
33
270.74060
0
3DFACE
8
layer1
62
1
10
-270.74060
20
380.12271
30
70.73030
11
-270.74060
21
180.12320
31
70.73030
12
-305.96790
22
180.12320
32
168.02969
13
-305.96790
23
380.12271
33
168.02969
0
3DFACE
8
layer1
62
1
10
-270.74060
20
380.12271
30
70.73030
11
-305.96790
21
380.12271
31
168.02969
12
-168.02969
22
380.12271
32
305.96799
13
-70.73030
23
380.12271
33
270.74060
0
3DFACE
8
layer1
62
1
10
100.00000
20
575.55731
30
343.63040
11
-100.00000
21
575.55731
31
343.63040
12
-100.00000
22
370.50671
32
343.63040
13
100.00000
23
370.50671
33
343.63040
0
3DFACE
8
layer1
62
1
10
-100.00000
20
575.55731
30
343.63040
11
-145.36320
21
575.55731
31
247.55360
12
-145.36320
22
370.50671
32
247.55360
13
-100.00000
23
370.50671
33
343.63040
0
3DFACE
8
layer1
62
1
10
145.36320
20
575.55731
30
247.55360
11
100.00000
21
575.55731
31
343.63040
12
100.00000
22
370.50671
32
343.63040
13
145.36320
23
370.50671
33
247.55360
0
3DFACE
8
layer1
62
1
10
145.36320
20
575.55731
30
247.55360
11
-145.36320
21
575.55731
31
247.55360
12
-100.00000
22
575.55731
32
343.63040
13
100.00000
23
575.55731
33
343.63040
0
3DFACE
8
layer1
62
1
10
100.00000
20
370.50671
30
343.63040
11
-100.00000
21
370.50671
31
343.63040
12
-145.36320
22
370.50671
32
247.55360
13
145.36320
23
370.50671
33
247.55360
0
3DFACE
8
layer1
62
1
10
100.00000
20
575.55731
30
-343.63040
11
100.00000
21
370.50671
31
-343.63040
12
-100.00000
22
370.50671
32
-343.63040
13
-100.00000
23
575.55731
33
-343.63040
0
3DFACE
8
layer1
62
1
10
-100.00000
20
575.55731
30
-343.63040
11
-100.00000
21
370.50671
31
-343.63040
12
-145.00000
22
370.50671
32
-247.55360
13
-145.00000
23
575.55731
33
-247.55360
0
3DFACE
8
layer1
62
1
10
145.00000
20
575.55731
30
-247.55360
11
145.00000
21
370.50671
31
-247.55360
12
100.00000
22
370.50671
32
-343.63040
13
100.00000
23
575.55731
33
-343.63040
0
3DFACE
8
layer1
62
1
10
145.00000
20
575.55731
30
-247.55360
11
100.00000
21
575.55731
31
-343.63040
12
-100.00000
22
575.55731
32
-343.63040
13
-145.00000
23
575.55731
33
-247.55360
0
3DFACE
8
layer1
62
1
10
100.00000
20
370.50671
30
-343.63040
11
145.00000
21
370.50671
31
-247.55360
12
-145.00000
22
370.50671
32
-247.55360
13
-100.00000
23
370.50671
33
-343.63040
0
3DFACE
8
layer1
62
1
10
343.63040
20
575.55731
30
-100.00000
11
343.63040
21
575.55731
31
100.00000
12
343.63040
22
370.50671
32
100.00000
13
343.63040
23
370.50671
33
-100.00000
0
3DFACE
8
layer1
62
1
10
343.63040
20
575.55731
30
100.00000
11
247.55360
21
575.55731
31
145.00000
12
247.55360
22
370.50671
32
145.00000
13
343.63040
23
370.50671
33
100.00000
0
3DFACE
8
layer1
62
1
10
247.55360
20
575.55731
30
-145.00000
11
343.63040
21
575.55731
31
-100.00000
12
343.63040
22
370.50671
32
-100.00000
13
247.55360
23
370.50671
33
-145.00000
0
3DFACE
8
layer1
62
1
10
247.55360
20
575.55731
30
-145.00000
11
247.55360
21
575.55731
31
145.00000
12
343.63040
22
575.55731
32
100.00000
13
343.63040
23
575.55731
33
-100.00000
0
3DFACE
8
layer1
62
1
10
343.63040
20
370.50671
30
-100.00000
11
343.63040
21
370.50671
31
100.00000
12
247.55360
22
370.50671
32
145.00000
13
247.55360
23
370.50671
33
-145.00000
0
3DFACE
8
layer1
62
1
10
-343.63040
20
575.55731
30
-100.00000
11
-343.63040
21
370.50671
31
-100.00000
12
-343.63040
22
370.50671
32
100.00000
13
-343.63040
23
575.55731
33
100.00000
0
3DFACE
8
layer1
62
1
10
-343.63040
20
575.55731
30
100.00000
11
-343.63040
21
370.50671
31
100.00000
12
-247.55360
22
370.50671
32
145.00000
13
-247.55360
23
575.55731
33
145.00000
0
3DFACE
8
layer1
62
1
10
-247.55360
20
575.55731
30
-145.00000
11
-247.55360
21
370.50671
31
-145.00000
12
-343.63040
22
370.50671
32
-100.00000
13
-343.63040
23
575.55731
33
-100.00000
0
3DFACE
8
layer1
62
1
10
-247.55360
20
575.55731
30
-145.00000
11
-343.63040
21
575.55731
31
-100.00000
12
-343.63040
22
575.55731
32
100.00000
13
-247.55360
23
575.55731
33
145.00000
0
3DFACE
8
layer1
62
1
10
-343.63040
20
370.50671
30
-100.00000
11
-247.55360
21
370.50671
31
-145.00000
12
-247.55360
22
370.50671
32
145.00000
13
-343.63040
23
370.50671
33
100.00000
0
3DFACE
8
layer1
62
1
10
313.69409
20
575.55731
30
172.27271
11
172.27271
21
575.55731
31
313.69409
12
172.27271
22
370.50671
32
313.69409
13
313.69409
23
370.50671
33
172.27271
0
3DFACE
8
layer1
62
1
10
172.27271
20
575.55731
30
313.69409
11
72.51630
21
575.55731
31
277.57730
12
72.51630
22
370.50671
32
277.57730
13
172.27271
23
370.50671
33
313.69409
0
3DFACE
8
layer1
62
1
10
277.57730
20
575.55731
30
72.51630
11
313.69409
21
575.55731
31
172.27271
12
313.69409
22
370.50671
32
172.27271
13
277.57730
23
370.50671
33
72.51630
0
3DFACE
8
layer1
62
1
10
277.57730
20
575.55731
30
72.51630
11
72.51630
21
575.55731
31
277.57730
12
172.27271
22
575.55731
32
313.69409
13
313.69409
23
575.55731
33
172.27271
0
3DFACE
8
layer1
62
1
10
313.69409
20
370.50671
30
172.27271
11
172.27271
21
370.50671
31
313.69409
12
72.51630
22
370.50671
32
277.57730
13
277.57730
23
370.50671
33
72.51630
0
3DFACE
8
layer1
62
1
10
-172.27271
20
575.55731
30
-313.69409
11
-172.27271
21
370.50671
31
-313.69409
12
-313.69409
22
370.50671
32
-172.27271
13
-313.69409
23
575.55731
33
-172.27271
0
3DFACE
8
layer1
62
1
10
-313.69409
20
575.55731
30
-172.27271
11
-313.69409
21
370.50671
31
-172.27271
12
-277.57730
22
370.50671
32
-72.51630
13
-277.57730
23
575.55731
33
-72.51630
0
3DFACE
8
layer1
62
1
10
-72.51630
20
575.55731
30
-277.57730
11
-72.51630
21
370.50671
31
-277.57730
12
-172.27271
22
370.50671
32
-313.69409
13
-172.27271
23
575.55731
33
-313.69409
0
3DFACE
8
layer1
62
1
10
-72.51630
20
575.55731
30
-277.57730
11
-172.27271
21
575.55731
31
-313.69409
12
-313.69409
22
575.55731
32
-172.27271
13
-277.57730
23
575.55731
33
-72.51630
0
3DFACE
8
layer1
62
1
10
-172.27271
20
370.50671
30
-313.69409
11
-72.51630
21
370.50671
31
-277.57730
12
-277.57730
22
370.50671
32
-72.51630
13
-313.69409
23
370.50671
33
-172.27271
0
3DFACE
8
layer1
62
1
10
172.27271
20
575.55731
30
-313.69409
11
313.69409
21
575.55731
31
-172.27271
12
313.69409
22
370.50671
32
-172.27271
13
172.27271
23
370.50671
33
-313.69409
0
3DFACE
8
layer1
62
1
10
313.69409
20
575.55731
30
-172.27271
11
277.57730
21
575.55731
31
-72.51630
12
277.57730
22
370.50671
32
-72.51630
13
313.69409
23
370.50671
33
-172.27271
0
3DFACE
8
layer1
62
1
10
72.51630
20
575.55731
30
-277.57730
11
172.27271
21
575.55731
31
-313.69409
12
172.27271
22
370.50671
32
-313.69409
13
72.51630
23
370.50671
33
-277.57730
0
3DFACE
8
layer1
62
1
10
72.51630
20
575.55731
30
-277.57730
11
277.57730
21
575.55731
31
-72.51630
12
313.69409
22
575.55731
32
-172.27271
13
172.27271
23
575.55731
33
-313.69409
0
3DFACE
8
layer1
62
1
10
172.27271
20
370.50671
30
-313.69409
11
313.69409
21
370.50671
31
-172.27271
12
277.57730
22
370.50671
32
-72.51630
13
72.51630
23
370.50671
33
-277.57730
0
3DFACE
8
layer1
62
1
10
-313.69409
20
575.55731
30
172.27271
11
-313.69409
21
370.50671
31
172.27271
12
-172.27271
22
370.50671
32
313.69409
13
-172.27271
23
575.55731
33
313.69409
0
3DFACE
8
layer1
62
1
10
-172.27271
20
575.55731
30
313.69409
11
-172.27271
21
370.50671
31
313.69409
12
-72.51630
22
370.50671
32
277.57730
13
-72.51630
23
575.55731
33
277.57730
0
3DFACE
8
layer1
62
1
10
-277.57730
20
575.55731
30
72.51630
11
-277.57730
21
370.50671
31
72.51630
12
-313.69409
22
370.50671
32
172.27271
13
-313.69409
23
575.55731
33
172.27271
0
3DFACE
8
layer1
62
1
10
-277.57730
20
575.55731
30
72.51630
11
-313.69409
21
575.55731
31
172.27271
12
-172.27271
22
575.55731
32
313.69409
13
-72.51630
23
575.55731
33
277.57730
0
3DFACE
8
layer1
62
1
10
-313.69409
20
370.50671
30
172.27271
11
-277.57730
21
370.50671
31
72.51630
12
-72.51630
22
370.50671
32
277.57730
13
-172.27271
23
370.50671
33
313.69409
0
3DFACE
8
layer1
62
1
10
97.53700
20
768.76349
30
335.16699
11
-97.53700
21
768.76349
31
335.16699
12
-97.53700
22
568.76318
32
335.16699
13
97.53700
23
568.76318
33
335.16699
0
3DFACE
8
layer1
62
1
10
-97.53700
20
768.76349
30
335.16699
11
-141.78300
21
768.76349
31
241.45641
12
-141.78300
22
568.76318
32
241.45641
13
-97.53700
23
568.76318
33
335.16699
0
3DFACE
8
layer1
62
1
10
141.78300
20
768.76349
30
241.45641
11
97.53700
21
768.76349
31
335.16699
12
97.53700
22
568.76318
32
335.16699
13
141.78300
23
568.76318
33
241.45641
0
3DFACE
8
layer1
62
1
10
141.78300
20
768.76349
30
241.45641
11
-141.78300
21
768.76349
31
241.45641
12
-97.53700
22
768.76349
32
335.16699
13
97.53700
23
768.76349
33
335.16699
0
3DFACE
8
layer1
62
1
10
97.53700
20
768.76349
30
-335.16699
11
97.53700
21
568.76318
31
-335.16699
12
-97.53700
22
568.76318
32
-335.16699
13
-97.53700
23
768.76349
33
-335.16699
0
3DFACE
8
layer1
62
1
10
-97.53700
20
768.76349
30
-335.16699
11
-97.53700
21
568.76318
31
-335.16699
12
-141.42870
22
568.76318
32
-241.45641
13
-141.42870
23
768.76349
33
-241.45641
0
3DFACE
8
layer1
62
1
10
141.42870
20
768.76349
30
-241.45641
11
141.42870
21
568.76318
31
-241.45641
12
97.53700
22
568.76318
32
-335.16699
13
97.53700
23
768.76349
33
-335.16699
0
3DFACE
8
layer1
62
1
10
141.42870
20
768.76349
30
-241.45641
11
97.53700
21
768.76349
31
-335.16699
12
-97.53700
22
768.76349
32
-335.16699
13
-141.42870
23
768.76349
33
-241.45641
0
3DFACE
8
layer1
62
1
10
335.16699
20
768.76349
30
-97.53700
11
335.16699
21
768.76349
31
97.53700
12
335.16699
22
568.76318
32
97.53700
13
335.16699
23
568.76318
33
-97.53700
0
3DFACE
8
layer1
62
1
10
335.16699
20
768.76349
30
97.53700
11
241.45641
21
768.76349
31
141.42870
12
241.45641
22
568.76318
32
141.42870
13
335.16699
23
568.76318
33
97.53700
0
3DFACE
8
layer1
62
1
10
241.45641
20
768.76349
30
-141.42870
11
335.16699
21
768.76349
31
-97.53700
12
335.16699
22
568.76318
32
-97.53700
13
241.45641
23
568.76318
33
-141.42870
0
3DFACE
8
layer1
62
1
10
241.45641
20
768.76349
30
-141.42870
11
241.45641
21
768.76349
31
141.42870
12
335.16699
22
768.76349
32
97.53700
13
335.16699
23
768.76349
33
-97.53700
0
3DFACE
8
layer1
62
1
10
-335.16699
20
768.76349
30
-97.53700
11
-335.16699
21
568.76318
31
-97.53700
12
-335.16699
22
568.76318
32
97.53700
13
-335.16699
23
768.76349
33
97.53700
0
3DFACE
8
layer1
62
1
10
-335.16699
20
768.76349
30
97.53700
11
-335.16699
21
568.76318
31
97.53700
12
-241.45641
22
568.76318
32
141.42870
13
-241.45641
23
768.76349
33
141.42870
0
3DFACE
8
layer1
62
1
10
-241.45641
20
768.76349
30
-141.42870
11
-241.45641
21
568.76318
31
-141.42870
12
-335.16699
22
568.76318
32
-97.53700
13
-335.16699
23
768.76349
33
-97.53700
0
3DFACE
8
layer1
62
1
10
-241.45641
20
768.76349
30
-141.42870
11
-335.16699
21
768.76349
31
-97.53700
12
-335.16699
22
768.76349
32
97.53700
13
-241.45641
23
768.76349
33
141.42870
0
3DFACE
8
layer1
62
1
10
305.96799
20
768.76349
30
168.02969
11
168.02969
21
768.76349
31
305.96799
12
168.02969
22
568.76318
32
305.96799
13
305.96799
23
568.76318
33
168.02969
0
3DFACE
8
layer1
62
1
10
168.02969
20
768.76349
30
305.96799
11
70.73030
21
768.76349
31
270.74060
12
70.73030
22
568.76318
32
270.74060
13
168.02969
23
568.76318
33
305.96799
0
3DFACE
8
layer1
62
1
10
270.74060
20
768.76349
30
70.73030
11
305.96799
21
768.76349
31
168.02969
12
305.96799
22
568.76318
32
168.02969
13
270.74060
23
568.76318
33
70.73030
0
3DFACE
8
layer1
62
1
10
270.74060
20
768.76349
30
70.73030
11
70.73030
21
768.76349
31
270.74060
12
168.02969
22
768.76349
32
305.96799
13
305.96799
23
768.76349
33
168.02969
0
3DFACE
8
layer1
62
1
10
-168.02969
20
768.76349
30
-305.96799
11
-168.02969
21
568.76318
31
-305.96799
12
-305.96799
22
568.76318
32
-168.02969
13
-305.96799
23
768.76349
33
-168.02969
0
3DFACE
8
layer1
62
1
10
-305.96799
20
768.76349
30
-168.02969
11
-305.96799
21
568.76318
31
-168.02969
12
-270.74060
22
568.76318
32
-70.73030
13
-270.74060
23
768.76349
33
-70.73030
0
3DFACE
8
layer1
62
1
10
-70.73030
20
768.76349
30
-270.74060
11
-70.73030
21
568.76318
31
-270.74060
12
-168.02969
22
568.76318
32
-305.96799
13
-168.02969
23
768.76349
33
-305.96799
0
3DFACE
8
layer1
62
1
10
-70.73030
20
768.76349
30
-270.74060
11
-168.02969
21
768.76349
31
-305.96799
12
-305.96799
22
768.76349
32
-168.02969
13
-270.74060
23
768.76349
33
-70.73030
0
3DFACE
8
layer1
62
1
10
168.02969
20
768.76349
30
-305.96799
11
305.96790
21
768.76349
31
-168.02969
12
305.96790
22
568.76318
32
-168.02969
13
168.02969
23
568.76318
33
-305.96799
0
3DFACE
8
layer1
62
1
10
305.96790
20
768.76349
30
-168.02969
11
270.74060
21
768.76349
31
-70.73030
12
270.74060
22
568.76318
32
-70.73030
13
305.96790
23
568.76318
33
-168.02969
0
3DFACE
8
layer1
62
1
10
70.73030
20
768.76349
30
-270.74060
11
168.02969
21
768.76349
31
-305.96799
12
168.02969
22
568.76318
32
-305.96799
13
70.73030
23
568.76318
33
-270.74060
0
3DFACE
8
layer1
62
1
10
70.73030
20
768.76349
30
-270.74060
11
270.74060
21
768.76349
31
-70.73030
12
305.96790
22
768.76349
32
-168.02969
13
168.02969
23
768.76349
33
-305.96799
0
3DFACE
8
layer1
62
1
10
-305.96790
20
768.76349
30
168.02969
11
-305.96790
21
568.76318
31
168.02969
12
-168.02969
22
568.76318
32
305.96799
13
-168.02969
23
768.76349
33
305.96799
0
3DFACE
8
layer1
62
1
10
-168.02969
20
768.76349
30
305.96799
11
-168.02969
21
568.76318
31
305.96799
12
-70.73030
22
568.76318
32
270.74060
13
-70.73030
23
768.76349
33
270.74060
0
3DFACE
8
layer1
62
1
10
-270.74060
20
768.76349
30
70.73030
11
-270.74060
21
568.76318
31
70.73030
12
-305.96790
22
568.76318
32
168.02969
13
-305.96790
23
768.76349
33
168.02969
0
3DFACE
8
layer1
62
1
10
-270.74060
20
768.76349
30
70.73030
11
-305.96790
21
768.76349
31
168.02969
12
-168.02969
22
768.76349
32
305.96799
13
-70.73030
23
768.76349
33
270.74060
0
3DFACE
8
layer1
62
1
10
100.00000
20
942.28992
30
343.63040
11
-100.00000
21
942.28992
31
343.63040
12
-100.00000
22
737.23962
32
343.63040
13
100.00000
23
737.23962
33
343.63040
0
3DFACE
8
layer1
62
1
10
-100.00000
20
942.28992
30
343.63040
11
-145.36320
21
942.28992
31
247.55360
12
-145.36320
22
737.23962
32
247.55360
13
-100.00000
23
737.23962
33
343.63040
0
3DFACE
8
layer1
62
1
10
145.36320
20
942.28992
30
247.55360
11
100.00000
21
942.28992
31
343.63040
12
100.00000
22
737.23962
32
343.63040
13
145.36320
23
737.23962
33
247.55360
0
3DFACE
8
layer1
62
1
10
145.36320
20
942.28992
30
247.55360
11
-145.36320
21
942.28992
31
247.55360
12
-100.00000
22
942.28992
32
343.63040
13
100.00000
23
942.28992
33
343.63040
0
3DFACE
8
layer1
62
1
10
100.00000
20
737.23962
30
343.63040
11
-100.00000
21
737.23962
31
343.63040
12
-145.36320
22
737.23962
32
247.55360
13
145.36320
23
737.23962
33
247.55360
0
3DFACE
8
layer1
62
1
10
100.00000
20
942.28992
30
-343.63040
11
100.00000
21
737.23962
31
-343.63040
12
-100.00000
22
737.23962
32
-343.63040
13
-100.00000
23
942.28992
33
-343.63040
0
3DFACE
8
layer1
62
1
10
-100.00000
20
942.28992
30
-343.63040
11
-100.00000
21
737.23962
31
-343.63040
12
-145.00000
22
737.23962
32
-247.55360
13
-145.00000
23
942.28992
33
-247.55360
0
3DFACE
8
layer1
62
1
10
145.00000
20
942.28992
30
-247.55360
11
145.00000
21
737.23962
31
-247.55360
12
100.00000
22
737.23962
32
-343.63040
13
100.00000
23
942.28992
33
-343.63040
0
3DFACE
8
layer1
62
1
10
145.00000
20
942.28992
30
-247.55360
11
100.00000
21
942.28992
31
-343.63040
12
-100.00000
22
942.28992
32
-343.63040
13
-145.00000
23
942.28992
33
-247.55360
0
3DFACE
8
layer1
62
1
10
100.00000
20
737.23962
30
-343.63040
11
145.00000
21
737.23962
31
-247.55360
12
-145.00000
22
737.23962
32
-247.55360
13
-100.00000
23
737.23962
33
-343.63040
0
3DFACE
8
layer1
62
1
10
343.63040
20
942.28992
30
-100.00000
11
343.63040
21
942.28992
31
100.00000
12
343.63040
22
737.23962
32
100.00000
13
343.63040
23
737.23962
33
-100.00000
0
3DFACE
8
layer1
62
1
10
343.63040
20
942.28992
30
100.00000
11
247.55360
21
942.28992
31
145.00000
12
247.55360
22
737.23962
32
145.00000
13
343.63040
23
737.23962
33
100.00000
0
3DFACE
8
layer1
62
1
10
247.55360
20
942.28992
30
-145.00000
11
343.63040
21
942.28992
31
-100.00000
12
343.63040
22
737.23962
32
-100.00000
13
247.55360
23
737.23962
33
-145.00000
0
3DFACE
8
layer1
62
1
10
247.55360
20
942.28992
30
-145.00000
11
247.55360
21
942.28992
31
145.00000
12
343.63040
22
942.28992
32
100.00000
13
343.63040
23
942.28992
33
-100.00000
0
3DFACE
8
layer1
62
1
10
343.63040
20
737.23962
30
-100.00000
11
343.63040
21
737.23962
31
100.00000
12
247.55360
22
737.23962
32
145.00000
13
247.55360
23
737.23962
33
-145.00000
0
3DFACE
8
layer1
62
1
10
-343.63040
20
942.28992
30
-100.00000
11
-343.63040
21
737.23962
31
-100.00000
12
-343.63040
22
737.23962
32
100.00000
13
-343.63040
23
942.28992
33
100.00000
0
3DFACE
8
layer1
62
1
10
-343.63040
20
942.28992
30
100.00000
11
-343.63040
21
737.23962
31
100.00000
12
-247.55360
22
737.23962
32
145.00000
13
-247.55360
23
942.28992
33
145.00000
0
3DFACE
8
layer1
62
1
10
-247.55360
20
942.28992
30
-145.00000
11
-247.55360
21
737.23962
31
-145.00000
12
-343.63040
22
737.23962
32
-100.00000
13
-343.63040
23
942.28992
33
-100.00000
0
3DFACE
8
layer1
62
1
10
-247.55360
20
942.28992
30
-145.00000
11
-343.63040
21
942.28992
31
-100.00000
12
-343.63040
22
942.28992
32
100.00000
13
-247.55360
23
942.28992
33
145.00000
0
3DFACE
8
layer1
62
1
10
-343.63040
20
737.23962
30
-100.00000
11
-247.55360
21
737.23962
31
-145.00000
12
-247.55360
22
737.23962
32
145.00000
13
-343.63040
23
737.23962
33
100.00000
0
3DFACE
8
layer1
62
1
10
313.69409
20
942.28992
30
172.27271
11
172.27271
21
942.28992
31
313.69409
12
172.27271
22
737.23962
32
313.69409
13
313.69409
23
737.23962
33
172.27271
0
3DFACE
8
layer1
62
1
10
172.27271
20
942.28992
30
313.69409
11
72.51630
21
942.28992
31
277.57730
12
72.51630
22
737.23962
32
277.57730
13
172.27271
23
737.23962
33
313.69409
0
3DFACE
8
layer1
62
1
10
277.57730
20
942.28992
30
72.51630
11
313.69409
21
942.28992
31
172.27271
12
313.69409
22
737.23962
32
172.27271
13
277.57730
23
737.23962
33
72.51630
0
3DFACE
8
layer1
62
1
10
277.57730
20
942.28992
30
72.51630
11
72.51630
21
942.28992
31
277.57730
12
172.27271
22
942.28992
32
313.69409
13
313.69409
23
942.28992
33
172.27271
0
3DFACE
8
layer1
62
1
10
313.69409
20
737.23962
30
172.27271
11
172.27271
21
737.23962
31
313.69409
12
72.51630
22
737.23962
32
277.57730
13
277.57730
23
737.23962
33
72.51630
0
3DFACE
8
layer1
62
1
10
-172.27271
20
942.28992
30
-313.69409
11
-172.27271
21
737.23962
31
-313.69409
12
-313.69409
22
737.23962
32
-172.27271
13
-313.69409
23
942.28992
33
-172.27271
0
3DFACE
8
layer1
62
1
10
-313.69409
20
942.28992
30
-172.27271
11
-313.69409
21
737.23962
31
-172.27271
12
-277.57730
22
737.23962
32
-72.51630
13
-277.57730
23
942.28992
33
-72.51630
0
3DFACE
8
layer1
62
1
10
-72.51630
20
942.28992
30
-277.57730
11
-72.51630
21
737.23962
31
-277.57730
12
-172.27271
22
737.23962
32
-313.69409
13
-172.27271
23
942.28992
33
-313.69409
0
3DFACE
8
layer1
62
1
10
-72.51630
20
942.28992
30
-277.57730
11
-172.27271
21
942.28992
31
-313.69409
12
-313.69409
22
942.28992
32
-172.27271
13
-277.57730
23
942.28992
33
-72.51630
0
3DFACE
8
layer1
62
1
10
-172.27271
20
737.23962
30
-313.69409
11
-72.51630
21
737.23962
31
-277.57730
12
-277.57730
22
737.23962
32
-72.51630
13
-313.69409
23
737.23962
33
-172.27271
0
3DFACE
8
layer1
62
1
10
172.27271
20
942.28992
30
-313.69409
11
313.69409
21
942.28992
31
-172.27271
12
313.69409
22
737.23962
32
-172.27271
13
172.27271
23
737.23962
33
-313.69409
0
3DFACE
8
layer1
62
1
10
313.69409
20
942.28992
30
-172.27271
11
277.57730
21
942.28992
31
-72.51630
12
277.57730
22
737.23962
32
-72.51630
13
313.69409
23
737.23962
33
-172.27271
0
3DFACE
8
layer1
62
1
10
72.51630
20
942.28992
30
-277.57730
11
172.27271
21
942.28992
31
-313.69409
12
172.27271
22
737.23962
32
-313.69409
13
72.51630
23
737.23962
33
-277.57730
0
3DFACE
8
layer1
62
1
10
72.51630
20
942.28992
30
-277.57730
11
277.57730
21
942.28992
31
-72.51630
12
313.69409
22
942.28992
32
-172.27271
13
172.27271
23
942.28992
33
-313.69409
0
3DFACE
8
layer1
62
1
10
172.27271
20
737.23962
30
-313.69409
11
313.69409
21
737.23962
31
-172.27271
12
277.57730
22
737.23962
32
-72.51630
13
72.51630
23
737.23962
33
-277.57730
0
3DFACE
8
layer1
62
1
10
-313.69409
20
942.28992
30
172.27271
11
-313.69409
21
737.23962
31
172.27271
12
-172.27271
22
737.23962
32
313.69409
13
-172.27271
23
942.28992
33
313.69409
0
3DFACE
8
layer1
62
1
10
-172.27271
20
942.28992
30
313.69409
11
-172.27271
21
737.23962
31
313.69409
12
-72.51630
22
737.23962
32
277.57730
13
-72.51630
23
942.28992
33
277.57730
0
3DFACE
8
layer1
62
1
10
-277.57730
20
942.28992
30
72.51630
11
-277.57730
21
737.23962
31
72.51630
12
-313.69409
22
737.23962
32
172.27271
13
-313.69409
23
942.28992
33
172.27271
0
3DFACE
8
layer1
62
1
10
-277.57730
20
942.28992
30
72.51630
11
-313.69409
21
942.28992
31
172.27271
12
-172.27271
22
942.28992
32
313.69409
13
-72.51630
23
942.28992
33
277.57730
0
3DFACE
8
layer1
62
1
10
-313.69409
20
737.23962
30
172.27271
11
-277.57730
21
737.23962
31
72.51630
12
-72.51630
22
737.23962
32
277.57730
13
-172.27271
23
737.23962
33
313.69409
0
3DFACE
8
layer1
62
1
10
97.53700
20
1135.49683
30
335.16699
11
-97.53700
21
1135.49683
31
335.16699
12
-97.53700
22
935.49628
32
335.16699
13
97.53700
23
935.49628
33
335.16699
0
3DFACE
8
layer1
62
1
10
-97.53700
20
1135.49683
30
335.16699
11
-141.78300
21
1135.49683
31
241.45641
12
-141.78300
22
935.49628
32
241.45641
13
-97.53700
23
935.49628
33
335.16699
0
3DFACE
8
layer1
62
1
10
141.78300
20
1135.49683
30
241.45641
11
97.53700
21
1135.49683
31
335.16699
12
97.53700
22
935.49628
32
335.16699
13
141.78300
23
935.49628
33
241.45641
0
3DFACE
8
layer1
62
1
10
141.78300
20
1135.49683
30
241.45641
11
-141.78300
21
1135.49683
31
241.45641
12
-97.53700
22
1135.49683
32
335.16699
13
97.53700
23
1135.49683
33
335.16699
0
3DFACE
8
layer1
62
1
10
97.53700
20
1135.49683
30
-335.16699
11
97.53700
21
935.49628
31
-335.16699
12
-97.53700
22
935.49628
32
-335.16699
13
-97.53700
23
1135.49683
33
-335.16699
0
3DFACE
8
layer1
62
1
10
-97.53700
20
1135.49683
30
-335.16699
11
-97.53700
21
935.49628
31
-335.16699
12
-141.42870
22
935.49628
32
-241.45641
13
-141.42870
23
1135.49683
33
-241.45641
0
3DFACE
8
layer1
62
1
10
141.42870
20
1135.49683
30
-241.45641
11
141.42870
21
935.49628
31
-241.45641
12
97.53700
22
935.49628
32
-335.16699
13
97.53700
23
1135.49683
33
-335.16699
0
3DFACE
8
layer1
62
1
10
141.42870
20
1135.49683
30
-241.45641
11
97.53700
21
1135.49683
31
-335.16699
12
-97.53700
22
1135.49683
32
-335.16699
13
-141.42870
23
1135.49683
33
-241.45641
0
3DFACE
8
layer1
62
1
10
335.16699
20
1135.49683
30
-97.53700
11
335.16699
21
1135.49683
31
97.53700
12
335.16699
22
935.49628
32
97.53700
13
335.16699
23
935.49628
33
-97.53700
0
3DFACE
8
layer1
62
1
10
335.16699
20
1135.49683
30
97.53700
11
241.45641
21
1135.49683
31
141.42870
12
241.45641
22
935.49628
32
141.42870
13
335.16699
23
935.49628
33
97.53700
0
3DFACE
8
layer1
62
1
10
241.45641
20
1135.49683
30
-141.42870
11
335.16699
21
1135.49683
31
-97.53700
12
335.16699
22
935.49628
32
-97.53700
13
241.45641
23
935.49628
33
-141.42870
0
3DFACE
8
layer1
62
1
10
241.45641
20
1135.49683
30
-141.42870
11
241.45641
21
1135.49683
31
141.42870
12
335.16699
22
1135.49683
32
97.53700
13
335.16699
23
1135.49683
33
-97.53700
0
3DFACE
8
layer1
62
1
10
-335.16699
20
1135.49683
30
-97.53700
11
-335.16699
21
935.49628
31
-97.53700
12
-335.16699
22
935.49628
32
97.53700
13
-335.16699
23
1135.49683
33
97.53700
0
3DFACE
8
layer1
62
1
10
-335.16699
20
1135.49683
30
97.53700
11
-335.16699
21
935.49628
31
97.53700
12
-241.45641
22
935.49628
32
141.42870
13
-241.45641
23
1135.49683
33
141.42870
0
3DFACE
8
layer1
62
1
10
-241.45641
20
1135.49683
30
-141.42870
11
-241.45641
21
935.49628
31
-141.42870
12
-335.16699
22
935.49628
32
-97.53700
13
-335.16699
23
1135.49683
33
-97.53700
0
3DFACE
8
layer1
62
1
10
-241.45641
20
1135.49683
30
-141.42870
11
-335.16699
21
1135.49683
31
-97.53700
12
-335.16699
22
1135.49683
32
97.53700
13
-241.45641
23
1135.49683
33
141.42870
0
3DFACE
8
layer1
62
1
10
305.96799
20
1135.49683
30
168.02969
11
168.02969
21
1135.49683
31
305.96799
12
168.02969
22
935.49628
32
305.96799
13
305.96799
23
935.49628
33
168.02969
0
3DFACE
8
layer1
62
1
10
168.02969
20
1135.49683
30
305.96799
11
70.73030
21
1135.49683
31
270.74060
12
70.73030
22
935.49628
32
270.74060
13
168.02969
23
935.49628
33
305.96799
0
3DFACE
8
layer1
62
1
10
270.74060
20
1135.49683
30
70.73030
11
305.96799
21
1135.49683
31
168.02969
12
305.96799
22
935.49628
32
168.02969
13
270.74060
23
935.49628
33
70.73030
0
3DFACE
8
layer1
62
1
10
270.74060
20
1135.49683
30
70.73030
11
70.73030
21
1135.49683
31
270.74060
12
168.02969
22
1135.49683
32
305.96799
13
305.96799
23
1135.49683
33
168.02969
0
3DFACE
8
layer1
62
1
10
-168.02969
20
1135.49683
30
-305.96799
11
-168.02969
21
935.49628
31
-305.96799
12
-305.96799
22
935.49628
32
-168.02969
13
-305.96799
23
1135.49683
33
-168.02969
0
3DFACE
8
layer1
62
1
10
-305.96799
20
1135.49683
30
-168.02969
11
-305.96799
21
935.49628
31
-168.02969
12
-270.74060
22
935.49628
32
-70.73030
13
-270.74060
23
1135.49683
33
-70.73030
0
3DFACE
8
layer1
62
1
10
-70.73030
20
1135.49683
30
-270.74060
11
-70.73030
21
935.49628
31
-270.74060
12
-168.02969
22
935.49628
32
-305.96799
13
-168.02969
23
1135.49683
33
-305.96799
0
3DFACE
8
layer1
62
1
10
-70.73030
20
1135.49683
30
-270.74060
11
-168.02969
21
1135.49683
31
-305.96799
12
-305.96799
22
1135.49683
32
-168.02969
13
-270.74060
23
1135.49683
33
-70.73030
0
3DFACE
8
layer1
62
1
10
168.02969
20
1135.49683
30
-305.96799
11
305.96790
21
1135.49683
31
-168.02969
12
305.96790
22
935.49628
32
-168.02969
13
168.02969
23
935.49628
33
-305.96799
0
3DFACE
8
layer1
62
1
10
305.96790
20
1135.49683
30
-168.02969
11
270.74060
21
1135.49683
31
-70.73030
12
270.74060
22
935.49628
32
-70.73030
13
305.96790
23
935.49628
33
-168.02969
0
3DFACE
8
layer1
62
1
10
70.73030
20
1135.49683
30
-270.74060
11
168.02969
21
1135.49683
31
-305.96799
12
168.02969
22
935.49628
32
-305.96799
13
70.73030
23
935.49628
33
-270.74060
0
3DFACE
8
layer1
62
1
10
70.73030
20
1135.49683
30
-270.74060
11
270.74060
21
1135.49683
31
-70.73030
12
305.96790
22
1135.49683
32
-168.02969
13
168.02969
23
1135.49683
33
-305.96799
0
3DFACE
8
layer1
62
1
10
-305.96790
20
1135.49683
30
168.02969
11
-305.96790
21
935.49628
31
168.02969
12
-168.02969
22
935.49628
32
305.96799
13
-168.02969
23
1135.49683
33
305.96799
0
3DFACE
8
layer1
62
1
10
-168.02969
20
1135.49683
30
305.96799
11
-168.02969
21
935.49628
31
305.96799
12
-70.73030
22
935.49628
32
270.74060
13
-70.73030
23
1135.49683
33
270.74060
0
3DFACE
8
layer1
62
1
10
-270.74060
20
1135.49683
30
70.73030
11
-270.74060
21
935.49628
31
70.73030
12
-305.96790
22
935.49628
32
168.02969
13
-305.96790
23
1135.49683
33
168.02969
0
3DFACE
8
layer1
62
1
10
-270.74060
20
1135.49683
30
70.73030
11
-305.96790
21
1135.49683
31
168.02969
12
-168.02969
22
1135.49683
32
305.96799
13
-70.73030
23
1135.49683
33
270.74060
0
3DFACE
8
layer1
62
1
10
100.00000
20
1306.50439
30
343.63040
11
-100.00000
21
1306.50439
31
343.63040
12
-100.00000
22
1101.45312
32
343.63040
13
100.00000
23
1101.45312
33
343.63040
0
3DFACE
8
layer1
62
1
10
-100.00000
20
1306.50439
30
343.63040
11
-145.36320
21
1306.50439
31
247.55360
12
-145.36320
22
1101.45312
32
247.55360
13
-100.00000
23
1101.45312
33
343.63040
0
3DFACE
8
layer1
62
1
10
145.36320
20
1306.50439
30
247.55360
11
100.00000
21
1306.50439
31
343.63040
12
100.00000
22
1101.45312
32
343.63040
13
145.36320
23
1101.45312
33
247.55360
0
3DFACE
8
layer1
62
1
10
145.36320
20
1306.50439
30
247.55360
11
-145.36320
21
1306.50439
31
247.55360
12
-100.00000
22
1306.50439
32
343.63040
13
100.00000
23
1306.50439
33
343.63040
0
3DFACE
8
layer1
62
1
10
100.00000
20
1101.45312
30
343.63040
11
-100.00000
21
1101.45312
31
343.63040
12
-145.36320
22
1101.45312
32
247.55360
13
145.36320
23
1101.45312
33
247.55360
0
3DFACE
8
layer1
62
1
10
100.00000
20
1306.50439
30
-343.63040
11
100.00000
21
1101.45312
31
-343.63040
12
-100.00000
22
1101.45312
32
-343.63040
13
-100.00000
23
1306.50439
33
-343.63040
0
3DFACE
8
layer1
62
1
10
-100.00000
20
1306.50439
30
-343.63040
11
-100.00000
21
1101.45312
31
-343.63040
12
-145.00000
22
1101.45312
32
-247.55360
13
-145.00000
23
1306.50439
33
-247.55360
0
3DFACE
8
layer1
62
1
10
145.00000
20
1306.50439
30
-247.55360
11
145.00000
21
1101.45312
31
-247.55360
12
100.00000
22
1101.45312
32
-343.63040
13
100.00000
23
1306.50439
33
-343.63040
0
3DFACE
8
layer1
62
1
10
145.00000
20
1306.50439
30
-247.55360
11
100.00000
21
1306.50439
31
-343.63040
12
-100.00000
22
1306.50439
32
-343.63040
13
-145.00000
23
1306.50439
33
-247.55360
0
3DFACE
8
layer1
62
1
10
100.00000
20
1101.45312
30
-343.63040
11
145.00000
21
1101.45312
31
-247.55360
12
-145.00000
22
1101.45312
32
-247.55360
13
-100.00000
23
1101.45312
33
-343.63040
0
3DFACE
8
layer1
62
1
10
343.63040
20
1306.50439
30
-100.00000
11
343.63040
21
1306.50439
31
100.00000
12
343.63040
22
1101.45312
32
100.00000
13
343.63040
23
1101.45312
33
-100.00000
0
3DFACE
8
layer1
62
1
10
343.63040
20
1306.50439
30
100.00000
11
247.55360
21
1306.50439
31
145.00000
12
247.55360
22
1101.45312
32
145.00000
13
343.63040
23
1101.45312
33
100.00000
0
3DFACE
8
layer1
62
1
10
247.55360
20
1306.50439
30
-145.00000
11
343.63040
21
1306.50439
31
-100.00000
12
343.63040
22
1101.45312
32
-100.00000
13
247.55360
23
1101.45312
33
-145.00000
0
3DFACE
8
layer1
62
1
10
247.55360
20
1306.50439
30
-145.00000
11
247.55360
21
1306.50439
31
145.00000
12
343.63040
22
1306.50439
32
100.00000
13
343.63040
23
1306.50439
33
-100.00000
0
3DFACE
8
layer1
62
1
10
343.63040
20
1101.45312
30
-100.00000
11
343.63040
21
1101.45312
31
100.00000
12
247.55360
22
1101.45312
32
145.00000
13
247.55360
23
1101.45312
33
-145.00000
0
3DFACE
8
layer1
62
1
10
-343.63040
20
1306.50439
30
-100.00000
11
-343.63040
21
1101.45312
31
-100.00000
12
-343.63040
22
1101.45312
32
100.00000
13
-343.63040
23
1306.50439
33
100.00000
0
3DFACE
8
layer1
62
1
10
-343.63040
20
1306.50439
30
100.00000
11
-343.63040
21
1101.45312
31
100.00000
12
-247.55360
22
1101.45312
32
145.00000
13
-247.55360
23
1306.50439
33
145.00000
0
3DFACE
8
layer1
62
1
10
-247.55360
20
1306.50439
30
-145.00000
11
-247.55360
21
1101.45312
31
-145.00000
12
-343.63040
22
1101.45312
32
-100.00000
13
-343.63040
23
1306.50439
33
-100.00000
0
3DFACE
8
layer1
62
1
10
-247.55360
20
1306.50439
30
-145.00000
11
-343.63040
21
1306.50439
31
-100.00000
12
-343.63040
22
1306.50439
32
100.00000
13
-247.55360
23
1306.50439
33
145.00000
0
3DFACE
8
layer1
62
1
10
-343.63040
20
1101.45312
30
-100.00000
11
-247.55360
21
1101.45312
31
-145.00000
12
-247.55360
22
1101.45312
32
145.00000
13
-343.63040
23
1101.45312
33
100.00000
0
3DFACE
8
layer1
62
1
10
313.69409
20
1306.50439
30
172.27271
11
172.27271
21
1306.50439
31
313.69409
12
172.27271
22
1101.45312
32
313.69409
13
313.69409
23
1101.45312
33
172.27271
0
3DFACE
8
layer1
62
1
10
172.27271
20
1306.50439
30
313.69409
11
72.51630
21
1306.50439
31
277.57730
12
72.51630
22
1101.45312
32
277.57730
13
172.27271
23
1101.45312
33
313.69409
0
3DFACE
8
layer1
62
1
10
277.57730
20
1306.50439
30
72.51630
11
313.69409
21
1306.50439
31
172.27271
12
313.69409
22
1101.45312
32
172.27271
13
277.57730
23
1101.45312
33
72.51630
0
3DFACE
8
layer1
62
1
10
277.57730
20
1306.50439
30
72.51630
11
72.51630
21
1306.50439
31
277.57730
12
172.27271
22
1306.50439
32
313.69409
13
313.69409
23
1306.50439
33
172.27271
0
3DFACE
8
layer1
62
1
10
313.69409
20
1101.45312
30
172.27271
11
172.27271
21
1101.45312
31
313.69409
12
72.51630
22
1101.45312
32
277.57730
13
277.57730
23
1101.45312
33
72.51630
0
3DFACE
8
layer1
62
1
10
-172.27271
20
1306.50439
30
-313.69409
11
-172.27271
21
1101.45312
31
-313.69409
12
-313.69409
22
1101.45312
32
-172.27271
13
-313.69409
23
1306.50439
33
-172.27271
0
3DFACE
8
layer1
62
1
10
-313.69409
20
1306.50439
30
-172.27271
11
-313.69409
21
1101.45312
31
-172.27271
12
-277.57730
22
1101.45312
32
-72.51630
13
-277.57730
23
1306.50439
33
-72.51630
0
3DFACE
8
layer1
62
1
10
-72.51630
20
1306.50439
30
-277.57730
11
-72.51630
21
1101.45312
31
-277.57730
12
-172.27271
22
1101.45312
32
-313.69409
13
-172.27271
23
1306.50439
33
-313.69409
0
3DFACE
8
layer1
62
1
10
-72.51630
20
1306.50439
30
-277.57730
11
-172.27271
21
1306.50439
31
-313.69409
12
-313.69409
22
1306.50439
32
-172.27271
13
-277.57730
23
1306.50439
33
-72.51630
0
3DFACE
8
layer1
62
1
10
-172.27271
20
1101.45312
30
-313.69409
11
-72.51630
21
1101.45312
31
-277.57730
12
-277.57730
22
1101.45312
32
-72.51630
13
-313.69409
23
1101.45312
33
-172.27271
0
3DFACE
8
layer1
62
1
10
172.27271
20
1306.50439
30
-313.69409
11
313.69409
21
1306.50439
31
-172.27271
12
313.69409
22
1101.45312
32
-172.27271
13
172.27271
23
1101.45312
33
-313.69409
0
3DFACE
8
layer1
62
1
10
313.69409
20
1306.50439
30
-172.27271
11
277.57730
21
1306.50439
31
-72.51630
12
277.57730
22
1101.45312
32
-72.51630
13
313.69409
23
1101.45312
33
-172.27271
0
3DFACE
8
layer1
62
1
10
72.51630
20
1306.50439
30
-277.57730
11
172.27271
21
1306.50439
31
-313.69409
12
172.27271
22
1101.45312
32
-313.69409
13
72.51630
23
1101.45312
33
-277.57730
0
3DFACE
8
layer1
62
1
10
72.51630
20
1306.50439
30
-277.57730
11
277.57730
21
1306.50439
31
-72.51630
12
313.69409
22
1306.50439
32
-172.27271
13
172.27271
23
1306.50439
33
-313.69409
0
3DFACE
8
layer1
62
1
10
172.27271
20
1101.45312
30
-313.69409
11
313.69409
21
1101.45312
31
-172.27271
12
277.57730
22
1101.45312
32
-72.51630
13
72.51630
23
1101.45312
33
-277.57730
0
3DFACE
8
layer1
62
1
10
-313.69409
20
1306.50439
30
172.27271
11
-313.69409
21
1101.45312
31
172.27271
12
-172.27271
22
1101.45312
32
313.69409
13
-172.27271
23
1306.50439
33
313.69409
0
3DFACE
8
layer1
62
1
10
-172.27271
20
1306.50439
30
313.69409
11
-172.27271
21
1101.45312
31
313.69409
12
-72.51630
22
1101.45312
32
277.57730
13
-72.51630
23
1306.50439
33
277.57730
0
3DFACE
8
layer1
62
1
10
-277.57730
20
1306.50439
30
72.51630
11
-277.57730
21
1101.45312
31
72.51630
12
-313.69409
22
1101.45312
32
172.27271
13
-313.69409
23
1306.50439
33
172.27271
0
3DFACE
8
layer1
62
1
10
-277.57730
20
1306.50439
30
72.51630
11
-313.69409
21
1306.50439
31
172.27271
12
-172.27271
22
1306.50439
32
313.69409
13
-72.51630
23
1306.50439
33
277.57730
0
3DFACE
8
layer1
62
1
10
-313.69409
20
1101.45312
30
172.27271
11
-277.57730
21
1101.45312
31
72.51630
12
-72.51630
22
1101.45312
32
277.57730
13
-172.27271
23
1101.45312
33
313.69409
0
3DFACE
8
layer1
62
1
10
97.53700
20
1740.37866
30
335.16699
11
-97.53700
21
1740.37866
31
335.16699
12
-97.53700
22
1299.70972
32
335.16699
13
97.53700
23
1299.70972
33
335.16699
0
3DFACE
8
layer1
62
1
10
-97.53700
20
1740.37866
30
335.16699
11
-99.99990
21
1566.06799
31
170.29980
12
-141.78300
22
1299.70972
32
241.45641
13
-97.53700
23
1299.70972
33
335.16699
0
3DFACE
8
layer1
62
1
10
99.99990
20
1566.06799
30
170.29980
11
97.53700
21
1740.37866
31
335.16699
12
97.53700
22
1299.70972
32
335.16699
13
141.78300
23
1299.70972
33
241.45641
0
3DFACE
8
layer1
62
1
10
99.99990
20
1566.06799
30
170.29980
11
-99.99990
21
1566.06799
31
170.29980
12
-97.53700
22
1740.37866
32
335.16699
13
97.53700
23
1740.37866
33
335.16699
0
3DFACE
8
layer1
62
1
10
97.53700
20
1740.37866
30
-335.16699
11
97.53700
21
1299.70972
31
-335.16699
12
-97.53700
22
1299.70972
32
-335.16699
13
-97.53700
23
1740.37866
33
-335.16699
0
3DFACE
8
layer1
62
1
10
-97.53700
20
1740.37866
30
-335.16699
11
-97.53700
21
1299.70972
31
-335.16699
12
-141.42870
22
1299.70972
32
-241.45641
13
-99.75010
23
1566.06799
33
-170.29980
0
3DFACE
8
layer1
62
1
10
99.75010
20
1566.06799
30
-170.29980
11
141.42870
21
1299.70972
31
-241.45641
12
97.53700
22
1299.70972
32
-335.16699
13
97.53700
23
1740.37866
33
-335.16699
0
3DFACE
8
layer1
62
1
10
99.75010
20
1566.06799
30
-170.29980
11
97.53700
21
1740.37866
31
-335.16699
12
-97.53700
22
1740.37866
32
-335.16699
13
-99.75010
23
1566.06799
33
-170.29980
0
3DFACE
8
layer1
62
1
10
335.16699
20
1740.37866
30
-97.53700
11
335.16699
21
1740.37866
31
97.53700
12
335.16699
22
1299.70972
32
97.53700
13
335.16699
23
1299.70972
33
-97.53700
0
3DFACE
8
layer1
62
1
10
335.16699
20
1740.37866
30
97.53700
11
170.29980
21
1566.06799
31
99.75010
12
241.45641
22
1299.70972
32
141.42870
13
335.16699
23
1299.70972
33
97.53700
0
3DFACE
8
layer1
62
1
10
170.29980
20
1566.06799
30
-99.75010
11
335.16699
21
1740.37866
31
-97.53700
12
335.16699
22
1299.70972
32
-97.53700
13
241.45641
23
1299.70972
33
-141.42870
0
3DFACE
8
layer1
62
1
10
170.29980
20
1566.06799
30
-99.75010
11
170.29980
21
1566.06799
31
99.75010
12
335.16699
22
1740.37866
32
97.53700
13
335.16699
23
1740.37866
33
-97.53700
0
3DFACE
8
layer1
62
1
10
-335.16699
20
1740.37866
30
-97.53700
11
-335.16699
21
1299.70972
31
-97.53700
12
-335.16699
22
1299.70972
32
97.53700
13
-335.16699
23
1740.37866
33
97.53700
0
3DFACE
8
layer1
62
1
10
-335.16699
20
1740.37866
30
97.53700
11
-335.16699
21
1299.70972
31
97.53700
12
-241.45641
22
1299.70972
32
141.42870
13
-170.29980
23
1566.06799
33
99.75010
0
3DFACE
8
layer1
62
1
10
-170.29980
20
1566.06799
30
-99.75010
11
-241.45641
21
1299.70972
31
-141.42870
12
-335.16699
22
1299.70972
32
-97.53700
13
-335.16699
23
1740.37866
33
-97.53700
0
3DFACE
8
layer1
62
1
10
-170.29980
20
1566.06799
30
-99.75010
11
-335.16699
21
1740.37866
31
-97.53700
12
-335.16699
22
1740.37866
32
97.53700
13
-170.29980
23
1566.06799
33
99.75010
0
3DFACE
8
layer1
62
1
10
305.96799
20
1586.48145
30
168.02969
11
168.02969
21
1586.48145
31
305.96799
12
168.02969
22
1299.70972
32
305.96799
13
305.96799
23
1299.70972
33
168.02969
0
3DFACE
8
layer1
62
1
10
168.02969
20
1586.48145
30
305.96799
11
70.73030
21
1586.48145
31
270.74060
12
70.73030
22
1299.70972
32
270.74060
13
168.02969
23
1299.70972
33
305.96799
0
3DFACE
8
layer1
62
1
10
270.74060
20
1586.48145
30
70.73030
11
305.96799
21
1586.48145
31
168.02969
12
305.96799
22
1299.70972
32
168.02969
13
270.74060
23
1299.70972
33
70.73030
0
3DFACE
8
layer1
62
1
10
270.74060
20
1586.48145
30
70.73030
11
70.73030
21
1586.48145
31
270.74060
12
168.02969
22
1586.48145
32
305.96799
13
305.96799
23
1586.48145
33
168.02969
0
3DFACE
8
layer1
62
1
10
-168.02969
20
1586.48145
30
-305.96799
11
-168.02969
21
1299.70972
31
-305.96799
12
-305.96799
22
1299.70972
32
-168.02969
13
-305.96799
23
1586.48145
33
-168.02969
0
3DFACE
8
layer1
62
1
10
-305.96799
20
1586.48145
30
-168.02969
11
-305.96799
21
1299.70972
31
-168.02969
12
-270.74060
22
1299.70972
32
-70.73030
13
-270.74060
23
1586.48145
33
-70.73030
0
3DFACE
8
layer1
62
1
10
-70.73030
20
1586.48145
30
-270.74060
11
-70.73030
21
1299.70972
31
-270.74060
12
-168.02969
22
1299.70972
32
-305.96799
13
-168.02969
23
1586.48145
33
-305.96799
0
3DFACE
8
layer1
62
1
10
-70.73030
20
1586.48145
30
-270.74060
11
-168.02969
21
1586.48145
31
-305.96799
12
-305.96799
22
1586.48145
32
-168.02969
13
-270.74060
23
1586.48145
33
-70.73030
0
3DFACE
8
layer1
62
1
10
168.02969
20
1586.48145
30
-305.96799
11
305.96790
21
1586.48145
31
-168.02969
12
305.96790
22
1299.70972
32
-168.02969
13
168.02969
23
1299.70972
33
-305.96799
0
3DFACE
8
layer1
62
1
10
305.96790
20
1586.48145
30
-168.02969
11
270.74060
21
1586.48145
31
-70.73030
12
270.74060
22
1299.70972
32
-70.73030
13
305.96790
23
1299.70972
33
-168.02969
0
3DFACE
8
layer1
62
1
10
70.73030
20
1586.48145
30
-270.74060
11
168.02969
21
1586.48145
31
-305.96799
12
168.02969
22
1299.70972
32
-305.96799
13
70.73030
23
1299.70972
33
-270.74060
0
3DFACE
8
layer1
62
1
10
70.73030
20
1586.48145
30
-270.74060
11
270.74060
21
1586.48145
31
-70.73030
12
305.96790
22
1586.48145
32
-168.02969
13
168.02969
23
1586.48145
33
-305.96799
0
3DFACE
8
layer1
62
1
10
-305.96790
20
1586.48145
30
168.02969
11
-305.96790
21
1299.70972
31
168.02969
12
-168.02969
22
1299.70972
32
305.96799
13
-168.02969
23
1586.48145
33
305.96799
0
3DFACE
8
layer1
62
1
10
-168.02969
20
1586.48145
30
305.96799
11
-168.02969
21
1299.70972
31
305.96799
12
-70.73030
22
1299.70972
32
270.74060
13
-70.73030
23
1586.48145
33
270.74060
0
3DFACE
8
layer1
62
1
10
-270.74060
20
1586.48145
30
70.73030
11
-270.74060
21
1299.70972
31
70.73030
12
-305.96790
22
1299.70972
32
168.02969
13
-305.96790
23
1586.48145
33
168.02969
0
3DFACE
8
layer1
62
1
10
-270.74060
20
1586.48145
30
70.73030
11
-305.96790
21
1586.48145
31
168.02969
12
-168.02969
22
1586.48145
32
305.96799
13
-70.73030
23
1586.48145
33
270.74060
0
ENDSEC
0
EOF
