0
SECTION
2
ENTITIES
999
Created by Metasequoia
0
3DFACE
8
layer1
62
1
10
100.00000
20
186.91675
30
343.63043
11
-100.00000
21
186.91675
31
343.63043
12
-100.00000
22
-18.13354
32
343.63043
13
100.00000
23
-18.13354
33
343.63043
0
3DFACE
8
layer1
62
1
10
-100.00000
20
186.91675
30
343.63043
11
-145.36322
21
186.91675
31
247.55356
12
-145.36322
22
-18.13354
32
247.55356
13
-100.00000
23
-18.13354
33
343.63043
0
3DFACE
8
layer1
62
1
10
145.36322
20
186.91675
30
247.55356
11
100.00000
21
186.91675
31
343.63043
12
100.00000
22
-18.13354
32
343.63043
13
145.36322
23
-18.13354
33
247.55356
0
3DFACE
8
layer1
62
1
10
145.36322
20
186.91675
30
247.55356
11
-145.36322
21
186.91675
31
247.55356
12
-100.00000
22
186.91675
32
343.63043
13
100.00000
23
186.91675
33
343.63043
0
3DFACE
8
layer1
62
1
10
-343.63043
20
186.91675
30
-99.99998
11
-343.63043
21
-18.13354
31
-99.99998
12
-343.63043
22
-18.13354
32
100.00002
13
-343.63043
23
186.91675
33
100.00002
0
3DFACE
8
layer1
62
1
10
-343.63043
20
186.91675
30
100.00002
11
-343.63043
21
-18.13354
31
100.00002
12
-247.55356
22
-18.13354
32
145.00000
13
-247.55356
23
186.91675
33
145.00000
0
3DFACE
8
layer1
62
1
10
-247.55356
20
186.91675
30
-145.00000
11
-247.55356
21
-18.13354
31
-145.00000
12
-343.63043
22
-18.13354
32
-99.99998
13
-343.63043
23
186.91675
33
-99.99998
0
3DFACE
8
layer1
62
1
10
-247.55356
20
186.91675
30
-145.00000
11
-343.63043
21
186.91675
31
-99.99998
12
-343.63043
22
186.91675
32
100.00002
13
-247.55356
23
186.91675
33
145.00000
0
3DFACE
8
layer1
62
1
10
-313.69406
20
186.91675
30
172.27274
11
-313.69406
21
-18.13354
31
172.27274
12
-172.27272
22
-18.13354
32
313.69409
13
-172.27272
23
186.91675
33
313.69409
0
3DFACE
8
layer1
62
1
10
-172.27272
20
186.91675
30
313.69409
11
-172.27272
21
-18.13354
31
313.69409
12
-72.51631
22
-18.13354
32
277.57727
13
-72.51631
23
186.91675
33
277.57727
0
3DFACE
8
layer1
62
1
10
-277.57727
20
186.91675
30
72.51633
11
-277.57727
21
-18.13354
31
72.51633
12
-313.69406
22
-18.13354
32
172.27274
13
-313.69406
23
186.91675
33
172.27274
0
3DFACE
8
layer1
62
1
10
-277.57727
20
186.91675
30
72.51633
11
-313.69406
21
186.91675
31
172.27274
12
-172.27272
22
186.91675
32
313.69409
13
-72.51631
23
186.91675
33
277.57727
0
3DFACE
8
layer1
62
1
10
97.53701
20
380.12274
30
335.16699
11
-97.53701
21
380.12274
31
335.16699
12
-97.53701
22
180.12317
32
335.16699
13
97.53701
23
180.12317
33
335.16699
0
3DFACE
8
layer1
62
1
10
-97.53701
20
380.12274
30
335.16699
11
-141.78296
21
380.12274
31
241.45642
12
-141.78296
22
180.12317
32
241.45642
13
-97.53701
23
180.12317
33
335.16699
0
3DFACE
8
layer1
62
1
10
141.78296
20
380.12274
30
241.45642
11
97.53701
21
380.12274
31
335.16699
12
97.53701
22
180.12317
32
335.16699
13
141.78296
23
180.12317
33
241.45642
0
3DFACE
8
layer1
62
1
10
141.78296
20
380.12274
30
241.45642
11
-141.78296
21
380.12274
31
241.45642
12
-97.53701
22
380.12274
32
335.16699
13
97.53701
23
380.12274
33
335.16699
0
3DFACE
8
layer1
62
1
10
-335.16699
20
380.12274
30
-97.53698
11
-335.16699
21
180.12317
31
-97.53698
12
-335.16699
22
180.12317
32
97.53703
13
-335.16699
23
380.12274
33
97.53703
0
3DFACE
8
layer1
62
1
10
-335.16699
20
380.12274
30
97.53703
11
-335.16699
21
180.12317
31
97.53703
12
-241.45642
22
180.12317
32
141.42873
13
-241.45642
23
380.12274
33
141.42873
0
3DFACE
8
layer1
62
1
10
-241.45642
20
380.12274
30
-141.42873
11
-241.45642
21
180.12317
31
-141.42873
12
-335.16699
22
180.12317
32
-97.53698
13
-335.16699
23
380.12274
33
-97.53698
0
3DFACE
8
layer1
62
1
10
-241.45642
20
380.12274
30
-141.42873
11
-335.16699
21
380.12274
31
-97.53698
12
-335.16699
22
380.12274
32
97.53703
13
-241.45642
23
380.12274
33
141.42873
0
3DFACE
8
layer1
62
1
10
-305.96793
20
380.12274
30
168.02972
11
-305.96793
21
180.12317
31
168.02972
12
-168.02971
22
180.12317
32
305.96796
13
-168.02971
23
380.12274
33
305.96796
0
3DFACE
8
layer1
62
1
10
-168.02971
20
380.12274
30
305.96796
11
-168.02971
21
180.12317
31
305.96796
12
-70.73026
22
180.12317
32
270.74057
13
-70.73026
23
380.12274
33
270.74057
0
3DFACE
8
layer1
62
1
10
-270.74057
20
380.12274
30
70.73027
11
-270.74057
21
180.12317
31
70.73027
12
-305.96793
22
180.12317
32
168.02972
13
-305.96793
23
380.12274
33
168.02972
0
3DFACE
8
layer1
62
1
10
-270.74057
20
380.12274
30
70.73027
11
-305.96793
21
380.12274
31
168.02972
12
-168.02971
22
380.12274
32
305.96796
13
-70.73026
23
380.12274
33
270.74057
0
3DFACE
8
layer1
62
1
10
100.00000
20
575.55725
30
343.63043
11
-100.00000
21
575.55725
31
343.63043
12
-100.00000
22
370.50665
32
343.63043
13
100.00000
23
370.50665
33
343.63043
0
3DFACE
8
layer1
62
1
10
-100.00000
20
575.55725
30
343.63043
11
-145.36322
21
575.55725
31
247.55356
12
-145.36322
22
370.50665
32
247.55356
13
-100.00000
23
370.50665
33
343.63043
0
3DFACE
8
layer1
62
1
10
145.36322
20
575.55725
30
247.55356
11
100.00000
21
575.55725
31
343.63043
12
100.00000
22
370.50665
32
343.63043
13
145.36322
23
370.50665
33
247.55356
0
3DFACE
8
layer1
62
1
10
145.36322
20
575.55725
30
247.55356
11
-145.36322
21
575.55725
31
247.55356
12
-100.00000
22
575.55725
32
343.63043
13
100.00000
23
575.55725
33
343.63043
0
3DFACE
8
layer1
62
1
10
100.00000
20
370.50665
30
343.63043
11
-100.00000
21
370.50665
31
343.63043
12
-145.36322
22
370.50665
32
247.55356
13
145.36322
23
370.50665
33
247.55356
0
3DFACE
8
layer1
62
1
10
-343.63043
20
575.55725
30
-99.99998
11
-343.63043
21
370.50665
31
-99.99998
12
-343.63043
22
370.50665
32
100.00002
13
-343.63043
23
575.55725
33
100.00002
0
3DFACE
8
layer1
62
1
10
-343.63043
20
575.55725
30
100.00002
11
-343.63043
21
370.50665
31
100.00002
12
-247.55356
22
370.50665
32
145.00000
13
-247.55356
23
575.55725
33
145.00000
0
3DFACE
8
layer1
62
1
10
-247.55356
20
575.55725
30
-145.00000
11
-247.55356
21
370.50665
31
-145.00000
12
-343.63043
22
370.50665
32
-99.99998
13
-343.63043
23
575.55725
33
-99.99998
0
3DFACE
8
layer1
62
1
10
-247.55356
20
575.55725
30
-145.00000
11
-343.63043
21
575.55725
31
-99.99998
12
-343.63043
22
575.55725
32
100.00002
13
-247.55356
23
575.55725
33
145.00000
0
3DFACE
8
layer1
62
1
10
-343.63043
20
370.50665
30
-99.99998
11
-247.55356
21
370.50665
31
-145.00000
12
-247.55356
22
370.50665
32
145.00000
13
-343.63043
23
370.50665
33
100.00002
0
3DFACE
8
layer1
62
1
10
-313.69406
20
575.55725
30
172.27274
11
-313.69406
21
370.50665
31
172.27274
12
-172.27272
22
370.50665
32
313.69409
13
-172.27272
23
575.55725
33
313.69409
0
3DFACE
8
layer1
62
1
10
-172.27272
20
575.55725
30
313.69409
11
-172.27272
21
370.50665
31
313.69409
12
-72.51631
22
370.50665
32
277.57727
13
-72.51631
23
575.55725
33
277.57727
0
3DFACE
8
layer1
62
1
10
-277.57727
20
575.55725
30
72.51633
11
-277.57727
21
370.50665
31
72.51633
12
-313.69406
22
370.50665
32
172.27274
13
-313.69406
23
575.55725
33
172.27274
0
3DFACE
8
layer1
62
1
10
-277.57727
20
575.55725
30
72.51633
11
-313.69406
21
575.55725
31
172.27274
12
-172.27272
22
575.55725
32
313.69409
13
-72.51631
23
575.55725
33
277.57727
0
3DFACE
8
layer1
62
1
10
-313.69406
20
370.50665
30
172.27274
11
-277.57727
21
370.50665
31
72.51633
12
-72.51631
22
370.50665
32
277.57727
13
-172.27272
23
370.50665
33
313.69409
0
3DFACE
8
layer1
62
1
10
97.53701
20
768.76349
30
335.16699
11
-97.53701
21
768.76349
31
335.16699
12
-97.53701
22
568.76318
32
335.16699
13
97.53701
23
568.76318
33
335.16699
0
3DFACE
8
layer1
62
1
10
-97.53701
20
768.76349
30
335.16699
11
-141.78296
21
768.76349
31
241.45642
12
-141.78296
22
568.76318
32
241.45642
13
-97.53701
23
568.76318
33
335.16699
0
3DFACE
8
layer1
62
1
10
141.78296
20
768.76349
30
241.45642
11
97.53701
21
768.76349
31
335.16699
12
97.53701
22
568.76318
32
335.16699
13
141.78296
23
568.76318
33
241.45642
0
3DFACE
8
layer1
62
1
10
141.78296
20
768.76349
30
241.45642
11
-141.78296
21
768.76349
31
241.45642
12
-97.53701
22
768.76349
32
335.16699
13
97.53701
23
768.76349
33
335.16699
0
3DFACE
8
layer1
62
1
10
-335.16699
20
768.76349
30
-97.53698
11
-335.16699
21
568.76318
31
-97.53698
12
-335.16699
22
568.76318
32
97.53703
13
-335.16699
23
768.76349
33
97.53703
0
3DFACE
8
layer1
62
1
10
-335.16699
20
768.76349
30
97.53703
11
-335.16699
21
568.76318
31
97.53703
12
-241.45642
22
568.76318
32
141.42873
13
-241.45642
23
768.76349
33
141.42873
0
3DFACE
8
layer1
62
1
10
-241.45642
20
768.76349
30
-141.42873
11
-241.45642
21
568.76318
31
-141.42873
12
-335.16699
22
568.76318
32
-97.53698
13
-335.16699
23
768.76349
33
-97.53698
0
3DFACE
8
layer1
62
1
10
-241.45642
20
768.76349
30
-141.42873
11
-335.16699
21
768.76349
31
-97.53698
12
-335.16699
22
768.76349
32
97.53703
13
-241.45642
23
768.76349
33
141.42873
0
3DFACE
8
layer1
62
1
10
-305.96793
20
768.76349
30
168.02972
11
-305.96793
21
568.76318
31
168.02972
12
-168.02971
22
568.76318
32
305.96796
13
-168.02971
23
768.76349
33
305.96796
0
3DFACE
8
layer1
62
1
10
-168.02971
20
768.76349
30
305.96796
11
-168.02971
21
568.76318
31
305.96796
12
-70.73026
22
568.76318
32
270.74057
13
-70.73026
23
768.76349
33
270.74057
0
3DFACE
8
layer1
62
1
10
-270.74057
20
768.76349
30
70.73027
11
-270.74057
21
568.76318
31
70.73027
12
-305.96793
22
568.76318
32
168.02972
13
-305.96793
23
768.76349
33
168.02972
0
3DFACE
8
layer1
62
1
10
-270.74057
20
768.76349
30
70.73027
11
-305.96793
21
768.76349
31
168.02972
12
-168.02971
22
768.76349
32
305.96796
13
-70.73026
23
768.76349
33
270.74057
0
3DFACE
8
layer1
62
1
10
100.00000
20
942.28986
30
343.63043
11
-100.00000
21
942.28986
31
343.63043
12
-100.00000
22
737.23962
32
343.63043
13
100.00000
23
737.23962
33
343.63043
0
3DFACE
8
layer1
62
1
10
-100.00000
20
942.28986
30
343.63043
11
-145.36322
21
942.28986
31
247.55356
12
-145.36322
22
737.23962
32
247.55356
13
-100.00000
23
737.23962
33
343.63043
0
3DFACE
8
layer1
62
1
10
145.36322
20
942.28986
30
247.55356
11
100.00000
21
942.28986
31
343.63043
12
100.00000
22
737.23962
32
343.63043
13
145.36322
23
737.23962
33
247.55356
0
3DFACE
8
layer1
62
1
10
145.36322
20
942.28986
30
247.55356
11
-145.36322
21
942.28986
31
247.55356
12
-100.00000
22
942.28986
32
343.63043
13
100.00000
23
942.28986
33
343.63043
0
3DFACE
8
layer1
62
1
10
100.00000
20
737.23962
30
343.63043
11
-100.00000
21
737.23962
31
343.63043
12
-145.36322
22
737.23962
32
247.55356
13
145.36322
23
737.23962
33
247.55356
0
3DFACE
8
layer1
62
1
10
-343.63043
20
942.28986
30
-99.99998
11
-343.63043
21
737.23962
31
-99.99998
12
-343.63043
22
737.23962
32
100.00002
13
-343.63043
23
942.28986
33
100.00002
0
3DFACE
8
layer1
62
1
10
-343.63043
20
942.28986
30
100.00002
11
-343.63043
21
737.23962
31
100.00002
12
-247.55356
22
737.23962
32
145.00000
13
-247.55356
23
942.28986
33
145.00000
0
3DFACE
8
layer1
62
1
10
-247.55356
20
942.28986
30
-145.00000
11
-247.55356
21
737.23962
31
-145.00000
12
-343.63043
22
737.23962
32
-99.99998
13
-343.63043
23
942.28986
33
-99.99998
0
3DFACE
8
layer1
62
1
10
-247.55356
20
942.28986
30
-145.00000
11
-343.63043
21
942.28986
31
-99.99998
12
-343.63043
22
942.28986
32
100.00002
13
-247.55356
23
942.28986
33
145.00000
0
3DFACE
8
layer1
62
1
10
-343.63043
20
737.23962
30
-99.99998
11
-247.55356
21
737.23962
31
-145.00000
12
-247.55356
22
737.23962
32
145.00000
13
-343.63043
23
737.23962
33
100.00002
0
3DFACE
8
layer1
62
1
10
-313.69406
20
942.28986
30
172.27274
11
-313.69406
21
737.23962
31
172.27274
12
-172.27272
22
737.23962
32
313.69409
13
-172.27272
23
942.28986
33
313.69409
0
3DFACE
8
layer1
62
1
10
-172.27272
20
942.28986
30
313.69409
11
-172.27272
21
737.23962
31
313.69409
12
-72.51631
22
737.23962
32
277.57727
13
-72.51631
23
942.28986
33
277.57727
0
3DFACE
8
layer1
62
1
10
-277.57727
20
942.28986
30
72.51633
11
-277.57727
21
737.23962
31
72.51633
12
-313.69406
22
737.23962
32
172.27274
13
-313.69406
23
942.28986
33
172.27274
0
3DFACE
8
layer1
62
1
10
-277.57727
20
942.28986
30
72.51633
11
-313.69406
21
942.28986
31
172.27274
12
-172.27272
22
942.28986
32
313.69409
13
-72.51631
23
942.28986
33
277.57727
0
3DFACE
8
layer1
62
1
10
-313.69406
20
737.23962
30
172.27274
11
-277.57727
21
737.23962
31
72.51633
12
-72.51631
22
737.23962
32
277.57727
13
-172.27272
23
737.23962
33
313.69409
0
3DFACE
8
layer1
62
1
10
97.53701
20
1135.49683
30
335.16699
11
-97.53701
21
1135.49683
31
335.16699
12
-97.53701
22
935.49628
32
335.16699
13
97.53701
23
935.49628
33
335.16699
0
3DFACE
8
layer1
62
1
10
-97.53701
20
1135.49683
30
335.16699
11
-141.78296
21
1135.49683
31
241.45642
12
-141.78296
22
935.49628
32
241.45642
13
-97.53701
23
935.49628
33
335.16699
0
3DFACE
8
layer1
62
1
10
141.78296
20
1135.49683
30
241.45642
11
97.53701
21
1135.49683
31
335.16699
12
97.53701
22
935.49628
32
335.16699
13
141.78296
23
935.49628
33
241.45642
0
3DFACE
8
layer1
62
1
10
141.78296
20
1135.49683
30
241.45642
11
-141.78296
21
1135.49683
31
241.45642
12
-97.53701
22
1135.49683
32
335.16699
13
97.53701
23
1135.49683
33
335.16699
0
3DFACE
8
layer1
62
1
10
-335.16699
20
1135.49683
30
-97.53698
11
-335.16699
21
935.49628
31
-97.53698
12
-335.16699
22
935.49628
32
97.53703
13
-335.16699
23
1135.49683
33
97.53703
0
3DFACE
8
layer1
62
1
10
-335.16699
20
1135.49683
30
97.53703
11
-335.16699
21
935.49628
31
97.53703
12
-241.45642
22
935.49628
32
141.42873
13
-241.45642
23
1135.49683
33
141.42873
0
3DFACE
8
layer1
62
1
10
-241.45642
20
1135.49683
30
-141.42873
11
-241.45642
21
935.49628
31
-141.42873
12
-335.16699
22
935.49628
32
-97.53698
13
-335.16699
23
1135.49683
33
-97.53698
0
3DFACE
8
layer1
62
1
10
-241.45642
20
1135.49683
30
-141.42873
11
-335.16699
21
1135.49683
31
-97.53698
12
-335.16699
22
1135.49683
32
97.53703
13
-241.45642
23
1135.49683
33
141.42873
0
3DFACE
8
layer1
62
1
10
-305.96793
20
1135.49683
30
168.02972
11
-305.96793
21
935.49628
31
168.02972
12
-168.02971
22
935.49628
32
305.96796
13
-168.02971
23
1135.49683
33
305.96796
0
3DFACE
8
layer1
62
1
10
-168.02971
20
1135.49683
30
305.96796
11
-168.02971
21
935.49628
31
305.96796
12
-70.73026
22
935.49628
32
270.74057
13
-70.73026
23
1135.49683
33
270.74057
0
3DFACE
8
layer1
62
1
10
-270.74057
20
1135.49683
30
70.73027
11
-270.74057
21
935.49628
31
70.73027
12
-305.96793
22
935.49628
32
168.02972
13
-305.96793
23
1135.49683
33
168.02972
0
3DFACE
8
layer1
62
1
10
-270.74057
20
1135.49683
30
70.73027
11
-305.96793
21
1135.49683
31
168.02972
12
-168.02971
22
1135.49683
32
305.96796
13
-70.73026
23
1135.49683
33
270.74057
0
3DFACE
8
layer1
62
1
10
100.00000
20
1306.50439
30
343.63043
11
-100.00000
21
1306.50439
31
343.63043
12
-100.00000
22
1101.45312
32
343.63043
13
100.00000
23
1101.45312
33
343.63043
0
3DFACE
8
layer1
62
1
10
-100.00000
20
1306.50439
30
343.63043
11
-145.36322
21
1306.50439
31
247.55356
12
-145.36322
22
1101.45312
32
247.55356
13
-100.00000
23
1101.45312
33
343.63043
0
3DFACE
8
layer1
62
1
10
145.36322
20
1306.50439
30
247.55356
11
100.00000
21
1306.50439
31
343.63043
12
100.00000
22
1101.45312
32
343.63043
13
145.36322
23
1101.45312
33
247.55356
0
3DFACE
8
layer1
62
1
10
145.36322
20
1306.50439
30
247.55356
11
-145.36322
21
1306.50439
31
247.55356
12
-100.00000
22
1306.50439
32
343.63043
13
100.00000
23
1306.50439
33
343.63043
0
3DFACE
8
layer1
62
1
10
100.00000
20
1101.45312
30
343.63043
11
-100.00000
21
1101.45312
31
343.63043
12
-145.36322
22
1101.45312
32
247.55356
13
145.36322
23
1101.45312
33
247.55356
0
3DFACE
8
layer1
62
1
10
-343.63043
20
1306.50439
30
-99.99998
11
-343.63043
21
1101.45312
31
-99.99998
12
-343.63043
22
1101.45312
32
100.00002
13
-343.63043
23
1306.50439
33
100.00002
0
3DFACE
8
layer1
62
1
10
-343.63043
20
1306.50439
30
100.00002
11
-343.63043
21
1101.45312
31
100.00002
12
-247.55356
22
1101.45312
32
145.00000
13
-247.55356
23
1306.50439
33
145.00000
0
3DFACE
8
layer1
62
1
10
-247.55356
20
1306.50439
30
-145.00000
11
-247.55356
21
1101.45312
31
-145.00000
12
-343.63043
22
1101.45312
32
-99.99998
13
-343.63043
23
1306.50439
33
-99.99998
0
3DFACE
8
layer1
62
1
10
-247.55356
20
1306.50439
30
-145.00000
11
-343.63043
21
1306.50439
31
-99.99998
12
-343.63043
22
1306.50439
32
100.00002
13
-247.55356
23
1306.50439
33
145.00000
0
3DFACE
8
layer1
62
1
10
-343.63043
20
1101.45312
30
-99.99998
11
-247.55356
21
1101.45312
31
-145.00000
12
-247.55356
22
1101.45312
32
145.00000
13
-343.63043
23
1101.45312
33
100.00002
0
3DFACE
8
layer1
62
1
10
-313.69406
20
1306.50439
30
172.27274
11
-313.69406
21
1101.45312
31
172.27274
12
-172.27272
22
1101.45312
32
313.69409
13
-172.27272
23
1306.50439
33
313.69409
0
3DFACE
8
layer1
62
1
10
-172.27272
20
1306.50439
30
313.69409
11
-172.27272
21
1101.45312
31
313.69409
12
-72.51631
22
1101.45312
32
277.57727
13
-72.51631
23
1306.50439
33
277.57727
0
3DFACE
8
layer1
62
1
10
-277.57727
20
1306.50439
30
72.51633
11
-277.57727
21
1101.45312
31
72.51633
12
-313.69406
22
1101.45312
32
172.27274
13
-313.69406
23
1306.50439
33
172.27274
0
3DFACE
8
layer1
62
1
10
-277.57727
20
1306.50439
30
72.51633
11
-313.69406
21
1306.50439
31
172.27274
12
-172.27272
22
1306.50439
32
313.69409
13
-72.51631
23
1306.50439
33
277.57727
0
3DFACE
8
layer1
62
1
10
-313.69406
20
1101.45312
30
172.27274
11
-277.57727
21
1101.45312
31
72.51633
12
-72.51631
22
1101.45312
32
277.57727
13
-172.27272
23
1101.45312
33
313.69409
0
3DFACE
8
layer1
62
1
10
97.53701
20
1740.37866
30
335.16699
11
-97.53701
21
1740.37866
31
335.16699
12
-97.53701
22
1299.70972
32
335.16699
13
97.53701
23
1299.70972
33
335.16699
0
3DFACE
8
layer1
62
1
10
-97.53701
20
1740.37866
30
335.16699
11
-99.99992
21
1566.06799
31
170.29984
12
-141.78296
22
1299.70972
32
241.45642
13
-97.53701
23
1299.70972
33
335.16699
0
3DFACE
8
layer1
62
1
10
99.99992
20
1566.06799
30
170.29984
11
97.53701
21
1740.37866
31
335.16699
12
97.53701
22
1299.70972
32
335.16699
13
141.78296
23
1299.70972
33
241.45642
0
3DFACE
8
layer1
62
1
10
99.99992
20
1566.06799
30
170.29984
11
-99.99992
21
1566.06799
31
170.29984
12
-97.53701
22
1740.37866
32
335.16699
13
97.53701
23
1740.37866
33
335.16699
0
3DFACE
8
layer1
62
1
10
97.53701
20
1740.37866
30
-335.16699
11
97.53701
21
1299.70972
31
-335.16699
12
-97.53701
22
1299.70972
32
-335.16699
13
-97.53701
23
1740.37866
33
-335.16699
0
3DFACE
8
layer1
62
1
10
-97.53701
20
1740.37866
30
-335.16699
11
-97.53701
21
1299.70972
31
-335.16699
12
-141.42873
22
1299.70972
32
-241.45642
13
-99.75006
23
1566.06799
33
-170.29984
0
3DFACE
8
layer1
62
1
10
99.75006
20
1566.06799
30
-170.29984
11
141.42873
21
1299.70972
31
-241.45642
12
97.53701
22
1299.70972
32
-335.16699
13
97.53701
23
1740.37866
33
-335.16699
0
3DFACE
8
layer1
62
1
10
99.75006
20
1566.06799
30
-170.29984
11
97.53701
21
1740.37866
31
-335.16699
12
-97.53701
22
1740.37866
32
-335.16699
13
-99.75006
23
1566.06799
33
-170.29984
0
3DFACE
8
layer1
62
1
10
335.16699
20
1740.37866
30
-97.53703
11
335.16699
21
1740.37866
31
97.53698
12
335.16699
22
1299.70972
32
97.53698
13
335.16699
23
1299.70972
33
-97.53703
0
3DFACE
8
layer1
62
1
10
335.16699
20
1740.37866
30
97.53698
11
170.29984
21
1566.06799
31
99.75006
12
241.45642
22
1299.70972
32
141.42873
13
335.16699
23
1299.70972
33
97.53698
0
3DFACE
8
layer1
62
1
10
170.29984
20
1566.06799
30
-99.75006
11
335.16699
21
1740.37866
31
-97.53703
12
335.16699
22
1299.70972
32
-97.53703
13
241.45642
23
1299.70972
33
-141.42873
0
3DFACE
8
layer1
62
1
10
170.29984
20
1566.06799
30
-99.75006
11
170.29984
21
1566.06799
31
99.75006
12
335.16699
22
1740.37866
32
97.53698
13
335.16699
23
1740.37866
33
-97.53703
0
3DFACE
8
layer1
62
1
10
-335.16699
20
1740.37866
30
-97.53698
11
-335.16699
21
1299.70972
31
-97.53698
12
-335.16699
22
1299.70972
32
97.53703
13
-335.16699
23
1740.37866
33
97.53703
0
3DFACE
8
layer1
62
1
10
-335.16699
20
1740.37866
30
97.53703
11
-335.16699
21
1299.70972
31
97.53703
12
-241.45642
22
1299.70972
32
141.42873
13
-170.29984
23
1566.06799
33
99.75006
0
3DFACE
8
layer1
62
1
10
-170.29984
20
1566.06799
30
-99.75006
11
-241.45642
21
1299.70972
31
-141.42873
12
-335.16699
22
1299.70972
32
-97.53698
13
-335.16699
23
1740.37866
33
-97.53698
0
3DFACE
8
layer1
62
1
10
-170.29984
20
1566.06799
30
-99.75006
11
-335.16699
21
1740.37866
31
-97.53698
12
-335.16699
22
1740.37866
32
97.53703
13
-170.29984
23
1566.06799
33
99.75006
0
3DFACE
8
layer1
62
1
10
305.96796
20
1586.48145
30
168.02971
11
168.02971
21
1586.48145
31
305.96796
12
168.02971
22
1299.70972
32
305.96796
13
305.96796
23
1299.70972
33
168.02971
0
3DFACE
8
layer1
62
1
10
168.02971
20
1586.48145
30
305.96796
11
70.73026
21
1586.48145
31
270.74057
12
70.73026
22
1299.70972
32
270.74057
13
168.02971
23
1299.70972
33
305.96796
0
3DFACE
8
layer1
62
1
10
270.74057
20
1586.48145
30
70.73026
11
305.96796
21
1586.48145
31
168.02971
12
305.96796
22
1299.70972
32
168.02971
13
270.74057
23
1299.70972
33
70.73026
0
3DFACE
8
layer1
62
1
10
270.74057
20
1586.48145
30
70.73026
11
70.73026
21
1586.48145
31
270.74057
12
168.02971
22
1586.48145
32
305.96796
13
305.96796
23
1586.48145
33
168.02971
0
3DFACE
8
layer1
62
1
10
-168.02971
20
1586.48145
30
-305.96796
11
-168.02971
21
1299.70972
31
-305.96796
12
-305.96796
22
1299.70972
32
-168.02971
13
-305.96796
23
1586.48145
33
-168.02971
0
3DFACE
8
layer1
62
1
10
-305.96796
20
1586.48145
30
-168.02971
11
-305.96796
21
1299.70972
31
-168.02971
12
-270.74057
22
1299.70972
32
-70.73026
13
-270.74057
23
1586.48145
33
-70.73026
0
3DFACE
8
layer1
62
1
10
-70.73026
20
1586.48145
30
-270.74057
11
-70.73026
21
1299.70972
31
-270.74057
12
-168.02971
22
1299.70972
32
-305.96796
13
-168.02971
23
1586.48145
33
-305.96796
0
3DFACE
8
layer1
62
1
10
-70.73026
20
1586.48145
30
-270.74057
11
-168.02971
21
1586.48145
31
-305.96796
12
-305.96796
22
1586.48145
32
-168.02971
13
-270.74057
23
1586.48145
33
-70.73026
0
3DFACE
8
layer1
62
1
10
168.02971
20
1586.48145
30
-305.96796
11
305.96793
21
1586.48145
31
-168.02972
12
305.96793
22
1299.70972
32
-168.02972
13
168.02971
23
1299.70972
33
-305.96796
0
3DFACE
8
layer1
62
1
10
305.96793
20
1586.48145
30
-168.02972
11
270.74057
21
1586.48145
31
-70.73027
12
270.74057
22
1299.70972
32
-70.73027
13
305.96793
23
1299.70972
33
-168.02972
0
3DFACE
8
layer1
62
1
10
70.73026
20
1586.48145
30
-270.74057
11
168.02971
21
1586.48145
31
-305.96796
12
168.02971
22
1299.70972
32
-305.96796
13
70.73026
23
1299.70972
33
-270.74057
0
3DFACE
8
layer1
62
1
10
70.73026
20
1586.48145
30
-270.74057
11
270.74057
21
1586.48145
31
-70.73027
12
305.96793
22
1586.48145
32
-168.02972
13
168.02971
23
1586.48145
33
-305.96796
0
3DFACE
8
layer1
62
1
10
-305.96793
20
1586.48145
30
168.02972
11
-305.96793
21
1299.70972
31
168.02972
12
-168.02971
22
1299.70972
32
305.96796
13
-168.02971
23
1586.48145
33
305.96796
0
3DFACE
8
layer1
62
1
10
-168.02971
20
1586.48145
30
305.96796
11
-168.02971
21
1299.70972
31
305.96796
12
-70.73026
22
1299.70972
32
270.74057
13
-70.73026
23
1586.48145
33
270.74057
0
3DFACE
8
layer1
62
1
10
-270.74057
20
1586.48145
30
70.73027
11
-270.74057
21
1299.70972
31
70.73027
12
-305.96793
22
1299.70972
32
168.02972
13
-305.96793
23
1586.48145
33
168.02972
0
3DFACE
8
layer1
62
1
10
-270.74057
20
1586.48145
30
70.73027
11
-305.96793
21
1586.48145
31
168.02972
12
-168.02971
22
1586.48145
32
305.96796
13
-70.73026
23
1586.48145
33
270.74057
0
ENDSEC
0
EOF
