0
SECTION
2
ENTITIES
999
Created by Metasequoia
0
3DFACE
8
layer1
62
1
10
-255.59015
20
613.96368
30
324.37756
11
-297.57111
21
613.96368
31
324.37756
12
-297.57111
22
-349.81866
32
324.37756
13
-255.59015
23
-349.81866
33
324.37756
0
3DFACE
8
layer1
62
1
10
-297.57111
20
613.96368
30
324.37756
11
-297.57111
21
613.96368
31
282.39661
12
-297.57111
22
-349.81866
32
282.39661
13
-297.57111
23
-349.81866
33
324.37756
0
3DFACE
8
layer1
62
1
10
-297.57111
20
613.96368
30
282.39661
11
-255.59015
21
613.96368
31
282.39661
12
-255.59015
22
-349.81866
32
282.39661
13
-297.57111
23
-349.81866
33
282.39661
0
3DFACE
8
layer1
62
1
10
-255.59015
20
613.96368
30
282.39661
11
-255.59015
21
613.96368
31
324.37756
12
-255.59015
22
-349.81866
32
324.37756
13
-255.59015
23
-349.81866
33
282.39661
0
3DFACE
8
layer1
62
1
10
-255.59015
20
-349.81866
30
324.37756
11
-297.57111
21
-349.81866
31
324.37756
12
-297.57111
22
-349.81866
32
282.39661
13
-255.59015
23
-349.81866
33
282.39661
0
3DFACE
8
layer1
62
1
10
255.59015
20
613.96368
30
324.37756
11
255.59015
21
-349.81866
31
324.37756
12
297.57111
22
-349.81866
32
324.37756
13
297.57111
23
613.96368
33
324.37756
0
3DFACE
8
layer1
62
1
10
297.57111
20
613.96368
30
324.37756
11
297.57111
21
-349.81866
31
324.37756
12
297.57111
22
-349.81866
32
282.39661
13
297.57111
23
613.96368
33
282.39661
0
3DFACE
8
layer1
62
1
10
297.57111
20
613.96368
30
282.39661
11
297.57111
21
-349.81866
31
282.39661
12
255.59015
22
-349.81866
32
282.39661
13
255.59015
23
613.96368
33
282.39661
0
3DFACE
8
layer1
62
1
10
255.59015
20
613.96368
30
282.39661
11
255.59015
21
-349.81866
31
282.39661
12
255.59015
22
-349.81866
32
324.37756
13
255.59015
23
613.96368
33
324.37756
0
3DFACE
8
layer1
62
1
10
255.59015
20
-349.81866
30
324.37756
11
255.59015
21
-349.81866
31
282.39661
12
297.57111
22
-349.81866
32
282.39661
13
297.57111
23
-349.81866
33
324.37756
0
3DFACE
8
layer1
62
1
10
-255.59015
20
613.96368
30
-324.37756
11
-255.59015
21
-349.81866
31
-324.37756
12
-297.57111
22
-349.81866
32
-324.37756
13
-297.57111
23
613.96368
33
-324.37756
0
3DFACE
8
layer1
62
1
10
-297.57111
20
613.96368
30
-324.37756
11
-297.57111
21
-349.81866
31
-324.37756
12
-297.57111
22
-349.81866
32
-282.39661
13
-297.57111
23
613.96368
33
-282.39661
0
3DFACE
8
layer1
62
1
10
-297.57111
20
613.96368
30
-282.39661
11
-297.57111
21
-349.81866
31
-282.39661
12
-255.59015
22
-349.81866
32
-282.39661
13
-255.59015
23
613.96368
33
-282.39661
0
3DFACE
8
layer1
62
1
10
-255.59015
20
613.96368
30
-282.39661
11
-255.59015
21
-349.81866
31
-282.39661
12
-255.59015
22
-349.81866
32
-324.37756
13
-255.59015
23
613.96368
33
-324.37756
0
3DFACE
8
layer1
62
1
10
-255.59015
20
-349.81866
30
-324.37756
11
-255.59015
21
-349.81866
31
-282.39661
12
-297.57111
22
-349.81866
32
-282.39661
13
-297.57111
23
-349.81866
33
-324.37756
0
3DFACE
8
layer1
62
1
10
255.59015
20
613.96368
30
-324.37756
11
297.57111
21
613.96368
31
-324.37756
12
297.57111
22
-349.81866
32
-324.37756
13
255.59015
23
-349.81866
33
-324.37756
0
3DFACE
8
layer1
62
1
10
297.57111
20
613.96368
30
-324.37756
11
297.57111
21
613.96368
31
-282.39661
12
297.57111
22
-349.81866
32
-282.39661
13
297.57111
23
-349.81866
33
-324.37756
0
3DFACE
8
layer1
62
1
10
297.57111
20
613.96368
30
-282.39661
11
255.59015
21
613.96368
31
-282.39661
12
255.59015
22
-349.81866
32
-282.39661
13
297.57111
23
-349.81866
33
-282.39661
0
3DFACE
8
layer1
62
1
10
255.59015
20
613.96368
30
-282.39661
11
255.59015
21
613.96368
31
-324.37756
12
255.59015
22
-349.81866
32
-324.37756
13
255.59015
23
-349.81866
33
-282.39661
0
3DFACE
8
layer1
62
1
10
255.59015
20
-349.81866
30
-324.37756
11
297.57111
21
-349.81866
31
-324.37756
12
297.57111
22
-349.81866
32
-282.39661
13
255.59015
23
-349.81866
33
-282.39661
0
3DFACE
8
layer1
62
1
10
-297.14172
20
571.34467
30
324.37756
11
296.83521
21
571.34473
31
324.37756
12
296.83521
22
613.32562
32
324.37756
13
-297.14172
23
613.32562
33
324.37756
0
3DFACE
8
layer1
62
1
10
-297.14172
20
613.32562
30
324.37756
11
296.83521
21
613.32562
31
324.37756
12
296.83521
22
613.32562
32
282.39661
13
-297.14172
23
613.32562
33
282.39661
0
3DFACE
8
layer1
62
1
10
-297.14172
20
613.32562
30
282.39661
11
296.83521
21
613.32562
31
282.39661
12
296.83521
22
571.34473
32
282.39661
13
-297.14172
23
571.34467
33
282.39661
0
3DFACE
8
layer1
62
1
10
-297.14172
20
571.34467
30
282.39661
11
296.83521
21
571.34473
31
282.39661
12
296.83521
22
571.34473
32
324.37756
13
-297.14172
23
571.34467
33
324.37756
0
3DFACE
8
layer1
62
1
10
-297.14172
20
571.34467
30
-324.37756
11
-297.14172
21
613.32562
31
-324.37756
12
296.83521
22
613.32562
32
-324.37756
13
296.83521
23
571.34473
33
-324.37756
0
3DFACE
8
layer1
62
1
10
-297.14172
20
613.32562
30
-324.37756
11
-297.14172
21
613.32562
31
-282.39661
12
296.83521
22
613.32562
32
-282.39661
13
296.83521
23
613.32562
33
-324.37756
0
3DFACE
8
layer1
62
1
10
-297.14172
20
613.32562
30
-282.39661
11
-297.14172
21
571.34467
31
-282.39661
12
296.83521
22
571.34473
32
-282.39661
13
296.83521
23
613.32562
33
-282.39661
0
3DFACE
8
layer1
62
1
10
-297.14172
20
571.34467
30
-282.39661
11
-297.14172
21
571.34467
31
-324.37756
12
296.83521
22
571.34473
32
-324.37756
13
296.83521
23
571.34473
33
-282.39661
0
3DFACE
8
layer1
62
1
10
-297.84067
20
571.34467
30
296.98846
11
-297.84067
21
613.32562
31
296.98846
12
-297.84067
22
613.32562
32
-296.98846
13
-297.84067
23
571.34473
33
-296.98846
0
3DFACE
8
layer1
62
1
10
-297.84067
20
613.32562
30
296.98846
11
-255.85971
21
613.32562
31
296.98846
12
-255.85971
22
613.32562
32
-296.98846
13
-297.84067
23
613.32562
33
-296.98846
0
3DFACE
8
layer1
62
1
10
-255.85971
20
613.32562
30
296.98846
11
-255.85971
21
571.34467
31
296.98846
12
-255.85971
22
571.34473
32
-296.98846
13
-255.85971
23
613.32562
33
-296.98846
0
3DFACE
8
layer1
62
1
10
-255.85971
20
571.34467
30
296.98846
11
-297.84067
21
571.34467
31
296.98846
12
-297.84067
22
571.34473
32
-296.98846
13
-255.85971
23
571.34473
33
-296.98846
0
3DFACE
8
layer1
62
1
10
297.84067
20
571.34467
30
296.98846
11
297.84067
21
571.34473
31
-296.98846
12
297.84067
22
613.32562
32
-296.98846
13
297.84067
23
613.32562
33
296.98846
0
3DFACE
8
layer1
62
1
10
297.84067
20
613.32562
30
296.98846
11
297.84067
21
613.32562
31
-296.98846
12
255.85971
22
613.32562
32
-296.98846
13
255.85971
23
613.32562
33
296.98846
0
3DFACE
8
layer1
62
1
10
255.85971
20
613.32562
30
296.98846
11
255.85971
21
613.32562
31
-296.98846
12
255.85971
22
571.34473
32
-296.98846
13
255.85971
23
571.34467
33
296.98846
0
3DFACE
8
layer1
62
1
10
255.85971
20
571.34467
30
296.98846
11
255.85971
21
571.34473
31
-296.98846
12
297.84067
22
571.34473
32
-296.98846
13
297.84067
23
571.34467
33
296.98846
0
3DFACE
8
layer1
62
1
10
347.94882
20
644.11957
30
364.83740
11
-347.94882
21
644.11957
31
364.83740
12
-347.94882
22
608.99005
32
360.21252
13
347.94882
23
608.99005
33
360.21252
0
3DFACE
8
layer1
62
1
10
-347.94882
20
644.11957
30
364.83740
11
-347.94882
21
659.05200
31
251.41479
12
-347.94882
22
623.92242
32
246.78992
13
-347.94882
23
608.99005
33
360.21252
0
3DFACE
8
layer1
62
1
10
-347.94882
20
659.05200
30
251.41479
11
347.94882
21
659.05200
31
251.41479
12
347.94882
22
623.92242
32
246.78992
13
-347.94882
23
623.92242
33
246.78992
0
3DFACE
8
layer1
62
1
10
347.94882
20
659.05200
30
251.41479
11
347.94882
21
644.11957
31
364.83740
12
347.94882
22
608.99005
32
360.21252
13
347.94882
23
623.92242
33
246.78992
0
3DFACE
8
layer1
62
1
10
347.94882
20
659.05200
30
251.41479
11
-347.94882
21
659.05200
31
251.41479
12
-347.94882
22
644.11957
32
364.83740
13
347.94882
23
644.11957
33
364.83740
0
3DFACE
8
layer1
62
1
10
347.94882
20
608.99005
30
360.21252
11
-347.94882
21
608.99005
31
360.21252
12
-347.94882
22
623.92242
32
246.78992
13
347.94882
23
623.92242
33
246.78992
0
3DFACE
8
layer1
62
1
10
340.64722
20
652.46216
30
247.92247
11
-355.25043
21
652.46216
31
247.92247
12
-355.25043
22
617.05115
32
249.15904
13
340.64722
23
617.05115
33
249.15904
0
3DFACE
8
layer1
62
1
10
-355.25043
20
652.46216
30
247.92247
11
-355.25043
21
648.46948
31
133.59093
12
-355.25043
22
613.05835
32
134.82753
13
-355.25043
23
617.05115
33
249.15904
0
3DFACE
8
layer1
62
1
10
-355.25043
20
648.46948
30
133.59093
11
340.64722
21
648.46948
31
133.59093
12
340.64722
22
613.05835
32
134.82753
13
-355.25043
23
613.05835
33
134.82753
0
3DFACE
8
layer1
62
1
10
340.64722
20
648.46948
30
133.59093
11
340.64722
21
652.46216
31
247.92247
12
340.64722
22
617.05115
32
249.15904
13
340.64722
23
613.05835
33
134.82753
0
3DFACE
8
layer1
62
1
10
340.64722
20
648.46948
30
133.59093
11
-355.25043
21
648.46948
31
133.59093
12
-355.25043
22
652.46216
32
247.92247
13
340.64722
23
652.46216
33
247.92247
0
3DFACE
8
layer1
62
1
10
340.64722
20
617.05115
30
249.15904
11
-355.25043
21
617.05115
31
249.15904
12
-355.25043
22
613.05835
32
134.82753
13
340.64722
23
613.05835
33
134.82753
0
3DFACE
8
layer1
62
1
10
347.94882
20
645.77582
30
132.93556
11
-347.94882
21
645.77582
31
132.93556
12
-347.94882
22
610.34436
32
133.24475
13
347.94882
23
610.34436
33
133.24475
0
3DFACE
8
layer1
62
1
10
-347.94882
20
645.77582
30
132.93556
11
-347.94882
21
644.77753
31
18.53859
12
-347.94882
22
609.34601
32
18.84784
13
-347.94882
23
610.34436
33
133.24475
0
3DFACE
8
layer1
62
1
10
-347.94882
20
644.77753
30
18.53859
11
347.94882
21
644.77753
31
18.53859
12
347.94882
22
609.34601
32
18.84784
13
-347.94882
23
609.34601
33
18.84784
0
3DFACE
8
layer1
62
1
10
347.94882
20
644.77753
30
18.53859
11
347.94882
21
645.77582
31
132.93556
12
347.94882
22
610.34436
32
133.24475
13
347.94882
23
609.34601
33
18.84784
0
3DFACE
8
layer1
62
1
10
347.94882
20
644.77753
30
18.53859
11
-347.94882
21
644.77753
31
18.53859
12
-347.94882
22
645.77582
32
132.93556
13
347.94882
23
645.77582
33
132.93556
0
3DFACE
8
layer1
62
1
10
347.94882
20
610.34436
30
133.24475
11
-347.94882
21
610.34436
31
133.24475
12
-347.94882
22
609.34601
32
18.84784
13
347.94882
23
609.34601
33
18.84784
0
3DFACE
8
layer1
62
1
10
359.30829
20
645.77582
30
16.27354
11
13.27877
21
635.66437
31
16.27354
12
13.27877
22
600.23291
32
16.58273
13
359.30829
23
610.34436
33
16.58273
0
3DFACE
8
layer1
62
1
10
13.27877
20
629.19128
30
-101.00330
11
359.30829
21
644.77753
31
-101.00330
12
359.30829
22
609.34601
32
-100.69406
13
13.27877
23
593.75977
33
-100.69406
0
3DFACE
8
layer1
62
1
10
359.30829
20
644.77753
30
-101.00330
11
359.30829
21
645.77582
31
16.27354
12
359.30829
22
610.34436
32
16.58273
13
359.30829
23
609.34601
33
-100.69406
0
3DFACE
8
layer1
62
1
10
359.30829
20
644.77753
30
-101.00330
11
13.27877
21
629.19128
31
-101.00330
12
13.27877
22
635.66437
32
16.27354
13
359.30829
23
645.77582
33
16.27354
0
3DFACE
8
layer1
62
1
10
359.30829
20
610.34436
30
16.58273
11
13.27877
21
600.23291
31
16.58273
12
13.27877
22
593.75977
32
-100.69406
13
359.30829
23
609.34601
33
-100.69406
0
3DFACE
8
layer1
62
1
10
-324.23413
20
642.50140
30
-101.00330
11
-324.23413
21
643.49969
31
16.27354
12
13.27877
22
635.66437
32
16.27354
13
13.27877
23
629.19128
33
-101.00330
0
3DFACE
8
layer1
62
1
10
-324.23413
20
607.06989
30
-100.69406
11
-324.23413
21
642.50140
31
-101.00330
12
13.27877
22
629.19128
32
-101.00330
13
13.27877
23
593.75977
33
-100.69406
0
3DFACE
8
layer1
62
1
10
-324.23413
20
608.06824
30
16.58273
11
-324.23413
21
607.06989
31
-100.69406
12
13.27877
22
593.75977
32
-100.69406
13
13.27877
23
600.23291
33
16.58273
0
3DFACE
8
layer1
62
1
10
-324.23413
20
643.49969
30
16.27354
11
-324.23413
21
608.06824
31
16.58273
12
13.27877
22
600.23291
32
16.58273
13
13.27877
23
635.66437
33
16.27354
0
3DFACE
8
layer1
62
1
10
-324.23413
20
643.49969
30
16.27354
11
-324.23413
21
642.50140
31
-101.00330
12
-324.23413
22
607.06989
32
-100.69406
13
-324.23413
23
608.06824
33
16.58273
0
3DFACE
8
layer1
62
1
10
359.30829
20
645.77582
30
-104.29148
11
13.27877
21
627.28741
31
-104.29148
12
13.27877
22
591.85596
32
-103.98229
13
359.30829
23
610.34436
33
-103.98229
0
3DFACE
8
layer1
62
1
10
13.27877
20
634.66608
30
-223.06178
11
359.30829
21
644.77753
31
-223.06178
12
359.30829
22
609.34601
32
-222.75255
13
13.27877
23
599.23456
33
-222.75255
0
3DFACE
8
layer1
62
1
10
359.30829
20
644.77753
30
-223.06178
11
359.30829
21
645.77582
31
-104.29148
12
359.30829
22
610.34436
32
-103.98229
13
359.30829
23
609.34601
33
-222.75255
0
3DFACE
8
layer1
62
1
10
359.30829
20
644.77753
30
-223.06178
11
13.27877
21
634.66608
31
-223.06178
12
13.27877
22
627.28741
32
-104.29148
13
359.30829
23
645.77582
33
-104.29148
0
3DFACE
8
layer1
62
1
10
359.30829
20
610.34436
30
-103.98229
11
13.27877
21
591.85596
31
-103.98229
12
13.27877
22
599.23456
32
-222.75255
13
359.30829
23
609.34601
33
-222.75255
0
3DFACE
8
layer1
62
1
10
-329.28113
20
642.50140
30
-223.06178
11
-329.28113
21
643.49969
31
-104.29148
12
13.27877
22
627.28741
32
-104.29148
13
13.27877
23
634.66608
33
-223.06178
0
3DFACE
8
layer1
62
1
10
-329.28113
20
607.06989
30
-222.75255
11
-329.28113
21
642.50140
31
-223.06178
12
13.27877
22
634.66608
32
-223.06178
13
13.27877
23
599.23456
33
-222.75255
0
3DFACE
8
layer1
62
1
10
-329.28113
20
608.06824
30
-103.98229
11
-329.28113
21
607.06989
31
-222.75255
12
13.27877
22
599.23456
32
-222.75255
13
13.27877
23
591.85596
33
-103.98229
0
3DFACE
8
layer1
62
1
10
-329.28113
20
643.49969
30
-104.29148
11
-329.28113
21
608.06824
31
-103.98229
12
13.27877
22
591.85596
32
-103.98229
13
13.27877
23
627.28741
33
-104.29148
0
3DFACE
8
layer1
62
1
10
-329.28113
20
643.49969
30
-104.29148
11
-329.28113
21
642.50140
31
-223.06178
12
-329.28113
22
607.06989
32
-222.75255
13
-329.28113
23
608.06824
33
-103.98229
0
3DFACE
8
layer1
62
1
10
347.94882
20
645.77582
30
-228.12521
11
-347.94882
21
645.77582
31
-228.12521
12
-347.94882
22
610.34436
32
-227.81601
13
347.94882
23
610.34436
33
-227.81601
0
3DFACE
8
layer1
62
1
10
-347.94882
20
645.77582
30
-228.12521
11
-347.94882
21
638.02380
31
-342.52200
12
-347.94882
22
602.59229
32
-342.21280
13
-347.94882
23
610.34436
33
-227.81601
0
3DFACE
8
layer1
62
1
10
-347.94882
20
638.02380
30
-342.52200
11
347.94882
21
638.02380
31
-342.52200
12
347.94882
22
602.59229
32
-342.21280
13
-347.94882
23
602.59229
33
-342.21280
0
3DFACE
8
layer1
62
1
10
347.94882
20
638.02380
30
-342.52200
11
347.94882
21
645.77582
31
-228.12521
12
347.94882
22
610.34436
32
-227.81601
13
347.94882
23
602.59229
33
-342.21280
0
3DFACE
8
layer1
62
1
10
347.94882
20
638.02380
30
-342.52200
11
-347.94882
21
638.02380
31
-342.52200
12
-347.94882
22
645.77582
32
-228.12521
13
347.94882
23
645.77582
33
-228.12521
0
3DFACE
8
layer1
62
1
10
347.94882
20
610.34436
30
-227.81601
11
-347.94882
21
610.34436
31
-227.81601
12
-347.94882
22
602.59229
32
-342.21280
13
347.94882
23
602.59229
33
-342.21280
0
3DFACE
8
layer1
62
1
10
-297.41522
20
476.56708
30
317.31549
11
-318.50809
21
476.56708
31
317.31549
12
-318.50809
22
415.67303
32
330.25894
13
-297.41522
23
415.67303
33
330.25894
0
3DFACE
8
layer1
62
1
10
-318.50809
20
476.56708
30
317.31549
11
-318.50809
21
338.92090
31
-330.25894
12
-318.50809
22
278.02686
32
-317.31549
13
-318.50809
23
415.67303
33
330.25894
0
3DFACE
8
layer1
62
1
10
-318.50809
20
338.92090
30
-330.25894
11
-297.41522
21
338.92090
31
-330.25894
12
-297.41522
22
278.02686
32
-317.31549
13
-318.50809
23
278.02686
33
-317.31549
0
3DFACE
8
layer1
62
1
10
-297.41522
20
338.92090
30
-330.25894
11
-297.41522
21
476.56708
31
317.31549
12
-297.41522
22
415.67303
32
330.25894
13
-297.41522
23
278.02686
33
-317.31549
0
3DFACE
8
layer1
62
1
10
-297.41522
20
338.92090
30
-330.25894
11
-318.50809
21
338.92090
31
-330.25894
12
-318.50809
22
476.56708
32
317.31549
13
-297.41522
23
476.56708
33
317.31549
0
3DFACE
8
layer1
62
1
10
-297.41522
20
415.67303
30
330.25894
11
-318.50809
21
415.67303
31
330.25894
12
-318.50809
22
278.02686
32
-317.31549
13
-297.41522
23
278.02686
33
-317.31549
0
3DFACE
8
layer1
62
1
10
297.41522
20
373.65247
30
332.46097
11
297.41522
21
311.73923
31
325.95367
12
318.50809
22
311.73923
32
325.95367
13
318.50809
23
373.65247
33
332.46097
0
3DFACE
8
layer1
62
1
10
318.50809
20
373.65247
30
332.46097
11
318.50809
21
311.73923
31
325.95367
12
318.50809
22
380.94135
32
-332.46103
13
318.50809
23
442.85477
33
-325.95358
0
3DFACE
8
layer1
62
1
10
318.50809
20
442.85477
30
-325.95358
11
318.50809
21
380.94135
31
-332.46103
12
297.41522
22
380.94135
32
-332.46103
13
297.41522
23
442.85477
33
-325.95358
0
3DFACE
8
layer1
62
1
10
297.41522
20
442.85477
30
-325.95358
11
297.41522
21
380.94135
31
-332.46103
12
297.41522
22
311.73923
32
325.95367
13
297.41522
23
373.65247
33
332.46097
0
3DFACE
8
layer1
62
1
10
297.41522
20
442.85477
30
-325.95358
11
297.41522
21
373.65247
31
332.46097
12
318.50809
22
373.65247
32
332.46097
13
318.50809
23
442.85477
33
-325.95358
0
3DFACE
8
layer1
62
1
10
297.41522
20
311.73923
30
325.95367
11
297.41522
21
380.94135
31
-332.46103
12
318.50809
22
380.94135
32
-332.46103
13
318.50809
23
311.73923
33
325.95367
0
ENDSEC
0
EOF
